999
dxfrw 0.6.3
  0
SECTION
  2
HEADER
  9
$ACADVER
  1
AC1021
  9
$DWGCODEPAGE
  3
ANSI_1252
  9
$INSBASE
 10
0
 20
0
 30
0
  9
$EXTMIN
 10
-1.139532912475261e-012
 20
-1.364242052659392e-011
 30
0
  9
$EXTMAX
 10
282.5010921457728
 20
301
 30
0
  9
$LIMMIN
 10
0
 20
0
  9
$LIMMAX
 10
420
 20
297
  9
$ORTHOMODE
 70
    0
  9
$REGENMODE
 70
    1
  9
$FILLMODE
 70
    1
  9
$QTEXTMODE
 70
    0
  9
$MIRRTEXT
 70
    0
  9
$LTSCALE
 40
1
  9
$ATTMODE
 70
    0
  9
$TEXTSIZE
 40
2.5
  9
$TRACEWID
 40
15.68
  9
$TEXTSTYLE
  7
STANDARD
  9
$CLAYER
  8
0
  9
$CELTYPE
  6
BYLAYER
  9
$CECOLOR
 62
  256
  9
$CELTSCALE
 40
1
  9
$DISPSILH
 70
    0
  9
$DIMSCALE
 40
2.5
  9
$DIMASZ
 40
2.5
  9
$DIMEXO
 40
0.625
  9
$DIMDLI
 40
3.75
  9
$DIMRND
 40
0
  9
$DIMDLE
 40
0
  9
$DIMEXE
 40
1.25
  9
$DIMTP
 40
0
  9
$DIMTM
 40
0
  9
$DIMTXT
 40
2.5
  9
$DIMCEN
 40
2.5
  9
$DIMTSZ
 40
0
  9
$DIMTOL
 70
    0
  9
$DIMLIM
 70
    0
  9
$DIMTIH
 70
    0
  9
$DIMTOH
 70
    0
  9
$DIMSE1
 70
    0
  9
$DIMSE2
 70
    0
  9
$DIMTAD
 70
    1
  9
$DIMZIN
 70
    8
  9
$DIMBLK
  1

  9
$DIMASO
 70
    1
  9
$DIMSHO
 70
    1
  9
$DIMPOST
  1

  9
$DIMAPOST
  1

  9
$DIMALT
 70
    0
  9
$DIMALTD
 70
    3
  9
$DIMALTF
 40
0.03937
  9
$DIMLFAC
 40
1
  9
$DIMTOFL
 70
    1
  9
$DIMTVP
 40
0
  9
$DIMTIX
 70
    0
  9
$DIMSOXD
 70
    0
  9
$DIMSAH
 70
    0
  9
$DIMBLK1
  1

  9
$DIMBLK2
  1

  9
$DIMSTYLE
  2
Standard
  9
$DIMCLRD
 70
    0
  9
$DIMCLRE
 70
    0
  9
$DIMCLRT
 70
    0
  9
$DIMTFAC
 40
1
  9
$DIMGAP
 40
0.625
  9
$DIMJUST
 70
    0
  9
$DIMSD1
 70
    0
  9
$DIMSD2
 70
    0
  9
$DIMTOLJ
 70
    0
  9
$DIMTZIN
 70
    8
  9
$DIMALTZ
 70
    0
  9
$DIMALTTZ
 70
    0
  9
$DIMUPT
 70
    0
  9
$DIMDEC
 70
    2
  9
$DIMTDEC
 70
    2
  9
$DIMALTU
 70
    2
  9
$DIMALTTD
 70
    3
  9
$DIMTXSTY
  7
STANDARD
  9
$DIMAUNIT
 70
    0
  9
$DIMADEC
 70
    0
  9
$DIMALTRND
 40
0
  9
$DIMAZIN
 70
    0
  9
$DIMDSEP
 70
   44
  9
$DIMATFIT
 70
    3
  9
$DIMFRAC
 70
    0
  9
$DIMLDRBLK
  1
STANDARD
  9
$DIMLUNIT
 70
    2
  9
$DIMLWD
 70
   -2
  9
$DIMLWE
 70
   -2
  9
$DIMTMOVE
 70
    0
  9
$DIMFXL
 40
1
  9
$DIMFXLON
 70
    0
  9
$DIMJOGANG
 40
0.7854
  9
$DIMTFILL
 70
    0
  9
$DIMTFILLCLR
 70
    0
  9
$DIMARCSYM
 70
    0
  9
$DIMLTYPE
  6

  9
$DIMLTEX1
  6

  9
$DIMLTEX2
  6

  9
$LUNITS
 70
    2
  9
$LUPREC
 70
    4
  9
$SKETCHINC
 40
1
  9
$FILLETRAD
 40
0
  9
$AUNITS
 70
    0
  9
$AUPREC
 70
    2
  9
$MENU
  1
.
  9
$ELEVATION
 40
0
  9
$PELEVATION
 40
0
  9
$THICKNESS
 40
0
  9
$LIMCHECK
 70
    0
  9
$CHAMFERA
 40
0
  9
$CHAMFERB
 40
0
  9
$CHAMFERC
 40
0
  9
$CHAMFERD
 40
0
  9
$SKPOLY
 70
    0
  9
$USRTIMER
 70
    1
  9
$ANGBASE
 50
0
  9
$ANGDIR
 70
    0
  9
$PDMODE
 70
   34
  9
$PDSIZE
 40
0
  9
$PLINEWID
 40
0
  9
$SPLFRAME
 70
    0
  9
$SPLINETYPE
 70
    2
  9
$SPLINESEGS
 70
    8
  9
$HANDSEED
  5
20000
  9
$SURFTAB1
 70
    6
  9
$SURFTAB2
 70
    6
  9
$SURFTYPE
 70
    6
  9
$SURFU
 70
    6
  9
$SURFV
 70
    6
  9
$UCSBASE
  2

  9
$UCSNAME
  2

  9
$UCSORG
 10
0
 20
0
 30
0
  9
$UCSXDIR
 10
1
 20
0
 30
0
  9
$UCSYDIR
 10
0
 20
1
 30
0
  9
$UCSORTHOREF
  2

  9
$UCSORTHOVIEW
 70
    0
  9
$UCSORGTOP
 10
0
 20
0
 30
0
  9
$UCSORGBOTTOM
 10
0
 20
0
 30
0
  9
$UCSORGLEFT
 10
0
 20
0
 30
0
  9
$UCSORGRIGHT
 10
0
 20
0
 30
0
  9
$UCSORGFRONT
 10
0
 20
0
 30
0
  9
$UCSORGBACK
 10
0
 20
0
 30
0
  9
$PUCSBASE
  2

  9
$PUCSNAME
  2

  9
$PUCSORG
 10
0
 20
0
 30
0
  9
$PUCSXDIR
 10
1
 20
0
 30
0
  9
$PUCSYDIR
 10
0
 20
1
 30
0
  9
$PUCSORTHOREF
  2

  9
$PUCSORTHOVIEW
 70
    0
  9
$PUCSORGTOP
 10
0
 20
0
 30
0
  9
$PUCSORGBOTTOM
 10
0
 20
0
 30
0
  9
$PUCSORGLEFT
 10
0
 20
0
 30
0
  9
$PUCSORGRIGHT
 10
0
 20
0
 30
0
  9
$PUCSORGFRONT
 10
0
 20
0
 30
0
  9
$PUCSORGBACK
 10
0
 20
0
 30
0
  9
$USERI1
 70
    0
  9
$USERI2
 70
    0
  9
$USERI3
 70
    0
  9
$USERI4
 70
    0
  9
$USERI5
 70
    0
  9
$USERR1
 40
0
  9
$USERR2
 40
0
  9
$USERR3
 40
0
  9
$USERR4
 40
0
  9
$USERR5
 40
0
  9
$WORLDVIEW
 70
    1
  9
$SHADEDGE
 70
    3
  9
$SHADEDIF
 70
   70
  9
$TILEMODE
 70
    1
  9
$MAXACTVP
 70
   64
  9
$PINSBASE
 10
0
 20
0
 30
0
  9
$PLIMCHECK
 70
    0
  9
$PEXTMIN
 10
0
 20
0
 30
0
  9
$PEXTMAX
 10
0
 20
0
 30
0
  9
$SNAPSTYLE
 70
    0
  9
$PLIMMIN
 10
0
 20
0
  9
$PLIMMAX
 10
210
 20
297
  9
$UNITMODE
 70
    0
  9
$VISRETAIN
 70
    1
  9
$PLINEGEN
 70
    0
  9
$PSLTSCALE
 70
    1
  9
$TREEDEPTH
 70
 3020
  9
$CMLSTYLE
  2
Standard
  9
$CMLJUST
 70
    0
  9
$CMLSCALE
 40
20
  9
$PROXYGRAPHICS
 70
    1
  9
$MEASUREMENT
 70
    1
  9
$CELWEIGHT
370
   -1
  9
$ENDCAPS
280
    0
  9
$JOINSTYLE
280
    0
  9
$LWDISPLAY
290
    0
  9
$INSUNITS
 70
    4
  9
$HYPERLINKBASE
  1

  9
$STYLESHEET
  1

  9
$XEDIT
290
    1
  9
$CEPSNTYPE
380
    0
  9
$PSTYLEMODE
290
    1
  9
$EXTNAMES
290
    1
  9
$PSVPSCALE
 40
1
  9
$OLESTARTUP
290
    0
  9
$SORTENTS
280
  127
  9
$INDEXCTL
280
    0
  9
$HIDETEXT
280
    1
  9
$XCLIPFRAME
290
    0
  9
$HALOGAP
280
    0
  9
$OBSCOLOR
 70
  257
  9
$OBSLTYPE
280
    0
  9
$INTERSECTIONDISPLAY
280
    0
  9
$INTERSECTIONCOLOR
 70
  257
  9
$DIMASSOC
280
    1
  9
$PROJECTNAME
  1

  9
$CAMERADISPLAY
290
    0
  9
$LENSLENGTH
 40
50
  9
$CAMERAHEIGHT
 40
0
  9
$STEPSPERSEC
 40
2
  9
$STEPSIZE
 40
50
  9
$3DDWFPREC
 40
2
  9
$PSOLWIDTH
 40
5
  9
$PSOLHEIGHT
 40
80
  9
$LOFTANG1
 40
1.570796326794897
  9
$LOFTANG2
 40
1.570796326794897
  9
$LOFTMAG1
 40
0
  9
$LOFTMAG2
 40
0
  9
$LOFTPARAM
 70
    7
  9
$LOFTNORMALS
280
    1
  9
$LATITUDE
 40
1
  9
$LONGITUDE
 40
1
  9
$NORTHDIRECTION
 40
0
  9
$TIMEZONE
 70
-8000
  9
$LIGHTGLYPHDISPLAY
280
    1
  9
$TILEMODELIGHTSYNCH
280
    1
  9
$SOLIDHIST
280
    1
  9
$SHOWHIST
280
    1
  9
$DWFFRAME
280
    2
  9
$DGNFRAME
280
    0
  9
$REALWORLDSCALE
290
    1
  9
$INTERFERECOLOR
 62
    1
  9
$CSHADOW
280
    0
  9
$SHADOWPLANELOCATION
 40
0
  0
ENDSEC
  0
SECTION
  2
CLASSES
  0
ENDSEC
  0
SECTION
  2
TABLES
  0
TABLE
  2
VPORT
  5
8
330
0
100
AcDbSymbolTable
 70
    1
  0
VPORT
  5
31
330
2
100
AcDbSymbolTableRecord
100
AcDbViewportTableRecord
  2
*ACTIVE
 70
    0
 10
0
 20
0
 11
1
 21
1
 12
306.4529505389187
 22
221.3953680747098
 13
0
 23
0
 14
10
 24
10
 15
10
 25
10
 16
0
 26
0
 36
1
 17
0
 27
0
 37
0
 40
489.4649330250866
 41
1.963613550815558
 42
50
 43
0
 44
0
 50
0
 51
0
 71
    0
 72
  100
 73
    1
 74
    3
 75
    0
 76
    1
 77
    0
 78
    0
281
    0
 65
    1
110
0
120
0
130
0
111
1
121
0
131
0
112
0
122
1
132
0
 79
    0
146
0
348
10020
 60
    7
 61
    5
292
1
282
    1
141
0
142
0
 63
  250
421
3358443
  0
ENDTAB
  0
TABLE
  2
LTYPE
  5
5
330
0
100
AcDbSymbolTable
 70
    4
  0
LTYPE
  5
14
330
5
100
AcDbSymbolTableRecord
100
AcDbLinetypeTableRecord
  2
ByBlock
 70
    0
  3

 72
   65
 73
    0
 40
0
  0
LTYPE
  5
15
330
5
100
AcDbSymbolTableRecord
100
AcDbLinetypeTableRecord
  2
ByLayer
 70
    0
  3

 72
   65
 73
    0
 40
0
  0
LTYPE
  5
16
330
5
100
AcDbSymbolTableRecord
100
AcDbLinetypeTableRecord
  2
Continuous
 70
    0
  3
Solid line
 72
   65
 73
    0
 40
0
  0
LTYPE
  5
32
330
5
100
AcDbSymbolTableRecord
100
AcDbLinetypeTableRecord
  2
DOT
 70
    0
  3
Dot . . . . . . . . . . . . . . . . . . . . . .
 72
   65
 73
    2
 40
6.35
 49
0
 74
    0
 49
-6.35
 74
    0
  0
LTYPE
  5
33
330
5
100
AcDbSymbolTableRecord
100
AcDbLinetypeTableRecord
  2
DOTTINY
 70
    0
  3
Dot (.15x) .....................................
 72
   65
 73
    2
 40
0.9525
 49
0
 74
    0
 49
-0.9525
 74
    0
  0
LTYPE
  5
34
330
5
100
AcDbSymbolTableRecord
100
AcDbLinetypeTableRecord
  2
DOT2
 70
    0
  3
Dot (.5x) .....................................
 72
   65
 73
    2
 40
3.175
 49
0
 74
    0
 49
-3.175
 74
    0
  0
LTYPE
  5
35
330
5
100
AcDbSymbolTableRecord
100
AcDbLinetypeTableRecord
  2
DOTX2
 70
    0
  3
Dot (2x) .  .  .  .  .  .  .  .  .  .  .  .  .
 72
   65
 73
    2
 40
12.7
 49
0
 74
    0
 49
-12.7
 74
    0
  0
LTYPE
  5
36
330
5
100
AcDbSymbolTableRecord
100
AcDbLinetypeTableRecord
  2
DASHED
 70
    0
  3
Dashed _ _ _ _ _ _ _ _ _ _ _ _ _ _ _ _ _
 72
   65
 73
    2
 40
19.05
 49
12.7
 74
    0
 49
-6.35
 74
    0
  0
LTYPE
  5
37
330
5
100
AcDbSymbolTableRecord
100
AcDbLinetypeTableRecord
  2
DASHEDTINY
 70
    0
  3
Dashed (.15x) _ _ _ _ _ _ _ _ _ _ _ _ _ _ _ _ _
 72
   65
 73
    2
 40
2.8575
 49
1.905
 74
    0
 49
-0.9525
 74
    0
  0
LTYPE
  5
38
330
5
100
AcDbSymbolTableRecord
100
AcDbLinetypeTableRecord
  2
DASHED2
 70
    0
  3
Dashed (.5x) _ _ _ _ _ _ _ _ _ _ _ _ _ _ _ _ _
 72
   65
 73
    2
 40
9.524999999999999
 49
6.35
 74
    0
 49
-3.175
 74
    0
  0
LTYPE
  5
39
330
5
100
AcDbSymbolTableRecord
100
AcDbLinetypeTableRecord
  2
DASHEDX2
 70
    0
  3
Dashed (2x) ____  ____  ____  ____  ____  ___
 72
   65
 73
    2
 40
38.09999999999999
 49
25.4
 74
    0
 49
-12.7
 74
    0
  0
LTYPE
  5
3A
330
5
100
AcDbSymbolTableRecord
100
AcDbLinetypeTableRecord
  2
DASHDOT
 70
    0
  3
Dash dot __ . __ . __ . __ . __ . __ . __ . __
 72
   65
 73
    4
 40
25.4
 49
12.7
 74
    0
 49
-6.35
 74
    0
 49
0
 74
    0
 49
-6.35
 74
    0
  0
LTYPE
  5
3B
330
5
100
AcDbSymbolTableRecord
100
AcDbLinetypeTableRecord
  2
DASHDOTTINY
 70
    0
  3
Dash dot (.15x) _._._._._._._._._._._._._._._.
 72
   65
 73
    4
 40
3.81
 49
1.905
 74
    0
 49
-0.9525
 74
    0
 49
0
 74
    0
 49
-0.9525
 74
    0
  0
LTYPE
  5
3C
330
5
100
AcDbSymbolTableRecord
100
AcDbLinetypeTableRecord
  2
DASHDOT2
 70
    0
  3
Dash dot (.5x) _._._._._._._._._._._._._._._.
 72
   65
 73
    4
 40
12.7
 49
6.35
 74
    0
 49
-3.175
 74
    0
 49
0
 74
    0
 49
-3.175
 74
    0
  0
LTYPE
  5
3D
330
5
100
AcDbSymbolTableRecord
100
AcDbLinetypeTableRecord
  2
DASHDOTX2
 70
    0
  3
Dash dot (2x) ____  .  ____  .  ____  .  ___
 72
   65
 73
    4
 40
50.8
 49
25.4
 74
    0
 49
-12.7
 74
    0
 49
0
 74
    0
 49
-12.7
 74
    0
  0
LTYPE
  5
3E
330
5
100
AcDbSymbolTableRecord
100
AcDbLinetypeTableRecord
  2
DIVIDE
 70
    0
  3
Divide ____ . . ____ . . ____ . . ____ . . ____
 72
   65
 73
    6
 40
31.75
 49
12.7
 74
    0
 49
-6.35
 74
    0
 49
0
 74
    0
 49
-6.35
 74
    0
 49
0
 74
    0
 49
-6.35
 74
    0
  0
LTYPE
  5
3F
330
5
100
AcDbSymbolTableRecord
100
AcDbLinetypeTableRecord
  2
DIVIDETINY
 70
    0
  3
Divide (.15x) __..__..__..__..__..__..__..__.._
 72
   65
 73
    6
 40
4.7625
 49
1.905
 74
    0
 49
-0.9525
 74
    0
 49
0
 74
    0
 49
-0.9525
 74
    0
 49
0
 74
    0
 49
-0.9525
 74
    0
  0
LTYPE
  5
40
330
5
100
AcDbSymbolTableRecord
100
AcDbLinetypeTableRecord
  2
DIVIDE2
 70
    0
  3
Divide (.5x) __..__..__..__..__..__..__..__.._
 72
   65
 73
    6
 40
15.875
 49
6.35
 74
    0
 49
-3.175
 74
    0
 49
0
 74
    0
 49
-3.175
 74
    0
 49
0
 74
    0
 49
-3.175
 74
    0
  0
LTYPE
  5
41
330
5
100
AcDbSymbolTableRecord
100
AcDbLinetypeTableRecord
  2
DIVIDEX2
 70
    0
  3
Divide (2x) ________  .  .  ________  .  .  _
 72
   65
 73
    6
 40
63.5
 49
25.4
 74
    0
 49
-12.7
 74
    0
 49
0
 74
    0
 49
-12.7
 74
    0
 49
0
 74
    0
 49
-12.7
 74
    0
  0
LTYPE
  5
42
330
5
100
AcDbSymbolTableRecord
100
AcDbLinetypeTableRecord
  2
BORDER
 70
    0
  3
Border __ __ . __ __ . __ __ . __ __ . __ __ .
 72
   65
 73
    6
 40
44.45
 49
12.7
 74
    0
 49
-6.35
 74
    0
 49
12.7
 74
    0
 49
-6.35
 74
    0
 49
0
 74
    0
 49
-6.35
 74
    0
  0
LTYPE
  5
43
330
5
100
AcDbSymbolTableRecord
100
AcDbLinetypeTableRecord
  2
BORDERTINY
 70
    0
  3
Border (.15x) __.__.__.__.__.__.__.__.__.__.__.
 72
   65
 73
    6
 40
6.6675
 49
1.905
 74
    0
 49
-0.9525
 74
    0
 49
1.905
 74
    0
 49
-0.9525
 74
    0
 49
0
 74
    0
 49
-0.9525
 74
    0
  0
LTYPE
  5
44
330
5
100
AcDbSymbolTableRecord
100
AcDbLinetypeTableRecord
  2
BORDER2
 70
    0
  3
Border (.5x) __.__.__.__.__.__.__.__.__.__.__.
 72
   65
 73
    6
 40
22.225
 49
6.35
 74
    0
 49
-3.175
 74
    0
 49
6.35
 74
    0
 49
-3.175
 74
    0
 49
0
 74
    0
 49
-3.175
 74
    0
  0
LTYPE
  5
45
330
5
100
AcDbSymbolTableRecord
100
AcDbLinetypeTableRecord
  2
BORDERX2
 70
    0
  3
Border (2x) ____  ____  .  ____  ____  .  ___
 72
   65
 73
    6
 40
88.89999999999999
 49
25.4
 74
    0
 49
-12.7
 74
    0
 49
25.4
 74
    0
 49
-12.7
 74
    0
 49
0
 74
    0
 49
-12.7
 74
    0
  0
LTYPE
  5
46
330
5
100
AcDbSymbolTableRecord
100
AcDbLinetypeTableRecord
  2
CENTER
 70
    0
  3
Center ____ _ ____ _ ____ _ ____ _ ____ _ ____
 72
   65
 73
    4
 40
50.8
 49
31.75
 74
    0
 49
-6.35
 74
    0
 49
6.35
 74
    0
 49
-6.35
 74
    0
  0
LTYPE
  5
47
330
5
100
AcDbSymbolTableRecord
100
AcDbLinetypeTableRecord
  2
CENTERTINY
 70
    0
  3
Center (.15x) ___ _ ___ _ ___ _ ___ _ ___ _ ___
 72
   65
 73
    4
 40
7.62
 49
4.7625
 74
    0
 49
-0.9525
 74
    0
 49
0.9525
 74
    0
 49
-0.9525
 74
    0
  0
LTYPE
  5
48
330
5
100
AcDbSymbolTableRecord
100
AcDbLinetypeTableRecord
  2
CENTER2
 70
    0
  3
Center (.5x) ___ _ ___ _ ___ _ ___ _ ___ _ ___
 72
   65
 73
    4
 40
28.575
 49
19.05
 74
    0
 49
-3.175
 74
    0
 49
3.175
 74
    0
 49
-3.175
 74
    0
  0
LTYPE
  5
49
330
5
100
AcDbSymbolTableRecord
100
AcDbLinetypeTableRecord
  2
CENTERX2
 70
    0
  3
Center (2x) ________  __  ________  __  _____
 72
   65
 73
    4
 40
101.6
 49
63.5
 74
    0
 49
-12.7
 74
    0
 49
12.7
 74
    0
 49
-12.7
 74
    0
  0
ENDTAB
  0
TABLE
  2
LAYER
  5
2
330
0
100
AcDbSymbolTable
 70
    1
  0
LAYER
  5
10
330
2
100
AcDbSymbolTableRecord
100
AcDbLayerTableRecord
  2
0
 70
    0
 62
    7
  6
CONTINUOUS
370
    0
390
F
  0
ENDTAB
  0
TABLE
  2
STYLE
  5
3
330
0
100
AcDbSymbolTable
 70
    3
  0
STYLE
  5
4A
330
2
100
AcDbSymbolTableRecord
100
AcDbTextStyleTableRecord
  2
Standard
 70
    0
 40
0
 41
1
 50
0
 71
    0
 42
1
  3
txt
  4

  0
ENDTAB
  0
TABLE
  2
VIEW
  5
6
330
0
100
AcDbSymbolTable
 70
    0
  0
ENDTAB
  0
TABLE
  2
UCS
  5
7
330
0
100
AcDbSymbolTable
 70
    0
  0
ENDTAB
  0
TABLE
  2
APPID
  5
9
330
0
100
AcDbSymbolTable
 70
    1
  0
APPID
  5
12
330
9
100
AcDbSymbolTableRecord
100
AcDbRegAppTableRecord
  2
ACAD
 70
    0
  0
APPID
  5
4B
330
9
100
AcDbSymbolTableRecord
100
AcDbRegAppTableRecord
  2
LibreCad
 70
    0
  0
ENDTAB
  0
TABLE
  2
DIMSTYLE
  5
A
330
0
100
AcDbSymbolTable
 70
    1
100
AcDbDimStyleTable
 71
    1
  0
DIMSTYLE
105
4C
330
A
100
AcDbSymbolTableRecord
100
AcDbDimStyleTableRecord
  2
Standard
 70
    0
 40
1
 41
2.5
 42
0.625
 43
0.38
 44
1.25
 45
0
 46
0
 47
0
 48
0
 49
1
140
2.5
141
0.09
142
2.5
143
25.4
144
1
145
0
146
1
147
0.625
148
0
 71
    0
 72
    0
 73
    0
 74
    1
 75
    0
 76
    0
 77
    0
 78
    1
 79
    0
170
    0
171
    2
172
    0
173
    0
174
    0
175
    0
176
    0
177
    0
178
    0
179
    0
271
    2
272
    4
273
    2
274
    2
275
    0
276
    0
277
    2
278
    0
279
    0
280
    0
281
    0
282
    0
283
    1
284
    0
285
    0
286
    0
288
    0
289
    3
340
standard
341

371
   -2
372
   -2
  0
ENDTAB
  0
TABLE
  2
BLOCK_RECORD
  5
1
330
0
100
AcDbSymbolTable
 70
    2
  0
BLOCK_RECORD
  5
1F
330
1
100
AcDbSymbolTableRecord
100
AcDbBlockTableRecord
  2
*Model_Space
 70
    0
280
    1
281
    0
  0
BLOCK_RECORD
  5
1E
330
1
100
AcDbSymbolTableRecord
100
AcDbBlockTableRecord
  2
*Paper_Space
 70
    0
280
    1
281
    0
  0
ENDTAB
  0
ENDSEC
  0
SECTION
  2
BLOCKS
  0
BLOCK
  5
20
330
1F
100
AcDbEntity
  8
0
100
AcDbBlockBegin
  2
*Model_Space
 70
    0
 10
0
 20
0
 30
0
  3
*Model_Space
  1

  0
ENDBLK
  5
21
330
1F
100
AcDbEntity
  8
0
100
AcDbBlockEnd
  0
BLOCK
  5
1C
330
1B
100
AcDbEntity
  8
0
100
AcDbBlockBegin
  2
*Paper_Space
 70
    0
 10
0
 20
0
 30
0
  3
*Paper_Space
  1

  0
ENDBLK
  5
1D
330
1F
100
AcDbEntity
  8
0
100
AcDbBlockEnd
  0
ENDSEC
  0
SECTION
  2
ENTITIES
  0
LWPOLYLINE
  5
4D
100
AcDbEntity
  8
0
  6
ByLayer
 62
  256
370
   -1
100
AcDbPolyline
 90
  472
 70
    1
 43
0
 10
125.424909
 20
298.556835
 42
0.02350999999999993
 10
125.224458
 20
297.562325
 42
0.02666499999999989
 10
125.12874
 20
296.594343
 42
0.02729099999999992
 10
125.136388
 20
295.77401
 42
0.1154869999999991
 10
125.277758
 20
295.306835
 42
-0.1321789999999994
 10
125.448393
 20
294.6678870000001
 42
-0.002622000000000134
 10
125.4242189999999
 20
291.2689909999999
 42
-0.00606000000000002
 10
125.326486
 20
287.2768069999999
 42
-0.004007999999999991
 10
125.121901
 20
282.6939859999999
 10
124.5
 20
270.887972
 10
112.726484
 20
279.008139
 42
0.01109600000000001
 10
102.65412
 20
285.6301060000001
 42
0.1525130000000003
 10
98.474682
 20
286.727186
 42
0.2296730000000002
 10
95.23798100000003
 20
284.969441
 42
0.02844900000000006
 10
90.82082400000002
 20
278
 42
0.009701999999999969
 10
89.00540800000002
 20
274.58502
 42
0.01223400000000003
 10
87.46557899999999
 20
271.354042
 42
0.010389
 10
86.30631799999999
 20
268.608254
 42
0.08986900000000017
 10
86.04421199999999
 20
267.311634
 42
0.2031770000000002
 10
86.68874799999999
 20
265.7011790000001
 42
0.02226000000000025
 10
89.68296600000002
 20
262.941318
 42
0.01602899999999988
 10
94.74323599999946
 20
258.9477320000004
 42
0.003472000000000025
 10
103.7499999999989
 20
252.3928360000007
 42
-0.002098000000000046
 10
120.3454899999999
 20
240.3846329999999
 42
-0.06313099999999998
 10
124.087417
 20
236.851749
 42
-0.1487560000000001
 10
125.618671
 20
233.154809
 42
-0.02433899999999995
 10
126
 20
225.325686
 10
126
 20
215
 10
119.75
 20
214.843476
 42
0.005056999999999999
 10
112.784625
 20
214.598531
 42
0.03898700000000004
 10
109.547828
 20
214.197733
 42
0.07894899999999984
 10
107.424552
 20
213.401667
 42
0.05954900000000002
 10
105.415792
 20
211.92089
 42
0.03651899999999993
 10
104.232269
 20
210.634056
 42
0.01270999999999999
 10
102.716691
 20
208.620325
 42
0.01254699999999998
 10
101.154583
 20
206.310658
 42
0.01429200000000001
 10
99.77971200000013
 20
204.0221790000004
 42
-0.0005570000000002163
 10
98.57452899999981
 20
201.8853129999997
 42
-0.0008580000000001421
 10
97.5264889999994
 20
200.0392959999991
 42
-0.0002680000000000111
 10
96.61387799999943
 20
198.4402189999993
 42
-0.02562200000000019
 10
96.471311
 20
198.217977
 42
-0.3808730000000078
 10
96.20199799999318
 20
198.1573660000013
 42
-0.000150999999999914
 10
86.94334499999991
 20
203.2968619999976
 42
-0.001118000000000108
 10
78.47523799999931
 20
208.0256970000005
 42
-0.02971100000000011
 10
76.29669099999998
 20
209.424944
 42
-0.223895999999993
 10
76.20808799999577
 20
209.5871570000056
 42
-9.400000000001021e-005
 10
75.82027299999413
 20
216.1283210000068
 42
-0.001344000000000097
 10
75.40939800000024
 20
223.4129680000002
 42
-0.0008140000000002147
 10
74.96033799999975
 20
232.0366420000015
 42
0.004864000000000038
 10
73.85922099999993
 20
250.3281870000002
 42
0.1039779999999999
 10
72.38421399999999
 20
255.514943
 42
0.225077999999999
 10
69.09877199999998
 20
257.980262
 42
0.03398499999999995
 10
60.72287499999999
 20
259.101049
 42
0.009199000000000001
 10
57.072369
 20
259.271578
 42
0.012048
 10
53.733186
 20
259.285561
 42
0.009658000000000062
 10
50.964187
 20
259.176894
 42
0.1024559999999985
 10
49.87946
 20
258.88515
 42
0.2082450000000019
 10
48.989418
 20
257.813831
 42
0.03616299999999996
 10
48.42722000000002
 20
255.180296
 42
0.01985400000000001
 10
47.98124999999993
 20
250.6591359999998
 42
0.003332999999999939
 10
47.52918500000004
 20
241.965592
 42
-0.003609000000000005
 10
47.1154380000001
 20
234.092705
 42
-0.01616500000000022
 10
46.690981
 20
229.494628
 42
-0.02091600000000022
 10
46.219431
 20
226.683629
 42
-0.4613999999999983
 10
45.57473
 20
226.33295
 42
-0.04762099999999992
 10
44.74126100000024
 20
226.7475299999999
 42
-0.001527000000000281
 10
41.54986599999972
 20
228.7474870000003
 42
-0.002936000000000152
 10
37.80334799999997
 20
231.1421640000001
 42
-0.002033000000000099
 10
33.59288699999983
 20
233.8926950000001
 42
0.01666900000000007
 10
24.75351999999995
 20
239.304795
 42
0.2078549999999999
 10
20.93389499999999
 20
239.711915
 42
0.1730600000000005
 10
17.66160699999995
 20
237.2427769999999
 42
0.01091
 10
11.15516899999999
 20
226.861123
 42
0.01974000000000002
 10
6.55605599999999
 20
218.413283
 42
0.1961099999999998
 10
6.272531999999993
 20
214.469234
 42
0.169147
 10
8.804655999999923
 20
211.1429770000001
 42
0.01391099999999991
 10
18.19657299999984
 20
205.291419
 10
30.393147
 20
198.155548
 10
16.69085400000002
 20
191.644657
 42
0.006218999999999975
 10
11.40193100000001
 20
189.050411
 42
0.009335000000000012
 10
6.859263999999953
 20
186.644123
 42
0.004833000000000016
 10
3.104690999999979
 20
184.516939
 42
0.1714649999999991
 10
2.46313
 20
183.764514
 42
0.2121459999999999
 10
2.543971999999826
 20
182.2017950000002
 42
0.003628000000000057
 10
6.570236999999878
 20
174.4117670000002
 42
0.009023999999999947
 10
10.56964399999993
 20
167.1314460000001
 42
0.04109699999999999
 10
13.30683099999999
 20
163.152199
 42
0.2511890000000018
 10
15.54566999999999
 20
162.221642
 42
0.05633399999999992
 10
19.72558599999997
 20
163.116166
 42
0.027057
 10
26.64627799999994
 20
165.860131
 42
0.004528999999999948
 10
39.56755299999986
 20
171.9531809999999
 42
-0.004280999999999971
 10
48.17602799999998
 20
176.0177399999998
 42
-0.01151099999999996
 10
54.38638200000002
 20
178.713591
 42
-0.01052199999999992
 10
58.949053
 20
180.459602
 42
-0.148665999999999
 10
60.67741999999999
 20
180.544823
 42
-0.07170999999999997
 10
63.75400499999996
 20
179.283493
 42
-0.007582000000000031
 10
70.39459800000017
 20
175.2356819999999
 42
-0.003490999999999905
 10
77.32998499999999
 20
170.7946030000001
 42
-0.2470199999999997
 10
77.97790799999999
 20
169.636022
 42
-0.1295109999999995
 10
77.84119699999999
 20
169.057425
 42
-0.004059999999999992
 10
76.67163499999994
 20
166.904975
 42
-0.007665999999999947
 10
75.222679
 20
164.381262
 42
-0.005210000000000222
 10
73.49999999999991
 20
161.5520889999999
 42
0.01318799999999997
 10
71.77706499999995
 20
158.618116
 42
0.01591199999999993
 10
70.32187500000001
 20
155.773032
 42
0.01462900000000008
 10
69.25334100000002
 20
153.325994
 42
0.0959059999999997
 10
69.00000000000001
 20
152.017364
 42
0.07462599999999975
 10
69.19150200000001
 20
150.741426
 42
0.01447599999999999
 10
69.94183200000001
 20
148.528487
 42
0.01509700000000007
 10
70.97881999999998
 20
145.97707
 42
0.01344500000000002
 10
72.20623599999999
 20
143.390866
 42
-0.007509000000000043
 10
73.402547
 20
140.945571
 42
-0.01218199999999995
 10
74.33662099999998
 20
138.829038
 42
-0.005897000000000048
 10
75.046465
 20
137.049023
 42
-0.3307590000000009
 10
74.95623599999999
 20
136.724516
 42
-0.02737199999999995
 10
71.06441799999995
 20
134.027541
 42
-0.007575000000000011
 10
64.67025799999996
 20
130.2283060000001
 42
-0.003460000000000083
 10
57.95829499999983
 20
126.438103
 42
-0.1274670000000006
 10
56.267725
 20
126
 42
-0.09509200000000009
 10
54.9681819999999
 20
126.2494070000001
 42
-0.002104999999999984
 10
49.0133909999997
 20
128.6515900000002
 42
-0.004700999999999947
 10
42.05913699999962
 20
131.5676340000003
 42
-0.003150999999999912
 10
34.16008300000004
 20
135.0266890000002
 42
0.004393999999999969
 10
26.31460499999997
 20
138.4390739999999
 42
0.006976000000000061
 10
19.5330919999999
 20
141.207078
 42
0.002334999999999997
 10
13.67586199999991
 20
143.471528
 42
0.2335670000000009
 10
12.82288399999999
 20
143.390536
 42
0.1118550000000003
 10
10.71429999999998
 20
141.3197359999999
 42
0.005809999999999923
 10
5.629167000000052
 20
133.2094570000001
 42
0.005187000000000018
 10
0.6788119999999882
 20
124.914221
 42
0.1326879999999999
 10
0
 20
122.401324
 42
0.1038589999999999
 10
0.3668939999999963
 20
120.654071
 42
0.12373
 10
1.396938
 20
119.327314
 42
0.05577999999999994
 10
3.584130999999985
 20
117.977345
 42
0.007545000000000087
 10
8.500000000000114
 20
115.7439319999999
 42
-0.0008389999999999983
 10
11.29320199999995
 20
114.5198249999996
 42
-0.0004389999999999181
 10
14.76794599999971
 20
112.9864329999994
 42
-0.0004359999999999293
 10
18.32900499999977
 20
111.4074979999998
 42
-0.0006689999999999435
 10
21.41215700000004
 20
110.0323000000001
 10
28.324313
 20
106.938138
 10
16.988028
 20
99.21906899999996
 42
0.00909899999999994
 10
12.59083600000002
 20
96.10634399999998
 42
0.01248999999999996
 10
8.760526000000027
 20
93.13866
 42
0.00924400000000004
 10
5.701398000000013
 20
90.548129
 42
0.128536
 10
4.898546999999997
 20
89.35934899999999
 42
0.1249679999999999
 10
4.723552999999999
 20
87.413229
 42
0.06726399999999991
 10
5.424375999999988
 20
85.09266500000003
 42
0.02619000000000017
 10
7.35274400000003
 20
81.38850900000028
 42
0.002768999999999968
 10
12.34503899999993
 20
73.02018800000035
 42
0.008193000000000001
 10
15.03903200000001
 20
68.72146799999999
 42
0.04232200000000025
 10
16.76017499999999
 20
66.50745000000001
 42
0.08328400000000004
 10
18.20437699999999
 20
65.388401
 42
0.1238870000000001
 10
19.747879
 20
65
 42
0.1079869999999998
 10
21.30774399999997
 20
65.34086399999997
 42
0.0119570000000001
 10
24.60777800000002
 20
66.95205900000001
 42
0.01376599999999984
 10
28.56310899999994
 20
69.14189099999996
 42
0.009618999999999905
 10
32.90283999999929
 20
71.816957
 42
-0.0003959999999999978
 10
37.05880099999968
 20
74.48576200000025
 42
-0.0005539999999999802
 10
40.77584400000023
 20
76.86274599999933
 42
-0.0003269999999999941
 10
43.91319599999997
 20
78.86124199999948
 42
-0.007448000000000054
 10
44.82343800000002
 20
79.42136199999999
 42
-0.4992789999999925
 10
45.495867
 20
79.14542299999999
 42
-0.04549299999999994
 10
45.841641
 20
77.060196
 42
-0.01943500000000013
 10
45.98273599999993
 20
72.97644499999993
 42
-0.002932000000000027
 10
45.89930000000004
 20
64.79067399999985
 42
0.004998999999999779
 10
45.86293199999994
 20
58.78814700000025
 42
0.007367999999999865
 10
45.96135099999992
 20
53.51830200000018
 42
0.003835999999999962
 10
46.14378399999993
 20
49.07987800000011
 42
0.12688
 10
46.45819700000001
 20
48.067638
 42
0.2648169999999995
 10
48.23048399999995
 20
47.10064599999998
 42
0.01061500000000006
 10
55.83987199999996
 20
47.40141300000001
 42
0.01868800000000012
 10
63.48609299999998
 20
48.15396400000002
 42
0.04925000000000008
 10
68.83480099999998
 20
49.428341
 10
72.5
 20
50.693269
 10
73.12746399999995
 20
61.09663499999977
 42
0.004806000000000179
 10
73.37795399999993
 20
66.0400809999997
 42
0.002283999999999909
 10
73.61020700000006
 20
72.40963599999932
 42
0.002263999999999842
 10
73.79246899999987
 20
79.07168999999921
 42
0.003209999999999891
 10
73.88972799999999
 20
84.99999999999964
 10
74.024529
 20
98.5
 10
81.73450500000001
 20
103
 42
-0.002964999999999935
 10
84.76297399999993
 20
104.743601
 42
-0.004192999999999974
 10
87.48158000000004
 20
106.257403
 42
-0.002444999999999963
 10
89.78787500000003
 20
107.5018
 42
-0.05834399999999988
 10
90.472241
 20
107.769883
 42
-0.3069860000000023
 10
91.05888599999999
 20
107.563083
 42
-0.008026000000000063
 10
92.75313199999999
 20
105.190519
 42
-0.01422599999999999
 10
94.690324
 20
102.205318
 42
-0.008907000000000036
 10
96.79374199999998
 20
98.610086
 42
0.009738999999999918
 10
98.94579799999997
 20
94.94573300000002
 42
0.01332399999999984
 10
101.03366
 20
91.73906900000003
 42
0.01008700000000007
 10
102.880089
 20
89.17428800000002
 42
0.1326890000000012
 10
103.793742
 20
88.46106499999998
 42
0.07030699999999999
 10
104.951458
 20
88.15482699999998
 42
0.005296999999999952
 10
108.1894629999998
 20
87.80500300000003
 42
0.007231
 10
112.0772109999999
 20
87.48328499999997
 42
0.005434999999999905
 10
116.3618779999999
 20
87.23780099999999
 10
127.223756
 20
86.733879
 10
126.861878
 20
75.616939
 10
126.5
 20
64.5
 10
108.298102
 20
52.27413799999994
 42
0.004421999999999993
 10
101.2477309999999
 20
47.44751099999999
 42
0.006468999999999942
 10
95.13513199999994
 20
43.06434400000012
 42
0.003394999999999978
 10
90.05175100000002
 20
39.26515800000009
 42
0.1081159999999999
 10
89.048102
 20
38.089879
 42
0.08714100000000002
 10
88.264871
 20
35.706893
 42
0.09271199999999982
 10
88.365983
 20
33.253266
 42
0.04949399999999994
 10
89.49187699999996
 20
29.91171000000011
 42
0.009018999999999998
 10
92.28898299999994
 20
24.00000000000014
 42
0.009022999999999979
 10
94.51219599999999
 20
19.70885000000005
 42
0.03553799999999991
 10
96.11057299999999
 20
17.19921000000002
 42
0.06156299999999988
 10
97.47387000000001
 20
15.768069
 42
0.1373620000000002
 10
98.838883
 20
15.168802
 42
0.1384429999999998
 10
100.487854
 20
15.39187899999999
 42
0.02003900000000005
 10
103.572796
 20
16.880845
 42
0.01724599999999982
 10
107.739555
 20
19.29007200000001
 42
0.0065819999999999
 10
113.3774199999999
 20
22.91880199999991
 42
-0.003055000000000075
 10
118.115934
 20
26.01616299999998
 42
-0.004733000000000027
 10
122.247959
 20
28.62614800000006
 42
-0.001604999999999969
 10
125.835987
 20
30.82939700000009
 42
-0.1377320000000002
 10
126.443569
 20
31
 42
-0.4049140000000022
 10
126.778067
 20
30.67599099999998
 42
-0.003993999999999998
 10
126.865295
 20
27.02165099999997
 42
-0.01000900000000035
 10
126.847167
 20
22.642771
 42
-0.005941000000000253
 10
126.659097
 20
17.42666199999987
 42
0.005909999999999945
 10
126.4454779999999
 20
11.51215800000005
 42
0.01220099999999992
 10
126.446032
 20
6.885326000000087
 42
0.01182800000000004
 10
126.614284
 20
3.395592000000052
 42
0.1052780000000002
 10
127.039249
 20
1.926662
 42
0.1614029999999996
 10
128.157734
 20
0.8649710000000104
 42
0.07761099999999982
 10
130.077714
 20
0.303720000000002
 42
0.02923099999999999
 10
133.618584
 20
0.05174800000008872
 42
0.003148999999999843
 10
141.8351839999996
 20
5.684341886080801e-014
 42
0.005416999999999812
 10
148.0875319999999
 20
0.06773800000001984
 42
0.01458799999999996
 10
152.525919
 20
0.2935890000000043
 42
0.01481900000000002
 10
155.677457
 20
0.6405570000000078
 42
0.1629470000000001
 10
156.8
 20
1.199999999999991
 42
0.164480000000001
 10
157.363386
 20
2.338960000000004
 42
0.01416399999999989
 10
157.708397
 20
5.612973999999933
 42
0.01407900000000023
 10
157.9330179999999
 20
10.23990899999975
 42
0.005088000000000158
 10
158
 20
16.82197199999992
 10
158
 20
31.243944
 10
160.2499999999998
 20
29.59485200000009
 42
0.009700999999999972
 10
168.2955449999998
 20
23.93464900000012
 42
0.01102399999999993
 10
176.223202
 20
18.83496600000007
 42
0.005869999999999937
 10
183.324131
 20
14.599221
 42
0.1692629999999999
 10
185.379001
 20
14.202414
 42
0.1516769999999995
 10
186.52142
 20
14.748149
 42
0.03615099999999997
 10
187.977222
 20
16.30516299999998
 42
0.02834100000000019
 10
189.684996
 20
18.68280799999999
 42
0.01251500000000011
 10
191.678751
 20
21.99999999999998
 42
0.01675000000000013
 10
194.697603
 20
27.761261
 42
0.04441599999999995
 10
196.335715
 20
32.10818399999998
 42
0.0675919999999999
 10
196.778834
 20
35.331059
 42
0.1753600000000005
 10
195.996588
 20
37.50411200000001
 42
0.06491200000000016
 10
194.036904
 20
39.32400999999936
 42
0.0006820000000000353
 10
178.84151
 20
50.11319099999992
 42
0.001311999999999934
 10
164.2898720000007
 20
60.35826799999995
 42
0.02986400000000006
 10
159.936361
 20
63.03405900000001
 42
-0.1462880000000003
 10
158.885647
 20
64.077472
 42
-0.08638799999999976
 10
158.314822
 20
65.76587700000002
 42
-0.0343039999999998
 10
158.0555679999999
 20
68.80521300000001
 42
-0.00412800000000004
 10
157.9999999999999
 20
75.53518400000009
 10
158
 20
87
 10
167.5657409999999
 20
87.00000000000001
 42
0.009411999999999986
 10
171.3624249999999
 20
87.07147200000001
 42
0.01198900000000005
 10
174.858098
 20
87.28715400000003
 42
0.01001799999999997
 10
177.755856
 20
87.59439600000002
 42
0.09168799999999946
 10
178.958042
 20
87.97754500000002
 42
0.09414800000000015
 10
179.884344
 20
88.72529199999998
 42
0.01461500000000007
 10
181.362805
 20
90.57358199999999
 42
0.01584399999999993
 10
182.992679
 20
92.88695199999998
 42
0.01319699999999987
 10
184.579516
 20
95.44239699999997
 42
-0.009300999999999969
 10
186.115119
 20
97.95886900000002
 42
-0.01290299999999999
 10
187.590113
 20
100.150859
 42
-0.009420000000000038
 10
188.888554
 20
101.90595
 42
-0.1380160000000003
 10
189.499323
 20
102.361367
 42
-0.2332139999999997
 10
191.6291240000001
 20
102.165236
 42
-0.007999999999999887
 10
198.897329
 20
97.54678699999998
 42
-0.009551999999999963
 10
205.905267
 20
92.74036499999998
 42
-0.1672129999999999
 10
207.483776
 20
90.52537100000001
 42
-0.053797
 10
207.7535219999999
 20
89.0456310000002
 42
-0.001621000000000043
 10
208.1895629999999
 20
82.78897899999994
 42
-0.00319699999999996
 10
208.632717
 20
75.40509599999994
 42
-0.002201000000000027
 10
209.0445259999999
 20
67.03285399999967
 42
0.003178999999999954
 10
209.5648479999999
 20
56.85990300000002
 42
0.01065300000000002
 10
210.0901059999999
 20
50.20507500000006
 42
0.01013599999999993
 10
210.6449139999999
 20
45.61705000000005
 42
0.1626070000000016
 10
211.333234
 20
44.238195
 42
0.1558829999999997
 10
213.966551
 20
42.88021499999999
 42
0.01209799999999993
 10
221.9166989999998
 20
41.73835600000004
 42
0.01469300000000002
 10
229.8502409999999
 20
41.02981199999999
 42
0.09964199999999997
 10
233.731091
 20
41.572512
 10
236.5
 20
42.544408
 10
237
 20
58.240234
 10
237.5
 20
73.93606
 10
248.8533050000002
 20
66.46803
 42
0.00384299999999987
 10
256.310066
 20
61.64479200000018
 42
0.03492900000000008
 10
259.713934
 20
59.80013400000001
 42
0.09432099999999989
 10
261.847202
 20
59.280999
 42
0.1620419999999996
 10
263.592652
 20
59.76531300000001
 42
0.09916699999999999
 10
265.885586
 20
62.077788
 42
0.005089999999999925
 10
271.6308619999999
 20
70.97665899999947
 42
0.004051999999999966
 10
277.3146389999998
 20
80.14382599999954
 42
0.1375839999999998
 10
278
 20
82.587378
 42
0.1393089999999989
 10
277.450703
 20
84.52062599999998
 42
0.08011799999999984
 10
275.853854
 20
86.365101
 42
0.03082799999999996
 10
272.461336
 20
88.86837900000012
 42
0.003364999999999958
 10
264.278138
 20
94.08281700000015
 42
-0.003268999999999974
 10
260.359146
 20
96.57898600000001
 42
-0.005267999999999978
 10
257.0578569999994
 20
98.76182800000015
 42
-0.001316999999999869
 10
254.2141339999998
 20
100.6964290000001
 42
-0.2456059999999897
 10
254.052564
 20
101
 42
-0.2884089999999934
 10
254.2271779999999
 20
101.2821629999999
 42
-0.001024000000000042
 10
257.934956
 20
103.0870199999998
 42
-0.004835000000000034
 10
262.2040480000001
 20
105.1035779999999
 42
-0.002962000000000006
 10
267.2744269999998
 20
107.4026209999998
 42
0.004029999999999962
 10
276.1345399999997
 20
111.4428769999998
 42
0.03932499999999997
 10
279.716485
 20
113.467715
 42
0.107164
 10
281.376502
 20
115.199758
 42
0.1363949999999987
 10
281.984687
 20
117.318475
 42
0.1394709999999997
 10
281.2193349999999
 20
120.097587
 42
0.007185999999999995
 10
276.2209159999999
 20
128.0656370000001
 42
0.005085999999999902
 10
270.890295
 20
136.1173199999998
 42
0.247904999999996
 10
269.243649
 20
136.995225
 42
0.0949030000000002
 10
268.3182840000001
 20
136.8216319999999
 42
0.0009389999999999769
 10
262.0214459999997
 20
134.3316949999998
 42
0.00304300000000002
 10
254.7781830000001
 20
131.4005830000001
 42
0.001963999999999994
 10
246.4216650000001
 20
127.921184
 10
224.856031
 20
118.842367
 10
216.678016
 20
124.1052450000001
 42
-0.00562200000000018
 10
208.6224729999997
 20
129.4183380000003
 42
-0.1497720000000001
 10
207.024254
 20
131.398144
 42
-0.2160480000000008
 10
207.123668
 20
133.669696
 42
-0.01347400000000007
 10
210.404569
 20
139.729409
 42
0.0120270000000001
 10
212.16355
 20
142.955848
 42
0.0146259999999998
 10
213.647908
 20
146.061697
 42
0.01321200000000012
 10
214.741458
 20
148.720842
 42
0.09196599999999983
 10
214.992563
 20
150.098264
 42
0.08973900000000053
 10
214.739371
 20
151.473299
 42
0.01308699999999998
 10
213.662117
 20
154.114508
 42
0.01444900000000002
 10
212.201668
 20
157.197992
 42
0.01193599999999999
 10
210.473829
 20
160.397932
 42
-0.003250000000000063
 10
208.763323
 20
163.4382330000001
 42
-0.00540700000000007
 10
207.366666
 20
166.0244760000002
 42
-0.001174000000000128
 10
206.1830659999998
 20
168.2869230000004
 42
-0.3931449999999669
 10
206.231266
 20
168.461409
 42
-0.01229200000000001
 10
211.740657
 20
171.671192
 42
-0.007237
 10
218.4710580000001
 20
175.2479220000001
 42
-0.00310099999999997
 10
225.136168
 20
178.6151380000001
 42
-0.1159140000000002
 10
226.773976
 20
179
 42
-0.1048080000000003
 10
228.032988
 20
178.73316
 42
-0.00212000000000001
 10
233.989895
 20
176.059038
 42
-0.004914000000000023
 10
240.9312490000002
 20
172.824893
 42
-0.003272000000000008
 10
248.8255710000001
 20
168.988214
 42
0.002785999999999923
 10
259.7243949999996
 20
163.6782260000002
 42
0.01607099999999999
 10
265.5897029999999
 20
161.089476
 42
0.02624100000000006
 10
269.24928
 20
159.831721
 42
0.1949050000000022
 10
271.043718
 20
160.0233969999999
 42
0.02911399999999997
 10
271.792603
 20
160.482139
 42
0.03648599999999998
 10
272.425342
 20
160.994606
 42
0.03964600000000017
 10
272.872561
 20
161.486517
 42
0.166152999999999
 10
272.9999999999999
 20
161.859428
 42
-0.1170550000000045
 10
273.1311539999999
 20
162.411978
 42
-0.002118000000000043
 10
274.511817
 20
165.127763
 42
-0.005139000000000064
 10
276.1742630000001
 20
168.2836
 42
-0.003392999999999951
 10
278.146611
 20
171.8776329999999
 42
0.007405999999999987
 10
280.536241
 20
176.3161249999999
 42
0.02636099999999997
 10
281.8711099999999
 20
179.254893
 42
0.03894299999999995
 10
282.4764069999999
 20
181.241119
 42
0.2562360000000019
 10
282.195499
 20
182.204501
 42
0.06907000000000015
 10
281.3259679999999
 20
182.862067
 42
0.002349000000000017
 10
277.5672989999999
 20
184.9392090000001
 42
0.004382999999999909
 10
273.0865380000002
 20
187.3372249999999
 42
0.003039000000000039
 10
267.981407
 20
189.9726619999999
 42
-0.004786999999999964
 10
261.6181940000001
 20
193.2857789999999
 42
-0.02200500000000006
 10
258.0379599999999
 20
195.40095
 42
-0.03937499999999999
 10
256.151631
 20
196.853886
 42
-0.4670689999999986
 10
256.182518
 20
197.662908
 42
-0.025381
 10
257.08773
 20
198.292847
 42
-0.001723000000000015
 10
259.75674
 20
199.9431190000001
 42
-0.002465999999999946
 10
262.9567559999999
 20
201.884851
 42
-0.001845999999999967
 10
266.4999999999998
 20
203.993258
 42
0.00763899999999999
 10
272.7246349999999
 20
207.7955489999999
 42
0.02295600000000007
 10
276.80641
 20
210.645575
 42
0.0295799999999998
 10
279.365573
 20
212.8657359999999
 42
0.201947000000003
 10
280
 20
214.372452
 42
0.1292829999999999
 10
279.4452070000001
 20
216.48225
 42
0.003492999999999968
 10
274.6382400000001
 20
224.853251
 42
0.006344000000000041
 10
269.8812109999999
 20
232.7723690000001
 42
0.04988599999999989
 10
267.277024
 20
236.174557
 42
0.08830300000000003
 10
265.103032
 20
237.798754
 42
0.1936030000000001
 10
263.068385
 20
237.968061
 42
0.05545900000000006
 10
259.9470409999999
 20
236.610469
 42
0.002620999999999949
 10
250.0326370000002
 20
230.85056
 42
-0.002268000000000199
 10
245.6172859999998
 20
228.2812269999997
 42
-0.003746000000000127
 10
241.8618349999995
 20
226.1559379999997
 42
-0.0005829999999999183
 10
238.5353150000001
 20
224.311228
 42
-0.3343209999999563
 10
238.325902
 20
224.340765
 42
-0.2104390000000078
 10
238.237905
 20
224.5672550000001
 42
-0.0003810000000000457
 10
238.4240429999999
 20
228.6996570000005
 42
-0.002664000000000016
 10
238.662402
 20
233.3599529999999
 42
-0.001634999999999967
 10
238.9904830000002
 20
238.8490619999997
 42
0.003784999999999863
 10
239.29901
 20
244.4125779999995
 42
0.005544000000000064
 10
239.4791169999999
 20
249.3122509999998
 42
0.002818999999999918
 10
239.5621319999999
 20
253.4588139999997
 42
0.09548500000000094
 10
239.3901930000001
 20
254.425558
 42
0.0914440000000014
 10
239.044493
 20
254.9909440000001
 42
0.03732500000000023
 10
238.392137
 20
255.617227
 42
0.03534499999999993
 10
237.57185
 20
256.202507
 42
0.03780099999999995
 10
236.694988
 20
256.651797
 42
0.1038610000000002
 10
233.150847
 20
257.336925
 42
0.01109600000000001
 10
224.727779
 20
257.0148859999999
 42
0.008410999999999939
 10
216.160533
 20
256.35194
 42
0.1749549999999991
 10
213.867643
 20
255.271222
 42
0.1704080000000002
 10
213.0817910000003
 20
253.6291730000002
 42
0.001906999999999991
 10
211.7771100000001
 20
241.2465790000001
 42
0.005348999999999977
 10
210.4211590000002
 20
226.2986640000002
 42
0.002856000000000024
 10
209.048317
 20
207.7941100000001
 42
-0.2263659999999985
 10
208.820389
 20
207.390022
 42
-0.004801000000000009
 10
206.8845059999999
 20
206.05879
 42
-0.01012999999999988
 10
204.532234
 20
204.542633
 42
-0.006535000000000192
 10
201.7499999999999
 20
202.8778879999999
 42
0.001264999999999941
 10
198.8158460000002
 20
201.1639790000001
 42
0.001410000000000022
 10
195.994856
 20
199.495865
 42
0.001300000000000031
 10
193.597865
 20
198.060883
 42
0.007429999999999997
 10
192.338872
 20
197.276999
 42
-0.1254959999999991
 10
190.943493
 20
196.8113880000001
 42
-0.2114519999999973
 10
189.801826
 20
197.220883
 42
-0.06289200000000009
 10
188.4432
 20
198.8872150000001
 42
-0.004629999999999952
 10
185.3603860000001
 20
203.9250460000001
 42
0.02555199999999996
 10
181.397004
 20
209.831917
 42
0.1134920000000002
 10
178.227709
 20
212.516066
 42
0.101281
 10
174.022078
 20
213.701846
 42
0.018238
 10
165.850777
 20
214
 10
157
 20
214
 10
157
 20
224.30887
 42
-0.008311999999999927
 10
157.075978
 20
228.879047
 42
-0.01786799999999999
 10
157.318759
 20
232.393169
 42
-0.01992100000000004
 10
157.695464
 20
234.981136
 42
-0.1214169999999993
 10
158.25
 20
236.203043
 42
-0.06399800000000012
 10
159.277022
 20
237.209508
 42
-0.001854999999999986
 10
164.165725
 20
240.8779999999999
 42
-0.003712000000000045
 10
169.9777810000001
 20
245.1390640000001
 42
-0.002544999999999921
 10
176.6333189999999
 20
249.8916209999999
 42
0.004673000000000115
 10
183.3115230000001
 20
254.703399
 42
0.006487999999999852
 10
189.1973279999999
 20
259.1471079999999
 42
0.004183999999999891
 10
194.0454599999999
 20
262.9725229999999
 42
0.07875299999999961
 10
195.34486
 20
264.403571
 42
0.07864800000000008
 10
196.089728
 20
266.057895
 42
0.1272189999999999
 10
196.1097
 20
267.592478
 42
0.05467200000000012
 10
195.323153
 20
269.7519229999999
 42
0.00547400000000004
 10
192.835175
 20
274.656122
 42
0.01213799999999995
 10
189.833924
 20
280.088952
 42
0.02939800000000004
 10
187.292668
 20
283.902838
 42
0.037879
 10
185.147931
 20
286.337059
 42
0.1956439999999975
 10
183.518523
 20
286.9999999999999
 42
0.1386750000000026
 10
182.7437879999999
 20
286.780914
 42
0.002529999999999978
 10
179.080157
 20
284.503125
 42
0.006054999999999981
 10
174.828677
 20
281.7575360000001
 42
0.003983000000000035
 10
170.0000000000002
 20
278.5
 42
-0.001560000000000207
 10
165.2198889999997
 20
275.2414119999996
 42
-0.002509000000000107
 10
161.1226130000002
 20
272.4968749999998
 42
-0.0004470000000001051
 10
157.4927139999995
 20
270.0963709999994
 42
-0.1468910000000025
 10
157.171756
 20
270
 42
-0.4149039999999701
 10
156.9971839999998
 20
270.1749830000001
 42
-0.0008010000000000401
 10
157.014511
 20
274.5531250000003
 42
-0.004462000000000016
 10
157.086988
 20
279.5564999999999
 42
-0.002673000000000063
 10
157.2579370000001
 20
285.5000000000001
 10
157.786688
 20
301
 10
141.912396
 20
301
 10
126.038104
 20
301
  0
LWPOLYLINE
  5
4E
100
AcDbEntity
  8
0
  6
ByLayer
 62
  256
370
   -1
100
AcDbPolyline
 90
   20
 70
    1
 43
0
 10
137.2
 20
288.8
 42
0.09337099999999923
 10
136.738524
 20
288.124296
 42
0.035226
 10
136.3525
 20
287.041875
 42
0.033385
 10
136.088524
 20
285.774826
 42
0.03467800000000013
 10
136
 20
284.5
 42
0.06283100000000014
 10
136.321882
 20
281.948609
 42
0.138161
 10
137.299997
 20
280.262174
 42
0.1348850000000005
 10
139.033121
 20
279.309765
 42
0.05865000000000021
 10
141.664816
 20
279
 42
0.08639099999999986
 10
143.984048
 20
279.403735
 42
0.1302909999999999
 10
145.663254
 20
280.562012
 42
0.1166150000000009
 10
146.666705
 20
282.510046
 42
0.06094499999999991
 10
147
 20
285.234259
 42
0.08306199999999998
 10
146.650019
 20
287.326476
 42
0.1320890000000001
 10
145.639986
 20
288.82155
 42
0.1189980000000002
 10
143.927009
 20
289.707069
 42
0.06013000000000036
 10
141.5
 20
290
 42
0.03467799999999979
 10
140.225174
 20
289.9114759999999
 42
0.033385
 10
138.958125
 20
289.6475
 42
0.03522599999999989
 10
137.875704
 20
289.261476
 42
0.09337100000000124
  0
ENDSEC
  0
SECTION
  2
OBJECTS
  0
DICTIONARY
  5
C
330
0
100
AcDbDictionary
281
    1
  3
ACAD_GROUP
350
D
  0
DICTIONARY
  5
D
330
C
100
AcDbDictionary
281
    1
  0
PLOTSETTINGS
  5
4F
100
AcDbPlotSettings
  6
1x1
 40
0
 41
0
 42
0
 43
0
  0
ENDSEC
  0
EOF
