999
dxfrw 0.6.3
  0
SECTION
  2
HEADER
  9
$ACADVER
  1
AC1021
  9
$DWGCODEPAGE
  3
ANSI_1252
  9
$INSBASE
 10
0
 20
0
 30
0
  9
$EXTMIN
 10
31.11672701285776
 20
30.13270218585978
 30
0
  9
$EXTMAX
 10
807.9931072092639
 20
769.8709774900437
 30
0
  9
$LIMMIN
 10
0
 20
0
  9
$LIMMAX
 10
420
 20
297
  9
$ORTHOMODE
 70
    0
  9
$REGENMODE
 70
    1
  9
$FILLMODE
 70
    1
  9
$QTEXTMODE
 70
    0
  9
$MIRRTEXT
 70
    0
  9
$LTSCALE
 40
1
  9
$ATTMODE
 70
    0
  9
$TEXTSIZE
 40
2.5
  9
$TRACEWID
 40
15.68
  9
$TEXTSTYLE
  7
STANDARD
  9
$CLAYER
  8
0
  9
$CELTYPE
  6
BYLAYER
  9
$CECOLOR
 62
  256
  9
$CELTSCALE
 40
1
  9
$DISPSILH
 70
    0
  9
$DIMSCALE
 40
2.5
  9
$DIMASZ
 40
2.5
  9
$DIMEXO
 40
0.625
  9
$DIMDLI
 40
3.75
  9
$DIMRND
 40
0
  9
$DIMDLE
 40
0
  9
$DIMEXE
 40
1.25
  9
$DIMTP
 40
0
  9
$DIMTM
 40
0
  9
$DIMTXT
 40
2.5
  9
$DIMCEN
 40
2.5
  9
$DIMTSZ
 40
0
  9
$DIMTOL
 70
    0
  9
$DIMLIM
 70
    0
  9
$DIMTIH
 70
    0
  9
$DIMTOH
 70
    0
  9
$DIMSE1
 70
    0
  9
$DIMSE2
 70
    0
  9
$DIMTAD
 70
    1
  9
$DIMZIN
 70
    8
  9
$DIMBLK
  1

  9
$DIMASO
 70
    1
  9
$DIMSHO
 70
    1
  9
$DIMPOST
  1

  9
$DIMAPOST
  1

  9
$DIMALT
 70
    0
  9
$DIMALTD
 70
    3
  9
$DIMALTF
 40
0.03937
  9
$DIMLFAC
 40
1
  9
$DIMTOFL
 70
    1
  9
$DIMTVP
 40
0
  9
$DIMTIX
 70
    0
  9
$DIMSOXD
 70
    0
  9
$DIMSAH
 70
    0
  9
$DIMBLK1
  1

  9
$DIMBLK2
  1

  9
$DIMSTYLE
  2
Standard
  9
$DIMCLRD
 70
    0
  9
$DIMCLRE
 70
    0
  9
$DIMCLRT
 70
    0
  9
$DIMTFAC
 40
1
  9
$DIMGAP
 40
0.625
  9
$DIMJUST
 70
    0
  9
$DIMSD1
 70
    0
  9
$DIMSD2
 70
    0
  9
$DIMTOLJ
 70
    0
  9
$DIMTZIN
 70
    8
  9
$DIMALTZ
 70
    0
  9
$DIMALTTZ
 70
    0
  9
$DIMUPT
 70
    0
  9
$DIMDEC
 70
    2
  9
$DIMTDEC
 70
    2
  9
$DIMALTU
 70
    2
  9
$DIMALTTD
 70
    3
  9
$DIMTXSTY
  7
STANDARD
  9
$DIMAUNIT
 70
    0
  9
$DIMADEC
 70
    0
  9
$DIMALTRND
 40
0
  9
$DIMAZIN
 70
    0
  9
$DIMDSEP
 70
   44
  9
$DIMATFIT
 70
    3
  9
$DIMFRAC
 70
    0
  9
$DIMLDRBLK
  1
STANDARD
  9
$DIMLUNIT
 70
    2
  9
$DIMLWD
 70
   -2
  9
$DIMLWE
 70
   -2
  9
$DIMTMOVE
 70
    0
  9
$DIMFXL
 40
1
  9
$DIMFXLON
 70
    0
  9
$DIMJOGANG
 40
0.7854
  9
$DIMTFILL
 70
    0
  9
$DIMTFILLCLR
 70
    0
  9
$DIMARCSYM
 70
    0
  9
$DIMLTYPE
  6

  9
$DIMLTEX1
  6

  9
$DIMLTEX2
  6

  9
$LUNITS
 70
    2
  9
$LUPREC
 70
    4
  9
$SKETCHINC
 40
1
  9
$FILLETRAD
 40
0
  9
$AUNITS
 70
    0
  9
$AUPREC
 70
    2
  9
$MENU
  1
.
  9
$ELEVATION
 40
0
  9
$PELEVATION
 40
0
  9
$THICKNESS
 40
0
  9
$LIMCHECK
 70
    0
  9
$CHAMFERA
 40
0
  9
$CHAMFERB
 40
0
  9
$CHAMFERC
 40
0
  9
$CHAMFERD
 40
0
  9
$SKPOLY
 70
    0
  9
$USRTIMER
 70
    1
  9
$ANGBASE
 50
0
  9
$ANGDIR
 70
    0
  9
$PDMODE
 70
   34
  9
$PDSIZE
 40
0
  9
$PLINEWID
 40
0
  9
$SPLFRAME
 70
    0
  9
$SPLINETYPE
 70
    2
  9
$SPLINESEGS
 70
    8
  9
$HANDSEED
  5
20000
  9
$SURFTAB1
 70
    6
  9
$SURFTAB2
 70
    6
  9
$SURFTYPE
 70
    6
  9
$SURFU
 70
    6
  9
$SURFV
 70
    6
  9
$UCSBASE
  2

  9
$UCSNAME
  2

  9
$UCSORG
 10
0
 20
0
 30
0
  9
$UCSXDIR
 10
1
 20
0
 30
0
  9
$UCSYDIR
 10
0
 20
1
 30
0
  9
$UCSORTHOREF
  2

  9
$UCSORTHOVIEW
 70
    0
  9
$UCSORGTOP
 10
0
 20
0
 30
0
  9
$UCSORGBOTTOM
 10
0
 20
0
 30
0
  9
$UCSORGLEFT
 10
0
 20
0
 30
0
  9
$UCSORGRIGHT
 10
0
 20
0
 30
0
  9
$UCSORGFRONT
 10
0
 20
0
 30
0
  9
$UCSORGBACK
 10
0
 20
0
 30
0
  9
$PUCSBASE
  2

  9
$PUCSNAME
  2

  9
$PUCSORG
 10
0
 20
0
 30
0
  9
$PUCSXDIR
 10
1
 20
0
 30
0
  9
$PUCSYDIR
 10
0
 20
1
 30
0
  9
$PUCSORTHOREF
  2

  9
$PUCSORTHOVIEW
 70
    0
  9
$PUCSORGTOP
 10
0
 20
0
 30
0
  9
$PUCSORGBOTTOM
 10
0
 20
0
 30
0
  9
$PUCSORGLEFT
 10
0
 20
0
 30
0
  9
$PUCSORGRIGHT
 10
0
 20
0
 30
0
  9
$PUCSORGFRONT
 10
0
 20
0
 30
0
  9
$PUCSORGBACK
 10
0
 20
0
 30
0
  9
$USERI1
 70
    0
  9
$USERI2
 70
    0
  9
$USERI3
 70
    0
  9
$USERI4
 70
    0
  9
$USERI5
 70
    0
  9
$USERR1
 40
0
  9
$USERR2
 40
0
  9
$USERR3
 40
0
  9
$USERR4
 40
0
  9
$USERR5
 40
0
  9
$WORLDVIEW
 70
    1
  9
$SHADEDGE
 70
    3
  9
$SHADEDIF
 70
   70
  9
$TILEMODE
 70
    1
  9
$MAXACTVP
 70
   64
  9
$PINSBASE
 10
0
 20
0
 30
0
  9
$PLIMCHECK
 70
    0
  9
$PEXTMIN
 10
0
 20
0
 30
0
  9
$PEXTMAX
 10
0
 20
0
 30
0
  9
$SNAPSTYLE
 70
    0
  9
$PLIMMIN
 10
0
 20
0
  9
$PLIMMAX
 10
210
 20
297
  9
$UNITMODE
 70
    0
  9
$VISRETAIN
 70
    1
  9
$PLINEGEN
 70
    0
  9
$PSLTSCALE
 70
    1
  9
$TREEDEPTH
 70
 3020
  9
$CMLSTYLE
  2
Standard
  9
$CMLJUST
 70
    0
  9
$CMLSCALE
 40
20
  9
$PROXYGRAPHICS
 70
    1
  9
$MEASUREMENT
 70
    1
  9
$CELWEIGHT
370
   -1
  9
$ENDCAPS
280
    0
  9
$JOINSTYLE
280
    0
  9
$LWDISPLAY
290
    0
  9
$INSUNITS
 70
    4
  9
$HYPERLINKBASE
  1

  9
$STYLESHEET
  1

  9
$XEDIT
290
    1
  9
$CEPSNTYPE
380
    0
  9
$PSTYLEMODE
290
    1
  9
$EXTNAMES
290
    1
  9
$PSVPSCALE
 40
1
  9
$OLESTARTUP
290
    0
  9
$SORTENTS
280
  127
  9
$INDEXCTL
280
    0
  9
$HIDETEXT
280
    1
  9
$XCLIPFRAME
290
    0
  9
$HALOGAP
280
    0
  9
$OBSCOLOR
 70
  257
  9
$OBSLTYPE
280
    0
  9
$INTERSECTIONDISPLAY
280
    0
  9
$INTERSECTIONCOLOR
 70
  257
  9
$DIMASSOC
280
    1
  9
$PROJECTNAME
  1

  9
$CAMERADISPLAY
290
    0
  9
$LENSLENGTH
 40
50
  9
$CAMERAHEIGHT
 40
0
  9
$STEPSPERSEC
 40
2
  9
$STEPSIZE
 40
50
  9
$3DDWFPREC
 40
2
  9
$PSOLWIDTH
 40
5
  9
$PSOLHEIGHT
 40
80
  9
$LOFTANG1
 40
1.570796326794897
  9
$LOFTANG2
 40
1.570796326794897
  9
$LOFTMAG1
 40
0
  9
$LOFTMAG2
 40
0
  9
$LOFTPARAM
 70
    7
  9
$LOFTNORMALS
280
    1
  9
$LATITUDE
 40
1
  9
$LONGITUDE
 40
1
  9
$NORTHDIRECTION
 40
0
  9
$TIMEZONE
 70
-8000
  9
$LIGHTGLYPHDISPLAY
280
    1
  9
$TILEMODELIGHTSYNCH
280
    1
  9
$SOLIDHIST
280
    1
  9
$SHOWHIST
280
    1
  9
$DWFFRAME
280
    2
  9
$DGNFRAME
280
    0
  9
$REALWORLDSCALE
290
    1
  9
$INTERFERECOLOR
 62
    1
  9
$CSHADOW
280
    0
  9
$SHADOWPLANELOCATION
 40
0
  0
ENDSEC
  0
SECTION
  2
CLASSES
  0
ENDSEC
  0
SECTION
  2
TABLES
  0
TABLE
  2
VPORT
  5
8
330
0
100
AcDbSymbolTable
 70
    1
  0
VPORT
  5
31
330
2
100
AcDbSymbolTableRecord
100
AcDbViewportTableRecord
  2
*ACTIVE
 70
    0
 10
0
 20
0
 11
1
 21
1
 12
288.56682924569
 22
68.18542606052277
 13
0
 23
0
 14
10
 24
10
 15
10
 25
10
 16
0
 26
0
 36
1
 17
0
 27
0
 37
0
 40
80.09243329795734
 41
1.98856416772554
 42
50
 43
0
 44
0
 50
0
 51
0
 71
    0
 72
  100
 73
    1
 74
    3
 75
    0
 76
    1
 77
    0
 78
    0
281
    0
 65
    1
110
0
120
0
130
0
111
1
121
0
131
0
112
0
122
1
132
0
 79
    0
146
0
348
10020
 60
    7
 61
    5
292
1
282
    1
141
0
142
0
 63
  250
421
3358443
  0
ENDTAB
  0
TABLE
  2
LTYPE
  5
5
330
0
100
AcDbSymbolTable
 70
    4
  0
LTYPE
  5
14
330
5
100
AcDbSymbolTableRecord
100
AcDbLinetypeTableRecord
  2
ByBlock
 70
    0
  3

 72
   65
 73
    0
 40
0
  0
LTYPE
  5
15
330
5
100
AcDbSymbolTableRecord
100
AcDbLinetypeTableRecord
  2
ByLayer
 70
    0
  3

 72
   65
 73
    0
 40
0
  0
LTYPE
  5
16
330
5
100
AcDbSymbolTableRecord
100
AcDbLinetypeTableRecord
  2
Continuous
 70
    0
  3
Solid line
 72
   65
 73
    0
 40
0
  0
LTYPE
  5
32
330
5
100
AcDbSymbolTableRecord
100
AcDbLinetypeTableRecord
  2
DOT
 70
    0
  3
Dot . . . . . . . . . . . . . . . . . . . . . .
 72
   65
 73
    2
 40
6.35
 49
0
 74
    0
 49
-6.35
 74
    0
  0
LTYPE
  5
33
330
5
100
AcDbSymbolTableRecord
100
AcDbLinetypeTableRecord
  2
DOTTINY
 70
    0
  3
Dot (.15x) .....................................
 72
   65
 73
    2
 40
0.9525
 49
0
 74
    0
 49
-0.9525
 74
    0
  0
LTYPE
  5
34
330
5
100
AcDbSymbolTableRecord
100
AcDbLinetypeTableRecord
  2
DOT2
 70
    0
  3
Dot (.5x) .....................................
 72
   65
 73
    2
 40
3.175
 49
0
 74
    0
 49
-3.175
 74
    0
  0
LTYPE
  5
35
330
5
100
AcDbSymbolTableRecord
100
AcDbLinetypeTableRecord
  2
DOTX2
 70
    0
  3
Dot (2x) .  .  .  .  .  .  .  .  .  .  .  .  .
 72
   65
 73
    2
 40
12.7
 49
0
 74
    0
 49
-12.7
 74
    0
  0
LTYPE
  5
36
330
5
100
AcDbSymbolTableRecord
100
AcDbLinetypeTableRecord
  2
DASHED
 70
    0
  3
Dashed _ _ _ _ _ _ _ _ _ _ _ _ _ _ _ _ _
 72
   65
 73
    2
 40
19.05
 49
12.7
 74
    0
 49
-6.35
 74
    0
  0
LTYPE
  5
37
330
5
100
AcDbSymbolTableRecord
100
AcDbLinetypeTableRecord
  2
DASHEDTINY
 70
    0
  3
Dashed (.15x) _ _ _ _ _ _ _ _ _ _ _ _ _ _ _ _ _
 72
   65
 73
    2
 40
2.8575
 49
1.905
 74
    0
 49
-0.9525
 74
    0
  0
LTYPE
  5
38
330
5
100
AcDbSymbolTableRecord
100
AcDbLinetypeTableRecord
  2
DASHED2
 70
    0
  3
Dashed (.5x) _ _ _ _ _ _ _ _ _ _ _ _ _ _ _ _ _
 72
   65
 73
    2
 40
9.524999999999999
 49
6.35
 74
    0
 49
-3.175
 74
    0
  0
LTYPE
  5
39
330
5
100
AcDbSymbolTableRecord
100
AcDbLinetypeTableRecord
  2
DASHEDX2
 70
    0
  3
Dashed (2x) ____  ____  ____  ____  ____  ___
 72
   65
 73
    2
 40
38.09999999999999
 49
25.4
 74
    0
 49
-12.7
 74
    0
  0
LTYPE
  5
3A
330
5
100
AcDbSymbolTableRecord
100
AcDbLinetypeTableRecord
  2
DASHDOT
 70
    0
  3
Dash dot __ . __ . __ . __ . __ . __ . __ . __
 72
   65
 73
    4
 40
25.4
 49
12.7
 74
    0
 49
-6.35
 74
    0
 49
0
 74
    0
 49
-6.35
 74
    0
  0
LTYPE
  5
3B
330
5
100
AcDbSymbolTableRecord
100
AcDbLinetypeTableRecord
  2
DASHDOTTINY
 70
    0
  3
Dash dot (.15x) _._._._._._._._._._._._._._._.
 72
   65
 73
    4
 40
3.81
 49
1.905
 74
    0
 49
-0.9525
 74
    0
 49
0
 74
    0
 49
-0.9525
 74
    0
  0
LTYPE
  5
3C
330
5
100
AcDbSymbolTableRecord
100
AcDbLinetypeTableRecord
  2
DASHDOT2
 70
    0
  3
Dash dot (.5x) _._._._._._._._._._._._._._._.
 72
   65
 73
    4
 40
12.7
 49
6.35
 74
    0
 49
-3.175
 74
    0
 49
0
 74
    0
 49
-3.175
 74
    0
  0
LTYPE
  5
3D
330
5
100
AcDbSymbolTableRecord
100
AcDbLinetypeTableRecord
  2
DASHDOTX2
 70
    0
  3
Dash dot (2x) ____  .  ____  .  ____  .  ___
 72
   65
 73
    4
 40
50.8
 49
25.4
 74
    0
 49
-12.7
 74
    0
 49
0
 74
    0
 49
-12.7
 74
    0
  0
LTYPE
  5
3E
330
5
100
AcDbSymbolTableRecord
100
AcDbLinetypeTableRecord
  2
DIVIDE
 70
    0
  3
Divide ____ . . ____ . . ____ . . ____ . . ____
 72
   65
 73
    6
 40
31.75
 49
12.7
 74
    0
 49
-6.35
 74
    0
 49
0
 74
    0
 49
-6.35
 74
    0
 49
0
 74
    0
 49
-6.35
 74
    0
  0
LTYPE
  5
3F
330
5
100
AcDbSymbolTableRecord
100
AcDbLinetypeTableRecord
  2
DIVIDETINY
 70
    0
  3
Divide (.15x) __..__..__..__..__..__..__..__.._
 72
   65
 73
    6
 40
4.7625
 49
1.905
 74
    0
 49
-0.9525
 74
    0
 49
0
 74
    0
 49
-0.9525
 74
    0
 49
0
 74
    0
 49
-0.9525
 74
    0
  0
LTYPE
  5
40
330
5
100
AcDbSymbolTableRecord
100
AcDbLinetypeTableRecord
  2
DIVIDE2
 70
    0
  3
Divide (.5x) __..__..__..__..__..__..__..__.._
 72
   65
 73
    6
 40
15.875
 49
6.35
 74
    0
 49
-3.175
 74
    0
 49
0
 74
    0
 49
-3.175
 74
    0
 49
0
 74
    0
 49
-3.175
 74
    0
  0
LTYPE
  5
41
330
5
100
AcDbSymbolTableRecord
100
AcDbLinetypeTableRecord
  2
DIVIDEX2
 70
    0
  3
Divide (2x) ________  .  .  ________  .  .  _
 72
   65
 73
    6
 40
63.5
 49
25.4
 74
    0
 49
-12.7
 74
    0
 49
0
 74
    0
 49
-12.7
 74
    0
 49
0
 74
    0
 49
-12.7
 74
    0
  0
LTYPE
  5
42
330
5
100
AcDbSymbolTableRecord
100
AcDbLinetypeTableRecord
  2
BORDER
 70
    0
  3
Border __ __ . __ __ . __ __ . __ __ . __ __ .
 72
   65
 73
    6
 40
44.45
 49
12.7
 74
    0
 49
-6.35
 74
    0
 49
12.7
 74
    0
 49
-6.35
 74
    0
 49
0
 74
    0
 49
-6.35
 74
    0
  0
LTYPE
  5
43
330
5
100
AcDbSymbolTableRecord
100
AcDbLinetypeTableRecord
  2
BORDERTINY
 70
    0
  3
Border (.15x) __.__.__.__.__.__.__.__.__.__.__.
 72
   65
 73
    6
 40
6.6675
 49
1.905
 74
    0
 49
-0.9525
 74
    0
 49
1.905
 74
    0
 49
-0.9525
 74
    0
 49
0
 74
    0
 49
-0.9525
 74
    0
  0
LTYPE
  5
44
330
5
100
AcDbSymbolTableRecord
100
AcDbLinetypeTableRecord
  2
BORDER2
 70
    0
  3
Border (.5x) __.__.__.__.__.__.__.__.__.__.__.
 72
   65
 73
    6
 40
22.225
 49
6.35
 74
    0
 49
-3.175
 74
    0
 49
6.35
 74
    0
 49
-3.175
 74
    0
 49
0
 74
    0
 49
-3.175
 74
    0
  0
LTYPE
  5
45
330
5
100
AcDbSymbolTableRecord
100
AcDbLinetypeTableRecord
  2
BORDERX2
 70
    0
  3
Border (2x) ____  ____  .  ____  ____  .  ___
 72
   65
 73
    6
 40
88.89999999999999
 49
25.4
 74
    0
 49
-12.7
 74
    0
 49
25.4
 74
    0
 49
-12.7
 74
    0
 49
0
 74
    0
 49
-12.7
 74
    0
  0
LTYPE
  5
46
330
5
100
AcDbSymbolTableRecord
100
AcDbLinetypeTableRecord
  2
CENTER
 70
    0
  3
Center ____ _ ____ _ ____ _ ____ _ ____ _ ____
 72
   65
 73
    4
 40
50.8
 49
31.75
 74
    0
 49
-6.35
 74
    0
 49
6.35
 74
    0
 49
-6.35
 74
    0
  0
LTYPE
  5
47
330
5
100
AcDbSymbolTableRecord
100
AcDbLinetypeTableRecord
  2
CENTERTINY
 70
    0
  3
Center (.15x) ___ _ ___ _ ___ _ ___ _ ___ _ ___
 72
   65
 73
    4
 40
7.62
 49
4.7625
 74
    0
 49
-0.9525
 74
    0
 49
0.9525
 74
    0
 49
-0.9525
 74
    0
  0
LTYPE
  5
48
330
5
100
AcDbSymbolTableRecord
100
AcDbLinetypeTableRecord
  2
CENTER2
 70
    0
  3
Center (.5x) ___ _ ___ _ ___ _ ___ _ ___ _ ___
 72
   65
 73
    4
 40
28.575
 49
19.05
 74
    0
 49
-3.175
 74
    0
 49
3.175
 74
    0
 49
-3.175
 74
    0
  0
LTYPE
  5
49
330
5
100
AcDbSymbolTableRecord
100
AcDbLinetypeTableRecord
  2
CENTERX2
 70
    0
  3
Center (2x) ________  __  ________  __  _____
 72
   65
 73
    4
 40
101.6
 49
63.5
 74
    0
 49
-12.7
 74
    0
 49
12.7
 74
    0
 49
-12.7
 74
    0
  0
ENDTAB
  0
TABLE
  2
LAYER
  5
2
330
0
100
AcDbSymbolTable
 70
    1
  0
LAYER
  5
10
330
2
100
AcDbSymbolTableRecord
100
AcDbLayerTableRecord
  2
0
 70
    0
 62
    7
  6
CONTINUOUS
370
    0
390
F
  0
ENDTAB
  0
TABLE
  2
STYLE
  5
3
330
0
100
AcDbSymbolTable
 70
    3
  0
STYLE
  5
4A
330
2
100
AcDbSymbolTableRecord
100
AcDbTextStyleTableRecord
  2
Standard
 70
    0
 40
0
 41
1
 50
0
 71
    0
 42
1
  3
txt
  4

  0
ENDTAB
  0
TABLE
  2
VIEW
  5
6
330
0
100
AcDbSymbolTable
 70
    0
  0
ENDTAB
  0
TABLE
  2
UCS
  5
7
330
0
100
AcDbSymbolTable
 70
    0
  0
ENDTAB
  0
TABLE
  2
APPID
  5
9
330
0
100
AcDbSymbolTable
 70
    1
  0
APPID
  5
12
330
9
100
AcDbSymbolTableRecord
100
AcDbRegAppTableRecord
  2
ACAD
 70
    0
  0
APPID
  5
4B
330
9
100
AcDbSymbolTableRecord
100
AcDbRegAppTableRecord
  2
LibreCad
 70
    0
  0
ENDTAB
  0
TABLE
  2
DIMSTYLE
  5
A
330
0
100
AcDbSymbolTable
 70
    1
100
AcDbDimStyleTable
 71
    1
  0
DIMSTYLE
105
4C
330
A
100
AcDbSymbolTableRecord
100
AcDbDimStyleTableRecord
  2
Standard
 70
    0
 40
1
 41
2.5
 42
0.625
 43
0.38
 44
1.25
 45
0
 46
0
 47
0
 48
0
 49
1
140
2.5
141
0.09
142
2.5
143
25.4
144
1
145
0
146
1
147
0.625
148
0
 71
    0
 72
    0
 73
    0
 74
    1
 75
    0
 76
    0
 77
    0
 78
    1
 79
    0
170
    0
171
    2
172
    0
173
    0
174
    0
175
    0
176
    0
177
    0
178
    0
179
    0
271
    2
272
    4
273
    2
274
    2
275
    0
276
    0
277
    2
278
    0
279
    0
280
    0
281
    0
282
    0
283
    1
284
    0
285
    0
286
    0
288
    0
289
    3
340
standard
341

371
   -2
372
   -2
  0
ENDTAB
  0
TABLE
  2
BLOCK_RECORD
  5
1
330
0
100
AcDbSymbolTable
 70
    2
  0
BLOCK_RECORD
  5
1F
330
1
100
AcDbSymbolTableRecord
100
AcDbBlockTableRecord
  2
*Model_Space
 70
    0
280
    1
281
    0
  0
BLOCK_RECORD
  5
1E
330
1
100
AcDbSymbolTableRecord
100
AcDbBlockTableRecord
  2
*Paper_Space
 70
    0
280
    1
281
    0
  0
ENDTAB
  0
ENDSEC
  0
SECTION
  2
BLOCKS
  0
BLOCK
  5
20
330
1F
100
AcDbEntity
  8
0
100
AcDbBlockBegin
  2
*Model_Space
 70
    0
 10
0
 20
0
 30
0
  3
*Model_Space
  1

  0
ENDBLK
  5
21
330
1F
100
AcDbEntity
  8
0
100
AcDbBlockEnd
  0
BLOCK
  5
1C
330
1B
100
AcDbEntity
  8
0
100
AcDbBlockBegin
  2
*Paper_Space
 70
    0
 10
0
 20
0
 30
0
  3
*Paper_Space
  1

  0
ENDBLK
  5
1D
330
1F
100
AcDbEntity
  8
0
100
AcDbBlockEnd
  0
ENDSEC
  0
SECTION
  2
ENTITIES
  0
LWPOLYLINE
  5
4D
100
AcDbEntity
  8
0
  6
ByLayer
 62
  256
370
   -1
100
AcDbPolyline
 90
  432
 70
    1
 43
0
 10
420.420274
 20
768.11451
 42
0.09328599999999997
 10
414.656689
 20
762.918808
 42
0.03814299999999996
 10
408.901706
 20
754.0360920000001
 42
0.02235400000000006
 10
401.907246
 20
739.7008880000002
 42
0.005197000000000057
 10
391.4974969999995
 20
714.9999999999993
 42
-0.006473999999999829
 10
383.1131059999999
 20
695.2461599999999
 42
-0.009183000000000042
 10
375.1083429999998
 20
677.9163669999996
 42
-0.01041999999999993
 10
367.7093649999999
 20
663.4192969999999
 42
-0.0216179999999999
 10
361.2235089999999
 20
652.5
 42
-0.01760200000000006
 10
355.2661899999996
 20
644.0559639999998
 42
-0.00312100000000015
 10
343.459949999999
 20
628.7129269999987
 42
-0.00324699999999995
 10
328.9204220000001
 20
610.3076830000005
 42
-0.002441000000000115
 10
312.6948449999988
 20
590.2416699999997
 42
0.01029800000000004
 10
305.45654
 20
580.9966899999999
 42
0.03213699999999992
 10
301.131025
 20
574.386002
 42
0.04850000000000004
 10
298.779281
 20
569.094684
 42
0.08050000000000003
 10
298.0000000000001
 20
564.285808
 42
0.02976599999999978
 10
298.1491510000001
 20
561.782611
 42
0.07223099999999992
 10
298.62967
 20
559.999564
 42
0.06911900000000025
 10
299.612158
 20
558.380672
 42
0.02548300000000014
 10
301.40625
 20
556.39375
 42
0.03172200000000008
 10
302.938984
 20
555.044073
 42
0.02627599999999992
 10
304.726816
 20
553.805106
 42
0.02706699999999994
 10
306.492094
 20
552.842214
 42
0.06203899999999932
 10
307.927059
 20
552.364588
 42
-0.02062799999999992
 10
309.157005
 20
552.065365
 42
-0.02518800000000007
 10
310.2770640000001
 20
551.6813900000001
 42
-0.02498700000000017
 10
311.167267
 20
551.2724900000001
 42
-0.1349780000000003
 10
311.553438
 20
550.913536
 42
-0.2575299999999964
 10
311.6308939999998
 20
549.3490119999997
 42
-0.004606999999999724
 10
307.7446150000001
 20
541.580475
 42
-0.01037299999999976
 10
302.8874490000001
 20
532.5572670000001
 42
-0.006900000000000114
 10
296.9645029999998
 20
522.4102459999997
 42
-0.0110549999999999
 10
288.3068
 20
508.73103
 42
-0.01117699999999999
 10
279.0832710000001
 20
495.4984
 42
-0.01113900000000023
 10
269.2464619999997
 20
482.6485509999997
 42
-0.01080800000000001
 10
258.7499999999999
 20
470.1169899999999
 42
0.03973500000000005
 10
255.483448
 20
465.72453
 42
0.1000209999999998
 10
254.082868
 20
462.010699
 42
0.1057480000000001
 10
254.272779
 20
458.174127
 42
0.0477029999999999
 10
256.035167
 20
453.427354
 42
0.06700699999999993
 10
258.446052
 20
449.784655
 42
0.06014199999999982
 10
261.815657
 20
446.7558240000001
 42
0.05600199999999981
 10
266.046032
 20
444.4438650000001
 42
0.04518300000000004
 10
271
 20
442.922425
 42
-0.003413000000000068
 10
273.130265
 20
442.458355
 42
-0.005176000000000035
 10
274.975556
 20
442.0230329999999
 42
-0.002113999999999963
 10
276.546577
 20
441.628146
 42
-0.119418999999996
 10
276.810404
 20
441.488034
 42
-0.331226999999979
 10
276.8640449999998
 20
441.230276
 42
-0.0007710000000000085
 10
275.1336669999997
 20
437.5169289999998
 42
-0.004304999999999737
 10
273.118874
 20
433.3054389999999
 42
-0.002610999999999967
 10
270.666479
 20
428.356263
 42
-0.01823899999999997
 10
261.7562879999999
 20
412.1139029999999
 42
-0.02369499999999975
 10
252.3756330000001
 20
397.969577
 42
-0.02419400000000002
 10
241.8683449999999
 20
385.0123510000001
 42
-0.02043400000000018
 10
229.5732079999999
 20
372.347941
 42
0.00362100000000003
 10
222.792199
 20
365.817572
 42
0.04222600000000002
 10
220.389583
 20
363.036854
 42
0.09919800000000052
 10
219.347955
 20
360.768216
 42
0.05823600000000008
 10
218.9999999999999
 20
357.790903
 42
0.1245440000000004
 10
220.457784
 20
352.029181
 42
0.09707800000000009
 10
224.5795270000001
 20
347.026731
 42
0.07922799999999969
 10
231.126811
 20
343.1910210000001
 42
0.05138200000000009
 10
239.603251
 20
340.8528700000001
 10
246.953623
 20
339.617789
 10
242.354272
 20
331.0588949999999
 42
-0.01587399999999986
 10
236.6723459999998
 20
321.2457759999997
 42
-0.00848899999999984
 10
229.068778
 20
309.4758049999999
 42
-0.008391000000000148
 10
221.2870179999998
 20
298.2782229999998
 42
-0.02132199999999998
 10
215.165746
 20
290.5
 42
-0.01350600000000007
 10
212.082395
 20
287.098626
 42
-0.0050910000000002
 10
207.5940499999997
 20
282.5029759999996
 42
-0.005037999999999918
 10
202.6058439999999
 20
277.5983239999999
 42
-0.006114000000000148
 10
197.8282569999999
 20
273.105874
 42
0.01297700000000006
 10
189.377639
 20
264.938187
 42
0.043521
 10
184.4838
 20
259.00242
 42
0.06708000000000004
 10
181.897902
 20
253.893225
 42
0.08341599999999996
 10
181.008161
 20
248.65121
 42
0.02315999999999994
 10
181.128217
 20
245.962836
 42
0.07003899999999977
 10
181.546476
 20
244.18282
 42
0.07827500000000025
 10
182.4099339999999
 20
242.698497
 42
0.03409700000000009
 10
183.970799
 20
241.027278
 42
0.06838400000000008
 10
186.753439
 20
239.062472
 42
0.03859400000000007
 10
190.563569
 20
237.446637
 42
0.03715100000000011
 10
194.812283
 20
236.363206
 42
0.04388100000000011
 10
198.94282
 20
236
 42
-0.01792099999999996
 10
200.114709
 20
235.957984
 42
-0.02913200000000002
 10
201.101953
 20
235.8289909999999
 42
-0.02908599999999993
 10
201.833172
 20
235.64514
 42
-0.327597000000018
 10
202
 20
235.417843
 42
-0.1449779999999989
 10
201.8759779999996
 20
234.9991069999991
 42
-0.0006700000000000054
 10
199.3619289999997
 20
231.1386399999992
 42
-0.003069000000000179
 10
196.4620099999996
 20
226.7576319999995
 42
-0.00192499999999984
 10
193.0193339999999
 20
221.6678430000002
 42
-0.01564100000000016
 10
177.5137899999997
 20
200.3941299999997
 42
-0.01753899999999981
 10
161.264853
 20
180.952749
 42
-0.01766200000000014
 10
143.8001759999997
 20
162.8181199999999
 42
-0.01632999999999996
 10
124.6496
 20
145.463625
 10
118.799199
 20
140.5
 10
119.347521
 20
135.054535
 42
0.05976499999999989
 10
120.462128
 20
130.064103
 42
0.0667900000000001
 10
122.703562
 20
125.678853
 42
0.06604499999999999
 10
126.04674
 20
122.001192
 42
0.05651799999999987
 10
130.405045
 20
119.09448
 42
0.03074300000000005
 10
133.318328
 20
117.815067
 42
0.03747100000000011
 10
136.182114
 20
116.999524
 42
0.02915000000000001
 10
139.6616569999999
 20
116.494117
 42
0.01056300000000006
 10
144.6439849999999
 20
116.170641
 42
0.02157399999999997
 10
152.160131
 20
116.166373
 42
0.04202700000000006
 10
158.104817
 20
116.922877
 42
0.0388890000000002
 10
164.1298889999999
 20
118.709813
 42
0.01593299999999994
 10
171.9999999999999
 20
122.017981
 42
-0.02158300000000004
 10
180.95668
 20
125.664392
 42
-0.03798900000000009
 10
188.660294
 20
127.77592
 42
-0.03759899999999997
 10
196.649103
 20
128.710224
 42
-0.02065900000000008
 10
206.5
 20
128.709722
 42
-0.034305
 10
219.030324
 20
127.326492
 42
-0.04053700000000005
 10
230.551411
 20
124.26709
 42
-0.04170700000000002
 10
241.148287
 20
119.484483
 42
-0.04041600000000007
 10
250.923704
 20
112.966074
 42
0.03429199999999994
 10
256.398209
 20
109.218054
 42
0.02295099999999995
 10
263.112879
 20
105.671921
 42
0.02295099999999995
 10
270.124032
 20
102.756292
 42
0.03430299999999999
 10
276.5
 20
100.92543
 42
0.03887000000000015
 10
283.3878219999999
 20
100.001475
 42
0.01388700000000007
 10
293.3067589999999
 20
99.72492699999995
 42
0.01410699999999988
 10
303.3936469999999
 20
100.008551
 42
0.03160600000000005
 10
311
 20
100.921961
 42
0.01133300000000011
 10
314.2165439999999
 20
101.591985
 42
0.004299999999999839
 10
318.6749999999997
 20
102.667146
 42
0.004256000000000028
 10
323.5036519999998
 20
103.9193830000001
 42
0.00519000000000013
 10
328
 20
105.1765510000001
 42
-0.001411999999999988
 10
332.313282
 20
106.417746
 42
-0.001455000000000013
 10
336.590625
 20
107.6220870000001
 42
-0.001405000000000016
 10
340.30409
 20
108.6447760000001
 42
-0.006207000000000083
 10
342.5
 20
109.213714
 42
-0.05867100000000008
 10
347.080811
 20
109.784177
 42
-0.01356999999999999
 10
354.863963
 20
109.624991
 42
-0.01468799999999999
 10
363.199393
 20
108.982206
 42
-0.023532
 10
370.25
 20
107.892144
 42
-0.009187999999999976
 10
373.985354
 20
107.061473
 42
-0.1149209999999998
 10
375.270905
 20
106.414859
 42
-0.1888129999999976
 10
375.842833
 20
105.374622
 42
-0.03343800000000009
 10
375.9846870000001
 20
103.111948
 42
-0.01837000000000008
 10
375.9245030000001
 20
101.643978
 42
-0.01975500000000004
 10
375.7568
 20
100.219837
 42
-0.01972899999999991
 10
375.5174089999999
 20
99.01524000000001
 42
-0.0829449999999993
 10
375.230404
 20
98.33856100000001
 42
-0.158621000000001
 10
374.607321
 20
97.82480700000001
 42
-0.01659199999999999
 10
372.800389
 20
97.182124
 42
-0.01925899999999977
 10
370.537497
 20
96.55577700000001
 42
-0.01428299999999999
 10
367.995716
 20
96.032712
 42
0.01818200000000001
 10
352.198824
 20
92.65333999999999
 42
0.01699599999999998
 10
336.325228
 20
88.06991800000003
 42
0.01306399999999998
 10
317.4743849999998
 20
81.37587300000018
 42
0.005153999999999984
 10
291.8824249999997
 20
71.22376799999984
 42
-0.003694999999999988
 10
261.8110729999999
 20
59.19311299999976
 42
-0.01312699999999999
 10
242.287897
 20
52.13460299999988
 42
-0.01892399999999995
 10
226.516034
 20
47.55104299999999
 42
-0.01741099999999988
 10
209.9999999999999
 20
44.02795300000002
 42
-0.02283499999999988
 10
180.308262
 20
40.15569700000009
 42
-0.02319800000000003
 10
150.543405
 20
39.03496200000001
 42
-0.0232260000000001
 10
120.8387059999997
 20
40.67620899999991
 42
-0.02302499999999999
 10
91.32692099999986
 20
45.06655200000006
 42
-0.01036200000000011
 10
80.17632299999983
 20
47.4951210000001
 42
-0.006519999999999975
 10
67.2509739999997
 20
50.77089600000011
 42
-0.006531999999999825
 10
54.81453000000003
 20
54.27064099999998
 42
-0.01396799999999992
 10
45.33085200000001
 20
57.36419100000001
 42
0.02117699999999997
 10
42.674585
 20
58.18849600000001
 42
0.1041520000000001
 10
41.115809
 20
58.26806000000001
 42
0.089116
 10
39.54261399999999
 20
57.72159499999999
 42
0.01327299999999999
 10
36.65195599999999
 20
55.99423099999999
 42
0.1192509999999999
 10
31.600386
 20
50.766276
 42
0.367448
 10
32.385573
 20
46.28374699999999
 42
0.1120540000000001
 10
40.14171499999999
 20
42.34441599999997
 42
0.01595499999999983
 10
57.69853199999982
 20
38.51295699999997
 42
0.01363700000000005
 10
82.61255900000016
 20
34.60259400000007
 42
0.01171899999999999
 10
108.9943259999997
 20
31.82296600000006
 42
0.01194000000000019
 10
134.8130709999999
 20
30.33265100000006
 42
0.01654200000000009
 10
157.9999999999998
 20
30.31648200000001
 42
0.01261200000000005
 10
177.8341929999999
 20
31.46033699999992
 42
0.01635499999999998
 10
195.926288
 20
33.55997600000001
 42
0.01728099999999995
 10
212.9779959999999
 20
36.71225699999997
 42
0.01757300000000001
 10
229.6753329999999
 20
41.02034799999996
 42
0.01220299999999998
 10
237.2998129999999
 20
43.47992399999995
 42
0.01068099999999997
 10
245.1447839999998
 20
46.41324099999991
 42
0.006099999999999941
 10
256.0447640000002
 20
50.9112839999998
 42
0.00116699999999986
 10
275.7178989999982
 20
59.36638499999935
 42
-0.008764999999999966
 10
290.7163859999999
 20
65.5441550000001
 42
-0.00804000000000003
 10
306.3577800000001
 20
71.38001400000007
 42
-0.008178000000000022
 10
321.862161
 20
76.59850099999994
 42
-0.01017600000000006
 10
336.443358
 20
80.91740700000003
 42
-0.008028000000000018
 10
347.726641
 20
83.81723600000004
 42
-0.006249999999999918
 10
360.0796199999997
 20
86.61859500000037
 42
-0.001374000000000082
 10
372.29647
 20
89.19389000000047
 42
-0.252789
 10
373.498356
 20
88.83497699999998
 42
-0.2441439999999843
 10
373.5973
 20
88.5223069999999
 42
-0.002196000000000091
 10
373.1507459999999
 20
86.02341599999973
 42
-0.00684599999999991
 10
372.5781789999999
 20
83.12323299999994
 42
-0.004289999999999951
 10
371.832883
 20
79.745824
 10
369.824082
 20
71
 10
362.662041
 20
70.99718299999999
 42
0.02822699999999997
 10
348.842921
 20
70.21096299999999
 42
0.02465200000000002
 10
334.551249
 20
67.86695399999999
 42
0.02516000000000002
 10
320.922392
 20
64.20973999999998
 42
0.03423399999999996
 10
309.108603
 20
59.47859299999999
 42
0.004954000000000076
 10
305.536464
 20
57.71204599999997
 42
0.008482999999999989
 10
302.597069
 20
56.15875299999999
 42
0.003044000000000043
 10
300.16549
 20
54.80120299999997
 42
0.4957330000000646
 10
300.129598
 20
54.537069
 42
0.2692509999999951
 10
300.492721
 20
54.44071499999993
 42
0.00359300000000005
 10
302.8150729999999
 20
55.093065
 42
0.009075999999999777
 10
305.5383889999999
 20
55.933041
 42
0.005696999999999963
 10
308.692539
 20
57.00892600000001
 42
-0.04301199999999993
 10
327.753174
 20
61.96022400000004
 42
-0.03152100000000007
 10
349.493925
 20
64.25485499999999
 42
-0.03085899999999999
 10
371.937525
 20
63.81572399999999
 42
-0.03541299999999997
 10
393.12692
 20
60.56862899999997
 42
-0.01847400000000003
 10
401.771861
 20
58.27074900000001
 42
-0.01669100000000007
 10
410.525449
 20
55.27123199999994
 42
-0.009434999999999943
 10
418.1075619999999
 20
52.22196599999995
 42
-0.5434299999999823
 10
418.325325
 20
50.98299700000001
 42
-0.1241250000000002
 10
417.652464
 20
50.61346799999998
 42
-0.0045430000000001
 10
414.8049389999999
 20
49.89804099999995
 42
-0.008049000000000013
 10
411.3914239999999
 20
49.13123999999996
 42
-0.005537000000000011
 10
407.4999999999999
 20
48.36750700000002
 42
-0.02492100000000002
 10
397.844284
 20
47.07673800000003
 42
-0.01660200000000006
 10
386.6927949999999
 20
46.52026599999996
 42
-0.01246500000000015
 10
376.4055449999998
 20
46.60532599999997
 42
-0.1220709999999999
 10
372.259031
 20
47.78035000000001
 42
0.04642699999999991
 10
370.957943
 20
48.37122499999998
 42
0.09792699999999972
 10
369.86427
 20
48.523422
 42
0.08083600000000007
 10
368.663032
 20
48.25697099999999
 42
0.0244169999999999
 10
366.957583
 20
47.47806499999999
 42
0.04849300000000009
 10
364.727127
 20
46.03529000000001
 42
0.1068680000000002
 10
363.446775
 20
44.47382400000001
 42
0.1817260000000004
 10
363.283313
 20
43.050468
 42
0.1926149999999997
 10
364.104283
 20
41.91438800000002
 42
0.1406979999999996
 10
367.326069
 20
40.97079600000006
 42
0.009382999999999959
 10
377.0513549999999
 20
41.101281
 42
0.01411300000000002
 10
387.9195959999999
 20
41.75858799999992
 42
0.01581100000000009
 10
398.3268389999998
 20
43.016122
 42
0.007868000000000017
 10
408.9333639999996
 20
44.81065099999995
 42
0.008570000000000071
 10
419.1786339999996
 20
46.89257599999985
 42
0.006898000000000041
 10
431.0482529999987
 20
49.68949199999952
 42
0.002868000000000084
 10
446.9999999999994
 20
53.77875099999986
 42
-0.02089000000000003
 10
465.67744
 20
57.85566700000003
 42
-0.03714399999999993
 10
481.336488
 20
59.40912299999999
 42
-0.03880899999999991
 10
496.576561
 20
58.601383
 42
-0.02535300000000002
 10
513.9017579999997
 20
55.42677200000003
 42
0.003989000000000142
 10
517.9165899999999
 20
54.51233999999999
 42
0.006388000000000078
 10
521.3592349999999
 20
53.80304100000001
 42
0.001909999999999897
 10
524.3355789999997
 20
53.24113800000002
 42
0.2468829999999906
 10
524.68219
 20
53.34885599999998
 42
0.5257840000001495
 10
524.584358
 20
53.8782930000001
 42
0.00359300000000005
 10
519.593449
 20
56.06392200000006
 42
0.009758000000000024
 10
513.841773
 20
58.40176199999999
 42
0.007583000000000049
 10
507.5
 20
60.72664499999997
 42
0.02205899999999992
 10
503.836385
 20
61.828332
 42
0.01676799999999995
 10
499.739026
 20
62.72080199999998
 42
0.01561499999999997
 10
495.273459
 20
63.39436999999999
 42
0.01305799999999998
 10
490.5
 20
63.836531
 10
480.5
 20
64.5
 10
479.759558
 20
71.92622499999999
 42
-0.003290000000000112
 10
479.49305
 20
74.78990500000006
 42
-0.005259000000000229
 10
479.3072510000001
 20
77.23964900000027
 42
-0.001411000000000037
 10
479.1744340000001
 20
79.36670800000024
 42
-0.2181470000000036
 10
479.259558
 20
79.58616200000002
 42
-0.2873549999999981
 10
479.4767069999999
 20
79.63280299999997
 42
-0.00114300000000007
 10
481.926245
 20
78.73770299999987
 42
-0.005107999999999974
 10
484.723843
 20
77.67558499999996
 42
-0.003134000000000064
 10
487.9999999999999
 20
76.36959800000005
 42
0.009946000000000101
 10
498.5817869999999
 20
72.31751700000007
 42
0.004291999999999928
 10
512.8299809999994
 20
67.32177600000011
 42
0.004308000000000125
 10
527.2611829999998
 20
62.53895799999987
 42
0.009212000000000126
 10
538.5
 20
59.1485219999999
 42
0.02675399999999982
 10
576.4957079999997
 20
50.60924000000006
 42
0.02401
 10
616.5852439999994
 20
45.79302999999993
 42
0.01981099999999998
 10
663.5262949999994
 20
44.29346299999997
 42
0.009867999999999974
 10
722.9999999999985
 20
45.92450300000019
 42
0.002191999999999895
 10
753.1786229999969
 20
47.48117700000012
 42
0.005690000000000099
 10
774.8994320000002
 20
48.94517599999995
 42
0.007699999999999903
 10
791.0245069999999
 20
50.46668
 42
0.01919099999999985
 10
802.7349089999998
 20
52.21085199999993
 42
0.001510000000000021
 10
807.1528639999999
 20
53.05708900000001
 42
0.08567500000000021
 10
807.929267
 20
53.35217500000003
 42
0.7159349999994784
 10
807.878898
 20
53.59318699999996
 42
0.00802900000000004
 10
805.5
 20
53.84637899999998
 42
0.02541400000000001
 10
802.5062110000008
 20
53.96366800000033
 42
0.0004030000000001008
 10
785.4906249999985
 20
53.75151499999993
 42
0.00106400000000002
 10
765.7084479999994
 20
53.44680599999992
 42
0.0007050000000000046
 10
742.9999999999986
 20
53.01667399999997
 42
-0.002857999999999795
 10
699.5748010000009
 20
52.38120599999957
 42
-0.005387999999999973
 10
664.5260979999996
 20
52.44641200000001
 42
-0.006599000000000087
 10
636.423052999999
 20
53.17259299999995
 42
-0.01454799999999997
 10
614.9999999999998
 20
54.63430900000003
 42
-0.01923500000000016
 10
587.2725539999998
 20
58.41977500000007
 42
-0.02101500000000002
 10
560.734997
 20
64.24758900000006
 42
-0.02050099999999995
 10
534.206818
 20
72.43034000000006
 42
-0.01665400000000005
 10
506.4999999999999
 20
83.28845200000006
 42
0.004090000000000072
 10
500.626608
 20
85.76216400000004
 42
0.003777000000000054
 10
494.55625
 20
88.207111
 42
0.003771000000000043
 10
489.116671
 20
90.30312999999997
 42
0.0125540000000001
 10
485.5
 20
91.56276000000001
 10
478.5
 20
93.805357
 10
478.210421
 20
100.693098
 10
477.920841
 20
107.580839
 10
484.710421
 20
109.762894
 42
-0.04425899999999994
 10
497.361373
 20
112.625066
 42
-0.04536400000000007
 10
510.213142
 20
113.182795
 42
-0.03649700000000003
 10
525.161472
 20
111.376431
 42
-0.01623100000000001
 10
544.5191429999999
 20
106.9321189999999
 42
0.00536099999999993
 10
553.8814219999998
 20
104.567304
 42
0.02073399999999995
 10
559.757464
 20
103.405319
 42
0.02574600000000006
 10
565.057987
 20
102.861236
 42
0.01183399999999999
 10
572
 20
102.672774
 42
0.00761699999999992
 10
578.8803959999999
 20
102.75369
 42
0.03225700000000001
 10
582.981879
 20
103.129965
 42
0.03842500000000011
 10
586.650636
 20
103.999778
 42
0.01402999999999983
 10
591.689814
 20
105.769063
 42
0.01031800000000006
 10
598.697588
 20
108.619819
 42
0.01581299999999996
 10
604.6323379999999
 20
111.403732
 42
0.01173299999999999
 10
611.5155169999997
 20
115.1079149999999
 42
0.00320399999999988
 10
622.1999819999993
 20
121.2762229999998
 42
-0.01456199999999994
 10
633.933935
 20
127.699619
 42
-0.04404599999999997
 10
642.3738520000001
 20
131.106924
 42
-0.05434499999999999
 10
650.252689
 20
132.598374
 42
-0.03251300000000009
 10
659.793947
 20
132.727181
 42
-0.01604600000000005
 10
667.251635
 20
132.102327
 42
-0.02932700000000003
 10
673.262032
 20
131.043875
 42
-0.01578400000000005
 10
681.1421639999999
 20
128.9094289999998
 42
-0.001859999999999968
 10
698.5
 20
123.5437879999995
 42
0.02146400000000008
 10
709.716756
 20
120.5526730000001
 42
0.03725799999999998
 10
719.253015
 20
119.177701
 42
0.04608400000000008
 10
727.059531
 20
119.36032
 42
0.09201700000000007
 10
732.941457
 20
121.173437
 42
0.08415399999999992
 10
738.5302799999999
 20
125.425975
 42
0.137378
 10
741.25891
 20
130.67492
 42
0.1192350000000001
 10
741.0585610000002
 20
137.135714
 42
0.05479800000000007
 10
737.9318580000001
 20
145.0134
 42
0.038406
 10
735.3746400000001
 20
149.0553290000001
 42
0.016564
 10
731.3935240000002
 20
154.0393270000001
 42
0.01175000000000007
 10
725.5906620000001
 20
160.5154920000002
 42
0.004149999999999975
 10
716.9848519999998
 20
169.5261830000003
 42
-0.004551999999999809
 10
709.6423969999996
 20
177.2264460000003
 42
-0.003921999999999998
 10
702.0641919999998
 20
185.4485380000004
 42
-0.003950000000000029
 10
695.3067920000001
 20
193.0157660000002
 42
-0.01139799999999996
 10
690.7868539999999
 20
198.4013520000004
 42
-0.006073999999999839
 10
683.9605900000001
 20
207.137449
 42
-0.005165999999999961
 10
676.9646569999991
 20
216.5178860000005
 42
-0.0008190000000000613
 10
670.1743009999982
 20
225.8538300000019
 42
-0.3713539999999605
 10
670.233897
 20
226.5621249999999
 42
-0.2272539999999799
 10
670.471442
 20
226.64317
 42
-0.003093000000000005
 10
672.037457
 20
226.447494
 42
-0.008019999999999973
 10
673.872588
 20
226.176645
 42
-0.005100000000000009
 10
676
 20
225.805383
 42
0.05219600000000018
 10
685.084017
 20
225.089209
 42
0.06387499999999993
 10
693.496065
 20
226.388102
 42
0.07563500000000001
 10
700.057773
 20
229.411407
 42
0.1491609999999987
 10
703.6855049999999
 20
233.789734
 42
0.0277940000000001
 10
704.480908
 20
236.036837
 42
0.07462399999999962
 10
704.7097209999999
 20
237.713145
 42
0.059815
 10
704.459296
 20
239.587793
 42
0.01326999999999988
 10
703.5668210000001
 20
242.705255
 42
0.04815100000000012
 10
701.8801120000002
 20
246.677079
 42
0.05297400000000012
 10
699.507964
 20
250.1173
 42
0.02814600000000002
 10
695.3920890000002
 20
254.397808
 42
0.00443399999999995
 10
686.761869
 20
262.2757359999999
 42
-0.02806799999999996
 10
674.139755
 20
274.941186
 42
-0.02363599999999998
 10
662.2266949999999
 20
289.663994
 42
-0.02200900000000015
 10
650.961148
 20
306.5249280000003
 42
-0.01754799999999991
 10
640.2844379999999
 20
325.6158700000007
 42
-0.001023000000000069
 10
637.1083989999993
 20
331.8254980000015
 42
-0.001652999999999781
 10
634.4335540000002
 20
337.124992999999
 42
-0.0002410000000001746
 10
632.077162999999
 20
341.8378460000026
 42
-0.1163100000000078
 10
631.9999999999999
 20
342.165069
 42
-0.3950370000000746
 10
632.144692
 20
342.319627
 42
-0.01447200000000006
 10
633.020164
 20
342.352009
 42
-0.01950099999999993
 10
634.141218
 20
342.317283
 42
-0.01156400000000006
 10
635.472899
 20
342.192957
 42
0.0587099999999999
 10
639.332564
 20
342.197073
 42
0.03126599999999997
 10
644.037056
 20
343.057341
 42
0.03119599999999999
 10
648.487825
 20
344.462195
 42
0.07473900000000001
 10
651.4884049999999
 20
346.169539
 42
0.1739580000000007
 10
653.482676
 20
349.351796
 42
0.1978550000000014
 10
652.858552
 20
352.8750660000001
 42
0.0695030000000002
 10
648.727711
 20
357.732142
 42
0.009707000000000018
 10
638.679084
 20
366.331365
 42
-0.02600799999999998
 10
623.3546810000001
 20
380.3357169999999
 42
-0.03772800000000012
 10
611.51163
 20
394.312294
 42
-0.03862200000000021
 10
602.1011189999999
 20
409.649884
 42
-0.02915499999999992
 10
594.131063
 20
427.747702
 10
589.281099
 20
440.769278
 10
596.029281
 20
441.434227
 42
0.05080300000000011
 10
604.18134
 20
443.084509
 42
0.0861269999999997
 10
610.362859
 20
446.2485520000001
 42
0.116729
 10
613.909636
 20
450.515653
 42
0.1630500000000005
 10
614.586064
 20
455.39293
 42
0.09682800000000044
 10
613.604827
 20
457.8603739999999
 42
0.02992199999999998
 10
611.233621
 20
461.1031389999999
 42
0.01792800000000008
 10
607.1306979999999
 20
465.715051
 42
0.004057999999999935
 10
599.825952
 20
473.2328029999999
 42
-0.01186799999999994
 10
581.376567
 20
492.8232650000001
 42
-0.02161800000000012
 10
567.4157079999999
 20
509.7922410000003
 42
-0.0226429999999998
 10
555.402656
 20
527.3539000000001
 42
-0.0145989999999999
 10
543.033279
 20
548.68609
 10
535.095816
 20
563.345098
 10
537.900983
 20
566.5400069999999
 42
0.1032290000000002
 10
541.6774530000001
 20
573.215961
 42
0.05409200000000014
 10
543.5912390000001
 20
582.608917
 42
0.05358000000000033
 10
543.453336
 20
592.361259
 42
0.09006500000000014
 10
541.033843
 20
600.159575
 42
0.03452099999999983
 10
539.751073
 20
602.254169
 42
0.01073100000000001
 10
537.5459080000001
 20
605.216077
 42
0.01067200000000006
 10
534.932469
 20
608.429567
 42
0.01156599999999996
 10
532.251671
 20
611.4417450000001
 42
-0.0190999999999999
 10
519.6746679999998
 20
626.0094900000004
 42
-0.01181299999999976
 10
505.9772489999998
 20
644.0136680000003
 42
-0.01170299999999981
 10
492.893186
 20
663.0020639999999
 42
-0.0163100000000001
 10
482.1553539999999
 20
680.6216570000001
 42
-0.01135499999999999
 10
476.3549760000002
 20
691.4441880000002
 42
-0.00537700000000005
 10
469.3473479999997
 20
705.6405630000008
 42
-0.005358999999999917
 10
462.6947209999997
 20
719.8801410000002
 42
-0.01229900000000013
 10
458.0670329999999
 20
730.772661
 42
0.009058000000000004
 10
453.6639209999999
 20
741.326138
 42
0.013876
 10
449.432849
 20
750.287253
 42
0.01582599999999996
 10
445.5347320000001
 20
757.413758
 42
0.04397000000000006
 10
442.2206
 20
762.055381
 42
0.06711800000000004
 10
437.132813
 20
766.5976889999999
 42
0.08109799999999991
 10
431.327345
 20
769.2808680000002
 42
0.09087800000000029
 10
425.525376
 20
769.803501
 42
0.11454
  0
LWPOLYLINE
  5
4E
100
AcDbEntity
  8
0
  6
ByLayer
 62
  256
370
   -1
100
AcDbPolyline
 90
   64
 70
    1
 43
0
 10
434.9305440000001
 20
747.535917
 42
-0.09403400000000031
 10
439.2801640000001
 20
744.126813
 42
-0.04417700000000008
 10
443.5070999999999
 20
738.332091
 42
-0.0263299999999999
 10
448.4770289999999
 20
728.998047
 42
-0.006553999999999955
 10
455.5884509999999
 20
713.2227930000001
 42
0.02240800000000003
 10
468.4288920000001
 20
686.9913920000002
 42
0.02052100000000011
 10
483.9196840000001
 20
661.2109770000003
 42
0.02075399999999989
 10
501.2594139999997
 20
637.1065220000005
 42
0.02457799999999993
 10
519.6409819999999
 20
615.9037980000002
 42
-0.012675
 10
526.294594
 20
608.588223
 42
-0.05119200000000002
 10
529.748081
 20
603.65126
 42
-0.07527900000000018
 10
531.434287
 20
599.141833
 42
-0.05193600000000002
 10
532
 20
593.710257
 42
-0.08761199999999986
 10
530.261896
 20
583.867018
 42
-0.1050389999999996
 10
525.2829379999998
 20
575.90539
 42
-0.1029920000000003
 10
517.407289
 20
570.5478499999999
 42
-0.08134000000000037
 10
507.348916
 20
568.195138
 42
-0.03663299999999985
 10
502.096048
 20
568.2255120000001
 42
-0.05428499999999992
 10
497.576625
 20
569.082881
 42
-0.04962500000000001
 10
493.063642
 20
570.964983
 42
-0.02510400000000008
 10
487.789181
 20
574.1588270000001
 42
0.06604700000000002
 10
478.754372
 20
578.666323
 42
0.06820999999999997
 10
468.955677
 20
580.5981880000001
 42
0.05410100000000004
 10
457.195443
 20
580.013857
 42
0.02414200000000003
 10
441.9999999999999
 20
576.8382839999999
 42
-0.01910499999999999
 10
431.562738
 20
574.547174
 42
-0.06514100000000002
 10
424.627812
 20
574.215565
 42
-0.07702900000000025
 10
418.4752159999999
 20
575.6956200000001
 42
-0.03414700000000004
 10
410.964814
 20
579.3988260000001
 42
0.01313300000000012
 10
403.7093209999999
 20
583.363425
 42
0.03884999999999995
 10
398.475226
 20
585.552768
 42
0.04844600000000009
 10
393.644235
 20
586.6416530000001
 42
0.03122900000000003
 10
387.912369
 20
587.0000000000001
 42
0.04371499999999998
 10
380.428311
 20
586.3444199999999
 42
0.04036699999999996
 10
372.962492
 20
584.394781
 42
0.03818500000000001
 10
365.5281279999999
 20
581.141811
 42
0.03128399999999993
 10
358.138058
 20
576.597292
 42
-0.02490700000000016
 10
351.105087
 20
572.147874
 42
-0.0394
 10
344.640249
 20
569.139666
 42
-0.04129200000000003
 10
338.011743
 20
567.274996
 42
-0.0310769999999999
 10
330.5
 20
566.296346
 42
-0.0297400000000001
 10
324.2074979999999
 20
566.2462750000001
 42
-0.0618379999999998
 10
319.38291
 20
567.0994150000001
 42
-0.08460600000000035
 10
315.952739
 20
568.830407
 42
-0.1274609999999994
 10
313.8551350000001
 20
571.418599
 42
-0.1660429999999983
 10
313.4778650000001
 20
575.238562
 42
-0.06999900000000005
 10
315.3691569999999
 20
580.108842
 42
-0.03855400000000005
 10
319.854765
 20
586.848263
 42
-0.009396999999999942
 10
328.2887949999949
 20
597.2117569999955
 42
0.0006059999999999902
 10
348.7121939999961
 20
621.4251739999946
 42
0.003752999999999945
 10
359.0926109999996
 20
633.9518709999996
 42
0.007319000000000133
 10
365.6324080000001
 20
642.209366
 42
0.0135220000000001
 10
370.66258
 20
649.1352069999999
 42
0.02198999999999997
 10
376.8813259999999
 20
659.1176279999997
 42
0.01002500000000013
 10
384.1579029999999
 20
672.6579989999999
 42
0.009195000000000083
 10
391.8746859999998
 20
688.4439599999999
 42
0.007644999999999867
 10
399.5118769999998
 20
705.4999999999998
 42
-0.005169000000000048
 10
407.8729669999999
 20
724.4234000000001
 42
-0.02051700000000006
 10
413.5973779999999
 20
735.765253
 42
-0.03351099999999997
 10
418.252394
 20
742.941536
 42
-0.08656899999999972
 10
422.7296010000001
 20
747.1600409999999
 42
-0.0757359999999998
 10
425.467376
 20
748.421503
 42
-0.06252799999999972
 10
428.645296
 20
748.9203139999998
 42
-0.06118599999999973
 10
431.917156
 20
748.6203599999999
 42
-0.06599800000000043
  0
LWPOLYLINE
  5
4F
100
AcDbEntity
  8
0
  6
ByLayer
 62
  256
370
   -1
100
AcDbPolyline
 90
   96
 70
    1
 43
0
 10
392.013719
 20
575.012659
 42
-0.03495199999999998
 10
393.737369
 20
574.401265
 42
-0.01245300000000013
 10
396.1068780000001
 20
573.298327
 42
-0.01228699999999998
 10
398.65556
 20
571.9548119999999
 42
-0.01418599999999999
 10
401.0137189999999
 20
570.547449
 42
0.007998999999999879
 10
403.547548
 20
568.992407
 42
0.004582999999999974
 10
406.650905
 20
567.193726
 42
0.004577000000000016
 10
409.804929
 20
565.442065
 42
0.007594000000000103
 10
412.5
 20
564.0300009999999
 42
0.0563949999999999
 10
418.634878
 20
561.757448
 42
0.06114600000000011
 10
424.955317
 20
560.995667
 42
0.04769900000000005
 10
432.478679
 20
561.7316669999999
 42
0.01941699999999986
 10
442.4999999999999
 20
564.0957859999999
 42
-0.01187399999999999
 10
448.19732
 20
565.530878
 42
-0.01526100000000003
 10
453.5
 20
566.56438
 42
-0.015446
 10
458.803084
 20
567.263512
 42
-0.01268299999999991
 10
464.5
 20
567.69058
 42
-0.01651600000000005
 10
473.071463
 20
567.831426
 42
-0.04913999999999989
 10
478.900207
 20
567.159326
 42
-0.06233200000000001
 10
483.680845
 20
565.481641
 42
-0.04128899999999999
 10
488.662582
 20
562.464609
 42
0.03413899999999988
 10
496.79482
 20
557.379475
 42
0.05593399999999991
 10
504.334611
 20
554.378341
 42
0.06441899999999987
 10
511.528197
 20
553.37632
 42
0.067763
 10
518.611721
 20
554.270552
 10
523.723442
 20
555.6352879999999
 10
529.4991030000001
 20
545.0676440000001
 42
0.016294
 10
539.813494
 20
527.5750180000002
 42
0.02036200000000006
 10
550.5506669999999
 20
512.0831780000002
 42
0.01915600000000016
 10
563.047547
 20
496.7894580000002
 42
0.01202200000000003
 10
578.75
 20
479.8474960000003
 42
-0.005534000000000039
 10
589.4661820000001
 20
468.5821560000001
 42
-0.06090200000000019
 10
593.1204720000001
 20
463.545894
 42
-0.2022839999999996
 10
593.482048
 20
460.175244
 42
-0.1541949999999998
 10
591.369453
 20
457.075971
 42
-0.07044500000000008
 10
587.735555
 20
454.9669699999999
 42
-0.05351800000000025
 10
583.301725
 20
453.700303
 42
-0.03919400000000003
 10
577.496929
 20
453.1589660000001
 42
-0.01562699999999998
 10
569.5
 20
453.2918280000001
 42
-0.01669600000000002
 10
561.9015450000001
 20
453.9105960000001
 42
-0.03348099999999999
 10
555.98186
 20
454.997472
 42
-0.0309969999999998
 10
549.9770570000001
 20
456.9242409999999
 42
-0.01235400000000012
 10
542
 20
460.2703530000001
 42
0.04421500000000014
 10
532.2951430000001
 20
463.6326090000001
 42
0.03576500000000006
 10
521.432304
 20
465.538005
 42
0.03561099999999998
 10
510.353017
 20
465.880992
 42
0.04263499999999996
 10
500
 20
464.575206
 42
0.02062300000000004
 10
492.970283
 20
462.765815
 42
0.02626299999999999
 10
486.671604
 20
460.497417
 42
0.02607800000000003
 10
480.609852
 20
457.566743
 42
0.01986800000000003
 10
474.292739
 20
453.761071
 42
-0.01396299999999995
 10
470.840043
 20
451.6250670000001
 42
-0.01027499999999998
 10
466.904048
 20
449.446395
 42
-0.01040000000000001
 10
463.093273
 20
447.5383949999999
 42
-0.02271300000000001
 10
460.0827419999999
 20
446.272729
 42
-0.08640799999999978
 10
443.065307
 20
443.1730170000001
 42
-0.0561699999999998
 10
423.138821
 20
445.2616640000001
 42
-0.04616799999999991
 10
400.427478
 20
452.5099460000001
 42
-0.02770899999999999
 10
375
 20
465.0005980000001
 42
0.01910499999999999
 10
362.2456160000001
 20
471.5405020000001
 42
0.04266000000000012
 10
352.015968
 20
475.2784150000001
 42
0.05473300000000004
 10
343.086082
 20
476.68017
 42
0.06221300000000007
 10
334.455406
 20
476.006306
 42
0.03202599999999996
 10
328.536634
 20
474.39233
 42
0.03131199999999999
 10
322.826188
 20
472.0259819999999
 42
0.02865999999999989
 10
317.02246
 20
468.758577
 42
0.01957399999999995
 10
310.8144139999999
 20
464.426999
 42
-0.02719999999999999
 10
304.5318409999999
 20
460.184319
 42
-0.03848000000000007
 10
298.494271
 20
457.1730350000001
 42
-0.04074100000000003
 10
292.348002
 20
455.242821
 42
-0.03663300000000007
 10
285.746713
 20
454.2476819999999
 42
-0.05744799999999983
 10
277.905841
 20
454.548771
 42
-0.09629999999999998
 10
271.7210870000001
 20
456.7725140000001
 42
-0.1136939999999996
 10
267.4964650000001
 20
460.8167100000001
 42
-0.1053689999999997
 10
265.320354
 20
466.413313
 42
-0.09906499999999996
 10
265.407928
 20
468.804292
 42
-0.07898599999999976
 10
266.39519
 20
471.194237
 42
-0.03205500000000009
 10
268.824243
 20
474.644116
 42
-0.003492999999999968
 10
274.969219
 20
482.172814
 42
0.01571399999999984
 10
285.1809739999998
 20
495.3276549999998
 42
0.01053999999999995
 10
296.0514819999999
 20
510.9607449999996
 42
0.01060900000000003
 10
305.877952
 20
526.451019
 42
0.02208000000000014
 10
312.731976
 20
538.999159
 10
318.5
 20
550.765673
 10
323
 20
551.468325
 42
0.03087099999999996
 10
330.620101
 20
553.145279
 42
0.03317800000000003
 10
337.788763
 20
555.718829
 42
0.03202299999999995
 10
344.7705119999999
 20
559.3095709999999
 42
0.02528300000000016
 10
351.833422
 20
564.034551
 42
-0.01152200000000005
 10
356.699515
 20
567.487381
 42
-0.022161
 10
360.775866
 20
569.9852760000001
 42
-0.02554200000000009
 10
364.6390579999999
 20
571.8722900000002
 42
-0.02295200000000003
 10
368.813306
 20
573.4311330000002
 42
-0.02995700000000001
 10
374.981411
 20
575.0167170000001
 42
-0.03092399999999999
 10
381.229668
 20
575.8329020000001
 42
-0.03289000000000003
 10
387.07448
 20
575.84638
 42
-0.05193100000000014
  0
LWPOLYLINE
  5
50
100
AcDbEntity
  8
0
  6
ByLayer
 62
  256
370
   -1
100
AcDbPolyline
 90
  120
 70
    1
 43
0
 10
355.128278
 20
463.754068
 42
-0.02063599999999993
 10
358.5463920000001
 20
462.345061
 42
-0.005996000000000017
 10
363.6928940000001
 20
459.8954079999999
 42
-0.006015999999999918
 10
369.4290669999999
 20
456.994073
 42
-0.006396999999999943
 10
374.9766219999998
 20
454.0129510000001
 42
0.00881300000000002
 10
385.9321789999999
 20
448.1937440000001
 42
0.01305100000000003
 10
395.7499479999999
 20
443.5171520000001
 42
0.01404900000000003
 10
405.212867
 20
439.6235660000001
 42
0.01320299999999984
 10
415.0759699999999
 20
436.1806780000002
 42
0.01497999999999988
 10
424.6939929999999
 20
433.4203850000002
 42
0.02750699999999977
 10
432.6874879999999
 20
431.845561
 42
0.02807299999999995
 10
440.6953539999999
 20
431.176222
 42
0.01635799999999997
 10
450.3370879999998
 20
431.2287979999999
 42
0.02299000000000008
 10
460.103126
 20
432.0524369999999
 42
0.04488299999999985
 10
467.722654
 20
433.754832
 42
0.04654399999999992
 10
474.7358409999999
 20
436.740984
 42
0.02671000000000011
 10
482.583028
 20
441.541008
 42
-0.03331300000000002
 10
492.8054
 20
447.610048
 42
-0.04127299999999994
 10
503.05236
 20
451.7823480000001
 42
-0.04161999999999998
 10
513.772887
 20
454.1907590000001
 42
-0.03482899999999998
 10
525.4099629999999
 20
454.985219
 42
-0.02115900000000005
 10
533.9264920000001
 20
454.612151
 42
-0.03246299999999996
 10
541.224182
 20
453.5018
 42
-0.03174499999999998
 10
548.433492
 20
451.43368
 42
-0.01911799999999999
 10
556.693668
 20
448.124237
 42
0.007157000000000097
 10
560.321873
 20
446.568888
 42
0.007474000000000041
 10
563.941265
 20
445.1411679999999
 42
0.007226999999999838
 10
567.1028079999999
 20
444.0002699999999
 42
0.03240799999999999
 10
569
 20
443.481176
 42
-0.04769599999999995
 10
572.750001
 20
442.331014
 42
-0.1222209999999997
 10
575.0176630000001
 20
440.656144
 42
-0.07481700000000073
 10
576.8503790000002
 20
437.6128480000001
 42
-0.01058000000000008
 10
579.5125470000002
 20
430.780196
 42
0.02869999999999989
 10
587.0400569999999
 20
413.3539670000002
 42
0.033219
 10
596.2022960000002
 20
397.7720790000001
 42
0.03459700000000002
 10
606.9711940000001
 20
384.098997
 42
0.03703299999999986
 10
619.2970479999999
 20
372.372958
 42
-0.006767000000000069
 10
625.806979
 20
366.89009
 42
-0.008913000000000009
 10
631.584411
 20
361.7059390000001
 42
-0.003715000000000013
 10
636.510481
 20
357.055875
 42
-0.2044760000000038
 10
637
 20
355.908912
 42
-0.2886830000000087
 10
636.562096
 20
355.21367
 42
-0.01816900000000003
 10
634.241347
 20
354.204195
 42
-0.02395399999999993
 10
631.375506
 20
353.235179
 42
-0.02086299999999997
 10
628.295468
 20
352.493056
 42
-0.08721299999999987
 10
624.125167
 20
352.406573
 42
-0.0328110000000001
 10
618.403854
 20
353.6790510000001
 42
-0.02709799999999998
 10
611.443168
 20
356.13057
 42
-0.01550500000000007
 10
603.321209
 20
359.7948890000001
 42
0.02040299999999996
 10
594.258682
 20
363.7772189999999
 42
0.059201
 10
587.644873
 20
365.501023
 42
0.08055400000000006
 10
582.046263
 20
365.366297
 42
0.06765100000000003
 10
576.405229
 20
363.4974350000001
 42
0.05193900000000012
 10
572.02307
 20
360.757364
 42
0.06825799999999968
 10
568.7364070000001
 20
357.380798
 42
0.05869700000000013
 10
566.148344
 20
352.843226
 42
0.027836
 10
563.865716
 20
346.4999999999999
 42
-0.01208000000000012
 10
561.8549879999999
 20
340.3066819999999
 42
-0.04532300000000018
 10
560.157752
 20
336.592889
 42
-0.07098199999999986
 10
558.27552
 20
334.172549
 42
-0.0728390000000002
 10
555.806596
 20
332.399987
 42
-0.09616199999999989
 10
552.276376
 20
331.363743
 42
-0.04851800000000001
 10
547.619402
 20
331.378547
 42
-0.03562499999999998
 10
541.606663
 20
332.419079
 42
-0.01545500000000008
 10
533.7881699999998
 20
334.6122690000001
 42
-0.01136699999999991
 10
525.9201649999999
 20
337.282013
 42
-0.01284000000000001
 10
518.4984209999999
 20
340.2080189999999
 42
-0.007806999999999928
 10
508.738109999998
 20
344.529641000001
 42
-0.00156699999999992
 10
491.4999999999989
 20
352.5520570000008
 42
0.008133999999999994
 10
474.365998
 20
360.253904
 42
0.02354399999999996
 10
462.19465
 20
364.822681
 42
0.03196500000000005
 10
451.975796
 20
367.411392
 42
0.03186900000000002
 10
441.5
 20
368.679675
 42
0.02756499999999999
 10
431.525378
 20
368.6961299999999
 42
0.03739699999999994
 10
422.595439
 20
367.544768
 42
0.03616399999999994
 10
413.710482
 20
365.0351929999999
 42
0.02349199999999993
 10
403.8554609999999
 20
360.931683
 42
-0.008242999999999872
 10
397.641194
 20
358.1188740000001
 42
-0.02902700000000004
 10
393.522618
 20
356.6130350000001
 42
-0.03651799999999995
 10
389.767499
 20
355.775361
 42
-0.01951300000000001
 10
385.037189
 20
355.265095
 42
-0.03023400000000009
 10
377.2225559999999
 20
355.202689
 42
-0.02700400000000015
 10
369.1527499999999
 20
356.0650450000001
 42
-0.02500700000000004
 10
360.64205
 20
357.883099
 42
-0.01886500000000019
 10
351.4999999999999
 20
360.692897
 42
0.007399999999999899
 10
341.002909
 20
364.184455
 42
0.01663800000000003
 10
332.922835
 20
366.447119
 42
0.02073600000000001
 10
325.946424
 20
367.848947
 42
0.02186399999999998
 10
319
 20
368.6380320000001
 42
0.04557500000000004
 10
306.816678
 20
368.373658
 42
0.03139600000000003
 10
293.213847
 20
365.9607940000001
 42
0.0294729999999999
 10
279.026837
 20
361.614888
 42
0.02731899999999998
 10
265.073968
 20
355.5371489999999
 42
-0.00970200000000008
 10
260.1741549999999
 20
353.1942369999999
 42
-0.03023599999999993
 10
256.760253
 20
351.8851340000001
 42
-0.04118199999999991
 10
253.842018
 20
351.2221410000001
 42
-0.03528499999999993
 10
250.698121
 20
351
 42
-0.04136299999999997
 10
245.359503
 20
351.4424020000001
 42
-0.04830399999999984
 10
240.447926
 20
352.758942
 42
-0.05245500000000001
 10
236.249613
 20
354.855957
 42
-0.07066999999999993
 10
233.030046
 20
357.618561
 42
-0.05609699999999995
 10
230.665128
 20
361.013382
 42
-0.1594440000000003
 10
230.154891
 20
363.814867
 42
-0.1378730000000001
 10
231.382393
 20
366.638428
 42
-0.03802799999999997
 10
234.7499999999999
 20
370.1807059999999
 42
0.02287500000000002
 10
248.4092999999999
 20
383.7039959999999
 42
0.02513499999999995
 10
260.328311
 20
398.016672
 42
0.02494500000000001
 10
270.827451
 20
413.553866
 42
0.02186199999999989
 10
280.234232
 20
430.7457709999999
 42
-0.003963999999999906
 10
284.1460979999999
 20
438.5455699999999
 42
-0.0440509999999999
 10
285.997233
 20
441.492621
 42
-0.102772
 10
287.772212
 20
443.040243
 42
-0.06238500000000008
 10
290.360691
 20
444.097124
 42
0.03314599999999996
 10
294.885703
 20
445.643522
 42
0.02575199999999985
 10
299.5782459999999
 20
447.893304
 42
0.02346600000000007
 10
304.4462599999999
 20
450.847711
 42
0.01780800000000001
 10
309.4999999999999
 20
454.517115
 42
-0.04528499999999999
 10
321.053726
 20
461.973592
 42
-0.07083499999999997
 10
332.186268
 20
465.926291
 42
-0.07605200000000004
 10
343.387583
 20
466.463555
 42
-0.06153899999999989
  0
LWPOLYLINE
  5
51
100
AcDbEntity
  8
0
  6
ByLayer
 62
  256
370
   -1
100
AcDbPolyline
 90
  136
 70
    1
 43
0
 10
456.375461
 20
357.853089
 42
-0.03246199999999998
 10
463.460808
 20
356.1846320000001
 42
-0.02004199999999998
 10
471.544512
 20
353.359233
 42
-0.01308399999999996
 10
482.3492990000001
 20
348.7593000000002
 42
-0.003749999999999976
 10
498.8417059999996
 20
341.0723040000003
 42
0.00735399999999996
 10
520.2595879999997
 20
331.2768469999999
 42
0.0177689999999999
 10
536.4352059999999
 20
324.840347
 42
0.02373699999999987
 10
548.9616569999999
 20
321.024309
 42
0.05807399999999999
 10
558.500667
 20
319.7556149999999
 42
0.09424100000000009
 10
564.301322
 20
320.7616070000001
 42
0.09909199999999968
 10
569.212566
 20
323.8214770000001
 42
0.08381599999999956
 10
573.1562129999999
 20
329.0216760000001
 42
0.04845900000000009
 10
576.1101209999999
 20
336.316536
 42
-0.02150099999999995
 10
578.4568329999998
 20
343.147633
 42
-0.04622299999999994
 10
580.957284
 20
348.1158019999999
 42
-0.05981299999999989
 10
583.8175680000001
 20
351.6663209999999
 42
-0.0754989999999999
 10
587.2404739999999
 20
354.122681
 42
-0.08030000000000009
 10
591.783656
 20
355.585439
 42
-0.06175699999999996
 10
596.9999309999999
 20
355.730868
 42
-0.05124399999999999
 10
602.970898
 20
354.533643
 42
-0.03020600000000005
 10
609.785272
 20
351.963433
 10
617.070544
 20
348.700683
 10
622.3616230000002
 20
337.569416
 42
0.02035400000000006
 10
634.2814660000001
 20
314.918713
 42
0.02413600000000001
 10
647.397722
 20
294.60732
 42
0.02574500000000012
 10
661.530075
 20
276.883412
 42
0.03184999999999993
 10
676.4999999999999
 20
261.999735
 42
-0.02628299999999993
 10
683.528152
 20
255.1658510000001
 42
-0.07984300000000016
 10
687.211318
 20
249.635189
 42
-0.14253
 10
687.8688889999999
 20
245.13229
 42
-0.1760579999999967
 10
685.8980909999999
 20
241.4077740000001
 42
-0.1434949999999996
 10
682.562372
 20
239.794302
 42
-0.03113200000000009
 10
676.130197
 20
239.127935
 42
-0.03181499999999993
 10
668.721797
 20
239.29556
 42
-0.03569099999999982
 10
661.679592
 20
240.414576
 42
-0.03256299999999984
 10
657.959988
 20
241.540935
 42
-0.006956999999999904
 10
651.669299
 20
244.0030000000001
 42
-0.007244000000000185
 10
644.4484369999996
 20
247.0683350000001
 42
-0.0068419999999998
 10
637.179592
 20
250.398705
 42
0.004782000000000008
 10
629.897561
 20
253.7714860000001
 42
0.004952999999999971
 10
622.63713
 20
256.9640900000001
 42
0.004785999999999996
 10
616.299621
 20
259.6047770000001
 42
0.02125800000000002
 10
612.5
 20
260.9604670000001
 42
0.03291899999999995
 10
604.862522
 20
262.784155
 42
0.02838999999999997
 10
596.663138
 20
263.7048070000001
 42
0.02932599999999996
 10
588.794761
 20
263.676606
 42
0.04737000000000002
 10
582.184933
 20
262.631016
 42
0.03101600000000008
 10
576.794668
 20
260.883141
 42
0.03408100000000004
 10
571.8357150000001
 20
258.526025
 42
0.02182300000000004
 10
565.7133879999999
 20
254.72601
 42
0.00510499999999999
 10
555.808217
 20
247.812865
 42
-0.01371300000000008
 10
545.6816250000001
 20
241.00135
 42
-0.02854500000000009
 10
537.370317
 20
236.3782180000001
 42
-0.03656600000000005
 10
530.221799
 20
233.5441
 42
-0.05743899999999993
 10
523.739539
 20
232.300102
 42
-0.02475200000000012
 10
519.800941
 20
232.200204
 42
-0.06146599999999999
 10
516.95273
 20
232.62168
 42
-0.04118900000000007
 10
513.686833
 20
233.821312
 42
-0.006460999999999942
 10
507.5
 20
236.78912
 42
-0.004769000000000084
 10
503.0411769999998
 20
239.0525580000002
 42
-0.003031999999999877
 10
497.8918510000002
 20
241.768378
 42
-0.003045000000000158
 10
492.8710259999997
 20
244.4949410000001
 42
-0.005643000000000066
 10
488.8339599999999
 20
246.7789900000001
 42
0.004294000000000044
 10
485.364929
 20
248.7540370000001
 42
0.005362000000000031
 10
482.109018
 20
250.5253800000001
 42
0.004380999999999909
 10
479.351303
 20
251.956762
 42
0.0406910000000001
 10
478.109872
 20
252.465128
 42
-0.02745300000000008
 10
476.772874
 20
252.971776
 42
-0.001853999999999937
 10
473.0503270000001
 20
254.6378490000001
 42
-0.002657000000000014
 10
468.6279079999994
 20
256.6652480000004
 42
-0.001987999999999812
 10
463.775912
 20
258.9443680000001
 42
0.03404899999999993
 10
443.174891
 20
267.054519
 42
0.09019299999999991
 10
427.529849
 20
269.05337
 42
0.08724700000000009
 10
411.875453
 20
265.4395100000001
 42
0.03048600000000002
 10
391.1094919999998
 20
255.1022419999999
 42
-0.004764999999999943
 10
378.61721
 20
248.060226
 42
-0.03009699999999989
 10
372.021618
 20
244.9260789999999
 42
-0.05456100000000024
 10
366.921888
 20
243.4904289999999
 42
-0.04226499999999991
 10
361.167095
 20
243.023735
 42
-0.05272199999999985
 10
354.371552
 20
243.76675
 42
-0.05362700000000004
 10
347.922617
 20
245.913904
 42
-0.03580600000000022
 10
340.1890559999999
 20
250.1401300000002
 42
-0.009945000000000103
 10
328.7111189999999
 20
257.8519750000003
 42
0.005668000000000017
 10
322.7368670000001
 20
261.9405680000001
 42
0.005932999999999945
 10
316.7610050000001
 20
265.829813
 42
0.00571400000000003
 10
311.5239629999999
 20
269.067107
 42
0.02604600000000006
 10
308.365018
 20
270.752667
 42
0.02459700000000011
 10
304.57179
 20
272.306961
 42
0.04896600000000008
 10
301.423314
 20
273.083618
 42
0.03115099999999996
 10
297.3748670000001
 20
273.415165
 42
0.005086999999999994
 10
289.4999999999999
 20
273.488054
 42
0.02035999999999999
 10
279.201533
 20
273.05904
 42
0.05081300000000003
 10
271.805157
 20
271.683396
 42
0.03414799999999994
 10
263.297719
 20
268.542267
 42
0.005305999999999952
 10
246.9999999999999
 20
261.0169119999999
 42
-0.007550999999999829
 10
233.6541050000001
 20
254.9270780000001
 42
-0.02860300000000017
 10
225.057468
 20
251.732493
 42
-0.04106299999999991
 10
217.859609
 20
250.149172
 42
-0.03149399999999993
 10
209.823768
 20
249.5738260000001
 42
-0.008591000000000111
 10
205.0439709999999
 20
249.615281
 42
-0.03716
 10
202.221294
 20
249.898894
 42
-0.05993700000000026
 10
200.193029
 20
250.51335
 42
-0.05646799999999998
 10
198.323768
 20
251.600326
 42
-0.03475900000000004
 10
197.221836
 20
252.54558
 42
-0.03331199999999986
 10
196.244523
 20
253.647159
 42
-0.03512900000000003
 10
195.517284
 20
254.735982
 42
-0.0925099999999998
 10
195.210779
 20
255.618875
 42
-0.1517069999999998
 10
195.696863
 20
258.803424
 42
-0.04487800000000004
 10
198.271808
 20
263.076933
 42
-0.03578999999999998
 10
202.523675
 20
268.088936
 42
-0.01909499999999999
 10
208.431711
 20
273.6765710000001
 42
0.03001799999999996
 10
220.8438619999999
 20
285.939905
 42
0.02113800000000007
 10
233.324629
 20
301.0884569999999
 42
0.02042600000000015
 10
244.9995380000001
 20
317.934926
 42
0.02175999999999992
 10
255
 20
335.3337599999999
 10
260.5
 20
345.946028
 10
268.5
 20
349.352622
 42
-0.0178859999999999
 10
280.275192
 20
353.87649
 42
-0.028021
 10
290.71398
 20
356.821819
 42
-0.02995300000000001
 10
300.884289
 20
358.453576
 42
-0.0249879999999999
 10
311.815376
 20
358.992197
 42
-0.02220500000000002
 10
320.391658
 20
358.604865
 42
-0.02882700000000005
 10
328.17308
 20
357.451309
 42
-0.02507899999999991
 10
336.563558
 20
355.264483
 42
-0.01187700000000008
 10
347.14611
 20
351.653147
 42
0.01981000000000008
 10
357.051153
 20
348.447493
 42
0.02583300000000006
 10
366.343631
 20
346.352621
 42
0.02714300000000009
 10
375.408536
 20
345.2981530000001
 42
0.02634700000000005
 10
384.62541
 20
345.2165990000001
 42
0.01165600000000004
 10
391.046625
 20
345.648408
 42
0.04456799999999994
 10
394.988831
 20
346.363872
 42
0.03694600000000006
 10
399.0849529999997
 20
347.8242099999999
 42
0.006285000000000135
 10
406.6254099999999
 20
351.2723739999999
 42
-0.03020600000000005
 10
419.23791
 20
356.325691
 42
-0.04732700000000001
 10
430.617589
 20
358.943352
 42
-0.04651400000000002
 10
442.428719
 20
359.398918
 42
-0.02799700000000003
  0
LWPOLYLINE
  5
52
100
AcDbEntity
  8
0
  6
ByLayer
 62
  256
370
   -1
100
AcDbPolyline
 90
  144
 70
    1
 43
0
 10
297.877339
 20
260.115308
 42
-0.04064400000000003
 10
302.457546
 20
258.270098
 42
-0.02120199999999993
 10
307.842326
 20
255.281954
 42
-0.01280200000000007
 10
315.3291759999998
 20
250.4341970000002
 42
-0.003067000000000103
 10
327.5000000000002
 20
241.9936489999998
 42
0.03398599999999996
 10
340.458585
 20
234.145668
 42
0.06495200000000013
 10
351.8828669999999
 20
230.015917
 42
0.07905200000000025
 10
362.379082
 20
229.391967
 42
0.08009200000000001
 10
372.5
 20
232.06532
 42
0.01609399999999988
 10
375.3010339999998
 20
233.4193139999999
 42
0.003049999999999863
 10
380.3099589999996
 20
236.0817439999998
 42
0.003254000000000034
 10
386.1226129999997
 20
239.266018
 42
0.00298200000000001
 10
392.0658159999997
 20
242.6188459999998
 42
-0.008706999999999947
 10
405.390216
 20
249.935886
 42
-0.03285399999999998
 10
414.083162
 20
253.808416
 42
-0.04784299999999996
 10
421.397166
 20
255.736813
 42
-0.03856299999999993
 10
429.5
 20
256.4279649999999
 42
-0.01252200000000005
 10
433.936612
 20
256.3523659999999
 42
-0.02057600000000002
 10
437.677745
 20
256.0402869999999
 42
-0.02364499999999998
 10
440.961495
 20
255.471024
 42
-0.02781000000000007
 10
444
 20
254.615228
 42
-0.02117200000000002
 10
453.525097
 20
250.8935690000001
 42
-0.005600000000000037
 10
468.407162
 20
244.1399030000001
 42
-0.005931999999999891
 10
483.5663939999998
 20
236.8342850000001
 42
-0.01356199999999995
 10
494.7735819999999
 20
230.8842539999999
 42
0.009989000000000083
 10
506.7906560000001
 20
224.3937419999999
 42
0.02854700000000002
 10
515.46789
 20
220.537836
 42
0.04147399999999998
 10
522.234961
 20
218.605236
 42
0.07547999999999998
 10
527.965978
 20
218.349411
 42
0.04173800000000009
 10
536.533001
 20
219.992504
 42
0.04994000000000014
 10
544.1818589999999
 20
222.9831369999999
 42
0.02789299999999996
 10
553.9798179999993
 20
228.7013769999996
 42
0.004686000000000177
 10
572.0000000000001
 20
240.8565740000001
 42
-0.01872199999999994
 10
580.964821
 20
246.544233
 42
-0.05596099999999993
 10
587.597572
 20
249.475389
 42
-0.06199199999999997
 10
594.329741
 20
250.703819
 42
-0.027038
 10
603.4293730000001
 20
250.72746
 42
-0.02819699999999999
 10
611.968474
 20
249.802987
 42
-0.03533499999999995
 10
619.713331
 20
247.949817
 42
-0.026827
 10
628.617972
 20
244.6067899999999
 42
-0.008944000000000079
 10
641.273684
 20
238.792319
 42
-0.006443999999999948
 10
649.297722
 20
234.802357
 42
-0.03841699999999986
 10
653.278237
 20
232.355694
 42
-0.04778600000000003
 10
656.4587749999999
 20
229.546822
 42
-0.01323199999999993
 10
660.883322
 20
224.556859
 42
-0.004261000000000069
 10
663.9391190000001
 20
220.857595
 42
-0.002480999999999986
 10
667.5455710000001
 20
216.3698270000003
 42
-0.002480000000000082
 10
671.1140620000001
 20
211.8379370000001
 42
-0.004189999999999968
 10
674.054042
 20
208
 42
0.011595
 10
680.1557789999997
 20
200.274365
 42
0.007878999999999973
 10
687.4387319999998
 20
191.7571520000001
 42
0.007513999999999985
 10
695.4435739999998
 20
182.9590700000002
 42
0.007429999999999997
 10
703.738782
 20
174.3720210000001
 42
-0.01393299999999989
 10
712.78814
 20
164.7571710000001
 42
-0.03588199999999999
 10
718.599646
 20
157.199347
 42
-0.05092100000000006
 10
721.911704
 20
150.868809
 42
-0.09535500000000015
 10
723
 20
145.214152
 42
-0.1234480000000006
 10
721.950636
 20
141.0286829999999
 42
-0.1183740000000002
 10
719.04042
 20
137.75676
 42
-0.09558899999999981
 10
714.382085
 20
135.689932
 42
-0.05680800000000022
 10
708.329245
 20
135
 42
-0.04066900000000011
 10
703.6894129999999
 20
135.378022
 42
-0.01970800000000006
 10
697.85298
 20
136.573272
 42
-0.01311799999999994
 10
689.8546599999995
 20
138.7665970000003
 42
-0.003984
 10
677.8507159999996
 20
142.5041430000003
 42
0.009796999999999993
 10
671.5995380000001
 20
144.371065
 42
0.009391999999999954
 10
665.191683
 20
146.019831
 42
0.009840000000000055
 10
659.180039
 20
147.322411
 42
0.017387
 10
654.167813
 20
148.12577
 42
0.03983400000000002
 10
642.6646480000001
 20
148.638364
 42
0.06525800000000007
 10
633.058665
 20
147.034631
 42
0.04752299999999994
 10
622.252007
 20
142.58327
 42
0.01245000000000003
 10
605.8812449999998
 20
133.413191
 42
-0.007499000000000032
 10
600.4723159999996
 20
130.3126319999999
 42
-0.006309999999999775
 10
594.6541339999999
 20
127.187685
 42
-0.00637299999999995
 10
589.269794
 20
124.46941
 42
-0.01748000000000008
 10
585.381245
 20
122.733752
 42
-0.01452600000000002
 10
580.479562
 20
120.912164
 42
-0.04138700000000006
 10
576.949245
 20
120.033135
 42
-0.03388200000000016
 10
572.9534009999999
 20
119.658158
 42
-0.007296999999999871
 10
565.9999999999999
 20
119.580039
 42
-0.01192099999999997
 10
559.0896279999998
 20
119.768061
 42
-0.02498500000000014
 10
553.742353
 20
120.309998
 42
-0.02019699999999991
 10
547.8114370000001
 20
121.45895
 42
-0.005432000000000041
 10
538.5
 20
123.763349
 42
0.01298700000000002
 10
524.43611
 20
127.019214
 42
0.021428
 10
512.393202
 20
128.946332
 42
0.02548600000000007
 10
502.176633
 20
129.609964
 42
0.04480599999999997
 10
493.742669
 20
128.970731
 42
0.02205799999999997
 10
487.638174
 20
127.674004
 42
0.02091199999999998
 10
481.560114
 20
125.82551
 42
0.01371799999999994
 10
473.760691
 20
122.849738
 42
0.003573000000000052
 10
461.396199
 20
117.635664
 42
-0.03754700000000016
 10
446.957777
 20
112.671482
 42
-0.06606399999999994
 10
434.455958
 20
111.111223
 42
-0.05127599999999989
 10
419.9535359999998
 20
112.7164420000001
 42
-0.01485199999999999
 10
398.0671639999998
 20
118.128133
 42
0.01095400000000002
 10
376.0166399999999
 20
123.7631379999999
 42
0.03946999999999993
 10
361.679151
 20
125.921058
 42
0.05426099999999994
 10
349.693996
 20
125.466265
 42
0.03700800000000003
 10
336.377114
 20
122.483769
 42
-0.03299999999999998
 10
313.8486239999999
 20
117.248437
 42
-0.05857199999999983
 10
294.833522
 20
116.385556
 42
-0.06942100000000007
 10
278.483152
 20
119.875345
 42
-0.07279300000000018
 10
263.9999999999999
 20
127.679416
 42
0.02385699999999995
 10
257.081041
 20
132.330694
 42
0.01941499999999993
 10
249.265663
 20
136.654495
 42
0.01986400000000003
 10
241.436
 20
140.214897
 42
0.03214399999999999
 10
234.5
 20
142.534938
 42
0.04569600000000005
 10
221.95136
 20
144.652837
 42
0.04165899999999996
 10
208.824472
 20
144.555712
 42
0.04209
 10
196.037295
 20
142.297462
 42
0.04927399999999993
 10
184.5
 20
137.989014
 42
-0.01739400000000009
 10
178.051476
 20
135.100907
 42
-0.03320799999999997
 10
172.66457
 20
133.316314
 42
-0.03639899999999995
 10
167.430896
 20
132.359904
 42
-0.02621499999999985
 10
161.5
 20
132.030023
 42
-0.04525799999999992
 10
154.016013
 20
132.68511
 42
-0.07228799999999998
 10
147.938008
 20
134.713394
 42
-0.08484200000000006
 10
143.379052
 20
138.077314
 42
-0.09277600000000019
 10
140.3640259999999
 20
142.67119
 42
-0.05157300000000029
 10
139.184624
 20
146.584485
 42
-0.1472119999999997
 10
139.47297
 20
149.383569
 42
-0.101194
 10
141.372095
 20
152.179405
 42
-0.01752800000000005
 10
146.12903
 20
156.5
 42
0.02375499999999993
 10
160.9749639999999
 20
170.325327
 42
0.01349900000000003
 10
177.6464219999997
 20
188.3475709999998
 42
0.01335500000000017
 10
193.7499459999999
 20
207.74895
 42
0.01895099999999996
 10
206.9276139999999
 20
225.8919539999999
 42
-0.005048999999999969
 10
211.468591
 20
232.5241299999999
 42
-0.02968499999999998
 10
214.086343
 20
235.82948
 42
-0.05962399999999996
 10
216.119018
 20
237.621317
 42
-0.09897600000000033
 10
218.210736
 20
238.520745
 42
0.04506200000000011
 10
220.3273859999998
 20
239.1728299999998
 42
0.003097000000000063
 10
226.115029
 20
241.5864799999999
 42
0.004398999999999958
 10
232.9827659999999
 20
244.5722049999998
 42
0.003288999999999956
 10
240.4999999999998
 20
247.978659
 42
-0.004245000000000081
 10
258.434615
 20
256.0645020000001
 42
-0.02661099999999996
 10
267.833632
 20
259.6223100000001
 42
-0.04527300000000006
 10
275.281255
 20
261.273414
 42
-0.02865100000000003
 10
284.160906
 20
261.899549
 42
-0.01724800000000007
 10
287.830172
 20
261.821083
 42
-0.018372
 10
291.408359
 20
261.488742
 42
-0.01917700000000001
 10
294.792213
 20
260.915876
 42
-0.02392399999999995
  0
LWPOLYLINE
  5
53
100
AcDbEntity
  8
0
  6
ByLayer
 62
  256
370
   -1
100
AcDbPolyline
 90
   42
 70
    1
 43
0
 10
394.9020540000001
 20
101.5330079999999
 42
0.01087699999999982
 10
411.5606219999997
 20
97.33608100000001
 42
0.02294200000000017
 10
424.6742090000001
 20
94.96101800000004
 42
0.02932
 10
435.445442
 20
94.15519500000001
 42
0.0452650000000001
 10
444.749823
 20
94.84887499999999
 42
0.02797299999999996
 10
447.859345
 20
95.54688799999998
 42
0.009897000000000097
 10
452.225204
 20
96.88088199999996
 42
0.009788000000000069
 10
456.9731689999999
 20
98.53860399999998
 42
0.01134999999999997
 10
461.4215819999999
 20
100.306008
 10
471.843519
 20
104.723204
 10
472.439874
 20
96.611602
 42
-0.005885999999999974
 10
472.6852390000001
 20
92.63441900000014
 42
-0.002401000000000043
 10
472.929167
 20
87.22230700000011
 42
-0.002375999999999998
 10
473.135733
 20
81.40369100000002
 42
-0.003031999999999988
 10
473.268115
 20
76.03880299999996
 10
473.5
 20
63.577607
 10
468.5
 20
62.75538599999999
 42
0.01654400000000002
 10
465.59273
 20
62.17793699999987
 42
0.002667000000000007
 10
459.9750000000001
 20
60.83595399999967
 42
0.002943000000000086
 10
453.375192
 20
59.1808759999999
 42
0.002582000000000024
 10
446.5000000000001
 20
57.37575700000002
 10
429.5
 20
52.81835
 10
422.689044
 20
56.807978
 42
0.03456099999999996
 10
414.887858
 20
60.68077999999998
 42
0.01899999999999996
 10
404.883878
 20
64.37457499999996
 42
0.01884499999999997
 10
394.382409
 20
67.37187899999996
 42
0.02814999999999996
 10
385.0000000000001
 20
69.11853699999995
 42
-0.001748000000000161
 10
381.3362929999998
 20
69.60224699999998
 42
-0.002768999999999968
 10
378.2007249999995
 20
70.04508600000031
 42
-0.0006460000000000516
 10
375.4583989999993
 20
70.45150900000023
 42
-0.1191999999999964
 10
375.193957
 20
70.55888400000003
 42
-0.2898289999999752
 10
375.104502
 20
70.78052300000002
 42
-0.003239999999999987
 10
375.417799
 20
72.43572500000002
 42
-0.00873600000000006
 10
375.833595
 20
74.37680800000001
 42
-0.005432000000000041
 10
376.3857369999999
 20
76.63937700000005
 42
0.01825899999999971
 10
377.4752739999999
 20
81.65985199999966
 42
0.003089000000000111
 10
379.1452129999999
 20
91.32938699999971
 42
0.002045000000000097
 10
380.7550870000001
 20
101.2579780000001
 42
0.03918400000000009
 10
381
 20
104.378338
 42
-0.4074530000000011
 10
381.444513
 20
104.833256
 42
-0.0563140000000001
 10
382.896753
 20
104.703118
 42
-0.01568900000000005
 10
385.9514540000002
 20
103.9773749999995
 42
-0.0009799999999999807
  0
ENDSEC
  0
SECTION
  2
OBJECTS
  0
DICTIONARY
  5
C
330
0
100
AcDbDictionary
281
    1
  3
ACAD_GROUP
350
D
  0
DICTIONARY
  5
D
330
C
100
AcDbDictionary
281
    1
  0
PLOTSETTINGS
  5
54
100
AcDbPlotSettings
  6
1x1
 40
0
 41
0
 42
0
 43
0
  0
ENDSEC
  0
EOF
