  0
SECTION
  2
HEADER
  9
$ACADVER
  1
AC1006
  9
$EXTMIN
 10
0.000000
 20
0.000000
 30
0.000000
  9
$EXTMAX
 10
840.000000
 20
807.000000
 30
0.000000
  0
ENDSEC
  0
SECTION
  2
ENTITIES
  0
POLYLINE
  8
0
 66
1
 70
1
  0
VERTEX
  8
0
 10
409.056437
 20
775.976174
 42
0.044357
  0
VERTEX
  8
0
 10
402.675748
 20
774.025539
 42
0.029313
  0
VERTEX
  8
0
 10
395.747913
 20
770.730559
 42
0.028847
  0
VERTEX
  8
0
 10
389.090317
 20
766.554396
 42
0.036819
  0
VERTEX
  8
0
 10
383.512215
 20
761.936335
 42
0.075209
  0
VERTEX
  8
0
 10
373.780521
 20
749.280993
 42
0.076386
  0
VERTEX
  8
0
 10
368.291516
 20
734.379303
 42
0.075916
  0
VERTEX
  8
0
 10
367.511105
 20
718.435772
 42
0.072928
  0
VERTEX
  8
0
 10
371.486786
 20
702.750000
 42
-0.104286
  0
VERTEX
  8
0
 10
371.658189
 20
701.839174
 42
-0.281854
  0
VERTEX
  8
0
 10
371.316860
 20
701.308133
 42
-0.101758
  0
VERTEX
  8
0
 10
370.300673
 20
701.051621
 42
-0.010897
  0
VERTEX
  8
0
 10
367.856989
 20
700.996262
 42
0.065797
  0
VERTEX
  8
0
 10
363.709935
 20
700.444545
 42
0.077402
  0
VERTEX
  8
0
 10
360.091898
 20
698.836805
 42
0.078190
  0
VERTEX
  8
0
 10
357.161778
 20
696.221339
 42
0.068956
  0
VERTEX
  8
0
 10
355.025206
 20
692.723328
 42
0.039630
  0
VERTEX
  8
0
 10
354.075157
 20
689.962352
 42
0.003710
  0
VERTEX
  8
0
 10
352.332198
 20
682.984352
 42
0.004744
  0
VERTEX
  8
0
 10
350.391806
 20
674.616674
 42
0.003712
  0
VERTEX
  8
0
 10
348.439573
 20
665.500000
 42
-0.000071
  0
VERTEX
  8
0
 10
346.576345
 20
656.478637
 42
-0.000099
  0
VERTEX
  8
0
 10
344.906350
 20
648.406734
 42
-0.000060
  0
VERTEX
  8
0
 10
343.497289
 20
641.606934
 42
-0.001292
  0
VERTEX
  8
0
 10
343.077436
 20
639.608029
 42
-0.134589
  0
VERTEX
  8
0
 10
342.132517
 20
637.780468
 42
-0.093259
  0
VERTEX
  8
0
 10
340.256486
 20
636.383501
 42
-0.031988
  0
VERTEX
  8
0
 10
336.444655
 20
634.816061
 42
-0.002775
  0
VERTEX
  8
0
 10
326.481099
 20
631.507361
 42
0.005717
  0
VERTEX
  8
0
 10
312.411050
 20
626.742898
 42
0.013051
  0
VERTEX
  8
0
 10
301.938699
 20
622.752703
 42
0.013667
  0
VERTEX
  8
0
 10
291.983656
 20
618.337191
 42
0.006887
  0
VERTEX
  8
0
 10
279.664570
 20
612.255484
 42
0.019122
  0
VERTEX
  8
0
 10
258.564816
 20
600.436695
 42
0.021017
  0
VERTEX
  8
0
 10
239.104598
 20
587.382697
 42
0.020786
  0
VERTEX
  8
0
 10
220.621709
 20
572.604991
 42
0.017900
  0
VERTEX
  8
0
 10
202.451323
 20
555.615627
 42
0.006189
  0
VERTEX
  8
0
 10
191.681999
 20
544.527235
 42
0.012619
  0
VERTEX
  8
0
 10
183.559593
 20
535.509107
 42
0.013747
  0
VERTEX
  8
0
 10
176.355419
 20
526.608718
 42
0.009016
  0
VERTEX
  8
0
 10
168.530917
 20
515.987740
 42
0.053039
  0
VERTEX
  8
0
 10
137.213285
 20
460.120670
 42
0.052063
  0
VERTEX
  8
0
 10
118.111435
 20
398.568852
 42
0.051975
  0
VERTEX
  8
0
 10
112.115486
 20
334.299051
 42
0.052498
  0
VERTEX
  8
0
 10
119.544154
 20
270.397245
 42
0.070126
  0
VERTEX
  8
0
 10
149.493900
 20
190.986405
 42
0.068787
  0
VERTEX
  8
0
 10
200.375790
 20
122.365477
 42
0.068909
  0
VERTEX
  8
0
 10
267.871884
 20
70.218396
 42
0.070808
  0
VERTEX
  8
0
 10
346.391763
 20
38.963429
 42
0.070120
  0
VERTEX
  8
0
 10
433.346458
 20
30.464030
 42
0.070910
  0
VERTEX
  8
0
 10
518.912693
 20
46.402282
 42
0.071124
  0
VERTEX
  8
0
 10
596.400205
 20
85.544087
 42
0.071241
  0
VERTEX
  8
0
 10
659.765990
 20
144.812522
 42
0.075682
  0
VERTEX
  8
0
 10
706.605391
 20
225.589791
 42
0.076099
  0
VERTEX
  8
0
 10
727.171663
 20
316.493440
 42
0.076144
  0
VERTEX
  8
0
 10
719.597099
 20
409.339663
 42
0.075908
  0
VERTEX
  8
0
 10
684.581999
 20
495.768814
 42
0.046895
  0
VERTEX
  8
0
 10
651.120129
 20
541.646414
 42
0.046206
  0
VERTEX
  8
0
 10
609.542784
 20
580.735368
 42
0.045976
  0
VERTEX
  8
0
 10
561.282751
 20
611.690710
 42
0.045462
  0
VERTEX
  8
0
 10
508.000000
 20
633.442123
 42
0.000000
  0
VERTEX
  8
0
 10
497.500000
 20
636.652420
 42
0.000000
  0
VERTEX
  8
0
 10
491.867522
 20
663.648607
 42
0.003272
  0
VERTEX
  8
0
 10
489.588584
 20
674.224757
 42
0.004553
  0
VERTEX
  8
0
 10
487.400176
 20
683.661076
 42
0.002839
  0
VERTEX
  8
0
 10
485.445261
 20
691.558183
 42
0.057288
  0
VERTEX
  8
0
 10
484.568973
 20
693.866620
 42
0.074619
  0
VERTEX
  8
0
 10
482.464831
 20
696.775593
 42
0.067847
  0
VERTEX
  8
0
 10
479.535900
 20
699.049391
 42
0.066185
  0
VERTEX
  8
0
 10
476.032989
 20
700.499420
 42
0.064946
  0
VERTEX
  8
0
 10
472.250000
 20
700.996262
 42
-0.006279
  0
VERTEX
  8
0
 10
470.620403
 20
701.018162
 42
-0.010440
  0
VERTEX
  8
0
 10
469.248438
 20
701.082520
 42
-0.004310
  0
VERTEX
  8
0
 10
468.105309
 20
701.169996
 42
-0.389533
  0
VERTEX
  8
0
 10
468.000000
 20
701.284659
 42
-0.080192
  0
VERTEX
  8
0
 10
468.034449
 20
701.498068
 42
-0.000652
  0
VERTEX
  8
0
 10
468.574892
 20
703.121370
 42
-0.002329
  0
VERTEX
  8
0
 10
469.206942
 20
704.982719
 42
-0.001494
  0
VERTEX
  8
0
 10
469.957080
 20
707.137560
 42
0.100987
  0
VERTEX
  8
0
 10
472.695896
 20
727.048742
 42
0.097227
  0
VERTEX
  8
0
 10
467.491593
 20
746.735649
 42
0.095872
  0
VERTEX
  8
0
 10
455.138542
 20
763.208331
 42
0.095117
  0
VERTEX
  8
0
 10
437.500000
 20
773.938575
 42
0.048578
  0
VERTEX
  8
0
 10
431.468948
 20
775.541588
 42
0.022802
  0
VERTEX
  8
0
 10
423.445263
 20
776.485566
 42
0.022815
  0
VERTEX
  8
0
 10
415.344491
 20
776.695367
 42
0.047111
  0
SEQEND
  0
POLYLINE
  8
0
 66
1
 70
1
  0
VERTEX
  8
0
 10
433.314969
 20
764.984435
 42
-0.056175
  0
VERTEX
  8
0
 10
441.447146
 20
761.432470
 42
-0.055014
  0
VERTEX
  8
0
 10
448.647341
 20
756.138956
 42
-0.053074
  0
VERTEX
  8
0
 10
454.734294
 20
749.211068
 42
-0.045925
  0
VERTEX
  8
0
 10
459.570584
 20
740.823563
 42
-0.020026
  0
VERTEX
  8
0
 10
461.186004
 20
736.907110
 42
-0.045162
  0
VERTEX
  8
0
 10
462.013368
 20
733.808219
 42
-0.034621
  0
VERTEX
  8
0
 10
462.386385
 20
730.143079
 42
-0.007821
  0
VERTEX
  8
0
 10
462.490161
 20
723.880302
 42
-0.007727
  0
VERTEX
  8
0
 10
462.390820
 20
717.042305
 42
-0.047428
  0
VERTEX
  8
0
 10
461.952596
 20
713.548173
 42
-0.052059
  0
VERTEX
  8
0
 10
460.874723
 20
710.334115
 42
-0.010418
  0
VERTEX
  8
0
 10
458.250000
 20
704.878736
 42
0.005590
  0
VERTEX
  8
0
 10
455.210565
 20
698.714445
 42
0.058218
  0
VERTEX
  8
0
 10
454.295447
 20
696.048016
 42
0.150266
  0
VERTEX
  8
0
 10
454.444565
 20
694.277026
 42
0.101116
  0
VERTEX
  8
0
 10
455.571429
 20
692.571429
 42
0.114168
  0
VERTEX
  8
0
 10
456.791382
 20
691.809896
 42
0.045442
  0
VERTEX
  8
0
 10
458.719366
 20
691.338348
 42
0.028842
  0
VERTEX
  8
0
 10
461.594541
 20
691.074878
 42
0.008428
  0
VERTEX
  8
0
 10
466.036245
 20
691.000000
 42
-0.006344
  0
VERTEX
  8
0
 10
471.015649
 20
690.936820
 42
-0.040277
  0
VERTEX
  8
0
 10
473.530847
 20
690.669497
 42
-0.088617
  0
VERTEX
  8
0
 10
474.996337
 20
690.112575
 42
-0.135688
  0
VERTEX
  8
0
 10
475.927979
 20
689.134572
 42
-0.065639
  0
VERTEX
  8
0
 10
476.477659
 20
687.675578
 42
-0.001126
  0
VERTEX
  8
0
 10
478.399486
 20
679.353854
 42
-0.002847
  0
VERTEX
  8
0
 10
480.562922
 20
669.634252
 42
-0.001889
  0
VERTEX
  8
0
 10
482.939686
 20
658.458048
 42
0.001944
  0
VERTEX
  8
0
 10
485.300668
 20
647.361999
 42
0.003103
  0
VERTEX
  8
0
 10
487.413831
 20
637.900797
 42
0.000664
  0
VERTEX
  8
0
 10
489.330243
 20
629.614491
 42
0.150501
  0
VERTEX
  8
0
 10
489.726523
 20
628.934048
 42
0.104253
  0
VERTEX
  8
0
 10
490.351848
 20
628.561828
 42
0.003590
  0
VERTEX
  8
0
 10
493.063416
 20
627.657278
 42
0.006585
  0
VERTEX
  8
0
 10
496.303919
 20
626.649077
 42
0.004536
  0
VERTEX
  8
0
 10
500.000000
 20
625.588696
 42
-0.027679
  0
VERTEX
  8
0
 10
527.469978
 20
616.312512
 42
-0.022949
  0
VERTEX
  8
0
 10
555.568944
 20
603.531135
 42
-0.022946
  0
VERTEX
  8
0
 10
582.383837
 20
588.225264
 42
-0.027637
  0
VERTEX
  8
0
 10
606.000000
 20
571.372109
 42
-0.017032
  0
VERTEX
  8
0
 10
615.318712
 20
563.376409
 42
-0.007198
  0
VERTEX
  8
0
 10
627.296041
 20
552.047319
 42
-0.007220
  0
VERTEX
  8
0
 10
638.997903
 20
540.321375
 42
-0.016121
  0
VERTEX
  8
0
 10
647.469772
 20
531.000000
 42
-0.035619
  0
VERTEX
  8
0
 10
672.221812
 20
497.352714
 42
-0.035690
  0
VERTEX
  8
0
 10
691.929288
 20
460.554394
 42
-0.035221
  0
VERTEX
  8
0
 10
706.416918
 20
420.855669
 42
-0.032796
  0
VERTEX
  8
0
 10
715.605943
 20
378.561419
 42
-0.024316
  0
VERTEX
  8
0
 10
717.044477
 20
364.187749
 42
-0.009047
  0
VERTEX
  8
0
 10
717.715337
 20
343.886313
 42
-0.009144
  0
VERTEX
  8
0
 10
717.646599
 20
323.353973
 42
-0.021267
  0
VERTEX
  8
0
 10
716.660120
 20
308.000000
 42
-0.034345
  0
VERTEX
  8
0
 10
709.090577
 20
265.275156
 42
-0.036201
  0
VERTEX
  8
0
 10
695.826341
 20
224.758757
 42
-0.036246
  0
VERTEX
  8
0
 10
676.875089
 20
186.624381
 42
-0.034607
  0
VERTEX
  8
0
 10
652.353297
 20
151.000000
 42
-0.020906
  0
VERTEX
  8
0
 10
643.398392
 20
140.662453
 42
-0.008271
  0
VERTEX
  8
0
 10
630.277033
 20
127.190100
 42
-0.008305
  0
VERTEX
  8
0
 10
616.654053
 20
114.100203
 42
-0.019769
  0
VERTEX
  8
0
 10
606.000000
 20
104.955654
 42
-0.027925
  0
VERTEX
  8
0
 10
578.056241
 20
85.261138
 42
-0.027885
  0
VERTEX
  8
0
 10
548.078719
 20
68.792999
 42
-0.028147
  0
VERTEX
  8
0
 10
516.743121
 20
55.901024
 42
-0.029795
  0
VERTEX
  8
0
 10
484.741988
 20
46.890721
 42
-0.024623
  0
VERTEX
  8
0
 10
456.543444
 20
42.176511
 42
-0.022891
  0
VERTEX
  8
0
 10
427.321680
 20
40.108953
 42
-0.022958
  0
VERTEX
  8
0
 10
398.124508
 20
40.723556
 42
-0.025172
  0
VERTEX
  8
0
 10
370.000000
 20
44.037476
 42
-0.064163
  0
VERTEX
  8
0
 10
297.863815
 20
66.018237
 42
-0.063375
  0
VERTEX
  8
0
 10
233.325374
 20
105.632036
 42
-0.063328
  0
VERTEX
  8
0
 10
180.725554
 20
160.179519
 42
-0.063892
  0
VERTEX
  8
0
 10
143.637694
 20
226.000000
 42
-0.021557
  0
VERTEX
  8
0
 10
134.546165
 20
251.505847
 42
-0.024483
  0
VERTEX
  8
0
 10
128.117306
 20
276.647164
 42
-0.024143
  0
VERTEX
  8
0
 10
124.111613
 20
302.604380
 42
-0.019899
  0
VERTEX
  8
0
 10
122.290567
 20
330.563157
 42
-0.027785
  0
VERTEX
  8
0
 10
123.411324
 20
367.530256
 42
-0.032097
  0
VERTEX
  8
0
 10
128.679034
 20
402.375743
 42
-0.032326
  0
VERTEX
  8
0
 10
138.318979
 20
436.046874
 42
-0.028948
  0
VERTEX
  8
0
 10
152.515901
 20
469.500000
 42
-0.021074
  0
VERTEX
  8
0
 10
166.160566
 20
494.395325
 42
-0.024393
  0
VERTEX
  8
0
 10
181.253198
 20
516.825538
 42
-0.024366
  0
VERTEX
  8
0
 10
198.473620
 20
537.699466
 42
-0.020943
  0
VERTEX
  8
0
 10
218.500000
 20
557.927549
 42
-0.031341
  0
VERTEX
  8
0
 10
245.783175
 20
580.256416
 42
-0.030273
  0
VERTEX
  8
0
 10
275.951007
 20
599.282888
 42
-0.029822
  0
VERTEX
  8
0
 10
308.652134
 20
614.778961
 42
-0.028390
  0
VERTEX
  8
0
 10
343.500000
 20
626.564943
 42
0.007036
  0
VERTEX
  8
0
 10
345.853701
 20
627.250541
 42
0.009494
  0
VERTEX
  8
0
 10
347.961302
 20
627.940802
 42
0.006930
  0
VERTEX
  8
0
 10
349.695476
 20
628.572542
 42
0.095468
  0
VERTEX
  8
0
 10
350.261878
 20
628.922591
 42
0.150902
  0
VERTEX
  8
0
 10
350.652101
 20
629.592695
 42
0.000649
  0
VERTEX
  8
0
 10
352.557603
 20
637.861691
 42
0.003069
  0
VERTEX
  8
0
 10
354.658542
 20
647.298975
 42
0.001921
  0
VERTEX
  8
0
 10
357.007241
 20
658.368955
 42
-0.001976
  0
VERTEX
  8
0
 10
359.375531
 20
669.525312
 42
-0.002965
  0
VERTEX
  8
0
 10
361.538525
 20
679.240986
 42
-0.001216
  0
VERTEX
  8
0
 10
363.460126
 20
687.544482
 42
-0.065480
  0
VERTEX
  8
0
 10
364.030547
 20
689.057078
 42
-0.125554
  0
VERTEX
  8
0
 10
364.970092
 20
690.083578
 42
-0.095699
  0
VERTEX
  8
0
 10
366.385379
 20
690.663655
 42
-0.043083
  0
VERTEX
  8
0
 10
368.810150
 20
690.936496
 42
-0.006485
  0
VERTEX
  8
0
 10
373.706443
 20
691.000000
 42
0.008906
  0
VERTEX
  8
0
 10
378.070269
 20
691.077738
 42
0.030315
  0
VERTEX
  8
0
 10
380.899402
 20
691.350848
 42
0.047795
  0
VERTEX
  8
0
 10
382.832416
 20
691.849304
 42
0.097224
  0
VERTEX
  8
0
 10
384.171259
 20
692.654988
 42
0.029904
  0
VERTEX
  8
0
 10
384.871138
 20
693.368944
 42
0.032147
  0
VERTEX
  8
0
 10
385.462807
 20
694.145022
 42
0.033985
  0
VERTEX
  8
0
 10
385.877887
 20
694.871380
 42
0.113286
  0
VERTEX
  8
0
 10
386.000000
 20
695.403421
 42
0.101057
  0
VERTEX
  8
0
 10
385.851277
 20
696.131747
 42
0.004302
  0
VERTEX
  8
0
 10
384.795513
 20
698.551161
 42
0.007231
  0
VERTEX
  8
0
 10
383.470548
 20
701.405989
 42
0.005070
  0
VERTEX
  8
0
 10
381.899619
 20
704.583656
 42
-0.012801
  0
VERTEX
  8
0
 10
379.648441
 20
709.320281
 42
-0.036610
  0
VERTEX
  8
0
 10
378.416405
 20
712.749861
 42
-0.037873
  0
VERTEX
  8
0
 10
377.720025
 20
716.257533
 42
-0.014492
  0
VERTEX
  8
0
 10
377.266084
 20
721.216259
 42
-0.012669
  0
VERTEX
  8
0
 10
377.092287
 20
725.915216
 42
-0.028619
  0
VERTEX
  8
0
 10
377.254522
 20
729.471353
 42
-0.030841
  0
VERTEX
  8
0
 10
377.810297
 20
732.819961
 42
-0.017189
  0
VERTEX
  8
0
 10
378.875629
 20
736.816447
 42
-0.100752
  0
VERTEX
  8
0
 10
386.852835
 20
751.568635
 42
-0.099520
  0
VERTEX
  8
0
 10
399.992491
 20
762.104757
 42
-0.098468
  0
VERTEX
  8
0
 10
416.307585
 20
766.817151
 42
-0.096411
  0
SEQEND
  0
POLYLINE
  8
0
 66
1
 70
1
  0
VERTEX
  8
0
 10
415.358195
 20
744.067573
 42
0.080827
  0
VERTEX
  8
0
 10
409.318416
 20
741.500720
 42
0.078769
  0
VERTEX
  8
0
 10
404.342745
 20
737.133379
 42
0.080094
  0
VERTEX
  8
0
 10
401.024681
 20
731.513700
 42
0.088029
  0
VERTEX
  8
0
 10
399.782268
 20
725.318059
 42
0.041682
  0
VERTEX
  8
0
 10
400.080730
 20
720.432548
 42
0.061892
  0
VERTEX
  8
0
 10
401.214463
 20
716.303272
 42
0.063153
  0
VERTEX
  8
0
 10
403.302586
 20
712.636933
 42
0.045588
  0
VERTEX
  8
0
 10
406.461276
 20
709.142459
 42
0.045423
  0
VERTEX
  8
0
 10
410.081786
 20
706.367616
 42
0.069178
  0
VERTEX
  8
0
 10
413.685048
 20
704.736797
 42
0.063531
  0
VERTEX
  8
0
 10
417.819279
 20
704.069690
 42
0.032232
  0
VERTEX
  8
0
 10
423.095552
 20
704.235159
 42
0.063065
  0
VERTEX
  8
0
 10
426.960743
 20
705.106620
 42
0.054497
  0
VERTEX
  8
0
 10
430.696659
 20
706.941806
 42
0.050493
  0
VERTEX
  8
0
 10
434.199247
 20
709.696245
 42
0.040566
  0
VERTEX
  8
0
 10
437.370515
 20
713.294447
 42
0.100886
  0
VERTEX
  8
0
 10
438.898885
 20
716.538923
 42
0.035903
  0
VERTEX
  8
0
 10
439.756774
 20
721.616686
 42
0.036164
  0
VERTEX
  8
0
 10
439.881553
 20
726.971422
 42
0.067547
  0
VERTEX
  8
0
 10
439.090033
 20
731.227197
 42
0.067447
  0
VERTEX
  8
0
 10
437.630115
 20
734.222911
 42
0.035256
  0
VERTEX
  8
0
 10
435.085206
 20
737.511223
 42
0.035033
  0
VERTEX
  8
0
 10
432.047722
 20
740.466245
 42
0.057281
  0
VERTEX
  8
0
 10
429.060787
 20
742.453918
 42
0.055748
  0
VERTEX
  8
0
 10
426.068607
 20
743.584781
 42
0.033198
  0
VERTEX
  8
0
 10
422.319960
 20
744.280847
 42
0.033213
  0
VERTEX
  8
0
 10
418.516639
 20
744.474302
 42
0.056304
  0
SEQEND
  0
POLYLINE
  8
0
 66
1
 70
1
  0
VERTEX
  8
0
 10
425.695530
 20
733.044085
 42
-0.140373
  0
VERTEX
  8
0
 10
429.425219
 20
728.994692
 42
-0.134929
  0
VERTEX
  8
0
 10
430.518908
 20
723.519600
 42
-0.132457
  0
VERTEX
  8
0
 10
428.662615
 20
718.177920
 42
-0.133254
  0
VERTEX
  8
0
 10
424.375854
 20
714.508113
 42
-0.161027
  0
VERTEX
  8
0
 10
418.068712
 20
713.723580
 42
-0.152090
  0
VERTEX
  8
0
 10
412.366364
 20
716.819771
 42
-0.152592
  0
VERTEX
  8
0
 10
409.441804
 20
722.596414
 42
-0.162163
  0
VERTEX
  8
0
 10
410.424070
 20
728.853167
 42
-0.096707
  0
VERTEX
  8
0
 10
413.240365
 20
732.407483
 42
-0.110467
  0
VERTEX
  8
0
 10
417.066021
 20
734.437615
 42
-0.109841
  0
VERTEX
  8
0
 10
421.409659
 20
734.650755
 42
-0.094726
  0
SEQEND
  0
ENDSEC
  0
EOF
