  0
SECTION
  2
HEADER
  9
$ACADVER
  1
AC1006
  9
$EXTMIN
 10
0.000000
 20
0.000000
 30
0.000000
  9
$EXTMAX
 10
216.000000
 20
233.000000
 30
0.000000
  0
ENDSEC
  0
SECTION
  2
ENTITIES
  0
POLYLINE
  8
0
 66
1
 70
1
  0
VERTEX
  8
0
 10
114.998573
 20
231.166667
 42
0.281878
  0
VERTEX
  8
0
 10
114.591049
 20
230.681971
 42
0.011264
  0
VERTEX
  8
0
 10
114.286267
 20
228.296833
 42
0.016505
  0
VERTEX
  8
0
 10
114.069917
 20
225.278677
 42
0.009638
  0
VERTEX
  8
0
 10
114.000000
 20
221.652024
 42
0.000000
  0
VERTEX
  8
0
 10
114.000000
 20
212.470714
 42
0.000000
  0
VERTEX
  8
0
 10
107.207683
 20
209.306174
 42
0.059731
  0
VERTEX
  8
0
 10
98.697680
 20
204.026172
 42
0.057428
  0
VERTEX
  8
0
 10
91.550066
 20
196.821578
 42
0.057214
  0
VERTEX
  8
0
 10
86.206423
 20
188.152557
 42
0.058417
  0
VERTEX
  8
0
 10
83.012019
 20
178.557897
 42
0.046886
  0
VERTEX
  8
0
 10
82.528237
 20
174.216947
 42
0.001669
  0
VERTEX
  8
0
 10
82.293715
 20
157.403767
 42
0.002595
  0
VERTEX
  8
0
 10
82.173254
 20
135.185936
 42
0.001043
  0
VERTEX
  8
0
 10
82.229529
 20
104.815711
 42
0.000422
  0
VERTEX
  8
0
 10
82.444077
 20
59.955855
 42
0.006753
  0
VERTEX
  8
0
 10
82.734552
 20
44.775615
 42
0.016335
  0
VERTEX
  8
0
 10
83.259772
 20
36.744533
 42
0.136704
  0
VERTEX
  8
0
 10
84.561789
 20
33.384594
 42
0.114861
  0
VERTEX
  8
0
 10
91.130568
 20
27.844388
 42
0.128846
  0
VERTEX
  8
0
 10
99.193212
 20
26.078147
 42
0.136266
  0
VERTEX
  8
0
 10
106.751735
 20
28.511739
 42
0.135217
  0
VERTEX
  8
0
 10
111.999910
 20
34.499815
 42
0.089341
  0
VERTEX
  8
0
 10
113.215806
 20
38.848633
 42
0.016553
  0
VERTEX
  8
0
 10
113.727029
 20
47.175366
 42
0.006580
  0
VERTEX
  8
0
 10
113.959480
 20
62.613416
 42
0.000474
  0
VERTEX
  8
0
 10
114.000000
 20
105.365384
 42
-0.000848
  0
VERTEX
  8
0
 10
114.084013
 20
154.905476
 42
-0.020192
  0
VERTEX
  8
0
 10
114.693562
 20
168.822992
 42
-0.084660
  0
VERTEX
  8
0
 10
116.472225
 20
175.700803
 42
-0.151459
  0
VERTEX
  8
0
 10
120.298549
 20
180.040484
 42
-0.047596
  0
VERTEX
  8
0
 10
123.048431
 20
181.377074
 42
-0.077321
  0
VERTEX
  8
0
 10
125.587144
 20
181.899562
 42
-0.073065
  0
VERTEX
  8
0
 10
128.265410
 20
181.638325
 42
-0.038188
  0
VERTEX
  8
0
 10
131.454338
 20
180.583526
 42
-0.083386
  0
VERTEX
  8
0
 10
134.642894
 20
178.574824
 42
-0.091901
  0
VERTEX
  8
0
 10
136.874827
 20
175.692794
 42
-0.063994
  0
VERTEX
  8
0
 10
138.444858
 20
171.362835
 42
-0.021028
  0
VERTEX
  8
0
 10
139.647334
 20
164.678392
 42
0.020215
  0
VERTEX
  8
0
 10
140.783018
 20
158.305842
 42
0.063356
  0
VERTEX
  8
0
 10
142.244612
 20
154.217362
 42
0.079696
  0
VERTEX
  8
0
 10
144.473864
 20
151.153012
 42
0.046340
  0
VERTEX
  8
0
 10
147.989831
 20
148.250000
 42
0.082526
  0
VERTEX
  8
0
 10
151.679595
 20
146.544812
 42
0.067179
  0
VERTEX
  8
0
 10
155.999865
 20
145.962109
 42
0.066816
  0
VERTEX
  8
0
 10
160.343638
 20
146.545574
 42
0.079725
  0
VERTEX
  8
0
 10
164.102117
 20
148.251445
 42
0.049801
  0
VERTEX
  8
0
 10
165.573695
 20
149.452943
 42
0.024706
  0
VERTEX
  8
0
 10
167.195135
 20
151.238826
 42
0.024244
  0
VERTEX
  8
0
 10
168.707779
 20
153.273457
 42
0.032576
  0
VERTEX
  8
0
 10
169.860046
 20
155.259647
 42
0.025106
  0
VERTEX
  8
0
 10
171.205618
 20
158.352514
 42
0.068367
  0
VERTEX
  8
0
 10
171.734010
 20
160.675758
 42
0.044864
  0
VERTEX
  8
0
 10
171.726634
 20
163.559836
 42
0.006292
  0
VERTEX
  8
0
 10
171.102805
 20
169.490044
 42
0.012507
  0
VERTEX
  8
0
 10
170.525384
 20
173.517323
 42
0.010279
  0
VERTEX
  8
0
 10
169.713630
 20
177.784689
 42
0.010418
  0
VERTEX
  8
0
 10
168.805234
 20
181.675354
 42
0.026960
  0
VERTEX
  8
0
 10
167.942655
 20
184.423721
 42
0.059727
  0
VERTEX
  8
0
 10
163.636505
 20
192.749144
 42
0.050721
  0
VERTEX
  8
0
 10
157.271298
 20
200.336899
 42
0.050415
  0
VERTEX
  8
0
 10
149.463695
 20
206.531346
 42
0.057232
  0
VERTEX
  8
0
 10
140.888130
 20
210.733328
 42
0.000000
  0
VERTEX
  8
0
 10
136.000000
 20
212.469438
 42
0.000000
  0
VERTEX
  8
0
 10
136.000000
 20
221.266104
 42
0.008243
  0
VERTEX
  8
0
 10
135.932958
 20
225.332444
 42
0.025487
  0
VERTEX
  8
0
 10
135.702723
 20
228.069076
 42
0.033999
  0
VERTEX
  8
0
 10
135.333602
 20
229.863576
 42
0.250152
  0
VERTEX
  8
0
 10
134.750000
 20
230.476273
 42
0.068517
  0
VERTEX
  8
0
 10
132.630699
 20
230.867730
 42
0.002723
  0
VERTEX
  8
0
 10
124.753872
 20
231.186017
 42
0.002259
  0
VERTEX
  8
0
 10
116.758622
 20
231.429321
 42
0.087241
  0
SEQEND
  0
POLYLINE
  8
0
 66
1
 70
1
  0
VERTEX
  8
0
 10
133.789139
 20
220.912497
 42
0.000000
  0
VERTEX
  8
0
 10
134.078278
 20
213.324994
 42
0.000000
  0
VERTEX
  8
0
 10
125.539139
 20
213.223972
 42
0.000000
  0
VERTEX
  8
0
 10
117.000000
 20
213.122949
 42
0.000000
  0
VERTEX
  8
0
 10
117.000000
 20
221.101917
 42
0.000000
  0
VERTEX
  8
0
 10
117.000000
 20
229.080885
 42
0.000000
  0
VERTEX
  8
0
 10
125.250000
 20
228.790442
 42
0.000000
  0
VERTEX
  8
0
 10
133.500000
 20
228.500000
 42
0.000000
  0
SEQEND
  0
POLYLINE
  8
0
 66
1
 70
1
  0
VERTEX
  8
0
 10
136.269134
 20
209.130866
 42
-0.276105
  0
VERTEX
  8
0
 10
136.432841
 20
208.480551
 42
-0.011498
  0
VERTEX
  8
0
 10
135.660116
 20
206.110510
 42
-0.017084
  0
VERTEX
  8
0
 10
134.539330
 20
203.240734
 42
-0.010984
  0
VERTEX
  8
0
 10
133.054564
 20
199.990117
 42
0.008391
  0
VERTEX
  8
0
 10
131.468251
 20
196.564314
 42
0.008933
  0
VERTEX
  8
0
 10
130.031863
 20
193.157500
 42
0.008591
  0
VERTEX
  8
0
 10
128.900107
 20
190.186469
 42
0.040355
  0
VERTEX
  8
0
 10
128.419909
 20
188.424772
 42
-0.039309
  0
VERTEX
  8
0
 10
127.947575
 20
186.677546
 42
-0.119194
  0
VERTEX
  8
0
 10
127.277502
 20
185.654503
 42
-0.110896
  0
VERTEX
  8
0
 10
126.183285
 20
185.009305
 42
-0.031619
  0
VERTEX
  8
0
 10
124.260091
 20
184.520971
 42
0.024502
  0
VERTEX
  8
0
 10
122.732108
 20
184.156041
 42
0.017972
  0
VERTEX
  8
0
 10
121.077410
 20
183.608841
 42
0.018244
  0
VERTEX
  8
0
 10
119.545156
 20
182.975776
 42
0.037957
  0
VERTEX
  8
0
 10
118.414034
 20
182.351716
 42
-0.050080
  0
VERTEX
  8
0
 10
116.976840
 20
181.603565
 42
-0.226695
  0
VERTEX
  8
0
 10
116.059237
 20
181.664186
 42
-0.114984
  0
VERTEX
  8
0
 10
115.155954
 20
182.490267
 42
-0.009459
  0
VERTEX
  8
0
 10
113.389174
 20
185.174456
 42
-0.015966
  0
VERTEX
  8
0
 10
112.184137
 20
187.225093
 42
-0.008386
  0
VERTEX
  8
0
 10
110.811580
 20
189.844997
 42
-0.008333
  0
VERTEX
  8
0
 10
109.493770
 20
192.579049
 42
-0.012678
  0
VERTEX
  8
0
 10
108.449819
 20
195.000000
 42
-0.005029
  0
VERTEX
  8
0
 10
105.914120
 20
201.504552
 42
-0.085230
  0
VERTEX
  8
0
 10
105.477502
 20
203.755316
 42
-0.221052
  0
VERTEX
  8
0
 10
106.105937
 20
205.187300
 42
-0.059844
  0
VERTEX
  8
0
 10
108.199115
 20
206.627317
 42
-0.039734
  0
VERTEX
  8
0
 10
112.725129
 20
208.560261
 42
-0.034510
  0
VERTEX
  8
0
 10
117.717547
 20
209.862758
 42
-0.033326
  0
VERTEX
  8
0
 10
123.021718
 20
210.500099
 42
-0.031281
  0
VERTEX
  8
0
 10
128.478190
 20
210.447802
 42
-0.009981
  0
VERTEX
  8
0
 10
131.210443
 20
210.195481
 42
-0.013851
  0
VERTEX
  8
0
 10
133.645283
 20
209.852977
 42
-0.010311
  0
VERTEX
  8
0
 10
135.636640
 20
209.473977
 42
-0.145183
  0
SEQEND
  0
POLYLINE
  8
0
 66
1
 70
1
  0
VERTEX
  8
0
 10
145.877702
 20
205.561973
 42
-0.044186
  0
VERTEX
  8
0
 10
149.778630
 20
203.130731
 42
-0.017696
  0
VERTEX
  8
0
 10
154.670826
 20
199.166175
 42
-0.010722
  0
VERTEX
  8
0
 10
159.255494
 20
194.997823
 42
-0.205700
  0
VERTEX
  8
0
 10
160.000000
 20
193.264708
 42
-0.215045
  0
VERTEX
  8
0
 10
159.811573
 20
192.846857
 42
-0.019850
  0
VERTEX
  8
0
 10
158.909737
 20
192.111854
 42
-0.022797
  0
VERTEX
  8
0
 10
157.710324
 20
191.293849
 42
-0.015861
  0
VERTEX
  8
0
 10
156.288468
 20
190.477404
 42
0.033204
  0
VERTEX
  8
0
 10
154.449308
 20
189.334809
 42
0.010417
  0
VERTEX
  8
0
 10
151.853498
 20
187.389492
 42
0.010356
  0
VERTEX
  8
0
 10
149.038787
 20
185.091541
 42
0.011284
  0
VERTEX
  8
0
 10
146.402635
 20
182.742142
 42
0.000000
  0
VERTEX
  8
0
 10
140.228335
 20
176.984284
 42
0.000000
  0
VERTEX
  8
0
 10
137.063251
 20
179.940914
 42
0.017997
  0
VERTEX
  8
0
 10
135.708427
 20
181.118131
 42
0.017318
  0
VERTEX
  8
0
 10
134.255368
 20
182.210753
 42
0.017539
  0
VERTEX
  8
0
 10
132.909255
 20
183.083167
 42
0.058223
  0
VERTEX
  8
0
 10
131.949084
 20
183.516160
 42
-0.082111
  0
VERTEX
  8
0
 10
130.605957
 20
184.200428
 42
-0.238303
  0
VERTEX
  8
0
 10
130.149314
 20
185.104143
 42
-0.078233
  0
VERTEX
  8
0
 10
130.402852
 20
186.714582
 42
-0.004766
  0
VERTEX
  8
0
 10
131.949119
 20
191.352111
 42
-0.028396
  0
VERTEX
  8
0
 10
133.707839
 20
195.653370
 42
-0.010544
  0
VERTEX
  8
0
 10
136.646319
 20
201.495827
 42
-0.003620
  0
VERTEX
  8
0
 10
139.863590
 20
207.465140
 42
-0.273860
  0
VERTEX
  8
0
 10
140.766875
 20
208.000000
 42
-0.110565
  0
VERTEX
  8
0
 10
140.983950
 20
207.951404
 42
-0.001159
  0
VERTEX
  8
0
 10
142.391771
 20
207.283830
 42
-0.003634
  0
VERTEX
  8
0
 10
144.012000
 20
206.496422
 42
-0.002346
  0
SEQEND
  0
POLYLINE
  8
0
 66
1
 70
1
  0
VERTEX
  8
0
 10
104.959502
 20
196.750000
 42
0.015149
  0
VERTEX
  8
0
 10
106.063016
 20
193.927163
 42
0.008692
  0
VERTEX
  8
0
 10
107.554605
 20
190.590097
 42
0.008678
  0
VERTEX
  8
0
 10
109.171773
 20
187.285232
 42
0.014290
  0
VERTEX
  8
0
 10
110.665940
 20
184.556712
 42
-0.010564
  0
VERTEX
  8
0
 10
112.505198
 20
181.256609
 42
-0.051303
  0
VERTEX
  8
0
 10
113.308565
 20
179.273006
 42
-0.091049
  0
VERTEX
  8
0
 10
113.461678
 20
177.757656
 42
-0.086874
  0
VERTEX
  8
0
 10
113.072447
 20
176.259659
 42
0.045126
  0
VERTEX
  8
0
 10
112.660189
 20
175.084269
 42
0.019289
  0
VERTEX
  8
0
 10
112.315031
 20
173.453470
 42
0.018900
  0
VERTEX
  8
0
 10
112.078576
 20
171.675332
 42
0.023607
  0
VERTEX
  8
0
 10
112.000000
 20
170.011964
 42
-0.019992
  0
VERTEX
  8
0
 10
111.938837
 20
168.482928
 42
-0.026902
  0
VERTEX
  8
0
 10
111.754093
 20
167.109897
 42
-0.026175
  0
VERTEX
  8
0
 10
111.488794
 20
166.025218
 42
-0.183263
  0
VERTEX
  8
0
 10
111.162870
 20
165.600659
 42
-0.291271
  0
VERTEX
  8
0
 10
108.344797
 20
165.638098
 42
-0.008858
  0
VERTEX
  8
0
 10
98.243580
 20
172.517004
 42
-0.009712
  0
VERTEX
  8
0
 10
88.463101
 20
179.723206
 42
-0.233188
  0
VERTEX
  8
0
 10
87.000000
 20
182.689780
 42
-0.137977
  0
VERTEX
  8
0
 10
88.204658
 20
186.972096
 42
-0.020642
  0
VERTEX
  8
0
 10
93.226962
 20
194.477522
 42
-0.017501
  0
VERTEX
  8
0
 10
98.822081
 20
201.598126
 42
-0.220943
  0
VERTEX
  8
0
 10
101.839694
 20
203.000000
 42
-0.270202
  0
VERTEX
  8
0
 10
102.285381
 20
202.740180
 42
-0.013054
  0
VERTEX
  8
0
 10
103.124222
 20
201.164062
 42
-0.018301
  0
VERTEX
  8
0
 10
104.041255
 20
199.145293
 42
-0.011857
  0
SEQEND
  0
POLYLINE
  8
0
 66
1
 70
1
  0
VERTEX
  8
0
 10
164.839081
 20
185.152430
 42
-0.033731
  0
VERTEX
  8
0
 10
166.579379
 20
180.214167
 42
-0.026608
  0
VERTEX
  8
0
 10
167.806477
 20
174.679523
 42
-0.019156
  0
VERTEX
  8
0
 10
168.438409
 20
169.717533
 42
-0.356108
  0
VERTEX
  8
0
 10
167.611848
 20
168.498521
 42
-0.037950
  0
VERTEX
  8
0
 10
166.903234
 20
168.343872
 42
-0.003939
  0
VERTEX
  8
0
 10
165.210980
 20
168.120687
 42
-0.004878
  0
VERTEX
  8
0
 10
163.187466
 20
167.890034
 42
-0.003884
  0
VERTEX
  8
0
 10
161.000000
 20
167.679448
 42
0.021601
  0
VERTEX
  8
0
 10
158.438114
 20
167.340861
 42
0.010934
  0
VERTEX
  8
0
 10
155.245401
 20
166.705407
 42
0.010840
  0
VERTEX
  8
0
 10
151.972016
 20
165.904315
 42
0.015872
  0
VERTEX
  8
0
 10
149.133280
 20
165.046581
 42
-0.005075
  0
VERTEX
  8
0
 10
146.674466
 20
164.245314
 42
-0.008185
  0
VERTEX
  8
0
 10
144.563281
 20
163.618743
 42
-0.002848
  0
VERTEX
  8
0
 10
142.753439
 20
163.124783
 42
-0.291964
  0
VERTEX
  8
0
 10
142.516335
 20
163.200053
 42
-0.134843
  0
VERTEX
  8
0
 10
142.401695
 20
163.451878
 42
-0.002694
  0
VERTEX
  8
0
 10
142.184590
 20
164.852862
 42
-0.006198
  0
VERTEX
  8
0
 10
141.958734
 20
166.503813
 42
-0.004098
  0
VERTEX
  8
0
 10
141.738372
 20
168.405434
 42
-0.025025
  0
VERTEX
  8
0
 10
141.562359
 20
171.482963
 42
-0.100786
  0
VERTEX
  8
0
 10
141.923072
 20
173.320855
 42
-0.077829
  0
VERTEX
  8
0
 10
143.017011
 20
175.104959
 42
-0.011349
  0
VERTEX
  8
0
 10
145.855318
 20
178.288813
 42
-0.026809
  0
VERTEX
  8
0
 10
149.833777
 20
182.118997
 42
-0.018423
  0
VERTEX
  8
0
 10
154.719979
 20
186.037772
 42
-0.013494
  0
VERTEX
  8
0
 10
159.424009
 20
189.340483
 42
-0.147340
  0
VERTEX
  8
0
 10
161.613508
 20
190.000000
 42
-0.224405
  0
VERTEX
  8
0
 10
162.172347
 20
189.735888
 42
-0.025176
  0
VERTEX
  8
0
 10
163.031354
 20
188.576026
 42
-0.026677
  0
VERTEX
  8
0
 10
163.957236
 20
187.009419
 42
-0.018548
  0
SEQEND
  0
POLYLINE
  8
0
 66
1
 70
1
  0
VERTEX
  8
0
 10
92.001474
 20
173.688583
 42
0.025411
  0
VERTEX
  8
0
 10
94.377091
 20
171.761620
 42
0.012000
  0
VERTEX
  8
0
 10
97.621147
 20
169.510248
 42
0.011858
  0
VERTEX
  8
0
 10
101.137259
 20
167.310852
 42
0.016394
  0
VERTEX
  8
0
 10
104.398404
 20
165.518794
 42
0.000000
  0
VERTEX
  8
0
 10
112.000000
 20
161.660422
 42
0.000000
  0
VERTEX
  8
0
 10
112.000000
 20
152.330211
 42
-0.005404
  0
VERTEX
  8
0
 10
111.945066
 20
147.247598
 42
-0.036277
  0
VERTEX
  8
0
 10
111.707945
 20
144.736159
 42
-0.093948
  0
VERTEX
  8
0
 10
111.234327
 20
143.454635
 42
-0.263198
  0
VERTEX
  8
0
 10
110.430482
 20
143.000000
 42
-0.097152
  0
VERTEX
  8
0
 10
107.349034
 20
143.604441
 42
-0.011115
  0
VERTEX
  8
0
 10
100.825354
 20
146.436893
 42
-0.014347
  0
VERTEX
  8
0
 10
94.265238
 20
149.691526
 42
-0.036074
  0
VERTEX
  8
0
 10
89.750000
 20
152.530854
 42
0.000000
  0
VERTEX
  8
0
 10
85.000000
 20
156.019432
 42
0.000000
  0
VERTEX
  8
0
 10
85.000000
 20
166.343049
 42
-0.005928
  0
VERTEX
  8
0
 10
85.071480
 20
172.371589
 42
-0.031749
  0
VERTEX
  8
0
 10
85.357585
 20
175.644650
 42
-0.068381
  0
VERTEX
  8
0
 10
85.884396
 20
177.428124
 42
-0.294885
  0
VERTEX
  8
0
 10
86.769737
 20
178.000000
 42
-0.171454
  0
VERTEX
  8
0
 10
87.059382
 20
177.897670
 42
-0.002511
  0
VERTEX
  8
0
 10
88.486576
 20
176.733521
 42
-0.006536
  0
VERTEX
  8
0
 10
90.131997
 20
175.341037
 42
-0.004227
  0
SEQEND
  0
POLYLINE
  8
0
 66
1
 70
1
  0
VERTEX
  8
0
 10
168.428224
 20
160.598278
 42
-0.024686
  0
VERTEX
  8
0
 10
168.247849
 20
157.786345
 42
-0.078195
  0
VERTEX
  8
0
 10
167.747159
 20
155.973651
 42
-0.077275
  0
VERTEX
  8
0
 10
166.710469
 20
154.390670
 42
-0.023735
  0
VERTEX
  8
0
 10
164.692909
 20
152.357383
 42
-0.025021
  0
VERTEX
  8
0
 10
162.511461
 20
150.550385
 42
-0.069393
  0
VERTEX
  8
0
 10
160.770384
 20
149.591995
 42
-0.067973
  0
VERTEX
  8
0
 10
158.812751
 20
149.135910
 42
-0.023294
  0
VERTEX
  8
0
 10
155.897038
 20
149.000000
 42
-0.023292
  0
VERTEX
  8
0
 10
152.876698
 20
149.140779
 42
-0.078538
  0
VERTEX
  8
0
 10
150.966972
 20
149.628225
 42
-0.074890
  0
VERTEX
  8
0
 10
149.252694
 20
150.693853
 42
-0.019936
  0
VERTEX
  8
0
 10
146.882353
 20
152.882353
 42
-0.017764
  0
VERTEX
  8
0
 10
145.395834
 20
154.478423
 42
-0.022276
  0
VERTEX
  8
0
 10
144.140441
 20
156.063633
 42
-0.021202
  0
VERTEX
  8
0
 10
143.223083
 20
157.455103
 42
-0.135945
  0
VERTEX
  8
0
 10
143.000000
 20
158.260428
 42
-0.308537
  0
VERTEX
  8
0
 10
144.408422
 20
160.325571
 42
-0.018252
  0
VERTEX
  8
0
 10
151.934785
 20
162.964353
 42
-0.026352
  0
VERTEX
  8
0
 10
160.077788
 20
165.026446
 42
-0.057194
  0
VERTEX
  8
0
 10
166.500000
 20
165.548209
 42
-0.107706
  0
VERTEX
  8
0
 10
167.541416
 20
165.284751
 42
-0.186356
  0
VERTEX
  8
0
 10
168.135430
 20
164.634127
 42
-0.084685
  0
VERTEX
  8
0
 10
168.402471
 20
163.333445
 42
-0.012056
  0
SEQEND
  0
POLYLINE
  8
0
 66
1
 70
1
  0
VERTEX
  8
0
 10
91.162716
 20
148.472281
 42
0.020122
  0
VERTEX
  8
0
 10
93.721334
 20
146.925320
 42
0.010272
  0
VERTEX
  8
0
 10
97.047001
 20
145.181159
 42
0.010189
  0
VERTEX
  8
0
 10
100.553562
 20
143.521340
 42
0.015054
  0
VERTEX
  8
0
 10
103.699414
 20
142.222281
 42
-0.026491
  0
VERTEX
  8
0
 10
108.812087
 20
139.972879
 42
-0.170981
  0
VERTEX
  8
0
 10
110.734529
 20
137.969006
 42
-0.109427
  0
VERTEX
  8
0
 10
111.408781
 20
134.774130
 42
-0.008016
  0
VERTEX
  8
0
 10
111.173853
 20
125.750000
 42
-0.008243
  0
VERTEX
  8
0
 10
110.946938
 20
121.878427
 42
-0.037454
  0
VERTEX
  8
0
 10
110.609835
 20
119.646475
 42
-0.076596
  0
VERTEX
  8
0
 10
110.119760
 20
118.411133
 42
-0.266084
  0
VERTEX
  8
0
 10
109.401896
 20
118.000000
 42
-0.102171
  0
VERTEX
  8
0
 10
106.856959
 20
118.525525
 42
-0.008529
  0
VERTEX
  8
0
 10
100.689553
 20
121.311808
 42
-0.012390
  0
VERTEX
  8
0
 10
94.416973
 20
124.467865
 42
-0.026102
  0
VERTEX
  8
0
 10
89.751933
 20
127.284145
 42
0.000000
  0
VERTEX
  8
0
 10
85.003866
 20
130.500000
 42
0.000000
  0
VERTEX
  8
0
 10
85.001933
 20
141.250000
 42
-0.003598
  0
VERTEX
  8
0
 10
85.030854
 20
145.372040
 42
-0.005995
  0
VERTEX
  8
0
 10
85.121803
 20
148.842187
 42
-0.001441
  0
VERTEX
  8
0
 10
85.244991
 20
151.839490
 42
-0.401396
  0
VERTEX
  8
0
 10
85.412716
 20
152.000000
 42
-0.136546
  0
VERTEX
  8
0
 10
85.700227
 20
151.919991
 42
-0.001868
  0
VERTEX
  8
0
 10
87.272024
 20
150.963733
 42
-0.005113
  0
VERTEX
  8
0
 10
89.087272
 20
149.824335
 42
-0.003322
  0
SEQEND
  0
POLYLINE
  8
0
 66
1
 70
1
  0
VERTEX
  8
0
 10
97.000000
 20
120.073672
 42
0.011169
  0
VERTEX
  8
0
 10
99.416559
 20
118.890621
 42
0.008314
  0
VERTEX
  8
0
 10
102.132812
 20
117.689665
 42
0.008413
  0
VERTEX
  8
0
 10
104.733406
 20
116.642370
 42
0.018814
  0
VERTEX
  8
0
 10
106.750000
 20
115.955250
 42
0.000000
  0
VERTEX
  8
0
 10
111.000000
 20
114.683425
 42
0.000000
  0
VERTEX
  8
0
 10
111.000000
 20
103.841712
 42
-0.003937
  0
VERTEX
  8
0
 10
110.950303
 20
97.529559
 42
-0.036090
  0
VERTEX
  8
0
 10
110.709665
 20
94.798834
 42
-0.112064
  0
VERTEX
  8
0
 10
110.181107
 20
93.487848
 42
-0.245992
  0
VERTEX
  8
0
 10
109.250000
 20
93.000789
 42
-0.101323
  0
VERTEX
  8
0
 10
106.628015
 20
93.538866
 42
-0.010141
  0
VERTEX
  8
0
 10
100.769019
 20
96.188041
 42
-0.013792
  0
VERTEX
  8
0
 10
94.660850
 20
99.310079
 42
-0.023323
  0
VERTEX
  8
0
 10
89.751933
 20
102.297705
 42
0.000000
  0
VERTEX
  8
0
 10
85.003866
 20
105.500000
 42
0.000000
  0
VERTEX
  8
0
 10
85.001933
 20
116.348201
 42
0.000000
  0
VERTEX
  8
0
 10
85.000000
 20
127.196403
 42
0.000000
  0
VERTEX
  8
0
 10
88.250000
 20
125.058336
 42
0.011490
  0
VERTEX
  8
0
 10
89.876927
 20
124.040811
 42
0.004526
  0
VERTEX
  8
0
 10
92.160937
 20
122.712138
 42
0.004477
  0
VERTEX
  8
0
 10
94.656156
 20
121.320114
 42
0.005580
  0
SEQEND
  0
POLYLINE
  8
0
 66
1
 70
1
  0
VERTEX
  8
0
 10
98.615701
 20
94.460504
 42
0.006554
  0
VERTEX
  8
0
 10
102.226445
 20
92.751982
 42
0.008886
  0
VERTEX
  8
0
 10
105.533740
 20
91.310273
 42
0.006356
  0
VERTEX
  8
0
 10
108.324291
 20
90.193751
 42
0.092232
  0
VERTEX
  8
0
 10
109.365701
 20
90.000000
 42
-0.277214
  0
VERTEX
  8
0
 10
110.228390
 20
89.481886
 42
-0.087204
  0
VERTEX
  8
0
 10
110.714472
 20
87.990836
 42
-0.031387
  0
VERTEX
  8
0
 10
110.949059
 20
85.005329
 42
-0.003915
  0
VERTEX
  8
0
 10
111.000000
 20
78.500000
 42
-0.002669
  0
VERTEX
  8
0
 10
110.976457
 20
74.090348
 42
-0.004450
  0
VERTEX
  8
0
 10
110.903770
 20
70.378125
 42
-0.000796
  0
VERTEX
  8
0
 10
110.806049
 20
67.129475
 42
-0.404969
  0
VERTEX
  8
0
 10
110.672408
 20
67.000000
 42
-0.105586
  0
VERTEX
  8
0
 10
108.555503
 20
67.452071
 42
-0.005378
  0
VERTEX
  8
0
 10
102.132957
 20
70.409568
 42
-0.009416
  0
VERTEX
  8
0
 10
95.755519
 20
73.578214
 42
-0.023382
  0
VERTEX
  8
0
 10
91.250000
 20
76.198216
 42
0.000000
  0
VERTEX
  8
0
 10
85.000000
 20
80.234917
 42
0.000000
  0
VERTEX
  8
0
 10
85.000000
 20
91.239430
 42
0.000000
  0
VERTEX
  8
0
 10
85.000000
 20
102.243944
 42
0.000000
  0
VERTEX
  8
0
 10
87.250000
 20
100.582476
 42
0.030812
  0
VERTEX
  8
0
 10
88.634124
 20
99.686582
 42
0.004692
  0
VERTEX
  8
0
 10
91.516800
 20
98.098792
 42
0.005237
  0
VERTEX
  8
0
 10
94.960679
 20
96.290073
 42
0.004515
  0
SEQEND
  0
POLYLINE
  8
0
 66
1
 70
1
  0
VERTEX
  8
0
 10
100.920080
 20
67.861996
 42
0.008480
  0
VERTEX
  8
0
 10
103.567668
 20
66.784876
 42
0.010347
  0
VERTEX
  8
0
 10
106.081211
 20
65.870979
 42
0.009003
  0
VERTEX
  8
0
 10
108.214711
 20
65.187488
 42
0.069252
  0
VERTEX
  8
0
 10
109.250000
 20
65.027055
 42
-0.252615
  0
VERTEX
  8
0
 10
110.186572
 20
64.502764
 42
-0.104321
  0
VERTEX
  8
0
 10
110.711593
 20
63.098110
 42
-0.033832
  0
VERTEX
  8
0
 10
110.950894
 20
60.192278
 42
-0.003632
  0
VERTEX
  8
0
 10
111.000000
 20
53.432612
 42
-0.002363
  0
VERTEX
  8
0
 10
110.963534
 20
45.717620
 42
-0.048684
  0
VERTEX
  8
0
 10
110.716359
 20
43.410858
 42
-0.257278
  0
VERTEX
  8
0
 10
110.020220
 20
42.597123
 42
-0.166116
  0
VERTEX
  8
0
 10
108.750000
 20
42.558664
 42
-0.028054
  0
VERTEX
  8
0
 10
104.571941
 20
44.107739
 42
-0.011081
  0
VERTEX
  8
0
 10
99.006852
 20
46.682307
 42
-0.011148
  0
VERTEX
  8
0
 10
93.520671
 20
49.522877
 42
-0.025652
  0
VERTEX
  8
0
 10
89.562552
 20
51.956963
 42
0.000000
  0
VERTEX
  8
0
 10
85.000000
 20
55.096081
 42
0.000000
  0
VERTEX
  8
0
 10
85.000000
 20
66.096081
 42
0.000000
  0
VERTEX
  8
0
 10
85.000000
 20
77.096081
 42
0.000000
  0
VERTEX
  8
0
 10
89.670080
 20
73.882982
 42
0.018674
  0
VERTEX
  8
0
 10
91.927055
 20
72.451266
 42
0.009136
  0
VERTEX
  8
0
 10
94.901176
 20
70.788913
 42
0.009050
  0
VERTEX
  8
0
 10
98.059755
 20
69.171291
 42
0.012968
  0
SEQEND
  0
POLYLINE
  8
0
 66
1
 70
1
  0
VERTEX
  8
0
 10
91.602042
 20
47.565035
 42
0.014864
  0
VERTEX
  8
0
 10
94.226999
 20
46.088284
 42
0.008951
  0
VERTEX
  8
0
 10
97.420474
 20
44.486848
 42
0.008961
  0
VERTEX
  8
0
 10
100.654691
 20
43.007478
 42
0.015470
  0
VERTEX
  8
0
 10
103.402122
 20
41.909668
 42
-0.005696
  0
VERTEX
  8
0
 10
105.798583
 20
41.005999
 42
-0.007581
  0
VERTEX
  8
0
 10
107.954058
 20
40.127150
 42
-0.005571
  0
VERTEX
  8
0
 10
109.732917
 20
39.346687
 42
-0.073525
  0
VERTEX
  8
0
 10
110.335098
 20
38.959535
 42
-0.311791
  0
VERTEX
  8
0
 10
110.691241
 20
37.553948
 42
-0.051161
  0
VERTEX
  8
0
 10
109.380683
 20
34.899124
 42
-0.049729
  0
VERTEX
  8
0
 10
107.301763
 20
32.221369
 42
-0.083697
  0
VERTEX
  8
0
 10
105.032733
 20
30.516927
 42
-0.048118
  0
VERTEX
  8
0
 10
103.578426
 20
29.934221
 42
-0.021988
  0
VERTEX
  8
0
 10
101.589989
 20
29.445597
 42
-0.021535
  0
VERTEX
  8
0
 10
99.433918
 20
29.111080
 42
-0.027722
  0
VERTEX
  8
0
 10
97.432013
 20
29.000000
 42
-0.028814
  0
VERTEX
  8
0
 10
94.738942
 20
29.155323
 42
-0.077915
  0
VERTEX
  8
0
 10
92.899343
 20
29.665909
 42
-0.069911
  0
VERTEX
  8
0
 10
91.192275
 20
30.750114
 42
-0.019992
  0
VERTEX
  8
0
 10
88.882353
 20
32.882353
 42
-0.020811
  0
VERTEX
  8
0
 10
86.537500
 20
35.430969
 42
-0.090968
  0
VERTEX
  8
0
 10
85.522727
 20
37.200312
 42
-0.073967
  0
VERTEX
  8
0
 10
85.098876
 20
39.385012
 42
-0.010991
  0
VERTEX
  8
0
 10
85.000000
 20
43.882353
 42
-0.005926
  0
VERTEX
  8
0
 10
85.032347
 20
46.611519
 42
-0.009856
  0
VERTEX
  8
0
 10
85.132164
 20
48.909191
 42
-0.003851
  0
VERTEX
  8
0
 10
85.268611
 20
50.832398
 42
-0.391395
  0
VERTEX
  8
0
 10
85.449920
 20
51.000000
 42
-0.126077
  0
VERTEX
  8
0
 10
85.765434
 20
50.919157
 42
-0.001891
  0
VERTEX
  8
0
 10
87.442698
 20
49.990979
 42
-0.004983
  0
VERTEX
  8
0
 10
89.384101
 20
48.881499
 42
-0.003256
  0
SEQEND
  0
ENDSEC
  0
EOF
