999
dxfrw 0.6.3
  0
SECTION
  2
HEADER
  9
$ACADVER
  1
AC1021
  9
$DWGCODEPAGE
  3
ANSI_1252
  9
$INSBASE
 10
0
 20
0
 30
0
  9
$EXTMIN
 10
0.7857387925502541
 20
-0.002789
 30
0
  9
$EXTMAX
 10
282.2309228219733
 20
301.002666
 30
0
  9
$LIMMIN
 10
0
 20
0
  9
$LIMMAX
 10
420
 20
297
  9
$ORTHOMODE
 70
    0
  9
$REGENMODE
 70
    1
  9
$FILLMODE
 70
    1
  9
$QTEXTMODE
 70
    0
  9
$MIRRTEXT
 70
    0
  9
$LTSCALE
 40
1
  9
$ATTMODE
 70
    0
  9
$TEXTSIZE
 40
2.5
  9
$TRACEWID
 40
15.68
  9
$TEXTSTYLE
  7
STANDARD
  9
$CLAYER
  8
0
  9
$CELTYPE
  6
BYLAYER
  9
$CECOLOR
 62
  256
  9
$CELTSCALE
 40
1
  9
$DISPSILH
 70
    0
  9
$DIMSCALE
 40
2.5
  9
$DIMASZ
 40
2.5
  9
$DIMEXO
 40
0.625
  9
$DIMDLI
 40
3.75
  9
$DIMRND
 40
0
  9
$DIMDLE
 40
0
  9
$DIMEXE
 40
1.25
  9
$DIMTP
 40
0
  9
$DIMTM
 40
0
  9
$DIMTXT
 40
2.5
  9
$DIMCEN
 40
2.5
  9
$DIMTSZ
 40
0
  9
$DIMTOL
 70
    0
  9
$DIMLIM
 70
    0
  9
$DIMTIH
 70
    0
  9
$DIMTOH
 70
    0
  9
$DIMSE1
 70
    0
  9
$DIMSE2
 70
    0
  9
$DIMTAD
 70
    1
  9
$DIMZIN
 70
    8
  9
$DIMBLK
  1

  9
$DIMASO
 70
    1
  9
$DIMSHO
 70
    1
  9
$DIMPOST
  1

  9
$DIMAPOST
  1

  9
$DIMALT
 70
    0
  9
$DIMALTD
 70
    3
  9
$DIMALTF
 40
0.03937
  9
$DIMLFAC
 40
1
  9
$DIMTOFL
 70
    1
  9
$DIMTVP
 40
0
  9
$DIMTIX
 70
    0
  9
$DIMSOXD
 70
    0
  9
$DIMSAH
 70
    0
  9
$DIMBLK1
  1

  9
$DIMBLK2
  1

  9
$DIMSTYLE
  2
Standard
  9
$DIMCLRD
 70
    0
  9
$DIMCLRE
 70
    0
  9
$DIMCLRT
 70
    0
  9
$DIMTFAC
 40
1
  9
$DIMGAP
 40
0.625
  9
$DIMJUST
 70
    0
  9
$DIMSD1
 70
    0
  9
$DIMSD2
 70
    0
  9
$DIMTOLJ
 70
    0
  9
$DIMTZIN
 70
    8
  9
$DIMALTZ
 70
    0
  9
$DIMALTTZ
 70
    0
  9
$DIMUPT
 70
    0
  9
$DIMDEC
 70
    2
  9
$DIMTDEC
 70
    2
  9
$DIMALTU
 70
    2
  9
$DIMALTTD
 70
    3
  9
$DIMTXSTY
  7
STANDARD
  9
$DIMAUNIT
 70
    0
  9
$DIMADEC
 70
    0
  9
$DIMALTRND
 40
0
  9
$DIMAZIN
 70
    0
  9
$DIMDSEP
 70
   44
  9
$DIMATFIT
 70
    3
  9
$DIMFRAC
 70
    0
  9
$DIMLDRBLK
  1
STANDARD
  9
$DIMLUNIT
 70
    2
  9
$DIMLWD
 70
   -2
  9
$DIMLWE
 70
   -2
  9
$DIMTMOVE
 70
    0
  9
$DIMFXL
 40
1
  9
$DIMFXLON
 70
    0
  9
$DIMJOGANG
 40
0.7854
  9
$DIMTFILL
 70
    0
  9
$DIMTFILLCLR
 70
    0
  9
$DIMARCSYM
 70
    0
  9
$DIMLTYPE
  6

  9
$DIMLTEX1
  6

  9
$DIMLTEX2
  6

  9
$LUNITS
 70
    2
  9
$LUPREC
 70
    4
  9
$SKETCHINC
 40
1
  9
$FILLETRAD
 40
0
  9
$AUNITS
 70
    0
  9
$AUPREC
 70
    2
  9
$MENU
  1
.
  9
$ELEVATION
 40
0
  9
$PELEVATION
 40
0
  9
$THICKNESS
 40
0
  9
$LIMCHECK
 70
    0
  9
$CHAMFERA
 40
0
  9
$CHAMFERB
 40
0
  9
$CHAMFERC
 40
0
  9
$CHAMFERD
 40
0
  9
$SKPOLY
 70
    0
  9
$USRTIMER
 70
    1
  9
$ANGBASE
 50
0
  9
$ANGDIR
 70
    0
  9
$PDMODE
 70
   34
  9
$PDSIZE
 40
0
  9
$PLINEWID
 40
0
  9
$SPLFRAME
 70
    0
  9
$SPLINETYPE
 70
    2
  9
$SPLINESEGS
 70
    8
  9
$HANDSEED
  5
20000
  9
$SURFTAB1
 70
    6
  9
$SURFTAB2
 70
    6
  9
$SURFTYPE
 70
    6
  9
$SURFU
 70
    6
  9
$SURFV
 70
    6
  9
$UCSBASE
  2

  9
$UCSNAME
  2

  9
$UCSORG
 10
0
 20
0
 30
0
  9
$UCSXDIR
 10
1
 20
0
 30
0
  9
$UCSYDIR
 10
0
 20
1
 30
0
  9
$UCSORTHOREF
  2

  9
$UCSORTHOVIEW
 70
    0
  9
$UCSORGTOP
 10
0
 20
0
 30
0
  9
$UCSORGBOTTOM
 10
0
 20
0
 30
0
  9
$UCSORGLEFT
 10
0
 20
0
 30
0
  9
$UCSORGRIGHT
 10
0
 20
0
 30
0
  9
$UCSORGFRONT
 10
0
 20
0
 30
0
  9
$UCSORGBACK
 10
0
 20
0
 30
0
  9
$PUCSBASE
  2

  9
$PUCSNAME
  2

  9
$PUCSORG
 10
0
 20
0
 30
0
  9
$PUCSXDIR
 10
1
 20
0
 30
0
  9
$PUCSYDIR
 10
0
 20
1
 30
0
  9
$PUCSORTHOREF
  2

  9
$PUCSORTHOVIEW
 70
    0
  9
$PUCSORGTOP
 10
0
 20
0
 30
0
  9
$PUCSORGBOTTOM
 10
0
 20
0
 30
0
  9
$PUCSORGLEFT
 10
0
 20
0
 30
0
  9
$PUCSORGRIGHT
 10
0
 20
0
 30
0
  9
$PUCSORGFRONT
 10
0
 20
0
 30
0
  9
$PUCSORGBACK
 10
0
 20
0
 30
0
  9
$USERI1
 70
    0
  9
$USERI2
 70
    0
  9
$USERI3
 70
    0
  9
$USERI4
 70
    0
  9
$USERI5
 70
    0
  9
$USERR1
 40
0
  9
$USERR2
 40
0
  9
$USERR3
 40
0
  9
$USERR4
 40
0
  9
$USERR5
 40
0
  9
$WORLDVIEW
 70
    1
  9
$SHADEDGE
 70
    3
  9
$SHADEDIF
 70
   70
  9
$TILEMODE
 70
    1
  9
$MAXACTVP
 70
   64
  9
$PINSBASE
 10
0
 20
0
 30
0
  9
$PLIMCHECK
 70
    0
  9
$PEXTMIN
 10
0
 20
0
 30
0
  9
$PEXTMAX
 10
0
 20
0
 30
0
  9
$GRIDMODE
 70
    0
  9
$SNAPSTYLE
 70
    0
  9
$PLIMMIN
 10
0
 20
0
  9
$PLIMMAX
 10
210
 20
297
  9
$UNITMODE
 70
    0
  9
$VISRETAIN
 70
    1
  9
$PLINEGEN
 70
    0
  9
$PSLTSCALE
 70
    1
  9
$TREEDEPTH
 70
 3020
  9
$CMLSTYLE
  2
Standard
  9
$CMLJUST
 70
    0
  9
$CMLSCALE
 40
20
  9
$PROXYGRAPHICS
 70
    1
  9
$MEASUREMENT
 70
    1
  9
$CELWEIGHT
370
   -1
  9
$ENDCAPS
280
    0
  9
$JOINSTYLE
280
    0
  9
$LWDISPLAY
290
    0
  9
$INSUNITS
 70
    4
  9
$HYPERLINKBASE
  1

  9
$STYLESHEET
  1

  9
$XEDIT
290
    1
  9
$CEPSNTYPE
380
    0
  9
$PSTYLEMODE
290
    1
  9
$EXTNAMES
290
    1
  9
$PSVPSCALE
 40
1
  9
$OLESTARTUP
290
    0
  9
$SORTENTS
280
  127
  9
$INDEXCTL
280
    0
  9
$HIDETEXT
280
    1
  9
$XCLIPFRAME
290
    0
  9
$HALOGAP
280
    0
  9
$OBSCOLOR
 70
  257
  9
$OBSLTYPE
280
    0
  9
$INTERSECTIONDISPLAY
280
    0
  9
$INTERSECTIONCOLOR
 70
  257
  9
$DIMASSOC
280
    1
  9
$PROJECTNAME
  1

  9
$CAMERADISPLAY
290
    0
  9
$LENSLENGTH
 40
50
  9
$CAMERAHEIGHT
 40
0
  9
$STEPSPERSEC
 40
2
  9
$STEPSIZE
 40
50
  9
$3DDWFPREC
 40
2
  9
$PSOLWIDTH
 40
5
  9
$PSOLHEIGHT
 40
80
  9
$LOFTANG1
 40
1.570796326794897
  9
$LOFTANG2
 40
1.570796326794897
  9
$LOFTMAG1
 40
0
  9
$LOFTMAG2
 40
0
  9
$LOFTPARAM
 70
    7
  9
$LOFTNORMALS
280
    1
  9
$LATITUDE
 40
1
  9
$LONGITUDE
 40
1
  9
$NORTHDIRECTION
 40
0
  9
$TIMEZONE
 70
-8000
  9
$LIGHTGLYPHDISPLAY
280
    1
  9
$TILEMODELIGHTSYNCH
280
    1
  9
$SOLIDHIST
280
    1
  9
$SHOWHIST
280
    1
  9
$DWFFRAME
280
    2
  9
$DGNFRAME
280
    0
  9
$REALWORLDSCALE
290
    1
  9
$INTERFERECOLOR
 62
    1
  9
$CSHADOW
280
    0
  9
$SHADOWPLANELOCATION
 40
0
  0
ENDSEC
  0
SECTION
  2
CLASSES
  0
ENDSEC
  0
SECTION
  2
TABLES
  0
TABLE
  2
VPORT
  5
8
330
0
100
AcDbSymbolTable
 70
    1
  0
VPORT
  5
31
330
2
100
AcDbSymbolTableRecord
100
AcDbViewportTableRecord
  2
*ACTIVE
 70
    0
 10
0
 20
0
 11
1
 21
1
 12
115.8273974033513
 22
167.8398001334276
 13
0
 23
0
 14
10
 24
10
 15
10
 25
10
 16
0
 26
0
 36
1
 17
0
 27
0
 37
0
 40
91.06509665977769
 41
1.98856416772554
 42
50
 43
0
 44
0
 50
0
 51
0
 71
    0
 72
  100
 73
    1
 74
    3
 75
    0
 76
    0
 77
    0
 78
    0
281
    0
 65
    1
110
0
120
0
130
0
111
1
121
0
131
0
112
0
122
1
132
0
 79
    0
146
0
348
10020
 60
    7
 61
    5
292
1
282
    1
141
0
142
0
 63
  250
421
3358443
  0
ENDTAB
  0
TABLE
  2
LTYPE
  5
5
330
0
100
AcDbSymbolTable
 70
    4
  0
LTYPE
  5
14
330
5
100
AcDbSymbolTableRecord
100
AcDbLinetypeTableRecord
  2
ByBlock
 70
    0
  3

 72
   65
 73
    0
 40
0
  0
LTYPE
  5
15
330
5
100
AcDbSymbolTableRecord
100
AcDbLinetypeTableRecord
  2
ByLayer
 70
    0
  3

 72
   65
 73
    0
 40
0
  0
LTYPE
  5
16
330
5
100
AcDbSymbolTableRecord
100
AcDbLinetypeTableRecord
  2
Continuous
 70
    0
  3
Solid line
 72
   65
 73
    0
 40
0
  0
LTYPE
  5
32
330
5
100
AcDbSymbolTableRecord
100
AcDbLinetypeTableRecord
  2
DOT
 70
    0
  3
Dot . . . . . . . . . . . . . . . . . . . . . .
 72
   65
 73
    2
 40
6.35
 49
0
 74
    0
 49
-6.35
 74
    0
  0
LTYPE
  5
33
330
5
100
AcDbSymbolTableRecord
100
AcDbLinetypeTableRecord
  2
DOTTINY
 70
    0
  3
Dot (.15x) .....................................
 72
   65
 73
    2
 40
0.9525
 49
0
 74
    0
 49
-0.9525
 74
    0
  0
LTYPE
  5
34
330
5
100
AcDbSymbolTableRecord
100
AcDbLinetypeTableRecord
  2
DOT2
 70
    0
  3
Dot (.5x) .....................................
 72
   65
 73
    2
 40
3.175
 49
0
 74
    0
 49
-3.175
 74
    0
  0
LTYPE
  5
35
330
5
100
AcDbSymbolTableRecord
100
AcDbLinetypeTableRecord
  2
DOTX2
 70
    0
  3
Dot (2x) .  .  .  .  .  .  .  .  .  .  .  .  .
 72
   65
 73
    2
 40
12.7
 49
0
 74
    0
 49
-12.7
 74
    0
  0
LTYPE
  5
36
330
5
100
AcDbSymbolTableRecord
100
AcDbLinetypeTableRecord
  2
DASHED
 70
    0
  3
Dashed _ _ _ _ _ _ _ _ _ _ _ _ _ _ _ _ _
 72
   65
 73
    2
 40
19.05
 49
12.7
 74
    0
 49
-6.35
 74
    0
  0
LTYPE
  5
37
330
5
100
AcDbSymbolTableRecord
100
AcDbLinetypeTableRecord
  2
DASHEDTINY
 70
    0
  3
Dashed (.15x) _ _ _ _ _ _ _ _ _ _ _ _ _ _ _ _ _
 72
   65
 73
    2
 40
2.8575
 49
1.905
 74
    0
 49
-0.9525
 74
    0
  0
LTYPE
  5
38
330
5
100
AcDbSymbolTableRecord
100
AcDbLinetypeTableRecord
  2
DASHED2
 70
    0
  3
Dashed (.5x) _ _ _ _ _ _ _ _ _ _ _ _ _ _ _ _ _
 72
   65
 73
    2
 40
9.524999999999999
 49
6.35
 74
    0
 49
-3.175
 74
    0
  0
LTYPE
  5
39
330
5
100
AcDbSymbolTableRecord
100
AcDbLinetypeTableRecord
  2
DASHEDX2
 70
    0
  3
Dashed (2x) ____  ____  ____  ____  ____  ___
 72
   65
 73
    2
 40
38.09999999999999
 49
25.4
 74
    0
 49
-12.7
 74
    0
  0
LTYPE
  5
3A
330
5
100
AcDbSymbolTableRecord
100
AcDbLinetypeTableRecord
  2
DASHDOT
 70
    0
  3
Dash dot __ . __ . __ . __ . __ . __ . __ . __
 72
   65
 73
    4
 40
25.4
 49
12.7
 74
    0
 49
-6.35
 74
    0
 49
0
 74
    0
 49
-6.35
 74
    0
  0
LTYPE
  5
3B
330
5
100
AcDbSymbolTableRecord
100
AcDbLinetypeTableRecord
  2
DASHDOTTINY
 70
    0
  3
Dash dot (.15x) _._._._._._._._._._._._._._._.
 72
   65
 73
    4
 40
3.81
 49
1.905
 74
    0
 49
-0.9525
 74
    0
 49
0
 74
    0
 49
-0.9525
 74
    0
  0
LTYPE
  5
3C
330
5
100
AcDbSymbolTableRecord
100
AcDbLinetypeTableRecord
  2
DASHDOT2
 70
    0
  3
Dash dot (.5x) _._._._._._._._._._._._._._._.
 72
   65
 73
    4
 40
12.7
 49
6.35
 74
    0
 49
-3.175
 74
    0
 49
0
 74
    0
 49
-3.175
 74
    0
  0
LTYPE
  5
3D
330
5
100
AcDbSymbolTableRecord
100
AcDbLinetypeTableRecord
  2
DASHDOTX2
 70
    0
  3
Dash dot (2x) ____  .  ____  .  ____  .  ___
 72
   65
 73
    4
 40
50.8
 49
25.4
 74
    0
 49
-12.7
 74
    0
 49
0
 74
    0
 49
-12.7
 74
    0
  0
LTYPE
  5
3E
330
5
100
AcDbSymbolTableRecord
100
AcDbLinetypeTableRecord
  2
DIVIDE
 70
    0
  3
Divide ____ . . ____ . . ____ . . ____ . . ____
 72
   65
 73
    6
 40
31.75
 49
12.7
 74
    0
 49
-6.35
 74
    0
 49
0
 74
    0
 49
-6.35
 74
    0
 49
0
 74
    0
 49
-6.35
 74
    0
  0
LTYPE
  5
3F
330
5
100
AcDbSymbolTableRecord
100
AcDbLinetypeTableRecord
  2
DIVIDETINY
 70
    0
  3
Divide (.15x) __..__..__..__..__..__..__..__.._
 72
   65
 73
    6
 40
4.7625
 49
1.905
 74
    0
 49
-0.9525
 74
    0
 49
0
 74
    0
 49
-0.9525
 74
    0
 49
0
 74
    0
 49
-0.9525
 74
    0
  0
LTYPE
  5
40
330
5
100
AcDbSymbolTableRecord
100
AcDbLinetypeTableRecord
  2
DIVIDE2
 70
    0
  3
Divide (.5x) __..__..__..__..__..__..__..__.._
 72
   65
 73
    6
 40
15.875
 49
6.35
 74
    0
 49
-3.175
 74
    0
 49
0
 74
    0
 49
-3.175
 74
    0
 49
0
 74
    0
 49
-3.175
 74
    0
  0
LTYPE
  5
41
330
5
100
AcDbSymbolTableRecord
100
AcDbLinetypeTableRecord
  2
DIVIDEX2
 70
    0
  3
Divide (2x) ________  .  .  ________  .  .  _
 72
   65
 73
    6
 40
63.5
 49
25.4
 74
    0
 49
-12.7
 74
    0
 49
0
 74
    0
 49
-12.7
 74
    0
 49
0
 74
    0
 49
-12.7
 74
    0
  0
LTYPE
  5
42
330
5
100
AcDbSymbolTableRecord
100
AcDbLinetypeTableRecord
  2
BORDER
 70
    0
  3
Border __ __ . __ __ . __ __ . __ __ . __ __ .
 72
   65
 73
    6
 40
44.45
 49
12.7
 74
    0
 49
-6.35
 74
    0
 49
12.7
 74
    0
 49
-6.35
 74
    0
 49
0
 74
    0
 49
-6.35
 74
    0
  0
LTYPE
  5
43
330
5
100
AcDbSymbolTableRecord
100
AcDbLinetypeTableRecord
  2
BORDERTINY
 70
    0
  3
Border (.15x) __.__.__.__.__.__.__.__.__.__.__.
 72
   65
 73
    6
 40
6.6675
 49
1.905
 74
    0
 49
-0.9525
 74
    0
 49
1.905
 74
    0
 49
-0.9525
 74
    0
 49
0
 74
    0
 49
-0.9525
 74
    0
  0
LTYPE
  5
44
330
5
100
AcDbSymbolTableRecord
100
AcDbLinetypeTableRecord
  2
BORDER2
 70
    0
  3
Border (.5x) __.__.__.__.__.__.__.__.__.__.__.
 72
   65
 73
    6
 40
22.225
 49
6.35
 74
    0
 49
-3.175
 74
    0
 49
6.35
 74
    0
 49
-3.175
 74
    0
 49
0
 74
    0
 49
-3.175
 74
    0
  0
LTYPE
  5
45
330
5
100
AcDbSymbolTableRecord
100
AcDbLinetypeTableRecord
  2
BORDERX2
 70
    0
  3
Border (2x) ____  ____  .  ____  ____  .  ___
 72
   65
 73
    6
 40
88.89999999999999
 49
25.4
 74
    0
 49
-12.7
 74
    0
 49
25.4
 74
    0
 49
-12.7
 74
    0
 49
0
 74
    0
 49
-12.7
 74
    0
  0
LTYPE
  5
46
330
5
100
AcDbSymbolTableRecord
100
AcDbLinetypeTableRecord
  2
CENTER
 70
    0
  3
Center ____ _ ____ _ ____ _ ____ _ ____ _ ____
 72
   65
 73
    4
 40
50.8
 49
31.75
 74
    0
 49
-6.35
 74
    0
 49
6.35
 74
    0
 49
-6.35
 74
    0
  0
LTYPE
  5
47
330
5
100
AcDbSymbolTableRecord
100
AcDbLinetypeTableRecord
  2
CENTERTINY
 70
    0
  3
Center (.15x) ___ _ ___ _ ___ _ ___ _ ___ _ ___
 72
   65
 73
    4
 40
7.62
 49
4.7625
 74
    0
 49
-0.9525
 74
    0
 49
0.9525
 74
    0
 49
-0.9525
 74
    0
  0
LTYPE
  5
48
330
5
100
AcDbSymbolTableRecord
100
AcDbLinetypeTableRecord
  2
CENTER2
 70
    0
  3
Center (.5x) ___ _ ___ _ ___ _ ___ _ ___ _ ___
 72
   65
 73
    4
 40
28.575
 49
19.05
 74
    0
 49
-3.175
 74
    0
 49
3.175
 74
    0
 49
-3.175
 74
    0
  0
LTYPE
  5
49
330
5
100
AcDbSymbolTableRecord
100
AcDbLinetypeTableRecord
  2
CENTERX2
 70
    0
  3
Center (2x) ________  __  ________  __  _____
 72
   65
 73
    4
 40
101.6
 49
63.5
 74
    0
 49
-12.7
 74
    0
 49
12.7
 74
    0
 49
-12.7
 74
    0
  0
ENDTAB
  0
TABLE
  2
LAYER
  5
2
330
0
100
AcDbSymbolTable
 70
    1
  0
LAYER
  5
10
330
2
100
AcDbSymbolTableRecord
100
AcDbLayerTableRecord
  2
0
 70
    0
 62
    7
  6
CONTINUOUS
370
    0
390
F
  0
ENDTAB
  0
TABLE
  2
STYLE
  5
3
330
0
100
AcDbSymbolTable
 70
    3
  0
STYLE
  5
4A
330
2
100
AcDbSymbolTableRecord
100
AcDbTextStyleTableRecord
  2
Standard
 70
    0
 40
0
 41
1
 50
0
 71
    0
 42
1
  3
txt
  4

  0
ENDTAB
  0
TABLE
  2
VIEW
  5
6
330
0
100
AcDbSymbolTable
 70
    0
  0
ENDTAB
  0
TABLE
  2
UCS
  5
7
330
0
100
AcDbSymbolTable
 70
    0
  0
ENDTAB
  0
TABLE
  2
APPID
  5
9
330
0
100
AcDbSymbolTable
 70
    1
  0
APPID
  5
12
330
9
100
AcDbSymbolTableRecord
100
AcDbRegAppTableRecord
  2
ACAD
 70
    0
  0
APPID
  5
4B
330
9
100
AcDbSymbolTableRecord
100
AcDbRegAppTableRecord
  2
LibreCad
 70
    0
  0
ENDTAB
  0
TABLE
  2
DIMSTYLE
  5
A
330
0
100
AcDbSymbolTable
 70
    1
100
AcDbDimStyleTable
 71
    1
  0
DIMSTYLE
105
4C
330
A
100
AcDbSymbolTableRecord
100
AcDbDimStyleTableRecord
  2
Standard
 70
    0
 40
2.5
 41
2.5
 42
0.625
 43
0.38
 44
1.25
 45
0
 46
0
 47
0
 48
0
 49
1
140
2.5
141
0.09
142
0
143
25.4
144
1
145
0
146
1
147
0.625
148
0
 71
    0
 72
    0
 73
    0
 74
    1
 75
    0
 76
    0
 77
    0
 78
    8
 79
    0
170
    0
171
    2
172
    0
173
    0
174
    0
175
    0
176
    0
177
    0
178
    0
179
    0
271
    2
272
    4
273
    2
274
    2
275
    0
276
    0
277
    2
278
   44
279
    0
280
    0
281
    0
282
    0
283
    1
284
    0
285
    0
286
    0
288
    0
289
    3
340
STANDARD
341

371
   -2
372
   -2
  0
ENDTAB
  0
TABLE
  2
BLOCK_RECORD
  5
1
330
0
100
AcDbSymbolTable
 70
    2
  0
BLOCK_RECORD
  5
1F
330
1
100
AcDbSymbolTableRecord
100
AcDbBlockTableRecord
  2
*Model_Space
 70
    0
280
    1
281
    0
  0
BLOCK_RECORD
  5
1E
330
1
100
AcDbSymbolTableRecord
100
AcDbBlockTableRecord
  2
*Paper_Space
 70
    0
280
    1
281
    0
  0
ENDTAB
  0
ENDSEC
  0
SECTION
  2
BLOCKS
  0
BLOCK
  5
20
330
1F
100
AcDbEntity
  8
0
100
AcDbBlockBegin
  2
*Model_Space
 70
    0
 10
0
 20
0
 30
0
  3
*Model_Space
  1

  0
ENDBLK
  5
21
330
1F
100
AcDbEntity
  8
0
100
AcDbBlockEnd
  0
BLOCK
  5
1C
330
1B
100
AcDbEntity
  8
0
100
AcDbBlockBegin
  2
*Paper_Space
 70
    0
 10
0
 20
0
 30
0
  3
*Paper_Space
  1

  0
ENDBLK
  5
1D
330
1F
100
AcDbEntity
  8
0
100
AcDbBlockEnd
  0
ENDSEC
  0
SECTION
  2
ENTITIES
  0
LWPOLYLINE
  5
4D
100
AcDbEntity
  8
0
  6
ByLayer
 62
  256
370
   -1
100
AcDbPolyline
 90
  470
 70
    1
 43
0
 10
127
 20
284.569161
 10
127
 20
268.138321
 10
113.7500000000001
 20
277.2038029999999
 42
0.002944000000000051
 10
108.563315
 20
280.7078159999999
 42
0.004290999999999979
 10
103.9477070000002
 20
283.729688
 42
0.002173999999999993
 10
100.0047900000002
 20
286.2389139999999
 42
0.07303300000000121
 10
98.98687500000003
 20
286.68933
 42
0.2877989999999979
 10
98.00914100000001
 20
286.397912
 42
0.02956799999999997
 10
96.46005100000005
 20
284.408322
 42
0.02283000000000008
 10
94.43044599999993
 20
281.147782
 42
0.006801999999999984
 10
91.63126499999987
 20
275.9936309999998
 42
0.003189999999999925
 10
89.41663700000004
 20
271.7140650000001
 42
0.005286000000000087
 10
87.6094690000001
 20
268.0719230000001
 42
0.001128999999999955
 10
86.07769900000004
 20
264.8826980000002
 42
0.3701179999999945
 10
86.144389
 20
264.635455
 42
0.03488700000000014
 10
86.38302699999991
 20
264.496076
 42
0.002987000000000149
 10
87.01980299999991
 20
264.1861999999999
 42
0.003936999999999959
 10
87.78530099999989
 20
263.8267079999999
 42
0.003041000000000023
 10
88.62515399999995
 20
263.446511
 42
-0.04036699999999996
 10
90.06872799999985
 20
262.6584470000003
 42
-0.001379999999999904
 10
95.45359299999961
 20
259.1061630000005
 42
-0.002585999999999998
 10
101.7836299999998
 20
254.8579250000003
 42
-0.001801000000000026
 10
108.8866429999999
 20
250.0000000000002
 10
127.022977
 20
237.5
 10
126.761488
 20
225
 10
126.5
 20
212.5
 10
116.345174
 20
212.5
 10
106.190348
 20
212.5
 10
101.4539989999999
 20
204.7217659999998
 42
-0.004556000000000007
 10
99.57850599999988
 20
201.7040009999999
 42
-0.006601000000000259
 10
97.86307599999989
 20
199.076428
 42
-0.003631000000000269
 10
96.37378499999983
 20
196.8941329999999
 42
-0.1031419999999997
 10
95.88062499999998
 20
196.426222
 42
-0.2707749999999969
 10
94.7323229999995
 20
196.3978460000003
 42
-0.001857000000000115
 10
85.78223299999848
 20
201.3792030000008
 42
-0.003131000000000048
 10
77.16981499999942
 20
206.2857690000003
 42
-0.127537999999999
 10
75.64555000000001
 20
207.787093
 42
-0.1174680000000007
 10
75.2473030000001
 20
209.0502770000014
 42
-0.0003850000000001692
 10
74.07997500000079
 20
225.5166600000105
 42
-0.002338999999999972
 10
73.09814199999983
 20
240.525370000002
 42
-0.008422999999999984
 10
72.67815999999999
 20
250.1075190000002
 10
72.5
 20
256.715039
 10
60.64958500000001
 20
257.354477
 42
0.005323000000000053
 10
56.03546200000002
 20
257.554208
 42
0.007861999999999897
 10
51.98344000000004
 20
257.622654
 42
0.004123999999999994
 10
48.57208299999999
 20
257.598496
 42
0.1353790000000004
 10
47.78882299999997
 20
257.369485
 42
0.2632670000000046
 10
47.15139400000004
 20
256.2092260000002
 42
0.004406999999999887
 10
47.31312
 20
248.6155930000005
 42
0.01029700000000005
 10
47.76286199999993
 20
239.7526920000003
 42
0.007126000000000032
 10
48.62063499999994
 20
229.7500000000002
 42
-0.01323200000000004
 10
48.795861
 20
227.364837
 42
-0.02982399999999996
 10
48.77274000000001
 20
225.55305
 42
-0.03638500000000023
 10
48.59122600000003
 20
224.311155
 42
-0.3517490000000317
 10
48.203653
 20
224
 42
-0.1323389999999987
 10
46.40261799999826
 20
224.4851910000014
 42
-0.001559999999999763
 10
35.73207500000001
 20
230.7289000000001
 42
-0.003196000000000028
 10
25.66693800000006
 20
236.7476029999998
 42
-0.05255900000000007
 10
22.55171399999998
 20
239.117493
 42
0.1891699999999986
 10
21.181707
 20
239.666983
 42
0.2164660000000022
 10
19.901397
 20
239.09702
 42
0.04480499999999991
 10
18.12305499999991
 20
236.6887529999996
 42
0.002522000000000013
 10
13.33413499999995
 20
228.7260639999998
 42
0.003705999999999991
 10
10.546088
 20
223.956796
 42
0.005563000000000051
 10
8.190673000000061
 20
219.750536
 42
0.002466999999999982
 10
6.244143000000055
 20
216.1396350000001
 42
0.1159020000000005
 10
6.032420999999998
 20
215.33959
 42
0.2527119999999958
 10
6.37224899999984
 20
214.6658070000002
 42
0.003989999999999981
 10
10.03657499999977
 20
212.1555210000002
 42
0.009445999999999804
 10
14.4565469999998
 20
209.2989730000002
 42
0.005985000000000009
 10
19.70911199999989
 20
206.12972
 10
33.418224
 20
198.080262
 10
17.64256499999988
 20
190.5523149999999
 42
0.004572999999999956
 10
10.30929599999993
 20
186.970275
 42
0.01639200000000004
 10
5.725509999999961
 20
184.488102
 42
0.01715799999999999
 10
2.806754999999998
 20
182.644348
 42
0.394895999999999
 10
2.608664000000019
 20
181.762184
 42
0.007377999999999908
 10
4.449314999997569
 20
178.7333350000017
 42
0.0005569999999999942
 10
9.568522000001394
 20
170.6031030000013
 42
0.000134000000000088
 10
15.17745800000557
 20
161.7223189999913
 42
0.03912099999999996
 10
15.69562199999996
 20
161.02896
 42
0.2281520000000353
 10
15.908401
 20
160.938451
 42
0.118740999999999
 10
16.19173100000001
 20
161.020789
 42
0.07787800000000118
 10
16.50783800000003
 20
161.27362
 42
0.04471500000000014
 10
16.80437299999999
 20
161.662602
 42
-0.1135620000000008
 10
17.38290099999999
 20
162.237974
 42
-0.009544999999999922
 10
19.205035
 20
163.323833
 42
-0.01230399999999991
 10
21.45970299999998
 20
164.537247
 42
-0.009199000000000001
 10
24.00000000000546
 20
165.7666000000008
 42
-0.0003379999999999576
 10
42.42712800000265
 20
174.2543720000012
 42
-0.001872999999999951
 10
52.36017000000027
 20
178.7765249999993
 42
-0.0008280000000000738
 10
59.11688200000071
 20
181.8086609999998
 42
-0.1054300000000001
 10
60.014222
 20
182
 42
-0.1311119999999985
 10
60.99027899999919
 20
181.739579
 42
-0.0006680000000001095
 10
69.77052000000094
 20
176.679562999999
 42
-0.00124899999999995
 10
78.22761700000001
 20
171.7624759999996
 42
-0.06415199999999961
 10
79.73133699999997
 20
170.601996
 42
-0.3294139999999955
 10
79.79313399999998
 20
170.190219
 42
-0.003780999999999971
 10
78.39800899999994
 20
167.6060699999999
 42
-0.009664999999999898
 10
76.66059199999998
 20
164.585144
 42
-0.005936000000000251
 10
74.50369799999993
 20
161.0917469999999
 10
68.785657
 20
152.0719
 10
72.96224100000001
 20
144.827711
 42
-0.002237999999999998
 10
74.57572400000001
 20
141.999984
 42
-0.003298000000000032
 10
75.96500200000003
 20
139.501315
 42
-0.001539999999999977
 10
77.12662699999997
 20
137.3636370000002
 42
-0.06194599999999972
 10
77.319413
 20
136.867991
 42
-0.3020709999999961
 10
77.16592399999996
 20
136.433381
 42
-0.00335300000000001
 10
74.53647699999985
 20
134.484261
 42
-0.008963000000000028
 10
71.37738399999985
 20
132.2609609999999
 42
-0.005551000000000051
 10
67.59199799999992
 20
129.757954
 10
57.683995
 20
123.363448
 10
36.59199799999982
 20
132.2941099999998
 42
-0.001866999999999872
 10
28.41547800000001
 20
135.792238
 42
-0.002810999999999861
 10
21.316136999999
 20
138.9084280000006
 42
-0.001120999999999818
 10
15.24999700000012
 20
141.6281980000001
 42
-0.06417200000000001
 10
14.207618
 20
142.270005
 42
0.2178650000000015
 10
13.012326
 20
142.576532
 42
0.1805759999999982
 10
11.87182500000002
 20
141.900158
 42
0.03663999999999999
 10
10.22864000000004
 20
139.5236639999999
 42
0.001959999999999952
 10
5.606096000000065
 20
131.5940340000001
 42
0.005588000000000007
 10
2.652722999999927
 20
126.347282
 42
0.03061199999999998
 10
1.267034999999993
 20
123.406262
 42
0.06350600000000005
 10
0.7953489999999981
 20
121.576278
 42
0.2458890000000006
 10
1.191679999999995
 20
120.512997
 42
0.07042200000000023
 10
2.197128999999791
 20
119.8380700000001
 42
0.002977999999999969
 10
6.081305999999614
 20
117.9875240000002
 42
0.005071999999999998
 10
10.73291899999953
 20
115.8625460000002
 42
0.003582000000000148
 10
15.99999999999997
 20
113.5657399999999
 42
-0.002346999999999992
 10
21.23106500000004
 20
111.2999959999999
 42
-0.003532999999999885
 10
25.76787999999982
 20
109.271263
 42
-0.001436000000000064
 10
29.63495899999998
 20
107.4956940000001
 42
-0.07953400000000031
 10
30.29491100000001
 20
107.051866
 42
-0.4833069999999997
 10
30.21046899999965
 20
106.0036969999994
 42
-0.001986999999999927
 10
19.13331399999964
 20
98.65049399999964
 42
-0.004181999999999919
 10
8.481961999999953
 20
91.76773299999978
 42
-0.105286
 10
5.243302999999996
 20
90.56520399999999
 42
0.03956400000000004
 10
4.587249000000002
 20
90.415176
 42
0.06125100000000003
 10
4.058729
 20
90.175179
 42
0.08353400000000019
 10
3.728495999999988
 20
89.888289
 42
0.2309920000000025
 10
3.658754000000005
 20
89.596757
 42
0.08940400000000015
 10
4.597353999999314
 20
87.36144000000115
 42
0.001752000000000043
 10
11.42710099999795
 20
76.92282300000261
 42
0.001104000000000069
 10
18.50981499999898
 20
66.23136100000124
 42
0.1553739999999996
 10
19.682468
 20
65.29232200000001
 42
0.2165080000000009
 10
20.51917399999981
 20
65.34216499999991
 42
0.004637000000000091
 10
24.22776399999988
 20
67.345168
 42
0.009816999999999982
 10
28.56900999999981
 20
69.85458299999991
 42
0.006357999999999956
 10
33.49532999999968
 20
72.91892599999971
 42
-0.001687999999999956
 10
38.37339299999988
 20
76.01680499999986
 42
-0.002698999999999911
 10
42.56302099999948
 20
78.62618399999928
 42
-0.0005429999999999761
 10
46.26223199999935
 20
80.89697099999968
 42
-0.1382360000000031
 10
46.627767
 20
81.00000000000001
 42
-0.408545000000011
 10
46.8295169999999
 20
80.8021250000003
 42
-0.0009099999999999951
 10
46.91116399999981
 20
76.15627200000038
 42
-0.004757999999999966
 10
46.94435099999998
 20
70.83351699999965
 42
-0.002853000000000071
 10
46.8875250000001
 20
64.51071299999958
 42
0.003124999999999946
 10
46.83383100000003
 20
58.15063800000018
 42
0.00496199999999982
 10
46.87593800000013
 20
52.70562800000101
 42
0.001369000000000139
 10
46.97226799999999
 20
47.98332500000032
 42
0.1929069999999976
 10
47.188309
 20
47.47835800000001
 42
0.218411999999998
 10
47.94154699999604
 20
47.19884699999784
 42
0.0005620000000000458
 10
59.40268499999365
 20
48.07003699999859
 42
0.0006090000000000217
 10
70.83006599999698
 20
48.96558699999969
 42
0.1959830000000014
 10
71.619429
 20
49.36307399999998
 42
0.1728490000000068
 10
71.67059599998902
 20
49.49308900000096
 42
3.399999999964613e-005
 10
71.90353399999003
 20
56.64670199992538
 42
0.0007309999999998909
 10
72.14955499999905
 20
64.5752409999958
 42
0.0004420000000000373
 10
72.41888699999799
 20
73.96612399999924
 42
-0.0007599999999999803
 10
72.69405299999903
 20
83.35209399999984
 42
-0.00126299999999994
 10
72.95806599999923
 20
91.26444999999637
 42
-6.799999999996259e-005
 10
73.21463799999401
 20
98.3849699999929
 42
-0.3150229999999804
 10
73.299458
 20
98.49735499999997
 42
0.0650640000000017
 10
73.45079099999657
 20
98.56931399999758
 42
9.899999999998526e-005
 10
76.0085209999952
 20
100.2232239999984
 42
0.000802999999999979
 10
78.87492299999826
 20
102.0840749999991
 42
0.0004960000000001165
 10
82.24018699999931
 20
104.2812299999994
 42
-0.001804999999999964
 10
85.61724800000025
 20
106.473495
 42
-0.002879999999999997
 10
88.52108299999986
 20
108.3201109999999
 42
-0.0006080000000000911
 10
91.08183800000029
 20
109.9235740000003
 42
-0.1404690000000015
 10
91.348507
 20
110
 42
-0.2597829999999931
 10
91.57067500000039
 20
109.8762159999997
 42
-0.0006799999999998248
 10
93.48605700000005
 20
106.7715450000004
 42
-0.003822999999999899
 10
95.63127300000002
 20
103.2232220000002
 42
-0.002344000000000015
 10
98.10832000000005
 20
99.00951600000008
 10
104.5
 20
88.019032
 10
116.280779
 20
88.009516
 10
128.061558
 20
88
 10
127.780779
 20
75.82847
 10
127.5
 20
63.65694
 10
108.8475719999956
 20
51.07846999999674
 42
-0.0004560000000000069
 10
101.5730289999938
 20
46.18245599999591
 42
-0.000666999999999835
 10
95.15789399999721
 20
41.88576499999817
 42
-0.0003179999999997585
 10
89.69036900000081
 20
38.23934300000018
 42
-0.01202399999999992
 10
88.43718499999999
 20
37.44753999999998
 42
0.2211019999999998
 10
87.73724900000002
 20
36.415933
 42
0.1224939999999994
 10
87.86572400000001
 20
34.86842699999999
 42
0.03775599999999979
 10
89.03975199999985
 20
32.10761900000034
 42
0.003694999999999988
 10
92.41731899999988
 20
25.6975400000003
 42
0.007962999999999861
 10
94.7013289999999
 20
21.59756800000004
 42
0.01235500000000005
 10
96.81420899999999
 20
18.14281400000002
 42
0.006633000000000005
 10
98.67460400000003
 20
15.34535299999997
 42
0.2478610000000012
 10
99.32770600000001
 20
15.001402
 42
0.1358430000000004
 10
100.1354539999998
 20
15.22602199999989
 42
0.002292999999999998
 10
104.1212639999996
 20
17.64703599999979
 42
0.005695999999999918
 10
108.7413449999995
 20
20.55536399999971
 42
0.003735000000000111
 10
113.9999999999999
 20
24.0058469999999
 10
127.5
 20
33.00889
 10
127.822979
 20
28.754445
 42
-0.01571099999999994
 10
127.928951
 20
26.36658200000011
 42
-0.003233000000000235
 10
127.9562070000001
 20
22.15089599999984
 42
-0.00339800000000021
 10
127.9229099999997
 20
17.2510429999998
 42
-0.003191000000000171
 10
127.8229789999998
 20
12.24860499999977
 10
127.5
 20
-0.002789
 10
142.25
 20
-0.001395
 10
157
 20
0
 10
156.9999999999999
 20
16.10698900000101
 42
-0.002442999999999815
 10
157.0452079999998
 20
25.36051500000029
 42
-0.02251099999999999
 10
157.264856
 20
29.36569299999998
 42
-0.06858499999999988
 10
157.719592
 20
31.25036099999999
 42
-0.4120759999999989
 10
158.553179
 20
31.617967
 42
-0.05151100000000007
 10
159.592313
 20
31.09098599999993
 42
-0.001915000000000006
 10
163.2776940000001
 20
28.69693399999983
 42
-0.003455999999999996
 10
167.6114359999999
 20
25.81504100000012
 42
-0.002421000000000027
 10
172.4555719999996
 20
22.51097800000025
 42
0.003847000000000075
 10
177.2671899999999
 20
19.24917300000024
 42
0.005869999999999937
 10
181.4971719999993
 20
16.50010000000043
 42
0.002375999999999998
 10
185.1468949999994
 20
14.21284900000034
 42
0.139663
 10
185.894039
 20
14
 42
0.2754610000000017
 10
186.8990959999994
 20
14.59917400000006
 42
0.00146399999999989
 10
192.5056799999984
 20
25.04275899999789
 42
0.001303000000000215
 10
198.0787770000002
 20
35.56325200000036
 42
0.4288490000000361
 10
197.811231
 20
36.355435
 42
-0.03029400000000034
 10
195.1660889999999
 20
37.7847570000001
 42
-0.005375000000000008
 10
190.4136319999999
 20
40.80904400000003
 42
-0.004398999999999958
 10
183.7800519999992
 20
45.21490600000016
 42
-0.001530999999999891
 10
174.3000840000002
 20
51.67459899999972
 10
157.059343
 20
63.5
 10
157.029671
 20
75.75
 10
157
 20
88
 10
166.80887
 20
88.00000000000003
 42
0.008862999999999996
 10
171.1366549999999
 20
88.07672099999999
 42
0.0185870000000002
 10
174.492755
 20
88.32087300000001
 42
0.02069599999999988
 10
176.973595
 20
88.69879800000001
 42
0.1236809999999993
 10
178.148459
 20
89.25000000000001
 42
0.0602019999999997
 10
178.97431
 20
90.10895899999997
 42
0.007627999999999892
 10
180.491692
 20
92.18906299999998
 42
0.008857999999999824
 10
182.2186039999999
 20
94.72816299999992
 42
0.007258000000000014
 10
183.975902
 20
97.49999999999989
 42
-0.0008690000000000791
 10
185.6455350000002
 20
100.209511
 42
-0.001329000000000071
 10
187.1034089999998
 20
102.5522579999999
 42
-0.0004450000000000079
 10
188.3712729999997
 20
104.5736469999998
 42
-0.03682000000000017
 10
188.589036
 20
104.869389
 42
-0.3563410000000009
 10
188.876602
 20
104.9210859999999
 42
-0.001603000000000064
 10
191.7638870000002
 20
103.3062119999999
 42
-0.006289999999999976
 10
195.0776199999999
 20
101.3835280000001
 42
-0.003811999999999987
 10
198.952722
 20
99.02921900000018
 42
-0.004423999999999997
 10
205.4011909999999
 20
94.96456500000005
 42
-0.05292999999999979
 10
207.692836
 20
93.12262699999999
 42
-0.1252789999999997
 10
208.720844
 20
91.40276
 42
-0.06447
 10
209.125
 20
88.9098300000001
 42
0.002388999999999922
 10
209.1874120000001
 20
87.21174700000034
 42
0.001786000000000016
 10
209.2718290000002
 20
85.34070000000052
 42
0.001804999999999964
 10
209.3640110000001
 20
83.57863900000051
 42
0.004119000000000088
 10
209.4493110000001
 20
82.25000000000011
 42
-0.01002500000000002
 10
209.5458029999998
 20
80.40676800000072
 42
-0.0006240000000000435
 10
209.7151209999995
 20
74.94729100000011
 42
-0.0009230000000000285
 10
209.8967300000004
 20
68.44167199999892
 42
-0.0006849999999999834
 10
210.0743110000003
 20
61.25141499999955
 10
210.5
 20
43.002831
 10
213
 20
42.97431999999999
 42
-0.01473400000000003
 10
214.492138
 20
42.91330399999998
 42
-0.002097000000000011
 10
217.549204
 20
42.68504299999984
 42
-0.002384999999999958
 10
221.1646749999999
 20
42.38247399999995
 42
-0.00203200000000006
 10
224.9760119999998
 20
42.02958400000011
 42
0.006408000000000078
 10
229.6348299999999
 20
41.63932399999999
 42
0.02443899999999979
 10
232.549622
 20
41.57551300000002
 42
0.03710199999999986
 10
234.417748
 20
41.76512000000002
 42
0.2051409999999952
 10
235.244366
 20
42.30667900000003
 42
0.142341
 10
235.542607
 20
43.25946299999979
 42
0.003381999999999951
 10
235.607642
 20
47.96745999999965
 42
0.007169000000000089
 10
235.567101
 20
53.52989699999992
 42
0.004775000000000026
 10
235.3683990000002
 20
59.90169400000081
 42
-0.002430999999999891
 10
235.042563
 20
68.9838560000005
 42
-0.0195059999999997
 10
235.076062
 20
73.16721099999998
 42
-0.05521600000000015
 10
235.39409
 20
75.17185499999999
 42
-0.4983189999999982
 10
236.1000449999998
 20
75.45262600000007
 42
-0.003834000000000135
 10
244.8677950000002
 20
70.03191099999981
 42
-0.005237999999999932
 10
252.6764899999996
 20
65.00605600000017
 42
-0.002840000000000023
 10
259.2584029999997
 20
60.6178050000001
 42
-0.07936200000000009
 10
260.75978
 20
59.21320600000001
 42
0.2574879999999993
 10
262.112253
 20
58.63104200000001
 42
0.1892950000000016
 10
263.594808
 20
59.38733699999997
 42
0.03787699999999996
 10
265.9117639999997
 20
62.44022899999959
 42
0.002517000000000048
 10
271.8425839999999
 20
71.72483899999986
 10
278.93349
 20
82.949679
 10
274.7167450000001
 20
85.78766899999998
 42
0.004533000000000025
 10
272.4849670000001
 20
87.26050099999998
 42
0.00129999999999992
 10
269.0015620000001
 20
89.50143700000012
 42
0.001308000000000045
 10
265.0588219999996
 20
92.00889200000006
 42
0.001389999999999944
 10
261.1821910000001
 20
94.4450199999998
 42
-0.009084999999999914
 10
257.667228
 20
96.730062
 42
-0.01569600000000022
 10
254.841719
 20
98.77290499999998
 42
-0.009962000000000136
 10
252.692186
 20
100.501606
 42
-0.4548519999999663
 10
252.682191
 20
101.006377
 42
-0.07666499999999955
 10
253.3556290000002
 20
101.451261
 42
-0.001426999999999966
 10
257.2253940000001
 20
103.216271
 42
-0.00346600000000007
 10
261.767322
 20
105.2343979999998
 42
-0.002306999999999924
 10
267
 20
107.4874679999999
 42
0.002791999999999987
 10
272.2632119999997
 20
109.7597339999998
 42
0.003998000000000143
 10
276.9022269999994
 20
111.8376959999997
 42
0.002201000000000138
 10
280.7969279999999
 20
113.6405519999999
 42
0.06039599999999987
 10
281.752261
 20
114.237603
 42
0.3104210000000083
 10
282.16862
 20
115.634897
 42
0.03463700000000004
 10
280.863683
 20
118.886657
 42
0.02315999999999994
 10
278.1753069999999
 20
123.8407860000002
 42
0.005630999999999903
 10
273.272911
 20
131.752057
 42
0.007465999999999964
 10
271.1269119999999
 20
135.020744
 42
0.09460000000000057
 10
270.091787
 20
136.05768
 42
0.2288429999999973
 10
269.106829
 20
136.204219
 42
0.06955999999999993
 10
267.704694
 20
135.542164
 42
-0.04168200000000009
 10
265.1861039999949
 20
134.1769459999969
 42
-0.0006780000000000583
 10
250.4477609999927
 20
127.7352149999967
 42
-0.001930000000000066
 10
236.4556229999989
 20
121.7063849999998
 42
-0.006834000000000079
 10
227.4081689999996
 20
117.9947179999999
 42
-0.1554229999999995
 10
225.865758
 20
117.890817
 42
-0.04659600000000012
 10
223.614096
 20
118.672754
 42
-0.02687599999999981
 10
220.3016709999998
 20
120.4018970000002
 42
-0.006158999999999908
 10
214.9081689999987
 20
123.6876750000006
 42
-0.0005970000000000688
 10
210.8967289999975
 20
126.206433000001
 42
-0.0009489999999999396
 10
207.46938
 20
128.3732469999986
 42
-0.0001889999999999956
 10
204.4542320000005
 20
130.2890799999996
 42
-0.04639199999999984
 10
204.200359
 20
130.485763
 42
-0.3429009999999618
 10
204.1605870000001
 20
130.7349599999999
 42
-0.001370999999999993
 10
205.6189440000001
 20
133.3720989999998
 42
-0.005785999999999995
 10
207.3440890000001
 20
136.388874
 42
-0.003514000000000015
 10
209.4503589999997
 20
139.9181339999998
 42
0.001749000000000211
 10
211.5777649999999
 20
143.4543840000001
 42
0.00278499999999996
 10
213.3697929999995
 20
146.4952449999986
 42
0.0006000000000001788
 10
214.924324
 20
149.1744049999995
 42
0.1318960000000019
 10
215
 20
149.456293
 42
0.1262690000000045
 10
214.927509
 20
149.7387660000004
 42
0.0006569999999999645
 10
213.5312500000001
 20
152.2720960000001
 42
0.002864000000000017
 10
211.916663
 20
155.1533609999999
 42
0.001805999999999975
 10
210.0000000000001
 20
158.5
 42
-0.003974000000000192
 10
208.0839659999999
 20
161.8794410000002
 42
-0.005943000000000141
 10
206.4687499999999
 20
164.8648030000003
 42
-0.002732000000000076
 10
205.141409
 20
167.4231750000002
 42
-0.1188369999999963
 10
205
 20
168.009746
 42
-0.2425920000000073
 10
205.256524
 20
168.507346
 42
-0.003847999999999982
 10
207.941848
 20
170.388657
 42
-0.009169000000000028
 10
211.1760519999999
 20
172.5312000000001
 42
-0.005829999999999992
 10
215.014802
 20
174.911723
 10
225.029603
 20
180.961688
 10
230.264802
 20
178.600887
 42
-0.002270000000000051
 10
232.9462990000003
 20
177.3769910000001
 42
-0.0007369999999998683
 10
236.8996610000005
 20
175.5437789999996
 42
-0.0007349999999998854
 10
241.2875159999999
 20
173.4933779999997
 42
-0.0008259999999999534
 10
245.4999999999989
 20
171.5088800000004
 42
0.001111000000000051
 10
249.7293679999989
 20
169.5193710000008
 42
0.0009669999999998952
 10
254.1681419999991
 20
167.4538470000007
 42
0.0009720000000000112
 10
258.1915810000002
 20
165.6005460000003
 42
0.00287200000000011
 10
260.966014
 20
164.3483339999999
 42
-0.009741000000000046
 10
263.171184
 20
163.316358
 42
-0.01053099999999998
 10
265.277212
 20
162.224622
 42
-0.01009900000000001
 10
267.041341
 20
161.2157020000002
 42
-0.04900400000000068
 10
267.966753
 20
160.530089
 42
0.2777030000000042
 10
269.085957
 20
160.310419
 42
0.1245230000000022
 10
270.374765
 20
161.184059
 42
0.03739999999999993
 10
272.2870229999999
 20
163.6862709999998
 42
0.004175999999999939
 10
276.1573579999999
 20
169.7321479999997
 42
0.0101150000000001
 10
279.8915749999999
 20
175.949817
 42
0.04256700000000034
 10
281.7269299999999
 20
179.893944
 42
0.1141290000000003
 10
282.000677
 20
182.105023
 42
0.3840440000000013
 10
281.007331
 20
183
 42
-0.1053359999999984
 10
280.4352339999999
 20
183.121877
 42
-0.0008800000000000378
 10
276.2570099999992
 20
184.9955490000005
 42
-0.003078999999999782
 10
271.4665749999999
 20
187.189485
 42
-0.001973000000000006
 10
265.9295069999998
 20
189.79336
 10
251.630375
 20
196.586719
 10
264.5651869999998
 20
204.186744
 42
-0.003590999999999977
 10
269.648001
 20
207.124313
 42
-0.005090999999999978
 10
274.2150020000003
 20
209.6590170000001
 42
-0.002977999999999969
 10
278.0916340000001
 20
211.7294469999999
 42
-0.07105899999999976
 10
279.25184
 20
212.143384
 42
0.3972450000000246
 10
279.8017809999999
 20
212.924038
 42
0.06815199999999957
 10
279.2542999999999
 20
214.837772
 42
0.02588199999999991
 10
277.4982370000001
 20
218.3251470000002
 42
0.00369600000000003
 10
273.481422
 20
225.2500000000003
 42
0.005263999999999849
 10
270.5281590000001
 20
230.137384
 42
0.008338000000000043
 10
267.884733
 20
234.2546869999999
 42
0.003181000000000008
 10
265.5578919999999
 20
237.7015690000001
 42
0.2475390000000227
 10
264.992033
 20
238
 42
0.1303589999999985
 10
263.8852749999999
 20
237.7064599999994
 42
0.0007180000000000643
 10
254.2962939999992
 20
232.2168309999992
 42
0.003486999999999943
 10
245.379093
 20
227.011724
 42
0.009462000000000033
 10
239.155638
 20
223.159533
 10
236.811276
 20
221.646323
 10
237.372062
 20
228.0731619999998
 42
0.003375000000000106
 10
237.63282
 20
231.3140259999988
 42
0.001199000000000033
 10
237.9632619999995
 20
235.951238999998
 42
0.00119000000000032
 10
238.301724
 20
241.0440399999997
 42
0.00140200000000033
 10
238.5971690000002
 20
245.8672270000004
 10
239.26149
 20
257.234455
 10
228.8807449999999
 20
256.5650410000002
 42
0.003400999999999987
 10
218.3495539999998
 20
255.8139670000003
 42
0.07130999999999993
 10
215.281381
 20
255.126641
 42
0.2318910000000006
 10
213.940541
 20
253.693995
 42
0.07401000000000037
 10
213.4954409999999
 20
250.725454
 42
-0.01001299999999987
 10
213.446536
 20
248.4086039999995
 42
-0.002313999999999719
 10
213.2680129999998
 20
244.5099769999993
 42
-0.0023889999999997
 10
213.020142
 20
240.0212449999999
 42
-0.002334000000000082
 10
212.7276210000018
 20
235.4999999999968
 42
9.000000000000667e-005
 10
212.3901760000008
 20
230.6240719999928
 42
6.100000000003188e-005
 10
212.0063360000022
 20
225.0534069999894
 42
6.100000000003188e-005
 10
211.636102000004
 20
219.6611009999957
 42
0.0001210000000000304
 10
211.3439959999996
 20
215.3839400000012
 10
210.723631
 20
206.26788
 10
200.890603
 20
200.63394
 42
-0.003743999999999975
 10
197.0561319999999
 20
198.4749139999999
 42
-0.005629999999999991
 10
193.6772379999999
 20
196.6549699999998
 42
-0.002476000000000306
 10
190.7766249999996
 20
195.1527859999998
 42
-0.1187790000000005
 10
190.142547
 20
195
 42
-0.2418190000000081
 10
189.6243009999998
 20
195.2662099999999
 42
-0.006120999999999984
 10
188.0675779999999
 20
197.4959160000001
 42
-0.01175699999999971
 10
186.2940589999998
 20
200.2401760000001
 42
-0.007583999999999687
 10
184.3637589999999
 20
203.496736
 10
179.5
 20
211.993472
 10
169.75
 20
212.121736
 42
-0.002258000000000102
 10
165.9417939999997
 20
212.189038
 42
-0.003245999999999951
 10
162.5703119999999
 20
212.2857599999999
 42
-0.001736000000000107
 10
159.7196409999998
 20
212.3959809999999
 42
-0.05075900000000004
 10
159
 20
212.5
 42
0.009326999999999986
 10
158.544688
 20
212.604845
 42
0.005581000000000037
 10
158
 20
212.713281
 42
0.005585999999999934
 10
157.455184
 20
212.809146
 42
0.009662000000000084
 10
157
 20
212.875
 42
-0.3447269999999893
 10
156.568174
 20
213.309335
 42
-0.008903999999999832
 10
156.273628
 20
216.222805
 42
-0.01404900000000003
 10
156.065391
 20
220.0153440000002
 42
-0.006688999999999699
 10
156
 20
224.9030339999999
 10
156
 20
236.806068
 10
166.2500000000018
 20
243.7667109999993
 42
-0.000242000000000017
 10
170.8989110000002
 20
246.9204359999967
 42
-0.0001450000000000829
 10
176.4265620000033
 20
250.6640289999996
 42
-0.0001449999999998609
 10
181.9305939999977
 20
254.3869649999997
 42
-0.0002529999999999135
 10
186.4999999999983
 20
257.4724199999996
 42
0.0005389999999998623
 10
190.3574269999985
 20
260.0803299999985
 42
0.0008500000000000117
 10
193.6610729999957
 20
262.3272319999987
 42
0.0001900000000000745
 10
196.5571929999974
 20
264.3057850000005
 42
0.03660199999999966
 10
196.835568
 20
264.527644
 42
0.3413679999999896
 10
197.014404
 20
265.5898439999996
 42
0.001905999999999992
 10
191.8409379999999
 20
275.1747389999994
 42
0.002777000000000097
 10
186.6891879999997
 20
284.5091680000003
 42
0.1753980000000013
 10
185.293758
 20
285.717516
 42
0.2157370000000016
 10
184.282297
 20
285.6582230000001
 42
0.007023999999999956
 10
180.622721
 20
283.67055
 42
0.01206200000000002
 10
176.2374409999999
 20
281.0672489999999
 42
0.0073459999999999
 10
171.1793429999996
 20
277.7926119999991
 42
-0.0006159999999998897
 10
166.2255689999993
 20
274.4900519999992
 42
-0.000889999999999807
 10
161.8372129999993
 20
271.5834939999995
 42
-0.0004549999999999985
 10
158.1075719999996
 20
269.1276279999993
 42
-0.01464600000000017
 10
157.18138
 20
268.557084
 42
-0.5071590000000362
 10
156.507057
 20
268.854905
 42
-0.03830599999999965
 10
156.1811779999999
 20
271.1739230000002
 42
-0.01783699999999957
 10
156.0602779999998
 20
275.5906969999999
 42
-0.002721000000000021
 10
156.1813799999999
 20
284.399907
 10
156.5
 20
301.002666
 10
141.75
 20
301.001333
 10
127
 20
301
  0
CIRCLE
  5
4E
100
AcDbEntity
  8
0
  6
ByLayer
 62
  256
370
   -1
100
AcDbCircle
 10
141.8907482304575
 20
287.8000081626243
 40
5.852406254902249
  0
ENDSEC
  0
SECTION
  2
OBJECTS
  0
DICTIONARY
  5
C
330
0
100
AcDbDictionary
281
    1
  3
ACAD_GROUP
350
D
  0
DICTIONARY
  5
D
330
C
100
AcDbDictionary
281
    1
  0
PLOTSETTINGS
  5
4F
100
AcDbPlotSettings
  6
1x1
 40
0
 41
0
 42
0
 43
0
  0
ENDSEC
  0
EOF
