  0
SECTION
  2
HEADER
  9
$ACADVER
  1
AC1006
  9
$EXTMIN
 10
0.000000
 20
0.000000
 30
0.000000
  9
$EXTMAX
 10
283.000000
 20
301.000000
 30
0.000000
  0
ENDSEC
  0
SECTION
  2
ENTITIES
  0
POLYLINE
  8
0
 66
1
 70
1
  0
VERTEX
  8
0
 10
125.424909
 20
298.556835
 42
0.023510
  0
VERTEX
  8
0
 10
125.224458
 20
297.562325
 42
0.026665
  0
VERTEX
  8
0
 10
125.128740
 20
296.594343
 42
0.027291
  0
VERTEX
  8
0
 10
125.136388
 20
295.774010
 42
0.115487
  0
VERTEX
  8
0
 10
125.277758
 20
295.306835
 42
-0.132179
  0
VERTEX
  8
0
 10
125.448393
 20
294.667887
 42
-0.002622
  0
VERTEX
  8
0
 10
125.424219
 20
291.268991
 42
-0.006060
  0
VERTEX
  8
0
 10
125.326486
 20
287.276807
 42
-0.004008
  0
VERTEX
  8
0
 10
125.121901
 20
282.693986
 42
0.000000
  0
VERTEX
  8
0
 10
124.500000
 20
270.887972
 42
0.000000
  0
VERTEX
  8
0
 10
112.726484
 20
279.008139
 42
0.011096
  0
VERTEX
  8
0
 10
102.654120
 20
285.630106
 42
0.152513
  0
VERTEX
  8
0
 10
98.474682
 20
286.727186
 42
0.229673
  0
VERTEX
  8
0
 10
95.237981
 20
284.969441
 42
0.028449
  0
VERTEX
  8
0
 10
90.820824
 20
278.000000
 42
0.009702
  0
VERTEX
  8
0
 10
89.005408
 20
274.585020
 42
0.012234
  0
VERTEX
  8
0
 10
87.465579
 20
271.354042
 42
0.010389
  0
VERTEX
  8
0
 10
86.306318
 20
268.608254
 42
0.089869
  0
VERTEX
  8
0
 10
86.044212
 20
267.311634
 42
0.203177
  0
VERTEX
  8
0
 10
86.688748
 20
265.701179
 42
0.022260
  0
VERTEX
  8
0
 10
89.682966
 20
262.941318
 42
0.016029
  0
VERTEX
  8
0
 10
94.743236
 20
258.947732
 42
0.003472
  0
VERTEX
  8
0
 10
103.750000
 20
252.392836
 42
-0.002098
  0
VERTEX
  8
0
 10
120.345490
 20
240.384633
 42
-0.063131
  0
VERTEX
  8
0
 10
124.087417
 20
236.851749
 42
-0.148756
  0
VERTEX
  8
0
 10
125.618671
 20
233.154809
 42
-0.024339
  0
VERTEX
  8
0
 10
126.000000
 20
225.325686
 42
0.000000
  0
VERTEX
  8
0
 10
126.000000
 20
215.000000
 42
0.000000
  0
VERTEX
  8
0
 10
119.750000
 20
214.843476
 42
0.005057
  0
VERTEX
  8
0
 10
112.784625
 20
214.598531
 42
0.038987
  0
VERTEX
  8
0
 10
109.547828
 20
214.197733
 42
0.078949
  0
VERTEX
  8
0
 10
107.424552
 20
213.401667
 42
0.059549
  0
VERTEX
  8
0
 10
105.415792
 20
211.920890
 42
0.036519
  0
VERTEX
  8
0
 10
104.232269
 20
210.634056
 42
0.012710
  0
VERTEX
  8
0
 10
102.716691
 20
208.620325
 42
0.012547
  0
VERTEX
  8
0
 10
101.154583
 20
206.310658
 42
0.014292
  0
VERTEX
  8
0
 10
99.779712
 20
204.022179
 42
-0.000557
  0
VERTEX
  8
0
 10
98.574529
 20
201.885313
 42
-0.000858
  0
VERTEX
  8
0
 10
97.526489
 20
200.039296
 42
-0.000268
  0
VERTEX
  8
0
 10
96.613878
 20
198.440219
 42
-0.025622
  0
VERTEX
  8
0
 10
96.471311
 20
198.217977
 42
-0.380873
  0
VERTEX
  8
0
 10
96.201998
 20
198.157366
 42
-0.000151
  0
VERTEX
  8
0
 10
86.943345
 20
203.296862
 42
-0.001118
  0
VERTEX
  8
0
 10
78.475238
 20
208.025697
 42
-0.029711
  0
VERTEX
  8
0
 10
76.296691
 20
209.424944
 42
-0.223896
  0
VERTEX
  8
0
 10
76.208088
 20
209.587157
 42
-0.000094
  0
VERTEX
  8
0
 10
75.820273
 20
216.128321
 42
-0.001344
  0
VERTEX
  8
0
 10
75.409398
 20
223.412968
 42
-0.000814
  0
VERTEX
  8
0
 10
74.960338
 20
232.036642
 42
0.004864
  0
VERTEX
  8
0
 10
73.859221
 20
250.328187
 42
0.103978
  0
VERTEX
  8
0
 10
72.384214
 20
255.514943
 42
0.225078
  0
VERTEX
  8
0
 10
69.098772
 20
257.980262
 42
0.033985
  0
VERTEX
  8
0
 10
60.722875
 20
259.101049
 42
0.009199
  0
VERTEX
  8
0
 10
57.072369
 20
259.271578
 42
0.012048
  0
VERTEX
  8
0
 10
53.733186
 20
259.285561
 42
0.009658
  0
VERTEX
  8
0
 10
50.964187
 20
259.176894
 42
0.102456
  0
VERTEX
  8
0
 10
49.879460
 20
258.885150
 42
0.208245
  0
VERTEX
  8
0
 10
48.989418
 20
257.813831
 42
0.036163
  0
VERTEX
  8
0
 10
48.427220
 20
255.180296
 42
0.019854
  0
VERTEX
  8
0
 10
47.981250
 20
250.659136
 42
0.003333
  0
VERTEX
  8
0
 10
47.529185
 20
241.965592
 42
-0.003609
  0
VERTEX
  8
0
 10
47.115438
 20
234.092705
 42
-0.016165
  0
VERTEX
  8
0
 10
46.690981
 20
229.494628
 42
-0.020916
  0
VERTEX
  8
0
 10
46.219431
 20
226.683629
 42
-0.461400
  0
VERTEX
  8
0
 10
45.574730
 20
226.332950
 42
-0.047621
  0
VERTEX
  8
0
 10
44.741261
 20
226.747530
 42
-0.001527
  0
VERTEX
  8
0
 10
41.549866
 20
228.747487
 42
-0.002936
  0
VERTEX
  8
0
 10
37.803348
 20
231.142164
 42
-0.002033
  0
VERTEX
  8
0
 10
33.592887
 20
233.892695
 42
0.016669
  0
VERTEX
  8
0
 10
24.753520
 20
239.304795
 42
0.207855
  0
VERTEX
  8
0
 10
20.933895
 20
239.711915
 42
0.173060
  0
VERTEX
  8
0
 10
17.661607
 20
237.242777
 42
0.010910
  0
VERTEX
  8
0
 10
11.155169
 20
226.861123
 42
0.019740
  0
VERTEX
  8
0
 10
6.556056
 20
218.413283
 42
0.196110
  0
VERTEX
  8
0
 10
6.272532
 20
214.469234
 42
0.169147
  0
VERTEX
  8
0
 10
8.804656
 20
211.142977
 42
0.013911
  0
VERTEX
  8
0
 10
18.196573
 20
205.291419
 42
0.000000
  0
VERTEX
  8
0
 10
30.393147
 20
198.155548
 42
0.000000
  0
VERTEX
  8
0
 10
16.690854
 20
191.644657
 42
0.006219
  0
VERTEX
  8
0
 10
11.401931
 20
189.050411
 42
0.009335
  0
VERTEX
  8
0
 10
6.859264
 20
186.644123
 42
0.004833
  0
VERTEX
  8
0
 10
3.104691
 20
184.516939
 42
0.171465
  0
VERTEX
  8
0
 10
2.463130
 20
183.764514
 42
0.212146
  0
VERTEX
  8
0
 10
2.543972
 20
182.201795
 42
0.003628
  0
VERTEX
  8
0
 10
6.570237
 20
174.411767
 42
0.009024
  0
VERTEX
  8
0
 10
10.569644
 20
167.131446
 42
0.041097
  0
VERTEX
  8
0
 10
13.306831
 20
163.152199
 42
0.251189
  0
VERTEX
  8
0
 10
15.545670
 20
162.221642
 42
0.056334
  0
VERTEX
  8
0
 10
19.725586
 20
163.116166
 42
0.027057
  0
VERTEX
  8
0
 10
26.646278
 20
165.860131
 42
0.004529
  0
VERTEX
  8
0
 10
39.567553
 20
171.953181
 42
-0.004281
  0
VERTEX
  8
0
 10
48.176028
 20
176.017740
 42
-0.011511
  0
VERTEX
  8
0
 10
54.386382
 20
178.713591
 42
-0.010522
  0
VERTEX
  8
0
 10
58.949053
 20
180.459602
 42
-0.148666
  0
VERTEX
  8
0
 10
60.677420
 20
180.544823
 42
-0.071710
  0
VERTEX
  8
0
 10
63.754005
 20
179.283493
 42
-0.007582
  0
VERTEX
  8
0
 10
70.394598
 20
175.235682
 42
-0.003491
  0
VERTEX
  8
0
 10
77.329985
 20
170.794603
 42
-0.247020
  0
VERTEX
  8
0
 10
77.977908
 20
169.636022
 42
-0.129511
  0
VERTEX
  8
0
 10
77.841197
 20
169.057425
 42
-0.004060
  0
VERTEX
  8
0
 10
76.671635
 20
166.904975
 42
-0.007666
  0
VERTEX
  8
0
 10
75.222679
 20
164.381262
 42
-0.005210
  0
VERTEX
  8
0
 10
73.500000
 20
161.552089
 42
0.013188
  0
VERTEX
  8
0
 10
71.777065
 20
158.618116
 42
0.015912
  0
VERTEX
  8
0
 10
70.321875
 20
155.773032
 42
0.014629
  0
VERTEX
  8
0
 10
69.253341
 20
153.325994
 42
0.095906
  0
VERTEX
  8
0
 10
69.000000
 20
152.017364
 42
0.074626
  0
VERTEX
  8
0
 10
69.191502
 20
150.741426
 42
0.014476
  0
VERTEX
  8
0
 10
69.941832
 20
148.528487
 42
0.015097
  0
VERTEX
  8
0
 10
70.978820
 20
145.977070
 42
0.013445
  0
VERTEX
  8
0
 10
72.206236
 20
143.390866
 42
-0.007509
  0
VERTEX
  8
0
 10
73.402547
 20
140.945571
 42
-0.012182
  0
VERTEX
  8
0
 10
74.336621
 20
138.829038
 42
-0.005897
  0
VERTEX
  8
0
 10
75.046465
 20
137.049023
 42
-0.330759
  0
VERTEX
  8
0
 10
74.956236
 20
136.724516
 42
-0.027372
  0
VERTEX
  8
0
 10
71.064418
 20
134.027541
 42
-0.007575
  0
VERTEX
  8
0
 10
64.670258
 20
130.228306
 42
-0.003460
  0
VERTEX
  8
0
 10
57.958295
 20
126.438103
 42
-0.127467
  0
VERTEX
  8
0
 10
56.267725
 20
126.000000
 42
-0.095092
  0
VERTEX
  8
0
 10
54.968182
 20
126.249407
 42
-0.002105
  0
VERTEX
  8
0
 10
49.013391
 20
128.651590
 42
-0.004701
  0
VERTEX
  8
0
 10
42.059137
 20
131.567634
 42
-0.003151
  0
VERTEX
  8
0
 10
34.160083
 20
135.026689
 42
0.004394
  0
VERTEX
  8
0
 10
26.314605
 20
138.439074
 42
0.006976
  0
VERTEX
  8
0
 10
19.533092
 20
141.207078
 42
0.002335
  0
VERTEX
  8
0
 10
13.675862
 20
143.471528
 42
0.233567
  0
VERTEX
  8
0
 10
12.822884
 20
143.390536
 42
0.111855
  0
VERTEX
  8
0
 10
10.714300
 20
141.319736
 42
0.005810
  0
VERTEX
  8
0
 10
5.629167
 20
133.209457
 42
0.005187
  0
VERTEX
  8
0
 10
0.678812
 20
124.914221
 42
0.132688
  0
VERTEX
  8
0
 10
0.000000
 20
122.401324
 42
0.103859
  0
VERTEX
  8
0
 10
0.366894
 20
120.654071
 42
0.123730
  0
VERTEX
  8
0
 10
1.396938
 20
119.327314
 42
0.055780
  0
VERTEX
  8
0
 10
3.584131
 20
117.977345
 42
0.007545
  0
VERTEX
  8
0
 10
8.500000
 20
115.743932
 42
-0.000839
  0
VERTEX
  8
0
 10
11.293202
 20
114.519825
 42
-0.000439
  0
VERTEX
  8
0
 10
14.767946
 20
112.986433
 42
-0.000436
  0
VERTEX
  8
0
 10
18.329005
 20
111.407498
 42
-0.000669
  0
VERTEX
  8
0
 10
21.412157
 20
110.032300
 42
0.000000
  0
VERTEX
  8
0
 10
28.324313
 20
106.938138
 42
0.000000
  0
VERTEX
  8
0
 10
16.988028
 20
99.219069
 42
0.009099
  0
VERTEX
  8
0
 10
12.590836
 20
96.106344
 42
0.012490
  0
VERTEX
  8
0
 10
8.760526
 20
93.138660
 42
0.009244
  0
VERTEX
  8
0
 10
5.701398
 20
90.548129
 42
0.128536
  0
VERTEX
  8
0
 10
4.898547
 20
89.359349
 42
0.124968
  0
VERTEX
  8
0
 10
4.723553
 20
87.413229
 42
0.067264
  0
VERTEX
  8
0
 10
5.424376
 20
85.092665
 42
0.026190
  0
VERTEX
  8
0
 10
7.352744
 20
81.388509
 42
0.002769
  0
VERTEX
  8
0
 10
12.345039
 20
73.020188
 42
0.008193
  0
VERTEX
  8
0
 10
15.039032
 20
68.721468
 42
0.042322
  0
VERTEX
  8
0
 10
16.760175
 20
66.507450
 42
0.083284
  0
VERTEX
  8
0
 10
18.204377
 20
65.388401
 42
0.123887
  0
VERTEX
  8
0
 10
19.747879
 20
65.000000
 42
0.107987
  0
VERTEX
  8
0
 10
21.307744
 20
65.340864
 42
0.011957
  0
VERTEX
  8
0
 10
24.607778
 20
66.952059
 42
0.013766
  0
VERTEX
  8
0
 10
28.563109
 20
69.141891
 42
0.009619
  0
VERTEX
  8
0
 10
32.902840
 20
71.816957
 42
-0.000396
  0
VERTEX
  8
0
 10
37.058801
 20
74.485762
 42
-0.000554
  0
VERTEX
  8
0
 10
40.775844
 20
76.862746
 42
-0.000327
  0
VERTEX
  8
0
 10
43.913196
 20
78.861242
 42
-0.007448
  0
VERTEX
  8
0
 10
44.823438
 20
79.421362
 42
-0.499279
  0
VERTEX
  8
0
 10
45.495867
 20
79.145423
 42
-0.045493
  0
VERTEX
  8
0
 10
45.841641
 20
77.060196
 42
-0.019435
  0
VERTEX
  8
0
 10
45.982736
 20
72.976445
 42
-0.002932
  0
VERTEX
  8
0
 10
45.899300
 20
64.790674
 42
0.004999
  0
VERTEX
  8
0
 10
45.862932
 20
58.788147
 42
0.007368
  0
VERTEX
  8
0
 10
45.961351
 20
53.518302
 42
0.003836
  0
VERTEX
  8
0
 10
46.143784
 20
49.079878
 42
0.126880
  0
VERTEX
  8
0
 10
46.458197
 20
48.067638
 42
0.264817
  0
VERTEX
  8
0
 10
48.230484
 20
47.100646
 42
0.010615
  0
VERTEX
  8
0
 10
55.839872
 20
47.401413
 42
0.018688
  0
VERTEX
  8
0
 10
63.486093
 20
48.153964
 42
0.049250
  0
VERTEX
  8
0
 10
68.834801
 20
49.428341
 42
0.000000
  0
VERTEX
  8
0
 10
72.500000
 20
50.693269
 42
0.000000
  0
VERTEX
  8
0
 10
73.127464
 20
61.096635
 42
0.004806
  0
VERTEX
  8
0
 10
73.377954
 20
66.040081
 42
0.002284
  0
VERTEX
  8
0
 10
73.610207
 20
72.409636
 42
0.002264
  0
VERTEX
  8
0
 10
73.792469
 20
79.071690
 42
0.003210
  0
VERTEX
  8
0
 10
73.889728
 20
85.000000
 42
0.000000
  0
VERTEX
  8
0
 10
74.024529
 20
98.500000
 42
0.000000
  0
VERTEX
  8
0
 10
81.734505
 20
103.000000
 42
-0.002965
  0
VERTEX
  8
0
 10
84.762974
 20
104.743601
 42
-0.004193
  0
VERTEX
  8
0
 10
87.481580
 20
106.257403
 42
-0.002445
  0
VERTEX
  8
0
 10
89.787875
 20
107.501800
 42
-0.058344
  0
VERTEX
  8
0
 10
90.472241
 20
107.769883
 42
-0.306986
  0
VERTEX
  8
0
 10
91.058886
 20
107.563083
 42
-0.008026
  0
VERTEX
  8
0
 10
92.753132
 20
105.190519
 42
-0.014226
  0
VERTEX
  8
0
 10
94.690324
 20
102.205318
 42
-0.008907
  0
VERTEX
  8
0
 10
96.793742
 20
98.610086
 42
0.009739
  0
VERTEX
  8
0
 10
98.945798
 20
94.945733
 42
0.013324
  0
VERTEX
  8
0
 10
101.033660
 20
91.739069
 42
0.010087
  0
VERTEX
  8
0
 10
102.880089
 20
89.174288
 42
0.132689
  0
VERTEX
  8
0
 10
103.793742
 20
88.461065
 42
0.070307
  0
VERTEX
  8
0
 10
104.951458
 20
88.154827
 42
0.005297
  0
VERTEX
  8
0
 10
108.189463
 20
87.805003
 42
0.007231
  0
VERTEX
  8
0
 10
112.077211
 20
87.483285
 42
0.005435
  0
VERTEX
  8
0
 10
116.361878
 20
87.237801
 42
0.000000
  0
VERTEX
  8
0
 10
127.223756
 20
86.733879
 42
0.000000
  0
VERTEX
  8
0
 10
126.861878
 20
75.616939
 42
0.000000
  0
VERTEX
  8
0
 10
126.500000
 20
64.500000
 42
0.000000
  0
VERTEX
  8
0
 10
108.298102
 20
52.274138
 42
0.004422
  0
VERTEX
  8
0
 10
101.247731
 20
47.447511
 42
0.006469
  0
VERTEX
  8
0
 10
95.135132
 20
43.064344
 42
0.003395
  0
VERTEX
  8
0
 10
90.051751
 20
39.265158
 42
0.108116
  0
VERTEX
  8
0
 10
89.048102
 20
38.089879
 42
0.087141
  0
VERTEX
  8
0
 10
88.264871
 20
35.706893
 42
0.092712
  0
VERTEX
  8
0
 10
88.365983
 20
33.253266
 42
0.049494
  0
VERTEX
  8
0
 10
89.491877
 20
29.911710
 42
0.009019
  0
VERTEX
  8
0
 10
92.288983
 20
24.000000
 42
0.009023
  0
VERTEX
  8
0
 10
94.512196
 20
19.708850
 42
0.035538
  0
VERTEX
  8
0
 10
96.110573
 20
17.199210
 42
0.061563
  0
VERTEX
  8
0
 10
97.473870
 20
15.768069
 42
0.137362
  0
VERTEX
  8
0
 10
98.838883
 20
15.168802
 42
0.138443
  0
VERTEX
  8
0
 10
100.487854
 20
15.391879
 42
0.020039
  0
VERTEX
  8
0
 10
103.572796
 20
16.880845
 42
0.017246
  0
VERTEX
  8
0
 10
107.739555
 20
19.290072
 42
0.006582
  0
VERTEX
  8
0
 10
113.377420
 20
22.918802
 42
-0.003055
  0
VERTEX
  8
0
 10
118.115934
 20
26.016163
 42
-0.004733
  0
VERTEX
  8
0
 10
122.247959
 20
28.626148
 42
-0.001605
  0
VERTEX
  8
0
 10
125.835987
 20
30.829397
 42
-0.137732
  0
VERTEX
  8
0
 10
126.443569
 20
31.000000
 42
-0.404914
  0
VERTEX
  8
0
 10
126.778067
 20
30.675991
 42
-0.003994
  0
VERTEX
  8
0
 10
126.865295
 20
27.021651
 42
-0.010009
  0
VERTEX
  8
0
 10
126.847167
 20
22.642771
 42
-0.005941
  0
VERTEX
  8
0
 10
126.659097
 20
17.426662
 42
0.005910
  0
VERTEX
  8
0
 10
126.445478
 20
11.512158
 42
0.012201
  0
VERTEX
  8
0
 10
126.446032
 20
6.885326
 42
0.011828
  0
VERTEX
  8
0
 10
126.614284
 20
3.395592
 42
0.105278
  0
VERTEX
  8
0
 10
127.039249
 20
1.926662
 42
0.161403
  0
VERTEX
  8
0
 10
128.157734
 20
0.864971
 42
0.077611
  0
VERTEX
  8
0
 10
130.077714
 20
0.303720
 42
0.029231
  0
VERTEX
  8
0
 10
133.618584
 20
0.051748
 42
0.003149
  0
VERTEX
  8
0
 10
141.835184
 20
0.000000
 42
0.005417
  0
VERTEX
  8
0
 10
148.087532
 20
0.067738
 42
0.014588
  0
VERTEX
  8
0
 10
152.525919
 20
0.293589
 42
0.014819
  0
VERTEX
  8
0
 10
155.677457
 20
0.640557
 42
0.162947
  0
VERTEX
  8
0
 10
156.800000
 20
1.200000
 42
0.164480
  0
VERTEX
  8
0
 10
157.363386
 20
2.338960
 42
0.014164
  0
VERTEX
  8
0
 10
157.708397
 20
5.612974
 42
0.014079
  0
VERTEX
  8
0
 10
157.933018
 20
10.239909
 42
0.005088
  0
VERTEX
  8
0
 10
158.000000
 20
16.821972
 42
0.000000
  0
VERTEX
  8
0
 10
158.000000
 20
31.243944
 42
0.000000
  0
VERTEX
  8
0
 10
160.250000
 20
29.594852
 42
0.009701
  0
VERTEX
  8
0
 10
168.295545
 20
23.934649
 42
0.011024
  0
VERTEX
  8
0
 10
176.223202
 20
18.834966
 42
0.005870
  0
VERTEX
  8
0
 10
183.324131
 20
14.599221
 42
0.169263
  0
VERTEX
  8
0
 10
185.379001
 20
14.202414
 42
0.151677
  0
VERTEX
  8
0
 10
186.521420
 20
14.748149
 42
0.036151
  0
VERTEX
  8
0
 10
187.977222
 20
16.305163
 42
0.028341
  0
VERTEX
  8
0
 10
189.684996
 20
18.682808
 42
0.012515
  0
VERTEX
  8
0
 10
191.678751
 20
22.000000
 42
0.016750
  0
VERTEX
  8
0
 10
194.697603
 20
27.761261
 42
0.044416
  0
VERTEX
  8
0
 10
196.335715
 20
32.108184
 42
0.067592
  0
VERTEX
  8
0
 10
196.778834
 20
35.331059
 42
0.175360
  0
VERTEX
  8
0
 10
195.996588
 20
37.504112
 42
0.064912
  0
VERTEX
  8
0
 10
194.036904
 20
39.324010
 42
0.000682
  0
VERTEX
  8
0
 10
178.841510
 20
50.113191
 42
0.001312
  0
VERTEX
  8
0
 10
164.289872
 20
60.358268
 42
0.029864
  0
VERTEX
  8
0
 10
159.936361
 20
63.034059
 42
-0.146288
  0
VERTEX
  8
0
 10
158.885647
 20
64.077472
 42
-0.086388
  0
VERTEX
  8
0
 10
158.314822
 20
65.765877
 42
-0.034304
  0
VERTEX
  8
0
 10
158.055568
 20
68.805213
 42
-0.004128
  0
VERTEX
  8
0
 10
158.000000
 20
75.535184
 42
0.000000
  0
VERTEX
  8
0
 10
158.000000
 20
87.000000
 42
0.000000
  0
VERTEX
  8
0
 10
167.565741
 20
87.000000
 42
0.009412
  0
VERTEX
  8
0
 10
171.362425
 20
87.071472
 42
0.011989
  0
VERTEX
  8
0
 10
174.858098
 20
87.287154
 42
0.010018
  0
VERTEX
  8
0
 10
177.755856
 20
87.594396
 42
0.091688
  0
VERTEX
  8
0
 10
178.958042
 20
87.977545
 42
0.094148
  0
VERTEX
  8
0
 10
179.884344
 20
88.725292
 42
0.014615
  0
VERTEX
  8
0
 10
181.362805
 20
90.573582
 42
0.015844
  0
VERTEX
  8
0
 10
182.992679
 20
92.886952
 42
0.013197
  0
VERTEX
  8
0
 10
184.579516
 20
95.442397
 42
-0.009301
  0
VERTEX
  8
0
 10
186.115119
 20
97.958869
 42
-0.012903
  0
VERTEX
  8
0
 10
187.590113
 20
100.150859
 42
-0.009420
  0
VERTEX
  8
0
 10
188.888554
 20
101.905950
 42
-0.138016
  0
VERTEX
  8
0
 10
189.499323
 20
102.361367
 42
-0.233214
  0
VERTEX
  8
0
 10
191.629124
 20
102.165236
 42
-0.008000
  0
VERTEX
  8
0
 10
198.897329
 20
97.546787
 42
-0.009552
  0
VERTEX
  8
0
 10
205.905267
 20
92.740365
 42
-0.167213
  0
VERTEX
  8
0
 10
207.483776
 20
90.525371
 42
-0.053797
  0
VERTEX
  8
0
 10
207.753522
 20
89.045631
 42
-0.001621
  0
VERTEX
  8
0
 10
208.189563
 20
82.788979
 42
-0.003197
  0
VERTEX
  8
0
 10
208.632717
 20
75.405096
 42
-0.002201
  0
VERTEX
  8
0
 10
209.044526
 20
67.032854
 42
0.003179
  0
VERTEX
  8
0
 10
209.564848
 20
56.859903
 42
0.010653
  0
VERTEX
  8
0
 10
210.090106
 20
50.205075
 42
0.010136
  0
VERTEX
  8
0
 10
210.644914
 20
45.617050
 42
0.162607
  0
VERTEX
  8
0
 10
211.333234
 20
44.238195
 42
0.155883
  0
VERTEX
  8
0
 10
213.966551
 20
42.880215
 42
0.012098
  0
VERTEX
  8
0
 10
221.916699
 20
41.738356
 42
0.014693
  0
VERTEX
  8
0
 10
229.850241
 20
41.029812
 42
0.099642
  0
VERTEX
  8
0
 10
233.731091
 20
41.572512
 42
0.000000
  0
VERTEX
  8
0
 10
236.500000
 20
42.544408
 42
0.000000
  0
VERTEX
  8
0
 10
237.000000
 20
58.240234
 42
0.000000
  0
VERTEX
  8
0
 10
237.500000
 20
73.936060
 42
0.000000
  0
VERTEX
  8
0
 10
248.853305
 20
66.468030
 42
0.003843
  0
VERTEX
  8
0
 10
256.310066
 20
61.644792
 42
0.034929
  0
VERTEX
  8
0
 10
259.713934
 20
59.800134
 42
0.094321
  0
VERTEX
  8
0
 10
261.847202
 20
59.280999
 42
0.162042
  0
VERTEX
  8
0
 10
263.592652
 20
59.765313
 42
0.099167
  0
VERTEX
  8
0
 10
265.885586
 20
62.077788
 42
0.005090
  0
VERTEX
  8
0
 10
271.630862
 20
70.976659
 42
0.004052
  0
VERTEX
  8
0
 10
277.314639
 20
80.143826
 42
0.137584
  0
VERTEX
  8
0
 10
278.000000
 20
82.587378
 42
0.139309
  0
VERTEX
  8
0
 10
277.450703
 20
84.520626
 42
0.080118
  0
VERTEX
  8
0
 10
275.853854
 20
86.365101
 42
0.030828
  0
VERTEX
  8
0
 10
272.461336
 20
88.868379
 42
0.003365
  0
VERTEX
  8
0
 10
264.278138
 20
94.082817
 42
-0.003269
  0
VERTEX
  8
0
 10
260.359146
 20
96.578986
 42
-0.005268
  0
VERTEX
  8
0
 10
257.057857
 20
98.761828
 42
-0.001317
  0
VERTEX
  8
0
 10
254.214134
 20
100.696429
 42
-0.245606
  0
VERTEX
  8
0
 10
254.052564
 20
101.000000
 42
-0.288409
  0
VERTEX
  8
0
 10
254.227178
 20
101.282163
 42
-0.001024
  0
VERTEX
  8
0
 10
257.934956
 20
103.087020
 42
-0.004835
  0
VERTEX
  8
0
 10
262.204048
 20
105.103578
 42
-0.002962
  0
VERTEX
  8
0
 10
267.274427
 20
107.402621
 42
0.004030
  0
VERTEX
  8
0
 10
276.134540
 20
111.442877
 42
0.039325
  0
VERTEX
  8
0
 10
279.716485
 20
113.467715
 42
0.107164
  0
VERTEX
  8
0
 10
281.376502
 20
115.199758
 42
0.136395
  0
VERTEX
  8
0
 10
281.984687
 20
117.318475
 42
0.139471
  0
VERTEX
  8
0
 10
281.219335
 20
120.097587
 42
0.007186
  0
VERTEX
  8
0
 10
276.220916
 20
128.065637
 42
0.005086
  0
VERTEX
  8
0
 10
270.890295
 20
136.117320
 42
0.247905
  0
VERTEX
  8
0
 10
269.243649
 20
136.995225
 42
0.094903
  0
VERTEX
  8
0
 10
268.318284
 20
136.821632
 42
0.000939
  0
VERTEX
  8
0
 10
262.021446
 20
134.331695
 42
0.003043
  0
VERTEX
  8
0
 10
254.778183
 20
131.400583
 42
0.001964
  0
VERTEX
  8
0
 10
246.421665
 20
127.921184
 42
0.000000
  0
VERTEX
  8
0
 10
224.856031
 20
118.842367
 42
0.000000
  0
VERTEX
  8
0
 10
216.678016
 20
124.105245
 42
-0.005622
  0
VERTEX
  8
0
 10
208.622473
 20
129.418338
 42
-0.149772
  0
VERTEX
  8
0
 10
207.024254
 20
131.398144
 42
-0.216048
  0
VERTEX
  8
0
 10
207.123668
 20
133.669696
 42
-0.013474
  0
VERTEX
  8
0
 10
210.404569
 20
139.729409
 42
0.012027
  0
VERTEX
  8
0
 10
212.163550
 20
142.955848
 42
0.014626
  0
VERTEX
  8
0
 10
213.647908
 20
146.061697
 42
0.013212
  0
VERTEX
  8
0
 10
214.741458
 20
148.720842
 42
0.091966
  0
VERTEX
  8
0
 10
214.992563
 20
150.098264
 42
0.089739
  0
VERTEX
  8
0
 10
214.739371
 20
151.473299
 42
0.013087
  0
VERTEX
  8
0
 10
213.662117
 20
154.114508
 42
0.014449
  0
VERTEX
  8
0
 10
212.201668
 20
157.197992
 42
0.011936
  0
VERTEX
  8
0
 10
210.473829
 20
160.397932
 42
-0.003250
  0
VERTEX
  8
0
 10
208.763323
 20
163.438233
 42
-0.005407
  0
VERTEX
  8
0
 10
207.366666
 20
166.024476
 42
-0.001174
  0
VERTEX
  8
0
 10
206.183066
 20
168.286923
 42
-0.393145
  0
VERTEX
  8
0
 10
206.231266
 20
168.461409
 42
-0.012292
  0
VERTEX
  8
0
 10
211.740657
 20
171.671192
 42
-0.007237
  0
VERTEX
  8
0
 10
218.471058
 20
175.247922
 42
-0.003101
  0
VERTEX
  8
0
 10
225.136168
 20
178.615138
 42
-0.115914
  0
VERTEX
  8
0
 10
226.773976
 20
179.000000
 42
-0.104808
  0
VERTEX
  8
0
 10
228.032988
 20
178.733160
 42
-0.002120
  0
VERTEX
  8
0
 10
233.989895
 20
176.059038
 42
-0.004914
  0
VERTEX
  8
0
 10
240.931249
 20
172.824893
 42
-0.003272
  0
VERTEX
  8
0
 10
248.825571
 20
168.988214
 42
0.002786
  0
VERTEX
  8
0
 10
259.724395
 20
163.678226
 42
0.016071
  0
VERTEX
  8
0
 10
265.589703
 20
161.089476
 42
0.026241
  0
VERTEX
  8
0
 10
269.249280
 20
159.831721
 42
0.194905
  0
VERTEX
  8
0
 10
271.043718
 20
160.023397
 42
0.029114
  0
VERTEX
  8
0
 10
271.792603
 20
160.482139
 42
0.036486
  0
VERTEX
  8
0
 10
272.425342
 20
160.994606
 42
0.039646
  0
VERTEX
  8
0
 10
272.872561
 20
161.486517
 42
0.166153
  0
VERTEX
  8
0
 10
273.000000
 20
161.859428
 42
-0.117055
  0
VERTEX
  8
0
 10
273.131154
 20
162.411978
 42
-0.002118
  0
VERTEX
  8
0
 10
274.511817
 20
165.127763
 42
-0.005139
  0
VERTEX
  8
0
 10
276.174263
 20
168.283600
 42
-0.003393
  0
VERTEX
  8
0
 10
278.146611
 20
171.877633
 42
0.007406
  0
VERTEX
  8
0
 10
280.536241
 20
176.316125
 42
0.026361
  0
VERTEX
  8
0
 10
281.871110
 20
179.254893
 42
0.038943
  0
VERTEX
  8
0
 10
282.476407
 20
181.241119
 42
0.256236
  0
VERTEX
  8
0
 10
282.195499
 20
182.204501
 42
0.069070
  0
VERTEX
  8
0
 10
281.325968
 20
182.862067
 42
0.002349
  0
VERTEX
  8
0
 10
277.567299
 20
184.939209
 42
0.004383
  0
VERTEX
  8
0
 10
273.086538
 20
187.337225
 42
0.003039
  0
VERTEX
  8
0
 10
267.981407
 20
189.972662
 42
-0.004787
  0
VERTEX
  8
0
 10
261.618194
 20
193.285779
 42
-0.022005
  0
VERTEX
  8
0
 10
258.037960
 20
195.400950
 42
-0.039375
  0
VERTEX
  8
0
 10
256.151631
 20
196.853886
 42
-0.467069
  0
VERTEX
  8
0
 10
256.182518
 20
197.662908
 42
-0.025381
  0
VERTEX
  8
0
 10
257.087730
 20
198.292847
 42
-0.001723
  0
VERTEX
  8
0
 10
259.756740
 20
199.943119
 42
-0.002466
  0
VERTEX
  8
0
 10
262.956756
 20
201.884851
 42
-0.001846
  0
VERTEX
  8
0
 10
266.500000
 20
203.993258
 42
0.007639
  0
VERTEX
  8
0
 10
272.724635
 20
207.795549
 42
0.022956
  0
VERTEX
  8
0
 10
276.806410
 20
210.645575
 42
0.029580
  0
VERTEX
  8
0
 10
279.365573
 20
212.865736
 42
0.201947
  0
VERTEX
  8
0
 10
280.000000
 20
214.372452
 42
0.129283
  0
VERTEX
  8
0
 10
279.445207
 20
216.482250
 42
0.003493
  0
VERTEX
  8
0
 10
274.638240
 20
224.853251
 42
0.006344
  0
VERTEX
  8
0
 10
269.881211
 20
232.772369
 42
0.049886
  0
VERTEX
  8
0
 10
267.277024
 20
236.174557
 42
0.088303
  0
VERTEX
  8
0
 10
265.103032
 20
237.798754
 42
0.193603
  0
VERTEX
  8
0
 10
263.068385
 20
237.968061
 42
0.055459
  0
VERTEX
  8
0
 10
259.947041
 20
236.610469
 42
0.002621
  0
VERTEX
  8
0
 10
250.032637
 20
230.850560
 42
-0.002268
  0
VERTEX
  8
0
 10
245.617286
 20
228.281227
 42
-0.003746
  0
VERTEX
  8
0
 10
241.861835
 20
226.155938
 42
-0.000583
  0
VERTEX
  8
0
 10
238.535315
 20
224.311228
 42
-0.334321
  0
VERTEX
  8
0
 10
238.325902
 20
224.340765
 42
-0.210439
  0
VERTEX
  8
0
 10
238.237905
 20
224.567255
 42
-0.000381
  0
VERTEX
  8
0
 10
238.424043
 20
228.699657
 42
-0.002664
  0
VERTEX
  8
0
 10
238.662402
 20
233.359953
 42
-0.001635
  0
VERTEX
  8
0
 10
238.990483
 20
238.849062
 42
0.003785
  0
VERTEX
  8
0
 10
239.299010
 20
244.412578
 42
0.005544
  0
VERTEX
  8
0
 10
239.479117
 20
249.312251
 42
0.002819
  0
VERTEX
  8
0
 10
239.562132
 20
253.458814
 42
0.095485
  0
VERTEX
  8
0
 10
239.390193
 20
254.425558
 42
0.091444
  0
VERTEX
  8
0
 10
239.044493
 20
254.990944
 42
0.037325
  0
VERTEX
  8
0
 10
238.392137
 20
255.617227
 42
0.035345
  0
VERTEX
  8
0
 10
237.571850
 20
256.202507
 42
0.037801
  0
VERTEX
  8
0
 10
236.694988
 20
256.651797
 42
0.103861
  0
VERTEX
  8
0
 10
233.150847
 20
257.336925
 42
0.011096
  0
VERTEX
  8
0
 10
224.727779
 20
257.014886
 42
0.008411
  0
VERTEX
  8
0
 10
216.160533
 20
256.351940
 42
0.174955
  0
VERTEX
  8
0
 10
213.867643
 20
255.271222
 42
0.170408
  0
VERTEX
  8
0
 10
213.081791
 20
253.629173
 42
0.001907
  0
VERTEX
  8
0
 10
211.777110
 20
241.246579
 42
0.005349
  0
VERTEX
  8
0
 10
210.421159
 20
226.298664
 42
0.002856
  0
VERTEX
  8
0
 10
209.048317
 20
207.794110
 42
-0.226366
  0
VERTEX
  8
0
 10
208.820389
 20
207.390022
 42
-0.004801
  0
VERTEX
  8
0
 10
206.884506
 20
206.058790
 42
-0.010130
  0
VERTEX
  8
0
 10
204.532234
 20
204.542633
 42
-0.006535
  0
VERTEX
  8
0
 10
201.750000
 20
202.877888
 42
0.001265
  0
VERTEX
  8
0
 10
198.815846
 20
201.163979
 42
0.001410
  0
VERTEX
  8
0
 10
195.994856
 20
199.495865
 42
0.001300
  0
VERTEX
  8
0
 10
193.597865
 20
198.060883
 42
0.007430
  0
VERTEX
  8
0
 10
192.338872
 20
197.276999
 42
-0.125496
  0
VERTEX
  8
0
 10
190.943493
 20
196.811388
 42
-0.211452
  0
VERTEX
  8
0
 10
189.801826
 20
197.220883
 42
-0.062892
  0
VERTEX
  8
0
 10
188.443200
 20
198.887215
 42
-0.004630
  0
VERTEX
  8
0
 10
185.360386
 20
203.925046
 42
0.025552
  0
VERTEX
  8
0
 10
181.397004
 20
209.831917
 42
0.113492
  0
VERTEX
  8
0
 10
178.227709
 20
212.516066
 42
0.101281
  0
VERTEX
  8
0
 10
174.022078
 20
213.701846
 42
0.018238
  0
VERTEX
  8
0
 10
165.850777
 20
214.000000
 42
0.000000
  0
VERTEX
  8
0
 10
157.000000
 20
214.000000
 42
0.000000
  0
VERTEX
  8
0
 10
157.000000
 20
224.308870
 42
-0.008312
  0
VERTEX
  8
0
 10
157.075978
 20
228.879047
 42
-0.017868
  0
VERTEX
  8
0
 10
157.318759
 20
232.393169
 42
-0.019921
  0
VERTEX
  8
0
 10
157.695464
 20
234.981136
 42
-0.121417
  0
VERTEX
  8
0
 10
158.250000
 20
236.203043
 42
-0.063998
  0
VERTEX
  8
0
 10
159.277022
 20
237.209508
 42
-0.001855
  0
VERTEX
  8
0
 10
164.165725
 20
240.878000
 42
-0.003712
  0
VERTEX
  8
0
 10
169.977781
 20
245.139064
 42
-0.002545
  0
VERTEX
  8
0
 10
176.633319
 20
249.891621
 42
0.004673
  0
VERTEX
  8
0
 10
183.311523
 20
254.703399
 42
0.006488
  0
VERTEX
  8
0
 10
189.197328
 20
259.147108
 42
0.004184
  0
VERTEX
  8
0
 10
194.045460
 20
262.972523
 42
0.078753
  0
VERTEX
  8
0
 10
195.344860
 20
264.403571
 42
0.078648
  0
VERTEX
  8
0
 10
196.089728
 20
266.057895
 42
0.127219
  0
VERTEX
  8
0
 10
196.109700
 20
267.592478
 42
0.054672
  0
VERTEX
  8
0
 10
195.323153
 20
269.751923
 42
0.005474
  0
VERTEX
  8
0
 10
192.835175
 20
274.656122
 42
0.012138
  0
VERTEX
  8
0
 10
189.833924
 20
280.088952
 42
0.029398
  0
VERTEX
  8
0
 10
187.292668
 20
283.902838
 42
0.037879
  0
VERTEX
  8
0
 10
185.147931
 20
286.337059
 42
0.195644
  0
VERTEX
  8
0
 10
183.518523
 20
287.000000
 42
0.138675
  0
VERTEX
  8
0
 10
182.743788
 20
286.780914
 42
0.002530
  0
VERTEX
  8
0
 10
179.080157
 20
284.503125
 42
0.006055
  0
VERTEX
  8
0
 10
174.828677
 20
281.757536
 42
0.003983
  0
VERTEX
  8
0
 10
170.000000
 20
278.500000
 42
-0.001560
  0
VERTEX
  8
0
 10
165.219889
 20
275.241412
 42
-0.002509
  0
VERTEX
  8
0
 10
161.122613
 20
272.496875
 42
-0.000447
  0
VERTEX
  8
0
 10
157.492714
 20
270.096371
 42
-0.146891
  0
VERTEX
  8
0
 10
157.171756
 20
270.000000
 42
-0.414904
  0
VERTEX
  8
0
 10
156.997184
 20
270.174983
 42
-0.000801
  0
VERTEX
  8
0
 10
157.014511
 20
274.553125
 42
-0.004462
  0
VERTEX
  8
0
 10
157.086988
 20
279.556500
 42
-0.002673
  0
VERTEX
  8
0
 10
157.257937
 20
285.500000
 42
0.000000
  0
VERTEX
  8
0
 10
157.786688
 20
301.000000
 42
0.000000
  0
VERTEX
  8
0
 10
141.912396
 20
301.000000
 42
0.000000
  0
VERTEX
  8
0
 10
126.038104
 20
301.000000
 42
0.000000
  0
SEQEND
  0
POLYLINE
  8
0
 66
1
 70
1
  0
VERTEX
  8
0
 10
153.500000
 20
281.765539
 42
0.002334
  0
VERTEX
  8
0
 10
153.545920
 20
271.929382
 42
0.025370
  0
VERTEX
  8
0
 10
153.783914
 20
267.971919
 42
0.076151
  0
VERTEX
  8
0
 10
154.315799
 20
265.994839
 42
0.246084
  0
VERTEX
  8
0
 10
155.345926
 20
265.172992
 42
0.168353
  0
VERTEX
  8
0
 10
156.613514
 20
265.355183
 42
0.008514
  0
VERTEX
  8
0
 10
160.343206
 20
267.360678
 42
0.012237
  0
VERTEX
  8
0
 10
164.909281
 20
270.065917
 42
0.007078
  0
VERTEX
  8
0
 10
170.270980
 20
273.529045
 42
-0.002647
  0
VERTEX
  8
0
 10
178.454263
 20
278.917995
 42
-0.033958
  0
VERTEX
  8
0
 10
181.655041
 20
280.704871
 42
-0.123423
  0
VERTEX
  8
0
 10
183.455032
 20
281.061643
 42
-0.222686
  0
VERTEX
  8
0
 10
184.755928
 20
280.370843
 42
-0.035672
  0
VERTEX
  8
0
 10
186.226348
 20
278.092393
 42
-0.004744
  0
VERTEX
  8
0
 10
188.935934
 20
273.040519
 42
-0.002117
  0
VERTEX
  8
0
 10
191.736088
 20
267.643277
 42
-0.119146
  0
VERTEX
  8
0
 10
192.000000
 20
266.551487
 42
-0.237665
  0
VERTEX
  8
0
 10
191.837717
 20
266.229361
 42
-0.000380
  0
VERTEX
  8
0
 10
186.554480
 20
262.322864
 42
-0.002774
  0
VERTEX
  8
0
 10
180.569558
 20
257.955670
 42
-0.001696
  0
VERTEX
  8
0
 10
173.462060
 20
252.866090
 42
0.001546
  0
VERTEX
  8
0
 10
166.319469
 20
247.754627
 42
0.002432
  0
VERTEX
  8
0
 10
160.220169
 20
243.315973
 42
0.000608
  0
VERTEX
  8
0
 10
154.914491
 20
239.405290
 42
0.095496
  0
VERTEX
  8
0
 10
154.415284
 20
238.862927
 42
0.124076
  0
VERTEX
  8
0
 10
154.207543
 20
238.206920
 42
0.002576
  0
VERTEX
  8
0
 10
154.018818
 20
234.756517
 42
0.005854
  0
VERTEX
  8
0
 10
153.865402
 20
230.698002
 42
0.003888
  0
VERTEX
  8
0
 10
153.780146
 20
226.039798
 42
0.012922
  0
VERTEX
  8
0
 10
153.930781
 20
216.206854
 42
0.131144
  0
VERTEX
  8
0
 10
155.135461
 20
212.339324
 42
0.212642
  0
VERTEX
  8
0
 10
157.877271
 20
210.507515
 42
0.042096
  0
VERTEX
  8
0
 10
163.904988
 20
209.988994
 42
-0.013819
  0
VERTEX
  8
0
 10
172.153594
 20
209.747207
 42
-0.105269
  0
VERTEX
  8
0
 10
175.879325
 20
208.729287
 42
-0.120496
  0
VERTEX
  8
0
 10
178.640312
 20
206.325699
 42
-0.020378
  0
VERTEX
  8
0
 10
182.465031
 20
200.409561
 42
0.008820
  0
VERTEX
  8
0
 10
185.021004
 20
196.248066
 42
0.033608
  0
VERTEX
  8
0
 10
186.829179
 20
193.797169
 42
0.057154
  0
VERTEX
  8
0
 10
188.282958
 20
192.432476
 42
0.161282
  0
VERTEX
  8
0
 10
189.588830
 20
192.000000
 42
0.125401
  0
VERTEX
  8
0
 10
192.942570
 20
192.854564
 42
0.008687
  0
VERTEX
  8
0
 10
201.493952
 20
197.709656
 42
0.008638
  0
VERTEX
  8
0
 10
209.875545
 20
202.860234
 42
0.126672
  0
VERTEX
  8
0
 10
212.219588
 20
205.373872
 42
0.092233
  0
VERTEX
  8
0
 10
212.737382
 20
206.965344
 42
0.003408
  0
VERTEX
  8
0
 10
213.521318
 20
213.265675
 42
0.006097
  0
VERTEX
  8
0
 10
214.309980
 20
220.764809
 42
0.004235
  0
VERTEX
  8
0
 10
215.025769
 20
229.253958
 42
-0.002944
  0
VERTEX
  8
0
 10
215.711602
 20
237.646536
 42
-0.004647
  0
VERTEX
  8
0
 10
216.409226
 20
244.836841
 42
-0.001321
  0
VERTEX
  8
0
 10
217.088572
 20
251.064492
 42
-0.170041
  0
VERTEX
  8
0
 10
217.420056
 20
251.753958
 42
-0.161142
  0
VERTEX
  8
0
 10
218.035681
 20
252.063771
 42
-0.007057
  0
VERTEX
  8
0
 10
220.449123
 20
252.385664
 42
-0.011355
  0
VERTEX
  8
0
 10
223.366620
 20
252.665931
 42
-0.007801
  0
VERTEX
  8
0
 10
226.684938
 20
252.856812
 42
0.000000
  0
VERTEX
  8
0
 10
235.204347
 20
253.213624
 42
0.000000
  0
VERTEX
  8
0
 10
234.852173
 20
236.856812
 42
0.000000
  0
VERTEX
  8
0
 10
234.500000
 20
220.500000
 42
0.000000
  0
VERTEX
  8
0
 10
237.210219
 20
220.187416
 42
0.109628
  0
VERTEX
  8
0
 10
239.039778
 20
220.377557
 42
0.025760
  0
VERTEX
  8
0
 10
241.922722
 20
221.507195
 42
0.019672
  0
VERTEX
  8
0
 10
245.811913
 20
223.454945
 42
0.007348
  0
VERTEX
  8
0
 10
251.116810
 20
226.480584
 42
-0.007125
  0
VERTEX
  8
0
 10
255.512751
 20
228.990405
 42
-0.010460
  0
VERTEX
  8
0
 10
259.452860
 20
231.059778
 42
-0.006141
  0
VERTEX
  8
0
 10
262.793643
 20
232.675241
 42
-0.160458
  0
VERTEX
  8
0
 10
263.772288
 20
232.793168
 42
-0.179521
  0
VERTEX
  8
0
 10
264.565986
 20
232.302672
 42
-0.010067
  0
VERTEX
  8
0
 10
266.330179
 20
229.942368
 42
-0.014453
  0
VERTEX
  8
0
 10
268.332901
 20
226.969441
 42
-0.010008
  0
VERTEX
  8
0
 10
270.431045
 20
223.500000
 42
0.000000
  0
VERTEX
  8
0
 10
275.630696
 20
214.500000
 42
0.000000
  0
VERTEX
  8
0
 10
261.815348
 20
206.196899
 42
0.006371
  0
VERTEX
  8
0
 10
256.519996
 20
202.921811
 42
0.009968
  0
VERTEX
  8
0
 10
252.058258
 20
199.956508
 42
0.004515
  0
VERTEX
  8
0
 10
248.380178
 20
197.355383
 42
0.241070
  0
VERTEX
  8
0
 10
248.000000
 20
196.612686
 42
0.258453
  0
VERTEX
  8
0
 10
248.398967
 20
195.892409
 42
0.004415
  0
VERTEX
  8
0
 10
252.380774
 20
193.449543
 42
0.010021
  0
VERTEX
  8
0
 10
257.196809
 20
190.682967
 42
0.006349
  0
VERTEX
  8
0
 10
262.913273
 20
187.643547
 42
0.000000
  0
VERTEX
  8
0
 10
277.826547
 20
179.955520
 42
0.000000
  0
VERTEX
  8
0
 10
273.306642
 20
171.977760
 42
-0.003578
  0
VERTEX
  8
0
 10
271.544821
 20
168.919340
 42
-0.005772
  0
VERTEX
  8
0
 10
269.996111
 20
166.343467
 42
-0.001530
  0
VERTEX
  8
0
 10
268.622137
 20
164.132010
 42
-0.258488
  0
VERTEX
  8
0
 10
268.383847
 20
164.000000
 42
-0.114397
  0
VERTEX
  8
0
 10
268.076388
 20
164.071278
 42
-0.000134
  0
VERTEX
  8
0
 10
262.186588
 20
166.959176
 42
-0.001221
  0
VERTEX
  8
0
 10
255.598646
 20
170.211574
 42
-0.000750
  0
VERTEX
  8
0
 10
247.852557
 20
174.073792
 42
0.003717
  0
VERTEX
  8
0
 10
238.292219
 20
178.769982
 42
0.012038
  0
VERTEX
  8
0
 10
231.851049
 20
181.685833
 42
0.012632
  0
VERTEX
  8
0
 10
227.309565
 20
183.477421
 42
0.150213
  0
VERTEX
  8
0
 10
225.443219
 20
183.575105
 42
0.063137
  0
VERTEX
  8
0
 10
222.418214
 20
182.394813
 42
0.004571
  0
VERTEX
  8
0
 10
214.562288
 20
178.028758
 42
0.005306
  0
VERTEX
  8
0
 10
206.871826
 20
173.553596
 42
0.048267
  0
VERTEX
  8
0
 10
203.750000
 20
171.257843
 42
0.117183
  0
VERTEX
  8
0
 10
202.466768
 20
169.409846
 42
0.148251
  0
VERTEX
  8
0
 10
202.302817
 20
167.346450
 42
0.066409
  0
VERTEX
  8
0
 10
203.390497
 20
164.345251
 42
0.009666
  0
VERTEX
  8
0
 10
206.507437
 20
158.634937
 42
-0.004038
  0
VERTEX
  8
0
 10
208.228992
 20
155.563712
 42
-0.006021
  0
VERTEX
  8
0
 10
209.680310
 20
152.847899
 42
-0.002821
  0
VERTEX
  8
0
 10
210.870571
 20
150.522577
 42
-0.117399
  0
VERTEX
  8
0
 10
211.000000
 20
149.978937
 42
-0.121755
  0
VERTEX
  8
0
 10
210.864609
 20
149.431178
 42
-0.002444
  0
VERTEX
  8
0
 10
209.510810
 20
146.890141
 42
-0.005646
  0
VERTEX
  8
0
 10
207.873199
 20
143.932713
 42
-0.003745
  0
VERTEX
  8
0
 10
205.930418
 20
140.574566
 42
0.009139
  0
VERTEX
  8
0
 10
204.011447
 20
137.173448
 42
0.013049
  0
VERTEX
  8
0
 10
202.443903
 20
134.082317
 42
0.008964
  0
VERTEX
  8
0
 10
201.263018
 20
131.475160
 42
0.159580
  0
VERTEX
  8
0
 10
201.180418
 20
130.568750
 42
0.189276
  0
VERTEX
  8
0
 10
202.488235
 20
128.656056
 42
0.003902
  0
VERTEX
  8
0
 10
212.299517
 20
122.099276
 42
0.004763
  0
VERTEX
  8
0
 10
222.075326
 20
115.808494
 42
0.141501
  0
VERTEX
  8
0
 10
224.874984
 20
115.000000
 42
0.089991
  0
VERTEX
  8
0
 10
226.167075
 20
115.234453
 42
0.001974
  0
VERTEX
  8
0
 10
232.147914
 20
117.505796
 42
0.004434
  0
VERTEX
  8
0
 10
239.133147
 20
120.261510
 42
0.002973
  0
VERTEX
  8
0
 10
247.072535
 20
123.530370
 42
-0.003243
  0
VERTEX
  8
0
 10
254.976366
 20
126.779601
 42
-0.005019
  0
VERTEX
  8
0
 10
261.847846
 20
129.472585
 42
-0.001746
  0
VERTEX
  8
0
 10
267.789821
 20
131.709028
 42
-0.142564
  0
VERTEX
  8
0
 10
268.761802
 20
131.780370
 42
-0.177159
  0
VERTEX
  8
0
 10
269.456970
 20
131.343922
 42
-0.012592
  0
VERTEX
  8
0
 10
270.834341
 20
129.471792
 42
-0.016514
  0
VERTEX
  8
0
 10
272.382898
 20
127.087940
 42
-0.011654
  0
VERTEX
  8
0
 10
273.969654
 20
124.315092
 42
-0.009145
  0
VERTEX
  8
0
 10
275.778647
 20
120.824726
 42
-0.034161
  0
VERTEX
  8
0
 10
276.721540
 20
118.541157
 42
-0.059014
  0
VERTEX
  8
0
 10
277.036130
 20
117.031109
 42
-0.256172
  0
VERTEX
  8
0
 10
276.680895
 20
116.222768
 42
-0.046223
  0
VERTEX
  8
0
 10
275.786348
 20
115.658435
 42
-0.001473
  0
VERTEX
  8
0
 10
271.954700
 20
113.724239
 42
-0.002840
  0
VERTEX
  8
0
 10
267.412415
 20
111.480268
 42
-0.001966
  0
VERTEX
  8
0
 10
262.250000
 20
108.991381
 42
0.005373
  0
VERTEX
  8
0
 10
255.733871
 20
105.794940
 42
0.021716
  0
VERTEX
  8
0
 10
251.871952
 20
103.633604
 42
0.031815
  0
VERTEX
  8
0
 10
249.572416
 20
102.001444
 42
0.226227
  0
VERTEX
  8
0
 10
249.000000
 20
100.801057
 42
0.205999
  0
VERTEX
  8
0
 10
249.522147
 20
99.587485
 42
0.020612
  0
VERTEX
  8
0
 10
251.956284
 20
97.465686
 42
0.018526
  0
VERTEX
  8
0
 10
255.684474
 20
94.697509
 42
0.006444
  0
VERTEX
  8
0
 10
261.250000
 20
90.981161
 42
0.001502
  0
VERTEX
  8
0
 10
266.012027
 20
87.909622
 42
0.002275
  0
VERTEX
  8
0
 10
270.175070
 20
85.268747
 42
0.000853
  0
VERTEX
  8
0
 10
273.769890
 20
83.019742
 42
0.055633
  0
VERTEX
  8
0
 10
274.431088
 20
82.703447
 42
-0.463075
  0
VERTEX
  8
0
 10
274.596050
 20
82.276123
 42
-0.006911
  0
VERTEX
  8
0
 10
273.109875
 20
79.636324
 42
-0.013003
  0
VERTEX
  8
0
 10
271.142570
 20
76.446108
 42
-0.007565
  0
VERTEX
  8
0
 10
268.625856
 20
72.717398
 42
0.000000
  0
VERTEX
  8
0
 10
261.889535
 20
63.055522
 42
0.000000
  0
VERTEX
  8
0
 10
253.694768
 20
68.207922
 42
0.000128
  0
VERTEX
  8
0
 10
250.212232
 20
70.396301
 42
0.000107
  0
VERTEX
  8
0
 10
246.524314
 20
72.711323
 42
0.000108
  0
VERTEX
  8
0
 10
243.158216
 20
74.822304
 42
0.000301
  0
VERTEX
  8
0
 10
240.792260
 20
76.303366
 42
0.048976
  0
VERTEX
  8
0
 10
236.121511
 20
78.622338
 42
0.383228
  0
VERTEX
  8
0
 10
234.042504
 20
77.818436
 42
0.113010
  0
VERTEX
  8
0
 10
233.130561
 20
74.168415
 42
0.004942
  0
VERTEX
  8
0
 10
233.000000
 20
60.959428
 42
0.000000
  0
VERTEX
  8
0
 10
233.000000
 20
43.856087
 42
0.000000
  0
VERTEX
  8
0
 10
227.250000
 20
44.463621
 42
-0.001006
  0
VERTEX
  8
0
 10
224.749065
 20
44.732952
 42
-0.000746
  0
VERTEX
  8
0
 10
221.986153
 20
45.040288
 42
-0.000753
  0
VERTEX
  8
0
 10
219.378861
 20
45.338229
 42
-0.001701
  0
VERTEX
  8
0
 10
217.404991
 20
45.573608
 42
0.000000
  0
VERTEX
  8
0
 10
213.309981
 20
46.076061
 42
0.000000
  0
VERTEX
  8
0
 10
212.658322
 20
61.788031
 42
-0.001838
  0
VERTEX
  8
0
 10
212.408594
 20
68.395696
 42
-0.001643
  0
VERTEX
  8
0
 10
212.197109
 20
75.256842
 42
-0.001647
  0
VERTEX
  8
0
 10
212.047677
 20
81.421963
 42
-0.005132
  0
VERTEX
  8
0
 10
212.003331
 20
85.575686
 42
0.008233
  0
VERTEX
  8
0
 10
211.925524
 20
90.185266
 42
0.046317
  0
VERTEX
  8
0
 10
211.616479
 20
92.626745
 42
0.083552
  0
VERTEX
  8
0
 10
210.951982
 20
94.265655
 42
0.068685
  0
VERTEX
  8
0
 10
209.750000
 20
95.724780
 42
0.043355
  0
VERTEX
  8
0
 10
206.615988
 20
98.146671
 42
0.007148
  0
VERTEX
  8
0
 10
200.120169
 20
102.191839
 42
0.006426
  0
VERTEX
  8
0
 10
193.497863
 20
106.070372
 42
0.055793
  0
VERTEX
  8
0
 10
190.364909
 20
107.415319
 42
0.200498
  0
VERTEX
  8
0
 10
188.366787
 20
107.211363
 42
0.076034
  0
VERTEX
  8
0
 10
186.088777
 20
105.482316
 42
0.047411
  0
VERTEX
  8
0
 10
183.462994
 20
102.201983
 42
0.017043
  0
VERTEX
  8
0
 10
180.352568
 20
97.085094
 42
-0.017981
  0
VERTEX
  8
0
 10
178.636594
 20
94.274073
 42
-0.084071
  0
VERTEX
  8
0
 10
177.346032
 20
92.893654
 42
-0.099038
  0
VERTEX
  8
0
 10
175.777280
 20
92.128404
 42
-0.030059
  0
VERTEX
  8
0
 10
173.169146
 20
91.609706
 42
-0.013680
  0
VERTEX
  8
0
 10
171.024978
 20
91.375370
 42
-0.006126
  0
VERTEX
  8
0
 10
168.195134
 20
91.179101
 42
-0.006059
  0
VERTEX
  8
0
 10
165.196487
 20
91.044448
 42
-0.008189
  0
VERTEX
  8
0
 10
162.482873
 20
91.000000
 42
0.015820
  0
VERTEX
  8
0
 10
159.853568
 20
90.916786
 42
0.026944
  0
VERTEX
  8
0
 10
157.670405
 20
90.659849
 42
0.029930
  0
VERTEX
  8
0
 10
156.018496
 20
90.271551
 42
0.152571
  0
VERTEX
  8
0
 10
155.245443
 20
89.750000
 42
0.141924
  0
VERTEX
  8
0
 10
154.842330
 20
88.776267
 42
0.006599
  0
VERTEX
  8
0
 10
154.491561
 20
85.184253
 42
0.010483
  0
VERTEX
  8
0
 10
154.217769
 20
80.856676
 42
0.007295
  0
VERTEX
  8
0
 10
154.082511
 20
75.962350
 42
0.003594
  0
VERTEX
  8
0
 10
154.036996
 20
68.182745
 42
0.035649
  0
VERTEX
  8
0
 10
154.273780
 20
64.927250
 42
0.087088
  0
VERTEX
  8
0
 10
154.920926
 20
62.958698
 42
0.081952
  0
VERTEX
  8
0
 10
156.209513
 20
61.280740
 42
0.028981
  0
VERTEX
  8
0
 10
157.830734
 20
59.930593
 42
0.001705
  0
VERTEX
  8
0
 10
163.000125
 20
56.137191
 42
0.002572
  0
VERTEX
  8
0
 10
169.197735
 20
51.670308
 42
0.001891
  0
VERTEX
  8
0
 10
176.110063
 20
46.781453
 42
0.000000
  0
VERTEX
  8
0
 10
193.720126
 20
34.426125
 42
0.000000
  0
VERTEX
  8
0
 10
189.228600
 20
26.463062
 42
-0.000912
  0
VERTEX
  8
0
 10
187.485576
 20
23.385974
 42
-0.001415
  0
VERTEX
  8
0
 10
185.969101
 20
20.737652
 42
-0.000407
  0
VERTEX
  8
0
 10
184.641417
 20
18.438503
 42
-0.046577
  0
VERTEX
  8
0
 10
184.439681
 20
18.154477
 42
-0.374995
  0
VERTEX
  8
0
 10
184.174268
 20
18.116374
 42
-0.001310
  0
VERTEX
  8
0
 10
181.266964
 20
20.011042
 42
-0.005702
  0
VERTEX
  8
0
 10
177.945146
 20
22.242833
 42
-0.003440
  0
VERTEX
  8
0
 10
174.056559
 20
24.959899
 42
0.010267
  0
VERTEX
  8
0
 10
167.012480
 20
29.740001
 42
0.020027
  0
VERTEX
  8
0
 10
161.175159
 20
33.204523
 42
0.017654
  0
VERTEX
  8
0
 10
156.571055
 20
35.487245
 42
0.249638
  0
VERTEX
  8
0
 10
154.794256
 20
35.372843
 42
0.244369
  0
VERTEX
  8
0
 10
154.473463
 20
34.835095
 42
0.002559
  0
VERTEX
  8
0
 10
154.233313
 20
30.343497
 42
0.007413
  0
VERTEX
  8
0
 10
154.057303
 20
25.087124
 42
0.004662
  0
VERTEX
  8
0
 10
154.000000
 20
18.940983
 42
0.000000
  0
VERTEX
  8
0
 10
154.000000
 20
3.000000
 42
0.000000
  0
VERTEX
  8
0
 10
142.500000
 20
3.000000
 42
0.000000
  0
VERTEX
  8
0
 10
131.000000
 20
3.000000
 42
0.000000
  0
VERTEX
  8
0
 10
131.000000
 20
18.877555
 42
0.003654
  0
VERTEX
  8
0
 10
130.940028
 20
27.083056
 42
0.017331
  0
VERTEX
  8
0
 10
130.708622
 20
31.775402
 42
0.026626
  0
VERTEX
  8
0
 10
130.305897
 20
34.692831
 42
0.173628
  0
VERTEX
  8
0
 10
129.563922
 20
35.946949
 42
0.194001
  0
VERTEX
  8
0
 10
127.986042
 20
36.451487
 42
0.097135
  0
VERTEX
  8
0
 10
125.932589
 20
35.888872
 42
0.026935
  0
VERTEX
  8
0
 10
122.306448
 20
33.836965
 42
0.001760
  0
VERTEX
  8
0
 10
112.163462
 20
27.302398
 42
-0.001965
  0
VERTEX
  8
0
 10
107.756341
 20
24.465691
 42
-0.002989
  0
VERTEX
  8
0
 10
103.903458
 20
22.039370
 42
-0.001100
  0
VERTEX
  8
0
 10
100.571701
 20
19.979085
 42
-0.075348
  0
VERTEX
  8
0
 10
99.963692
 20
19.721154
 42
-0.320723
  0
VERTEX
  8
0
 10
99.486302
 20
19.906271
 42
-0.008270
  0
VERTEX
  8
0
 10
98.189363
 20
21.958381
 42
-0.014523
  0
VERTEX
  8
0
 10
96.717786
 20
24.540302
 42
-0.009027
  0
VERTEX
  8
0
 10
95.135623
 20
27.647804
 42
0.000000
  0
VERTEX
  8
0
 10
91.170788
 20
35.795608
 42
0.000000
  0
VERTEX
  8
0
 10
110.120009
 20
48.423750
 42
0.004288
  0
VERTEX
  8
0
 10
118.700314
 20
54.248712
 42
0.011478
  0
VERTEX
  8
0
 10
124.678659
 20
58.588767
 42
0.011247
  0
VERTEX
  8
0
 10
128.830151
 20
61.900756
 42
0.128601
  0
VERTEX
  8
0
 10
130.034615
 20
63.591045
 42
0.066289
  0
VERTEX
  8
0
 10
130.412596
 20
65.198572
 42
0.007863
  0
VERTEX
  8
0
 10
130.716418
 20
68.858355
 42
0.009283
  0
VERTEX
  8
0
 10
130.929355
 20
73.242311
 42
0.007492
  0
VERTEX
  8
0
 10
131.000000
 20
77.956692
 42
0.010117
  0
VERTEX
  8
0
 10
130.815464
 20
87.075600
 42
0.202078
  0
VERTEX
  8
0
 10
129.655728
 20
89.543811
 42
0.162332
  0
VERTEX
  8
0
 10
126.988714
 20
90.705837
 42
0.005995
  0
VERTEX
  8
0
 10
115.879483
 20
91.563569
 42
0.000000
  0
VERTEX
  8
0
 10
105.258966
 20
92.255591
 42
0.000000
  0
VERTEX
  8
0
 10
99.879483
 20
101.790584
 42
0.007866
  0
VERTEX
  8
0
 10
97.699434
 20
105.516472
 42
0.010519
  0
VERTEX
  8
0
 10
95.598407
 20
108.822199
 42
0.007947
  0
VERTEX
  8
0
 10
93.752355
 20
111.502725
 42
0.099985
  0
VERTEX
  8
0
 10
92.859775
 20
112.338430
 42
0.164663
  0
VERTEX
  8
0
 10
91.675707
 20
112.611675
 42
0.061054
  0
VERTEX
  8
0
 10
89.984941
 20
112.230825
 42
0.035090
  0
VERTEX
  8
0
 10
87.545310
 20
111.159841
 42
0.008970
  0
VERTEX
  8
0
 10
83.761169
 20
109.083923
 42
0.009992
  0
VERTEX
  8
0
 10
75.175771
 20
103.941343
 42
0.102741
  0
VERTEX
  8
0
 10
72.207180
 20
101.094739
 42
0.118123
  0
VERTEX
  8
0
 10
70.803458
 20
97.437196
 42
0.014881
  0
VERTEX
  8
0
 10
69.938634
 20
88.949184
 42
0.005511
  0
VERTEX
  8
0
 10
69.618715
 20
83.690037
 42
0.003100
  0
VERTEX
  8
0
 10
69.340289
 20
77.298607
 42
0.003093
  0
VERTEX
  8
0
 10
69.139100
 20
70.841885
 42
0.005052
  0
VERTEX
  8
0
 10
69.057712
 20
65.365223
 42
0.000000
  0
VERTEX
  8
0
 10
69.000000
 20
53.230447
 42
0.000000
  0
VERTEX
  8
0
 10
63.250000
 20
52.585987
 42
0.002015
  0
VERTEX
  8
0
 10
60.773965
 20
52.298363
 42
0.001575
  0
VERTEX
  8
0
 10
58.087500
 20
51.966730
 42
0.001592
  0
VERTEX
  8
0
 10
55.588052
 20
51.642102
 42
0.003887
  0
VERTEX
  8
0
 10
53.750000
 20
51.382866
 42
0.000000
  0
VERTEX
  8
0
 10
50.000000
 20
50.824204
 42
0.000000
  0
VERTEX
  8
0
 10
49.986345
 20
65.662102
 42
0.004382
  0
VERTEX
  8
0
 10
49.880770
 20
76.564428
 42
0.034491
  0
VERTEX
  8
0
 10
49.439270
 20
81.602916
 42
0.097112
  0
VERTEX
  8
0
 10
48.526417
 20
84.103881
 42
0.262599
  0
VERTEX
  8
0
 10
46.937828
 20
85.000000
 42
0.124366
  0
VERTEX
  8
0
 10
45.753538
 20
84.700801
 42
0.005602
  0
VERTEX
  8
0
 10
42.048989
 20
82.647425
 42
0.009102
  0
VERTEX
  8
0
 10
37.687719
 20
80.059555
 42
0.006362
  0
VERTEX
  8
0
 10
32.863227
 20
76.991233
 42
-0.007160
  0
VERTEX
  8
0
 10
27.920849
 20
73.858992
 42
-0.013397
  0
VERTEX
  8
0
 10
23.821375
 20
71.491301
 42
-0.007700
  0
VERTEX
  8
0
 10
20.484673
 20
69.747541
 42
-0.323518
  0
VERTEX
  8
0
 10
19.731152
 20
69.868848
 42
-0.060755
  0
VERTEX
  8
0
 10
18.347733
 20
71.636580
 42
-0.002147
  0
VERTEX
  8
0
 10
13.899039
 20
79.085407
 42
-0.001119
  0
VERTEX
  8
0
 10
9.302858
 20
86.896658
 42
-0.133182
  0
VERTEX
  8
0
 10
9.000000
 20
88.013496
 42
-0.239572
  0
VERTEX
  8
0
 10
9.219433
 20
88.445180
 42
-0.001678
  0
VERTEX
  8
0
 10
12.650907
 20
90.930762
 42
-0.005922
  0
VERTEX
  8
0
 10
16.664074
 20
93.745695
 42
-0.003696
  0
VERTEX
  8
0
 10
21.428619
 20
96.952716
 42
0.005275
  0
VERTEX
  8
0
 10
26.228871
 20
100.205843
 42
0.007821
  0
VERTEX
  8
0
 10
30.359291
 20
103.165786
 42
0.004025
  0
VERTEX
  8
0
 10
33.779040
 20
105.741217
 42
0.138591
  0
VERTEX
  8
0
 10
34.377953
 20
106.542546
 42
0.318712
  0
VERTEX
  8
0
 10
33.995924
 20
108.034578
 42
0.044591
  0
VERTEX
  8
0
 10
31.241132
 20
109.976179
 42
0.023877
  0
VERTEX
  8
0
 10
26.059272
 20
112.654700
 42
0.004384
  0
VERTEX
  8
0
 10
16.222893
 20
117.054042
 42
-0.006207
  0
VERTEX
  8
0
 10
10.593601
 20
119.596433
 42
-0.020622
  0
VERTEX
  8
0
 10
6.987961
 20
121.463803
 42
-0.024470
  0
VERTEX
  8
0
 10
4.727620
 20
122.906356
 42
-0.342591
  0
VERTEX
  8
0
 10
4.465888
 20
123.771702
 42
-0.039966
  0
VERTEX
  8
0
 10
6.000810
 20
126.979507
 42
-0.007412
  0
VERTEX
  8
0
 10
9.371710
 20
132.590158
 42
-0.002391
  0
VERTEX
  8
0
 10
13.116869
 20
138.555609
 42
-0.256780
  0
VERTEX
  8
0
 10
13.925128
 20
139.000000
 42
-0.100755
  0
VERTEX
  8
0
 10
14.552998
 20
138.872180
 42
-0.000505
  0
VERTEX
  8
0
 10
20.494261
 20
136.341501
 42
-0.002262
  0
VERTEX
  8
0
 10
27.251416
 20
133.419008
 42
-0.001428
  0
VERTEX
  8
0
 10
35.112903
 20
129.949791
 42
0.004442
  0
VERTEX
  8
0
 10
43.703583
 20
126.220498
 42
0.009031
  0
VERTEX
  8
0
 10
50.532558
 20
123.472190
 42
0.005871
  0
VERTEX
  8
0
 10
55.930002
 20
121.484750
 42
0.148693
  0
VERTEX
  8
0
 10
57.481884
 20
121.413551
 42
0.074559
  0
VERTEX
  8
0
 10
60.936720
 20
122.866979
 42
0.005707
  0
VERTEX
  8
0
 10
69.522571
 20
128.231638
 42
0.003438
  0
VERTEX
  8
0
 10
78.351258
 20
133.975165
 42
0.156445
  0
VERTEX
  8
0
 10
79.695196
 20
135.648076
 42
0.168108
  0
VERTEX
  8
0
 10
79.725346
 20
136.552962
 42
0.013942
  0
VERTEX
  8
0
 10
78.957059
 20
138.813102
 42
0.017398
  0
VERTEX
  8
0
 10
77.845392
 20
141.514845
 42
0.012520
  0
VERTEX
  8
0
 10
76.426074
 20
144.451707
 42
0.000000
  0
VERTEX
  8
0
 10
72.618365
 20
151.851803
 42
0.000000
  0
VERTEX
  8
0
 10
77.120789
 20
159.175901
 42
0.005591
  0
VERTEX
  8
0
 10
80.669005
 20
165.095130
 42
0.040121
  0
VERTEX
  8
0
 10
82.113074
 20
168.095090
 42
0.091975
  0
VERTEX
  8
0
 10
82.492024
 20
170.120102
 42
0.123867
  0
VERTEX
  8
0
 10
82.041600
 20
171.922270
 42
0.130256
  0
VERTEX
  8
0
 10
79.715140
 20
174.417298
 42
0.008751
  0
VERTEX
  8
0
 10
71.298167
 20
179.506152
 42
0.009223
  0
VERTEX
  8
0
 10
62.736418
 20
184.271048
 42
0.118435
  0
VERTEX
  8
0
 10
59.213158
 20
185.184314
 42
0.105899
  0
VERTEX
  8
0
 10
56.343503
 20
184.623026
 42
0.002435
  0
VERTEX
  8
0
 10
43.547607
 20
179.076174
 42
0.006105
  0
VERTEX
  8
0
 10
30.978082
 20
173.370514
 42
0.013249
  0
VERTEX
  8
0
 10
21.500000
 20
168.617563
 42
-0.014480
  0
VERTEX
  8
0
 10
20.266114
 20
168.002607
 42
-0.016034
  0
VERTEX
  8
0
 10
19.039456
 20
167.482051
 42
-0.015557
  0
VERTEX
  8
0
 10
17.969795
 20
167.105885
 42
-0.075582
  0
VERTEX
  8
0
 10
17.336445
 20
167.006161
 42
-0.255554
  0
VERTEX
  8
0
 10
16.224533
 20
167.606551
 42
-0.004117
  0
VERTEX
  8
0
 10
12.265525
 20
173.823313
 42
-0.006153
  0
VERTEX
  8
0
 10
8.548001
 20
179.934385
 42
-0.134353
  0
VERTEX
  8
0
 10
8.000000
 20
181.936981
 42
-0.275585
  0
VERTEX
  8
0
 10
8.256855
 20
182.367605
 42
-0.001963
  0
VERTEX
  8
0
 10
12.131358
 20
184.440336
 42
-0.006669
  0
VERTEX
  8
0
 10
16.672421
 20
186.769736
 42
-0.004132
  0
VERTEX
  8
0
 10
22.064197
 20
189.389993
 42
0.003886
  0
VERTEX
  8
0
 10
29.850222
 20
193.169062
 42
0.026978
  0
VERTEX
  8
0
 10
33.540018
 20
195.250394
 42
0.061361
  0
VERTEX
  8
0
 10
35.379326
 20
196.768743
 42
0.231112
  0
VERTEX
  8
0
 10
35.814197
 20
198.155472
 42
0.177835
  0
VERTEX
  8
0
 10
35.086731
 20
199.479661
 42
0.023265
  0
VERTEX
  8
0
 10
32.524801
 20
201.509061
 42
0.018817
  0
VERTEX
  8
0
 10
28.529249
 20
204.159939
 42
0.006001
  0
VERTEX
  8
0
 10
22.393576
 20
207.805773
 42
0.000000
  0
VERTEX
  8
0
 10
9.287153
 20
215.382315
 42
0.000000
  0
VERTEX
  8
0
 10
15.212697
 20
225.191157
 42
-0.005813
  0
VERTEX
  8
0
 10
17.544090
 20
228.950966
 42
-0.009144
  0
VERTEX
  8
0
 10
19.642028
 20
232.118653
 42
-0.003828
  0
VERTEX
  8
0
 10
21.484254
 20
234.749358
 42
-0.242658
  0
VERTEX
  8
0
 10
21.970295
 20
235.000000
 42
-0.133755
  0
VERTEX
  8
0
 10
22.555809
 20
234.840516
 42
-0.001589
  0
VERTEX
  8
0
 10
26.003774
 20
232.796875
 42
-0.004652
  0
VERTEX
  8
0
 10
29.976684
 20
230.374578
 42
-0.003007
  0
VERTEX
  8
0
 10
34.532873
 20
227.500000
 42
0.007192
  0
VERTEX
  8
0
 10
42.122686
 20
222.799800
 42
0.040996
  0
VERTEX
  8
0
 10
46.374756
 20
220.702933
 42
0.099470
  0
VERTEX
  8
0
 10
48.982764
 20
220.233980
 42
0.254502
  0
VERTEX
  8
0
 10
50.595766
 20
221.154953
 42
0.129073
  0
VERTEX
  8
0
 10
50.876391
 20
222.072367
 42
0.002821
  0
VERTEX
  8
0
 10
51.038506
 20
226.771997
 42
0.006249
  0
VERTEX
  8
0
 10
51.128978
 20
232.307598
 42
0.004157
  0
VERTEX
  8
0
 10
51.100607
 20
238.654953
 42
0.000000
  0
VERTEX
  8
0
 10
50.891648
 20
255.000000
 42
0.000000
  0
VERTEX
  8
0
 10
56.695824
 20
254.988994
 42
-0.008651
  0
VERTEX
  8
0
 10
59.181396
 20
254.941270
 42
-0.006963
  0
VERTEX
  8
0
 10
61.851016
 20
254.806539
 42
-0.007046
  0
VERTEX
  8
0
 10
64.314218
 20
254.612926
 42
-0.017853
  0
VERTEX
  8
0
 10
66.094869
 20
254.383326
 42
0.000000
  0
VERTEX
  8
0
 10
69.689739
 20
253.788664
 42
0.000000
  0
VERTEX
  8
0
 10
70.666978
 20
231.990301
 42
0.002814
  0
VERTEX
  8
0
 10
71.240473
 20
220.627514
 42
0.012941
  0
VERTEX
  8
0
 10
71.780206
 20
214.055053
 42
0.020274
  0
VERTEX
  8
0
 10
72.404484
 20
209.878062
 42
0.098098
  0
VERTEX
  8
0
 10
73.299849
 20
207.665125
 42
0.106891
  0
VERTEX
  8
0
 10
76.374191
 20
204.637252
 42
0.012054
  0
VERTEX
  8
0
 10
84.814591
 20
199.569754
 42
0.008389
  0
VERTEX
  8
0
 10
93.672379
 20
194.732794
 42
0.215614
  0
VERTEX
  8
0
 10
96.340163
 20
194.577038
 42
0.107350
  0
VERTEX
  8
0
 10
97.209556
 20
195.146996
 42
0.012788
  0
VERTEX
  8
0
 10
98.790141
 20
196.840067
 42
0.014785
  0
VERTEX
  8
0
 10
100.580172
 20
198.983003
 42
0.011639
  0
VERTEX
  8
0
 10
102.393892
 20
201.403506
 42
-0.012613
  0
VERTEX
  8
0
 10
106.637440
 20
207.043824
 42
-0.095616
  0
VERTEX
  8
0
 10
109.150698
 20
209.203649
 42
-0.116069
  0
VERTEX
  8
0
 10
112.088298
 20
210.074363
 42
-0.022245
  0
VERTEX
  8
0
 10
117.687074
 20
210.144732
 42
0.011924
  0
VERTEX
  8
0
 10
121.357781
 20
210.115117
 42
0.029414
  0
VERTEX
  8
0
 10
124.042962
 20
210.315777
 42
0.040377
  0
VERTEX
  8
0
 10
126.061801
 20
210.754761
 42
0.071426
  0
VERTEX
  8
0
 10
127.602807
 20
211.475405
 42
0.100177
  0
VERTEX
  8
0
 10
128.976445
 20
212.833554
 42
0.107126
  0
VERTEX
  8
0
 10
129.672923
 20
214.587782
 42
0.038054
  0
VERTEX
  8
0
 10
129.949250
 20
217.704358
 42
0.003090
  0
VERTEX
  8
0
 10
130.000000
 20
225.915949
 42
0.000000
  0
VERTEX
  8
0
 10
130.000000
 20
238.785792
 42
0.000000
  0
VERTEX
  8
0
 10
110.031370
 20
253.077009
 42
0.000000
  0
VERTEX
  8
0
 10
90.062739
 20
267.368226
 42
0.000000
  0
VERTEX
  8
0
 10
94.281370
 20
275.191793
 42
-0.011246
  0
VERTEX
  8
0
 10
95.971035
 20
278.163348
 42
-0.018135
  0
VERTEX
  8
0
 10
97.555971
 20
280.604902
 42
-0.012454
  0
VERTEX
  8
0
 10
98.939464
 20
282.474955
 42
-0.329286
  0
VERTEX
  8
0
 10
99.504915
 20
282.633112
 42
-0.055960
  0
VERTEX
  8
0
 10
100.212179
 20
282.269136
 42
-0.000937
  0
VERTEX
  8
0
 10
103.877451
 20
279.820566
 42
-0.002400
  0
VERTEX
  8
0
 10
108.127719
 20
276.939988
 42
-0.001592
  0
VERTEX
  8
0
 10
112.978987
 20
273.595261
 42
0.006637
  0
VERTEX
  8
0
 10
117.864671
 20
270.299031
 42
0.009966
  0
VERTEX
  8
0
 10
122.220691
 20
267.566083
 42
0.005294
  0
VERTEX
  8
0
 10
125.936262
 20
265.390057
 42
0.179250
  0
VERTEX
  8
0
 10
126.930226
 20
265.225079
 42
0.246615
  0
VERTEX
  8
0
 10
128.374583
 20
266.378418
 42
0.064719
  0
VERTEX
  8
0
 10
129.232291
 20
269.315531
 42
0.031163
  0
VERTEX
  8
0
 10
129.718474
 20
274.553189
 42
0.005751
  0
VERTEX
  8
0
 10
129.900320
 20
284.250000
 42
0.000000
  0
VERTEX
  8
0
 10
130.000000
 20
298.000000
 42
0.000000
  0
VERTEX
  8
0
 10
141.750000
 20
298.000749
 42
0.000000
  0
VERTEX
  8
0
 10
153.500000
 20
298.001498
 42
0.000000
  0
SEQEND
  0
POLYLINE
  8
0
 66
1
 70
1
  0
VERTEX
  8
0
 10
137.200000
 20
288.800000
 42
0.093371
  0
VERTEX
  8
0
 10
136.738524
 20
288.124296
 42
0.035226
  0
VERTEX
  8
0
 10
136.352500
 20
287.041875
 42
0.033385
  0
VERTEX
  8
0
 10
136.088524
 20
285.774826
 42
0.034678
  0
VERTEX
  8
0
 10
136.000000
 20
284.500000
 42
0.062831
  0
VERTEX
  8
0
 10
136.321882
 20
281.948609
 42
0.138161
  0
VERTEX
  8
0
 10
137.299997
 20
280.262174
 42
0.134885
  0
VERTEX
  8
0
 10
139.033121
 20
279.309765
 42
0.058650
  0
VERTEX
  8
0
 10
141.664816
 20
279.000000
 42
0.086391
  0
VERTEX
  8
0
 10
143.984048
 20
279.403735
 42
0.130291
  0
VERTEX
  8
0
 10
145.663254
 20
280.562012
 42
0.116615
  0
VERTEX
  8
0
 10
146.666705
 20
282.510046
 42
0.060945
  0
VERTEX
  8
0
 10
147.000000
 20
285.234259
 42
0.083062
  0
VERTEX
  8
0
 10
146.650019
 20
287.326476
 42
0.132089
  0
VERTEX
  8
0
 10
145.639986
 20
288.821550
 42
0.118998
  0
VERTEX
  8
0
 10
143.927009
 20
289.707069
 42
0.060130
  0
VERTEX
  8
0
 10
141.500000
 20
290.000000
 42
0.034678
  0
VERTEX
  8
0
 10
140.225174
 20
289.911476
 42
0.033385
  0
VERTEX
  8
0
 10
138.958125
 20
289.647500
 42
0.035226
  0
VERTEX
  8
0
 10
137.875704
 20
289.261476
 42
0.093371
  0
SEQEND
  0
POLYLINE
  8
0
 66
1
 70
1
  0
VERTEX
  8
0
 10
144.500000
 20
284.500000
 42
-0.030694
  0
VERTEX
  8
0
 10
144.396354
 20
282.813227
 42
-0.166609
  0
VERTEX
  8
0
 10
144.001141
 20
282.001146
 42
-0.167409
  0
VERTEX
  8
0
 10
143.192051
 20
281.604362
 42
-0.031061
  0
VERTEX
  8
0
 10
141.513695
 20
281.500000
 42
-0.037292
  0
VERTEX
  8
0
 10
140.133780
 20
281.603064
 42
-0.087177
  0
VERTEX
  8
0
 10
139.155455
 20
281.930548
 42
-0.116726
  0
VERTEX
  8
0
 10
138.521990
 20
282.496683
 42
-0.105087
  0
VERTEX
  8
0
 10
138.179122
 20
283.308413
 42
-0.066027
  0
VERTEX
  8
0
 10
138.055318
 20
285.426284
 42
-0.150013
  0
VERTEX
  8
0
 10
138.631095
 20
286.905159
 42
-0.167989
  0
VERTEX
  8
0
 10
139.879976
 20
287.703617
 42
-0.087849
  0
VERTEX
  8
0
 10
141.744314
 20
287.816971
 42
-0.041896
  0
VERTEX
  8
0
 10
143.205933
 20
287.523327
 42
-0.150000
  0
VERTEX
  8
0
 10
143.993945
 20
287.007288
 42
-0.139669
  0
VERTEX
  8
0
 10
144.388354
 20
286.113772
 42
-0.034550
  0
SEQEND
  0
ENDSEC
  0
EOF
