  0
SECTION
  2
HEADER
  9
$ACADVER
  1
AC1006
  9
$EXTMIN
 10
0.000000
 20
0.000000
 30
0.000000
  9
$EXTMAX
 10
283.000000
 20
301.000000
 30
0.000000
  0
ENDSEC
  0
SECTION
  2
ENTITIES
  0
POLYLINE
  8
0
 66
1
 70
1
  0
VERTEX
  8
0
 10
127.000000
 20
284.569161
 42
0.000000
  0
VERTEX
  8
0
 10
127.000000
 20
268.138321
 42
0.000000
  0
VERTEX
  8
0
 10
113.750000
 20
277.203803
 42
0.002944
  0
VERTEX
  8
0
 10
108.563315
 20
280.707816
 42
0.004291
  0
VERTEX
  8
0
 10
103.947707
 20
283.729688
 42
0.002174
  0
VERTEX
  8
0
 10
100.004790
 20
286.238914
 42
0.073033
  0
VERTEX
  8
0
 10
98.986875
 20
286.689330
 42
0.287799
  0
VERTEX
  8
0
 10
98.009141
 20
286.397912
 42
0.029568
  0
VERTEX
  8
0
 10
96.460051
 20
284.408322
 42
0.022830
  0
VERTEX
  8
0
 10
94.430446
 20
281.147782
 42
0.006802
  0
VERTEX
  8
0
 10
91.631265
 20
275.993631
 42
0.003190
  0
VERTEX
  8
0
 10
89.416637
 20
271.714065
 42
0.005286
  0
VERTEX
  8
0
 10
87.609469
 20
268.071923
 42
0.001129
  0
VERTEX
  8
0
 10
86.077699
 20
264.882698
 42
0.370118
  0
VERTEX
  8
0
 10
86.144389
 20
264.635455
 42
0.034887
  0
VERTEX
  8
0
 10
86.383027
 20
264.496076
 42
0.002987
  0
VERTEX
  8
0
 10
87.019803
 20
264.186200
 42
0.003937
  0
VERTEX
  8
0
 10
87.785301
 20
263.826708
 42
0.003041
  0
VERTEX
  8
0
 10
88.625154
 20
263.446511
 42
-0.040367
  0
VERTEX
  8
0
 10
90.068728
 20
262.658447
 42
-0.001380
  0
VERTEX
  8
0
 10
95.453593
 20
259.106163
 42
-0.002586
  0
VERTEX
  8
0
 10
101.783630
 20
254.857925
 42
-0.001801
  0
VERTEX
  8
0
 10
108.886643
 20
250.000000
 42
0.000000
  0
VERTEX
  8
0
 10
127.022977
 20
237.500000
 42
0.000000
  0
VERTEX
  8
0
 10
126.761488
 20
225.000000
 42
0.000000
  0
VERTEX
  8
0
 10
126.500000
 20
212.500000
 42
0.000000
  0
VERTEX
  8
0
 10
116.345174
 20
212.500000
 42
0.000000
  0
VERTEX
  8
0
 10
106.190348
 20
212.500000
 42
0.000000
  0
VERTEX
  8
0
 10
101.453999
 20
204.721766
 42
-0.004556
  0
VERTEX
  8
0
 10
99.578506
 20
201.704001
 42
-0.006601
  0
VERTEX
  8
0
 10
97.863076
 20
199.076428
 42
-0.003631
  0
VERTEX
  8
0
 10
96.373785
 20
196.894133
 42
-0.103142
  0
VERTEX
  8
0
 10
95.880625
 20
196.426222
 42
-0.270775
  0
VERTEX
  8
0
 10
94.732323
 20
196.397846
 42
-0.001857
  0
VERTEX
  8
0
 10
85.782233
 20
201.379203
 42
-0.003131
  0
VERTEX
  8
0
 10
77.169815
 20
206.285769
 42
-0.127538
  0
VERTEX
  8
0
 10
75.645550
 20
207.787093
 42
-0.117468
  0
VERTEX
  8
0
 10
75.247303
 20
209.050277
 42
-0.000385
  0
VERTEX
  8
0
 10
74.079975
 20
225.516660
 42
-0.002339
  0
VERTEX
  8
0
 10
73.098142
 20
240.525370
 42
-0.008423
  0
VERTEX
  8
0
 10
72.678160
 20
250.107519
 42
0.000000
  0
VERTEX
  8
0
 10
72.500000
 20
256.715039
 42
0.000000
  0
VERTEX
  8
0
 10
60.649585
 20
257.354477
 42
0.005323
  0
VERTEX
  8
0
 10
56.035462
 20
257.554208
 42
0.007862
  0
VERTEX
  8
0
 10
51.983440
 20
257.622654
 42
0.004124
  0
VERTEX
  8
0
 10
48.572083
 20
257.598496
 42
0.135379
  0
VERTEX
  8
0
 10
47.788823
 20
257.369485
 42
0.263267
  0
VERTEX
  8
0
 10
47.151394
 20
256.209226
 42
0.004407
  0
VERTEX
  8
0
 10
47.313120
 20
248.615593
 42
0.010297
  0
VERTEX
  8
0
 10
47.762862
 20
239.752692
 42
0.007126
  0
VERTEX
  8
0
 10
48.620635
 20
229.750000
 42
-0.013232
  0
VERTEX
  8
0
 10
48.795861
 20
227.364837
 42
-0.029824
  0
VERTEX
  8
0
 10
48.772740
 20
225.553050
 42
-0.036385
  0
VERTEX
  8
0
 10
48.591226
 20
224.311155
 42
-0.351749
  0
VERTEX
  8
0
 10
48.203653
 20
224.000000
 42
-0.132339
  0
VERTEX
  8
0
 10
46.402618
 20
224.485191
 42
-0.001560
  0
VERTEX
  8
0
 10
35.732075
 20
230.728900
 42
-0.003196
  0
VERTEX
  8
0
 10
25.666938
 20
236.747603
 42
-0.052559
  0
VERTEX
  8
0
 10
22.551714
 20
239.117493
 42
0.189170
  0
VERTEX
  8
0
 10
21.181707
 20
239.666983
 42
0.216466
  0
VERTEX
  8
0
 10
19.901397
 20
239.097020
 42
0.044805
  0
VERTEX
  8
0
 10
18.123055
 20
236.688753
 42
0.002522
  0
VERTEX
  8
0
 10
13.334135
 20
228.726064
 42
0.003706
  0
VERTEX
  8
0
 10
10.546088
 20
223.956796
 42
0.005563
  0
VERTEX
  8
0
 10
8.190673
 20
219.750536
 42
0.002467
  0
VERTEX
  8
0
 10
6.244143
 20
216.139635
 42
0.115902
  0
VERTEX
  8
0
 10
6.032421
 20
215.339590
 42
0.252712
  0
VERTEX
  8
0
 10
6.372249
 20
214.665807
 42
0.003990
  0
VERTEX
  8
0
 10
10.036575
 20
212.155521
 42
0.009446
  0
VERTEX
  8
0
 10
14.456547
 20
209.298973
 42
0.005985
  0
VERTEX
  8
0
 10
19.709112
 20
206.129720
 42
0.000000
  0
VERTEX
  8
0
 10
33.418224
 20
198.080262
 42
0.000000
  0
VERTEX
  8
0
 10
17.642565
 20
190.552315
 42
0.004573
  0
VERTEX
  8
0
 10
10.309296
 20
186.970275
 42
0.016392
  0
VERTEX
  8
0
 10
5.725510
 20
184.488102
 42
0.017158
  0
VERTEX
  8
0
 10
2.806755
 20
182.644348
 42
0.394896
  0
VERTEX
  8
0
 10
2.608664
 20
181.762184
 42
0.007378
  0
VERTEX
  8
0
 10
4.449315
 20
178.733335
 42
0.000557
  0
VERTEX
  8
0
 10
9.568522
 20
170.603103
 42
0.000134
  0
VERTEX
  8
0
 10
15.177458
 20
161.722319
 42
0.039121
  0
VERTEX
  8
0
 10
15.695622
 20
161.028960
 42
0.228152
  0
VERTEX
  8
0
 10
15.908401
 20
160.938451
 42
0.118741
  0
VERTEX
  8
0
 10
16.191731
 20
161.020789
 42
0.077878
  0
VERTEX
  8
0
 10
16.507838
 20
161.273620
 42
0.044715
  0
VERTEX
  8
0
 10
16.804373
 20
161.662602
 42
-0.113562
  0
VERTEX
  8
0
 10
17.382901
 20
162.237974
 42
-0.009545
  0
VERTEX
  8
0
 10
19.205035
 20
163.323833
 42
-0.012304
  0
VERTEX
  8
0
 10
21.459703
 20
164.537247
 42
-0.009199
  0
VERTEX
  8
0
 10
24.000000
 20
165.766600
 42
-0.000338
  0
VERTEX
  8
0
 10
42.427128
 20
174.254372
 42
-0.001873
  0
VERTEX
  8
0
 10
52.360170
 20
178.776525
 42
-0.000828
  0
VERTEX
  8
0
 10
59.116882
 20
181.808661
 42
-0.105430
  0
VERTEX
  8
0
 10
60.014222
 20
182.000000
 42
-0.131112
  0
VERTEX
  8
0
 10
60.990279
 20
181.739579
 42
-0.000668
  0
VERTEX
  8
0
 10
69.770520
 20
176.679563
 42
-0.001249
  0
VERTEX
  8
0
 10
78.227617
 20
171.762476
 42
-0.064152
  0
VERTEX
  8
0
 10
79.731337
 20
170.601996
 42
-0.329414
  0
VERTEX
  8
0
 10
79.793134
 20
170.190219
 42
-0.003781
  0
VERTEX
  8
0
 10
78.398009
 20
167.606070
 42
-0.009665
  0
VERTEX
  8
0
 10
76.660592
 20
164.585144
 42
-0.005936
  0
VERTEX
  8
0
 10
74.503698
 20
161.091747
 42
0.000000
  0
VERTEX
  8
0
 10
68.785657
 20
152.071900
 42
0.000000
  0
VERTEX
  8
0
 10
72.962241
 20
144.827711
 42
-0.002238
  0
VERTEX
  8
0
 10
74.575724
 20
141.999984
 42
-0.003298
  0
VERTEX
  8
0
 10
75.965002
 20
139.501315
 42
-0.001540
  0
VERTEX
  8
0
 10
77.126627
 20
137.363637
 42
-0.061946
  0
VERTEX
  8
0
 10
77.319413
 20
136.867991
 42
-0.302071
  0
VERTEX
  8
0
 10
77.165924
 20
136.433381
 42
-0.003353
  0
VERTEX
  8
0
 10
74.536477
 20
134.484261
 42
-0.008963
  0
VERTEX
  8
0
 10
71.377384
 20
132.260961
 42
-0.005551
  0
VERTEX
  8
0
 10
67.591998
 20
129.757954
 42
0.000000
  0
VERTEX
  8
0
 10
57.683995
 20
123.363448
 42
0.000000
  0
VERTEX
  8
0
 10
36.591998
 20
132.294110
 42
-0.001867
  0
VERTEX
  8
0
 10
28.415478
 20
135.792238
 42
-0.002811
  0
VERTEX
  8
0
 10
21.316137
 20
138.908428
 42
-0.001121
  0
VERTEX
  8
0
 10
15.249997
 20
141.628198
 42
-0.064172
  0
VERTEX
  8
0
 10
14.207618
 20
142.270005
 42
0.217865
  0
VERTEX
  8
0
 10
13.012326
 20
142.576532
 42
0.180576
  0
VERTEX
  8
0
 10
11.871825
 20
141.900158
 42
0.036640
  0
VERTEX
  8
0
 10
10.228640
 20
139.523664
 42
0.001960
  0
VERTEX
  8
0
 10
5.606096
 20
131.594034
 42
0.005588
  0
VERTEX
  8
0
 10
2.652723
 20
126.347282
 42
0.030612
  0
VERTEX
  8
0
 10
1.267035
 20
123.406262
 42
0.063506
  0
VERTEX
  8
0
 10
0.795349
 20
121.576278
 42
0.245889
  0
VERTEX
  8
0
 10
1.191680
 20
120.512997
 42
0.070422
  0
VERTEX
  8
0
 10
2.197129
 20
119.838070
 42
0.002978
  0
VERTEX
  8
0
 10
6.081306
 20
117.987524
 42
0.005072
  0
VERTEX
  8
0
 10
10.732919
 20
115.862546
 42
0.003582
  0
VERTEX
  8
0
 10
16.000000
 20
113.565740
 42
-0.002347
  0
VERTEX
  8
0
 10
21.231065
 20
111.299996
 42
-0.003533
  0
VERTEX
  8
0
 10
25.767880
 20
109.271263
 42
-0.001436
  0
VERTEX
  8
0
 10
29.634959
 20
107.495694
 42
-0.079534
  0
VERTEX
  8
0
 10
30.294911
 20
107.051866
 42
-0.483307
  0
VERTEX
  8
0
 10
30.210469
 20
106.003697
 42
-0.001987
  0
VERTEX
  8
0
 10
19.133314
 20
98.650494
 42
-0.004182
  0
VERTEX
  8
0
 10
8.481962
 20
91.767733
 42
-0.105286
  0
VERTEX
  8
0
 10
5.243303
 20
90.565204
 42
0.039564
  0
VERTEX
  8
0
 10
4.587249
 20
90.415176
 42
0.061251
  0
VERTEX
  8
0
 10
4.058729
 20
90.175179
 42
0.083534
  0
VERTEX
  8
0
 10
3.728496
 20
89.888289
 42
0.230992
  0
VERTEX
  8
0
 10
3.658754
 20
89.596757
 42
0.089404
  0
VERTEX
  8
0
 10
4.597354
 20
87.361440
 42
0.001752
  0
VERTEX
  8
0
 10
11.427101
 20
76.922823
 42
0.001104
  0
VERTEX
  8
0
 10
18.509815
 20
66.231361
 42
0.155374
  0
VERTEX
  8
0
 10
19.682468
 20
65.292322
 42
0.216508
  0
VERTEX
  8
0
 10
20.519174
 20
65.342165
 42
0.004637
  0
VERTEX
  8
0
 10
24.227764
 20
67.345168
 42
0.009817
  0
VERTEX
  8
0
 10
28.569010
 20
69.854583
 42
0.006358
  0
VERTEX
  8
0
 10
33.495330
 20
72.918926
 42
-0.001688
  0
VERTEX
  8
0
 10
38.373393
 20
76.016805
 42
-0.002699
  0
VERTEX
  8
0
 10
42.563021
 20
78.626184
 42
-0.000543
  0
VERTEX
  8
0
 10
46.262232
 20
80.896971
 42
-0.138236
  0
VERTEX
  8
0
 10
46.627767
 20
81.000000
 42
-0.408545
  0
VERTEX
  8
0
 10
46.829517
 20
80.802125
 42
-0.000910
  0
VERTEX
  8
0
 10
46.911164
 20
76.156272
 42
-0.004758
  0
VERTEX
  8
0
 10
46.944351
 20
70.833517
 42
-0.002853
  0
VERTEX
  8
0
 10
46.887525
 20
64.510713
 42
0.003125
  0
VERTEX
  8
0
 10
46.833831
 20
58.150638
 42
0.004962
  0
VERTEX
  8
0
 10
46.875938
 20
52.705628
 42
0.001369
  0
VERTEX
  8
0
 10
46.972268
 20
47.983325
 42
0.192907
  0
VERTEX
  8
0
 10
47.188309
 20
47.478358
 42
0.218412
  0
VERTEX
  8
0
 10
47.941547
 20
47.198847
 42
0.000562
  0
VERTEX
  8
0
 10
59.402685
 20
48.070037
 42
0.000609
  0
VERTEX
  8
0
 10
70.830066
 20
48.965587
 42
0.195983
  0
VERTEX
  8
0
 10
71.619429
 20
49.363074
 42
0.172849
  0
VERTEX
  8
0
 10
71.670596
 20
49.493089
 42
0.000034
  0
VERTEX
  8
0
 10
71.903534
 20
56.646702
 42
0.000731
  0
VERTEX
  8
0
 10
72.149555
 20
64.575241
 42
0.000442
  0
VERTEX
  8
0
 10
72.418887
 20
73.966124
 42
-0.000760
  0
VERTEX
  8
0
 10
72.694053
 20
83.352094
 42
-0.001263
  0
VERTEX
  8
0
 10
72.958066
 20
91.264450
 42
-0.000068
  0
VERTEX
  8
0
 10
73.214638
 20
98.384970
 42
-0.315023
  0
VERTEX
  8
0
 10
73.299458
 20
98.497355
 42
0.065064
  0
VERTEX
  8
0
 10
73.450791
 20
98.569314
 42
0.000099
  0
VERTEX
  8
0
 10
76.008521
 20
100.223224
 42
0.000803
  0
VERTEX
  8
0
 10
78.874923
 20
102.084075
 42
0.000496
  0
VERTEX
  8
0
 10
82.240187
 20
104.281230
 42
-0.001805
  0
VERTEX
  8
0
 10
85.617248
 20
106.473495
 42
-0.002880
  0
VERTEX
  8
0
 10
88.521083
 20
108.320111
 42
-0.000608
  0
VERTEX
  8
0
 10
91.081838
 20
109.923574
 42
-0.140469
  0
VERTEX
  8
0
 10
91.348507
 20
110.000000
 42
-0.259783
  0
VERTEX
  8
0
 10
91.570675
 20
109.876216
 42
-0.000680
  0
VERTEX
  8
0
 10
93.486057
 20
106.771545
 42
-0.003823
  0
VERTEX
  8
0
 10
95.631273
 20
103.223222
 42
-0.002344
  0
VERTEX
  8
0
 10
98.108320
 20
99.009516
 42
0.000000
  0
VERTEX
  8
0
 10
104.500000
 20
88.019032
 42
0.000000
  0
VERTEX
  8
0
 10
116.280779
 20
88.009516
 42
0.000000
  0
VERTEX
  8
0
 10
128.061558
 20
88.000000
 42
0.000000
  0
VERTEX
  8
0
 10
127.780779
 20
75.828470
 42
0.000000
  0
VERTEX
  8
0
 10
127.500000
 20
63.656940
 42
0.000000
  0
VERTEX
  8
0
 10
108.847572
 20
51.078470
 42
-0.000456
  0
VERTEX
  8
0
 10
101.573029
 20
46.182456
 42
-0.000667
  0
VERTEX
  8
0
 10
95.157894
 20
41.885765
 42
-0.000318
  0
VERTEX
  8
0
 10
89.690369
 20
38.239343
 42
-0.012024
  0
VERTEX
  8
0
 10
88.437185
 20
37.447540
 42
0.221102
  0
VERTEX
  8
0
 10
87.737249
 20
36.415933
 42
0.122494
  0
VERTEX
  8
0
 10
87.865724
 20
34.868427
 42
0.037756
  0
VERTEX
  8
0
 10
89.039752
 20
32.107619
 42
0.003695
  0
VERTEX
  8
0
 10
92.417319
 20
25.697540
 42
0.007963
  0
VERTEX
  8
0
 10
94.701329
 20
21.597568
 42
0.012355
  0
VERTEX
  8
0
 10
96.814209
 20
18.142814
 42
0.006633
  0
VERTEX
  8
0
 10
98.674604
 20
15.345353
 42
0.247861
  0
VERTEX
  8
0
 10
99.327706
 20
15.001402
 42
0.135843
  0
VERTEX
  8
0
 10
100.135454
 20
15.226022
 42
0.002293
  0
VERTEX
  8
0
 10
104.121264
 20
17.647036
 42
0.005696
  0
VERTEX
  8
0
 10
108.741345
 20
20.555364
 42
0.003735
  0
VERTEX
  8
0
 10
114.000000
 20
24.005847
 42
0.000000
  0
VERTEX
  8
0
 10
127.500000
 20
33.008890
 42
0.000000
  0
VERTEX
  8
0
 10
127.822979
 20
28.754445
 42
-0.015711
  0
VERTEX
  8
0
 10
127.928951
 20
26.366582
 42
-0.003233
  0
VERTEX
  8
0
 10
127.956207
 20
22.150896
 42
-0.003398
  0
VERTEX
  8
0
 10
127.922910
 20
17.251043
 42
-0.003191
  0
VERTEX
  8
0
 10
127.822979
 20
12.248605
 42
0.000000
  0
VERTEX
  8
0
 10
127.500000
 20
-0.002789
 42
0.000000
  0
VERTEX
  8
0
 10
142.250000
 20
-0.001395
 42
0.000000
  0
VERTEX
  8
0
 10
157.000000
 20
0.000000
 42
0.000000
  0
VERTEX
  8
0
 10
157.000000
 20
16.106989
 42
-0.002443
  0
VERTEX
  8
0
 10
157.045208
 20
25.360515
 42
-0.022511
  0
VERTEX
  8
0
 10
157.264856
 20
29.365693
 42
-0.068585
  0
VERTEX
  8
0
 10
157.719592
 20
31.250361
 42
-0.412076
  0
VERTEX
  8
0
 10
158.553179
 20
31.617967
 42
-0.051511
  0
VERTEX
  8
0
 10
159.592313
 20
31.090986
 42
-0.001915
  0
VERTEX
  8
0
 10
163.277694
 20
28.696934
 42
-0.003456
  0
VERTEX
  8
0
 10
167.611436
 20
25.815041
 42
-0.002421
  0
VERTEX
  8
0
 10
172.455572
 20
22.510978
 42
0.003847
  0
VERTEX
  8
0
 10
177.267190
 20
19.249173
 42
0.005870
  0
VERTEX
  8
0
 10
181.497172
 20
16.500100
 42
0.002376
  0
VERTEX
  8
0
 10
185.146895
 20
14.212849
 42
0.139663
  0
VERTEX
  8
0
 10
185.894039
 20
14.000000
 42
0.275461
  0
VERTEX
  8
0
 10
186.899096
 20
14.599174
 42
0.001464
  0
VERTEX
  8
0
 10
192.505680
 20
25.042759
 42
0.001303
  0
VERTEX
  8
0
 10
198.078777
 20
35.563252
 42
0.428849
  0
VERTEX
  8
0
 10
197.811231
 20
36.355435
 42
-0.030294
  0
VERTEX
  8
0
 10
195.166089
 20
37.784757
 42
-0.005375
  0
VERTEX
  8
0
 10
190.413632
 20
40.809044
 42
-0.004399
  0
VERTEX
  8
0
 10
183.780052
 20
45.214906
 42
-0.001531
  0
VERTEX
  8
0
 10
174.300084
 20
51.674599
 42
0.000000
  0
VERTEX
  8
0
 10
157.059343
 20
63.500000
 42
0.000000
  0
VERTEX
  8
0
 10
157.029671
 20
75.750000
 42
0.000000
  0
VERTEX
  8
0
 10
157.000000
 20
88.000000
 42
0.000000
  0
VERTEX
  8
0
 10
166.808870
 20
88.000000
 42
0.008863
  0
VERTEX
  8
0
 10
171.136655
 20
88.076721
 42
0.018587
  0
VERTEX
  8
0
 10
174.492755
 20
88.320873
 42
0.020696
  0
VERTEX
  8
0
 10
176.973595
 20
88.698798
 42
0.123681
  0
VERTEX
  8
0
 10
178.148459
 20
89.250000
 42
0.060202
  0
VERTEX
  8
0
 10
178.974310
 20
90.108959
 42
0.007628
  0
VERTEX
  8
0
 10
180.491692
 20
92.189063
 42
0.008858
  0
VERTEX
  8
0
 10
182.218604
 20
94.728163
 42
0.007258
  0
VERTEX
  8
0
 10
183.975902
 20
97.500000
 42
-0.000869
  0
VERTEX
  8
0
 10
185.645535
 20
100.209511
 42
-0.001329
  0
VERTEX
  8
0
 10
187.103409
 20
102.552258
 42
-0.000445
  0
VERTEX
  8
0
 10
188.371273
 20
104.573647
 42
-0.036820
  0
VERTEX
  8
0
 10
188.589036
 20
104.869389
 42
-0.356341
  0
VERTEX
  8
0
 10
188.876602
 20
104.921086
 42
-0.001603
  0
VERTEX
  8
0
 10
191.763887
 20
103.306212
 42
-0.006290
  0
VERTEX
  8
0
 10
195.077620
 20
101.383528
 42
-0.003812
  0
VERTEX
  8
0
 10
198.952722
 20
99.029219
 42
-0.004424
  0
VERTEX
  8
0
 10
205.401191
 20
94.964565
 42
-0.052930
  0
VERTEX
  8
0
 10
207.692836
 20
93.122627
 42
-0.125279
  0
VERTEX
  8
0
 10
208.720844
 20
91.402760
 42
-0.064470
  0
VERTEX
  8
0
 10
209.125000
 20
88.909830
 42
0.002389
  0
VERTEX
  8
0
 10
209.187412
 20
87.211747
 42
0.001786
  0
VERTEX
  8
0
 10
209.271829
 20
85.340700
 42
0.001805
  0
VERTEX
  8
0
 10
209.364011
 20
83.578639
 42
0.004119
  0
VERTEX
  8
0
 10
209.449311
 20
82.250000
 42
-0.010025
  0
VERTEX
  8
0
 10
209.545803
 20
80.406768
 42
-0.000624
  0
VERTEX
  8
0
 10
209.715121
 20
74.947291
 42
-0.000923
  0
VERTEX
  8
0
 10
209.896730
 20
68.441672
 42
-0.000685
  0
VERTEX
  8
0
 10
210.074311
 20
61.251415
 42
0.000000
  0
VERTEX
  8
0
 10
210.500000
 20
43.002831
 42
0.000000
  0
VERTEX
  8
0
 10
213.000000
 20
42.974320
 42
-0.014734
  0
VERTEX
  8
0
 10
214.492138
 20
42.913304
 42
-0.002097
  0
VERTEX
  8
0
 10
217.549204
 20
42.685043
 42
-0.002385
  0
VERTEX
  8
0
 10
221.164675
 20
42.382474
 42
-0.002032
  0
VERTEX
  8
0
 10
224.976012
 20
42.029584
 42
0.006408
  0
VERTEX
  8
0
 10
229.634830
 20
41.639324
 42
0.024439
  0
VERTEX
  8
0
 10
232.549622
 20
41.575513
 42
0.037102
  0
VERTEX
  8
0
 10
234.417748
 20
41.765120
 42
0.205141
  0
VERTEX
  8
0
 10
235.244366
 20
42.306679
 42
0.142341
  0
VERTEX
  8
0
 10
235.542607
 20
43.259463
 42
0.003382
  0
VERTEX
  8
0
 10
235.607642
 20
47.967460
 42
0.007169
  0
VERTEX
  8
0
 10
235.567101
 20
53.529897
 42
0.004775
  0
VERTEX
  8
0
 10
235.368399
 20
59.901694
 42
-0.002431
  0
VERTEX
  8
0
 10
235.042563
 20
68.983856
 42
-0.019506
  0
VERTEX
  8
0
 10
235.076062
 20
73.167211
 42
-0.055216
  0
VERTEX
  8
0
 10
235.394090
 20
75.171855
 42
-0.498319
  0
VERTEX
  8
0
 10
236.100045
 20
75.452626
 42
-0.003834
  0
VERTEX
  8
0
 10
244.867795
 20
70.031911
 42
-0.005238
  0
VERTEX
  8
0
 10
252.676490
 20
65.006056
 42
-0.002840
  0
VERTEX
  8
0
 10
259.258403
 20
60.617805
 42
-0.079362
  0
VERTEX
  8
0
 10
260.759780
 20
59.213206
 42
0.257488
  0
VERTEX
  8
0
 10
262.112253
 20
58.631042
 42
0.189295
  0
VERTEX
  8
0
 10
263.594808
 20
59.387337
 42
0.037877
  0
VERTEX
  8
0
 10
265.911764
 20
62.440229
 42
0.002517
  0
VERTEX
  8
0
 10
271.842584
 20
71.724839
 42
0.000000
  0
VERTEX
  8
0
 10
278.933490
 20
82.949679
 42
0.000000
  0
VERTEX
  8
0
 10
274.716745
 20
85.787669
 42
0.004533
  0
VERTEX
  8
0
 10
272.484967
 20
87.260501
 42
0.001300
  0
VERTEX
  8
0
 10
269.001562
 20
89.501437
 42
0.001308
  0
VERTEX
  8
0
 10
265.058822
 20
92.008892
 42
0.001390
  0
VERTEX
  8
0
 10
261.182191
 20
94.445020
 42
-0.009085
  0
VERTEX
  8
0
 10
257.667228
 20
96.730062
 42
-0.015696
  0
VERTEX
  8
0
 10
254.841719
 20
98.772905
 42
-0.009962
  0
VERTEX
  8
0
 10
252.692186
 20
100.501606
 42
-0.454852
  0
VERTEX
  8
0
 10
252.682191
 20
101.006377
 42
-0.076665
  0
VERTEX
  8
0
 10
253.355629
 20
101.451261
 42
-0.001427
  0
VERTEX
  8
0
 10
257.225394
 20
103.216271
 42
-0.003466
  0
VERTEX
  8
0
 10
261.767322
 20
105.234398
 42
-0.002307
  0
VERTEX
  8
0
 10
267.000000
 20
107.487468
 42
0.002792
  0
VERTEX
  8
0
 10
272.263212
 20
109.759734
 42
0.003998
  0
VERTEX
  8
0
 10
276.902227
 20
111.837696
 42
0.002201
  0
VERTEX
  8
0
 10
280.796928
 20
113.640552
 42
0.060396
  0
VERTEX
  8
0
 10
281.752261
 20
114.237603
 42
0.310421
  0
VERTEX
  8
0
 10
282.168620
 20
115.634897
 42
0.034637
  0
VERTEX
  8
0
 10
280.863683
 20
118.886657
 42
0.023160
  0
VERTEX
  8
0
 10
278.175307
 20
123.840786
 42
0.005631
  0
VERTEX
  8
0
 10
273.272911
 20
131.752057
 42
0.007466
  0
VERTEX
  8
0
 10
271.126912
 20
135.020744
 42
0.094600
  0
VERTEX
  8
0
 10
270.091787
 20
136.057680
 42
0.228843
  0
VERTEX
  8
0
 10
269.106829
 20
136.204219
 42
0.069560
  0
VERTEX
  8
0
 10
267.704694
 20
135.542164
 42
-0.041682
  0
VERTEX
  8
0
 10
265.186104
 20
134.176946
 42
-0.000678
  0
VERTEX
  8
0
 10
250.447761
 20
127.735215
 42
-0.001930
  0
VERTEX
  8
0
 10
236.455623
 20
121.706385
 42
-0.006834
  0
VERTEX
  8
0
 10
227.408169
 20
117.994718
 42
-0.155423
  0
VERTEX
  8
0
 10
225.865758
 20
117.890817
 42
-0.046596
  0
VERTEX
  8
0
 10
223.614096
 20
118.672754
 42
-0.026876
  0
VERTEX
  8
0
 10
220.301671
 20
120.401897
 42
-0.006159
  0
VERTEX
  8
0
 10
214.908169
 20
123.687675
 42
-0.000597
  0
VERTEX
  8
0
 10
210.896729
 20
126.206433
 42
-0.000949
  0
VERTEX
  8
0
 10
207.469380
 20
128.373247
 42
-0.000189
  0
VERTEX
  8
0
 10
204.454232
 20
130.289080
 42
-0.046392
  0
VERTEX
  8
0
 10
204.200359
 20
130.485763
 42
-0.342901
  0
VERTEX
  8
0
 10
204.160587
 20
130.734960
 42
-0.001371
  0
VERTEX
  8
0
 10
205.618944
 20
133.372099
 42
-0.005786
  0
VERTEX
  8
0
 10
207.344089
 20
136.388874
 42
-0.003514
  0
VERTEX
  8
0
 10
209.450359
 20
139.918134
 42
0.001749
  0
VERTEX
  8
0
 10
211.577765
 20
143.454384
 42
0.002785
  0
VERTEX
  8
0
 10
213.369793
 20
146.495245
 42
0.000600
  0
VERTEX
  8
0
 10
214.924324
 20
149.174405
 42
0.131896
  0
VERTEX
  8
0
 10
215.000000
 20
149.456293
 42
0.126269
  0
VERTEX
  8
0
 10
214.927509
 20
149.738766
 42
0.000657
  0
VERTEX
  8
0
 10
213.531250
 20
152.272096
 42
0.002864
  0
VERTEX
  8
0
 10
211.916663
 20
155.153361
 42
0.001806
  0
VERTEX
  8
0
 10
210.000000
 20
158.500000
 42
-0.003974
  0
VERTEX
  8
0
 10
208.083966
 20
161.879441
 42
-0.005943
  0
VERTEX
  8
0
 10
206.468750
 20
164.864803
 42
-0.002732
  0
VERTEX
  8
0
 10
205.141409
 20
167.423175
 42
-0.118837
  0
VERTEX
  8
0
 10
205.000000
 20
168.009746
 42
-0.242592
  0
VERTEX
  8
0
 10
205.256524
 20
168.507346
 42
-0.003848
  0
VERTEX
  8
0
 10
207.941848
 20
170.388657
 42
-0.009169
  0
VERTEX
  8
0
 10
211.176052
 20
172.531200
 42
-0.005830
  0
VERTEX
  8
0
 10
215.014802
 20
174.911723
 42
0.000000
  0
VERTEX
  8
0
 10
225.029603
 20
180.961688
 42
0.000000
  0
VERTEX
  8
0
 10
230.264802
 20
178.600887
 42
-0.002270
  0
VERTEX
  8
0
 10
232.946299
 20
177.376991
 42
-0.000737
  0
VERTEX
  8
0
 10
236.899661
 20
175.543779
 42
-0.000735
  0
VERTEX
  8
0
 10
241.287516
 20
173.493378
 42
-0.000826
  0
VERTEX
  8
0
 10
245.500000
 20
171.508880
 42
0.001111
  0
VERTEX
  8
0
 10
249.729368
 20
169.519371
 42
0.000967
  0
VERTEX
  8
0
 10
254.168142
 20
167.453847
 42
0.000972
  0
VERTEX
  8
0
 10
258.191581
 20
165.600546
 42
0.002872
  0
VERTEX
  8
0
 10
260.966014
 20
164.348334
 42
-0.009741
  0
VERTEX
  8
0
 10
263.171184
 20
163.316358
 42
-0.010531
  0
VERTEX
  8
0
 10
265.277212
 20
162.224622
 42
-0.010099
  0
VERTEX
  8
0
 10
267.041341
 20
161.215702
 42
-0.049004
  0
VERTEX
  8
0
 10
267.966753
 20
160.530089
 42
0.277703
  0
VERTEX
  8
0
 10
269.085957
 20
160.310419
 42
0.124523
  0
VERTEX
  8
0
 10
270.374765
 20
161.184059
 42
0.037400
  0
VERTEX
  8
0
 10
272.287023
 20
163.686271
 42
0.004176
  0
VERTEX
  8
0
 10
276.157358
 20
169.732148
 42
0.010115
  0
VERTEX
  8
0
 10
279.891575
 20
175.949817
 42
0.042567
  0
VERTEX
  8
0
 10
281.726930
 20
179.893944
 42
0.114129
  0
VERTEX
  8
0
 10
282.000677
 20
182.105023
 42
0.384044
  0
VERTEX
  8
0
 10
281.007331
 20
183.000000
 42
-0.105336
  0
VERTEX
  8
0
 10
280.435234
 20
183.121877
 42
-0.000880
  0
VERTEX
  8
0
 10
276.257010
 20
184.995549
 42
-0.003079
  0
VERTEX
  8
0
 10
271.466575
 20
187.189485
 42
-0.001973
  0
VERTEX
  8
0
 10
265.929507
 20
189.793360
 42
0.000000
  0
VERTEX
  8
0
 10
251.630375
 20
196.586719
 42
0.000000
  0
VERTEX
  8
0
 10
264.565187
 20
204.186744
 42
-0.003591
  0
VERTEX
  8
0
 10
269.648001
 20
207.124313
 42
-0.005091
  0
VERTEX
  8
0
 10
274.215002
 20
209.659017
 42
-0.002978
  0
VERTEX
  8
0
 10
278.091634
 20
211.729447
 42
-0.071059
  0
VERTEX
  8
0
 10
279.251840
 20
212.143384
 42
0.397245
  0
VERTEX
  8
0
 10
279.801781
 20
212.924038
 42
0.068152
  0
VERTEX
  8
0
 10
279.254300
 20
214.837772
 42
0.025882
  0
VERTEX
  8
0
 10
277.498237
 20
218.325147
 42
0.003696
  0
VERTEX
  8
0
 10
273.481422
 20
225.250000
 42
0.005264
  0
VERTEX
  8
0
 10
270.528159
 20
230.137384
 42
0.008338
  0
VERTEX
  8
0
 10
267.884733
 20
234.254687
 42
0.003181
  0
VERTEX
  8
0
 10
265.557892
 20
237.701569
 42
0.247539
  0
VERTEX
  8
0
 10
264.992033
 20
238.000000
 42
0.130359
  0
VERTEX
  8
0
 10
263.885275
 20
237.706460
 42
0.000718
  0
VERTEX
  8
0
 10
254.296294
 20
232.216831
 42
0.003487
  0
VERTEX
  8
0
 10
245.379093
 20
227.011724
 42
0.009462
  0
VERTEX
  8
0
 10
239.155638
 20
223.159533
 42
0.000000
  0
VERTEX
  8
0
 10
236.811276
 20
221.646323
 42
0.000000
  0
VERTEX
  8
0
 10
237.372062
 20
228.073162
 42
0.003375
  0
VERTEX
  8
0
 10
237.632820
 20
231.314026
 42
0.001199
  0
VERTEX
  8
0
 10
237.963262
 20
235.951239
 42
0.001190
  0
VERTEX
  8
0
 10
238.301724
 20
241.044040
 42
0.001402
  0
VERTEX
  8
0
 10
238.597169
 20
245.867227
 42
0.000000
  0
VERTEX
  8
0
 10
239.261490
 20
257.234455
 42
0.000000
  0
VERTEX
  8
0
 10
228.880745
 20
256.565041
 42
0.003401
  0
VERTEX
  8
0
 10
218.349554
 20
255.813967
 42
0.071310
  0
VERTEX
  8
0
 10
215.281381
 20
255.126641
 42
0.231891
  0
VERTEX
  8
0
 10
213.940541
 20
253.693995
 42
0.074010
  0
VERTEX
  8
0
 10
213.495441
 20
250.725454
 42
-0.010013
  0
VERTEX
  8
0
 10
213.446536
 20
248.408604
 42
-0.002314
  0
VERTEX
  8
0
 10
213.268013
 20
244.509977
 42
-0.002389
  0
VERTEX
  8
0
 10
213.020142
 20
240.021245
 42
-0.002334
  0
VERTEX
  8
0
 10
212.727621
 20
235.500000
 42
0.000090
  0
VERTEX
  8
0
 10
212.390176
 20
230.624072
 42
0.000061
  0
VERTEX
  8
0
 10
212.006336
 20
225.053407
 42
0.000061
  0
VERTEX
  8
0
 10
211.636102
 20
219.661101
 42
0.000121
  0
VERTEX
  8
0
 10
211.343996
 20
215.383940
 42
0.000000
  0
VERTEX
  8
0
 10
210.723631
 20
206.267880
 42
0.000000
  0
VERTEX
  8
0
 10
200.890603
 20
200.633940
 42
-0.003744
  0
VERTEX
  8
0
 10
197.056132
 20
198.474914
 42
-0.005630
  0
VERTEX
  8
0
 10
193.677238
 20
196.654970
 42
-0.002476
  0
VERTEX
  8
0
 10
190.776625
 20
195.152786
 42
-0.118779
  0
VERTEX
  8
0
 10
190.142547
 20
195.000000
 42
-0.241819
  0
VERTEX
  8
0
 10
189.624301
 20
195.266210
 42
-0.006121
  0
VERTEX
  8
0
 10
188.067578
 20
197.495916
 42
-0.011757
  0
VERTEX
  8
0
 10
186.294059
 20
200.240176
 42
-0.007584
  0
VERTEX
  8
0
 10
184.363759
 20
203.496736
 42
0.000000
  0
VERTEX
  8
0
 10
179.500000
 20
211.993472
 42
0.000000
  0
VERTEX
  8
0
 10
169.750000
 20
212.121736
 42
-0.002258
  0
VERTEX
  8
0
 10
165.941794
 20
212.189038
 42
-0.003246
  0
VERTEX
  8
0
 10
162.570312
 20
212.285760
 42
-0.001736
  0
VERTEX
  8
0
 10
159.719641
 20
212.395981
 42
-0.050759
  0
VERTEX
  8
0
 10
159.000000
 20
212.500000
 42
0.009327
  0
VERTEX
  8
0
 10
158.544688
 20
212.604845
 42
0.005581
  0
VERTEX
  8
0
 10
158.000000
 20
212.713281
 42
0.005586
  0
VERTEX
  8
0
 10
157.455184
 20
212.809146
 42
0.009662
  0
VERTEX
  8
0
 10
157.000000
 20
212.875000
 42
-0.344727
  0
VERTEX
  8
0
 10
156.568174
 20
213.309335
 42
-0.008904
  0
VERTEX
  8
0
 10
156.273628
 20
216.222805
 42
-0.014049
  0
VERTEX
  8
0
 10
156.065391
 20
220.015344
 42
-0.006689
  0
VERTEX
  8
0
 10
156.000000
 20
224.903034
 42
0.000000
  0
VERTEX
  8
0
 10
156.000000
 20
236.806068
 42
0.000000
  0
VERTEX
  8
0
 10
166.250000
 20
243.766711
 42
-0.000242
  0
VERTEX
  8
0
 10
170.898911
 20
246.920436
 42
-0.000145
  0
VERTEX
  8
0
 10
176.426562
 20
250.664029
 42
-0.000145
  0
VERTEX
  8
0
 10
181.930594
 20
254.386965
 42
-0.000253
  0
VERTEX
  8
0
 10
186.500000
 20
257.472420
 42
0.000539
  0
VERTEX
  8
0
 10
190.357427
 20
260.080330
 42
0.000850
  0
VERTEX
  8
0
 10
193.661073
 20
262.327232
 42
0.000190
  0
VERTEX
  8
0
 10
196.557193
 20
264.305785
 42
0.036602
  0
VERTEX
  8
0
 10
196.835568
 20
264.527644
 42
0.341368
  0
VERTEX
  8
0
 10
197.014404
 20
265.589844
 42
0.001906
  0
VERTEX
  8
0
 10
191.840938
 20
275.174739
 42
0.002777
  0
VERTEX
  8
0
 10
186.689188
 20
284.509168
 42
0.175398
  0
VERTEX
  8
0
 10
185.293758
 20
285.717516
 42
0.215737
  0
VERTEX
  8
0
 10
184.282297
 20
285.658223
 42
0.007024
  0
VERTEX
  8
0
 10
180.622721
 20
283.670550
 42
0.012062
  0
VERTEX
  8
0
 10
176.237441
 20
281.067249
 42
0.007346
  0
VERTEX
  8
0
 10
171.179343
 20
277.792612
 42
-0.000616
  0
VERTEX
  8
0
 10
166.225569
 20
274.490052
 42
-0.000890
  0
VERTEX
  8
0
 10
161.837213
 20
271.583494
 42
-0.000455
  0
VERTEX
  8
0
 10
158.107572
 20
269.127628
 42
-0.014646
  0
VERTEX
  8
0
 10
157.181380
 20
268.557084
 42
-0.507159
  0
VERTEX
  8
0
 10
156.507057
 20
268.854905
 42
-0.038306
  0
VERTEX
  8
0
 10
156.181178
 20
271.173923
 42
-0.017837
  0
VERTEX
  8
0
 10
156.060278
 20
275.590697
 42
-0.002721
  0
VERTEX
  8
0
 10
156.181380
 20
284.399907
 42
0.000000
  0
VERTEX
  8
0
 10
156.500000
 20
301.002666
 42
0.000000
  0
VERTEX
  8
0
 10
141.750000
 20
301.001333
 42
0.000000
  0
VERTEX
  8
0
 10
127.000000
 20
301.000000
 42
0.000000
  0
SEQEND
  0
POLYLINE
  8
0
 66
1
 70
1
  0
VERTEX
  8
0
 10
154.000000
 20
281.500000
 42
0.003595
  0
VERTEX
  8
0
 10
154.048244
 20
274.789702
 42
0.005990
  0
VERTEX
  8
0
 10
154.197182
 20
269.140625
 42
0.001439
  0
VERTEX
  8
0
 10
154.398413
 20
264.261073
 42
0.401357
  0
VERTEX
  8
0
 10
154.671259
 20
264.000000
 42
0.115545
  0
VERTEX
  8
0
 10
155.027209
 20
264.083370
 42
0.022408
  0
VERTEX
  8
0
 10
155.609091
 20
264.405003
 42
0.022740
  0
VERTEX
  8
0
 10
156.267603
 20
264.850917
 42
0.019296
  0
VERTEX
  8
0
 10
156.921259
 20
265.378732
 42
-0.030517
  0
VERTEX
  8
0
 10
159.520414
 20
267.382893
 42
-0.000855
  0
VERTEX
  8
0
 10
171.252365
 20
275.308501
 42
-0.000204
  0
VERTEX
  8
0
 10
183.836844
 20
283.771273
 42
-0.148989
  0
VERTEX
  8
0
 10
184.587398
 20
284.000000
 42
-0.281223
  0
VERTEX
  8
0
 10
185.018969
 20
283.736419
 42
-0.000415
  0
VERTEX
  8
0
 10
189.446639
 20
275.092768
 42
-0.000801
  0
VERTEX
  8
0
 10
193.746222
 20
266.648625
 42
-0.117882
  0
VERTEX
  8
0
 10
194.000000
 20
265.587178
 42
-0.248835
  0
VERTEX
  8
0
 10
193.608567
 20
264.849348
 42
-0.000197
  0
VERTEX
  8
0
 10
175.664958
 20
252.708030
 42
-0.000682
  0
VERTEX
  8
0
 10
158.509153
 20
241.143728
 42
-0.058219
  0
VERTEX
  8
0
 10
155.721647
 20
239.708632
 42
0.204786
  0
VERTEX
  8
0
 10
154.757977
 20
238.786966
 42
0.075183
  0
VERTEX
  8
0
 10
154.275417
 20
236.925120
 42
0.027896
  0
VERTEX
  8
0
 10
154.106869
 20
233.397545
 42
0.003044
  0
VERTEX
  8
0
 10
154.221647
 20
225.270505
 42
0.000000
  0
VERTEX
  8
0
 10
154.500000
 20
211.500000
 42
0.000000
  0
VERTEX
  8
0
 10
166.162041
 20
211.219026
 42
0.000000
  0
VERTEX
  8
0
 10
177.824083
 20
210.938051
 42
0.000000
  0
VERTEX
  8
0
 10
183.421854
 20
201.051575
 42
0.000000
  0
VERTEX
  8
0
 10
189.019625
 20
191.165099
 42
0.000000
  0
VERTEX
  8
0
 10
197.981436
 20
196.542195
 42
-0.001774
  0
VERTEX
  8
0
 10
201.623960
 20
198.710176
 42
-0.001968
  0
VERTEX
  8
0
 10
205.157844
 20
200.777837
 42
-0.001821
  0
VERTEX
  8
0
 10
208.186033
 20
202.518947
 42
-0.010230
  0
VERTEX
  8
0
 10
209.827091
 20
203.410585
 42
0.080688
  0
VERTEX
  8
0
 10
211.546058
 20
204.685831
 42
0.130131
  0
VERTEX
  8
0
 10
212.434843
 20
206.264793
 42
0.046224
  0
VERTEX
  8
0
 10
212.896052
 20
209.095755
 42
0.003177
  0
VERTEX
  8
0
 10
213.405401
 20
217.200939
 42
-0.001196
  0
VERTEX
  8
0
 10
213.702007
 20
222.239647
 42
-0.001246
  0
VERTEX
  8
0
 10
214.018897
 20
227.209026
 42
-0.001197
  0
VERTEX
  8
0
 10
214.313894
 20
231.504503
 42
-0.005461
  0
VERTEX
  8
0
 10
214.518693
 20
234.000000
 42
0.002438
  0
VERTEX
  8
0
 10
214.715884
 20
236.236829
 42
0.000929
  0
VERTEX
  8
0
 10
214.969696
 20
239.355926
 42
0.000920
  0
VERTEX
  8
0
 10
215.232913
 20
242.745608
 42
0.001127
  0
VERTEX
  8
0
 10
215.465883
 20
245.913789
 42
-0.002994
  0
VERTEX
  8
0
 10
215.686666
 20
248.770366
 42
-0.004776
  0
VERTEX
  8
0
 10
215.913322
 20
251.209037
 42
-0.001239
  0
VERTEX
  8
0
 10
216.135877
 20
253.326789
 42
-0.200173
  0
VERTEX
  8
0
 10
216.247123
 20
253.529311
 42
-0.147970
  0
VERTEX
  8
0
 10
216.473852
 20
253.619753
 42
-0.000508
  0
VERTEX
  8
0
 10
219.449703
 20
253.872510
 42
-0.002685
  0
VERTEX
  8
0
 10
222.829739
 20
254.137865
 42
-0.001674
  0
VERTEX
  8
0
 10
226.794418
 20
254.414364
 42
0.000000
  0
VERTEX
  8
0
 10
237.088837
 20
255.097687
 42
0.000000
  0
VERTEX
  8
0
 10
236.467536
 20
242.298843
 42
-0.004544
  0
VERTEX
  8
0
 10
236.162096
 20
237.001304
 42
-0.004436
  0
VERTEX
  8
0
 10
235.758355
 20
231.667736
 42
-0.004376
  0
VERTEX
  8
0
 10
235.321313
 20
226.990925
 42
-0.016580
  0
VERTEX
  8
0
 10
234.925769
 20
224.080682
 42
0.004819
  0
VERTEX
  8
0
 10
234.590788
 20
221.986373
 42
0.007620
  0
VERTEX
  8
0
 10
234.348348
 20
220.184228
 42
0.002764
  0
VERTEX
  8
0
 10
234.173419
 20
218.642198
 42
0.233671
  0
VERTEX
  8
0
 10
234.252651
 20
218.426263
 42
0.326633
  0
VERTEX
  8
0
 10
234.468942
 20
218.398294
 42
0.000722
  0
VERTEX
  8
0
 10
237.511716
 20
220.077444
 42
0.004156
  0
VERTEX
  8
0
 10
240.956297
 20
222.022413
 42
0.002522
  0
VERTEX
  8
0
 10
245.000000
 20
224.377447
 42
-0.000237
  0
VERTEX
  8
0
 10
249.360215
 20
226.943570
 42
-0.000228
  0
VERTEX
  8
0
 10
253.778375
 20
229.538262
 42
-0.000226
  0
VERTEX
  8
0
 10
257.673988
 20
231.821320
 42
-0.000831
  0
VERTEX
  8
0
 10
260.139150
 20
233.259057
 42
0.000000
  0
VERTEX
  8
0
 10
264.778299
 20
235.954382
 42
0.000000
  0
VERTEX
  8
0
 10
270.889150
 20
225.608467
 42
-0.002310
  0
VERTEX
  8
0
 10
273.231467
 20
221.600652
 42
-0.003620
  0
VERTEX
  8
0
 10
275.204938
 20
218.130110
 42
-0.001026
  0
VERTEX
  8
0
 10
276.891284
 20
215.099303
 42
-0.127101
  0
VERTEX
  8
0
 10
277.000000
 20
214.678537
 42
-0.254940
  0
VERTEX
  8
0
 10
276.807502
 20
214.325538
 42
-0.000949
  0
VERTEX
  8
0
 10
272.740625
 20
211.716458
 42
-0.004506
  0
VERTEX
  8
0
 10
268.059065
 20
208.784632
 42
-0.002776
  0
VERTEX
  8
0
 10
262.500000
 20
205.414969
 42
0.004147
  0
VERTEX
  8
0
 10
253.787429
 20
200.101071
 42
0.027734
  0
VERTEX
  8
0
 10
249.632626
 20
197.188391
 42
0.158542
  0
VERTEX
  8
0
 10
248.685213
 20
195.771725
 42
0.497250
  0
VERTEX
  8
0
 10
249.269335
 20
195.000000
 42
-0.109739
  0
VERTEX
  8
0
 10
250.923889
 20
194.632436
 42
-0.000716
  0
VERTEX
  8
0
 10
264.499806
 20
188.263720
 42
-0.000893
  0
VERTEX
  8
0
 10
277.899374
 20
181.925028
 42
-0.085647
  0
VERTEX
  8
0
 10
279.628490
 20
180.704843
 42
-0.320356
  0
VERTEX
  8
0
 10
279.704381
 20
180.250051
 42
-0.005152
  0
VERTEX
  8
0
 10
278.472137
 20
177.793932
 42
-0.011310
  0
VERTEX
  8
0
 10
276.897698
 20
174.897728
 42
-0.006994
  0
VERTEX
  8
0
 10
274.923764
 20
171.563561
 42
-0.006610
  0
VERTEX
  8
0
 10
271.996287
 20
166.912253
 42
-0.040991
  0
VERTEX
  8
0
 10
270.274894
 20
164.680034
 42
-0.095981
  0
VERTEX
  8
0
 10
268.953298
 20
163.694859
 42
-0.191422
  0
VERTEX
  8
0
 10
267.672738
 20
163.603869
 42
-0.033357
  0
VERTEX
  8
0
 10
262.546427
 20
165.615923
 42
-0.001602
  0
VERTEX
  8
0
 10
245.936841
 20
173.514950
 42
-0.000460
  0
VERTEX
  8
0
 10
228.072992
 20
182.101006
 42
-0.143029
  0
VERTEX
  8
0
 10
226.906298
 20
183.151613
 42
0.092279
  0
VERTEX
  8
0
 10
226.255176
 20
183.868140
 42
0.199169
  0
VERTEX
  8
0
 10
225.547222
 20
184.053408
 42
0.130352
  0
VERTEX
  8
0
 10
224.692968
 20
183.695776
 42
0.032431
  0
VERTEX
  8
0
 10
223.544472
 20
182.687329
 42
-0.053177
  0
VERTEX
  8
0
 10
222.552347
 20
181.886438
 42
-0.003944
  0
VERTEX
  8
0
 10
219.605898
 20
180.018564
 42
-0.005441
  0
VERTEX
  8
0
 10
216.041944
 20
177.851913
 42
-0.004102
  0
VERTEX
  8
0
 10
212.080187
 20
175.545800
 42
0.005705
  0
VERTEX
  8
0
 10
208.216278
 20
173.280021
 42
0.009012
  0
VERTEX
  8
0
 10
204.961055
 20
171.240115
 42
0.003672
  0
VERTEX
  8
0
 10
202.250947
 20
169.444496
 42
0.249570
  0
VERTEX
  8
0
 10
202.000000
 20
168.973051
 42
0.120489
  0
VERTEX
  8
0
 10
202.138108
 20
168.408258
 42
0.002458
  0
VERTEX
  8
0
 10
203.509169
 20
165.803754
 42
0.005639
  0
VERTEX
  8
0
 10
205.168763
 20
162.771324
 42
0.003745
  0
VERTEX
  8
0
 10
207.137597
 20
159.328867
 42
-0.004479
  0
VERTEX
  8
0
 10
209.107188
 20
155.873327
 42
-0.006589
  0
VERTEX
  8
0
 10
210.770049
 20
152.799730
 42
-0.003375
  0
VERTEX
  8
0
 10
212.122200
 20
150.176861
 42
-0.114380
  0
VERTEX
  8
0
 10
212.288893
 20
149.500000
 42
-0.126038
  0
VERTEX
  8
0
 10
212.124908
 20
148.821250
 42
-0.003347
  0
VERTEX
  8
0
 10
210.646956
 20
146.080180
 42
-0.006807
  0
VERTEX
  8
0
 10
208.833595
 20
142.874626
 42
-0.004582
  0
VERTEX
  8
0
 10
206.680083
 20
139.262314
 42
0.000000
  0
VERTEX
  8
0
 10
201.057574
 20
130.024628
 42
0.000000
  0
VERTEX
  8
0
 10
206.278787
 20
126.685173
 42
0.000551
  0
VERTEX
  8
0
 10
208.758402
 20
125.103071
 42
0.000263
  0
VERTEX
  8
0
 10
211.950112
 20
123.073922
 42
0.000260
  0
VERTEX
  8
0
 10
215.286635
 20
120.957605
 42
0.000371
  0
VERTEX
  8
0
 10
218.253508
 20
119.081001
 42
0.000000
  0
VERTEX
  8
0
 10
225.007016
 20
114.816286
 42
0.000000
  0
VERTEX
  8
0
 10
232.253508
 20
117.842861
 42
0.000820
  0
VERTEX
  8
0
 10
236.036281
 20
119.430067
 42
0.000244
  0
VERTEX
  8
0
 10
241.811177
 20
121.867606
 42
0.000245
  0
VERTEX
  8
0
 10
248.296252
 20
124.612369
 42
0.000264
  0
VERTEX
  8
0
 10
254.614329
 20
127.294034
 42
0.000000
  0
VERTEX
  8
0
 10
269.728659
 20
133.718630
 42
0.000000
  0
VERTEX
  8
0
 10
274.994877
 20
124.823196
 42
-0.004710
  0
VERTEX
  8
0
 10
276.986526
 20
121.385546
 42
-0.007693
  0
VERTEX
  8
0
 10
278.602357
 20
118.429909
 42
-0.002430
  0
VERTEX
  8
0
 10
279.932146
 20
115.875968
 42
-0.327131
  0
VERTEX
  8
0
 10
279.880547
 20
115.550277
 42
-0.097679
  0
VERTEX
  8
0
 10
277.512236
 20
113.976138
 42
-0.001820
  0
VERTEX
  8
0
 10
263.624015
 20
108.295932
 42
-0.000905
  0
VERTEX
  8
0
 10
249.167735
 20
102.475154
 42
-0.237984
  0
VERTEX
  8
0
 10
247.856677
 20
102.588579
 42
0.066487
  0
VERTEX
  8
0
 10
247.433265
 20
102.778067
 42
0.278384
  0
VERTEX
  8
0
 10
247.174429
 20
102.710594
 42
0.227965
  0
VERTEX
  8
0
 10
247.079264
 20
102.427699
 42
0.049537
  0
VERTEX
  8
0
 10
247.196247
 20
101.911260
 42
0.162837
  0
VERTEX
  8
0
 10
248.071968
 20
100.746277
 42
0.001654
  0
VERTEX
  8
0
 10
256.691581
 20
94.848541
 42
0.005763
  0
VERTEX
  8
0
 10
265.834236
 20
88.790044
 42
0.006409
  0
VERTEX
  8
0
 10
274.798517
 20
83.158868
 42
-0.339209
  0
VERTEX
  8
0
 10
275.133390
 20
82.292077
 42
-0.039071
  0
VERTEX
  8
0
 10
274.341388
 20
80.209994
 42
-0.024485
  0
VERTEX
  8
0
 10
272.616408
 20
76.980252
 42
-0.005795
  0
VERTEX
  8
0
 10
269.416852
 20
71.774465
 42
0.000000
  0
VERTEX
  8
0
 10
262.736670
 20
61.182737
 42
0.000000
  0
VERTEX
  8
0
 10
256.618335
 20
64.939880
 42
-0.002407
  0
VERTEX
  8
0
 10
253.660011
 20
66.776199
 42
-0.001033
  0
VERTEX
  8
0
 10
249.726948
 20
69.255219
 42
-0.001022
  0
VERTEX
  8
0
 10
245.547716
 20
71.913462
 42
-0.001349
  0
VERTEX
  8
0
 10
241.750000
 20
74.354406
 42
0.006298
  0
VERTEX
  8
0
 10
238.385446
 20
76.470172
 42
0.010964
  0
VERTEX
  8
0
 10
235.535526
 20
78.127888
 42
0.005225
  0
VERTEX
  8
0
 10
233.172269
 20
79.401984
 42
0.514084
  0
VERTEX
  8
0
 10
232.881579
 20
79.255894
 42
0.011420
  0
VERTEX
  8
0
 10
232.838106
 20
78.929871
 42
0.008996
  0
VERTEX
  8
0
 10
232.805477
 20
78.575169
 42
0.009113
  0
VERTEX
  8
0
 10
232.787095
 20
78.244401
 42
0.022136
  0
VERTEX
  8
0
 10
232.788801
 20
78.000000
 42
-0.002753
  0
VERTEX
  8
0
 10
232.806907
 20
77.604375
 42
-0.000009
  0
VERTEX
  8
0
 10
233.007438
 20
72.620271
 42
-0.000050
  0
VERTEX
  8
0
 10
233.233549
 20
66.983998
 42
-0.000031
  0
VERTEX
  8
0
 10
233.497088
 20
60.388158
 42
0.000000
  0
VERTEX
  8
0
 10
234.179733
 20
43.276315
 42
0.000000
  0
VERTEX
  8
0
 10
228.839866
 20
43.672160
 42
-0.003271
  0
VERTEX
  8
0
 10
219.422961
 20
44.432200
 42
-0.033587
  0
VERTEX
  8
0
 10
215.565507
 20
45.031881
 42
-0.099209
  0
VERTEX
  8
0
 10
213.625063
 20
45.896443
 42
-0.183090
  0
VERTEX
  8
0
 10
212.674897
 20
47.310303
 42
-0.040627
  0
VERTEX
  8
0
 10
212.468149
 20
48.693863
 42
-0.004335
  0
VERTEX
  8
0
 10
212.278110
 20
51.941151
 42
-0.005320
  0
VERTEX
  8
0
 10
212.126233
 20
55.819050
 42
-0.004254
  0
VERTEX
  8
0
 10
212.042619
 20
60.000000
 42
0.002440
  0
VERTEX
  8
0
 10
211.963453
 20
64.835955
 42
0.001350
  0
VERTEX
  8
0
 10
211.822007
 20
70.740840
 42
0.001346
  0
VERTEX
  8
0
 10
211.646417
 20
76.723515
 42
0.002167
  0
VERTEX
  8
0
 10
211.460994
 20
81.819881
 42
-0.000311
  0
VERTEX
  8
0
 10
211.284346
 20
86.224980
 42
-0.000461
  0
VERTEX
  8
0
 10
211.135417
 20
90.087770
 42
-0.000202
  0
VERTEX
  8
0
 10
211.012541
 20
93.388492
 42
-0.009202
  0
VERTEX
  8
0
 10
211.000000
 20
94.069881
 42
0.109358
  0
VERTEX
  8
0
 10
210.921450
 20
94.424727
 42
0.099818
  0
VERTEX
  8
0
 10
210.699050
 20
94.726778
 42
0.095215
  0
VERTEX
  8
0
 10
210.366638
 20
94.929342
 42
0.089596
  0
VERTEX
  8
0
 10
209.975489
 20
95.000000
 42
-0.135593
  0
VERTEX
  8
0
 10
208.445589
 20
95.422659
 42
-0.003512
  0
VERTEX
  8
0
 10
202.316137
 20
99.147930
 42
-0.008246
  0
VERTEX
  8
0
 10
196.304432
 20
102.998085
 42
-0.017886
  0
VERTEX
  8
0
 10
191.846883
 20
106.193090
 42
0.000000
  0
VERTEX
  8
0
 10
188.193767
 20
109.014593
 42
0.000000
  0
VERTEX
  8
0
 10
182.784418
 20
99.757296
 42
0.000000
  0
VERTEX
  8
0
 10
177.375070
 20
90.500000
 42
0.000000
  0
VERTEX
  8
0
 10
166.437535
 20
90.000000
 42
0.000000
  0
VERTEX
  8
0
 10
155.500000
 20
89.500000
 42
0.000000
  0
VERTEX
  8
0
 10
155.222820
 20
75.909627
 42
0.000000
  0
VERTEX
  8
0
 10
154.945639
 20
62.319253
 42
0.000000
  0
VERTEX
  8
0
 10
160.722820
 20
58.508639
 42
-0.003445
  0
VERTEX
  8
0
 10
163.846560
 20
56.417198
 42
-0.000839
  0
VERTEX
  8
0
 10
168.971385
 20
52.922011
 42
-0.000860
  0
VERTEX
  8
0
 10
174.833879
 20
48.894485
 42
-0.000856
  0
VERTEX
  8
0
 10
180.690405
 20
44.841406
 42
0.000000
  0
VERTEX
  8
0
 10
194.880810
 20
34.984787
 42
0.000000
  0
VERTEX
  8
0
 10
192.997272
 20
30.742393
 42
-0.007965
  0
VERTEX
  8
0
 10
192.072134
 20
28.745061
 42
-0.003810
  0
VERTEX
  8
0
 10
190.823466
 20
26.207679
 42
-0.003776
  0
VERTEX
  8
0
 10
189.479146
 20
23.577419
 42
-0.005373
  0
VERTEX
  8
0
 10
188.242048
 20
21.262470
 42
0.000000
  0
VERTEX
  8
0
 10
185.370362
 20
16.024941
 42
0.000000
  0
VERTEX
  8
0
 10
171.435181
 20
25.618871
 42
-0.003021
  0
VERTEX
  8
0
 10
166.069883
 20
29.360695
 42
-0.004703
  0
VERTEX
  8
0
 10
161.495543
 20
32.657079
 42
-0.001528
  0
VERTEX
  8
0
 10
157.583829
 20
35.550693
 42
-0.144444
  0
VERTEX
  8
0
 10
157.166667
 20
36.106401
 42
0.082114
  0
VERTEX
  8
0
 10
156.970679
 20
36.447989
 42
0.066447
  0
VERTEX
  8
0
 10
156.661979
 20
36.737505
 42
0.067174
  0
VERTEX
  8
0
 10
156.292008
 20
36.933182
 42
0.088316
  0
VERTEX
  8
0
 10
155.916667
 20
37.000000
 42
0.395527
  0
VERTEX
  8
0
 10
155.535261
 20
36.642333
 42
0.002971
  0
VERTEX
  8
0
 10
155.263095
 20
31.977273
 42
0.008430
  0
VERTEX
  8
0
 10
155.063888
 20
26.364024
 42
0.004654
  0
VERTEX
  8
0
 10
155.000000
 20
19.500000
 42
0.000000
  0
VERTEX
  8
0
 10
155.000000
 20
2.000000
 42
0.000000
  0
VERTEX
  8
0
 10
142.500000
 20
2.000000
 42
0.000000
  0
VERTEX
  8
0
 10
130.000000
 20
2.000000
 42
0.000000
  0
VERTEX
  8
0
 10
130.000000
 20
19.500000
 42
0.002906
  0
VERTEX
  8
0
 10
129.960998
 20
26.210330
 42
0.004844
  0
VERTEX
  8
0
 10
129.840582
 20
31.859375
 42
0.000943
  0
VERTEX
  8
0
 10
129.678486
 20
36.786375
 42
0.404065
  0
VERTEX
  8
0
 10
129.457300
 20
37.000000
 42
0.144569
  0
VERTEX
  8
0
 10
129.093291
 20
36.892505
 42
0.003201
  0
VERTEX
  8
0
 10
127.544374
 20
35.876158
 42
0.006996
  0
VERTEX
  8
0
 10
125.742157
 20
34.640302
 42
0.004640
  0
VERTEX
  8
0
 10
123.707300
 20
33.174154
 42
-0.007628
  0
VERTEX
  8
0
 10
117.582936
 20
28.816815
 42
-0.003294
  0
VERTEX
  8
0
 10
109.299194
 20
23.191543
 42
-0.000562
  0
VERTEX
  8
0
 10
100.426299
 20
17.265666
 42
-0.147993
  0
VERTEX
  8
0
 10
99.548396
 20
17.000000
 42
-0.279230
  0
VERTEX
  8
0
 10
99.034279
 20
17.311393
 42
-0.000594
  0
VERTEX
  8
0
 10
94.591612
 20
25.835993
 42
-0.001122
  0
VERTEX
  8
0
 10
90.297519
 20
34.144983
 42
-0.119249
  0
VERTEX
  8
0
 10
90.000000
 20
35.374714
 42
-0.243127
  0
VERTEX
  8
0
 10
90.134566
 20
35.635095
 42
-0.000487
  0
VERTEX
  8
0
 10
94.039062
 20
38.398003
 42
-0.003165
  0
VERTEX
  8
0
 10
98.478271
 20
41.490887
 42
-0.001938
  0
VERTEX
  8
0
 10
103.750000
 20
45.084450
 42
0.000189
  0
VERTEX
  8
0
 10
109.480740
 20
48.961604
 42
0.000177
  0
VERTEX
  8
0
 10
115.329287
 20
52.924698
 42
0.000176
  0
VERTEX
  8
0
 10
120.513314
 20
56.442845
 42
0.000612
  0
VERTEX
  8
0
 10
123.860339
 20
58.722021
 42
0.000000
  0
VERTEX
  8
0
 10
130.220678
 20
63.064534
 42
0.000000
  0
VERTEX
  8
0
 10
130.057078
 20
75.756167
 42
0.005853
  0
VERTEX
  8
0
 10
129.916150
 20
81.484884
 42
0.016121
  0
VERTEX
  8
0
 10
129.639502
 20
85.514855
 42
0.015809
  0
VERTEX
  8
0
 10
129.261286
 20
88.354877
 42
0.213278
  0
VERTEX
  8
0
 10
128.696739
 20
89.208588
 42
0.119920
  0
VERTEX
  8
0
 10
127.802501
 20
89.512458
 42
0.005699
  0
VERTEX
  8
0
 10
124.620292
 20
89.759475
 42
0.009081
  0
VERTEX
  8
0
 10
120.801213
 20
89.942587
 42
0.006386
  0
VERTEX
  8
0
 10
116.500000
 20
90.015612
 42
0.000000
  0
VERTEX
  8
0
 10
105.500000
 20
90.061849
 42
0.000000
  0
VERTEX
  8
0
 10
99.750000
 20
100.126635
 42
-0.005588
  0
VERTEX
  8
0
 10
97.547050
 20
104.084727
 42
-0.007993
  0
VERTEX
  8
0
 10
95.689063
 20
107.647400
 42
-0.004789
  0
VERTEX
  8
0
 10
94.209694
 20
110.670096
 42
-0.111856
  0
VERTEX
  8
0
 10
94.000000
 20
111.595711
 42
0.331837
  0
VERTEX
  8
0
 10
93.312101
 20
112.518077
 42
0.175554
  0
VERTEX
  8
0
 10
91.810041
 20
112.430281
 42
0.038240
  0
VERTEX
  8
0
 10
88.614052
 20
110.756675
 42
0.003996
  0
VERTEX
  8
0
 10
81.472598
 20
106.211109
 42
0.000000
  0
VERTEX
  8
0
 10
70.992541
 20
99.422218
 42
0.000000
  0
VERTEX
  8
0
 10
70.594389
 20
85.461109
 42
0.001142
  0
VERTEX
  8
0
 10
70.434729
 20
79.374969
 42
0.000838
  0
VERTEX
  8
0
 10
70.284372
 20
72.623985
 42
0.000846
  0
VERTEX
  8
0
 10
70.163567
 20
66.233008
 42
0.001882
  0
VERTEX
  8
0
 10
70.098119
 20
61.365223
 42
0.000000
  0
VERTEX
  8
0
 10
70.000000
 20
51.230447
 42
0.000000
  0
VERTEX
  8
0
 10
64.500000
 20
50.615223
 42
-0.000042
  0
VERTEX
  8
0
 10
62.011902
 20
50.337121
 42
-0.000026
  0
VERTEX
  8
0
 10
59.066594
 20
50.008320
 42
-0.000026
  0
VERTEX
  8
0
 10
56.142813
 20
49.682227
 42
-0.000045
  0
VERTEX
  8
0
 10
53.726703
 20
49.413101
 42
0.000000
  0
VERTEX
  8
0
 10
48.453405
 20
48.826203
 42
0.000000
  0
VERTEX
  8
0
 10
48.829275
 20
65.663101
 42
-0.005404
  0
VERTEX
  8
0
 10
49.047592
 20
72.250705
 42
-0.008270
  0
VERTEX
  8
0
 10
49.392953
 20
77.954432
 42
-0.004308
  0
VERTEX
  8
0
 10
49.801922
 20
82.718666
 42
-0.148608
  0
VERTEX
  8
0
 10
50.225017
 20
83.750000
 42
0.506600
  0
VERTEX
  8
0
 10
50.020330
 20
84.540178
 42
0.203447
  0
VERTEX
  8
0
 10
48.686034
 20
84.510935
 42
0.030006
  0
VERTEX
  8
0
 10
44.419081
 20
82.271465
 42
0.008117
  0
VERTEX
  8
0
 10
37.947289
 20
78.218026
 42
-0.000798
  0
VERTEX
  8
0
 10
33.679754
 20
75.457377
 42
-0.000852
  0
VERTEX
  8
0
 10
29.496224
 20
72.770612
 42
-0.000808
  0
VERTEX
  8
0
 10
25.891445
 20
70.472405
 42
-0.003991
  0
VERTEX
  8
0
 10
23.848368
 20
69.197262
 42
0.000000
  0
VERTEX
  8
0
 10
20.196736
 20
66.958471
 42
0.000000
  0
VERTEX
  8
0
 10
13.467209
 20
77.514743
 42
-0.003741
  0
VERTEX
  8
0
 10
10.914369
 20
81.586146
 42
-0.006177
  0
VERTEX
  8
0
 10
8.826446
 20
85.067657
 42
-0.001545
  0
VERTEX
  8
0
 10
7.068668
 20
88.104024
 42
-0.358183
  0
VERTEX
  8
0
 10
7.118841
 20
88.403091
 42
-0.035383
  0
VERTEX
  8
0
 10
7.621095
 20
88.781709
 42
-0.000289
  0
VERTEX
  8
0
 10
11.777345
 20
91.473000
 42
-0.000599
  0
VERTEX
  8
0
 10
18.112138
 20
95.559012
 42
-0.000089
  0
VERTEX
  8
0
 10
30.863558
 20
103.758988
 42
0.000000
  0
VERTEX
  8
0
 10
36.227117
 20
107.206742
 42
0.000000
  0
VERTEX
  8
0
 10
19.613558
 20
114.248504
 42
-0.003382
  0
VERTEX
  8
0
 10
13.244072
 20
116.999221
 42
-0.005508
  0
VERTEX
  8
0
 10
7.880233
 20
119.429679
 42
-0.001320
  0
VERTEX
  8
0
 10
3.249039
 20
121.604860
 42
-0.290008
  0
VERTEX
  8
0
 10
3.000000
 20
121.998115
 42
-0.137578
  0
VERTEX
  8
0
 10
3.674165
 20
124.401868
 42
-0.006703
  0
VERTEX
  8
0
 10
8.116301
 20
131.482721
 42
-0.004243
  0
VERTEX
  8
0
 10
12.868396
 20
138.701648
 42
-0.305019
  0
VERTEX
  8
0
 10
14.125689
 20
139.215563
 42
-0.045965
  0
VERTEX
  8
0
 10
15.135148
 20
138.907772
 42
-0.000586
  0
VERTEX
  8
0
 10
21.316041
 20
136.374387
 42
-0.001705
  0
VERTEX
  8
0
 10
28.459355
 20
133.408228
 42
-0.001117
  0
VERTEX
  8
0
 10
36.673601
 20
129.942898
 42
0.000000
  0
VERTEX
  8
0
 10
57.847201
 20
120.954670
 42
0.000000
  0
VERTEX
  8
0
 10
68.923601
 20
128.084094
 42
0.004841
  0
VERTEX
  8
0
 10
73.169467
 20
130.875485
 42
0.007669
  0
VERTEX
  8
0
 10
76.746308
 20
133.357368
 42
0.002764
  0
VERTEX
  8
0
 10
79.754122
 20
135.538766
 42
0.238843
  0
VERTEX
  8
0
 10
80.000000
 20
136.024131
 42
0.119806
  0
VERTEX
  8
0
 10
79.866052
 20
136.575129
 42
0.003249
  0
VERTEX
  8
0
 10
78.703258
 20
138.789973
 42
0.006566
  0
VERTEX
  8
0
 10
77.277117
 20
141.381528
 42
0.004432
  0
VERTEX
  8
0
 10
75.585558
 20
144.301457
 42
0.000000
  0
VERTEX
  8
0
 10
71.171115
 20
151.768170
 42
0.000000
  0
VERTEX
  8
0
 10
77.145631
 20
161.490678
 42
0.003156
  0
VERTEX
  8
0
 10
79.414183
 20
165.235144
 42
0.005237
  0
VERTEX
  8
0
 10
81.274049
 20
168.424641
 42
0.001105
  0
VERTEX
  8
0
 10
82.857417
 20
171.220888
 42
0.378249
  0
VERTEX
  8
0
 10
82.810074
 20
171.442776
 42
0.025832
  0
VERTEX
  8
0
 10
82.556215
 20
171.611171
 42
0.000084
  0
VERTEX
  8
0
 10
79.288380
 20
173.542918
 42
0.000471
  0
VERTEX
  8
0
 10
75.589177
 20
175.724132
 42
0.000295
  0
VERTEX
  8
0
 10
71.256751
 20
178.269793
 42
0.000000
  0
VERTEX
  8
0
 10
60.013502
 20
184.867220
 42
0.000000
  0
VERTEX
  8
0
 10
49.256751
 20
179.821588
 42
0.000141
  0
VERTEX
  8
0
 10
44.386639
 20
177.535501
 42
0.000085
  0
VERTEX
  8
0
 10
38.613367
 20
174.822266
 42
0.000085
  0
VERTEX
  8
0
 10
32.876799
 20
172.123893
 42
0.000149
  0
VERTEX
  8
0
 10
28.129178
 20
169.887978
 42
-0.003922
  0
VERTEX
  8
0
 10
24.073491
 20
168.015188
 42
-0.005742
  0
VERTEX
  8
0
 10
20.473089
 20
166.436329
 42
-0.002942
  0
VERTEX
  8
0
 10
17.406539
 20
165.154604
 42
-0.098184
  0
VERTEX
  8
0
 10
16.629178
 20
165.001652
 42
-0.248753
  0
VERTEX
  8
0
 10
15.438636
 20
165.635254
 42
-0.002755
  0
VERTEX
  8
0
 10
10.200629
 20
173.482022
 42
-0.002349
  0
VERTEX
  8
0
 10
5.000350
 20
181.447177
 42
-0.371763
  0
VERTEX
  8
0
 10
5.136387
 20
182.425519
 42
-0.074728
  0
VERTEX
  8
0
 10
7.528604
 20
183.964245
 42
-0.001482
  0
VERTEX
  8
0
 10
20.801745
 20
189.882960
 42
-0.001001
  0
VERTEX
  8
0
 10
34.429204
 20
195.878714
 42
-0.117840
  0
VERTEX
  8
0
 10
36.314230
 20
196.217618
 42
0.453370
  0
VERTEX
  8
0
 10
37.029572
 20
196.946241
 42
0.211134
  0
VERTEX
  8
0
 10
36.320681
 20
198.271248
 42
0.029168
  0
VERTEX
  8
0
 10
32.055312
 20
201.221126
 42
0.004217
  0
VERTEX
  8
0
 10
22.971969
 20
206.645028
 42
-0.006547
  0
VERTEX
  8
0
 10
17.447388
 20
209.978923
 42
-0.010586
  0
VERTEX
  8
0
 10
12.846961
 20
212.974796
 42
-0.004552
  0
VERTEX
  8
0
 10
9.070773
 20
215.600051
 42
-0.316638
  0
VERTEX
  8
0
 10
8.826195
 20
216.289521
 42
-0.061120
  0
VERTEX
  8
0
 10
9.355683
 20
217.561320
 42
-0.000557
  0
VERTEX
  8
0
 10
14.450909
 20
226.507865
 42
-0.000778
  0
VERTEX
  8
0
 10
19.466016
 20
235.259316
 42
-0.042085
  0
VERTEX
  8
0
 10
20.555145
 20
236.830797
 42
-0.361422
  0
VERTEX
  8
0
 10
20.812716
 20
236.879530
 42
-0.000621
  0
VERTEX
  8
0
 10
25.009324
 20
234.543813
 42
-0.003904
  0
VERTEX
  8
0
 10
29.752853
 20
231.847181
 42
-0.002356
  0
VERTEX
  8
0
 10
35.334784
 20
228.580797
 42
0.003622
  0
VERTEX
  8
0
 10
43.975844
 20
223.553625
 42
0.018184
  0
VERTEX
  8
0
 10
48.929124
 20
220.954049
 42
0.061235
  0
VERTEX
  8
0
 10
51.237606
 20
220.177179
 42
0.657557
  0
VERTEX
  8
0
 10
51.646647
 20
220.762721
 42
-0.112223
  0
VERTEX
  8
0
 10
51.192880
 20
222.087212
 42
-0.003778
  0
VERTEX
  8
0
 10
50.642982
 20
227.623684
 42
-0.005958
  0
VERTEX
  8
0
 10
50.060810
 20
234.928761
 42
-0.002441
  0
VERTEX
  8
0
 10
49.437110
 20
244.858486
 42
0.000000
  0
VERTEX
  8
0
 10
48.779312
 20
256.216973
 42
0.000000
  0
VERTEX
  8
0
 10
59.139656
 20
255.501891
 42
-0.002911
  0
VERTEX
  8
0
 10
63.137869
 20
255.202534
 42
-0.004584
  0
VERTEX
  8
0
 10
66.566245
 20
254.894102
 42
-0.001324
  0
VERTEX
  8
0
 10
69.534685
 20
254.591651
 42
-0.163701
  0
VERTEX
  8
0
 10
69.873093
 20
254.436978
 42
-0.189974
  0
VERTEX
  8
0
 10
70.334540
 20
253.462100
 42
-0.000287
  0
VERTEX
  8
0
 10
71.655240
 20
233.493990
 42
-0.001274
  0
VERTEX
  8
0
 10
72.820423
 20
215.000897
 42
-0.034149
  0
VERTEX
  8
0
 10
72.781539
 20
210.076679
 42
0.093431
  0
VERTEX
  8
0
 10
73.027403
 20
207.853708
 42
0.138395
  0
VERTEX
  8
0
 10
74.081548
 20
206.214580
 42
0.047132
  0
VERTEX
  8
0
 10
76.649626
 20
204.342004
 42
0.003285
  0
VERTEX
  8
0
 10
84.368879
 20
199.826679
 42
0.000875
  0
VERTEX
  8
0
 10
88.929977
 20
197.209387
 42
0.001425
  0
VERTEX
  8
0
 10
92.812194
 20
195.005337
 42
0.000164
  0
VERTEX
  8
0
 10
96.281128
 20
193.050473
 42
0.128919
  0
VERTEX
  8
0
 10
96.473630
 20
193.000000
 42
0.254535
  0
VERTEX
  8
0
 10
96.630677
 20
193.085487
 42
0.000530
  0
VERTEX
  8
0
 10
98.185825
 20
195.497013
 42
0.003351
  0
VERTEX
  8
0
 10
99.925611
 20
198.241387
 42
0.002051
  0
VERTEX
  8
0
 10
101.942672
 20
201.500469
 42
-0.017700
  0
VERTEX
  8
0
 10
105.947189
 20
207.539958
 42
-0.111678
  0
VERTEX
  8
0
 10
108.687730
 20
209.980045
 42
-0.121518
  0
VERTEX
  8
0
 10
112.106687
 20
210.901217
 42
-0.022558
  0
VERTEX
  8
0
 10
118.664577
 20
210.745258
 42
0.018252
  0
VERTEX
  8
0
 10
125.727576
 20
210.516442
 42
0.244539
  0
VERTEX
  8
0
 10
127.951773
 20
211.685085
 42
0.147184
  0
VERTEX
  8
0
 10
128.873323
 20
214.512420
 42
0.005704
  0
VERTEX
  8
0
 10
129.000000
 20
225.616631
 42
0.004817
  0
VERTEX
  8
0
 10
128.938657
 20
231.983949
 42
0.013815
  0
VERTEX
  8
0
 10
128.731334
 20
236.401612
 42
0.010519
  0
VERTEX
  8
0
 10
128.429334
 20
239.552267
 42
0.380461
  0
VERTEX
  8
0
 10
127.926098
 20
240.000000
 42
-0.144458
  0
VERTEX
  8
0
 10
127.164843
 20
240.224626
 42
-0.001072
  0
VERTEX
  8
0
 10
121.611508
 20
243.831379
 42
-0.003906
  0
VERTEX
  8
0
 10
115.265413
 20
248.043416
 42
-0.002481
  0
VERTEX
  8
0
 10
107.937654
 20
253.042992
 42
0.000000
  0
VERTEX
  8
0
 10
89.023113
 20
266.085985
 42
0.000000
  0
VERTEX
  8
0
 10
93.627028
 20
275.292992
 42
-0.000660
  0
VERTEX
  8
0
 10
95.405965
 20
278.838847
 42
-0.001055
  0
VERTEX
  8
0
 10
96.935664
 20
281.862003
 42
-0.000184
  0
VERTEX
  8
0
 10
98.294827
 20
284.531686
 42
-0.059555
  0
VERTEX
  8
0
 10
98.425398
 20
284.726593
 42
-0.384389
  0
VERTEX
  8
0
 10
99.063084
 20
284.808423
 42
-0.000341
  0
VERTEX
  8
0
 10
112.652363
 20
275.370952
 42
-0.000570
  0
VERTEX
  8
0
 10
126.014616
 20
266.054994
 42
-0.158700
  0
VERTEX
  8
0
 10
126.833333
 20
264.969141
 42
0.077898
  0
VERTEX
  8
0
 10
127.029378
 20
264.598704
 42
0.067365
  0
VERTEX
  8
0
 10
127.338021
 20
264.284685
 42
0.069540
  0
VERTEX
  8
0
 10
127.707995
 20
264.072534
 42
0.095739
  0
VERTEX
  8
0
 10
128.083333
 20
264.000000
 42
0.395527
  0
VERTEX
  8
0
 10
128.464739
 20
264.357667
 42
0.002971
  0
VERTEX
  8
0
 10
128.736905
 20
269.022727
 42
0.008430
  0
VERTEX
  8
0
 10
128.936112
 20
274.635976
 42
0.004654
  0
VERTEX
  8
0
 10
129.000000
 20
281.500000
 42
0.000000
  0
VERTEX
  8
0
 10
129.000000
 20
299.000000
 42
0.000000
  0
VERTEX
  8
0
 10
141.500000
 20
299.000000
 42
0.000000
  0
VERTEX
  8
0
 10
154.000000
 20
299.000000
 42
0.000000
  0
SEQEND
  0
ENDSEC
  0
EOF
