  0
SECTION
  2
HEADER
  9
$ACADVER
  1
AC1006
  9
$EXTMIN
 10
0.000000
 20
0.000000
 30
0.000000
  9
$EXTMAX
 10
350.000000
 20
453.000000
 30
0.000000
  0
ENDSEC
  0
SECTION
  2
ENTITIES
  0
POLYLINE
  8
0
 66
1
 70
1
  0
VERTEX
  8
0
 10
12.389534
 20
440.572726
 42
0.082189
  0
VERTEX
  8
0
 10
11.962653
 20
438.492478
 42
0.092978
  0
VERTEX
  8
0
 10
12.260917
 20
436.478620
 42
0.116610
  0
VERTEX
  8
0
 10
13.175947
 20
435.034035
 42
0.195950
  0
VERTEX
  8
0
 10
14.486305
 20
434.500000
 42
0.161300
  0
VERTEX
  8
0
 10
16.053829
 20
435.019191
 42
0.199044
  0
VERTEX
  8
0
 10
16.836301
 20
436.330033
 42
0.203437
  0
VERTEX
  8
0
 10
16.454602
 20
437.787175
 42
0.165853
  0
VERTEX
  8
0
 10
15.098221
 20
438.684566
 42
-0.042796
  0
VERTEX
  8
0
 10
14.340622
 20
438.953680
 42
-0.075383
  0
VERTEX
  8
0
 10
13.785218
 20
439.315453
 42
-0.116480
  0
VERTEX
  8
0
 10
13.511466
 20
439.706245
 42
-0.237501
  0
VERTEX
  8
0
 10
13.543272
 20
440.070016
 42
-0.152918
  0
VERTEX
  8
0
 10
13.868943
 20
440.352062
 42
-0.070257
  0
VERTEX
  8
0
 10
14.415727
 20
440.503372
 42
-0.059854
  0
VERTEX
  8
0
 10
15.086241
 20
440.510159
 42
-0.050226
  0
VERTEX
  8
0
 10
15.782025
 20
440.361994
 42
0.003992
  0
VERTEX
  8
0
 10
16.790238
 20
440.047688
 42
0.386062
  0
VERTEX
  8
0
 10
16.915784
 20
440.107200
 42
0.343547
  0
VERTEX
  8
0
 10
16.876118
 20
440.250216
 42
0.003706
  0
VERTEX
  8
0
 10
16.000000
 20
440.890355
 42
0.036641
  0
VERTEX
  8
0
 10
14.638650
 20
441.725647
 42
0.142156
  0
VERTEX
  8
0
 10
13.677614
 20
441.915134
 42
0.199370
  0
VERTEX
  8
0
 10
12.957058
 20
441.538788
 42
0.082557
  0
SEQEND
  0
POLYLINE
  8
0
 66
1
 70
1
  0
VERTEX
  8
0
 10
15.075000
 20
436.725000
 42
-0.175736
  0
VERTEX
  8
0
 10
14.786965
 20
436.130242
 42
-0.239194
  0
VERTEX
  8
0
 10
14.227257
 20
435.955686
 42
-0.167686
  0
VERTEX
  8
0
 10
13.586752
 20
436.305209
 42
-0.104687
  0
VERTEX
  8
0
 10
13.150000
 20
437.050000
 42
-0.089632
  0
VERTEX
  8
0
 10
13.088424
 20
437.477775
 42
-0.189618
  0
VERTEX
  8
0
 10
13.220000
 20
437.780000
 42
-0.189618
  0
VERTEX
  8
0
 10
13.522225
 20
437.911576
 42
-0.089632
  0
VERTEX
  8
0
 10
13.950000
 20
437.850000
 42
-0.053161
  0
VERTEX
  8
0
 10
14.403407
 20
437.643170
 42
-0.062883
  0
VERTEX
  8
0
 10
14.775469
 20
437.354531
 42
-0.073742
  0
VERTEX
  8
0
 10
15.014704
 20
437.031991
 42
-0.149613
  0
SEQEND
  0
POLYLINE
  8
0
 66
1
 70
1
  0
VERTEX
  8
0
 10
18.078947
 20
440.416667
 42
0.018894
  0
VERTEX
  8
0
 10
18.137993
 20
439.670344
 42
0.168741
  0
VERTEX
  8
0
 10
18.279315
 20
439.378580
 42
0.470617
  0
VERTEX
  8
0
 10
18.461564
 20
439.395823
 42
0.054073
  0
VERTEX
  8
0
 10
18.683114
 20
439.812500
 42
0.051402
  0
VERTEX
  8
0
 10
18.839148
 20
440.359369
 42
0.054150
  0
VERTEX
  8
0
 10
18.876576
 20
440.916927
 42
0.060344
  0
VERTEX
  8
0
 10
18.797407
 20
441.402231
 42
0.126455
  0
VERTEX
  8
0
 10
18.604167
 20
441.729167
 42
0.296942
  0
VERTEX
  8
0
 10
18.385309
 20
441.775380
 42
0.208169
  0
VERTEX
  8
0
 10
18.200665
 20
441.592839
 42
0.077125
  0
VERTEX
  8
0
 10
18.089945
 20
441.112848
 42
0.028489
  0
SEQEND
  0
POLYLINE
  8
0
 66
1
 70
1
  0
VERTEX
  8
0
 10
20.000000
 20
440.440983
 42
0.067432
  0
VERTEX
  8
0
 10
20.074611
 20
439.890269
 42
0.140899
  0
VERTEX
  8
0
 10
20.298542
 20
439.524436
 42
0.190788
  0
VERTEX
  8
0
 10
20.630360
 20
439.397824
 42
0.136093
  0
VERTEX
  8
0
 10
21.016312
 20
439.510081
 42
0.090427
  0
VERTEX
  8
0
 10
21.360589
 20
439.820631
 42
0.095498
  0
VERTEX
  8
0
 10
21.565079
 20
440.227140
 42
0.099685
  0
VERTEX
  8
0
 10
21.598899
 20
440.665803
 42
0.108373
  0
VERTEX
  8
0
 10
21.457295
 20
441.069098
 42
0.050477
  0
VERTEX
  8
0
 10
20.866860
 20
441.838655
 42
0.315493
  0
VERTEX
  8
0
 10
20.407182
 20
441.933879
 42
0.257010
  0
VERTEX
  8
0
 10
20.085158
 20
441.519563
 42
0.039415
  0
SEQEND
  0
POLYLINE
  8
0
 66
1
 70
1
  0
VERTEX
  8
0
 10
26.000000
 20
440.977329
 42
0.074835
  0
VERTEX
  8
0
 10
25.328021
 20
440.371453
 42
0.258923
  0
VERTEX
  8
0
 10
25.226275
 20
439.815389
 42
0.130668
  0
VERTEX
  8
0
 10
25.663033
 20
439.156842
 42
0.016610
  0
VERTEX
  8
0
 10
26.985060
 20
438.061034
 42
-0.030177
  0
VERTEX
  8
0
 10
27.885944
 20
437.272132
 42
-0.049710
  0
VERTEX
  8
0
 10
28.531308
 20
436.493209
 42
-0.067403
  0
VERTEX
  8
0
 10
28.855549
 20
435.835398
 42
-0.284513
  0
VERTEX
  8
0
 10
28.759225
 20
435.425892
 42
-0.192793
  0
VERTEX
  8
0
 10
28.362999
 20
435.256272
 42
-0.075278
  0
VERTEX
  8
0
 10
27.761663
 20
435.332871
 42
-0.059837
  0
VERTEX
  8
0
 10
27.059479
 20
435.626859
 42
-0.043549
  0
VERTEX
  8
0
 10
26.361545
 20
436.107499
 42
0.007180
  0
VERTEX
  8
0
 10
25.377569
 20
436.896323
 42
0.190098
  0
VERTEX
  8
0
 10
25.059893
 20
436.989631
 42
0.459073
  0
VERTEX
  8
0
 10
24.936014
 20
436.816117
 42
0.019652
  0
VERTEX
  8
0
 10
25.170712
 20
436.000000
 42
0.125835
  0
VERTEX
  8
0
 10
25.538285
 20
435.426125
 42
0.068424
  0
VERTEX
  8
0
 10
26.226853
 20
434.940625
 42
0.061274
  0
VERTEX
  8
0
 10
27.113824
 20
434.611717
 42
0.058243
  0
VERTEX
  8
0
 10
28.069638
 20
434.500000
 42
0.124741
  0
VERTEX
  8
0
 10
29.854966
 20
434.952448
 42
0.210888
  0
VERTEX
  8
0
 10
30.783454
 20
436.151981
 42
0.237692
  0
VERTEX
  8
0
 10
30.470511
 20
437.527528
 42
0.144249
  0
VERTEX
  8
0
 10
29.056870
 20
438.481950
 42
-0.041398
  0
VERTEX
  8
0
 10
28.269775
 20
438.805563
 42
-0.051065
  0
VERTEX
  8
0
 10
27.604206
 20
439.236758
 42
-0.059664
  0
VERTEX
  8
0
 10
27.146269
 20
439.704599
 42
-0.165362
  0
VERTEX
  8
0
 10
27.000000
 20
440.134775
 42
-0.238420
  0
VERTEX
  8
0
 10
27.168301
 20
440.467662
 42
-0.121245
  0
VERTEX
  8
0
 10
27.612677
 20
440.652032
 42
-0.075436
  0
VERTEX
  8
0
 10
28.295660
 20
440.652976
 42
-0.039553
  0
VERTEX
  8
0
 10
29.125229
 20
440.460254
 42
0.021768
  0
VERTEX
  8
0
 10
30.055035
 20
440.209117
 42
0.128686
  0
VERTEX
  8
0
 10
30.554692
 20
440.226959
 42
0.359143
  0
VERTEX
  8
0
 10
30.712143
 20
440.462349
 42
0.113869
  0
VERTEX
  8
0
 10
30.566212
 20
440.892866
 42
0.127315
  0
VERTEX
  8
0
 10
29.776696
 20
441.649229
 42
0.123673
  0
VERTEX
  8
0
 10
28.710569
 20
441.938090
 42
0.096937
  0
VERTEX
  8
0
 10
27.421427
 20
441.710458
 42
0.054122
  0
SEQEND
  0
POLYLINE
  8
0
 66
1
 70
1
  0
VERTEX
  8
0
 10
32.178653
 20
437.863811
 42
0.031531
  0
VERTEX
  8
0
 10
32.497456
 20
435.871375
 42
0.170706
  0
VERTEX
  8
0
 10
33.070311
 20
434.957366
 42
0.134790
  0
VERTEX
  8
0
 10
34.166391
 20
434.487707
 42
0.017064
  0
VERTEX
  8
0
 10
36.750000
 20
434.221351
 42
0.032031
  0
VERTEX
  8
0
 10
39.510313
 20
434.208745
 42
0.201787
  0
VERTEX
  8
0
 10
40.746130
 20
434.817493
 42
0.232082
  0
VERTEX
  8
0
 10
41.075439
 20
436.061505
 42
0.042299
  0
VERTEX
  8
0
 10
40.393011
 20
438.418213
 42
0.127174
  0
VERTEX
  8
0
 10
39.662674
 20
439.442529
 42
0.137587
  0
VERTEX
  8
0
 10
38.548023
 20
439.946937
 42
0.145993
  0
VERTEX
  8
0
 10
37.383754
 20
439.784714
 42
0.148283
  0
VERTEX
  8
0
 10
36.507079
 20
439.011454
 42
0.114400
  0
VERTEX
  8
0
 10
36.393111
 20
438.674071
 42
0.329480
  0
VERTEX
  8
0
 10
36.512472
 20
438.474315
 42
0.155351
  0
VERTEX
  8
0
 10
36.868281
 20
438.443138
 42
0.036408
  0
VERTEX
  8
0
 10
37.448062
 20
438.618443
 42
-0.081406
  0
VERTEX
  8
0
 10
38.155930
 20
438.764851
 42
-0.206274
  0
VERTEX
  8
0
 10
38.636520
 20
438.581019
 42
-0.157030
  0
VERTEX
  8
0
 10
38.916844
 20
438.051770
 42
-0.043923
  0
VERTEX
  8
0
 10
39.000000
 20
437.106989
 42
-0.048290
  0
VERTEX
  8
0
 10
38.921941
 20
436.300638
 42
-0.068289
  0
VERTEX
  8
0
 10
38.688914
 20
435.618928
 42
-0.088472
  0
VERTEX
  8
0
 10
38.345385
 20
435.159670
 42
-0.190269
  0
VERTEX
  8
0
 10
37.940983
 20
435.000000
 42
-0.108972
  0
VERTEX
  8
0
 10
37.586039
 20
435.078288
 42
-0.182303
  0
VERTEX
  8
0
 10
37.374600
 20
435.293750
 42
-0.161196
  0
VERTEX
  8
0
 10
37.343488
 20
435.617900
 42
-0.082592
  0
VERTEX
  8
0
 10
37.500000
 20
436.000000
 42
0.193258
  0
VERTEX
  8
0
 10
37.616735
 20
436.672920
 42
0.383598
  0
VERTEX
  8
0
 10
37.211602
 20
436.967180
 42
0.115978
  0
VERTEX
  8
0
 10
36.214749
 20
436.619795
 42
0.051283
  0
VERTEX
  8
0
 10
35.113989
 20
435.750000
 42
-0.050509
  0
VERTEX
  8
0
 10
34.468536
 20
435.238357
 42
-0.429010
  0
VERTEX
  8
0
 10
34.146541
 20
435.317560
 42
-0.148380
  0
VERTEX
  8
0
 10
34.020745
 20
435.868527
 42
-0.011178
  0
VERTEX
  8
0
 10
34.163989
 20
437.412749
 42
0.037255
  0
VERTEX
  8
0
 10
34.213572
 20
438.640151
 42
0.062930
  0
VERTEX
  8
0
 10
34.049970
 20
439.655246
 42
0.083065
  0
VERTEX
  8
0
 10
33.696240
 20
440.385212
 42
0.158659
  0
VERTEX
  8
0
 10
33.178653
 20
440.769864
 42
0.183527
  0
VERTEX
  8
0
 10
32.603050
 20
440.747637
 42
0.212559
  0
VERTEX
  8
0
 10
32.231724
 20
440.349287
 42
0.087661
  0
VERTEX
  8
0
 10
32.088605
 20
439.442510
 42
0.019324
  0
SEQEND
  0
POLYLINE
  8
0
 66
1
 70
1
  0
VERTEX
  8
0
 10
43.250000
 20
439.279762
 42
0.158275
  0
VERTEX
  8
0
 10
42.779115
 20
438.916586
 42
0.062720
  0
VERTEX
  8
0
 10
42.401263
 20
438.181138
 42
0.053729
  0
VERTEX
  8
0
 10
42.164037
 20
437.219970
 42
0.044553
  0
VERTEX
  8
0
 10
42.116001
 20
436.166667
 42
0.004253
  0
VERTEX
  8
0
 10
42.190306
 20
434.738434
 42
0.172989
  0
VERTEX
  8
0
 10
42.310625
 20
434.456272
 42
0.583353
  0
VERTEX
  8
0
 10
42.458755
 20
434.491119
 42
0.009687
  0
VERTEX
  8
0
 10
42.731684
 20
435.500000
 42
-0.038760
  0
VERTEX
  8
0
 10
43.004416
 20
436.316676
 42
-0.034328
  0
VERTEX
  8
0
 10
43.409282
 20
437.116840
 42
-0.035946
  0
VERTEX
  8
0
 10
43.877042
 20
437.787662
 42
-0.082266
  0
VERTEX
  8
0
 10
44.336722
 20
438.195627
 42
0.093774
  0
VERTEX
  8
0
 10
44.979920
 20
438.793273
 42
0.371183
  0
VERTEX
  8
0
 10
44.942215
 20
439.290075
 42
0.223877
  0
VERTEX
  8
0
 10
44.309440
 20
439.516561
 42
0.061640
  0
SEQEND
  0
POLYLINE
  8
0
 66
1
 70
1
  0
VERTEX
  8
0
 10
154.367379
 20
310.106882
 42
0.000000
  0
VERTEX
  8
0
 10
134.234758
 20
269.322203
 42
0.000000
  0
VERTEX
  8
0
 10
123.867379
 20
267.731761
 42
-0.002007
  0
VERTEX
  8
0
 10
117.915502
 20
266.843128
 42
-0.000363
  0
VERTEX
  8
0
 10
106.851668
 20
265.244830
 42
-0.000391
  0
VERTEX
  8
0
 10
93.894344
 20
263.392952
 42
-0.000355
  0
VERTEX
  8
0
 10
80.500000
 20
261.498998
 42
0.001205
  0
VERTEX
  8
0
 10
67.722764
 20
259.670118
 42
0.001851
  0
VERTEX
  8
0
 10
56.667453
 20
258.018689
 42
0.000605
  0
VERTEX
  8
0
 10
47.107586
 20
256.542617
 42
0.052930
  0
VERTEX
  8
0
 10
45.708350
 20
256.170143
 42
0.455959
  0
VERTEX
  8
0
 10
45.370524
 20
255.242566
 42
0.048486
  0
VERTEX
  8
0
 10
46.848165
 20
253.097567
 42
0.021191
  0
VERTEX
  8
0
 10
50.199451
 20
249.445633
 42
0.003257
  0
VERTEX
  8
0
 10
57.208350
 20
242.520142
 42
-0.000521
  0
VERTEX
  8
0
 10
63.655547
 20
236.219016
 42
-0.000222
  0
VERTEX
  8
0
 10
72.269544
 20
227.775120
 42
-0.000220
  0
VERTEX
  8
0
 10
81.447760
 20
218.762224
 42
-0.000289
  0
VERTEX
  8
0
 10
89.815629
 20
210.528338
 42
0.000000
  0
VERTEX
  8
0
 10
109.131258
 20
191.500000
 42
0.000000
  0
VERTEX
  8
0
 10
101.536531
 20
147.112431
 42
0.001155
  0
VERTEX
  8
0
 10
98.659199
 20
130.058802
 42
0.001902
  0
VERTEX
  8
0
 10
96.314137
 20
115.622329
 42
0.000179
  0
VERTEX
  8
0
 10
94.271651
 20
102.709234
 42
0.239929
  0
VERTEX
  8
0
 10
94.423102
 20
102.243565
 42
0.321340
  0
VERTEX
  8
0
 10
94.857407
 20
102.171889
 42
0.000564
  0
VERTEX
  8
0
 10
101.900496
 20
105.656133
 42
0.003657
  0
VERTEX
  8
0
 10
109.851273
 20
109.673312
 42
0.002218
  0
VERTEX
  8
0
 10
119.202199
 20
114.536680
 42
0.000007
  0
VERTEX
  8
0
 10
129.127948
 20
119.755252
 42
0.000007
  0
VERTEX
  8
0
 10
138.859396
 20
124.872021
 42
0.000007
  0
VERTEX
  8
0
 10
147.238997
 20
129.278296
 42
0.000034
  0
VERTEX
  8
0
 10
152.000000
 20
131.782284
 42
0.000636
  0
VERTEX
  8
0
 10
155.780661
 20
133.777145
 42
0.000419
  0
VERTEX
  8
0
 10
160.126239
 20
136.081821
 42
0.000421
  0
VERTEX
  8
0
 10
164.351014
 20
138.331532
 42
0.000814
  0
VERTEX
  8
0
 10
167.727621
 20
140.140308
 42
0.000000
  0
VERTEX
  8
0
 10
174.955241
 20
144.027139
 42
0.000000
  0
VERTEX
  8
0
 10
215.044974
 20
122.914256
 42
0.001490
  0
VERTEX
  8
0
 10
230.455004
 20
114.857261
 42
0.002466
  0
VERTEX
  8
0
 10
243.515032
 20
108.159967
 42
0.000257
  0
VERTEX
  8
0
 10
255.182180
 20
102.256970
 42
0.323992
  0
VERTEX
  8
0
 10
255.668101
 20
102.334768
 42
0.239870
  0
VERTEX
  8
0
 10
255.835606
 20
102.849602
 42
0.000220
  0
VERTEX
  8
0
 10
253.800276
 20
115.729279
 42
0.002110
  0
VERTEX
  8
0
 10
251.451810
 20
130.154329
 42
0.001283
  0
VERTEX
  8
0
 10
248.560526
 20
147.184081
 42
0.000000
  0
VERTEX
  8
0
 10
240.919555
 20
191.500000
 42
0.000000
  0
VERTEX
  8
0
 10
273.686063
 20
223.620844
 42
0.000787
  0
VERTEX
  8
0
 10
294.886377
 20
244.468975
 42
0.013505
  0
VERTEX
  8
0
 10
301.637675
 20
251.498798
 42
0.055907
  0
VERTEX
  8
0
 10
304.123785
 20
254.933874
 42
0.507598
  0
VERTEX
  8
0
 10
303.476286
 20
256.365955
 42
0.014446
  0
VERTEX
  8
0
 10
301.253839
 20
256.765461
 42
0.000254
  0
VERTEX
  8
0
 10
289.183659
 20
258.570719
 42
0.000639
  0
VERTEX
  8
0
 10
275.119059
 20
260.648592
 42
0.000426
  0
VERTEX
  8
0
 10
259.000000
 20
262.994903
 42
-0.000522
  0
VERTEX
  8
0
 10
243.016083
 20
265.324662
 42
-0.000837
  0
VERTEX
  8
0
 10
229.387011
 20
267.349030
 42
-0.000133
  0
VERTEX
  8
0
 10
217.310272
 20
269.166789
 42
-0.051938
  0
VERTEX
  8
0
 10
216.466420
 20
269.385359
 42
-0.186973
  0
VERTEX
  8
0
 10
215.854202
 20
269.929842
 42
-0.000380
  0
VERTEX
  8
0
 10
209.881393
 20
281.588302
 42
-0.002547
  0
VERTEX
  8
0
 10
203.216850
 20
294.786783
 42
-0.001568
  0
VERTEX
  8
0
 10
195.500718
 20
310.385567
 42
0.001043
  0
VERTEX
  8
0
 10
187.819627
 20
325.954670
 42
0.001728
  0
VERTEX
  8
0
 10
181.266707
 20
339.053583
 42
0.000129
  0
VERTEX
  8
0
 10
175.349195
 20
350.773376
 42
0.310459
  0
VERTEX
  8
0
 10
175.034298
 20
350.945781
 42
0.255535
  0
VERTEX
  8
0
 10
174.719144
 20
350.729480
 42
0.000114
  0
VERTEX
  8
0
 10
168.742993
 20
338.926989
 42
0.001549
  0
VERTEX
  8
0
 10
162.125202
 20
325.748744
 42
0.000937
  0
SEQEND
  0
POLYLINE
  8
0
 66
1
 70
1
  0
VERTEX
  8
0
 10
194.939834
 20
307.519667
 42
0.002376
  0
VERTEX
  8
0
 10
202.780318
 20
291.721859
 42
0.004441
  0
VERTEX
  8
0
 10
209.300537
 20
279.022085
 42
0.001167
  0
VERTEX
  8
0
 10
214.922176
 20
268.368349
 42
0.202234
  0
VERTEX
  8
0
 10
215.900354
 20
267.571101
 42
0.027614
  0
VERTEX
  8
0
 10
216.906506
 20
267.336003
 42
0.003067
  0
VERTEX
  8
0
 10
219.233229
 20
266.940925
 42
0.003727
  0
VERTEX
  8
0
 10
222.011039
 20
266.507998
 42
0.003011
  0
VERTEX
  8
0
 10
225.000000
 20
266.083340
 42
-0.002080
  0
VERTEX
  8
0
 10
243.945833
 20
263.427586
 42
-0.000708
  0
VERTEX
  8
0
 10
271.437058
 20
259.417533
 42
-0.000025
  0
VERTEX
  8
0
 10
302.207813
 20
254.882969
 42
-0.161132
  0
VERTEX
  8
0
 10
302.695642
 20
254.637691
 42
-0.405638
  0
VERTEX
  8
0
 10
302.699215
 20
254.394382
 42
-0.002207
  0
VERTEX
  8
0
 10
300.932439
 20
252.537154
 42
-0.007431
  0
VERTEX
  8
0
 10
298.821558
 20
250.402162
 42
-0.004453
  0
VERTEX
  8
0
 10
296.254162
 20
247.926011
 42
0.002509
  0
VERTEX
  8
0
 10
292.242062
 20
244.086505
 42
0.000360
  0
VERTEX
  8
0
 10
284.080659
 20
236.185991
 42
0.000409
  0
VERTEX
  8
0
 10
274.441564
 20
226.826266
 42
0.000349
  0
VERTEX
  8
0
 10
264.297018
 20
216.945811
 42
0.000000
  0
VERTEX
  8
0
 10
239.094036
 20
192.364607
 42
0.000000
  0
VERTEX
  8
0
 10
246.534008
 20
149.002627
 42
-0.001031
  0
VERTEX
  8
0
 10
249.356483
 20
132.346526
 42
-0.001700
  0
VERTEX
  8
0
 10
251.665273
 20
118.255013
 42
-0.000143
  0
VERTEX
  8
0
 10
253.686376
 20
105.627922
 42
-0.240436
  0
VERTEX
  8
0
 10
253.554524
 20
105.221191
 42
-0.324992
  0
VERTEX
  8
0
 10
253.170988
 20
105.160496
 42
-0.000168
  0
VERTEX
  8
0
 10
241.796535
 20
110.964629
 42
-0.001995
  0
VERTEX
  8
0
 10
229.107671
 20
117.508833
 42
-0.001204
  0
VERTEX
  8
0
 10
214.116350
 20
125.362343
 42
0.000000
  0
VERTEX
  8
0
 10
175.097630
 20
145.922951
 42
0.000000
  0
VERTEX
  8
0
 10
135.997543
 20
125.346081
 42
-0.001094
  0
VERTEX
  8
0
 10
120.977657
 20
117.483616
 42
-0.001815
  0
VERTEX
  8
0
 10
108.270875
 20
110.925898
 42
-0.000139
  0
VERTEX
  8
0
 10
96.865291
 20
105.096036
 42
-0.325197
  0
VERTEX
  8
0
 10
96.515392
 20
105.151275
 42
-0.240796
  0
VERTEX
  8
0
 10
96.395372
 20
105.522368
 42
-0.000118
  0
VERTEX
  8
0
 10
98.440571
 20
118.193389
 42
-0.001546
  0
VERTEX
  8
0
 10
100.768095
 20
132.314629
 42
-0.000937
  0
VERTEX
  8
0
 10
103.605710
 20
149.013445
 42
0.000000
  0
VERTEX
  8
0
 10
111.078092
 20
192.493550
 42
0.000000
  0
VERTEX
  8
0
 10
101.789046
 20
201.506169
 42
-0.000791
  0
VERTEX
  8
0
 10
79.196130
 20
223.496215
 42
-0.001827
  0
VERTEX
  8
0
 10
62.310490
 20
240.104302
 42
-0.000165
  0
VERTEX
  8
0
 10
48.234990
 20
254.059199
 42
-0.415378
  0
VERTEX
  8
0
 10
48.233981
 20
254.567314
 42
-0.160528
  0
VERTEX
  8
0
 10
48.783631
 20
254.844486
 42
-0.000040
  0
VERTEX
  8
0
 10
76.259766
 20
258.958772
 42
-0.000892
  0
VERTEX
  8
0
 10
103.219398
 20
262.944344
 42
-0.001083
  0
VERTEX
  8
0
 10
128.500000
 20
266.579735
 42
0.004720
  0
VERTEX
  8
0
 10
130.147109
 20
266.828834
 42
0.004727
  0
VERTEX
  8
0
 10
131.788438
 20
267.108875
 42
0.004627
  0
VERTEX
  8
0
 10
133.215949
 20
267.380008
 42
0.018707
  0
VERTEX
  8
0
 10
134.077660
 20
267.585739
 42
0.205346
  0
VERTEX
  8
0
 10
135.035392
 20
268.355215
 42
0.001107
  0
VERTEX
  8
0
 10
140.713094
 20
279.085208
 42
0.004377
  0
VERTEX
  8
0
 10
147.262060
 20
291.797086
 42
0.002396
  0
VERTEX
  8
0
 10
155.077660
 20
307.485957
 42
-0.001006
  0
VERTEX
  8
0
 10
162.563534
 20
322.618188
 42
-0.001662
  0
VERTEX
  8
0
 10
168.953160
 20
335.362844
 42
-0.000128
  0
VERTEX
  8
0
 10
174.721950
 20
346.767102
 42
-0.269429
  0
VERTEX
  8
0
 10
175.039480
 20
346.973268
 42
-0.296401
  0
VERTEX
  8
0
 10
175.356832
 20
346.788691
 42
-0.000135
  0
VERTEX
  8
0
 10
181.107744
 20
335.394800
 42
-0.001750
  0
VERTEX
  8
0
 10
187.477455
 20
322.655786
 42
-0.001057
  0
SEQEND
  0
POLYLINE
  8
0
 66
1
 70
1
  0
VERTEX
  8
0
 10
180.157895
 20
22.000000
 42
0.017491
  0
VERTEX
  8
0
 10
180.189089
 20
21.108560
 42
0.078554
  0
VERTEX
  8
0
 10
180.306058
 20
20.601562
 42
0.447206
  0
VERTEX
  8
0
 10
180.474999
 20
20.540618
 42
0.174857
  0
VERTEX
  8
0
 10
180.662281
 20
20.750000
 42
0.057986
  0
VERTEX
  8
0
 10
180.818615
 20
21.320008
 42
0.037979
  0
VERTEX
  8
0
 10
180.870340
 20
22.000000
 42
0.037979
  0
VERTEX
  8
0
 10
180.818615
 20
22.679992
 42
0.057986
  0
VERTEX
  8
0
 10
180.662281
 20
23.250000
 42
0.174857
  0
VERTEX
  8
0
 10
180.474999
 20
23.459382
 42
0.447206
  0
VERTEX
  8
0
 10
180.306058
 20
23.398438
 42
0.078554
  0
VERTEX
  8
0
 10
180.189089
 20
22.891440
 42
0.017491
  0
SEQEND
  0
POLYLINE
  8
0
 66
1
 70
1
  0
VERTEX
  8
0
 10
193.157895
 20
22.000000
 42
0.017491
  0
VERTEX
  8
0
 10
193.189089
 20
21.108560
 42
0.078554
  0
VERTEX
  8
0
 10
193.306058
 20
20.601562
 42
0.447206
  0
VERTEX
  8
0
 10
193.474999
 20
20.540618
 42
0.174857
  0
VERTEX
  8
0
 10
193.662281
 20
20.750000
 42
0.057986
  0
VERTEX
  8
0
 10
193.818615
 20
21.320008
 42
0.037979
  0
VERTEX
  8
0
 10
193.870340
 20
22.000000
 42
0.037979
  0
VERTEX
  8
0
 10
193.818615
 20
22.679992
 42
0.057986
  0
VERTEX
  8
0
 10
193.662281
 20
23.250000
 42
0.174857
  0
VERTEX
  8
0
 10
193.474999
 20
23.459382
 42
0.447206
  0
VERTEX
  8
0
 10
193.306058
 20
23.398438
 42
0.078554
  0
VERTEX
  8
0
 10
193.189089
 20
22.891440
 42
0.017491
  0
SEQEND
  0
POLYLINE
  8
0
 66
1
 70
1
  0
VERTEX
  8
0
 10
195.000000
 20
22.166667
 42
0.040166
  0
VERTEX
  8
0
 10
195.066752
 20
21.337059
 42
0.059481
  0
VERTEX
  8
0
 10
195.267758
 20
20.636458
 42
0.078229
  0
VERTEX
  8
0
 10
195.562731
 20
20.160022
 42
0.218452
  0
VERTEX
  8
0
 10
195.911516
 20
20.000000
 42
0.319036
  0
VERTEX
  8
0
 10
196.446470
 20
20.380019
 42
0.099013
  0
VERTEX
  8
0
 10
196.590117
 20
21.413557
 42
0.076138
  0
VERTEX
  8
0
 10
196.320079
 20
22.672674
 42
0.105931
  0
VERTEX
  8
0
 10
195.695611
 20
23.637722
 42
0.286074
  0
VERTEX
  8
0
 10
195.434675
 20
23.698305
 42
0.202700
  0
VERTEX
  8
0
 10
195.204336
 20
23.492539
 42
0.080137
  0
VERTEX
  8
0
 10
195.047913
 20
22.952173
 42
0.030470
  0
SEQEND
  0
POLYLINE
  8
0
 66
1
 70
1
  0
VERTEX
  8
0
 10
155.000000
 20
21.500000
 42
0.024748
  0
VERTEX
  8
0
 10
155.028469
 20
20.925176
 42
0.039339
  0
VERTEX
  8
0
 10
155.115447
 20
20.440625
 42
0.046727
  0
VERTEX
  8
0
 10
155.241071
 20
20.096084
 42
0.289661
  0
VERTEX
  8
0
 10
155.393011
 20
20.000000
 42
0.222225
  0
VERTEX
  8
0
 10
155.579329
 20
20.087111
 42
0.030693
  0
VERTEX
  8
0
 10
155.839659
 20
20.440625
 42
0.030395
  0
VERTEX
  8
0
 10
156.112506
 20
20.925442
 42
0.021360
  0
VERTEX
  8
0
 10
156.361626
 20
21.500000
 42
0.055937
  0
VERTEX
  8
0
 10
156.511135
 20
22.074366
 42
0.100118
  0
VERTEX
  8
0
 10
156.483616
 20
22.559375
 42
0.147206
  0
VERTEX
  8
0
 10
156.289193
 20
22.877514
 42
0.184534
  0
VERTEX
  8
0
 10
155.968615
 20
23.000000
 42
0.152681
  0
VERTEX
  8
0
 10
155.599211
 20
22.884506
 42
0.098158
  0
VERTEX
  8
0
 10
155.284531
 20
22.559375
 42
0.080880
  0
VERTEX
  8
0
 10
155.072230
 20
22.073532
 42
0.062722
  0
SEQEND
  0
POLYLINE
  8
0
 66
1
 70
1
  0
VERTEX
  8
0
 10
137.500000
 20
21.000000
 42
0.029505
  0
VERTEX
  8
0
 10
137.768994
 20
20.617226
 42
0.035638
  0
VERTEX
  8
0
 10
138.066025
 20
20.293750
 42
0.038439
  0
VERTEX
  8
0
 10
138.348290
 20
20.065539
 42
0.151918
  0
VERTEX
  8
0
 10
138.559017
 20
20.000000
 42
0.210953
  0
VERTEX
  8
0
 10
138.727648
 20
20.074460
 42
0.081139
  0
VERTEX
  8
0
 10
138.870461
 20
20.293750
 42
0.061769
  0
VERTEX
  8
0
 10
138.967655
 20
20.617151
 42
0.042167
  0
VERTEX
  8
0
 10
139.000000
 20
21.000000
 42
0.105053
  0
VERTEX
  8
0
 10
138.918938
 20
21.381556
 42
0.099167
  0
VERTEX
  8
0
 10
138.688914
 20
21.706250
 42
0.096420
  0
VERTEX
  8
0
 10
138.345238
 20
21.923877
 42
0.093332
  0
VERTEX
  8
0
 10
137.940983
 20
22.000000
 42
0.108972
  0
VERTEX
  8
0
 10
137.586039
 20
21.921712
 42
0.182303
  0
VERTEX
  8
0
 10
137.374600
 20
21.706250
 42
0.161196
  0
VERTEX
  8
0
 10
137.343488
 20
21.382100
 42
0.082592
  0
SEQEND
  0
POLYLINE
  8
0
 66
1
 70
1
  0
VERTEX
  8
0
 10
140.000000
 20
21.000000
 42
0.105053
  0
VERTEX
  8
0
 10
140.081062
 20
20.618444
 42
0.099167
  0
VERTEX
  8
0
 10
140.311086
 20
20.293750
 42
0.096420
  0
VERTEX
  8
0
 10
140.654762
 20
20.076123
 42
0.093332
  0
VERTEX
  8
0
 10
141.059017
 20
20.000000
 42
0.108972
  0
VERTEX
  8
0
 10
141.413961
 20
20.078288
 42
0.182303
  0
VERTEX
  8
0
 10
141.625400
 20
20.293750
 42
0.161196
  0
VERTEX
  8
0
 10
141.656512
 20
20.617900
 42
0.082592
  0
VERTEX
  8
0
 10
141.500000
 20
21.000000
 42
0.029505
  0
VERTEX
  8
0
 10
141.231006
 20
21.382774
 42
0.035638
  0
VERTEX
  8
0
 10
140.933975
 20
21.706250
 42
0.038439
  0
VERTEX
  8
0
 10
140.651710
 20
21.934461
 42
0.151918
  0
VERTEX
  8
0
 10
140.440983
 20
22.000000
 42
0.210953
  0
VERTEX
  8
0
 10
140.272352
 20
21.925540
 42
0.081139
  0
VERTEX
  8
0
 10
140.129539
 20
21.706250
 42
0.061769
  0
VERTEX
  8
0
 10
140.032345
 20
21.382849
 42
0.042167
  0
SEQEND
  0
POLYLINE
  8
0
 66
1
 70
1
  0
VERTEX
  8
0
 10
143.000000
 20
20.973665
 42
0.223703
  0
VERTEX
  8
0
 10
143.147582
 20
20.660311
 42
0.086742
  0
VERTEX
  8
0
 10
143.574896
 20
20.417105
 42
0.063607
  0
VERTEX
  8
0
 10
144.207650
 20
20.277381
 42
0.041392
  0
VERTEX
  8
0
 10
144.957094
 20
20.271721
 42
0.042975
  0
VERTEX
  8
0
 10
146.180620
 20
20.470533
 42
0.444438
  0
VERTEX
  8
0
 10
146.393304
 20
20.871805
 42
0.244607
  0
VERTEX
  8
0
 10
145.917461
 20
21.307990
 42
0.029113
  0
VERTEX
  8
0
 10
144.471056
 20
21.607127
 42
0.055253
  0
VERTEX
  8
0
 10
143.908157
 20
21.627025
 42
0.083080
  0
VERTEX
  8
0
 10
143.432123
 20
21.510109
 42
0.111267
  0
VERTEX
  8
0
 10
143.115511
 20
21.280114
 42
0.182210
  0
SEQEND
  0
POLYLINE
  8
0
 66
1
 70
1
  0
VERTEX
  8
0
 10
148.362278
 20
21.304389
 42
0.105931
  0
VERTEX
  8
0
 10
149.327326
 20
20.679921
 42
0.076138
  0
VERTEX
  8
0
 10
150.586443
 20
20.409883
 42
0.099013
  0
VERTEX
  8
0
 10
151.619981
 20
20.553530
 42
0.319036
  0
VERTEX
  8
0
 10
152.000000
 20
21.088484
 42
0.218452
  0
VERTEX
  8
0
 10
151.839978
 20
21.437269
 42
0.078229
  0
VERTEX
  8
0
 10
151.363542
 20
21.732242
 42
0.059481
  0
VERTEX
  8
0
 10
150.662941
 20
21.933248
 42
0.040166
  0
VERTEX
  8
0
 10
149.833333
 20
22.000000
 42
0.030470
  0
VERTEX
  8
0
 10
149.047827
 20
21.952087
 42
0.080137
  0
VERTEX
  8
0
 10
148.507461
 20
21.795664
 42
0.202700
  0
VERTEX
  8
0
 10
148.301695
 20
21.565325
 42
0.286074
  0
SEQEND
  0
POLYLINE
  8
0
 66
1
 70
1
  0
VERTEX
  8
0
 10
164.000000
 20
21.062149
 42
0.210357
  0
VERTEX
  8
0
 10
164.152511
 20
20.715684
 42
0.091879
  0
VERTEX
  8
0
 10
164.587500
 20
20.444047
 42
0.067802
  0
VERTEX
  8
0
 10
165.234295
 20
20.286055
 42
0.044872
  0
VERTEX
  8
0
 10
166.000000
 20
20.274953
 42
0.037158
  0
VERTEX
  8
0
 10
166.765803
 20
20.390276
 42
0.053734
  0
VERTEX
  8
0
 10
167.412500
 20
20.612592
 42
0.068155
  0
VERTEX
  8
0
 10
167.856567
 20
20.900104
 42
0.218405
  0
VERTEX
  8
0
 10
168.000000
 20
21.212804
 42
0.229038
  0
VERTEX
  8
0
 10
167.854232
 20
21.514329
 42
0.073935
  0
VERTEX
  8
0
 10
167.412500
 20
21.768761
 42
0.056318
  0
VERTEX
  8
0
 10
166.765913
 20
21.942471
 42
0.037503
  0
VERTEX
  8
0
 10
166.000000
 20
22.000000
 42
0.044935
  0
VERTEX
  8
0
 10
165.234433
 20
21.931059
 42
0.064806
  0
VERTEX
  8
0
 10
164.587500
 20
21.724506
 42
0.084737
  0
VERTEX
  8
0
 10
164.150289
 20
21.420523
 42
0.201195
  0
SEQEND
  0
POLYLINE
  8
0
 66
1
 70
1
  0
VERTEX
  8
0
 10
170.666667
 20
21.333333
 42
0.079100
  0
VERTEX
  8
0
 10
170.060596
 20
20.497758
 42
0.235886
  0
VERTEX
  8
0
 10
170.056232
 20
19.811011
 42
0.280386
  0
VERTEX
  8
0
 10
170.579788
 20
19.477556
 42
0.096999
  0
VERTEX
  8
0
 10
171.500000
 20
19.638374
 42
0.048303
  0
VERTEX
  8
0
 10
172.073796
 20
19.924763
 42
0.053891
  0
VERTEX
  8
0
 10
172.559375
 20
20.307216
 42
0.061199
  0
VERTEX
  8
0
 10
172.891374
 20
20.723081
 42
0.138750
  0
VERTEX
  8
0
 10
173.000000
 20
21.106989
 42
0.191777
  0
VERTEX
  8
0
 10
172.767855
 20
21.689978
 42
0.180985
  0
VERTEX
  8
0
 10
172.191720
 20
21.971699
 42
0.130128
  0
VERTEX
  8
0
 10
171.407226
 20
21.843408
 42
0.091378
  0
SEQEND
  0
POLYLINE
  8
0
 66
1
 70
1
  0
VERTEX
  8
0
 10
182.000000
 20
21.166667
 42
0.279578
  0
VERTEX
  8
0
 10
182.195026
 20
20.845143
 42
0.051432
  0
VERTEX
  8
0
 10
182.868328
 20
20.578125
 42
0.042067
  0
VERTEX
  8
0
 10
183.823322
 20
20.393771
 42
0.026660
  0
VERTEX
  8
0
 10
184.956011
 20
20.333333
 42
0.026839
  0
VERTEX
  8
0
 10
186.054304
 20
20.392330
 42
0.055471
  0
VERTEX
  8
0
 10
186.892405
 20
20.578125
 42
0.102841
  0
VERTEX
  8
0
 10
187.352677
 20
20.850253
 42
0.360915
  0
VERTEX
  8
0
 10
187.396994
 20
21.166667
 42
0.146205
  0
VERTEX
  8
0
 10
187.035705
 20
21.487960
 42
0.040456
  0
VERTEX
  8
0
 10
186.316217
 20
21.755208
 42
0.037202
  0
VERTEX
  8
0
 10
185.413160
 20
21.938652
 42
0.031520
  0
VERTEX
  8
0
 10
184.440983
 20
22.000000
 42
0.032409
  0
VERTEX
  8
0
 10
183.505922
 20
21.939328
 42
0.049890
  0
VERTEX
  8
0
 10
182.717039
 20
21.755208
 42
0.064343
  0
VERTEX
  8
0
 10
182.171700
 20
21.486720
 42
0.251296
  0
SEQEND
  0
POLYLINE
  8
0
 66
1
 70
1
  0
VERTEX
  8
0
 10
189.500000
 20
21.000000
 42
0.139169
  0
VERTEX
  8
0
 10
189.392057
 20
20.620352
 42
0.191142
  0
VERTEX
  8
0
 10
189.521475
 20
20.293750
 42
0.138808
  0
VERTEX
  8
0
 10
189.889346
 20
20.073267
 42
0.066118
  0
VERTEX
  8
0
 10
190.440983
 20
20.000000
 42
0.062283
  0
VERTEX
  8
0
 10
191.037096
 20
20.074545
 42
0.080552
  0
VERTEX
  8
0
 10
191.542039
 20
20.293750
 42
0.097988
  0
VERTEX
  8
0
 10
191.879982
 20
20.618621
 42
0.153634
  0
VERTEX
  8
0
 10
192.000000
 20
21.000000
 42
0.092995
  0
VERTEX
  8
0
 10
191.928382
 20
21.381732
 42
0.096318
  0
VERTEX
  8
0
 10
191.723586
 20
21.706250
 42
0.099231
  0
VERTEX
  8
0
 10
191.418051
 20
21.923444
 42
0.105429
  0
VERTEX
  8
0
 10
191.059017
 20
22.000000
 42
0.089642
  0
VERTEX
  8
0
 10
190.653442
 20
21.926698
 42
0.053229
  0
VERTEX
  8
0
 10
190.212900
 20
21.706250
 42
0.051032
  0
VERTEX
  8
0
 10
189.806203
 20
21.382515
 42
0.060810
  0
SEQEND
  0
POLYLINE
  8
0
 66
1
 70
1
  0
VERTEX
  8
0
 10
209.000000
 20
21.212804
 42
0.218405
  0
VERTEX
  8
0
 10
209.143433
 20
20.900104
 42
0.068155
  0
VERTEX
  8
0
 10
209.587500
 20
20.612592
 42
0.053734
  0
VERTEX
  8
0
 10
210.234197
 20
20.390276
 42
0.037158
  0
VERTEX
  8
0
 10
211.000000
 20
20.274953
 42
0.044872
  0
VERTEX
  8
0
 10
211.765705
 20
20.286055
 42
0.067802
  0
VERTEX
  8
0
 10
212.412500
 20
20.444047
 42
0.091879
  0
VERTEX
  8
0
 10
212.847489
 20
20.715684
 42
0.210357
  0
VERTEX
  8
0
 10
213.000000
 20
21.062149
 42
0.201195
  0
VERTEX
  8
0
 10
212.849711
 20
21.420523
 42
0.084737
  0
VERTEX
  8
0
 10
212.412500
 20
21.724506
 42
0.064806
  0
VERTEX
  8
0
 10
211.765567
 20
21.931059
 42
0.044935
  0
VERTEX
  8
0
 10
211.000000
 20
22.000000
 42
0.037503
  0
VERTEX
  8
0
 10
210.234087
 20
21.942471
 42
0.056318
  0
VERTEX
  8
0
 10
209.587500
 20
21.768761
 42
0.073935
  0
VERTEX
  8
0
 10
209.145768
 20
21.514329
 42
0.229038
  0
SEQEND
  0
POLYLINE
  8
0
 66
1
 70
1
  0
VERTEX
  8
0
 10
161.157895
 20
14.000000
 42
0.017491
  0
VERTEX
  8
0
 10
161.189089
 20
13.108560
 42
0.078554
  0
VERTEX
  8
0
 10
161.306058
 20
12.601562
 42
0.447206
  0
VERTEX
  8
0
 10
161.474999
 20
12.540618
 42
0.174857
  0
VERTEX
  8
0
 10
161.662281
 20
12.750000
 42
0.057986
  0
VERTEX
  8
0
 10
161.818615
 20
13.320008
 42
0.037979
  0
VERTEX
  8
0
 10
161.870340
 20
14.000000
 42
0.037979
  0
VERTEX
  8
0
 10
161.818615
 20
14.679992
 42
0.057986
  0
VERTEX
  8
0
 10
161.662281
 20
15.250000
 42
0.174857
  0
VERTEX
  8
0
 10
161.474999
 20
15.459382
 42
0.447206
  0
VERTEX
  8
0
 10
161.306058
 20
15.398438
 42
0.078554
  0
VERTEX
  8
0
 10
161.189089
 20
14.891440
 42
0.017491
  0
SEQEND
  0
POLYLINE
  8
0
 66
1
 70
1
  0
VERTEX
  8
0
 10
180.194949
 20
13.500000
 42
0.012823
  0
VERTEX
  8
0
 10
180.235556
 20
12.431793
 42
0.080377
  0
VERTEX
  8
0
 10
180.356533
 20
11.900903
 42
0.597527
  0
VERTEX
  8
0
 10
180.516660
 20
11.883358
 42
0.087174
  0
VERTEX
  8
0
 10
180.692991
 20
12.269032
 42
0.037336
  0
VERTEX
  8
0
 10
180.832894
 20
13.036634
 42
0.029507
  0
VERTEX
  8
0
 10
180.872264
 20
13.880008
 42
0.030339
  0
VERTEX
  8
0
 10
180.814405
 20
14.671085
 42
0.062780
  0
VERTEX
  8
0
 10
180.655937
 20
15.269032
 42
0.313180
  0
VERTEX
  8
0
 10
180.477130
 20
15.386009
 42
0.333666
  0
VERTEX
  8
0
 10
180.315079
 20
15.257153
 42
0.052471
  0
VERTEX
  8
0
 10
180.212705
 20
14.580113
 42
0.014395
  0
SEQEND
  0
POLYLINE
  8
0
 66
1
 70
1
  0
VERTEX
  8
0
 10
237.194949
 20
13.500000
 42
0.012823
  0
VERTEX
  8
0
 10
237.235556
 20
12.431793
 42
0.080377
  0
VERTEX
  8
0
 10
237.356533
 20
11.900903
 42
0.597527
  0
VERTEX
  8
0
 10
237.516660
 20
11.883358
 42
0.087174
  0
VERTEX
  8
0
 10
237.692991
 20
12.269032
 42
0.037336
  0
VERTEX
  8
0
 10
237.832894
 20
13.036634
 42
0.029507
  0
VERTEX
  8
0
 10
237.872264
 20
13.880008
 42
0.030339
  0
VERTEX
  8
0
 10
237.814405
 20
14.671085
 42
0.062780
  0
VERTEX
  8
0
 10
237.655937
 20
15.269032
 42
0.313180
  0
VERTEX
  8
0
 10
237.477130
 20
15.386009
 42
0.333666
  0
VERTEX
  8
0
 10
237.315079
 20
15.257153
 42
0.052471
  0
VERTEX
  8
0
 10
237.212705
 20
14.580113
 42
0.014395
  0
SEQEND
  0
POLYLINE
  8
0
 66
1
 70
1
  0
VERTEX
  8
0
 10
109.078947
 20
13.416667
 42
0.018894
  0
VERTEX
  8
0
 10
109.137993
 20
12.670344
 42
0.168741
  0
VERTEX
  8
0
 10
109.279315
 20
12.378580
 42
0.470617
  0
VERTEX
  8
0
 10
109.461564
 20
12.395823
 42
0.054073
  0
VERTEX
  8
0
 10
109.683114
 20
12.812500
 42
0.051402
  0
VERTEX
  8
0
 10
109.839148
 20
13.359369
 42
0.054150
  0
VERTEX
  8
0
 10
109.876576
 20
13.916927
 42
0.060344
  0
VERTEX
  8
0
 10
109.797407
 20
14.402231
 42
0.126455
  0
VERTEX
  8
0
 10
109.604167
 20
14.729167
 42
0.296942
  0
VERTEX
  8
0
 10
109.385309
 20
14.775380
 42
0.208169
  0
VERTEX
  8
0
 10
109.200665
 20
14.592839
 42
0.077125
  0
VERTEX
  8
0
 10
109.089945
 20
14.112848
 42
0.028489
  0
SEQEND
  0
POLYLINE
  8
0
 66
1
 70
1
  0
VERTEX
  8
0
 10
164.078947
 20
13.416667
 42
0.018894
  0
VERTEX
  8
0
 10
164.137993
 20
12.670344
 42
0.168741
  0
VERTEX
  8
0
 10
164.279315
 20
12.378580
 42
0.470617
  0
VERTEX
  8
0
 10
164.461564
 20
12.395823
 42
0.054073
  0
VERTEX
  8
0
 10
164.683114
 20
12.812500
 42
0.051402
  0
VERTEX
  8
0
 10
164.839148
 20
13.359369
 42
0.054150
  0
VERTEX
  8
0
 10
164.876576
 20
13.916927
 42
0.060344
  0
VERTEX
  8
0
 10
164.797407
 20
14.402231
 42
0.126455
  0
VERTEX
  8
0
 10
164.604167
 20
14.729167
 42
0.296942
  0
VERTEX
  8
0
 10
164.385309
 20
14.775380
 42
0.208169
  0
VERTEX
  8
0
 10
164.200665
 20
14.592839
 42
0.077125
  0
VERTEX
  8
0
 10
164.089945
 20
14.112848
 42
0.028489
  0
SEQEND
  0
POLYLINE
  8
0
 66
1
 70
1
  0
VERTEX
  8
0
 10
233.157895
 20
13.000000
 42
0.017491
  0
VERTEX
  8
0
 10
233.189089
 20
12.108560
 42
0.078554
  0
VERTEX
  8
0
 10
233.306058
 20
11.601562
 42
0.447206
  0
VERTEX
  8
0
 10
233.474999
 20
11.540618
 42
0.174857
  0
VERTEX
  8
0
 10
233.662281
 20
11.750000
 42
0.057986
  0
VERTEX
  8
0
 10
233.818615
 20
12.320008
 42
0.037979
  0
VERTEX
  8
0
 10
233.870340
 20
13.000000
 42
0.037979
  0
VERTEX
  8
0
 10
233.818615
 20
13.679992
 42
0.057986
  0
VERTEX
  8
0
 10
233.662281
 20
14.250000
 42
0.174857
  0
VERTEX
  8
0
 10
233.474999
 20
14.459382
 42
0.447206
  0
VERTEX
  8
0
 10
233.306058
 20
14.398438
 42
0.078554
  0
VERTEX
  8
0
 10
233.189089
 20
13.891440
 42
0.017491
  0
SEQEND
  0
ENDSEC
  0
EOF
