  0
SECTION
  2
HEADER
  9
$ACADVER
  1
AC1006
  9
$EXTMIN
 10
0.000000
 20
0.000000
 30
0.000000
  9
$EXTMAX
 10
840.000000
 20
800.000000
 30
0.000000
  0
ENDSEC
  0
SECTION
  2
ENTITIES
  0
POLYLINE
  8
0
 66
1
 70
1
  0
VERTEX
  8
0
 10
420.420274
 20
768.114510
 42
0.093286
  0
VERTEX
  8
0
 10
414.656689
 20
762.918808
 42
0.038143
  0
VERTEX
  8
0
 10
408.901706
 20
754.036092
 42
0.022354
  0
VERTEX
  8
0
 10
401.907246
 20
739.700888
 42
0.005197
  0
VERTEX
  8
0
 10
391.497497
 20
715.000000
 42
-0.006474
  0
VERTEX
  8
0
 10
383.113106
 20
695.246160
 42
-0.009183
  0
VERTEX
  8
0
 10
375.108343
 20
677.916367
 42
-0.010420
  0
VERTEX
  8
0
 10
367.709365
 20
663.419297
 42
-0.021618
  0
VERTEX
  8
0
 10
361.223509
 20
652.500000
 42
-0.017602
  0
VERTEX
  8
0
 10
355.266190
 20
644.055964
 42
-0.003121
  0
VERTEX
  8
0
 10
343.459950
 20
628.712927
 42
-0.003247
  0
VERTEX
  8
0
 10
328.920422
 20
610.307683
 42
-0.002441
  0
VERTEX
  8
0
 10
312.694845
 20
590.241670
 42
0.010298
  0
VERTEX
  8
0
 10
305.456540
 20
580.996690
 42
0.032137
  0
VERTEX
  8
0
 10
301.131025
 20
574.386002
 42
0.048500
  0
VERTEX
  8
0
 10
298.779281
 20
569.094684
 42
0.080500
  0
VERTEX
  8
0
 10
298.000000
 20
564.285808
 42
0.029766
  0
VERTEX
  8
0
 10
298.149151
 20
561.782611
 42
0.072231
  0
VERTEX
  8
0
 10
298.629670
 20
559.999564
 42
0.069119
  0
VERTEX
  8
0
 10
299.612158
 20
558.380672
 42
0.025483
  0
VERTEX
  8
0
 10
301.406250
 20
556.393750
 42
0.031722
  0
VERTEX
  8
0
 10
302.938984
 20
555.044073
 42
0.026276
  0
VERTEX
  8
0
 10
304.726816
 20
553.805106
 42
0.027067
  0
VERTEX
  8
0
 10
306.492094
 20
552.842214
 42
0.062039
  0
VERTEX
  8
0
 10
307.927059
 20
552.364588
 42
-0.020628
  0
VERTEX
  8
0
 10
309.157005
 20
552.065365
 42
-0.025188
  0
VERTEX
  8
0
 10
310.277064
 20
551.681390
 42
-0.024987
  0
VERTEX
  8
0
 10
311.167267
 20
551.272490
 42
-0.134978
  0
VERTEX
  8
0
 10
311.553438
 20
550.913536
 42
-0.257530
  0
VERTEX
  8
0
 10
311.630894
 20
549.349012
 42
-0.004607
  0
VERTEX
  8
0
 10
307.744615
 20
541.580475
 42
-0.010373
  0
VERTEX
  8
0
 10
302.887449
 20
532.557267
 42
-0.006900
  0
VERTEX
  8
0
 10
296.964503
 20
522.410246
 42
-0.011055
  0
VERTEX
  8
0
 10
288.306800
 20
508.731030
 42
-0.011177
  0
VERTEX
  8
0
 10
279.083271
 20
495.498400
 42
-0.011139
  0
VERTEX
  8
0
 10
269.246462
 20
482.648551
 42
-0.010808
  0
VERTEX
  8
0
 10
258.750000
 20
470.116990
 42
0.039735
  0
VERTEX
  8
0
 10
255.483448
 20
465.724530
 42
0.100021
  0
VERTEX
  8
0
 10
254.082868
 20
462.010699
 42
0.105748
  0
VERTEX
  8
0
 10
254.272779
 20
458.174127
 42
0.047703
  0
VERTEX
  8
0
 10
256.035167
 20
453.427354
 42
0.067007
  0
VERTEX
  8
0
 10
258.446052
 20
449.784655
 42
0.060142
  0
VERTEX
  8
0
 10
261.815657
 20
446.755824
 42
0.056002
  0
VERTEX
  8
0
 10
266.046032
 20
444.443865
 42
0.045183
  0
VERTEX
  8
0
 10
271.000000
 20
442.922425
 42
-0.003413
  0
VERTEX
  8
0
 10
273.130265
 20
442.458355
 42
-0.005176
  0
VERTEX
  8
0
 10
274.975556
 20
442.023033
 42
-0.002114
  0
VERTEX
  8
0
 10
276.546577
 20
441.628146
 42
-0.119419
  0
VERTEX
  8
0
 10
276.810404
 20
441.488034
 42
-0.331227
  0
VERTEX
  8
0
 10
276.864045
 20
441.230276
 42
-0.000771
  0
VERTEX
  8
0
 10
275.133667
 20
437.516929
 42
-0.004305
  0
VERTEX
  8
0
 10
273.118874
 20
433.305439
 42
-0.002611
  0
VERTEX
  8
0
 10
270.666479
 20
428.356263
 42
-0.018239
  0
VERTEX
  8
0
 10
261.756288
 20
412.113903
 42
-0.023695
  0
VERTEX
  8
0
 10
252.375633
 20
397.969577
 42
-0.024194
  0
VERTEX
  8
0
 10
241.868345
 20
385.012351
 42
-0.020434
  0
VERTEX
  8
0
 10
229.573208
 20
372.347941
 42
0.003621
  0
VERTEX
  8
0
 10
222.792199
 20
365.817572
 42
0.042226
  0
VERTEX
  8
0
 10
220.389583
 20
363.036854
 42
0.099198
  0
VERTEX
  8
0
 10
219.347955
 20
360.768216
 42
0.058236
  0
VERTEX
  8
0
 10
219.000000
 20
357.790903
 42
0.124544
  0
VERTEX
  8
0
 10
220.457784
 20
352.029181
 42
0.097078
  0
VERTEX
  8
0
 10
224.579527
 20
347.026731
 42
0.079228
  0
VERTEX
  8
0
 10
231.126811
 20
343.191021
 42
0.051382
  0
VERTEX
  8
0
 10
239.603251
 20
340.852870
 42
0.000000
  0
VERTEX
  8
0
 10
246.953623
 20
339.617789
 42
0.000000
  0
VERTEX
  8
0
 10
242.354272
 20
331.058895
 42
-0.015874
  0
VERTEX
  8
0
 10
236.672346
 20
321.245776
 42
-0.008489
  0
VERTEX
  8
0
 10
229.068778
 20
309.475805
 42
-0.008391
  0
VERTEX
  8
0
 10
221.287018
 20
298.278223
 42
-0.021322
  0
VERTEX
  8
0
 10
215.165746
 20
290.500000
 42
-0.013506
  0
VERTEX
  8
0
 10
212.082395
 20
287.098626
 42
-0.005091
  0
VERTEX
  8
0
 10
207.594050
 20
282.502976
 42
-0.005038
  0
VERTEX
  8
0
 10
202.605844
 20
277.598324
 42
-0.006114
  0
VERTEX
  8
0
 10
197.828257
 20
273.105874
 42
0.012977
  0
VERTEX
  8
0
 10
189.377639
 20
264.938187
 42
0.043521
  0
VERTEX
  8
0
 10
184.483800
 20
259.002420
 42
0.067080
  0
VERTEX
  8
0
 10
181.897902
 20
253.893225
 42
0.083416
  0
VERTEX
  8
0
 10
181.008161
 20
248.651210
 42
0.023160
  0
VERTEX
  8
0
 10
181.128217
 20
245.962836
 42
0.070039
  0
VERTEX
  8
0
 10
181.546476
 20
244.182820
 42
0.078275
  0
VERTEX
  8
0
 10
182.409934
 20
242.698497
 42
0.034097
  0
VERTEX
  8
0
 10
183.970799
 20
241.027278
 42
0.068384
  0
VERTEX
  8
0
 10
186.753439
 20
239.062472
 42
0.038594
  0
VERTEX
  8
0
 10
190.563569
 20
237.446637
 42
0.037151
  0
VERTEX
  8
0
 10
194.812283
 20
236.363206
 42
0.043881
  0
VERTEX
  8
0
 10
198.942820
 20
236.000000
 42
-0.017921
  0
VERTEX
  8
0
 10
200.114709
 20
235.957984
 42
-0.029132
  0
VERTEX
  8
0
 10
201.101953
 20
235.828991
 42
-0.029086
  0
VERTEX
  8
0
 10
201.833172
 20
235.645140
 42
-0.327597
  0
VERTEX
  8
0
 10
202.000000
 20
235.417843
 42
-0.144978
  0
VERTEX
  8
0
 10
201.875978
 20
234.999107
 42
-0.000670
  0
VERTEX
  8
0
 10
199.361929
 20
231.138640
 42
-0.003069
  0
VERTEX
  8
0
 10
196.462010
 20
226.757632
 42
-0.001925
  0
VERTEX
  8
0
 10
193.019334
 20
221.667843
 42
-0.015641
  0
VERTEX
  8
0
 10
177.513790
 20
200.394130
 42
-0.017539
  0
VERTEX
  8
0
 10
161.264853
 20
180.952749
 42
-0.017662
  0
VERTEX
  8
0
 10
143.800176
 20
162.818120
 42
-0.016330
  0
VERTEX
  8
0
 10
124.649600
 20
145.463625
 42
0.000000
  0
VERTEX
  8
0
 10
118.799199
 20
140.500000
 42
0.000000
  0
VERTEX
  8
0
 10
119.347521
 20
135.054535
 42
0.059765
  0
VERTEX
  8
0
 10
120.462128
 20
130.064103
 42
0.066790
  0
VERTEX
  8
0
 10
122.703562
 20
125.678853
 42
0.066045
  0
VERTEX
  8
0
 10
126.046740
 20
122.001192
 42
0.056518
  0
VERTEX
  8
0
 10
130.405045
 20
119.094480
 42
0.030743
  0
VERTEX
  8
0
 10
133.318328
 20
117.815067
 42
0.037471
  0
VERTEX
  8
0
 10
136.182114
 20
116.999524
 42
0.029150
  0
VERTEX
  8
0
 10
139.661657
 20
116.494117
 42
0.010563
  0
VERTEX
  8
0
 10
144.643985
 20
116.170641
 42
0.021574
  0
VERTEX
  8
0
 10
152.160131
 20
116.166373
 42
0.042027
  0
VERTEX
  8
0
 10
158.104817
 20
116.922877
 42
0.038889
  0
VERTEX
  8
0
 10
164.129889
 20
118.709813
 42
0.015933
  0
VERTEX
  8
0
 10
172.000000
 20
122.017981
 42
-0.021583
  0
VERTEX
  8
0
 10
180.956680
 20
125.664392
 42
-0.037989
  0
VERTEX
  8
0
 10
188.660294
 20
127.775920
 42
-0.037599
  0
VERTEX
  8
0
 10
196.649103
 20
128.710224
 42
-0.020659
  0
VERTEX
  8
0
 10
206.500000
 20
128.709722
 42
-0.034305
  0
VERTEX
  8
0
 10
219.030324
 20
127.326492
 42
-0.040537
  0
VERTEX
  8
0
 10
230.551411
 20
124.267090
 42
-0.041707
  0
VERTEX
  8
0
 10
241.148287
 20
119.484483
 42
-0.040416
  0
VERTEX
  8
0
 10
250.923704
 20
112.966074
 42
0.034292
  0
VERTEX
  8
0
 10
256.398209
 20
109.218054
 42
0.022951
  0
VERTEX
  8
0
 10
263.112879
 20
105.671921
 42
0.022951
  0
VERTEX
  8
0
 10
270.124032
 20
102.756292
 42
0.034303
  0
VERTEX
  8
0
 10
276.500000
 20
100.925430
 42
0.038870
  0
VERTEX
  8
0
 10
283.387822
 20
100.001475
 42
0.013887
  0
VERTEX
  8
0
 10
293.306759
 20
99.724927
 42
0.014107
  0
VERTEX
  8
0
 10
303.393647
 20
100.008551
 42
0.031606
  0
VERTEX
  8
0
 10
311.000000
 20
100.921961
 42
0.011333
  0
VERTEX
  8
0
 10
314.216544
 20
101.591985
 42
0.004300
  0
VERTEX
  8
0
 10
318.675000
 20
102.667146
 42
0.004256
  0
VERTEX
  8
0
 10
323.503652
 20
103.919383
 42
0.005190
  0
VERTEX
  8
0
 10
328.000000
 20
105.176551
 42
-0.001412
  0
VERTEX
  8
0
 10
332.313282
 20
106.417746
 42
-0.001455
  0
VERTEX
  8
0
 10
336.590625
 20
107.622087
 42
-0.001405
  0
VERTEX
  8
0
 10
340.304090
 20
108.644776
 42
-0.006207
  0
VERTEX
  8
0
 10
342.500000
 20
109.213714
 42
-0.058671
  0
VERTEX
  8
0
 10
347.080811
 20
109.784177
 42
-0.013570
  0
VERTEX
  8
0
 10
354.863963
 20
109.624991
 42
-0.014688
  0
VERTEX
  8
0
 10
363.199393
 20
108.982206
 42
-0.023532
  0
VERTEX
  8
0
 10
370.250000
 20
107.892144
 42
-0.009188
  0
VERTEX
  8
0
 10
373.985354
 20
107.061473
 42
-0.114921
  0
VERTEX
  8
0
 10
375.270905
 20
106.414859
 42
-0.188813
  0
VERTEX
  8
0
 10
375.842833
 20
105.374622
 42
-0.033438
  0
VERTEX
  8
0
 10
375.984687
 20
103.111948
 42
-0.018370
  0
VERTEX
  8
0
 10
375.924503
 20
101.643978
 42
-0.019755
  0
VERTEX
  8
0
 10
375.756800
 20
100.219837
 42
-0.019729
  0
VERTEX
  8
0
 10
375.517409
 20
99.015240
 42
-0.082945
  0
VERTEX
  8
0
 10
375.230404
 20
98.338561
 42
-0.158621
  0
VERTEX
  8
0
 10
374.607321
 20
97.824807
 42
-0.016592
  0
VERTEX
  8
0
 10
372.800389
 20
97.182124
 42
-0.019259
  0
VERTEX
  8
0
 10
370.537497
 20
96.555777
 42
-0.014283
  0
VERTEX
  8
0
 10
367.995716
 20
96.032712
 42
0.018182
  0
VERTEX
  8
0
 10
352.198824
 20
92.653340
 42
0.016996
  0
VERTEX
  8
0
 10
336.325228
 20
88.069918
 42
0.013064
  0
VERTEX
  8
0
 10
317.474385
 20
81.375873
 42
0.005154
  0
VERTEX
  8
0
 10
291.882425
 20
71.223768
 42
-0.003695
  0
VERTEX
  8
0
 10
261.811073
 20
59.193113
 42
-0.013127
  0
VERTEX
  8
0
 10
242.287897
 20
52.134603
 42
-0.018924
  0
VERTEX
  8
0
 10
226.516034
 20
47.551043
 42
-0.017411
  0
VERTEX
  8
0
 10
210.000000
 20
44.027953
 42
-0.022835
  0
VERTEX
  8
0
 10
180.308262
 20
40.155697
 42
-0.023198
  0
VERTEX
  8
0
 10
150.543405
 20
39.034962
 42
-0.023226
  0
VERTEX
  8
0
 10
120.838706
 20
40.676209
 42
-0.023025
  0
VERTEX
  8
0
 10
91.326921
 20
45.066552
 42
-0.010362
  0
VERTEX
  8
0
 10
80.176323
 20
47.495121
 42
-0.006520
  0
VERTEX
  8
0
 10
67.250974
 20
50.770896
 42
-0.006532
  0
VERTEX
  8
0
 10
54.814530
 20
54.270641
 42
-0.013968
  0
VERTEX
  8
0
 10
45.330852
 20
57.364191
 42
0.021177
  0
VERTEX
  8
0
 10
42.674585
 20
58.188496
 42
0.104152
  0
VERTEX
  8
0
 10
41.115809
 20
58.268060
 42
0.089116
  0
VERTEX
  8
0
 10
39.542614
 20
57.721595
 42
0.013273
  0
VERTEX
  8
0
 10
36.651956
 20
55.994231
 42
0.119251
  0
VERTEX
  8
0
 10
31.600386
 20
50.766276
 42
0.367448
  0
VERTEX
  8
0
 10
32.385573
 20
46.283747
 42
0.112054
  0
VERTEX
  8
0
 10
40.141715
 20
42.344416
 42
0.015955
  0
VERTEX
  8
0
 10
57.698532
 20
38.512957
 42
0.013637
  0
VERTEX
  8
0
 10
82.612559
 20
34.602594
 42
0.011719
  0
VERTEX
  8
0
 10
108.994326
 20
31.822966
 42
0.011940
  0
VERTEX
  8
0
 10
134.813071
 20
30.332651
 42
0.016542
  0
VERTEX
  8
0
 10
158.000000
 20
30.316482
 42
0.012612
  0
VERTEX
  8
0
 10
177.834193
 20
31.460337
 42
0.016355
  0
VERTEX
  8
0
 10
195.926288
 20
33.559976
 42
0.017281
  0
VERTEX
  8
0
 10
212.977996
 20
36.712257
 42
0.017573
  0
VERTEX
  8
0
 10
229.675333
 20
41.020348
 42
0.012203
  0
VERTEX
  8
0
 10
237.299813
 20
43.479924
 42
0.010681
  0
VERTEX
  8
0
 10
245.144784
 20
46.413241
 42
0.006100
  0
VERTEX
  8
0
 10
256.044764
 20
50.911284
 42
0.001167
  0
VERTEX
  8
0
 10
275.717899
 20
59.366385
 42
-0.008765
  0
VERTEX
  8
0
 10
290.716386
 20
65.544155
 42
-0.008040
  0
VERTEX
  8
0
 10
306.357780
 20
71.380014
 42
-0.008178
  0
VERTEX
  8
0
 10
321.862161
 20
76.598501
 42
-0.010176
  0
VERTEX
  8
0
 10
336.443358
 20
80.917407
 42
-0.008028
  0
VERTEX
  8
0
 10
347.726641
 20
83.817236
 42
-0.006250
  0
VERTEX
  8
0
 10
360.079620
 20
86.618595
 42
-0.001374
  0
VERTEX
  8
0
 10
372.296470
 20
89.193890
 42
-0.252789
  0
VERTEX
  8
0
 10
373.498356
 20
88.834977
 42
-0.244144
  0
VERTEX
  8
0
 10
373.597300
 20
88.522307
 42
-0.002196
  0
VERTEX
  8
0
 10
373.150746
 20
86.023416
 42
-0.006846
  0
VERTEX
  8
0
 10
372.578179
 20
83.123233
 42
-0.004290
  0
VERTEX
  8
0
 10
371.832883
 20
79.745824
 42
0.000000
  0
VERTEX
  8
0
 10
369.824082
 20
71.000000
 42
0.000000
  0
VERTEX
  8
0
 10
362.662041
 20
70.997183
 42
0.028227
  0
VERTEX
  8
0
 10
348.842921
 20
70.210963
 42
0.024652
  0
VERTEX
  8
0
 10
334.551249
 20
67.866954
 42
0.025160
  0
VERTEX
  8
0
 10
320.922392
 20
64.209740
 42
0.034234
  0
VERTEX
  8
0
 10
309.108603
 20
59.478593
 42
0.004954
  0
VERTEX
  8
0
 10
305.536464
 20
57.712046
 42
0.008483
  0
VERTEX
  8
0
 10
302.597069
 20
56.158753
 42
0.003044
  0
VERTEX
  8
0
 10
300.165490
 20
54.801203
 42
0.495733
  0
VERTEX
  8
0
 10
300.129598
 20
54.537069
 42
0.269251
  0
VERTEX
  8
0
 10
300.492721
 20
54.440715
 42
0.003593
  0
VERTEX
  8
0
 10
302.815073
 20
55.093065
 42
0.009076
  0
VERTEX
  8
0
 10
305.538389
 20
55.933041
 42
0.005697
  0
VERTEX
  8
0
 10
308.692539
 20
57.008926
 42
-0.043012
  0
VERTEX
  8
0
 10
327.753174
 20
61.960224
 42
-0.031521
  0
VERTEX
  8
0
 10
349.493925
 20
64.254855
 42
-0.030859
  0
VERTEX
  8
0
 10
371.937525
 20
63.815724
 42
-0.035413
  0
VERTEX
  8
0
 10
393.126920
 20
60.568629
 42
-0.018474
  0
VERTEX
  8
0
 10
401.771861
 20
58.270749
 42
-0.016691
  0
VERTEX
  8
0
 10
410.525449
 20
55.271232
 42
-0.009435
  0
VERTEX
  8
0
 10
418.107562
 20
52.221966
 42
-0.543430
  0
VERTEX
  8
0
 10
418.325325
 20
50.982997
 42
-0.124125
  0
VERTEX
  8
0
 10
417.652464
 20
50.613468
 42
-0.004543
  0
VERTEX
  8
0
 10
414.804939
 20
49.898041
 42
-0.008049
  0
VERTEX
  8
0
 10
411.391424
 20
49.131240
 42
-0.005537
  0
VERTEX
  8
0
 10
407.500000
 20
48.367507
 42
-0.024921
  0
VERTEX
  8
0
 10
397.844284
 20
47.076738
 42
-0.016602
  0
VERTEX
  8
0
 10
386.692795
 20
46.520266
 42
-0.012465
  0
VERTEX
  8
0
 10
376.405545
 20
46.605326
 42
-0.122071
  0
VERTEX
  8
0
 10
372.259031
 20
47.780350
 42
0.046427
  0
VERTEX
  8
0
 10
370.957943
 20
48.371225
 42
0.097927
  0
VERTEX
  8
0
 10
369.864270
 20
48.523422
 42
0.080836
  0
VERTEX
  8
0
 10
368.663032
 20
48.256971
 42
0.024417
  0
VERTEX
  8
0
 10
366.957583
 20
47.478065
 42
0.048493
  0
VERTEX
  8
0
 10
364.727127
 20
46.035290
 42
0.106868
  0
VERTEX
  8
0
 10
363.446775
 20
44.473824
 42
0.181726
  0
VERTEX
  8
0
 10
363.283313
 20
43.050468
 42
0.192615
  0
VERTEX
  8
0
 10
364.104283
 20
41.914388
 42
0.140698
  0
VERTEX
  8
0
 10
367.326069
 20
40.970796
 42
0.009383
  0
VERTEX
  8
0
 10
377.051355
 20
41.101281
 42
0.014113
  0
VERTEX
  8
0
 10
387.919596
 20
41.758588
 42
0.015811
  0
VERTEX
  8
0
 10
398.326839
 20
43.016122
 42
0.007868
  0
VERTEX
  8
0
 10
408.933364
 20
44.810651
 42
0.008570
  0
VERTEX
  8
0
 10
419.178634
 20
46.892576
 42
0.006898
  0
VERTEX
  8
0
 10
431.048253
 20
49.689492
 42
0.002868
  0
VERTEX
  8
0
 10
447.000000
 20
53.778751
 42
-0.020890
  0
VERTEX
  8
0
 10
465.677440
 20
57.855667
 42
-0.037144
  0
VERTEX
  8
0
 10
481.336488
 20
59.409123
 42
-0.038809
  0
VERTEX
  8
0
 10
496.576561
 20
58.601383
 42
-0.025353
  0
VERTEX
  8
0
 10
513.901758
 20
55.426772
 42
0.003989
  0
VERTEX
  8
0
 10
517.916590
 20
54.512340
 42
0.006388
  0
VERTEX
  8
0
 10
521.359235
 20
53.803041
 42
0.001910
  0
VERTEX
  8
0
 10
524.335579
 20
53.241138
 42
0.246883
  0
VERTEX
  8
0
 10
524.682190
 20
53.348856
 42
0.525784
  0
VERTEX
  8
0
 10
524.584358
 20
53.878293
 42
0.003593
  0
VERTEX
  8
0
 10
519.593449
 20
56.063922
 42
0.009758
  0
VERTEX
  8
0
 10
513.841773
 20
58.401762
 42
0.007583
  0
VERTEX
  8
0
 10
507.500000
 20
60.726645
 42
0.022059
  0
VERTEX
  8
0
 10
503.836385
 20
61.828332
 42
0.016768
  0
VERTEX
  8
0
 10
499.739026
 20
62.720802
 42
0.015615
  0
VERTEX
  8
0
 10
495.273459
 20
63.394370
 42
0.013058
  0
VERTEX
  8
0
 10
490.500000
 20
63.836531
 42
0.000000
  0
VERTEX
  8
0
 10
480.500000
 20
64.500000
 42
0.000000
  0
VERTEX
  8
0
 10
479.759558
 20
71.926225
 42
-0.003290
  0
VERTEX
  8
0
 10
479.493050
 20
74.789905
 42
-0.005259
  0
VERTEX
  8
0
 10
479.307251
 20
77.239649
 42
-0.001411
  0
VERTEX
  8
0
 10
479.174434
 20
79.366708
 42
-0.218147
  0
VERTEX
  8
0
 10
479.259558
 20
79.586162
 42
-0.287355
  0
VERTEX
  8
0
 10
479.476707
 20
79.632803
 42
-0.001143
  0
VERTEX
  8
0
 10
481.926245
 20
78.737703
 42
-0.005108
  0
VERTEX
  8
0
 10
484.723843
 20
77.675585
 42
-0.003134
  0
VERTEX
  8
0
 10
488.000000
 20
76.369598
 42
0.009946
  0
VERTEX
  8
0
 10
498.581787
 20
72.317517
 42
0.004292
  0
VERTEX
  8
0
 10
512.829981
 20
67.321776
 42
0.004308
  0
VERTEX
  8
0
 10
527.261183
 20
62.538958
 42
0.009212
  0
VERTEX
  8
0
 10
538.500000
 20
59.148522
 42
0.026754
  0
VERTEX
  8
0
 10
576.495708
 20
50.609240
 42
0.024010
  0
VERTEX
  8
0
 10
616.585244
 20
45.793030
 42
0.019811
  0
VERTEX
  8
0
 10
663.526295
 20
44.293463
 42
0.009868
  0
VERTEX
  8
0
 10
723.000000
 20
45.924503
 42
0.002192
  0
VERTEX
  8
0
 10
753.178623
 20
47.481177
 42
0.005690
  0
VERTEX
  8
0
 10
774.899432
 20
48.945176
 42
0.007700
  0
VERTEX
  8
0
 10
791.024507
 20
50.466680
 42
0.019191
  0
VERTEX
  8
0
 10
802.734909
 20
52.210852
 42
0.001510
  0
VERTEX
  8
0
 10
807.152864
 20
53.057089
 42
0.085675
  0
VERTEX
  8
0
 10
807.929267
 20
53.352175
 42
0.715935
  0
VERTEX
  8
0
 10
807.878898
 20
53.593187
 42
0.008029
  0
VERTEX
  8
0
 10
805.500000
 20
53.846379
 42
0.025414
  0
VERTEX
  8
0
 10
802.506211
 20
53.963668
 42
0.000403
  0
VERTEX
  8
0
 10
785.490625
 20
53.751515
 42
0.001064
  0
VERTEX
  8
0
 10
765.708448
 20
53.446806
 42
0.000705
  0
VERTEX
  8
0
 10
743.000000
 20
53.016674
 42
-0.002858
  0
VERTEX
  8
0
 10
699.574801
 20
52.381206
 42
-0.005388
  0
VERTEX
  8
0
 10
664.526098
 20
52.446412
 42
-0.006599
  0
VERTEX
  8
0
 10
636.423053
 20
53.172593
 42
-0.014548
  0
VERTEX
  8
0
 10
615.000000
 20
54.634309
 42
-0.019235
  0
VERTEX
  8
0
 10
587.272554
 20
58.419775
 42
-0.021015
  0
VERTEX
  8
0
 10
560.734997
 20
64.247589
 42
-0.020501
  0
VERTEX
  8
0
 10
534.206818
 20
72.430340
 42
-0.016654
  0
VERTEX
  8
0
 10
506.500000
 20
83.288452
 42
0.004090
  0
VERTEX
  8
0
 10
500.626608
 20
85.762164
 42
0.003777
  0
VERTEX
  8
0
 10
494.556250
 20
88.207111
 42
0.003771
  0
VERTEX
  8
0
 10
489.116671
 20
90.303130
 42
0.012554
  0
VERTEX
  8
0
 10
485.500000
 20
91.562760
 42
0.000000
  0
VERTEX
  8
0
 10
478.500000
 20
93.805357
 42
0.000000
  0
VERTEX
  8
0
 10
478.210421
 20
100.693098
 42
0.000000
  0
VERTEX
  8
0
 10
477.920841
 20
107.580839
 42
0.000000
  0
VERTEX
  8
0
 10
484.710421
 20
109.762894
 42
-0.044259
  0
VERTEX
  8
0
 10
497.361373
 20
112.625066
 42
-0.045364
  0
VERTEX
  8
0
 10
510.213142
 20
113.182795
 42
-0.036497
  0
VERTEX
  8
0
 10
525.161472
 20
111.376431
 42
-0.016231
  0
VERTEX
  8
0
 10
544.519143
 20
106.932119
 42
0.005361
  0
VERTEX
  8
0
 10
553.881422
 20
104.567304
 42
0.020734
  0
VERTEX
  8
0
 10
559.757464
 20
103.405319
 42
0.025746
  0
VERTEX
  8
0
 10
565.057987
 20
102.861236
 42
0.011834
  0
VERTEX
  8
0
 10
572.000000
 20
102.672774
 42
0.007617
  0
VERTEX
  8
0
 10
578.880396
 20
102.753690
 42
0.032257
  0
VERTEX
  8
0
 10
582.981879
 20
103.129965
 42
0.038425
  0
VERTEX
  8
0
 10
586.650636
 20
103.999778
 42
0.014030
  0
VERTEX
  8
0
 10
591.689814
 20
105.769063
 42
0.010318
  0
VERTEX
  8
0
 10
598.697588
 20
108.619819
 42
0.015813
  0
VERTEX
  8
0
 10
604.632338
 20
111.403732
 42
0.011733
  0
VERTEX
  8
0
 10
611.515517
 20
115.107915
 42
0.003204
  0
VERTEX
  8
0
 10
622.199982
 20
121.276223
 42
-0.014562
  0
VERTEX
  8
0
 10
633.933935
 20
127.699619
 42
-0.044046
  0
VERTEX
  8
0
 10
642.373852
 20
131.106924
 42
-0.054345
  0
VERTEX
  8
0
 10
650.252689
 20
132.598374
 42
-0.032513
  0
VERTEX
  8
0
 10
659.793947
 20
132.727181
 42
-0.016046
  0
VERTEX
  8
0
 10
667.251635
 20
132.102327
 42
-0.029327
  0
VERTEX
  8
0
 10
673.262032
 20
131.043875
 42
-0.015784
  0
VERTEX
  8
0
 10
681.142164
 20
128.909429
 42
-0.001860
  0
VERTEX
  8
0
 10
698.500000
 20
123.543788
 42
0.021464
  0
VERTEX
  8
0
 10
709.716756
 20
120.552673
 42
0.037258
  0
VERTEX
  8
0
 10
719.253015
 20
119.177701
 42
0.046084
  0
VERTEX
  8
0
 10
727.059531
 20
119.360320
 42
0.092017
  0
VERTEX
  8
0
 10
732.941457
 20
121.173437
 42
0.084154
  0
VERTEX
  8
0
 10
738.530280
 20
125.425975
 42
0.137378
  0
VERTEX
  8
0
 10
741.258910
 20
130.674920
 42
0.119235
  0
VERTEX
  8
0
 10
741.058561
 20
137.135714
 42
0.054798
  0
VERTEX
  8
0
 10
737.931858
 20
145.013400
 42
0.038406
  0
VERTEX
  8
0
 10
735.374640
 20
149.055329
 42
0.016564
  0
VERTEX
  8
0
 10
731.393524
 20
154.039327
 42
0.011750
  0
VERTEX
  8
0
 10
725.590662
 20
160.515492
 42
0.004150
  0
VERTEX
  8
0
 10
716.984852
 20
169.526183
 42
-0.004552
  0
VERTEX
  8
0
 10
709.642397
 20
177.226446
 42
-0.003922
  0
VERTEX
  8
0
 10
702.064192
 20
185.448538
 42
-0.003950
  0
VERTEX
  8
0
 10
695.306792
 20
193.015766
 42
-0.011398
  0
VERTEX
  8
0
 10
690.786854
 20
198.401352
 42
-0.006074
  0
VERTEX
  8
0
 10
683.960590
 20
207.137449
 42
-0.005166
  0
VERTEX
  8
0
 10
676.964657
 20
216.517886
 42
-0.000819
  0
VERTEX
  8
0
 10
670.174301
 20
225.853830
 42
-0.371354
  0
VERTEX
  8
0
 10
670.233897
 20
226.562125
 42
-0.227254
  0
VERTEX
  8
0
 10
670.471442
 20
226.643170
 42
-0.003093
  0
VERTEX
  8
0
 10
672.037457
 20
226.447494
 42
-0.008020
  0
VERTEX
  8
0
 10
673.872588
 20
226.176645
 42
-0.005100
  0
VERTEX
  8
0
 10
676.000000
 20
225.805383
 42
0.052196
  0
VERTEX
  8
0
 10
685.084017
 20
225.089209
 42
0.063875
  0
VERTEX
  8
0
 10
693.496065
 20
226.388102
 42
0.075635
  0
VERTEX
  8
0
 10
700.057773
 20
229.411407
 42
0.149161
  0
VERTEX
  8
0
 10
703.685505
 20
233.789734
 42
0.027794
  0
VERTEX
  8
0
 10
704.480908
 20
236.036837
 42
0.074624
  0
VERTEX
  8
0
 10
704.709721
 20
237.713145
 42
0.059815
  0
VERTEX
  8
0
 10
704.459296
 20
239.587793
 42
0.013270
  0
VERTEX
  8
0
 10
703.566821
 20
242.705255
 42
0.048151
  0
VERTEX
  8
0
 10
701.880112
 20
246.677079
 42
0.052974
  0
VERTEX
  8
0
 10
699.507964
 20
250.117300
 42
0.028146
  0
VERTEX
  8
0
 10
695.392089
 20
254.397808
 42
0.004434
  0
VERTEX
  8
0
 10
686.761869
 20
262.275736
 42
-0.028068
  0
VERTEX
  8
0
 10
674.139755
 20
274.941186
 42
-0.023636
  0
VERTEX
  8
0
 10
662.226695
 20
289.663994
 42
-0.022009
  0
VERTEX
  8
0
 10
650.961148
 20
306.524928
 42
-0.017548
  0
VERTEX
  8
0
 10
640.284438
 20
325.615870
 42
-0.001023
  0
VERTEX
  8
0
 10
637.108399
 20
331.825498
 42
-0.001653
  0
VERTEX
  8
0
 10
634.433554
 20
337.124993
 42
-0.000241
  0
VERTEX
  8
0
 10
632.077163
 20
341.837846
 42
-0.116310
  0
VERTEX
  8
0
 10
632.000000
 20
342.165069
 42
-0.395037
  0
VERTEX
  8
0
 10
632.144692
 20
342.319627
 42
-0.014472
  0
VERTEX
  8
0
 10
633.020164
 20
342.352009
 42
-0.019501
  0
VERTEX
  8
0
 10
634.141218
 20
342.317283
 42
-0.011564
  0
VERTEX
  8
0
 10
635.472899
 20
342.192957
 42
0.058710
  0
VERTEX
  8
0
 10
639.332564
 20
342.197073
 42
0.031266
  0
VERTEX
  8
0
 10
644.037056
 20
343.057341
 42
0.031196
  0
VERTEX
  8
0
 10
648.487825
 20
344.462195
 42
0.074739
  0
VERTEX
  8
0
 10
651.488405
 20
346.169539
 42
0.173958
  0
VERTEX
  8
0
 10
653.482676
 20
349.351796
 42
0.197855
  0
VERTEX
  8
0
 10
652.858552
 20
352.875066
 42
0.069503
  0
VERTEX
  8
0
 10
648.727711
 20
357.732142
 42
0.009707
  0
VERTEX
  8
0
 10
638.679084
 20
366.331365
 42
-0.026008
  0
VERTEX
  8
0
 10
623.354681
 20
380.335717
 42
-0.037728
  0
VERTEX
  8
0
 10
611.511630
 20
394.312294
 42
-0.038622
  0
VERTEX
  8
0
 10
602.101119
 20
409.649884
 42
-0.029155
  0
VERTEX
  8
0
 10
594.131063
 20
427.747702
 42
0.000000
  0
VERTEX
  8
0
 10
589.281099
 20
440.769278
 42
0.000000
  0
VERTEX
  8
0
 10
596.029281
 20
441.434227
 42
0.050803
  0
VERTEX
  8
0
 10
604.181340
 20
443.084509
 42
0.086127
  0
VERTEX
  8
0
 10
610.362859
 20
446.248552
 42
0.116729
  0
VERTEX
  8
0
 10
613.909636
 20
450.515653
 42
0.163050
  0
VERTEX
  8
0
 10
614.586064
 20
455.392930
 42
0.096828
  0
VERTEX
  8
0
 10
613.604827
 20
457.860374
 42
0.029922
  0
VERTEX
  8
0
 10
611.233621
 20
461.103139
 42
0.017928
  0
VERTEX
  8
0
 10
607.130698
 20
465.715051
 42
0.004058
  0
VERTEX
  8
0
 10
599.825952
 20
473.232803
 42
-0.011868
  0
VERTEX
  8
0
 10
581.376567
 20
492.823265
 42
-0.021618
  0
VERTEX
  8
0
 10
567.415708
 20
509.792241
 42
-0.022643
  0
VERTEX
  8
0
 10
555.402656
 20
527.353900
 42
-0.014599
  0
VERTEX
  8
0
 10
543.033279
 20
548.686090
 42
0.000000
  0
VERTEX
  8
0
 10
535.095816
 20
563.345098
 42
0.000000
  0
VERTEX
  8
0
 10
537.900983
 20
566.540007
 42
0.103229
  0
VERTEX
  8
0
 10
541.677453
 20
573.215961
 42
0.054092
  0
VERTEX
  8
0
 10
543.591239
 20
582.608917
 42
0.053580
  0
VERTEX
  8
0
 10
543.453336
 20
592.361259
 42
0.090065
  0
VERTEX
  8
0
 10
541.033843
 20
600.159575
 42
0.034521
  0
VERTEX
  8
0
 10
539.751073
 20
602.254169
 42
0.010731
  0
VERTEX
  8
0
 10
537.545908
 20
605.216077
 42
0.010672
  0
VERTEX
  8
0
 10
534.932469
 20
608.429567
 42
0.011566
  0
VERTEX
  8
0
 10
532.251671
 20
611.441745
 42
-0.019100
  0
VERTEX
  8
0
 10
519.674668
 20
626.009490
 42
-0.011813
  0
VERTEX
  8
0
 10
505.977249
 20
644.013668
 42
-0.011703
  0
VERTEX
  8
0
 10
492.893186
 20
663.002064
 42
-0.016310
  0
VERTEX
  8
0
 10
482.155354
 20
680.621657
 42
-0.011355
  0
VERTEX
  8
0
 10
476.354976
 20
691.444188
 42
-0.005377
  0
VERTEX
  8
0
 10
469.347348
 20
705.640563
 42
-0.005359
  0
VERTEX
  8
0
 10
462.694721
 20
719.880141
 42
-0.012299
  0
VERTEX
  8
0
 10
458.067033
 20
730.772661
 42
0.009058
  0
VERTEX
  8
0
 10
453.663921
 20
741.326138
 42
0.013876
  0
VERTEX
  8
0
 10
449.432849
 20
750.287253
 42
0.015826
  0
VERTEX
  8
0
 10
445.534732
 20
757.413758
 42
0.043970
  0
VERTEX
  8
0
 10
442.220600
 20
762.055381
 42
0.067118
  0
VERTEX
  8
0
 10
437.132813
 20
766.597689
 42
0.081098
  0
VERTEX
  8
0
 10
431.327345
 20
769.280868
 42
0.090878
  0
VERTEX
  8
0
 10
425.525376
 20
769.803501
 42
0.114540
  0
SEQEND
  0
POLYLINE
  8
0
 66
1
 70
1
  0
VERTEX
  8
0
 10
434.930544
 20
747.535917
 42
-0.094034
  0
VERTEX
  8
0
 10
439.280164
 20
744.126813
 42
-0.044177
  0
VERTEX
  8
0
 10
443.507100
 20
738.332091
 42
-0.026330
  0
VERTEX
  8
0
 10
448.477029
 20
728.998047
 42
-0.006554
  0
VERTEX
  8
0
 10
455.588451
 20
713.222793
 42
0.022408
  0
VERTEX
  8
0
 10
468.428892
 20
686.991392
 42
0.020521
  0
VERTEX
  8
0
 10
483.919684
 20
661.210977
 42
0.020754
  0
VERTEX
  8
0
 10
501.259414
 20
637.106522
 42
0.024578
  0
VERTEX
  8
0
 10
519.640982
 20
615.903798
 42
-0.012675
  0
VERTEX
  8
0
 10
526.294594
 20
608.588223
 42
-0.051192
  0
VERTEX
  8
0
 10
529.748081
 20
603.651260
 42
-0.075279
  0
VERTEX
  8
0
 10
531.434287
 20
599.141833
 42
-0.051936
  0
VERTEX
  8
0
 10
532.000000
 20
593.710257
 42
-0.087612
  0
VERTEX
  8
0
 10
530.261896
 20
583.867018
 42
-0.105039
  0
VERTEX
  8
0
 10
525.282938
 20
575.905390
 42
-0.102992
  0
VERTEX
  8
0
 10
517.407289
 20
570.547850
 42
-0.081340
  0
VERTEX
  8
0
 10
507.348916
 20
568.195138
 42
-0.036633
  0
VERTEX
  8
0
 10
502.096048
 20
568.225512
 42
-0.054285
  0
VERTEX
  8
0
 10
497.576625
 20
569.082881
 42
-0.049625
  0
VERTEX
  8
0
 10
493.063642
 20
570.964983
 42
-0.025104
  0
VERTEX
  8
0
 10
487.789181
 20
574.158827
 42
0.066047
  0
VERTEX
  8
0
 10
478.754372
 20
578.666323
 42
0.068210
  0
VERTEX
  8
0
 10
468.955677
 20
580.598188
 42
0.054101
  0
VERTEX
  8
0
 10
457.195443
 20
580.013857
 42
0.024142
  0
VERTEX
  8
0
 10
442.000000
 20
576.838284
 42
-0.019105
  0
VERTEX
  8
0
 10
431.562738
 20
574.547174
 42
-0.065141
  0
VERTEX
  8
0
 10
424.627812
 20
574.215565
 42
-0.077029
  0
VERTEX
  8
0
 10
418.475216
 20
575.695620
 42
-0.034147
  0
VERTEX
  8
0
 10
410.964814
 20
579.398826
 42
0.013133
  0
VERTEX
  8
0
 10
403.709321
 20
583.363425
 42
0.038850
  0
VERTEX
  8
0
 10
398.475226
 20
585.552768
 42
0.048446
  0
VERTEX
  8
0
 10
393.644235
 20
586.641653
 42
0.031229
  0
VERTEX
  8
0
 10
387.912369
 20
587.000000
 42
0.043715
  0
VERTEX
  8
0
 10
380.428311
 20
586.344420
 42
0.040367
  0
VERTEX
  8
0
 10
372.962492
 20
584.394781
 42
0.038185
  0
VERTEX
  8
0
 10
365.528128
 20
581.141811
 42
0.031284
  0
VERTEX
  8
0
 10
358.138058
 20
576.597292
 42
-0.024907
  0
VERTEX
  8
0
 10
351.105087
 20
572.147874
 42
-0.039400
  0
VERTEX
  8
0
 10
344.640249
 20
569.139666
 42
-0.041292
  0
VERTEX
  8
0
 10
338.011743
 20
567.274996
 42
-0.031077
  0
VERTEX
  8
0
 10
330.500000
 20
566.296346
 42
-0.029740
  0
VERTEX
  8
0
 10
324.207498
 20
566.246275
 42
-0.061838
  0
VERTEX
  8
0
 10
319.382910
 20
567.099415
 42
-0.084606
  0
VERTEX
  8
0
 10
315.952739
 20
568.830407
 42
-0.127461
  0
VERTEX
  8
0
 10
313.855135
 20
571.418599
 42
-0.166043
  0
VERTEX
  8
0
 10
313.477865
 20
575.238562
 42
-0.069999
  0
VERTEX
  8
0
 10
315.369157
 20
580.108842
 42
-0.038554
  0
VERTEX
  8
0
 10
319.854765
 20
586.848263
 42
-0.009397
  0
VERTEX
  8
0
 10
328.288795
 20
597.211757
 42
0.000606
  0
VERTEX
  8
0
 10
348.712194
 20
621.425174
 42
0.003753
  0
VERTEX
  8
0
 10
359.092611
 20
633.951871
 42
0.007319
  0
VERTEX
  8
0
 10
365.632408
 20
642.209366
 42
0.013522
  0
VERTEX
  8
0
 10
370.662580
 20
649.135207
 42
0.021990
  0
VERTEX
  8
0
 10
376.881326
 20
659.117628
 42
0.010025
  0
VERTEX
  8
0
 10
384.157903
 20
672.657999
 42
0.009195
  0
VERTEX
  8
0
 10
391.874686
 20
688.443960
 42
0.007645
  0
VERTEX
  8
0
 10
399.511877
 20
705.500000
 42
-0.005169
  0
VERTEX
  8
0
 10
407.872967
 20
724.423400
 42
-0.020517
  0
VERTEX
  8
0
 10
413.597378
 20
735.765253
 42
-0.033511
  0
VERTEX
  8
0
 10
418.252394
 20
742.941536
 42
-0.086569
  0
VERTEX
  8
0
 10
422.729601
 20
747.160041
 42
-0.075736
  0
VERTEX
  8
0
 10
425.467376
 20
748.421503
 42
-0.062528
  0
VERTEX
  8
0
 10
428.645296
 20
748.920314
 42
-0.061186
  0
VERTEX
  8
0
 10
431.917156
 20
748.620360
 42
-0.065998
  0
SEQEND
  0
POLYLINE
  8
0
 66
1
 70
1
  0
VERTEX
  8
0
 10
392.013719
 20
575.012659
 42
-0.034952
  0
VERTEX
  8
0
 10
393.737369
 20
574.401265
 42
-0.012453
  0
VERTEX
  8
0
 10
396.106878
 20
573.298327
 42
-0.012287
  0
VERTEX
  8
0
 10
398.655560
 20
571.954812
 42
-0.014186
  0
VERTEX
  8
0
 10
401.013719
 20
570.547449
 42
0.007999
  0
VERTEX
  8
0
 10
403.547548
 20
568.992407
 42
0.004583
  0
VERTEX
  8
0
 10
406.650905
 20
567.193726
 42
0.004577
  0
VERTEX
  8
0
 10
409.804929
 20
565.442065
 42
0.007594
  0
VERTEX
  8
0
 10
412.500000
 20
564.030001
 42
0.056395
  0
VERTEX
  8
0
 10
418.634878
 20
561.757448
 42
0.061146
  0
VERTEX
  8
0
 10
424.955317
 20
560.995667
 42
0.047699
  0
VERTEX
  8
0
 10
432.478679
 20
561.731667
 42
0.019417
  0
VERTEX
  8
0
 10
442.500000
 20
564.095786
 42
-0.011874
  0
VERTEX
  8
0
 10
448.197320
 20
565.530878
 42
-0.015261
  0
VERTEX
  8
0
 10
453.500000
 20
566.564380
 42
-0.015446
  0
VERTEX
  8
0
 10
458.803084
 20
567.263512
 42
-0.012683
  0
VERTEX
  8
0
 10
464.500000
 20
567.690580
 42
-0.016516
  0
VERTEX
  8
0
 10
473.071463
 20
567.831426
 42
-0.049140
  0
VERTEX
  8
0
 10
478.900207
 20
567.159326
 42
-0.062332
  0
VERTEX
  8
0
 10
483.680845
 20
565.481641
 42
-0.041289
  0
VERTEX
  8
0
 10
488.662582
 20
562.464609
 42
0.034139
  0
VERTEX
  8
0
 10
496.794820
 20
557.379475
 42
0.055934
  0
VERTEX
  8
0
 10
504.334611
 20
554.378341
 42
0.064419
  0
VERTEX
  8
0
 10
511.528197
 20
553.376320
 42
0.067763
  0
VERTEX
  8
0
 10
518.611721
 20
554.270552
 42
0.000000
  0
VERTEX
  8
0
 10
523.723442
 20
555.635288
 42
0.000000
  0
VERTEX
  8
0
 10
529.499103
 20
545.067644
 42
0.016294
  0
VERTEX
  8
0
 10
539.813494
 20
527.575018
 42
0.020362
  0
VERTEX
  8
0
 10
550.550667
 20
512.083178
 42
0.019156
  0
VERTEX
  8
0
 10
563.047547
 20
496.789458
 42
0.012022
  0
VERTEX
  8
0
 10
578.750000
 20
479.847496
 42
-0.005534
  0
VERTEX
  8
0
 10
589.466182
 20
468.582156
 42
-0.060902
  0
VERTEX
  8
0
 10
593.120472
 20
463.545894
 42
-0.202284
  0
VERTEX
  8
0
 10
593.482048
 20
460.175244
 42
-0.154195
  0
VERTEX
  8
0
 10
591.369453
 20
457.075971
 42
-0.070445
  0
VERTEX
  8
0
 10
587.735555
 20
454.966970
 42
-0.053518
  0
VERTEX
  8
0
 10
583.301725
 20
453.700303
 42
-0.039194
  0
VERTEX
  8
0
 10
577.496929
 20
453.158966
 42
-0.015627
  0
VERTEX
  8
0
 10
569.500000
 20
453.291828
 42
-0.016696
  0
VERTEX
  8
0
 10
561.901545
 20
453.910596
 42
-0.033481
  0
VERTEX
  8
0
 10
555.981860
 20
454.997472
 42
-0.030997
  0
VERTEX
  8
0
 10
549.977057
 20
456.924241
 42
-0.012354
  0
VERTEX
  8
0
 10
542.000000
 20
460.270353
 42
0.044215
  0
VERTEX
  8
0
 10
532.295143
 20
463.632609
 42
0.035765
  0
VERTEX
  8
0
 10
521.432304
 20
465.538005
 42
0.035611
  0
VERTEX
  8
0
 10
510.353017
 20
465.880992
 42
0.042635
  0
VERTEX
  8
0
 10
500.000000
 20
464.575206
 42
0.020623
  0
VERTEX
  8
0
 10
492.970283
 20
462.765815
 42
0.026263
  0
VERTEX
  8
0
 10
486.671604
 20
460.497417
 42
0.026078
  0
VERTEX
  8
0
 10
480.609852
 20
457.566743
 42
0.019868
  0
VERTEX
  8
0
 10
474.292739
 20
453.761071
 42
-0.013963
  0
VERTEX
  8
0
 10
470.840043
 20
451.625067
 42
-0.010275
  0
VERTEX
  8
0
 10
466.904048
 20
449.446395
 42
-0.010400
  0
VERTEX
  8
0
 10
463.093273
 20
447.538395
 42
-0.022713
  0
VERTEX
  8
0
 10
460.082742
 20
446.272729
 42
-0.086408
  0
VERTEX
  8
0
 10
443.065307
 20
443.173017
 42
-0.056170
  0
VERTEX
  8
0
 10
423.138821
 20
445.261664
 42
-0.046168
  0
VERTEX
  8
0
 10
400.427478
 20
452.509946
 42
-0.027709
  0
VERTEX
  8
0
 10
375.000000
 20
465.000598
 42
0.019105
  0
VERTEX
  8
0
 10
362.245616
 20
471.540502
 42
0.042660
  0
VERTEX
  8
0
 10
352.015968
 20
475.278415
 42
0.054733
  0
VERTEX
  8
0
 10
343.086082
 20
476.680170
 42
0.062213
  0
VERTEX
  8
0
 10
334.455406
 20
476.006306
 42
0.032026
  0
VERTEX
  8
0
 10
328.536634
 20
474.392330
 42
0.031312
  0
VERTEX
  8
0
 10
322.826188
 20
472.025982
 42
0.028660
  0
VERTEX
  8
0
 10
317.022460
 20
468.758577
 42
0.019574
  0
VERTEX
  8
0
 10
310.814414
 20
464.426999
 42
-0.027200
  0
VERTEX
  8
0
 10
304.531841
 20
460.184319
 42
-0.038480
  0
VERTEX
  8
0
 10
298.494271
 20
457.173035
 42
-0.040741
  0
VERTEX
  8
0
 10
292.348002
 20
455.242821
 42
-0.036633
  0
VERTEX
  8
0
 10
285.746713
 20
454.247682
 42
-0.057448
  0
VERTEX
  8
0
 10
277.905841
 20
454.548771
 42
-0.096300
  0
VERTEX
  8
0
 10
271.721087
 20
456.772514
 42
-0.113694
  0
VERTEX
  8
0
 10
267.496465
 20
460.816710
 42
-0.105369
  0
VERTEX
  8
0
 10
265.320354
 20
466.413313
 42
-0.099065
  0
VERTEX
  8
0
 10
265.407928
 20
468.804292
 42
-0.078986
  0
VERTEX
  8
0
 10
266.395190
 20
471.194237
 42
-0.032055
  0
VERTEX
  8
0
 10
268.824243
 20
474.644116
 42
-0.003493
  0
VERTEX
  8
0
 10
274.969219
 20
482.172814
 42
0.015714
  0
VERTEX
  8
0
 10
285.180974
 20
495.327655
 42
0.010540
  0
VERTEX
  8
0
 10
296.051482
 20
510.960745
 42
0.010609
  0
VERTEX
  8
0
 10
305.877952
 20
526.451019
 42
0.022080
  0
VERTEX
  8
0
 10
312.731976
 20
538.999159
 42
0.000000
  0
VERTEX
  8
0
 10
318.500000
 20
550.765673
 42
0.000000
  0
VERTEX
  8
0
 10
323.000000
 20
551.468325
 42
0.030871
  0
VERTEX
  8
0
 10
330.620101
 20
553.145279
 42
0.033178
  0
VERTEX
  8
0
 10
337.788763
 20
555.718829
 42
0.032023
  0
VERTEX
  8
0
 10
344.770512
 20
559.309571
 42
0.025283
  0
VERTEX
  8
0
 10
351.833422
 20
564.034551
 42
-0.011522
  0
VERTEX
  8
0
 10
356.699515
 20
567.487381
 42
-0.022161
  0
VERTEX
  8
0
 10
360.775866
 20
569.985276
 42
-0.025542
  0
VERTEX
  8
0
 10
364.639058
 20
571.872290
 42
-0.022952
  0
VERTEX
  8
0
 10
368.813306
 20
573.431133
 42
-0.029957
  0
VERTEX
  8
0
 10
374.981411
 20
575.016717
 42
-0.030924
  0
VERTEX
  8
0
 10
381.229668
 20
575.832902
 42
-0.032890
  0
VERTEX
  8
0
 10
387.074480
 20
575.846380
 42
-0.051931
  0
SEQEND
  0
POLYLINE
  8
0
 66
1
 70
1
  0
VERTEX
  8
0
 10
355.128278
 20
463.754068
 42
-0.020636
  0
VERTEX
  8
0
 10
358.546392
 20
462.345061
 42
-0.005996
  0
VERTEX
  8
0
 10
363.692894
 20
459.895408
 42
-0.006016
  0
VERTEX
  8
0
 10
369.429067
 20
456.994073
 42
-0.006397
  0
VERTEX
  8
0
 10
374.976622
 20
454.012951
 42
0.008813
  0
VERTEX
  8
0
 10
385.932179
 20
448.193744
 42
0.013051
  0
VERTEX
  8
0
 10
395.749948
 20
443.517152
 42
0.014049
  0
VERTEX
  8
0
 10
405.212867
 20
439.623566
 42
0.013203
  0
VERTEX
  8
0
 10
415.075970
 20
436.180678
 42
0.014980
  0
VERTEX
  8
0
 10
424.693993
 20
433.420385
 42
0.027507
  0
VERTEX
  8
0
 10
432.687488
 20
431.845561
 42
0.028073
  0
VERTEX
  8
0
 10
440.695354
 20
431.176222
 42
0.016358
  0
VERTEX
  8
0
 10
450.337088
 20
431.228798
 42
0.022990
  0
VERTEX
  8
0
 10
460.103126
 20
432.052437
 42
0.044883
  0
VERTEX
  8
0
 10
467.722654
 20
433.754832
 42
0.046544
  0
VERTEX
  8
0
 10
474.735841
 20
436.740984
 42
0.026710
  0
VERTEX
  8
0
 10
482.583028
 20
441.541008
 42
-0.033313
  0
VERTEX
  8
0
 10
492.805400
 20
447.610048
 42
-0.041273
  0
VERTEX
  8
0
 10
503.052360
 20
451.782348
 42
-0.041620
  0
VERTEX
  8
0
 10
513.772887
 20
454.190759
 42
-0.034829
  0
VERTEX
  8
0
 10
525.409963
 20
454.985219
 42
-0.021159
  0
VERTEX
  8
0
 10
533.926492
 20
454.612151
 42
-0.032463
  0
VERTEX
  8
0
 10
541.224182
 20
453.501800
 42
-0.031745
  0
VERTEX
  8
0
 10
548.433492
 20
451.433680
 42
-0.019118
  0
VERTEX
  8
0
 10
556.693668
 20
448.124237
 42
0.007157
  0
VERTEX
  8
0
 10
560.321873
 20
446.568888
 42
0.007474
  0
VERTEX
  8
0
 10
563.941265
 20
445.141168
 42
0.007227
  0
VERTEX
  8
0
 10
567.102808
 20
444.000270
 42
0.032408
  0
VERTEX
  8
0
 10
569.000000
 20
443.481176
 42
-0.047696
  0
VERTEX
  8
0
 10
572.750001
 20
442.331014
 42
-0.122221
  0
VERTEX
  8
0
 10
575.017663
 20
440.656144
 42
-0.074817
  0
VERTEX
  8
0
 10
576.850379
 20
437.612848
 42
-0.010580
  0
VERTEX
  8
0
 10
579.512547
 20
430.780196
 42
0.028700
  0
VERTEX
  8
0
 10
587.040057
 20
413.353967
 42
0.033219
  0
VERTEX
  8
0
 10
596.202296
 20
397.772079
 42
0.034597
  0
VERTEX
  8
0
 10
606.971194
 20
384.098997
 42
0.037033
  0
VERTEX
  8
0
 10
619.297048
 20
372.372958
 42
-0.006767
  0
VERTEX
  8
0
 10
625.806979
 20
366.890090
 42
-0.008913
  0
VERTEX
  8
0
 10
631.584411
 20
361.705939
 42
-0.003715
  0
VERTEX
  8
0
 10
636.510481
 20
357.055875
 42
-0.204476
  0
VERTEX
  8
0
 10
637.000000
 20
355.908912
 42
-0.288683
  0
VERTEX
  8
0
 10
636.562096
 20
355.213670
 42
-0.018169
  0
VERTEX
  8
0
 10
634.241347
 20
354.204195
 42
-0.023954
  0
VERTEX
  8
0
 10
631.375506
 20
353.235179
 42
-0.020863
  0
VERTEX
  8
0
 10
628.295468
 20
352.493056
 42
-0.087213
  0
VERTEX
  8
0
 10
624.125167
 20
352.406573
 42
-0.032811
  0
VERTEX
  8
0
 10
618.403854
 20
353.679051
 42
-0.027098
  0
VERTEX
  8
0
 10
611.443168
 20
356.130570
 42
-0.015505
  0
VERTEX
  8
0
 10
603.321209
 20
359.794889
 42
0.020403
  0
VERTEX
  8
0
 10
594.258682
 20
363.777219
 42
0.059201
  0
VERTEX
  8
0
 10
587.644873
 20
365.501023
 42
0.080554
  0
VERTEX
  8
0
 10
582.046263
 20
365.366297
 42
0.067651
  0
VERTEX
  8
0
 10
576.405229
 20
363.497435
 42
0.051939
  0
VERTEX
  8
0
 10
572.023070
 20
360.757364
 42
0.068258
  0
VERTEX
  8
0
 10
568.736407
 20
357.380798
 42
0.058697
  0
VERTEX
  8
0
 10
566.148344
 20
352.843226
 42
0.027836
  0
VERTEX
  8
0
 10
563.865716
 20
346.500000
 42
-0.012080
  0
VERTEX
  8
0
 10
561.854988
 20
340.306682
 42
-0.045323
  0
VERTEX
  8
0
 10
560.157752
 20
336.592889
 42
-0.070982
  0
VERTEX
  8
0
 10
558.275520
 20
334.172549
 42
-0.072839
  0
VERTEX
  8
0
 10
555.806596
 20
332.399987
 42
-0.096162
  0
VERTEX
  8
0
 10
552.276376
 20
331.363743
 42
-0.048518
  0
VERTEX
  8
0
 10
547.619402
 20
331.378547
 42
-0.035625
  0
VERTEX
  8
0
 10
541.606663
 20
332.419079
 42
-0.015455
  0
VERTEX
  8
0
 10
533.788170
 20
334.612269
 42
-0.011367
  0
VERTEX
  8
0
 10
525.920165
 20
337.282013
 42
-0.012840
  0
VERTEX
  8
0
 10
518.498421
 20
340.208019
 42
-0.007807
  0
VERTEX
  8
0
 10
508.738110
 20
344.529641
 42
-0.001567
  0
VERTEX
  8
0
 10
491.500000
 20
352.552057
 42
0.008134
  0
VERTEX
  8
0
 10
474.365998
 20
360.253904
 42
0.023544
  0
VERTEX
  8
0
 10
462.194650
 20
364.822681
 42
0.031965
  0
VERTEX
  8
0
 10
451.975796
 20
367.411392
 42
0.031869
  0
VERTEX
  8
0
 10
441.500000
 20
368.679675
 42
0.027565
  0
VERTEX
  8
0
 10
431.525378
 20
368.696130
 42
0.037397
  0
VERTEX
  8
0
 10
422.595439
 20
367.544768
 42
0.036164
  0
VERTEX
  8
0
 10
413.710482
 20
365.035193
 42
0.023492
  0
VERTEX
  8
0
 10
403.855461
 20
360.931683
 42
-0.008243
  0
VERTEX
  8
0
 10
397.641194
 20
358.118874
 42
-0.029027
  0
VERTEX
  8
0
 10
393.522618
 20
356.613035
 42
-0.036518
  0
VERTEX
  8
0
 10
389.767499
 20
355.775361
 42
-0.019513
  0
VERTEX
  8
0
 10
385.037189
 20
355.265095
 42
-0.030234
  0
VERTEX
  8
0
 10
377.222556
 20
355.202689
 42
-0.027004
  0
VERTEX
  8
0
 10
369.152750
 20
356.065045
 42
-0.025007
  0
VERTEX
  8
0
 10
360.642050
 20
357.883099
 42
-0.018865
  0
VERTEX
  8
0
 10
351.500000
 20
360.692897
 42
0.007400
  0
VERTEX
  8
0
 10
341.002909
 20
364.184455
 42
0.016638
  0
VERTEX
  8
0
 10
332.922835
 20
366.447119
 42
0.020736
  0
VERTEX
  8
0
 10
325.946424
 20
367.848947
 42
0.021864
  0
VERTEX
  8
0
 10
319.000000
 20
368.638032
 42
0.045575
  0
VERTEX
  8
0
 10
306.816678
 20
368.373658
 42
0.031396
  0
VERTEX
  8
0
 10
293.213847
 20
365.960794
 42
0.029473
  0
VERTEX
  8
0
 10
279.026837
 20
361.614888
 42
0.027319
  0
VERTEX
  8
0
 10
265.073968
 20
355.537149
 42
-0.009702
  0
VERTEX
  8
0
 10
260.174155
 20
353.194237
 42
-0.030236
  0
VERTEX
  8
0
 10
256.760253
 20
351.885134
 42
-0.041182
  0
VERTEX
  8
0
 10
253.842018
 20
351.222141
 42
-0.035285
  0
VERTEX
  8
0
 10
250.698121
 20
351.000000
 42
-0.041363
  0
VERTEX
  8
0
 10
245.359503
 20
351.442402
 42
-0.048304
  0
VERTEX
  8
0
 10
240.447926
 20
352.758942
 42
-0.052455
  0
VERTEX
  8
0
 10
236.249613
 20
354.855957
 42
-0.070670
  0
VERTEX
  8
0
 10
233.030046
 20
357.618561
 42
-0.056097
  0
VERTEX
  8
0
 10
230.665128
 20
361.013382
 42
-0.159444
  0
VERTEX
  8
0
 10
230.154891
 20
363.814867
 42
-0.137873
  0
VERTEX
  8
0
 10
231.382393
 20
366.638428
 42
-0.038028
  0
VERTEX
  8
0
 10
234.750000
 20
370.180706
 42
0.022875
  0
VERTEX
  8
0
 10
248.409300
 20
383.703996
 42
0.025135
  0
VERTEX
  8
0
 10
260.328311
 20
398.016672
 42
0.024945
  0
VERTEX
  8
0
 10
270.827451
 20
413.553866
 42
0.021862
  0
VERTEX
  8
0
 10
280.234232
 20
430.745771
 42
-0.003964
  0
VERTEX
  8
0
 10
284.146098
 20
438.545570
 42
-0.044051
  0
VERTEX
  8
0
 10
285.997233
 20
441.492621
 42
-0.102772
  0
VERTEX
  8
0
 10
287.772212
 20
443.040243
 42
-0.062385
  0
VERTEX
  8
0
 10
290.360691
 20
444.097124
 42
0.033146
  0
VERTEX
  8
0
 10
294.885703
 20
445.643522
 42
0.025752
  0
VERTEX
  8
0
 10
299.578246
 20
447.893304
 42
0.023466
  0
VERTEX
  8
0
 10
304.446260
 20
450.847711
 42
0.017808
  0
VERTEX
  8
0
 10
309.500000
 20
454.517115
 42
-0.045285
  0
VERTEX
  8
0
 10
321.053726
 20
461.973592
 42
-0.070835
  0
VERTEX
  8
0
 10
332.186268
 20
465.926291
 42
-0.076052
  0
VERTEX
  8
0
 10
343.387583
 20
466.463555
 42
-0.061539
  0
SEQEND
  0
POLYLINE
  8
0
 66
1
 70
1
  0
VERTEX
  8
0
 10
456.375461
 20
357.853089
 42
-0.032462
  0
VERTEX
  8
0
 10
463.460808
 20
356.184632
 42
-0.020042
  0
VERTEX
  8
0
 10
471.544512
 20
353.359233
 42
-0.013084
  0
VERTEX
  8
0
 10
482.349299
 20
348.759300
 42
-0.003750
  0
VERTEX
  8
0
 10
498.841706
 20
341.072304
 42
0.007354
  0
VERTEX
  8
0
 10
520.259588
 20
331.276847
 42
0.017769
  0
VERTEX
  8
0
 10
536.435206
 20
324.840347
 42
0.023737
  0
VERTEX
  8
0
 10
548.961657
 20
321.024309
 42
0.058074
  0
VERTEX
  8
0
 10
558.500667
 20
319.755615
 42
0.094241
  0
VERTEX
  8
0
 10
564.301322
 20
320.761607
 42
0.099092
  0
VERTEX
  8
0
 10
569.212566
 20
323.821477
 42
0.083816
  0
VERTEX
  8
0
 10
573.156213
 20
329.021676
 42
0.048459
  0
VERTEX
  8
0
 10
576.110121
 20
336.316536
 42
-0.021501
  0
VERTEX
  8
0
 10
578.456833
 20
343.147633
 42
-0.046223
  0
VERTEX
  8
0
 10
580.957284
 20
348.115802
 42
-0.059813
  0
VERTEX
  8
0
 10
583.817568
 20
351.666321
 42
-0.075499
  0
VERTEX
  8
0
 10
587.240474
 20
354.122681
 42
-0.080300
  0
VERTEX
  8
0
 10
591.783656
 20
355.585439
 42
-0.061757
  0
VERTEX
  8
0
 10
596.999931
 20
355.730868
 42
-0.051244
  0
VERTEX
  8
0
 10
602.970898
 20
354.533643
 42
-0.030206
  0
VERTEX
  8
0
 10
609.785272
 20
351.963433
 42
0.000000
  0
VERTEX
  8
0
 10
617.070544
 20
348.700683
 42
0.000000
  0
VERTEX
  8
0
 10
622.361623
 20
337.569416
 42
0.020354
  0
VERTEX
  8
0
 10
634.281466
 20
314.918713
 42
0.024136
  0
VERTEX
  8
0
 10
647.397722
 20
294.607320
 42
0.025745
  0
VERTEX
  8
0
 10
661.530075
 20
276.883412
 42
0.031850
  0
VERTEX
  8
0
 10
676.500000
 20
261.999735
 42
-0.026283
  0
VERTEX
  8
0
 10
683.528152
 20
255.165851
 42
-0.079843
  0
VERTEX
  8
0
 10
687.211318
 20
249.635189
 42
-0.142530
  0
VERTEX
  8
0
 10
687.868889
 20
245.132290
 42
-0.176058
  0
VERTEX
  8
0
 10
685.898091
 20
241.407774
 42
-0.143495
  0
VERTEX
  8
0
 10
682.562372
 20
239.794302
 42
-0.031132
  0
VERTEX
  8
0
 10
676.130197
 20
239.127935
 42
-0.031815
  0
VERTEX
  8
0
 10
668.721797
 20
239.295560
 42
-0.035691
  0
VERTEX
  8
0
 10
661.679592
 20
240.414576
 42
-0.032563
  0
VERTEX
  8
0
 10
657.959988
 20
241.540935
 42
-0.006957
  0
VERTEX
  8
0
 10
651.669299
 20
244.003000
 42
-0.007244
  0
VERTEX
  8
0
 10
644.448437
 20
247.068335
 42
-0.006842
  0
VERTEX
  8
0
 10
637.179592
 20
250.398705
 42
0.004782
  0
VERTEX
  8
0
 10
629.897561
 20
253.771486
 42
0.004953
  0
VERTEX
  8
0
 10
622.637130
 20
256.964090
 42
0.004786
  0
VERTEX
  8
0
 10
616.299621
 20
259.604777
 42
0.021258
  0
VERTEX
  8
0
 10
612.500000
 20
260.960467
 42
0.032919
  0
VERTEX
  8
0
 10
604.862522
 20
262.784155
 42
0.028390
  0
VERTEX
  8
0
 10
596.663138
 20
263.704807
 42
0.029326
  0
VERTEX
  8
0
 10
588.794761
 20
263.676606
 42
0.047370
  0
VERTEX
  8
0
 10
582.184933
 20
262.631016
 42
0.031016
  0
VERTEX
  8
0
 10
576.794668
 20
260.883141
 42
0.034081
  0
VERTEX
  8
0
 10
571.835715
 20
258.526025
 42
0.021823
  0
VERTEX
  8
0
 10
565.713388
 20
254.726010
 42
0.005105
  0
VERTEX
  8
0
 10
555.808217
 20
247.812865
 42
-0.013713
  0
VERTEX
  8
0
 10
545.681625
 20
241.001350
 42
-0.028545
  0
VERTEX
  8
0
 10
537.370317
 20
236.378218
 42
-0.036566
  0
VERTEX
  8
0
 10
530.221799
 20
233.544100
 42
-0.057439
  0
VERTEX
  8
0
 10
523.739539
 20
232.300102
 42
-0.024752
  0
VERTEX
  8
0
 10
519.800941
 20
232.200204
 42
-0.061466
  0
VERTEX
  8
0
 10
516.952730
 20
232.621680
 42
-0.041189
  0
VERTEX
  8
0
 10
513.686833
 20
233.821312
 42
-0.006461
  0
VERTEX
  8
0
 10
507.500000
 20
236.789120
 42
-0.004769
  0
VERTEX
  8
0
 10
503.041177
 20
239.052558
 42
-0.003032
  0
VERTEX
  8
0
 10
497.891851
 20
241.768378
 42
-0.003045
  0
VERTEX
  8
0
 10
492.871026
 20
244.494941
 42
-0.005643
  0
VERTEX
  8
0
 10
488.833960
 20
246.778990
 42
0.004294
  0
VERTEX
  8
0
 10
485.364929
 20
248.754037
 42
0.005362
  0
VERTEX
  8
0
 10
482.109018
 20
250.525380
 42
0.004381
  0
VERTEX
  8
0
 10
479.351303
 20
251.956762
 42
0.040691
  0
VERTEX
  8
0
 10
478.109872
 20
252.465128
 42
-0.027453
  0
VERTEX
  8
0
 10
476.772874
 20
252.971776
 42
-0.001854
  0
VERTEX
  8
0
 10
473.050327
 20
254.637849
 42
-0.002657
  0
VERTEX
  8
0
 10
468.627908
 20
256.665248
 42
-0.001988
  0
VERTEX
  8
0
 10
463.775912
 20
258.944368
 42
0.034049
  0
VERTEX
  8
0
 10
443.174891
 20
267.054519
 42
0.090193
  0
VERTEX
  8
0
 10
427.529849
 20
269.053370
 42
0.087247
  0
VERTEX
  8
0
 10
411.875453
 20
265.439510
 42
0.030486
  0
VERTEX
  8
0
 10
391.109492
 20
255.102242
 42
-0.004765
  0
VERTEX
  8
0
 10
378.617210
 20
248.060226
 42
-0.030097
  0
VERTEX
  8
0
 10
372.021618
 20
244.926079
 42
-0.054561
  0
VERTEX
  8
0
 10
366.921888
 20
243.490429
 42
-0.042265
  0
VERTEX
  8
0
 10
361.167095
 20
243.023735
 42
-0.052722
  0
VERTEX
  8
0
 10
354.371552
 20
243.766750
 42
-0.053627
  0
VERTEX
  8
0
 10
347.922617
 20
245.913904
 42
-0.035806
  0
VERTEX
  8
0
 10
340.189056
 20
250.140130
 42
-0.009945
  0
VERTEX
  8
0
 10
328.711119
 20
257.851975
 42
0.005668
  0
VERTEX
  8
0
 10
322.736867
 20
261.940568
 42
0.005933
  0
VERTEX
  8
0
 10
316.761005
 20
265.829813
 42
0.005714
  0
VERTEX
  8
0
 10
311.523963
 20
269.067107
 42
0.026046
  0
VERTEX
  8
0
 10
308.365018
 20
270.752667
 42
0.024597
  0
VERTEX
  8
0
 10
304.571790
 20
272.306961
 42
0.048966
  0
VERTEX
  8
0
 10
301.423314
 20
273.083618
 42
0.031151
  0
VERTEX
  8
0
 10
297.374867
 20
273.415165
 42
0.005087
  0
VERTEX
  8
0
 10
289.500000
 20
273.488054
 42
0.020360
  0
VERTEX
  8
0
 10
279.201533
 20
273.059040
 42
0.050813
  0
VERTEX
  8
0
 10
271.805157
 20
271.683396
 42
0.034148
  0
VERTEX
  8
0
 10
263.297719
 20
268.542267
 42
0.005306
  0
VERTEX
  8
0
 10
247.000000
 20
261.016912
 42
-0.007551
  0
VERTEX
  8
0
 10
233.654105
 20
254.927078
 42
-0.028603
  0
VERTEX
  8
0
 10
225.057468
 20
251.732493
 42
-0.041063
  0
VERTEX
  8
0
 10
217.859609
 20
250.149172
 42
-0.031494
  0
VERTEX
  8
0
 10
209.823768
 20
249.573826
 42
-0.008591
  0
VERTEX
  8
0
 10
205.043971
 20
249.615281
 42
-0.037160
  0
VERTEX
  8
0
 10
202.221294
 20
249.898894
 42
-0.059937
  0
VERTEX
  8
0
 10
200.193029
 20
250.513350
 42
-0.056468
  0
VERTEX
  8
0
 10
198.323768
 20
251.600326
 42
-0.034759
  0
VERTEX
  8
0
 10
197.221836
 20
252.545580
 42
-0.033312
  0
VERTEX
  8
0
 10
196.244523
 20
253.647159
 42
-0.035129
  0
VERTEX
  8
0
 10
195.517284
 20
254.735982
 42
-0.092510
  0
VERTEX
  8
0
 10
195.210779
 20
255.618875
 42
-0.151707
  0
VERTEX
  8
0
 10
195.696863
 20
258.803424
 42
-0.044878
  0
VERTEX
  8
0
 10
198.271808
 20
263.076933
 42
-0.035790
  0
VERTEX
  8
0
 10
202.523675
 20
268.088936
 42
-0.019095
  0
VERTEX
  8
0
 10
208.431711
 20
273.676571
 42
0.030018
  0
VERTEX
  8
0
 10
220.843862
 20
285.939905
 42
0.021138
  0
VERTEX
  8
0
 10
233.324629
 20
301.088457
 42
0.020426
  0
VERTEX
  8
0
 10
244.999538
 20
317.934926
 42
0.021760
  0
VERTEX
  8
0
 10
255.000000
 20
335.333760
 42
0.000000
  0
VERTEX
  8
0
 10
260.500000
 20
345.946028
 42
0.000000
  0
VERTEX
  8
0
 10
268.500000
 20
349.352622
 42
-0.017886
  0
VERTEX
  8
0
 10
280.275192
 20
353.876490
 42
-0.028021
  0
VERTEX
  8
0
 10
290.713980
 20
356.821819
 42
-0.029953
  0
VERTEX
  8
0
 10
300.884289
 20
358.453576
 42
-0.024988
  0
VERTEX
  8
0
 10
311.815376
 20
358.992197
 42
-0.022205
  0
VERTEX
  8
0
 10
320.391658
 20
358.604865
 42
-0.028827
  0
VERTEX
  8
0
 10
328.173080
 20
357.451309
 42
-0.025079
  0
VERTEX
  8
0
 10
336.563558
 20
355.264483
 42
-0.011877
  0
VERTEX
  8
0
 10
347.146110
 20
351.653147
 42
0.019810
  0
VERTEX
  8
0
 10
357.051153
 20
348.447493
 42
0.025833
  0
VERTEX
  8
0
 10
366.343631
 20
346.352621
 42
0.027143
  0
VERTEX
  8
0
 10
375.408536
 20
345.298153
 42
0.026347
  0
VERTEX
  8
0
 10
384.625410
 20
345.216599
 42
0.011656
  0
VERTEX
  8
0
 10
391.046625
 20
345.648408
 42
0.044568
  0
VERTEX
  8
0
 10
394.988831
 20
346.363872
 42
0.036946
  0
VERTEX
  8
0
 10
399.084953
 20
347.824210
 42
0.006285
  0
VERTEX
  8
0
 10
406.625410
 20
351.272374
 42
-0.030206
  0
VERTEX
  8
0
 10
419.237910
 20
356.325691
 42
-0.047327
  0
VERTEX
  8
0
 10
430.617589
 20
358.943352
 42
-0.046514
  0
VERTEX
  8
0
 10
442.428719
 20
359.398918
 42
-0.027997
  0
SEQEND
  0
POLYLINE
  8
0
 66
1
 70
1
  0
VERTEX
  8
0
 10
297.877339
 20
260.115308
 42
-0.040644
  0
VERTEX
  8
0
 10
302.457546
 20
258.270098
 42
-0.021202
  0
VERTEX
  8
0
 10
307.842326
 20
255.281954
 42
-0.012802
  0
VERTEX
  8
0
 10
315.329176
 20
250.434197
 42
-0.003067
  0
VERTEX
  8
0
 10
327.500000
 20
241.993649
 42
0.033986
  0
VERTEX
  8
0
 10
340.458585
 20
234.145668
 42
0.064952
  0
VERTEX
  8
0
 10
351.882867
 20
230.015917
 42
0.079052
  0
VERTEX
  8
0
 10
362.379082
 20
229.391967
 42
0.080092
  0
VERTEX
  8
0
 10
372.500000
 20
232.065320
 42
0.016094
  0
VERTEX
  8
0
 10
375.301034
 20
233.419314
 42
0.003050
  0
VERTEX
  8
0
 10
380.309959
 20
236.081744
 42
0.003254
  0
VERTEX
  8
0
 10
386.122613
 20
239.266018
 42
0.002982
  0
VERTEX
  8
0
 10
392.065816
 20
242.618846
 42
-0.008707
  0
VERTEX
  8
0
 10
405.390216
 20
249.935886
 42
-0.032854
  0
VERTEX
  8
0
 10
414.083162
 20
253.808416
 42
-0.047843
  0
VERTEX
  8
0
 10
421.397166
 20
255.736813
 42
-0.038563
  0
VERTEX
  8
0
 10
429.500000
 20
256.427965
 42
-0.012522
  0
VERTEX
  8
0
 10
433.936612
 20
256.352366
 42
-0.020576
  0
VERTEX
  8
0
 10
437.677745
 20
256.040287
 42
-0.023645
  0
VERTEX
  8
0
 10
440.961495
 20
255.471024
 42
-0.027810
  0
VERTEX
  8
0
 10
444.000000
 20
254.615228
 42
-0.021172
  0
VERTEX
  8
0
 10
453.525097
 20
250.893569
 42
-0.005600
  0
VERTEX
  8
0
 10
468.407162
 20
244.139903
 42
-0.005932
  0
VERTEX
  8
0
 10
483.566394
 20
236.834285
 42
-0.013562
  0
VERTEX
  8
0
 10
494.773582
 20
230.884254
 42
0.009989
  0
VERTEX
  8
0
 10
506.790656
 20
224.393742
 42
0.028547
  0
VERTEX
  8
0
 10
515.467890
 20
220.537836
 42
0.041474
  0
VERTEX
  8
0
 10
522.234961
 20
218.605236
 42
0.075480
  0
VERTEX
  8
0
 10
527.965978
 20
218.349411
 42
0.041738
  0
VERTEX
  8
0
 10
536.533001
 20
219.992504
 42
0.049940
  0
VERTEX
  8
0
 10
544.181859
 20
222.983137
 42
0.027893
  0
VERTEX
  8
0
 10
553.979818
 20
228.701377
 42
0.004686
  0
VERTEX
  8
0
 10
572.000000
 20
240.856574
 42
-0.018722
  0
VERTEX
  8
0
 10
580.964821
 20
246.544233
 42
-0.055961
  0
VERTEX
  8
0
 10
587.597572
 20
249.475389
 42
-0.061992
  0
VERTEX
  8
0
 10
594.329741
 20
250.703819
 42
-0.027038
  0
VERTEX
  8
0
 10
603.429373
 20
250.727460
 42
-0.028197
  0
VERTEX
  8
0
 10
611.968474
 20
249.802987
 42
-0.035335
  0
VERTEX
  8
0
 10
619.713331
 20
247.949817
 42
-0.026827
  0
VERTEX
  8
0
 10
628.617972
 20
244.606790
 42
-0.008944
  0
VERTEX
  8
0
 10
641.273684
 20
238.792319
 42
-0.006444
  0
VERTEX
  8
0
 10
649.297722
 20
234.802357
 42
-0.038417
  0
VERTEX
  8
0
 10
653.278237
 20
232.355694
 42
-0.047786
  0
VERTEX
  8
0
 10
656.458775
 20
229.546822
 42
-0.013232
  0
VERTEX
  8
0
 10
660.883322
 20
224.556859
 42
-0.004261
  0
VERTEX
  8
0
 10
663.939119
 20
220.857595
 42
-0.002481
  0
VERTEX
  8
0
 10
667.545571
 20
216.369827
 42
-0.002480
  0
VERTEX
  8
0
 10
671.114062
 20
211.837937
 42
-0.004190
  0
VERTEX
  8
0
 10
674.054042
 20
208.000000
 42
0.011595
  0
VERTEX
  8
0
 10
680.155779
 20
200.274365
 42
0.007879
  0
VERTEX
  8
0
 10
687.438732
 20
191.757152
 42
0.007514
  0
VERTEX
  8
0
 10
695.443574
 20
182.959070
 42
0.007430
  0
VERTEX
  8
0
 10
703.738782
 20
174.372021
 42
-0.013933
  0
VERTEX
  8
0
 10
712.788140
 20
164.757171
 42
-0.035882
  0
VERTEX
  8
0
 10
718.599646
 20
157.199347
 42
-0.050921
  0
VERTEX
  8
0
 10
721.911704
 20
150.868809
 42
-0.095355
  0
VERTEX
  8
0
 10
723.000000
 20
145.214152
 42
-0.123448
  0
VERTEX
  8
0
 10
721.950636
 20
141.028683
 42
-0.118374
  0
VERTEX
  8
0
 10
719.040420
 20
137.756760
 42
-0.095589
  0
VERTEX
  8
0
 10
714.382085
 20
135.689932
 42
-0.056808
  0
VERTEX
  8
0
 10
708.329245
 20
135.000000
 42
-0.040669
  0
VERTEX
  8
0
 10
703.689413
 20
135.378022
 42
-0.019708
  0
VERTEX
  8
0
 10
697.852980
 20
136.573272
 42
-0.013118
  0
VERTEX
  8
0
 10
689.854660
 20
138.766597
 42
-0.003984
  0
VERTEX
  8
0
 10
677.850716
 20
142.504143
 42
0.009797
  0
VERTEX
  8
0
 10
671.599538
 20
144.371065
 42
0.009392
  0
VERTEX
  8
0
 10
665.191683
 20
146.019831
 42
0.009840
  0
VERTEX
  8
0
 10
659.180039
 20
147.322411
 42
0.017387
  0
VERTEX
  8
0
 10
654.167813
 20
148.125770
 42
0.039834
  0
VERTEX
  8
0
 10
642.664648
 20
148.638364
 42
0.065258
  0
VERTEX
  8
0
 10
633.058665
 20
147.034631
 42
0.047523
  0
VERTEX
  8
0
 10
622.252007
 20
142.583270
 42
0.012450
  0
VERTEX
  8
0
 10
605.881245
 20
133.413191
 42
-0.007499
  0
VERTEX
  8
0
 10
600.472316
 20
130.312632
 42
-0.006310
  0
VERTEX
  8
0
 10
594.654134
 20
127.187685
 42
-0.006373
  0
VERTEX
  8
0
 10
589.269794
 20
124.469410
 42
-0.017480
  0
VERTEX
  8
0
 10
585.381245
 20
122.733752
 42
-0.014526
  0
VERTEX
  8
0
 10
580.479562
 20
120.912164
 42
-0.041387
  0
VERTEX
  8
0
 10
576.949245
 20
120.033135
 42
-0.033882
  0
VERTEX
  8
0
 10
572.953401
 20
119.658158
 42
-0.007297
  0
VERTEX
  8
0
 10
566.000000
 20
119.580039
 42
-0.011921
  0
VERTEX
  8
0
 10
559.089628
 20
119.768061
 42
-0.024985
  0
VERTEX
  8
0
 10
553.742353
 20
120.309998
 42
-0.020197
  0
VERTEX
  8
0
 10
547.811437
 20
121.458950
 42
-0.005432
  0
VERTEX
  8
0
 10
538.500000
 20
123.763349
 42
0.012987
  0
VERTEX
  8
0
 10
524.436110
 20
127.019214
 42
0.021428
  0
VERTEX
  8
0
 10
512.393202
 20
128.946332
 42
0.025486
  0
VERTEX
  8
0
 10
502.176633
 20
129.609964
 42
0.044806
  0
VERTEX
  8
0
 10
493.742669
 20
128.970731
 42
0.022058
  0
VERTEX
  8
0
 10
487.638174
 20
127.674004
 42
0.020912
  0
VERTEX
  8
0
 10
481.560114
 20
125.825510
 42
0.013718
  0
VERTEX
  8
0
 10
473.760691
 20
122.849738
 42
0.003573
  0
VERTEX
  8
0
 10
461.396199
 20
117.635664
 42
-0.037547
  0
VERTEX
  8
0
 10
446.957777
 20
112.671482
 42
-0.066064
  0
VERTEX
  8
0
 10
434.455958
 20
111.111223
 42
-0.051276
  0
VERTEX
  8
0
 10
419.953536
 20
112.716442
 42
-0.014852
  0
VERTEX
  8
0
 10
398.067164
 20
118.128133
 42
0.010954
  0
VERTEX
  8
0
 10
376.016640
 20
123.763138
 42
0.039470
  0
VERTEX
  8
0
 10
361.679151
 20
125.921058
 42
0.054261
  0
VERTEX
  8
0
 10
349.693996
 20
125.466265
 42
0.037008
  0
VERTEX
  8
0
 10
336.377114
 20
122.483769
 42
-0.033000
  0
VERTEX
  8
0
 10
313.848624
 20
117.248437
 42
-0.058572
  0
VERTEX
  8
0
 10
294.833522
 20
116.385556
 42
-0.069421
  0
VERTEX
  8
0
 10
278.483152
 20
119.875345
 42
-0.072793
  0
VERTEX
  8
0
 10
264.000000
 20
127.679416
 42
0.023857
  0
VERTEX
  8
0
 10
257.081041
 20
132.330694
 42
0.019415
  0
VERTEX
  8
0
 10
249.265663
 20
136.654495
 42
0.019864
  0
VERTEX
  8
0
 10
241.436000
 20
140.214897
 42
0.032144
  0
VERTEX
  8
0
 10
234.500000
 20
142.534938
 42
0.045696
  0
VERTEX
  8
0
 10
221.951360
 20
144.652837
 42
0.041659
  0
VERTEX
  8
0
 10
208.824472
 20
144.555712
 42
0.042090
  0
VERTEX
  8
0
 10
196.037295
 20
142.297462
 42
0.049274
  0
VERTEX
  8
0
 10
184.500000
 20
137.989014
 42
-0.017394
  0
VERTEX
  8
0
 10
178.051476
 20
135.100907
 42
-0.033208
  0
VERTEX
  8
0
 10
172.664570
 20
133.316314
 42
-0.036399
  0
VERTEX
  8
0
 10
167.430896
 20
132.359904
 42
-0.026215
  0
VERTEX
  8
0
 10
161.500000
 20
132.030023
 42
-0.045258
  0
VERTEX
  8
0
 10
154.016013
 20
132.685110
 42
-0.072288
  0
VERTEX
  8
0
 10
147.938008
 20
134.713394
 42
-0.084842
  0
VERTEX
  8
0
 10
143.379052
 20
138.077314
 42
-0.092776
  0
VERTEX
  8
0
 10
140.364026
 20
142.671190
 42
-0.051573
  0
VERTEX
  8
0
 10
139.184624
 20
146.584485
 42
-0.147212
  0
VERTEX
  8
0
 10
139.472970
 20
149.383569
 42
-0.101194
  0
VERTEX
  8
0
 10
141.372095
 20
152.179405
 42
-0.017528
  0
VERTEX
  8
0
 10
146.129030
 20
156.500000
 42
0.023755
  0
VERTEX
  8
0
 10
160.974964
 20
170.325327
 42
0.013499
  0
VERTEX
  8
0
 10
177.646422
 20
188.347571
 42
0.013355
  0
VERTEX
  8
0
 10
193.749946
 20
207.748950
 42
0.018951
  0
VERTEX
  8
0
 10
206.927614
 20
225.891954
 42
-0.005049
  0
VERTEX
  8
0
 10
211.468591
 20
232.524130
 42
-0.029685
  0
VERTEX
  8
0
 10
214.086343
 20
235.829480
 42
-0.059624
  0
VERTEX
  8
0
 10
216.119018
 20
237.621317
 42
-0.098976
  0
VERTEX
  8
0
 10
218.210736
 20
238.520745
 42
0.045062
  0
VERTEX
  8
0
 10
220.327386
 20
239.172830
 42
0.003097
  0
VERTEX
  8
0
 10
226.115029
 20
241.586480
 42
0.004399
  0
VERTEX
  8
0
 10
232.982766
 20
244.572205
 42
0.003289
  0
VERTEX
  8
0
 10
240.500000
 20
247.978659
 42
-0.004245
  0
VERTEX
  8
0
 10
258.434615
 20
256.064502
 42
-0.026611
  0
VERTEX
  8
0
 10
267.833632
 20
259.622310
 42
-0.045273
  0
VERTEX
  8
0
 10
275.281255
 20
261.273414
 42
-0.028651
  0
VERTEX
  8
0
 10
284.160906
 20
261.899549
 42
-0.017248
  0
VERTEX
  8
0
 10
287.830172
 20
261.821083
 42
-0.018372
  0
VERTEX
  8
0
 10
291.408359
 20
261.488742
 42
-0.019177
  0
VERTEX
  8
0
 10
294.792213
 20
260.915876
 42
-0.023924
  0
SEQEND
  0
POLYLINE
  8
0
 66
1
 70
1
  0
VERTEX
  8
0
 10
394.902054
 20
101.533008
 42
0.010877
  0
VERTEX
  8
0
 10
411.560622
 20
97.336081
 42
0.022942
  0
VERTEX
  8
0
 10
424.674209
 20
94.961018
 42
0.029320
  0
VERTEX
  8
0
 10
435.445442
 20
94.155195
 42
0.045265
  0
VERTEX
  8
0
 10
444.749823
 20
94.848875
 42
0.027973
  0
VERTEX
  8
0
 10
447.859345
 20
95.546888
 42
0.009897
  0
VERTEX
  8
0
 10
452.225204
 20
96.880882
 42
0.009788
  0
VERTEX
  8
0
 10
456.973169
 20
98.538604
 42
0.011350
  0
VERTEX
  8
0
 10
461.421582
 20
100.306008
 42
0.000000
  0
VERTEX
  8
0
 10
471.843519
 20
104.723204
 42
0.000000
  0
VERTEX
  8
0
 10
472.439874
 20
96.611602
 42
-0.005886
  0
VERTEX
  8
0
 10
472.685239
 20
92.634419
 42
-0.002401
  0
VERTEX
  8
0
 10
472.929167
 20
87.222307
 42
-0.002376
  0
VERTEX
  8
0
 10
473.135733
 20
81.403691
 42
-0.003032
  0
VERTEX
  8
0
 10
473.268115
 20
76.038803
 42
0.000000
  0
VERTEX
  8
0
 10
473.500000
 20
63.577607
 42
0.000000
  0
VERTEX
  8
0
 10
468.500000
 20
62.755386
 42
0.016544
  0
VERTEX
  8
0
 10
465.592730
 20
62.177937
 42
0.002667
  0
VERTEX
  8
0
 10
459.975000
 20
60.835954
 42
0.002943
  0
VERTEX
  8
0
 10
453.375192
 20
59.180876
 42
0.002582
  0
VERTEX
  8
0
 10
446.500000
 20
57.375757
 42
0.000000
  0
VERTEX
  8
0
 10
429.500000
 20
52.818350
 42
0.000000
  0
VERTEX
  8
0
 10
422.689044
 20
56.807978
 42
0.034561
  0
VERTEX
  8
0
 10
414.887858
 20
60.680780
 42
0.019000
  0
VERTEX
  8
0
 10
404.883878
 20
64.374575
 42
0.018845
  0
VERTEX
  8
0
 10
394.382409
 20
67.371879
 42
0.028150
  0
VERTEX
  8
0
 10
385.000000
 20
69.118537
 42
-0.001748
  0
VERTEX
  8
0
 10
381.336293
 20
69.602247
 42
-0.002769
  0
VERTEX
  8
0
 10
378.200725
 20
70.045086
 42
-0.000646
  0
VERTEX
  8
0
 10
375.458399
 20
70.451509
 42
-0.119200
  0
VERTEX
  8
0
 10
375.193957
 20
70.558884
 42
-0.289829
  0
VERTEX
  8
0
 10
375.104502
 20
70.780523
 42
-0.003240
  0
VERTEX
  8
0
 10
375.417799
 20
72.435725
 42
-0.008736
  0
VERTEX
  8
0
 10
375.833595
 20
74.376808
 42
-0.005432
  0
VERTEX
  8
0
 10
376.385737
 20
76.639377
 42
0.018259
  0
VERTEX
  8
0
 10
377.475274
 20
81.659852
 42
0.003089
  0
VERTEX
  8
0
 10
379.145213
 20
91.329387
 42
0.002045
  0
VERTEX
  8
0
 10
380.755087
 20
101.257978
 42
0.039184
  0
VERTEX
  8
0
 10
381.000000
 20
104.378338
 42
-0.407453
  0
VERTEX
  8
0
 10
381.444513
 20
104.833256
 42
-0.056314
  0
VERTEX
  8
0
 10
382.896753
 20
104.703118
 42
-0.015689
  0
VERTEX
  8
0
 10
385.951454
 20
103.977375
 42
-0.000980
  0
SEQEND
  0
ENDSEC
  0
EOF
