  0
SECTION
  2
HEADER
  9
$ANGBASE
  50
0.0
  9
$ANGDIR
  70
1
  9
$MEASUREMENT
  70
1
  0
ENDSEC
  0
SECTION
  2
TABLES
  0
TABLE
  2
LTYPE
  70
4
  0
LTYPE
  5
40F
  2
CONTINUOUS
  70
0
  3
Solid line
  72
65
  73
0
  40
0.0
  0
LTYPE
  5
410
  2
DASHDOT
 70
0
  3
Dash Dot ____ _ ____ _
 72
65
 73
4
 40
2.0
 49
1.25
 49
-0.25
 49
0.25
 49
-0.25
  0
LTYPE
  5
411
  2
DASHED
 70
0
  3
Dashed __ __ __ __ __
 72
65
 73
2
 40
0.75
 49
0.5
 49
-0.25
  0
LTYPE
  5
43B
  2
DOTTED
 70
0
  3
Dotted .  .  .  .
 72
65
 73
2
 40
0.2
 49
0.0
 49
-0.2
  0
ENDTAB
  0
TABLE
  2
STYLE
  70
4
  0
STYLE
  2
KICAD
  70
0
  40
0
  41
1
  42
1
  50
0
  71
0
  3
isocp.shx
  0
STYLE
  2
KICADB
  70
0
  40
0
  41
1
  42
1
  50
0
  71
0
  3
isocp.shx
  0
STYLE
  2
KICADI
  70
0
  40
0
  41
1
  42
1
  50
15
  71
0
  3
isocp.shx
  0
STYLE
  2
KICADBI
  70
0
  40
0
  41
1
  42
1
  50
15
  71
0
  3
isocp.shx
  0
ENDTAB
  0
TABLE
  2
LAYER
  70
1
  0
LAYER
  2
BLACK
  70
0
  62
7
  6
CONTINUOUS
  0
ENDTAB
  0
ENDSEC
  0
SECTION
  2
ENTITIES
0
LINE
8
BLACK
6
CONTINUOUS
10
128.212
20
-77.1742
11
128.612
21
-77.5742
0
LINE
8
BLACK
6
CONTINUOUS
10
128.612
20
-77.1742
11
128.212
21
-77.5742
0
LINE
8
BLACK
6
CONTINUOUS
10
141.209
20
-94.8032
11
141.609
21
-95.2032
0
LINE
8
BLACK
6
CONTINUOUS
10
141.609
20
-94.8032
11
141.209
21
-95.2032
0
LINE
8
BLACK
6
CONTINUOUS
10
141.948
20
-91.8752
11
142.348
21
-92.2752
0
LINE
8
BLACK
6
CONTINUOUS
10
142.348
20
-91.8752
11
141.948
21
-92.2752
0
LINE
8
BLACK
6
CONTINUOUS
10
142.003
20
-97.9232
11
142.403
21
-98.3232
0
LINE
8
BLACK
6
CONTINUOUS
10
142.403
20
-97.9232
11
142.003
21
-98.3232
0
LINE
8
BLACK
6
CONTINUOUS
10
143.535
20
-95.0492
11
143.935
21
-95.4492
0
LINE
8
BLACK
6
CONTINUOUS
10
143.935
20
-95.0492
11
143.535
21
-95.4492
0
LINE
8
BLACK
6
CONTINUOUS
10
143.645
20
-89.2202
11
144.045
21
-89.6202
0
LINE
8
BLACK
6
CONTINUOUS
10
144.045
20
-89.2202
11
143.645
21
-89.6202
0
LINE
8
BLACK
6
CONTINUOUS
10
143.672
20
-100.304
11
144.072
21
-100.704
0
LINE
8
BLACK
6
CONTINUOUS
10
144.072
20
-100.304
11
143.672
21
-100.704
0
LINE
8
BLACK
6
CONTINUOUS
10
146.299
20
-87.4412
11
146.699
21
-87.8412
0
LINE
8
BLACK
6
CONTINUOUS
10
146.699
20
-87.4412
11
146.299
21
-87.8412
0
LINE
8
BLACK
6
CONTINUOUS
10
146.546
20
-91.5462
11
146.946
21
-91.9462
0
LINE
8
BLACK
6
CONTINUOUS
10
146.946
20
-91.5462
11
146.546
21
-91.9462
0
LINE
8
BLACK
6
CONTINUOUS
10
147.341
20
-107.112
11
147.741
21
-107.512
0
LINE
8
BLACK
6
CONTINUOUS
10
147.741
20
-107.112
11
147.341
21
-107.512
0
LINE
8
BLACK
6
CONTINUOUS
10
147.35
20
-105.791
11
147.75
21
-106.191
0
LINE
8
BLACK
6
CONTINUOUS
10
147.75
20
-105.791
11
147.35
21
-106.191
0
LINE
8
BLACK
6
CONTINUOUS
10
147.495
20
-82.8112
11
147.895
21
-83.2112
0
LINE
8
BLACK
6
CONTINUOUS
10
147.895
20
-82.8112
11
147.495
21
-83.2112
0
LINE
8
BLACK
6
CONTINUOUS
10
147.495
20
-84.1622
11
147.895
21
-84.5622
0
LINE
8
BLACK
6
CONTINUOUS
10
147.895
20
-84.1622
11
147.495
21
-84.5622
0
LINE
8
BLACK
6
CONTINUOUS
10
148.078
20
-102.849
11
148.478
21
-103.249
0
LINE
8
BLACK
6
CONTINUOUS
10
148.478
20
-102.849
11
148.078
21
-103.249
0
LINE
8
BLACK
6
CONTINUOUS
10
148.646
20
-107.139
11
149.046
21
-107.539
0
LINE
8
BLACK
6
CONTINUOUS
10
149.046
20
-107.139
11
148.646
21
-107.539
0
LINE
8
BLACK
6
CONTINUOUS
10
148.653
20
-105.803
11
149.053
21
-106.203
0
LINE
8
BLACK
6
CONTINUOUS
10
149.053
20
-105.803
11
148.653
21
-106.203
0
LINE
8
BLACK
6
CONTINUOUS
10
148.7
20
-82.7992
11
149.1
21
-83.1992
0
LINE
8
BLACK
6
CONTINUOUS
10
149.1
20
-82.7992
11
148.7
21
-83.1992
0
LINE
8
BLACK
6
CONTINUOUS
10
148.713
20
-84.1382
11
149.113
21
-84.5382
0
LINE
8
BLACK
6
CONTINUOUS
10
149.113
20
-84.1382
11
148.713
21
-84.5382
0
LINE
8
BLACK
6
CONTINUOUS
10
149.321
20
-64.1882
11
149.721
21
-64.5882
0
LINE
8
BLACK
6
CONTINUOUS
10
149.721
20
-64.1882
11
149.321
21
-64.5882
0
LINE
8
BLACK
6
CONTINUOUS
10
149.48
20
-97.5548
11
149.88
21
-97.9548
0
LINE
8
BLACK
6
CONTINUOUS
10
149.88
20
-97.5548
11
149.48
21
-97.9548
0
LINE
8
BLACK
6
CONTINUOUS
10
149.501
20
-95.3782
11
149.901
21
-95.7782
0
LINE
8
BLACK
6
CONTINUOUS
10
149.901
20
-95.3782
11
149.501
21
-95.7782
0
LINE
8
BLACK
6
CONTINUOUS
10
149.778
20
-99.6998
11
150.178
21
-100.1
0
LINE
8
BLACK
6
CONTINUOUS
10
150.178
20
-99.6998
11
149.778
21
-100.1
0
LINE
8
BLACK
6
CONTINUOUS
10
149.93
20
-84.1502
11
150.33
21
-84.5502
0
LINE
8
BLACK
6
CONTINUOUS
10
150.33
20
-84.1502
11
149.93
21
-84.5502
0
LINE
8
BLACK
6
CONTINUOUS
10
149.962
20
-82.8052
11
150.362
21
-83.2052
0
LINE
8
BLACK
6
CONTINUOUS
10
150.362
20
-82.8052
11
149.962
21
-83.2052
0
LINE
8
BLACK
6
CONTINUOUS
10
150.073
20
-107.13
11
150.473
21
-107.53
0
LINE
8
BLACK
6
CONTINUOUS
10
150.473
20
-107.13
11
150.073
21
-107.53
0
LINE
8
BLACK
6
CONTINUOUS
10
150.075
20
-105.808
11
150.475
21
-106.208
0
LINE
8
BLACK
6
CONTINUOUS
10
150.475
20
-105.808
11
150.075
21
-106.208
0
LINE
8
BLACK
6
CONTINUOUS
10
151.236
20
-84.1402
11
151.636
21
-84.5402
0
LINE
8
BLACK
6
CONTINUOUS
10
151.636
20
-84.1402
11
151.236
21
-84.5402
0
LINE
8
BLACK
6
CONTINUOUS
10
151.257
20
-82.8382
11
151.657
21
-83.2382
0
LINE
8
BLACK
6
CONTINUOUS
10
151.657
20
-82.8382
11
151.257
21
-83.2382
0
LINE
8
BLACK
6
CONTINUOUS
10
151.439
20
-105.824
11
151.839
21
-106.224
0
LINE
8
BLACK
6
CONTINUOUS
10
151.839
20
-105.824
11
151.439
21
-106.224
0
LINE
8
BLACK
6
CONTINUOUS
10
151.487
20
-107.135
11
151.887
21
-107.535
0
LINE
8
BLACK
6
CONTINUOUS
10
151.887
20
-107.135
11
151.487
21
-107.535
0
LINE
8
BLACK
6
CONTINUOUS
10
151.882
20
-87.3042
11
152.282
21
-87.7042
0
LINE
8
BLACK
6
CONTINUOUS
10
152.282
20
-87.3042
11
151.882
21
-87.7042
0
LINE
8
BLACK
6
CONTINUOUS
10
151.882
20
-102.657
11
152.282
21
-103.057
0
LINE
8
BLACK
6
CONTINUOUS
10
152.282
20
-102.657
11
151.882
21
-103.057
0
LINE
8
BLACK
6
CONTINUOUS
10
153.415
20
-91.5192
11
153.815
21
-91.9192
0
LINE
8
BLACK
6
CONTINUOUS
10
153.815
20
-91.5192
11
153.415
21
-91.9192
0
LINE
8
BLACK
6
CONTINUOUS
10
154.427
20
-88.4542
11
154.827
21
-88.8542
0
LINE
8
BLACK
6
CONTINUOUS
10
154.827
20
-88.4542
11
154.427
21
-88.8542
0
LINE
8
BLACK
6
CONTINUOUS
10
155.577
20
-95.3232
11
155.977
21
-95.7232
0
LINE
8
BLACK
6
CONTINUOUS
10
155.977
20
-95.3232
11
155.577
21
-95.7232
0
LINE
8
BLACK
6
CONTINUOUS
10
155.96
20
-90.2872
11
156.36
21
-90.6872
0
LINE
8
BLACK
6
CONTINUOUS
10
156.36
20
-90.2872
11
155.96
21
-90.6872
0
LINE
8
BLACK
6
CONTINUOUS
10
156.343
20
-99.3732
11
156.743
21
-99.7732
0
LINE
8
BLACK
6
CONTINUOUS
10
156.743
20
-99.3732
11
156.343
21
-99.7732
0
LINE
8
BLACK
6
CONTINUOUS
10
157.465
20
-93.1612
11
157.865
21
-93.5612
0
LINE
8
BLACK
6
CONTINUOUS
10
157.865
20
-93.1612
11
157.465
21
-93.5612
0
LINE
8
BLACK
6
CONTINUOUS
10
157.52
20
-96.0892
11
157.92
21
-96.4892
0
LINE
8
BLACK
6
CONTINUOUS
10
157.92
20
-96.0892
11
157.52
21
-96.4892
0
LINE
8
BLACK
6
CONTINUOUS
10
162.021
20
-111.351
11
162.421
21
-111.751
0
LINE
8
BLACK
6
CONTINUOUS
10
162.421
20
-111.351
11
162.021
21
-111.751
0
LINE
8
BLACK
6
CONTINUOUS
10
163.309
20
-101.621
11
163.709
21
-102.021
0
LINE
8
BLACK
6
CONTINUOUS
10
163.709
20
-101.621
11
163.309
21
-102.021
0
LINE
8
BLACK
6
CONTINUOUS
10
164.364
20
-88.3682
11
164.764
21
-88.7682
0
LINE
8
BLACK
6
CONTINUOUS
10
164.764
20
-88.3682
11
164.364
21
-88.7682
0
LINE
8
BLACK
6
CONTINUOUS
10
164.581
20
-79.1032
11
164.981
21
-79.5032
0
LINE
8
BLACK
6
CONTINUOUS
10
164.981
20
-79.1032
11
164.581
21
-79.5032
0
LINE
8
BLACK
6
CONTINUOUS
10
166.842
20
-86.0152
11
167.242
21
-86.4152
0
LINE
8
BLACK
6
CONTINUOUS
10
167.242
20
-86.0152
11
166.842
21
-86.4152
0
LINE
8
BLACK
6
CONTINUOUS
10
174.055
20
-78.4352
11
174.455
21
-78.8352
0
LINE
8
BLACK
6
CONTINUOUS
10
174.455
20
-78.4352
11
174.055
21
-78.8352
0
CIRCLE
8
BLACK
10
129.179
20
-93.507
40
0.4
0
CIRCLE
8
BLACK
10
131.179
20
-93.507
40
0.4
0
CIRCLE
8
BLACK
10
131.731
20
-79.075
40
0.4
0
CIRCLE
8
BLACK
10
131.731
20
-81.615
40
0.4
0
CIRCLE
8
BLACK
10
131.731
20
-84.155
40
0.4
0
CIRCLE
8
BLACK
10
131.731
20
-86.695
40
0.4
0
CIRCLE
8
BLACK
10
136.262
20
-93.324
40
0.4
0
CIRCLE
8
BLACK
10
138.262
20
-93.324
40
0.4
0
CIRCLE
8
BLACK
10
139.351
20
-79.075
40
0.4
0
CIRCLE
8
BLACK
10
139.351
20
-81.615
40
0.4
0
CIRCLE
8
BLACK
10
139.351
20
-84.155
40
0.4
0
CIRCLE
8
BLACK
10
139.351
20
-86.695
40
0.4
0
CIRCLE
8
BLACK
10
145.867
20
-72.7532
40
0.4
0
CIRCLE
8
BLACK
10
146.565
20
-80.175
40
0.4
0
CIRCLE
8
BLACK
10
149.065
20
-77.675
40
0.4
0
CIRCLE
8
BLACK
10
151.565
20
-80.175
40
0.4
0
CIRCLE
8
BLACK
10
153.487
20
-72.7532
40
0.4
0
CIRCLE
8
BLACK
10
161.568
20
-79.6002
40
0.4
0
CIRCLE
8
BLACK
10
161.568
20
-82.1402
40
0.4
0
CIRCLE
8
BLACK
10
161.568
20
-84.6802
40
0.4
0
CIRCLE
8
BLACK
10
161.568
20
-87.2202
40
0.4
0
CIRCLE
8
BLACK
10
161.568
20
-89.7602
40
0.4
0
CIRCLE
8
BLACK
10
161.568
20
-92.3002
40
0.4
0
CIRCLE
8
BLACK
10
161.568
20
-94.8402
40
0.4
0
CIRCLE
8
BLACK
10
161.568
20
-97.3802
40
0.4
0
CIRCLE
8
BLACK
10
169.188
20
-79.6002
40
0.4
0
CIRCLE
8
BLACK
10
169.188
20
-82.1402
40
0.4
0
CIRCLE
8
BLACK
10
169.188
20
-84.6802
40
0.4
0
CIRCLE
8
BLACK
10
169.188
20
-87.2202
40
0.4
0
CIRCLE
8
BLACK
10
169.188
20
-89.7602
40
0.4
0
CIRCLE
8
BLACK
10
169.188
20
-92.3002
40
0.4
0
CIRCLE
8
BLACK
10
169.188
20
-94.8402
40
0.4
0
CIRCLE
8
BLACK
10
169.188
20
-97.3802
40
0.4
0
LINE
8
BLACK
6
CONTINUOUS
10
147.038
20
-111.064
11
147.038
21
-111.964
0
LINE
8
BLACK
6
CONTINUOUS
10
146.588
20
-111.514
11
147.488
21
-111.514
0
LINE
8
BLACK
6
CONTINUOUS
10
149.538
20
-111.064
11
149.538
21
-111.964
0
LINE
8
BLACK
6
CONTINUOUS
10
149.088
20
-111.514
11
149.988
21
-111.514
0
LINE
8
BLACK
6
CONTINUOUS
10
152.038
20
-111.064
11
152.038
21
-111.964
0
LINE
8
BLACK
6
CONTINUOUS
10
151.588
20
-111.514
11
152.488
21
-111.514
0
LINE
8
BLACK
6
CONTINUOUS
10
150.875
20
-46.6912
11
150.875
21
-43.8628
0
LINE
8
BLACK
6
CONTINUOUS
10
150.875
20
-43.8628
11
148.047
21
-43.8628
0
LINE
8
BLACK
6
CONTINUOUS
10
148.047
20
-43.8628
11
148.047
21
-46.6912
0
LINE
8
BLACK
6
CONTINUOUS
10
148.047
20
-46.6912
11
150.875
21
-46.6912
0
LINE
8
BLACK
6
CONTINUOUS
10
102.602
20
-148.177
11
102.602
21
-146.177
0
LINE
8
BLACK
6
CONTINUOUS
10
102.602
20
-146.177
11
103.078
21
-146.177
0
LINE
8
BLACK
6
CONTINUOUS
10
103.078
20
-146.177
11
103.364
21
-146.273
0
LINE
8
BLACK
6
CONTINUOUS
10
103.364
20
-146.273
11
103.554
21
-146.463
0
LINE
8
BLACK
6
CONTINUOUS
10
103.554
20
-146.463
11
103.649
21
-146.654
0
LINE
8
BLACK
6
CONTINUOUS
10
103.649
20
-146.654
11
103.745
21
-147.034
0
LINE
8
BLACK
6
CONTINUOUS
10
103.745
20
-147.034
11
103.745
21
-147.32
0
LINE
8
BLACK
6
CONTINUOUS
10
103.745
20
-147.32
11
103.649
21
-147.701
0
LINE
8
BLACK
6
CONTINUOUS
10
103.649
20
-147.701
11
103.554
21
-147.892
0
LINE
8
BLACK
6
CONTINUOUS
10
103.554
20
-147.892
11
103.364
21
-148.082
0
LINE
8
BLACK
6
CONTINUOUS
10
103.364
20
-148.082
11
103.078
21
-148.177
0
LINE
8
BLACK
6
CONTINUOUS
10
103.078
20
-148.177
11
102.602
21
-148.177
0
LINE
8
BLACK
6
CONTINUOUS
10
104.602
20
-148.177
11
104.602
21
-146.844
0
LINE
8
BLACK
6
CONTINUOUS
10
104.602
20
-147.225
11
104.697
21
-147.034
0
LINE
8
BLACK
6
CONTINUOUS
10
104.697
20
-147.034
11
104.792
21
-146.939
0
LINE
8
BLACK
6
CONTINUOUS
10
104.792
20
-146.939
11
104.983
21
-146.844
0
LINE
8
BLACK
6
CONTINUOUS
10
104.983
20
-146.844
11
105.173
21
-146.844
0
LINE
8
BLACK
6
CONTINUOUS
10
105.84
20
-148.177
11
105.84
21
-146.844
0
LINE
8
BLACK
6
CONTINUOUS
10
105.84
20
-146.177
11
105.745
21
-146.273
0
LINE
8
BLACK
6
CONTINUOUS
10
105.745
20
-146.273
11
105.84
21
-146.368
0
LINE
8
BLACK
6
CONTINUOUS
10
105.84
20
-146.368
11
105.935
21
-146.273
0
LINE
8
BLACK
6
CONTINUOUS
10
105.935
20
-146.273
11
105.84
21
-146.177
0
LINE
8
BLACK
6
CONTINUOUS
10
105.84
20
-146.177
11
105.84
21
-146.368
0
LINE
8
BLACK
6
CONTINUOUS
10
107.078
20
-148.177
11
106.887
21
-148.082
0
LINE
8
BLACK
6
CONTINUOUS
10
106.887
20
-148.082
11
106.792
21
-147.892
0
LINE
8
BLACK
6
CONTINUOUS
10
106.792
20
-147.892
11
106.792
21
-146.177
0
LINE
8
BLACK
6
CONTINUOUS
10
108.126
20
-148.177
11
107.935
21
-148.082
0
LINE
8
BLACK
6
CONTINUOUS
10
107.935
20
-148.082
11
107.84
21
-147.892
0
LINE
8
BLACK
6
CONTINUOUS
10
107.84
20
-147.892
11
107.84
21
-146.177
0
LINE
8
BLACK
6
CONTINUOUS
10
110.411
20
-148.177
11
110.411
21
-146.177
0
LINE
8
BLACK
6
CONTINUOUS
10
110.411
20
-146.177
11
111.078
21
-147.606
0
LINE
8
BLACK
6
CONTINUOUS
10
111.078
20
-147.606
11
111.745
21
-146.177
0
LINE
8
BLACK
6
CONTINUOUS
10
111.745
20
-146.177
11
111.745
21
-148.177
0
LINE
8
BLACK
6
CONTINUOUS
10
113.554
20
-148.177
11
113.554
21
-147.13
0
LINE
8
BLACK
6
CONTINUOUS
10
113.554
20
-147.13
11
113.459
21
-146.939
0
LINE
8
BLACK
6
CONTINUOUS
10
113.459
20
-146.939
11
113.268
21
-146.844
0
LINE
8
BLACK
6
CONTINUOUS
10
113.268
20
-146.844
11
112.887
21
-146.844
0
LINE
8
BLACK
6
CONTINUOUS
10
112.887
20
-146.844
11
112.697
21
-146.939
0
LINE
8
BLACK
6
CONTINUOUS
10
113.554
20
-148.082
11
113.364
21
-148.177
0
LINE
8
BLACK
6
CONTINUOUS
10
113.364
20
-148.177
11
112.887
21
-148.177
0
LINE
8
BLACK
6
CONTINUOUS
10
112.887
20
-148.177
11
112.697
21
-148.082
0
LINE
8
BLACK
6
CONTINUOUS
10
112.697
20
-148.082
11
112.602
21
-147.892
0
LINE
8
BLACK
6
CONTINUOUS
10
112.602
20
-147.892
11
112.602
21
-147.701
0
LINE
8
BLACK
6
CONTINUOUS
10
112.602
20
-147.701
11
112.697
21
-147.511
0
LINE
8
BLACK
6
CONTINUOUS
10
112.697
20
-147.511
11
112.887
21
-147.415
0
LINE
8
BLACK
6
CONTINUOUS
10
112.887
20
-147.415
11
113.364
21
-147.415
0
LINE
8
BLACK
6
CONTINUOUS
10
113.364
20
-147.415
11
113.554
21
-147.32
0
LINE
8
BLACK
6
CONTINUOUS
10
114.506
20
-146.844
11
114.506
21
-148.844
0
LINE
8
BLACK
6
CONTINUOUS
10
114.506
20
-146.939
11
114.697
21
-146.844
0
LINE
8
BLACK
6
CONTINUOUS
10
114.697
20
-146.844
11
115.078
21
-146.844
0
LINE
8
BLACK
6
CONTINUOUS
10
115.078
20
-146.844
11
115.268
21
-146.939
0
LINE
8
BLACK
6
CONTINUOUS
10
115.268
20
-146.939
11
115.364
21
-147.034
0
LINE
8
BLACK
6
CONTINUOUS
10
115.364
20
-147.034
11
115.459
21
-147.225
0
LINE
8
BLACK
6
CONTINUOUS
10
115.459
20
-147.225
11
115.459
21
-147.796
0
LINE
8
BLACK
6
CONTINUOUS
10
115.459
20
-147.796
11
115.364
21
-147.987
0
LINE
8
BLACK
6
CONTINUOUS
10
115.364
20
-147.987
11
115.268
21
-148.082
0
LINE
8
BLACK
6
CONTINUOUS
10
115.268
20
-148.082
11
115.078
21
-148.177
0
LINE
8
BLACK
6
CONTINUOUS
10
115.078
20
-148.177
11
114.697
21
-148.177
0
LINE
8
BLACK
6
CONTINUOUS
10
114.697
20
-148.177
11
114.506
21
-148.082
0
LINE
8
BLACK
6
CONTINUOUS
10
116.316
20
-147.987
11
116.411
21
-148.082
0
LINE
8
BLACK
6
CONTINUOUS
10
116.411
20
-148.082
11
116.316
21
-148.177
0
LINE
8
BLACK
6
CONTINUOUS
10
116.316
20
-148.177
11
116.221
21
-148.082
0
LINE
8
BLACK
6
CONTINUOUS
10
116.221
20
-148.082
11
116.316
21
-147.987
0
LINE
8
BLACK
6
CONTINUOUS
10
116.316
20
-147.987
11
116.316
21
-148.177
0
LINE
8
BLACK
6
CONTINUOUS
10
116.316
20
-146.939
11
116.411
21
-147.034
0
LINE
8
BLACK
6
CONTINUOUS
10
116.411
20
-147.034
11
116.316
21
-147.13
0
LINE
8
BLACK
6
CONTINUOUS
10
116.316
20
-147.13
11
116.221
21
-147.034
0
LINE
8
BLACK
6
CONTINUOUS
10
116.221
20
-147.034
11
116.316
21
-146.939
0
LINE
8
BLACK
6
CONTINUOUS
10
116.316
20
-146.939
11
116.316
21
-147.13
0
LINE
8
BLACK
6
CONTINUOUS
10
99.6255
20
-151.273
11
100.026
21
-151.673
0
LINE
8
BLACK
6
CONTINUOUS
10
100.026
20
-151.273
11
99.6255
21
-151.673
0
LINE
8
BLACK
6
CONTINUOUS
10
102.983
20
-150.377
11
103.173
21
-150.377
0
LINE
8
BLACK
6
CONTINUOUS
10
103.173
20
-150.377
11
103.364
21
-150.473
0
LINE
8
BLACK
6
CONTINUOUS
10
103.364
20
-150.473
11
103.459
21
-150.568
0
LINE
8
BLACK
6
CONTINUOUS
10
103.459
20
-150.568
11
103.554
21
-150.758
0
LINE
8
BLACK
6
CONTINUOUS
10
103.554
20
-150.758
11
103.649
21
-151.139
0
LINE
8
BLACK
6
CONTINUOUS
10
103.649
20
-151.139
11
103.649
21
-151.615
0
LINE
8
BLACK
6
CONTINUOUS
10
103.649
20
-151.615
11
103.554
21
-151.996
0
LINE
8
BLACK
6
CONTINUOUS
10
103.554
20
-151.996
11
103.459
21
-152.187
0
LINE
8
BLACK
6
CONTINUOUS
10
103.459
20
-152.187
11
103.364
21
-152.282
0
LINE
8
BLACK
6
CONTINUOUS
10
103.364
20
-152.282
11
103.173
21
-152.377
0
LINE
8
BLACK
6
CONTINUOUS
10
103.173
20
-152.377
11
102.983
21
-152.377
0
LINE
8
BLACK
6
CONTINUOUS
10
102.983
20
-152.377
11
102.792
21
-152.282
0
LINE
8
BLACK
6
CONTINUOUS
10
102.792
20
-152.282
11
102.697
21
-152.187
0
LINE
8
BLACK
6
CONTINUOUS
10
102.697
20
-152.187
11
102.602
21
-151.996
0
LINE
8
BLACK
6
CONTINUOUS
10
102.602
20
-151.996
11
102.506
21
-151.615
0
LINE
8
BLACK
6
CONTINUOUS
10
102.506
20
-151.615
11
102.506
21
-151.139
0
LINE
8
BLACK
6
CONTINUOUS
10
102.506
20
-151.139
11
102.602
21
-150.758
0
LINE
8
BLACK
6
CONTINUOUS
10
102.602
20
-150.758
11
102.697
21
-150.568
0
LINE
8
BLACK
6
CONTINUOUS
10
102.697
20
-150.568
11
102.792
21
-150.473
0
LINE
8
BLACK
6
CONTINUOUS
10
102.792
20
-150.473
11
102.983
21
-150.377
0
LINE
8
BLACK
6
CONTINUOUS
10
104.506
20
-152.187
11
104.602
21
-152.282
0
LINE
8
BLACK
6
CONTINUOUS
10
104.602
20
-152.282
11
104.506
21
-152.377
0
LINE
8
BLACK
6
CONTINUOUS
10
104.506
20
-152.377
11
104.411
21
-152.282
0
LINE
8
BLACK
6
CONTINUOUS
10
104.411
20
-152.282
11
104.506
21
-152.187
0
LINE
8
BLACK
6
CONTINUOUS
10
104.506
20
-152.187
11
104.506
21
-152.377
0
LINE
8
BLACK
6
CONTINUOUS
10
106.316
20
-151.044
11
106.316
21
-152.377
0
LINE
8
BLACK
6
CONTINUOUS
10
105.84
20
-150.282
11
105.364
21
-151.711
0
LINE
8
BLACK
6
CONTINUOUS
10
105.364
20
-151.711
11
106.602
21
-151.711
0
LINE
8
BLACK
6
CONTINUOUS
10
107.745
20
-150.377
11
107.935
21
-150.377
0
LINE
8
BLACK
6
CONTINUOUS
10
107.935
20
-150.377
11
108.126
21
-150.473
0
LINE
8
BLACK
6
CONTINUOUS
10
108.126
20
-150.473
11
108.221
21
-150.568
0
LINE
8
BLACK
6
CONTINUOUS
10
108.221
20
-150.568
11
108.316
21
-150.758
0
LINE
8
BLACK
6
CONTINUOUS
10
108.316
20
-150.758
11
108.411
21
-151.139
0
LINE
8
BLACK
6
CONTINUOUS
10
108.411
20
-151.139
11
108.411
21
-151.615
0
LINE
8
BLACK
6
CONTINUOUS
10
108.411
20
-151.615
11
108.316
21
-151.996
0
LINE
8
BLACK
6
CONTINUOUS
10
108.316
20
-151.996
11
108.221
21
-152.187
0
LINE
8
BLACK
6
CONTINUOUS
10
108.221
20
-152.187
11
108.126
21
-152.282
0
LINE
8
BLACK
6
CONTINUOUS
10
108.126
20
-152.282
11
107.935
21
-152.377
0
LINE
8
BLACK
6
CONTINUOUS
10
107.935
20
-152.377
11
107.745
21
-152.377
0
LINE
8
BLACK
6
CONTINUOUS
10
107.745
20
-152.377
11
107.554
21
-152.282
0
LINE
8
BLACK
6
CONTINUOUS
10
107.554
20
-152.282
11
107.459
21
-152.187
0
LINE
8
BLACK
6
CONTINUOUS
10
107.459
20
-152.187
11
107.364
21
-151.996
0
LINE
8
BLACK
6
CONTINUOUS
10
107.364
20
-151.996
11
107.268
21
-151.615
0
LINE
8
BLACK
6
CONTINUOUS
10
107.268
20
-151.615
11
107.268
21
-151.139
0
LINE
8
BLACK
6
CONTINUOUS
10
107.268
20
-151.139
11
107.364
21
-150.758
0
LINE
8
BLACK
6
CONTINUOUS
10
107.364
20
-150.758
11
107.459
21
-150.568
0
LINE
8
BLACK
6
CONTINUOUS
10
107.459
20
-150.568
11
107.554
21
-150.473
0
LINE
8
BLACK
6
CONTINUOUS
10
107.554
20
-150.473
11
107.745
21
-150.377
0
LINE
8
BLACK
6
CONTINUOUS
10
109.649
20
-150.377
11
109.84
21
-150.377
0
LINE
8
BLACK
6
CONTINUOUS
10
109.84
20
-150.377
11
110.03
21
-150.473
0
LINE
8
BLACK
6
CONTINUOUS
10
110.03
20
-150.473
11
110.126
21
-150.568
0
LINE
8
BLACK
6
CONTINUOUS
10
110.126
20
-150.568
11
110.221
21
-150.758
0
LINE
8
BLACK
6
CONTINUOUS
10
110.221
20
-150.758
11
110.316
21
-151.139
0
LINE
8
BLACK
6
CONTINUOUS
10
110.316
20
-151.139
11
110.316
21
-151.615
0
LINE
8
BLACK
6
CONTINUOUS
10
110.316
20
-151.615
11
110.221
21
-151.996
0
LINE
8
BLACK
6
CONTINUOUS
10
110.221
20
-151.996
11
110.126
21
-152.187
0
LINE
8
BLACK
6
CONTINUOUS
10
110.126
20
-152.187
11
110.03
21
-152.282
0
LINE
8
BLACK
6
CONTINUOUS
10
110.03
20
-152.282
11
109.84
21
-152.377
0
LINE
8
BLACK
6
CONTINUOUS
10
109.84
20
-152.377
11
109.649
21
-152.377
0
LINE
8
BLACK
6
CONTINUOUS
10
109.649
20
-152.377
11
109.459
21
-152.282
0
LINE
8
BLACK
6
CONTINUOUS
10
109.459
20
-152.282
11
109.364
21
-152.187
0
LINE
8
BLACK
6
CONTINUOUS
10
109.364
20
-152.187
11
109.268
21
-151.996
0
LINE
8
BLACK
6
CONTINUOUS
10
109.268
20
-151.996
11
109.173
21
-151.615
0
LINE
8
BLACK
6
CONTINUOUS
10
109.173
20
-151.615
11
109.173
21
-151.139
0
LINE
8
BLACK
6
CONTINUOUS
10
109.173
20
-151.139
11
109.268
21
-150.758
0
LINE
8
BLACK
6
CONTINUOUS
10
109.268
20
-150.758
11
109.364
21
-150.568
0
LINE
8
BLACK
6
CONTINUOUS
10
109.364
20
-150.568
11
109.459
21
-150.473
0
LINE
8
BLACK
6
CONTINUOUS
10
109.459
20
-150.473
11
109.649
21
-150.377
0
LINE
8
BLACK
6
CONTINUOUS
10
111.173
20
-152.377
11
111.173
21
-151.044
0
LINE
8
BLACK
6
CONTINUOUS
10
111.173
20
-151.234
11
111.268
21
-151.139
0
LINE
8
BLACK
6
CONTINUOUS
10
111.268
20
-151.139
11
111.459
21
-151.044
0
LINE
8
BLACK
6
CONTINUOUS
10
111.459
20
-151.044
11
111.745
21
-151.044
0
LINE
8
BLACK
6
CONTINUOUS
10
111.745
20
-151.044
11
111.935
21
-151.139
0
LINE
8
BLACK
6
CONTINUOUS
10
111.935
20
-151.139
11
112.03
21
-151.33
0
LINE
8
BLACK
6
CONTINUOUS
10
112.03
20
-151.33
11
112.03
21
-152.377
0
LINE
8
BLACK
6
CONTINUOUS
10
112.03
20
-151.33
11
112.126
21
-151.139
0
LINE
8
BLACK
6
CONTINUOUS
10
112.126
20
-151.139
11
112.316
21
-151.044
0
LINE
8
BLACK
6
CONTINUOUS
10
112.316
20
-151.044
11
112.602
21
-151.044
0
LINE
8
BLACK
6
CONTINUOUS
10
112.602
20
-151.044
11
112.792
21
-151.139
0
LINE
8
BLACK
6
CONTINUOUS
10
112.792
20
-151.139
11
112.887
21
-151.33
0
LINE
8
BLACK
6
CONTINUOUS
10
112.887
20
-151.33
11
112.887
21
-152.377
0
LINE
8
BLACK
6
CONTINUOUS
10
113.84
20
-152.377
11
113.84
21
-151.044
0
LINE
8
BLACK
6
CONTINUOUS
10
113.84
20
-151.234
11
113.935
21
-151.139
0
LINE
8
BLACK
6
CONTINUOUS
10
113.935
20
-151.139
11
114.126
21
-151.044
0
LINE
8
BLACK
6
CONTINUOUS
10
114.126
20
-151.044
11
114.411
21
-151.044
0
LINE
8
BLACK
6
CONTINUOUS
10
114.411
20
-151.044
11
114.602
21
-151.139
0
LINE
8
BLACK
6
CONTINUOUS
10
114.602
20
-151.139
11
114.697
21
-151.33
0
LINE
8
BLACK
6
CONTINUOUS
10
114.697
20
-151.33
11
114.697
21
-152.377
0
LINE
8
BLACK
6
CONTINUOUS
10
114.697
20
-151.33
11
114.792
21
-151.139
0
LINE
8
BLACK
6
CONTINUOUS
10
114.792
20
-151.139
11
114.983
21
-151.044
0
LINE
8
BLACK
6
CONTINUOUS
10
114.983
20
-151.044
11
115.268
21
-151.044
0
LINE
8
BLACK
6
CONTINUOUS
10
115.268
20
-151.044
11
115.459
21
-151.139
0
LINE
8
BLACK
6
CONTINUOUS
10
115.459
20
-151.139
11
115.554
21
-151.33
0
LINE
8
BLACK
6
CONTINUOUS
10
115.554
20
-151.33
11
115.554
21
-152.377
0
LINE
8
BLACK
6
CONTINUOUS
10
119.459
20
-150.282
11
117.745
21
-152.854
0
LINE
8
BLACK
6
CONTINUOUS
10
122.03
20
-150.377
11
122.221
21
-150.377
0
LINE
8
BLACK
6
CONTINUOUS
10
122.221
20
-150.377
11
122.411
21
-150.473
0
LINE
8
BLACK
6
CONTINUOUS
10
122.411
20
-150.473
11
122.506
21
-150.568
0
LINE
8
BLACK
6
CONTINUOUS
10
122.506
20
-150.568
11
122.602
21
-150.758
0
LINE
8
BLACK
6
CONTINUOUS
10
122.602
20
-150.758
11
122.697
21
-151.139
0
LINE
8
BLACK
6
CONTINUOUS
10
122.697
20
-151.139
11
122.697
21
-151.615
0
LINE
8
BLACK
6
CONTINUOUS
10
122.697
20
-151.615
11
122.602
21
-151.996
0
LINE
8
BLACK
6
CONTINUOUS
10
122.602
20
-151.996
11
122.506
21
-152.187
0
LINE
8
BLACK
6
CONTINUOUS
10
122.506
20
-152.187
11
122.411
21
-152.282
0
LINE
8
BLACK
6
CONTINUOUS
10
122.411
20
-152.282
11
122.221
21
-152.377
0
LINE
8
BLACK
6
CONTINUOUS
10
122.221
20
-152.377
11
122.03
21
-152.377
0
LINE
8
BLACK
6
CONTINUOUS
10
122.03
20
-152.377
11
121.84
21
-152.282
0
LINE
8
BLACK
6
CONTINUOUS
10
121.84
20
-152.282
11
121.745
21
-152.187
0
LINE
8
BLACK
6
CONTINUOUS
10
121.745
20
-152.187
11
121.649
21
-151.996
0
LINE
8
BLACK
6
CONTINUOUS
10
121.649
20
-151.996
11
121.554
21
-151.615
0
LINE
8
BLACK
6
CONTINUOUS
10
121.554
20
-151.615
11
121.554
21
-151.139
0
LINE
8
BLACK
6
CONTINUOUS
10
121.554
20
-151.139
11
121.649
21
-150.758
0
LINE
8
BLACK
6
CONTINUOUS
10
121.649
20
-150.758
11
121.745
21
-150.568
0
LINE
8
BLACK
6
CONTINUOUS
10
121.745
20
-150.568
11
121.84
21
-150.473
0
LINE
8
BLACK
6
CONTINUOUS
10
121.84
20
-150.473
11
122.03
21
-150.377
0
LINE
8
BLACK
6
CONTINUOUS
10
123.554
20
-152.187
11
123.649
21
-152.282
0
LINE
8
BLACK
6
CONTINUOUS
10
123.649
20
-152.282
11
123.554
21
-152.377
0
LINE
8
BLACK
6
CONTINUOUS
10
123.554
20
-152.377
11
123.459
21
-152.282
0
LINE
8
BLACK
6
CONTINUOUS
10
123.459
20
-152.282
11
123.554
21
-152.187
0
LINE
8
BLACK
6
CONTINUOUS
10
123.554
20
-152.187
11
123.554
21
-152.377
0
LINE
8
BLACK
6
CONTINUOUS
10
124.887
20
-150.377
11
125.078
21
-150.377
0
LINE
8
BLACK
6
CONTINUOUS
10
125.078
20
-150.377
11
125.268
21
-150.473
0
LINE
8
BLACK
6
CONTINUOUS
10
125.268
20
-150.473
11
125.364
21
-150.568
0
LINE
8
BLACK
6
CONTINUOUS
10
125.364
20
-150.568
11
125.459
21
-150.758
0
LINE
8
BLACK
6
CONTINUOUS
10
125.459
20
-150.758
11
125.554
21
-151.139
0
LINE
8
BLACK
6
CONTINUOUS
10
125.554
20
-151.139
11
125.554
21
-151.615
0
LINE
8
BLACK
6
CONTINUOUS
10
125.554
20
-151.615
11
125.459
21
-151.996
0
LINE
8
BLACK
6
CONTINUOUS
10
125.459
20
-151.996
11
125.364
21
-152.187
0
LINE
8
BLACK
6
CONTINUOUS
10
125.364
20
-152.187
11
125.268
21
-152.282
0
LINE
8
BLACK
6
CONTINUOUS
10
125.268
20
-152.282
11
125.078
21
-152.377
0
LINE
8
BLACK
6
CONTINUOUS
10
125.078
20
-152.377
11
124.887
21
-152.377
0
LINE
8
BLACK
6
CONTINUOUS
10
124.887
20
-152.377
11
124.697
21
-152.282
0
LINE
8
BLACK
6
CONTINUOUS
10
124.697
20
-152.282
11
124.602
21
-152.187
0
LINE
8
BLACK
6
CONTINUOUS
10
124.602
20
-152.187
11
124.506
21
-151.996
0
LINE
8
BLACK
6
CONTINUOUS
10
124.506
20
-151.996
11
124.411
21
-151.615
0
LINE
8
BLACK
6
CONTINUOUS
10
124.411
20
-151.615
11
124.411
21
-151.139
0
LINE
8
BLACK
6
CONTINUOUS
10
124.411
20
-151.139
11
124.506
21
-150.758
0
LINE
8
BLACK
6
CONTINUOUS
10
124.506
20
-150.758
11
124.602
21
-150.568
0
LINE
8
BLACK
6
CONTINUOUS
10
124.602
20
-150.568
11
124.697
21
-150.473
0
LINE
8
BLACK
6
CONTINUOUS
10
124.697
20
-150.473
11
124.887
21
-150.377
0
LINE
8
BLACK
6
CONTINUOUS
10
127.459
20
-152.377
11
126.316
21
-152.377
0
LINE
8
BLACK
6
CONTINUOUS
10
126.887
20
-152.377
11
126.887
21
-150.377
0
LINE
8
BLACK
6
CONTINUOUS
10
126.887
20
-150.377
11
126.697
21
-150.663
0
LINE
8
BLACK
6
CONTINUOUS
10
126.697
20
-150.663
11
126.506
21
-150.854
0
LINE
8
BLACK
6
CONTINUOUS
10
126.506
20
-150.854
11
126.316
21
-150.949
0
LINE
8
BLACK
6
CONTINUOUS
10
129.268
20
-150.377
11
128.316
21
-150.377
0
LINE
8
BLACK
6
CONTINUOUS
10
128.316
20
-150.377
11
128.221
21
-151.33
0
LINE
8
BLACK
6
CONTINUOUS
10
128.221
20
-151.33
11
128.316
21
-151.234
0
LINE
8
BLACK
6
CONTINUOUS
10
128.316
20
-151.234
11
128.506
21
-151.139
0
LINE
8
BLACK
6
CONTINUOUS
10
128.506
20
-151.139
11
128.983
21
-151.139
0
LINE
8
BLACK
6
CONTINUOUS
10
128.983
20
-151.139
11
129.173
21
-151.234
0
LINE
8
BLACK
6
CONTINUOUS
10
129.173
20
-151.234
11
129.268
21
-151.33
0
LINE
8
BLACK
6
CONTINUOUS
10
129.268
20
-151.33
11
129.364
21
-151.52
0
LINE
8
BLACK
6
CONTINUOUS
10
129.364
20
-151.52
11
129.364
21
-151.996
0
LINE
8
BLACK
6
CONTINUOUS
10
129.364
20
-151.996
11
129.268
21
-152.187
0
LINE
8
BLACK
6
CONTINUOUS
10
129.268
20
-152.187
11
129.173
21
-152.282
0
LINE
8
BLACK
6
CONTINUOUS
10
129.173
20
-152.282
11
128.983
21
-152.377
0
LINE
8
BLACK
6
CONTINUOUS
10
128.983
20
-152.377
11
128.506
21
-152.377
0
LINE
8
BLACK
6
CONTINUOUS
10
128.506
20
-152.377
11
128.316
21
-152.282
0
LINE
8
BLACK
6
CONTINUOUS
10
128.316
20
-152.282
11
128.221
21
-152.187
0
LINE
8
BLACK
6
CONTINUOUS
10
130.03
20
-150.377
11
131.364
21
-150.377
0
LINE
8
BLACK
6
CONTINUOUS
10
131.364
20
-150.377
11
130.506
21
-152.377
0
LINE
8
BLACK
6
CONTINUOUS
10
132.03
20
-150.377
11
132.03
21
-150.758
0
LINE
8
BLACK
6
CONTINUOUS
10
132.792
20
-150.377
11
132.792
21
-150.758
0
LINE
8
BLACK
6
CONTINUOUS
10
135.745
20
-153.139
11
135.649
21
-153.044
0
LINE
8
BLACK
6
CONTINUOUS
10
135.649
20
-153.044
11
135.459
21
-152.758
0
LINE
8
BLACK
6
CONTINUOUS
10
135.459
20
-152.758
11
135.364
21
-152.568
0
LINE
8
BLACK
6
CONTINUOUS
10
135.364
20
-152.568
11
135.268
21
-152.282
0
LINE
8
BLACK
6
CONTINUOUS
10
135.268
20
-152.282
11
135.173
21
-151.806
0
LINE
8
BLACK
6
CONTINUOUS
10
135.173
20
-151.806
11
135.173
21
-151.425
0
LINE
8
BLACK
6
CONTINUOUS
10
135.173
20
-151.425
11
135.268
21
-150.949
0
LINE
8
BLACK
6
CONTINUOUS
10
135.268
20
-150.949
11
135.364
21
-150.663
0
LINE
8
BLACK
6
CONTINUOUS
10
135.364
20
-150.663
11
135.459
21
-150.473
0
LINE
8
BLACK
6
CONTINUOUS
10
135.459
20
-150.473
11
135.649
21
-150.187
0
LINE
8
BLACK
6
CONTINUOUS
10
135.649
20
-150.187
11
135.745
21
-150.092
0
LINE
8
BLACK
6
CONTINUOUS
10
137.364
20
-151.044
11
137.364
21
-152.377
0
LINE
8
BLACK
6
CONTINUOUS
10
136.887
20
-150.282
11
136.411
21
-151.711
0
LINE
8
BLACK
6
CONTINUOUS
10
136.411
20
-151.711
11
137.649
21
-151.711
0
LINE
8
BLACK
6
CONTINUOUS
10
139.364
20
-150.377
11
138.411
21
-150.377
0
LINE
8
BLACK
6
CONTINUOUS
10
138.411
20
-150.377
11
138.316
21
-151.33
0
LINE
8
BLACK
6
CONTINUOUS
10
138.316
20
-151.33
11
138.411
21
-151.234
0
LINE
8
BLACK
6
CONTINUOUS
10
138.411
20
-151.234
11
138.602
21
-151.139
0
LINE
8
BLACK
6
CONTINUOUS
10
138.602
20
-151.139
11
139.078
21
-151.139
0
LINE
8
BLACK
6
CONTINUOUS
10
139.078
20
-151.139
11
139.268
21
-151.234
0
LINE
8
BLACK
6
CONTINUOUS
10
139.268
20
-151.234
11
139.364
21
-151.33
0
LINE
8
BLACK
6
CONTINUOUS
10
139.364
20
-151.33
11
139.459
21
-151.52
0
LINE
8
BLACK
6
CONTINUOUS
10
139.459
20
-151.52
11
139.459
21
-151.996
0
LINE
8
BLACK
6
CONTINUOUS
10
139.459
20
-151.996
11
139.364
21
-152.187
0
LINE
8
BLACK
6
CONTINUOUS
10
139.364
20
-152.187
11
139.268
21
-152.282
0
LINE
8
BLACK
6
CONTINUOUS
10
139.268
20
-152.282
11
139.078
21
-152.377
0
LINE
8
BLACK
6
CONTINUOUS
10
139.078
20
-152.377
11
138.602
21
-152.377
0
LINE
8
BLACK
6
CONTINUOUS
10
138.602
20
-152.377
11
138.411
21
-152.282
0
LINE
8
BLACK
6
CONTINUOUS
10
138.411
20
-152.282
11
138.316
21
-152.187
0
LINE
8
BLACK
6
CONTINUOUS
10
141.84
20
-152.377
11
141.84
21
-150.377
0
LINE
8
BLACK
6
CONTINUOUS
10
142.697
20
-152.377
11
142.697
21
-151.33
0
LINE
8
BLACK
6
CONTINUOUS
10
142.697
20
-151.33
11
142.602
21
-151.139
0
LINE
8
BLACK
6
CONTINUOUS
10
142.602
20
-151.139
11
142.411
21
-151.044
0
LINE
8
BLACK
6
CONTINUOUS
10
142.411
20
-151.044
11
142.126
21
-151.044
0
LINE
8
BLACK
6
CONTINUOUS
10
142.126
20
-151.044
11
141.935
21
-151.139
0
LINE
8
BLACK
6
CONTINUOUS
10
141.935
20
-151.139
11
141.84
21
-151.234
0
LINE
8
BLACK
6
CONTINUOUS
10
143.935
20
-152.377
11
143.745
21
-152.282
0
LINE
8
BLACK
6
CONTINUOUS
10
143.745
20
-152.282
11
143.649
21
-152.187
0
LINE
8
BLACK
6
CONTINUOUS
10
143.649
20
-152.187
11
143.554
21
-151.996
0
LINE
8
BLACK
6
CONTINUOUS
10
143.554
20
-151.996
11
143.554
21
-151.425
0
LINE
8
BLACK
6
CONTINUOUS
10
143.554
20
-151.425
11
143.649
21
-151.234
0
LINE
8
BLACK
6
CONTINUOUS
10
143.649
20
-151.234
11
143.745
21
-151.139
0
LINE
8
BLACK
6
CONTINUOUS
10
143.745
20
-151.139
11
143.935
21
-151.044
0
LINE
8
BLACK
6
CONTINUOUS
10
143.935
20
-151.044
11
144.221
21
-151.044
0
LINE
8
BLACK
6
CONTINUOUS
10
144.221
20
-151.044
11
144.411
21
-151.139
0
LINE
8
BLACK
6
CONTINUOUS
10
144.411
20
-151.139
11
144.506
21
-151.234
0
LINE
8
BLACK
6
CONTINUOUS
10
144.506
20
-151.234
11
144.602
21
-151.425
0
LINE
8
BLACK
6
CONTINUOUS
10
144.602
20
-151.425
11
144.602
21
-151.996
0
LINE
8
BLACK
6
CONTINUOUS
10
144.602
20
-151.996
11
144.506
21
-152.187
0
LINE
8
BLACK
6
CONTINUOUS
10
144.506
20
-152.187
11
144.411
21
-152.282
0
LINE
8
BLACK
6
CONTINUOUS
10
144.411
20
-152.282
11
144.221
21
-152.377
0
LINE
8
BLACK
6
CONTINUOUS
10
144.221
20
-152.377
11
143.935
21
-152.377
0
LINE
8
BLACK
6
CONTINUOUS
10
145.745
20
-152.377
11
145.554
21
-152.282
0
LINE
8
BLACK
6
CONTINUOUS
10
145.554
20
-152.282
11
145.459
21
-152.092
0
LINE
8
BLACK
6
CONTINUOUS
10
145.459
20
-152.092
11
145.459
21
-150.377
0
LINE
8
BLACK
6
CONTINUOUS
10
147.268
20
-152.282
11
147.078
21
-152.377
0
LINE
8
BLACK
6
CONTINUOUS
10
147.078
20
-152.377
11
146.697
21
-152.377
0
LINE
8
BLACK
6
CONTINUOUS
10
146.697
20
-152.377
11
146.506
21
-152.282
0
LINE
8
BLACK
6
CONTINUOUS
10
146.506
20
-152.282
11
146.411
21
-152.092
0
LINE
8
BLACK
6
CONTINUOUS
10
146.411
20
-152.092
11
146.411
21
-151.33
0
LINE
8
BLACK
6
CONTINUOUS
10
146.411
20
-151.33
11
146.506
21
-151.139
0
LINE
8
BLACK
6
CONTINUOUS
10
146.506
20
-151.139
11
146.697
21
-151.044
0
LINE
8
BLACK
6
CONTINUOUS
10
146.697
20
-151.044
11
147.078
21
-151.044
0
LINE
8
BLACK
6
CONTINUOUS
10
147.078
20
-151.044
11
147.268
21
-151.139
0
LINE
8
BLACK
6
CONTINUOUS
10
147.268
20
-151.139
11
147.364
21
-151.33
0
LINE
8
BLACK
6
CONTINUOUS
10
147.364
20
-151.33
11
147.364
21
-151.52
0
LINE
8
BLACK
6
CONTINUOUS
10
147.364
20
-151.52
11
146.411
21
-151.711
0
LINE
8
BLACK
6
CONTINUOUS
10
148.126
20
-152.282
11
148.316
21
-152.377
0
LINE
8
BLACK
6
CONTINUOUS
10
148.316
20
-152.377
11
148.697
21
-152.377
0
LINE
8
BLACK
6
CONTINUOUS
10
148.697
20
-152.377
11
148.887
21
-152.282
0
LINE
8
BLACK
6
CONTINUOUS
10
148.887
20
-152.282
11
148.983
21
-152.092
0
LINE
8
BLACK
6
CONTINUOUS
10
148.983
20
-152.092
11
148.983
21
-151.996
0
LINE
8
BLACK
6
CONTINUOUS
10
148.983
20
-151.996
11
148.887
21
-151.806
0
LINE
8
BLACK
6
CONTINUOUS
10
148.887
20
-151.806
11
148.697
21
-151.711
0
LINE
8
BLACK
6
CONTINUOUS
10
148.697
20
-151.711
11
148.411
21
-151.711
0
LINE
8
BLACK
6
CONTINUOUS
10
148.411
20
-151.711
11
148.221
21
-151.615
0
LINE
8
BLACK
6
CONTINUOUS
10
148.221
20
-151.615
11
148.126
21
-151.425
0
LINE
8
BLACK
6
CONTINUOUS
10
148.126
20
-151.425
11
148.126
21
-151.33
0
LINE
8
BLACK
6
CONTINUOUS
10
148.126
20
-151.33
11
148.221
21
-151.139
0
LINE
8
BLACK
6
CONTINUOUS
10
148.221
20
-151.139
11
148.411
21
-151.044
0
LINE
8
BLACK
6
CONTINUOUS
10
148.411
20
-151.044
11
148.697
21
-151.044
0
LINE
8
BLACK
6
CONTINUOUS
10
148.697
20
-151.044
11
148.887
21
-151.139
0
LINE
8
BLACK
6
CONTINUOUS
10
149.649
20
-153.139
11
149.745
21
-153.044
0
LINE
8
BLACK
6
CONTINUOUS
10
149.745
20
-153.044
11
149.935
21
-152.758
0
LINE
8
BLACK
6
CONTINUOUS
10
149.935
20
-152.758
11
150.03
21
-152.568
0
LINE
8
BLACK
6
CONTINUOUS
10
150.03
20
-152.568
11
150.126
21
-152.282
0
LINE
8
BLACK
6
CONTINUOUS
10
150.126
20
-152.282
11
150.221
21
-151.806
0
LINE
8
BLACK
6
CONTINUOUS
10
150.221
20
-151.806
11
150.221
21
-151.425
0
LINE
8
BLACK
6
CONTINUOUS
10
150.221
20
-151.425
11
150.126
21
-150.949
0
LINE
8
BLACK
6
CONTINUOUS
10
150.126
20
-150.949
11
150.03
21
-150.663
0
LINE
8
BLACK
6
CONTINUOUS
10
150.03
20
-150.663
11
149.935
21
-150.473
0
LINE
8
BLACK
6
CONTINUOUS
10
149.935
20
-150.473
11
149.745
21
-150.187
0
LINE
8
BLACK
6
CONTINUOUS
10
149.745
20
-150.187
11
149.649
21
-150.092
0
CIRCLE
8
BLACK
10
99.6255
20
-154.113
40
0.4
0
LINE
8
BLACK
6
CONTINUOUS
10
102.983
20
-153.017
11
103.173
21
-153.017
0
LINE
8
BLACK
6
CONTINUOUS
10
103.173
20
-153.017
11
103.364
21
-153.113
0
LINE
8
BLACK
6
CONTINUOUS
10
103.364
20
-153.113
11
103.459
21
-153.208
0
LINE
8
BLACK
6
CONTINUOUS
10
103.459
20
-153.208
11
103.554
21
-153.398
0
LINE
8
BLACK
6
CONTINUOUS
10
103.554
20
-153.398
11
103.649
21
-153.779
0
LINE
8
BLACK
6
CONTINUOUS
10
103.649
20
-153.779
11
103.649
21
-154.255
0
LINE
8
BLACK
6
CONTINUOUS
10
103.649
20
-154.255
11
103.554
21
-154.636
0
LINE
8
BLACK
6
CONTINUOUS
10
103.554
20
-154.636
11
103.459
21
-154.827
0
LINE
8
BLACK
6
CONTINUOUS
10
103.459
20
-154.827
11
103.364
21
-154.922
0
LINE
8
BLACK
6
CONTINUOUS
10
103.364
20
-154.922
11
103.173
21
-155.017
0
LINE
8
BLACK
6
CONTINUOUS
10
103.173
20
-155.017
11
102.983
21
-155.017
0
LINE
8
BLACK
6
CONTINUOUS
10
102.983
20
-155.017
11
102.792
21
-154.922
0
LINE
8
BLACK
6
CONTINUOUS
10
102.792
20
-154.922
11
102.697
21
-154.827
0
LINE
8
BLACK
6
CONTINUOUS
10
102.697
20
-154.827
11
102.602
21
-154.636
0
LINE
8
BLACK
6
CONTINUOUS
10
102.602
20
-154.636
11
102.506
21
-154.255
0
LINE
8
BLACK
6
CONTINUOUS
10
102.506
20
-154.255
11
102.506
21
-153.779
0
LINE
8
BLACK
6
CONTINUOUS
10
102.506
20
-153.779
11
102.602
21
-153.398
0
LINE
8
BLACK
6
CONTINUOUS
10
102.602
20
-153.398
11
102.697
21
-153.208
0
LINE
8
BLACK
6
CONTINUOUS
10
102.697
20
-153.208
11
102.792
21
-153.113
0
LINE
8
BLACK
6
CONTINUOUS
10
102.792
20
-153.113
11
102.983
21
-153.017
0
LINE
8
BLACK
6
CONTINUOUS
10
104.506
20
-154.827
11
104.602
21
-154.922
0
LINE
8
BLACK
6
CONTINUOUS
10
104.602
20
-154.922
11
104.506
21
-155.017
0
LINE
8
BLACK
6
CONTINUOUS
10
104.506
20
-155.017
11
104.411
21
-154.922
0
LINE
8
BLACK
6
CONTINUOUS
10
104.411
20
-154.922
11
104.506
21
-154.827
0
LINE
8
BLACK
6
CONTINUOUS
10
104.506
20
-154.827
11
104.506
21
-155.017
0
LINE
8
BLACK
6
CONTINUOUS
10
105.745
20
-153.874
11
105.554
21
-153.779
0
LINE
8
BLACK
6
CONTINUOUS
10
105.554
20
-153.779
11
105.459
21
-153.684
0
LINE
8
BLACK
6
CONTINUOUS
10
105.459
20
-153.684
11
105.364
21
-153.494
0
LINE
8
BLACK
6
CONTINUOUS
10
105.364
20
-153.494
11
105.364
21
-153.398
0
LINE
8
BLACK
6
CONTINUOUS
10
105.364
20
-153.398
11
105.459
21
-153.208
0
LINE
8
BLACK
6
CONTINUOUS
10
105.459
20
-153.208
11
105.554
21
-153.113
0
LINE
8
BLACK
6
CONTINUOUS
10
105.554
20
-153.113
11
105.745
21
-153.017
0
LINE
8
BLACK
6
CONTINUOUS
10
105.745
20
-153.017
11
106.126
21
-153.017
0
LINE
8
BLACK
6
CONTINUOUS
10
106.126
20
-153.017
11
106.316
21
-153.113
0
LINE
8
BLACK
6
CONTINUOUS
10
106.316
20
-153.113
11
106.411
21
-153.208
0
LINE
8
BLACK
6
CONTINUOUS
10
106.411
20
-153.208
11
106.506
21
-153.398
0
LINE
8
BLACK
6
CONTINUOUS
10
106.506
20
-153.398
11
106.506
21
-153.494
0
LINE
8
BLACK
6
CONTINUOUS
10
106.506
20
-153.494
11
106.411
21
-153.684
0
LINE
8
BLACK
6
CONTINUOUS
10
106.411
20
-153.684
11
106.316
21
-153.779
0
LINE
8
BLACK
6
CONTINUOUS
10
106.316
20
-153.779
11
106.126
21
-153.874
0
LINE
8
BLACK
6
CONTINUOUS
10
106.126
20
-153.874
11
105.745
21
-153.874
0
LINE
8
BLACK
6
CONTINUOUS
10
105.745
20
-153.874
11
105.554
21
-153.97
0
LINE
8
BLACK
6
CONTINUOUS
10
105.554
20
-153.97
11
105.459
21
-154.065
0
LINE
8
BLACK
6
CONTINUOUS
10
105.459
20
-154.065
11
105.364
21
-154.255
0
LINE
8
BLACK
6
CONTINUOUS
10
105.364
20
-154.255
11
105.364
21
-154.636
0
LINE
8
BLACK
6
CONTINUOUS
10
105.364
20
-154.636
11
105.459
21
-154.827
0
LINE
8
BLACK
6
CONTINUOUS
10
105.459
20
-154.827
11
105.554
21
-154.922
0
LINE
8
BLACK
6
CONTINUOUS
10
105.554
20
-154.922
11
105.745
21
-155.017
0
LINE
8
BLACK
6
CONTINUOUS
10
105.745
20
-155.017
11
106.126
21
-155.017
0
LINE
8
BLACK
6
CONTINUOUS
10
106.126
20
-155.017
11
106.316
21
-154.922
0
LINE
8
BLACK
6
CONTINUOUS
10
106.316
20
-154.922
11
106.411
21
-154.827
0
LINE
8
BLACK
6
CONTINUOUS
10
106.411
20
-154.827
11
106.506
21
-154.636
0
LINE
8
BLACK
6
CONTINUOUS
10
106.506
20
-154.636
11
106.506
21
-154.255
0
LINE
8
BLACK
6
CONTINUOUS
10
106.506
20
-154.255
11
106.411
21
-154.065
0
LINE
8
BLACK
6
CONTINUOUS
10
106.411
20
-154.065
11
106.316
21
-153.97
0
LINE
8
BLACK
6
CONTINUOUS
10
106.316
20
-153.97
11
106.126
21
-153.874
0
LINE
8
BLACK
6
CONTINUOUS
10
107.745
20
-153.017
11
107.935
21
-153.017
0
LINE
8
BLACK
6
CONTINUOUS
10
107.935
20
-153.017
11
108.126
21
-153.113
0
LINE
8
BLACK
6
CONTINUOUS
10
108.126
20
-153.113
11
108.221
21
-153.208
0
LINE
8
BLACK
6
CONTINUOUS
10
108.221
20
-153.208
11
108.316
21
-153.398
0
LINE
8
BLACK
6
CONTINUOUS
10
108.316
20
-153.398
11
108.411
21
-153.779
0
LINE
8
BLACK
6
CONTINUOUS
10
108.411
20
-153.779
11
108.411
21
-154.255
0
LINE
8
BLACK
6
CONTINUOUS
10
108.411
20
-154.255
11
108.316
21
-154.636
0
LINE
8
BLACK
6
CONTINUOUS
10
108.316
20
-154.636
11
108.221
21
-154.827
0
LINE
8
BLACK
6
CONTINUOUS
10
108.221
20
-154.827
11
108.126
21
-154.922
0
LINE
8
BLACK
6
CONTINUOUS
10
108.126
20
-154.922
11
107.935
21
-155.017
0
LINE
8
BLACK
6
CONTINUOUS
10
107.935
20
-155.017
11
107.745
21
-155.017
0
LINE
8
BLACK
6
CONTINUOUS
10
107.745
20
-155.017
11
107.554
21
-154.922
0
LINE
8
BLACK
6
CONTINUOUS
10
107.554
20
-154.922
11
107.459
21
-154.827
0
LINE
8
BLACK
6
CONTINUOUS
10
107.459
20
-154.827
11
107.364
21
-154.636
0
LINE
8
BLACK
6
CONTINUOUS
10
107.364
20
-154.636
11
107.268
21
-154.255
0
LINE
8
BLACK
6
CONTINUOUS
10
107.268
20
-154.255
11
107.268
21
-153.779
0
LINE
8
BLACK
6
CONTINUOUS
10
107.268
20
-153.779
11
107.364
21
-153.398
0
LINE
8
BLACK
6
CONTINUOUS
10
107.364
20
-153.398
11
107.459
21
-153.208
0
LINE
8
BLACK
6
CONTINUOUS
10
107.459
20
-153.208
11
107.554
21
-153.113
0
LINE
8
BLACK
6
CONTINUOUS
10
107.554
20
-153.113
11
107.745
21
-153.017
0
LINE
8
BLACK
6
CONTINUOUS
10
109.649
20
-153.017
11
109.84
21
-153.017
0
LINE
8
BLACK
6
CONTINUOUS
10
109.84
20
-153.017
11
110.03
21
-153.113
0
LINE
8
BLACK
6
CONTINUOUS
10
110.03
20
-153.113
11
110.126
21
-153.208
0
LINE
8
BLACK
6
CONTINUOUS
10
110.126
20
-153.208
11
110.221
21
-153.398
0
LINE
8
BLACK
6
CONTINUOUS
10
110.221
20
-153.398
11
110.316
21
-153.779
0
LINE
8
BLACK
6
CONTINUOUS
10
110.316
20
-153.779
11
110.316
21
-154.255
0
LINE
8
BLACK
6
CONTINUOUS
10
110.316
20
-154.255
11
110.221
21
-154.636
0
LINE
8
BLACK
6
CONTINUOUS
10
110.221
20
-154.636
11
110.126
21
-154.827
0
LINE
8
BLACK
6
CONTINUOUS
10
110.126
20
-154.827
11
110.03
21
-154.922
0
LINE
8
BLACK
6
CONTINUOUS
10
110.03
20
-154.922
11
109.84
21
-155.017
0
LINE
8
BLACK
6
CONTINUOUS
10
109.84
20
-155.017
11
109.649
21
-155.017
0
LINE
8
BLACK
6
CONTINUOUS
10
109.649
20
-155.017
11
109.459
21
-154.922
0
LINE
8
BLACK
6
CONTINUOUS
10
109.459
20
-154.922
11
109.364
21
-154.827
0
LINE
8
BLACK
6
CONTINUOUS
10
109.364
20
-154.827
11
109.268
21
-154.636
0
LINE
8
BLACK
6
CONTINUOUS
10
109.268
20
-154.636
11
109.173
21
-154.255
0
LINE
8
BLACK
6
CONTINUOUS
10
109.173
20
-154.255
11
109.173
21
-153.779
0
LINE
8
BLACK
6
CONTINUOUS
10
109.173
20
-153.779
11
109.268
21
-153.398
0
LINE
8
BLACK
6
CONTINUOUS
10
109.268
20
-153.398
11
109.364
21
-153.208
0
LINE
8
BLACK
6
CONTINUOUS
10
109.364
20
-153.208
11
109.459
21
-153.113
0
LINE
8
BLACK
6
CONTINUOUS
10
109.459
20
-153.113
11
109.649
21
-153.017
0
LINE
8
BLACK
6
CONTINUOUS
10
111.173
20
-155.017
11
111.173
21
-153.684
0
LINE
8
BLACK
6
CONTINUOUS
10
111.173
20
-153.874
11
111.268
21
-153.779
0
LINE
8
BLACK
6
CONTINUOUS
10
111.268
20
-153.779
11
111.459
21
-153.684
0
LINE
8
BLACK
6
CONTINUOUS
10
111.459
20
-153.684
11
111.745
21
-153.684
0
LINE
8
BLACK
6
CONTINUOUS
10
111.745
20
-153.684
11
111.935
21
-153.779
0
LINE
8
BLACK
6
CONTINUOUS
10
111.935
20
-153.779
11
112.03
21
-153.97
0
LINE
8
BLACK
6
CONTINUOUS
10
112.03
20
-153.97
11
112.03
21
-155.017
0
LINE
8
BLACK
6
CONTINUOUS
10
112.03
20
-153.97
11
112.126
21
-153.779
0
LINE
8
BLACK
6
CONTINUOUS
10
112.126
20
-153.779
11
112.316
21
-153.684
0
LINE
8
BLACK
6
CONTINUOUS
10
112.316
20
-153.684
11
112.602
21
-153.684
0
LINE
8
BLACK
6
CONTINUOUS
10
112.602
20
-153.684
11
112.792
21
-153.779
0
LINE
8
BLACK
6
CONTINUOUS
10
112.792
20
-153.779
11
112.887
21
-153.97
0
LINE
8
BLACK
6
CONTINUOUS
10
112.887
20
-153.97
11
112.887
21
-155.017
0
LINE
8
BLACK
6
CONTINUOUS
10
113.84
20
-155.017
11
113.84
21
-153.684
0
LINE
8
BLACK
6
CONTINUOUS
10
113.84
20
-153.874
11
113.935
21
-153.779
0
LINE
8
BLACK
6
CONTINUOUS
10
113.935
20
-153.779
11
114.126
21
-153.684
0
LINE
8
BLACK
6
CONTINUOUS
10
114.126
20
-153.684
11
114.411
21
-153.684
0
LINE
8
BLACK
6
CONTINUOUS
10
114.411
20
-153.684
11
114.602
21
-153.779
0
LINE
8
BLACK
6
CONTINUOUS
10
114.602
20
-153.779
11
114.697
21
-153.97
0
LINE
8
BLACK
6
CONTINUOUS
10
114.697
20
-153.97
11
114.697
21
-155.017
0
LINE
8
BLACK
6
CONTINUOUS
10
114.697
20
-153.97
11
114.792
21
-153.779
0
LINE
8
BLACK
6
CONTINUOUS
10
114.792
20
-153.779
11
114.983
21
-153.684
0
LINE
8
BLACK
6
CONTINUOUS
10
114.983
20
-153.684
11
115.268
21
-153.684
0
LINE
8
BLACK
6
CONTINUOUS
10
115.268
20
-153.684
11
115.459
21
-153.779
0
LINE
8
BLACK
6
CONTINUOUS
10
115.459
20
-153.779
11
115.554
21
-153.97
0
LINE
8
BLACK
6
CONTINUOUS
10
115.554
20
-153.97
11
115.554
21
-155.017
0
LINE
8
BLACK
6
CONTINUOUS
10
119.459
20
-152.922
11
117.745
21
-155.494
0
LINE
8
BLACK
6
CONTINUOUS
10
122.03
20
-153.017
11
122.221
21
-153.017
0
LINE
8
BLACK
6
CONTINUOUS
10
122.221
20
-153.017
11
122.411
21
-153.113
0
LINE
8
BLACK
6
CONTINUOUS
10
122.411
20
-153.113
11
122.506
21
-153.208
0
LINE
8
BLACK
6
CONTINUOUS
10
122.506
20
-153.208
11
122.602
21
-153.398
0
LINE
8
BLACK
6
CONTINUOUS
10
122.602
20
-153.398
11
122.697
21
-153.779
0
LINE
8
BLACK
6
CONTINUOUS
10
122.697
20
-153.779
11
122.697
21
-154.255
0
LINE
8
BLACK
6
CONTINUOUS
10
122.697
20
-154.255
11
122.602
21
-154.636
0
LINE
8
BLACK
6
CONTINUOUS
10
122.602
20
-154.636
11
122.506
21
-154.827
0
LINE
8
BLACK
6
CONTINUOUS
10
122.506
20
-154.827
11
122.411
21
-154.922
0
LINE
8
BLACK
6
CONTINUOUS
10
122.411
20
-154.922
11
122.221
21
-155.017
0
LINE
8
BLACK
6
CONTINUOUS
10
122.221
20
-155.017
11
122.03
21
-155.017
0
LINE
8
BLACK
6
CONTINUOUS
10
122.03
20
-155.017
11
121.84
21
-154.922
0
LINE
8
BLACK
6
CONTINUOUS
10
121.84
20
-154.922
11
121.745
21
-154.827
0
LINE
8
BLACK
6
CONTINUOUS
10
121.745
20
-154.827
11
121.649
21
-154.636
0
LINE
8
BLACK
6
CONTINUOUS
10
121.649
20
-154.636
11
121.554
21
-154.255
0
LINE
8
BLACK
6
CONTINUOUS
10
121.554
20
-154.255
11
121.554
21
-153.779
0
LINE
8
BLACK
6
CONTINUOUS
10
121.554
20
-153.779
11
121.649
21
-153.398
0
LINE
8
BLACK
6
CONTINUOUS
10
121.649
20
-153.398
11
121.745
21
-153.208
0
LINE
8
BLACK
6
CONTINUOUS
10
121.745
20
-153.208
11
121.84
21
-153.113
0
LINE
8
BLACK
6
CONTINUOUS
10
121.84
20
-153.113
11
122.03
21
-153.017
0
LINE
8
BLACK
6
CONTINUOUS
10
123.554
20
-154.827
11
123.649
21
-154.922
0
LINE
8
BLACK
6
CONTINUOUS
10
123.649
20
-154.922
11
123.554
21
-155.017
0
LINE
8
BLACK
6
CONTINUOUS
10
123.554
20
-155.017
11
123.459
21
-154.922
0
LINE
8
BLACK
6
CONTINUOUS
10
123.459
20
-154.922
11
123.554
21
-154.827
0
LINE
8
BLACK
6
CONTINUOUS
10
123.554
20
-154.827
11
123.554
21
-155.017
0
LINE
8
BLACK
6
CONTINUOUS
10
124.887
20
-153.017
11
125.078
21
-153.017
0
LINE
8
BLACK
6
CONTINUOUS
10
125.078
20
-153.017
11
125.268
21
-153.113
0
LINE
8
BLACK
6
CONTINUOUS
10
125.268
20
-153.113
11
125.364
21
-153.208
0
LINE
8
BLACK
6
CONTINUOUS
10
125.364
20
-153.208
11
125.459
21
-153.398
0
LINE
8
BLACK
6
CONTINUOUS
10
125.459
20
-153.398
11
125.554
21
-153.779
0
LINE
8
BLACK
6
CONTINUOUS
10
125.554
20
-153.779
11
125.554
21
-154.255
0
LINE
8
BLACK
6
CONTINUOUS
10
125.554
20
-154.255
11
125.459
21
-154.636
0
LINE
8
BLACK
6
CONTINUOUS
10
125.459
20
-154.636
11
125.364
21
-154.827
0
LINE
8
BLACK
6
CONTINUOUS
10
125.364
20
-154.827
11
125.268
21
-154.922
0
LINE
8
BLACK
6
CONTINUOUS
10
125.268
20
-154.922
11
125.078
21
-155.017
0
LINE
8
BLACK
6
CONTINUOUS
10
125.078
20
-155.017
11
124.887
21
-155.017
0
LINE
8
BLACK
6
CONTINUOUS
10
124.887
20
-155.017
11
124.697
21
-154.922
0
LINE
8
BLACK
6
CONTINUOUS
10
124.697
20
-154.922
11
124.602
21
-154.827
0
LINE
8
BLACK
6
CONTINUOUS
10
124.602
20
-154.827
11
124.506
21
-154.636
0
LINE
8
BLACK
6
CONTINUOUS
10
124.506
20
-154.636
11
124.411
21
-154.255
0
LINE
8
BLACK
6
CONTINUOUS
10
124.411
20
-154.255
11
124.411
21
-153.779
0
LINE
8
BLACK
6
CONTINUOUS
10
124.411
20
-153.779
11
124.506
21
-153.398
0
LINE
8
BLACK
6
CONTINUOUS
10
124.506
20
-153.398
11
124.602
21
-153.208
0
LINE
8
BLACK
6
CONTINUOUS
10
124.602
20
-153.208
11
124.697
21
-153.113
0
LINE
8
BLACK
6
CONTINUOUS
10
124.697
20
-153.113
11
124.887
21
-153.017
0
LINE
8
BLACK
6
CONTINUOUS
10
126.221
20
-153.017
11
127.459
21
-153.017
0
LINE
8
BLACK
6
CONTINUOUS
10
127.459
20
-153.017
11
126.792
21
-153.779
0
LINE
8
BLACK
6
CONTINUOUS
10
126.792
20
-153.779
11
127.078
21
-153.779
0
LINE
8
BLACK
6
CONTINUOUS
10
127.078
20
-153.779
11
127.268
21
-153.874
0
LINE
8
BLACK
6
CONTINUOUS
10
127.268
20
-153.874
11
127.364
21
-153.97
0
LINE
8
BLACK
6
CONTINUOUS
10
127.364
20
-153.97
11
127.459
21
-154.16
0
LINE
8
BLACK
6
CONTINUOUS
10
127.459
20
-154.16
11
127.459
21
-154.636
0
LINE
8
BLACK
6
CONTINUOUS
10
127.459
20
-154.636
11
127.364
21
-154.827
0
LINE
8
BLACK
6
CONTINUOUS
10
127.364
20
-154.827
11
127.268
21
-154.922
0
LINE
8
BLACK
6
CONTINUOUS
10
127.268
20
-154.922
11
127.078
21
-155.017
0
LINE
8
BLACK
6
CONTINUOUS
10
127.078
20
-155.017
11
126.506
21
-155.017
0
LINE
8
BLACK
6
CONTINUOUS
10
126.506
20
-155.017
11
126.316
21
-154.922
0
LINE
8
BLACK
6
CONTINUOUS
10
126.316
20
-154.922
11
126.221
21
-154.827
0
LINE
8
BLACK
6
CONTINUOUS
10
129.364
20
-155.017
11
128.221
21
-155.017
0
LINE
8
BLACK
6
CONTINUOUS
10
128.792
20
-155.017
11
128.792
21
-153.017
0
LINE
8
BLACK
6
CONTINUOUS
10
128.792
20
-153.017
11
128.602
21
-153.303
0
LINE
8
BLACK
6
CONTINUOUS
10
128.602
20
-153.303
11
128.411
21
-153.494
0
LINE
8
BLACK
6
CONTINUOUS
10
128.411
20
-153.494
11
128.221
21
-153.589
0
LINE
8
BLACK
6
CONTINUOUS
10
131.173
20
-153.017
11
130.221
21
-153.017
0
LINE
8
BLACK
6
CONTINUOUS
10
130.221
20
-153.017
11
130.126
21
-153.97
0
LINE
8
BLACK
6
CONTINUOUS
10
130.126
20
-153.97
11
130.221
21
-153.874
0
LINE
8
BLACK
6
CONTINUOUS
10
130.221
20
-153.874
11
130.411
21
-153.779
0
LINE
8
BLACK
6
CONTINUOUS
10
130.411
20
-153.779
11
130.887
21
-153.779
0
LINE
8
BLACK
6
CONTINUOUS
10
130.887
20
-153.779
11
131.078
21
-153.874
0
LINE
8
BLACK
6
CONTINUOUS
10
131.078
20
-153.874
11
131.173
21
-153.97
0
LINE
8
BLACK
6
CONTINUOUS
10
131.173
20
-153.97
11
131.268
21
-154.16
0
LINE
8
BLACK
6
CONTINUOUS
10
131.268
20
-154.16
11
131.268
21
-154.636
0
LINE
8
BLACK
6
CONTINUOUS
10
131.268
20
-154.636
11
131.173
21
-154.827
0
LINE
8
BLACK
6
CONTINUOUS
10
131.173
20
-154.827
11
131.078
21
-154.922
0
LINE
8
BLACK
6
CONTINUOUS
10
131.078
20
-154.922
11
130.887
21
-155.017
0
LINE
8
BLACK
6
CONTINUOUS
10
130.887
20
-155.017
11
130.411
21
-155.017
0
LINE
8
BLACK
6
CONTINUOUS
10
130.411
20
-155.017
11
130.221
21
-154.922
0
LINE
8
BLACK
6
CONTINUOUS
10
130.221
20
-154.922
11
130.126
21
-154.827
0
LINE
8
BLACK
6
CONTINUOUS
10
132.03
20
-153.017
11
132.03
21
-153.398
0
LINE
8
BLACK
6
CONTINUOUS
10
132.792
20
-153.017
11
132.792
21
-153.398
0
LINE
8
BLACK
6
CONTINUOUS
10
135.745
20
-155.779
11
135.649
21
-155.684
0
LINE
8
BLACK
6
CONTINUOUS
10
135.649
20
-155.684
11
135.459
21
-155.398
0
LINE
8
BLACK
6
CONTINUOUS
10
135.459
20
-155.398
11
135.364
21
-155.208
0
LINE
8
BLACK
6
CONTINUOUS
10
135.364
20
-155.208
11
135.268
21
-154.922
0
LINE
8
BLACK
6
CONTINUOUS
10
135.268
20
-154.922
11
135.173
21
-154.446
0
LINE
8
BLACK
6
CONTINUOUS
10
135.173
20
-154.446
11
135.173
21
-154.065
0
LINE
8
BLACK
6
CONTINUOUS
10
135.173
20
-154.065
11
135.268
21
-153.589
0
LINE
8
BLACK
6
CONTINUOUS
10
135.268
20
-153.589
11
135.364
21
-153.303
0
LINE
8
BLACK
6
CONTINUOUS
10
135.364
20
-153.303
11
135.459
21
-153.113
0
LINE
8
BLACK
6
CONTINUOUS
10
135.459
20
-153.113
11
135.649
21
-152.827
0
LINE
8
BLACK
6
CONTINUOUS
10
135.649
20
-152.827
11
135.745
21
-152.732
0
LINE
8
BLACK
6
CONTINUOUS
10
136.316
20
-153.017
11
137.554
21
-153.017
0
LINE
8
BLACK
6
CONTINUOUS
10
137.554
20
-153.017
11
136.887
21
-153.779
0
LINE
8
BLACK
6
CONTINUOUS
10
136.887
20
-153.779
11
137.173
21
-153.779
0
LINE
8
BLACK
6
CONTINUOUS
10
137.173
20
-153.779
11
137.364
21
-153.874
0
LINE
8
BLACK
6
CONTINUOUS
10
137.364
20
-153.874
11
137.459
21
-153.97
0
LINE
8
BLACK
6
CONTINUOUS
10
137.459
20
-153.97
11
137.554
21
-154.16
0
LINE
8
BLACK
6
CONTINUOUS
10
137.554
20
-154.16
11
137.554
21
-154.636
0
LINE
8
BLACK
6
CONTINUOUS
10
137.554
20
-154.636
11
137.459
21
-154.827
0
LINE
8
BLACK
6
CONTINUOUS
10
137.459
20
-154.827
11
137.364
21
-154.922
0
LINE
8
BLACK
6
CONTINUOUS
10
137.364
20
-154.922
11
137.173
21
-155.017
0
LINE
8
BLACK
6
CONTINUOUS
10
137.173
20
-155.017
11
136.602
21
-155.017
0
LINE
8
BLACK
6
CONTINUOUS
10
136.602
20
-155.017
11
136.411
21
-154.922
0
LINE
8
BLACK
6
CONTINUOUS
10
136.411
20
-154.922
11
136.316
21
-154.827
0
LINE
8
BLACK
6
CONTINUOUS
10
138.221
20
-153.017
11
139.459
21
-153.017
0
LINE
8
BLACK
6
CONTINUOUS
10
139.459
20
-153.017
11
138.792
21
-153.779
0
LINE
8
BLACK
6
CONTINUOUS
10
138.792
20
-153.779
11
139.078
21
-153.779
0
LINE
8
BLACK
6
CONTINUOUS
10
139.078
20
-153.779
11
139.268
21
-153.874
0
LINE
8
BLACK
6
CONTINUOUS
10
139.268
20
-153.874
11
139.364
21
-153.97
0
LINE
8
BLACK
6
CONTINUOUS
10
139.364
20
-153.97
11
139.459
21
-154.16
0
LINE
8
BLACK
6
CONTINUOUS
10
139.459
20
-154.16
11
139.459
21
-154.636
0
LINE
8
BLACK
6
CONTINUOUS
10
139.459
20
-154.636
11
139.364
21
-154.827
0
LINE
8
BLACK
6
CONTINUOUS
10
139.364
20
-154.827
11
139.268
21
-154.922
0
LINE
8
BLACK
6
CONTINUOUS
10
139.268
20
-154.922
11
139.078
21
-155.017
0
LINE
8
BLACK
6
CONTINUOUS
10
139.078
20
-155.017
11
138.506
21
-155.017
0
LINE
8
BLACK
6
CONTINUOUS
10
138.506
20
-155.017
11
138.316
21
-154.922
0
LINE
8
BLACK
6
CONTINUOUS
10
138.316
20
-154.922
11
138.221
21
-154.827
0
LINE
8
BLACK
6
CONTINUOUS
10
141.84
20
-155.017
11
141.84
21
-153.017
0
LINE
8
BLACK
6
CONTINUOUS
10
142.697
20
-155.017
11
142.697
21
-153.97
0
LINE
8
BLACK
6
CONTINUOUS
10
142.697
20
-153.97
11
142.602
21
-153.779
0
LINE
8
BLACK
6
CONTINUOUS
10
142.602
20
-153.779
11
142.411
21
-153.684
0
LINE
8
BLACK
6
CONTINUOUS
10
142.411
20
-153.684
11
142.126
21
-153.684
0
LINE
8
BLACK
6
CONTINUOUS
10
142.126
20
-153.684
11
141.935
21
-153.779
0
LINE
8
BLACK
6
CONTINUOUS
10
141.935
20
-153.779
11
141.84
21
-153.874
0
LINE
8
BLACK
6
CONTINUOUS
10
143.935
20
-155.017
11
143.745
21
-154.922
0
LINE
8
BLACK
6
CONTINUOUS
10
143.745
20
-154.922
11
143.649
21
-154.827
0
LINE
8
BLACK
6
CONTINUOUS
10
143.649
20
-154.827
11
143.554
21
-154.636
0
LINE
8
BLACK
6
CONTINUOUS
10
143.554
20
-154.636
11
143.554
21
-154.065
0
LINE
8
BLACK
6
CONTINUOUS
10
143.554
20
-154.065
11
143.649
21
-153.874
0
LINE
8
BLACK
6
CONTINUOUS
10
143.649
20
-153.874
11
143.745
21
-153.779
0
LINE
8
BLACK
6
CONTINUOUS
10
143.745
20
-153.779
11
143.935
21
-153.684
0
LINE
8
BLACK
6
CONTINUOUS
10
143.935
20
-153.684
11
144.221
21
-153.684
0
LINE
8
BLACK
6
CONTINUOUS
10
144.221
20
-153.684
11
144.411
21
-153.779
0
LINE
8
BLACK
6
CONTINUOUS
10
144.411
20
-153.779
11
144.506
21
-153.874
0
LINE
8
BLACK
6
CONTINUOUS
10
144.506
20
-153.874
11
144.602
21
-154.065
0
LINE
8
BLACK
6
CONTINUOUS
10
144.602
20
-154.065
11
144.602
21
-154.636
0
LINE
8
BLACK
6
CONTINUOUS
10
144.602
20
-154.636
11
144.506
21
-154.827
0
LINE
8
BLACK
6
CONTINUOUS
10
144.506
20
-154.827
11
144.411
21
-154.922
0
LINE
8
BLACK
6
CONTINUOUS
10
144.411
20
-154.922
11
144.221
21
-155.017
0
LINE
8
BLACK
6
CONTINUOUS
10
144.221
20
-155.017
11
143.935
21
-155.017
0
LINE
8
BLACK
6
CONTINUOUS
10
145.745
20
-155.017
11
145.554
21
-154.922
0
LINE
8
BLACK
6
CONTINUOUS
10
145.554
20
-154.922
11
145.459
21
-154.732
0
LINE
8
BLACK
6
CONTINUOUS
10
145.459
20
-154.732
11
145.459
21
-153.017
0
LINE
8
BLACK
6
CONTINUOUS
10
147.268
20
-154.922
11
147.078
21
-155.017
0
LINE
8
BLACK
6
CONTINUOUS
10
147.078
20
-155.017
11
146.697
21
-155.017
0
LINE
8
BLACK
6
CONTINUOUS
10
146.697
20
-155.017
11
146.506
21
-154.922
0
LINE
8
BLACK
6
CONTINUOUS
10
146.506
20
-154.922
11
146.411
21
-154.732
0
LINE
8
BLACK
6
CONTINUOUS
10
146.411
20
-154.732
11
146.411
21
-153.97
0
LINE
8
BLACK
6
CONTINUOUS
10
146.411
20
-153.97
11
146.506
21
-153.779
0
LINE
8
BLACK
6
CONTINUOUS
10
146.506
20
-153.779
11
146.697
21
-153.684
0
LINE
8
BLACK
6
CONTINUOUS
10
146.697
20
-153.684
11
147.078
21
-153.684
0
LINE
8
BLACK
6
CONTINUOUS
10
147.078
20
-153.684
11
147.268
21
-153.779
0
LINE
8
BLACK
6
CONTINUOUS
10
147.268
20
-153.779
11
147.364
21
-153.97
0
LINE
8
BLACK
6
CONTINUOUS
10
147.364
20
-153.97
11
147.364
21
-154.16
0
LINE
8
BLACK
6
CONTINUOUS
10
147.364
20
-154.16
11
146.411
21
-154.351
0
LINE
8
BLACK
6
CONTINUOUS
10
148.126
20
-154.922
11
148.316
21
-155.017
0
LINE
8
BLACK
6
CONTINUOUS
10
148.316
20
-155.017
11
148.697
21
-155.017
0
LINE
8
BLACK
6
CONTINUOUS
10
148.697
20
-155.017
11
148.887
21
-154.922
0
LINE
8
BLACK
6
CONTINUOUS
10
148.887
20
-154.922
11
148.983
21
-154.732
0
LINE
8
BLACK
6
CONTINUOUS
10
148.983
20
-154.732
11
148.983
21
-154.636
0
LINE
8
BLACK
6
CONTINUOUS
10
148.983
20
-154.636
11
148.887
21
-154.446
0
LINE
8
BLACK
6
CONTINUOUS
10
148.887
20
-154.446
11
148.697
21
-154.351
0
LINE
8
BLACK
6
CONTINUOUS
10
148.697
20
-154.351
11
148.411
21
-154.351
0
LINE
8
BLACK
6
CONTINUOUS
10
148.411
20
-154.351
11
148.221
21
-154.255
0
LINE
8
BLACK
6
CONTINUOUS
10
148.221
20
-154.255
11
148.126
21
-154.065
0
LINE
8
BLACK
6
CONTINUOUS
10
148.126
20
-154.065
11
148.126
21
-153.97
0
LINE
8
BLACK
6
CONTINUOUS
10
148.126
20
-153.97
11
148.221
21
-153.779
0
LINE
8
BLACK
6
CONTINUOUS
10
148.221
20
-153.779
11
148.411
21
-153.684
0
LINE
8
BLACK
6
CONTINUOUS
10
148.411
20
-153.684
11
148.697
21
-153.684
0
LINE
8
BLACK
6
CONTINUOUS
10
148.697
20
-153.684
11
148.887
21
-153.779
0
LINE
8
BLACK
6
CONTINUOUS
10
149.649
20
-155.779
11
149.745
21
-155.684
0
LINE
8
BLACK
6
CONTINUOUS
10
149.745
20
-155.684
11
149.935
21
-155.398
0
LINE
8
BLACK
6
CONTINUOUS
10
149.935
20
-155.398
11
150.03
21
-155.208
0
LINE
8
BLACK
6
CONTINUOUS
10
150.03
20
-155.208
11
150.126
21
-154.922
0
LINE
8
BLACK
6
CONTINUOUS
10
150.126
20
-154.922
11
150.221
21
-154.446
0
LINE
8
BLACK
6
CONTINUOUS
10
150.221
20
-154.446
11
150.221
21
-154.065
0
LINE
8
BLACK
6
CONTINUOUS
10
150.221
20
-154.065
11
150.126
21
-153.589
0
LINE
8
BLACK
6
CONTINUOUS
10
150.126
20
-153.589
11
150.03
21
-153.303
0
LINE
8
BLACK
6
CONTINUOUS
10
150.03
20
-153.303
11
149.935
21
-153.113
0
LINE
8
BLACK
6
CONTINUOUS
10
149.935
20
-153.113
11
149.745
21
-152.827
0
LINE
8
BLACK
6
CONTINUOUS
10
149.745
20
-152.827
11
149.649
21
-152.732
0
LINE
8
BLACK
6
CONTINUOUS
10
99.5755
20
-156.303
11
99.5755
21
-157.203
0
LINE
8
BLACK
6
CONTINUOUS
10
99.1255
20
-156.753
11
100.026
21
-156.753
0
LINE
8
BLACK
6
CONTINUOUS
10
102.983
20
-155.657
11
103.173
21
-155.657
0
LINE
8
BLACK
6
CONTINUOUS
10
103.173
20
-155.657
11
103.364
21
-155.753
0
LINE
8
BLACK
6
CONTINUOUS
10
103.364
20
-155.753
11
103.459
21
-155.848
0
LINE
8
BLACK
6
CONTINUOUS
10
103.459
20
-155.848
11
103.554
21
-156.038
0
LINE
8
BLACK
6
CONTINUOUS
10
103.554
20
-156.038
11
103.649
21
-156.419
0
LINE
8
BLACK
6
CONTINUOUS
10
103.649
20
-156.419
11
103.649
21
-156.895
0
LINE
8
BLACK
6
CONTINUOUS
10
103.649
20
-156.895
11
103.554
21
-157.276
0
LINE
8
BLACK
6
CONTINUOUS
10
103.554
20
-157.276
11
103.459
21
-157.467
0
LINE
8
BLACK
6
CONTINUOUS
10
103.459
20
-157.467
11
103.364
21
-157.562
0
LINE
8
BLACK
6
CONTINUOUS
10
103.364
20
-157.562
11
103.173
21
-157.657
0
LINE
8
BLACK
6
CONTINUOUS
10
103.173
20
-157.657
11
102.983
21
-157.657
0
LINE
8
BLACK
6
CONTINUOUS
10
102.983
20
-157.657
11
102.792
21
-157.562
0
LINE
8
BLACK
6
CONTINUOUS
10
102.792
20
-157.562
11
102.697
21
-157.467
0
LINE
8
BLACK
6
CONTINUOUS
10
102.697
20
-157.467
11
102.602
21
-157.276
0
LINE
8
BLACK
6
CONTINUOUS
10
102.602
20
-157.276
11
102.506
21
-156.895
0
LINE
8
BLACK
6
CONTINUOUS
10
102.506
20
-156.895
11
102.506
21
-156.419
0
LINE
8
BLACK
6
CONTINUOUS
10
102.506
20
-156.419
11
102.602
21
-156.038
0
LINE
8
BLACK
6
CONTINUOUS
10
102.602
20
-156.038
11
102.697
21
-155.848
0
LINE
8
BLACK
6
CONTINUOUS
10
102.697
20
-155.848
11
102.792
21
-155.753
0
LINE
8
BLACK
6
CONTINUOUS
10
102.792
20
-155.753
11
102.983
21
-155.657
0
LINE
8
BLACK
6
CONTINUOUS
10
104.506
20
-157.467
11
104.602
21
-157.562
0
LINE
8
BLACK
6
CONTINUOUS
10
104.602
20
-157.562
11
104.506
21
-157.657
0
LINE
8
BLACK
6
CONTINUOUS
10
104.506
20
-157.657
11
104.411
21
-157.562
0
LINE
8
BLACK
6
CONTINUOUS
10
104.411
20
-157.562
11
104.506
21
-157.467
0
LINE
8
BLACK
6
CONTINUOUS
10
104.506
20
-157.467
11
104.506
21
-157.657
0
LINE
8
BLACK
6
CONTINUOUS
10
105.554
20
-157.657
11
105.935
21
-157.657
0
LINE
8
BLACK
6
CONTINUOUS
10
105.935
20
-157.657
11
106.126
21
-157.562
0
LINE
8
BLACK
6
CONTINUOUS
10
106.126
20
-157.562
11
106.221
21
-157.467
0
LINE
8
BLACK
6
CONTINUOUS
10
106.221
20
-157.467
11
106.411
21
-157.181
0
LINE
8
BLACK
6
CONTINUOUS
10
106.411
20
-157.181
11
106.506
21
-156.8
0
LINE
8
BLACK
6
CONTINUOUS
10
106.506
20
-156.8
11
106.506
21
-156.038
0
LINE
8
BLACK
6
CONTINUOUS
10
106.506
20
-156.038
11
106.411
21
-155.848
0
LINE
8
BLACK
6
CONTINUOUS
10
106.411
20
-155.848
11
106.316
21
-155.753
0
LINE
8
BLACK
6
CONTINUOUS
10
106.316
20
-155.753
11
106.126
21
-155.657
0
LINE
8
BLACK
6
CONTINUOUS
10
106.126
20
-155.657
11
105.745
21
-155.657
0
LINE
8
BLACK
6
CONTINUOUS
10
105.745
20
-155.657
11
105.554
21
-155.753
0
LINE
8
BLACK
6
CONTINUOUS
10
105.554
20
-155.753
11
105.459
21
-155.848
0
LINE
8
BLACK
6
CONTINUOUS
10
105.459
20
-155.848
11
105.364
21
-156.038
0
LINE
8
BLACK
6
CONTINUOUS
10
105.364
20
-156.038
11
105.364
21
-156.514
0
LINE
8
BLACK
6
CONTINUOUS
10
105.364
20
-156.514
11
105.459
21
-156.705
0
LINE
8
BLACK
6
CONTINUOUS
10
105.459
20
-156.705
11
105.554
21
-156.8
0
LINE
8
BLACK
6
CONTINUOUS
10
105.554
20
-156.8
11
105.745
21
-156.895
0
LINE
8
BLACK
6
CONTINUOUS
10
105.745
20
-156.895
11
106.126
21
-156.895
0
LINE
8
BLACK
6
CONTINUOUS
10
106.126
20
-156.895
11
106.316
21
-156.8
0
LINE
8
BLACK
6
CONTINUOUS
10
106.316
20
-156.8
11
106.411
21
-156.705
0
LINE
8
BLACK
6
CONTINUOUS
10
106.411
20
-156.705
11
106.506
21
-156.514
0
LINE
8
BLACK
6
CONTINUOUS
10
107.745
20
-155.657
11
107.935
21
-155.657
0
LINE
8
BLACK
6
CONTINUOUS
10
107.935
20
-155.657
11
108.126
21
-155.753
0
LINE
8
BLACK
6
CONTINUOUS
10
108.126
20
-155.753
11
108.221
21
-155.848
0
LINE
8
BLACK
6
CONTINUOUS
10
108.221
20
-155.848
11
108.316
21
-156.038
0
LINE
8
BLACK
6
CONTINUOUS
10
108.316
20
-156.038
11
108.411
21
-156.419
0
LINE
8
BLACK
6
CONTINUOUS
10
108.411
20
-156.419
11
108.411
21
-156.895
0
LINE
8
BLACK
6
CONTINUOUS
10
108.411
20
-156.895
11
108.316
21
-157.276
0
LINE
8
BLACK
6
CONTINUOUS
10
108.316
20
-157.276
11
108.221
21
-157.467
0
LINE
8
BLACK
6
CONTINUOUS
10
108.221
20
-157.467
11
108.126
21
-157.562
0
LINE
8
BLACK
6
CONTINUOUS
10
108.126
20
-157.562
11
107.935
21
-157.657
0
LINE
8
BLACK
6
CONTINUOUS
10
107.935
20
-157.657
11
107.745
21
-157.657
0
LINE
8
BLACK
6
CONTINUOUS
10
107.745
20
-157.657
11
107.554
21
-157.562
0
LINE
8
BLACK
6
CONTINUOUS
10
107.554
20
-157.562
11
107.459
21
-157.467
0
LINE
8
BLACK
6
CONTINUOUS
10
107.459
20
-157.467
11
107.364
21
-157.276
0
LINE
8
BLACK
6
CONTINUOUS
10
107.364
20
-157.276
11
107.268
21
-156.895
0
LINE
8
BLACK
6
CONTINUOUS
10
107.268
20
-156.895
11
107.268
21
-156.419
0
LINE
8
BLACK
6
CONTINUOUS
10
107.268
20
-156.419
11
107.364
21
-156.038
0
LINE
8
BLACK
6
CONTINUOUS
10
107.364
20
-156.038
11
107.459
21
-155.848
0
LINE
8
BLACK
6
CONTINUOUS
10
107.459
20
-155.848
11
107.554
21
-155.753
0
LINE
8
BLACK
6
CONTINUOUS
10
107.554
20
-155.753
11
107.745
21
-155.657
0
LINE
8
BLACK
6
CONTINUOUS
10
109.649
20
-155.657
11
109.84
21
-155.657
0
LINE
8
BLACK
6
CONTINUOUS
10
109.84
20
-155.657
11
110.03
21
-155.753
0
LINE
8
BLACK
6
CONTINUOUS
10
110.03
20
-155.753
11
110.126
21
-155.848
0
LINE
8
BLACK
6
CONTINUOUS
10
110.126
20
-155.848
11
110.221
21
-156.038
0
LINE
8
BLACK
6
CONTINUOUS
10
110.221
20
-156.038
11
110.316
21
-156.419
0
LINE
8
BLACK
6
CONTINUOUS
10
110.316
20
-156.419
11
110.316
21
-156.895
0
LINE
8
BLACK
6
CONTINUOUS
10
110.316
20
-156.895
11
110.221
21
-157.276
0
LINE
8
BLACK
6
CONTINUOUS
10
110.221
20
-157.276
11
110.126
21
-157.467
0
LINE
8
BLACK
6
CONTINUOUS
10
110.126
20
-157.467
11
110.03
21
-157.562
0
LINE
8
BLACK
6
CONTINUOUS
10
110.03
20
-157.562
11
109.84
21
-157.657
0
LINE
8
BLACK
6
CONTINUOUS
10
109.84
20
-157.657
11
109.649
21
-157.657
0
LINE
8
BLACK
6
CONTINUOUS
10
109.649
20
-157.657
11
109.459
21
-157.562
0
LINE
8
BLACK
6
CONTINUOUS
10
109.459
20
-157.562
11
109.364
21
-157.467
0
LINE
8
BLACK
6
CONTINUOUS
10
109.364
20
-157.467
11
109.268
21
-157.276
0
LINE
8
BLACK
6
CONTINUOUS
10
109.268
20
-157.276
11
109.173
21
-156.895
0
LINE
8
BLACK
6
CONTINUOUS
10
109.173
20
-156.895
11
109.173
21
-156.419
0
LINE
8
BLACK
6
CONTINUOUS
10
109.173
20
-156.419
11
109.268
21
-156.038
0
LINE
8
BLACK
6
CONTINUOUS
10
109.268
20
-156.038
11
109.364
21
-155.848
0
LINE
8
BLACK
6
CONTINUOUS
10
109.364
20
-155.848
11
109.459
21
-155.753
0
LINE
8
BLACK
6
CONTINUOUS
10
109.459
20
-155.753
11
109.649
21
-155.657
0
LINE
8
BLACK
6
CONTINUOUS
10
111.173
20
-157.657
11
111.173
21
-156.324
0
LINE
8
BLACK
6
CONTINUOUS
10
111.173
20
-156.514
11
111.268
21
-156.419
0
LINE
8
BLACK
6
CONTINUOUS
10
111.268
20
-156.419
11
111.459
21
-156.324
0
LINE
8
BLACK
6
CONTINUOUS
10
111.459
20
-156.324
11
111.745
21
-156.324
0
LINE
8
BLACK
6
CONTINUOUS
10
111.745
20
-156.324
11
111.935
21
-156.419
0
LINE
8
BLACK
6
CONTINUOUS
10
111.935
20
-156.419
11
112.03
21
-156.61
0
LINE
8
BLACK
6
CONTINUOUS
10
112.03
20
-156.61
11
112.03
21
-157.657
0
LINE
8
BLACK
6
CONTINUOUS
10
112.03
20
-156.61
11
112.126
21
-156.419
0
LINE
8
BLACK
6
CONTINUOUS
10
112.126
20
-156.419
11
112.316
21
-156.324
0
LINE
8
BLACK
6
CONTINUOUS
10
112.316
20
-156.324
11
112.602
21
-156.324
0
LINE
8
BLACK
6
CONTINUOUS
10
112.602
20
-156.324
11
112.792
21
-156.419
0
LINE
8
BLACK
6
CONTINUOUS
10
112.792
20
-156.419
11
112.887
21
-156.61
0
LINE
8
BLACK
6
CONTINUOUS
10
112.887
20
-156.61
11
112.887
21
-157.657
0
LINE
8
BLACK
6
CONTINUOUS
10
113.84
20
-157.657
11
113.84
21
-156.324
0
LINE
8
BLACK
6
CONTINUOUS
10
113.84
20
-156.514
11
113.935
21
-156.419
0
LINE
8
BLACK
6
CONTINUOUS
10
113.935
20
-156.419
11
114.126
21
-156.324
0
LINE
8
BLACK
6
CONTINUOUS
10
114.126
20
-156.324
11
114.411
21
-156.324
0
LINE
8
BLACK
6
CONTINUOUS
10
114.411
20
-156.324
11
114.602
21
-156.419
0
LINE
8
BLACK
6
CONTINUOUS
10
114.602
20
-156.419
11
114.697
21
-156.61
0
LINE
8
BLACK
6
CONTINUOUS
10
114.697
20
-156.61
11
114.697
21
-157.657
0
LINE
8
BLACK
6
CONTINUOUS
10
114.697
20
-156.61
11
114.792
21
-156.419
0
LINE
8
BLACK
6
CONTINUOUS
10
114.792
20
-156.419
11
114.983
21
-156.324
0
LINE
8
BLACK
6
CONTINUOUS
10
114.983
20
-156.324
11
115.268
21
-156.324
0
LINE
8
BLACK
6
CONTINUOUS
10
115.268
20
-156.324
11
115.459
21
-156.419
0
LINE
8
BLACK
6
CONTINUOUS
10
115.459
20
-156.419
11
115.554
21
-156.61
0
LINE
8
BLACK
6
CONTINUOUS
10
115.554
20
-156.61
11
115.554
21
-157.657
0
LINE
8
BLACK
6
CONTINUOUS
10
119.459
20
-155.562
11
117.745
21
-158.134
0
LINE
8
BLACK
6
CONTINUOUS
10
122.03
20
-155.657
11
122.221
21
-155.657
0
LINE
8
BLACK
6
CONTINUOUS
10
122.221
20
-155.657
11
122.411
21
-155.753
0
LINE
8
BLACK
6
CONTINUOUS
10
122.411
20
-155.753
11
122.506
21
-155.848
0
LINE
8
BLACK
6
CONTINUOUS
10
122.506
20
-155.848
11
122.602
21
-156.038
0
LINE
8
BLACK
6
CONTINUOUS
10
122.602
20
-156.038
11
122.697
21
-156.419
0
LINE
8
BLACK
6
CONTINUOUS
10
122.697
20
-156.419
11
122.697
21
-156.895
0
LINE
8
BLACK
6
CONTINUOUS
10
122.697
20
-156.895
11
122.602
21
-157.276
0
LINE
8
BLACK
6
CONTINUOUS
10
122.602
20
-157.276
11
122.506
21
-157.467
0
LINE
8
BLACK
6
CONTINUOUS
10
122.506
20
-157.467
11
122.411
21
-157.562
0
LINE
8
BLACK
6
CONTINUOUS
10
122.411
20
-157.562
11
122.221
21
-157.657
0
LINE
8
BLACK
6
CONTINUOUS
10
122.221
20
-157.657
11
122.03
21
-157.657
0
LINE
8
BLACK
6
CONTINUOUS
10
122.03
20
-157.657
11
121.84
21
-157.562
0
LINE
8
BLACK
6
CONTINUOUS
10
121.84
20
-157.562
11
121.745
21
-157.467
0
LINE
8
BLACK
6
CONTINUOUS
10
121.745
20
-157.467
11
121.649
21
-157.276
0
LINE
8
BLACK
6
CONTINUOUS
10
121.649
20
-157.276
11
121.554
21
-156.895
0
LINE
8
BLACK
6
CONTINUOUS
10
121.554
20
-156.895
11
121.554
21
-156.419
0
LINE
8
BLACK
6
CONTINUOUS
10
121.554
20
-156.419
11
121.649
21
-156.038
0
LINE
8
BLACK
6
CONTINUOUS
10
121.649
20
-156.038
11
121.745
21
-155.848
0
LINE
8
BLACK
6
CONTINUOUS
10
121.745
20
-155.848
11
121.84
21
-155.753
0
LINE
8
BLACK
6
CONTINUOUS
10
121.84
20
-155.753
11
122.03
21
-155.657
0
LINE
8
BLACK
6
CONTINUOUS
10
123.554
20
-157.467
11
123.649
21
-157.562
0
LINE
8
BLACK
6
CONTINUOUS
10
123.649
20
-157.562
11
123.554
21
-157.657
0
LINE
8
BLACK
6
CONTINUOUS
10
123.554
20
-157.657
11
123.459
21
-157.562
0
LINE
8
BLACK
6
CONTINUOUS
10
123.459
20
-157.562
11
123.554
21
-157.467
0
LINE
8
BLACK
6
CONTINUOUS
10
123.554
20
-157.467
11
123.554
21
-157.657
0
LINE
8
BLACK
6
CONTINUOUS
10
124.887
20
-155.657
11
125.078
21
-155.657
0
LINE
8
BLACK
6
CONTINUOUS
10
125.078
20
-155.657
11
125.268
21
-155.753
0
LINE
8
BLACK
6
CONTINUOUS
10
125.268
20
-155.753
11
125.364
21
-155.848
0
LINE
8
BLACK
6
CONTINUOUS
10
125.364
20
-155.848
11
125.459
21
-156.038
0
LINE
8
BLACK
6
CONTINUOUS
10
125.459
20
-156.038
11
125.554
21
-156.419
0
LINE
8
BLACK
6
CONTINUOUS
10
125.554
20
-156.419
11
125.554
21
-156.895
0
LINE
8
BLACK
6
CONTINUOUS
10
125.554
20
-156.895
11
125.459
21
-157.276
0
LINE
8
BLACK
6
CONTINUOUS
10
125.459
20
-157.276
11
125.364
21
-157.467
0
LINE
8
BLACK
6
CONTINUOUS
10
125.364
20
-157.467
11
125.268
21
-157.562
0
LINE
8
BLACK
6
CONTINUOUS
10
125.268
20
-157.562
11
125.078
21
-157.657
0
LINE
8
BLACK
6
CONTINUOUS
10
125.078
20
-157.657
11
124.887
21
-157.657
0
LINE
8
BLACK
6
CONTINUOUS
10
124.887
20
-157.657
11
124.697
21
-157.562
0
LINE
8
BLACK
6
CONTINUOUS
10
124.697
20
-157.562
11
124.602
21
-157.467
0
LINE
8
BLACK
6
CONTINUOUS
10
124.602
20
-157.467
11
124.506
21
-157.276
0
LINE
8
BLACK
6
CONTINUOUS
10
124.506
20
-157.276
11
124.411
21
-156.895
0
LINE
8
BLACK
6
CONTINUOUS
10
124.411
20
-156.895
11
124.411
21
-156.419
0
LINE
8
BLACK
6
CONTINUOUS
10
124.411
20
-156.419
11
124.506
21
-156.038
0
LINE
8
BLACK
6
CONTINUOUS
10
124.506
20
-156.038
11
124.602
21
-155.848
0
LINE
8
BLACK
6
CONTINUOUS
10
124.602
20
-155.848
11
124.697
21
-155.753
0
LINE
8
BLACK
6
CONTINUOUS
10
124.697
20
-155.753
11
124.887
21
-155.657
0
LINE
8
BLACK
6
CONTINUOUS
10
126.221
20
-155.657
11
127.459
21
-155.657
0
LINE
8
BLACK
6
CONTINUOUS
10
127.459
20
-155.657
11
126.792
21
-156.419
0
LINE
8
BLACK
6
CONTINUOUS
10
126.792
20
-156.419
11
127.078
21
-156.419
0
LINE
8
BLACK
6
CONTINUOUS
10
127.078
20
-156.419
11
127.268
21
-156.514
0
LINE
8
BLACK
6
CONTINUOUS
10
127.268
20
-156.514
11
127.364
21
-156.61
0
LINE
8
BLACK
6
CONTINUOUS
10
127.364
20
-156.61
11
127.459
21
-156.8
0
LINE
8
BLACK
6
CONTINUOUS
10
127.459
20
-156.8
11
127.459
21
-157.276
0
LINE
8
BLACK
6
CONTINUOUS
10
127.459
20
-157.276
11
127.364
21
-157.467
0
LINE
8
BLACK
6
CONTINUOUS
10
127.364
20
-157.467
11
127.268
21
-157.562
0
LINE
8
BLACK
6
CONTINUOUS
10
127.268
20
-157.562
11
127.078
21
-157.657
0
LINE
8
BLACK
6
CONTINUOUS
10
127.078
20
-157.657
11
126.506
21
-157.657
0
LINE
8
BLACK
6
CONTINUOUS
10
126.506
20
-157.657
11
126.316
21
-157.562
0
LINE
8
BLACK
6
CONTINUOUS
10
126.316
20
-157.562
11
126.221
21
-157.467
0
LINE
8
BLACK
6
CONTINUOUS
10
129.268
20
-155.657
11
128.316
21
-155.657
0
LINE
8
BLACK
6
CONTINUOUS
10
128.316
20
-155.657
11
128.221
21
-156.61
0
LINE
8
BLACK
6
CONTINUOUS
10
128.221
20
-156.61
11
128.316
21
-156.514
0
LINE
8
BLACK
6
CONTINUOUS
10
128.316
20
-156.514
11
128.506
21
-156.419
0
LINE
8
BLACK
6
CONTINUOUS
10
128.506
20
-156.419
11
128.983
21
-156.419
0
LINE
8
BLACK
6
CONTINUOUS
10
128.983
20
-156.419
11
129.173
21
-156.514
0
LINE
8
BLACK
6
CONTINUOUS
10
129.173
20
-156.514
11
129.268
21
-156.61
0
LINE
8
BLACK
6
CONTINUOUS
10
129.268
20
-156.61
11
129.364
21
-156.8
0
LINE
8
BLACK
6
CONTINUOUS
10
129.364
20
-156.8
11
129.364
21
-157.276
0
LINE
8
BLACK
6
CONTINUOUS
10
129.364
20
-157.276
11
129.268
21
-157.467
0
LINE
8
BLACK
6
CONTINUOUS
10
129.268
20
-157.467
11
129.173
21
-157.562
0
LINE
8
BLACK
6
CONTINUOUS
10
129.173
20
-157.562
11
128.983
21
-157.657
0
LINE
8
BLACK
6
CONTINUOUS
10
128.983
20
-157.657
11
128.506
21
-157.657
0
LINE
8
BLACK
6
CONTINUOUS
10
128.506
20
-157.657
11
128.316
21
-157.562
0
LINE
8
BLACK
6
CONTINUOUS
10
128.316
20
-157.562
11
128.221
21
-157.467
0
LINE
8
BLACK
6
CONTINUOUS
10
131.078
20
-156.324
11
131.078
21
-157.657
0
LINE
8
BLACK
6
CONTINUOUS
10
130.602
20
-155.562
11
130.126
21
-156.991
0
LINE
8
BLACK
6
CONTINUOUS
10
130.126
20
-156.991
11
131.364
21
-156.991
0
LINE
8
BLACK
6
CONTINUOUS
10
132.03
20
-155.657
11
132.03
21
-156.038
0
LINE
8
BLACK
6
CONTINUOUS
10
132.792
20
-155.657
11
132.792
21
-156.038
0
LINE
8
BLACK
6
CONTINUOUS
10
135.745
20
-158.419
11
135.649
21
-158.324
0
LINE
8
BLACK
6
CONTINUOUS
10
135.649
20
-158.324
11
135.459
21
-158.038
0
LINE
8
BLACK
6
CONTINUOUS
10
135.459
20
-158.038
11
135.364
21
-157.848
0
LINE
8
BLACK
6
CONTINUOUS
10
135.364
20
-157.848
11
135.268
21
-157.562
0
LINE
8
BLACK
6
CONTINUOUS
10
135.268
20
-157.562
11
135.173
21
-157.086
0
LINE
8
BLACK
6
CONTINUOUS
10
135.173
20
-157.086
11
135.173
21
-156.705
0
LINE
8
BLACK
6
CONTINUOUS
10
135.173
20
-156.705
11
135.268
21
-156.229
0
LINE
8
BLACK
6
CONTINUOUS
10
135.268
20
-156.229
11
135.364
21
-155.943
0
LINE
8
BLACK
6
CONTINUOUS
10
135.364
20
-155.943
11
135.459
21
-155.753
0
LINE
8
BLACK
6
CONTINUOUS
10
135.459
20
-155.753
11
135.649
21
-155.467
0
LINE
8
BLACK
6
CONTINUOUS
10
135.649
20
-155.467
11
135.745
21
-155.372
0
LINE
8
BLACK
6
CONTINUOUS
10
136.316
20
-155.657
11
137.554
21
-155.657
0
LINE
8
BLACK
6
CONTINUOUS
10
137.554
20
-155.657
11
136.887
21
-156.419
0
LINE
8
BLACK
6
CONTINUOUS
10
136.887
20
-156.419
11
137.173
21
-156.419
0
LINE
8
BLACK
6
CONTINUOUS
10
137.173
20
-156.419
11
137.364
21
-156.514
0
LINE
8
BLACK
6
CONTINUOUS
10
137.364
20
-156.514
11
137.459
21
-156.61
0
LINE
8
BLACK
6
CONTINUOUS
10
137.459
20
-156.61
11
137.554
21
-156.8
0
LINE
8
BLACK
6
CONTINUOUS
10
137.554
20
-156.8
11
137.554
21
-157.276
0
LINE
8
BLACK
6
CONTINUOUS
10
137.554
20
-157.276
11
137.459
21
-157.467
0
LINE
8
BLACK
6
CONTINUOUS
10
137.459
20
-157.467
11
137.364
21
-157.562
0
LINE
8
BLACK
6
CONTINUOUS
10
137.364
20
-157.562
11
137.173
21
-157.657
0
LINE
8
BLACK
6
CONTINUOUS
10
137.173
20
-157.657
11
136.602
21
-157.657
0
LINE
8
BLACK
6
CONTINUOUS
10
136.602
20
-157.657
11
136.411
21
-157.562
0
LINE
8
BLACK
6
CONTINUOUS
10
136.411
20
-157.562
11
136.316
21
-157.467
0
LINE
8
BLACK
6
CONTINUOUS
10
139.935
20
-157.657
11
139.935
21
-155.657
0
LINE
8
BLACK
6
CONTINUOUS
10
140.792
20
-157.657
11
140.792
21
-156.61
0
LINE
8
BLACK
6
CONTINUOUS
10
140.792
20
-156.61
11
140.697
21
-156.419
0
LINE
8
BLACK
6
CONTINUOUS
10
140.697
20
-156.419
11
140.506
21
-156.324
0
LINE
8
BLACK
6
CONTINUOUS
10
140.506
20
-156.324
11
140.221
21
-156.324
0
LINE
8
BLACK
6
CONTINUOUS
10
140.221
20
-156.324
11
140.03
21
-156.419
0
LINE
8
BLACK
6
CONTINUOUS
10
140.03
20
-156.419
11
139.935
21
-156.514
0
LINE
8
BLACK
6
CONTINUOUS
10
142.03
20
-157.657
11
141.84
21
-157.562
0
LINE
8
BLACK
6
CONTINUOUS
10
141.84
20
-157.562
11
141.745
21
-157.467
0
LINE
8
BLACK
6
CONTINUOUS
10
141.745
20
-157.467
11
141.649
21
-157.276
0
LINE
8
BLACK
6
CONTINUOUS
10
141.649
20
-157.276
11
141.649
21
-156.705
0
LINE
8
BLACK
6
CONTINUOUS
10
141.649
20
-156.705
11
141.745
21
-156.514
0
LINE
8
BLACK
6
CONTINUOUS
10
141.745
20
-156.514
11
141.84
21
-156.419
0
LINE
8
BLACK
6
CONTINUOUS
10
141.84
20
-156.419
11
142.03
21
-156.324
0
LINE
8
BLACK
6
CONTINUOUS
10
142.03
20
-156.324
11
142.316
21
-156.324
0
LINE
8
BLACK
6
CONTINUOUS
10
142.316
20
-156.324
11
142.506
21
-156.419
0
LINE
8
BLACK
6
CONTINUOUS
10
142.506
20
-156.419
11
142.602
21
-156.514
0
LINE
8
BLACK
6
CONTINUOUS
10
142.602
20
-156.514
11
142.697
21
-156.705
0
LINE
8
BLACK
6
CONTINUOUS
10
142.697
20
-156.705
11
142.697
21
-157.276
0
LINE
8
BLACK
6
CONTINUOUS
10
142.697
20
-157.276
11
142.602
21
-157.467
0
LINE
8
BLACK
6
CONTINUOUS
10
142.602
20
-157.467
11
142.506
21
-157.562
0
LINE
8
BLACK
6
CONTINUOUS
10
142.506
20
-157.562
11
142.316
21
-157.657
0
LINE
8
BLACK
6
CONTINUOUS
10
142.316
20
-157.657
11
142.03
21
-157.657
0
LINE
8
BLACK
6
CONTINUOUS
10
143.84
20
-157.657
11
143.649
21
-157.562
0
LINE
8
BLACK
6
CONTINUOUS
10
143.649
20
-157.562
11
143.554
21
-157.372
0
LINE
8
BLACK
6
CONTINUOUS
10
143.554
20
-157.372
11
143.554
21
-155.657
0
LINE
8
BLACK
6
CONTINUOUS
10
145.364
20
-157.562
11
145.173
21
-157.657
0
LINE
8
BLACK
6
CONTINUOUS
10
145.173
20
-157.657
11
144.792
21
-157.657
0
LINE
8
BLACK
6
CONTINUOUS
10
144.792
20
-157.657
11
144.602
21
-157.562
0
LINE
8
BLACK
6
CONTINUOUS
10
144.602
20
-157.562
11
144.506
21
-157.372
0
LINE
8
BLACK
6
CONTINUOUS
10
144.506
20
-157.372
11
144.506
21
-156.61
0
LINE
8
BLACK
6
CONTINUOUS
10
144.506
20
-156.61
11
144.602
21
-156.419
0
LINE
8
BLACK
6
CONTINUOUS
10
144.602
20
-156.419
11
144.792
21
-156.324
0
LINE
8
BLACK
6
CONTINUOUS
10
144.792
20
-156.324
11
145.173
21
-156.324
0
LINE
8
BLACK
6
CONTINUOUS
10
145.173
20
-156.324
11
145.364
21
-156.419
0
LINE
8
BLACK
6
CONTINUOUS
10
145.364
20
-156.419
11
145.459
21
-156.61
0
LINE
8
BLACK
6
CONTINUOUS
10
145.459
20
-156.61
11
145.459
21
-156.8
0
LINE
8
BLACK
6
CONTINUOUS
10
145.459
20
-156.8
11
144.506
21
-156.991
0
LINE
8
BLACK
6
CONTINUOUS
10
146.221
20
-157.562
11
146.411
21
-157.657
0
LINE
8
BLACK
6
CONTINUOUS
10
146.411
20
-157.657
11
146.792
21
-157.657
0
LINE
8
BLACK
6
CONTINUOUS
10
146.792
20
-157.657
11
146.983
21
-157.562
0
LINE
8
BLACK
6
CONTINUOUS
10
146.983
20
-157.562
11
147.078
21
-157.372
0
LINE
8
BLACK
6
CONTINUOUS
10
147.078
20
-157.372
11
147.078
21
-157.276
0
LINE
8
BLACK
6
CONTINUOUS
10
147.078
20
-157.276
11
146.983
21
-157.086
0
LINE
8
BLACK
6
CONTINUOUS
10
146.983
20
-157.086
11
146.792
21
-156.991
0
LINE
8
BLACK
6
CONTINUOUS
10
146.792
20
-156.991
11
146.506
21
-156.991
0
LINE
8
BLACK
6
CONTINUOUS
10
146.506
20
-156.991
11
146.316
21
-156.895
0
LINE
8
BLACK
6
CONTINUOUS
10
146.316
20
-156.895
11
146.221
21
-156.705
0
LINE
8
BLACK
6
CONTINUOUS
10
146.221
20
-156.705
11
146.221
21
-156.61
0
LINE
8
BLACK
6
CONTINUOUS
10
146.221
20
-156.61
11
146.316
21
-156.419
0
LINE
8
BLACK
6
CONTINUOUS
10
146.316
20
-156.419
11
146.506
21
-156.324
0
LINE
8
BLACK
6
CONTINUOUS
10
146.506
20
-156.324
11
146.792
21
-156.324
0
LINE
8
BLACK
6
CONTINUOUS
10
146.792
20
-156.324
11
146.983
21
-156.419
0
LINE
8
BLACK
6
CONTINUOUS
10
147.745
20
-158.419
11
147.84
21
-158.324
0
LINE
8
BLACK
6
CONTINUOUS
10
147.84
20
-158.324
11
148.03
21
-158.038
0
LINE
8
BLACK
6
CONTINUOUS
10
148.03
20
-158.038
11
148.126
21
-157.848
0
LINE
8
BLACK
6
CONTINUOUS
10
148.126
20
-157.848
11
148.221
21
-157.562
0
LINE
8
BLACK
6
CONTINUOUS
10
148.221
20
-157.562
11
148.316
21
-157.086
0
LINE
8
BLACK
6
CONTINUOUS
10
148.316
20
-157.086
11
148.316
21
-156.705
0
LINE
8
BLACK
6
CONTINUOUS
10
148.316
20
-156.705
11
148.221
21
-156.229
0
LINE
8
BLACK
6
CONTINUOUS
10
148.221
20
-156.229
11
148.126
21
-155.943
0
LINE
8
BLACK
6
CONTINUOUS
10
148.126
20
-155.943
11
148.03
21
-155.753
0
LINE
8
BLACK
6
CONTINUOUS
10
148.03
20
-155.753
11
147.84
21
-155.467
0
LINE
8
BLACK
6
CONTINUOUS
10
147.84
20
-155.467
11
147.745
21
-155.372
0
LINE
8
BLACK
6
CONTINUOUS
10
99.7327
20
-160.1
11
99.7327
21
-158.685
0
LINE
8
BLACK
6
CONTINUOUS
10
99.7327
20
-158.685
11
98.3184
21
-158.685
0
LINE
8
BLACK
6
CONTINUOUS
10
98.3184
20
-158.685
11
98.3184
21
-160.1
0
LINE
8
BLACK
6
CONTINUOUS
10
98.3184
20
-160.1
11
99.7327
21
-160.1
0
LINE
8
BLACK
6
CONTINUOUS
10
103.459
20
-158.964
11
103.459
21
-160.297
0
LINE
8
BLACK
6
CONTINUOUS
10
102.983
20
-158.202
11
102.506
21
-159.631
0
LINE
8
BLACK
6
CONTINUOUS
10
102.506
20
-159.631
11
103.745
21
-159.631
0
LINE
8
BLACK
6
CONTINUOUS
10
104.506
20
-160.107
11
104.602
21
-160.202
0
LINE
8
BLACK
6
CONTINUOUS
10
104.602
20
-160.202
11
104.506
21
-160.297
0
LINE
8
BLACK
6
CONTINUOUS
10
104.506
20
-160.297
11
104.411
21
-160.202
0
LINE
8
BLACK
6
CONTINUOUS
10
104.411
20
-160.202
11
104.506
21
-160.107
0
LINE
8
BLACK
6
CONTINUOUS
10
104.506
20
-160.107
11
104.506
21
-160.297
0
LINE
8
BLACK
6
CONTINUOUS
10
105.84
20
-158.297
11
106.03
21
-158.297
0
LINE
8
BLACK
6
CONTINUOUS
10
106.03
20
-158.297
11
106.221
21
-158.393
0
LINE
8
BLACK
6
CONTINUOUS
10
106.221
20
-158.393
11
106.316
21
-158.488
0
LINE
8
BLACK
6
CONTINUOUS
10
106.316
20
-158.488
11
106.411
21
-158.678
0
LINE
8
BLACK
6
CONTINUOUS
10
106.411
20
-158.678
11
106.506
21
-159.059
0
LINE
8
BLACK
6
CONTINUOUS
10
106.506
20
-159.059
11
106.506
21
-159.535
0
LINE
8
BLACK
6
CONTINUOUS
10
106.506
20
-159.535
11
106.411
21
-159.916
0
LINE
8
BLACK
6
CONTINUOUS
10
106.411
20
-159.916
11
106.316
21
-160.107
0
LINE
8
BLACK
6
CONTINUOUS
10
106.316
20
-160.107
11
106.221
21
-160.202
0
LINE
8
BLACK
6
CONTINUOUS
10
106.221
20
-160.202
11
106.03
21
-160.297
0
LINE
8
BLACK
6
CONTINUOUS
10
106.03
20
-160.297
11
105.84
21
-160.297
0
LINE
8
BLACK
6
CONTINUOUS
10
105.84
20
-160.297
11
105.649
21
-160.202
0
LINE
8
BLACK
6
CONTINUOUS
10
105.649
20
-160.202
11
105.554
21
-160.107
0
LINE
8
BLACK
6
CONTINUOUS
10
105.554
20
-160.107
11
105.459
21
-159.916
0
LINE
8
BLACK
6
CONTINUOUS
10
105.459
20
-159.916
11
105.364
21
-159.535
0
LINE
8
BLACK
6
CONTINUOUS
10
105.364
20
-159.535
11
105.364
21
-159.059
0
LINE
8
BLACK
6
CONTINUOUS
10
105.364
20
-159.059
11
105.459
21
-158.678
0
LINE
8
BLACK
6
CONTINUOUS
10
105.459
20
-158.678
11
105.554
21
-158.488
0
LINE
8
BLACK
6
CONTINUOUS
10
105.554
20
-158.488
11
105.649
21
-158.393
0
LINE
8
BLACK
6
CONTINUOUS
10
105.649
20
-158.393
11
105.84
21
-158.297
0
LINE
8
BLACK
6
CONTINUOUS
10
107.745
20
-158.297
11
107.935
21
-158.297
0
LINE
8
BLACK
6
CONTINUOUS
10
107.935
20
-158.297
11
108.126
21
-158.393
0
LINE
8
BLACK
6
CONTINUOUS
10
108.126
20
-158.393
11
108.221
21
-158.488
0
LINE
8
BLACK
6
CONTINUOUS
10
108.221
20
-158.488
11
108.316
21
-158.678
0
LINE
8
BLACK
6
CONTINUOUS
10
108.316
20
-158.678
11
108.411
21
-159.059
0
LINE
8
BLACK
6
CONTINUOUS
10
108.411
20
-159.059
11
108.411
21
-159.535
0
LINE
8
BLACK
6
CONTINUOUS
10
108.411
20
-159.535
11
108.316
21
-159.916
0
LINE
8
BLACK
6
CONTINUOUS
10
108.316
20
-159.916
11
108.221
21
-160.107
0
LINE
8
BLACK
6
CONTINUOUS
10
108.221
20
-160.107
11
108.126
21
-160.202
0
LINE
8
BLACK
6
CONTINUOUS
10
108.126
20
-160.202
11
107.935
21
-160.297
0
LINE
8
BLACK
6
CONTINUOUS
10
107.935
20
-160.297
11
107.745
21
-160.297
0
LINE
8
BLACK
6
CONTINUOUS
10
107.745
20
-160.297
11
107.554
21
-160.202
0
LINE
8
BLACK
6
CONTINUOUS
10
107.554
20
-160.202
11
107.459
21
-160.107
0
LINE
8
BLACK
6
CONTINUOUS
10
107.459
20
-160.107
11
107.364
21
-159.916
0
LINE
8
BLACK
6
CONTINUOUS
10
107.364
20
-159.916
11
107.268
21
-159.535
0
LINE
8
BLACK
6
CONTINUOUS
10
107.268
20
-159.535
11
107.268
21
-159.059
0
LINE
8
BLACK
6
CONTINUOUS
10
107.268
20
-159.059
11
107.364
21
-158.678
0
LINE
8
BLACK
6
CONTINUOUS
10
107.364
20
-158.678
11
107.459
21
-158.488
0
LINE
8
BLACK
6
CONTINUOUS
10
107.459
20
-158.488
11
107.554
21
-158.393
0
LINE
8
BLACK
6
CONTINUOUS
10
107.554
20
-158.393
11
107.745
21
-158.297
0
LINE
8
BLACK
6
CONTINUOUS
10
109.649
20
-158.297
11
109.84
21
-158.297
0
LINE
8
BLACK
6
CONTINUOUS
10
109.84
20
-158.297
11
110.03
21
-158.393
0
LINE
8
BLACK
6
CONTINUOUS
10
110.03
20
-158.393
11
110.126
21
-158.488
0
LINE
8
BLACK
6
CONTINUOUS
10
110.126
20
-158.488
11
110.221
21
-158.678
0
LINE
8
BLACK
6
CONTINUOUS
10
110.221
20
-158.678
11
110.316
21
-159.059
0
LINE
8
BLACK
6
CONTINUOUS
10
110.316
20
-159.059
11
110.316
21
-159.535
0
LINE
8
BLACK
6
CONTINUOUS
10
110.316
20
-159.535
11
110.221
21
-159.916
0
LINE
8
BLACK
6
CONTINUOUS
10
110.221
20
-159.916
11
110.126
21
-160.107
0
LINE
8
BLACK
6
CONTINUOUS
10
110.126
20
-160.107
11
110.03
21
-160.202
0
LINE
8
BLACK
6
CONTINUOUS
10
110.03
20
-160.202
11
109.84
21
-160.297
0
LINE
8
BLACK
6
CONTINUOUS
10
109.84
20
-160.297
11
109.649
21
-160.297
0
LINE
8
BLACK
6
CONTINUOUS
10
109.649
20
-160.297
11
109.459
21
-160.202
0
LINE
8
BLACK
6
CONTINUOUS
10
109.459
20
-160.202
11
109.364
21
-160.107
0
LINE
8
BLACK
6
CONTINUOUS
10
109.364
20
-160.107
11
109.268
21
-159.916
0
LINE
8
BLACK
6
CONTINUOUS
10
109.268
20
-159.916
11
109.173
21
-159.535
0
LINE
8
BLACK
6
CONTINUOUS
10
109.173
20
-159.535
11
109.173
21
-159.059
0
LINE
8
BLACK
6
CONTINUOUS
10
109.173
20
-159.059
11
109.268
21
-158.678
0
LINE
8
BLACK
6
CONTINUOUS
10
109.268
20
-158.678
11
109.364
21
-158.488
0
LINE
8
BLACK
6
CONTINUOUS
10
109.364
20
-158.488
11
109.459
21
-158.393
0
LINE
8
BLACK
6
CONTINUOUS
10
109.459
20
-158.393
11
109.649
21
-158.297
0
LINE
8
BLACK
6
CONTINUOUS
10
111.173
20
-160.297
11
111.173
21
-158.964
0
LINE
8
BLACK
6
CONTINUOUS
10
111.173
20
-159.154
11
111.268
21
-159.059
0
LINE
8
BLACK
6
CONTINUOUS
10
111.268
20
-159.059
11
111.459
21
-158.964
0
LINE
8
BLACK
6
CONTINUOUS
10
111.459
20
-158.964
11
111.745
21
-158.964
0
LINE
8
BLACK
6
CONTINUOUS
10
111.745
20
-158.964
11
111.935
21
-159.059
0
LINE
8
BLACK
6
CONTINUOUS
10
111.935
20
-159.059
11
112.03
21
-159.25
0
LINE
8
BLACK
6
CONTINUOUS
10
112.03
20
-159.25
11
112.03
21
-160.297
0
LINE
8
BLACK
6
CONTINUOUS
10
112.03
20
-159.25
11
112.126
21
-159.059
0
LINE
8
BLACK
6
CONTINUOUS
10
112.126
20
-159.059
11
112.316
21
-158.964
0
LINE
8
BLACK
6
CONTINUOUS
10
112.316
20
-158.964
11
112.602
21
-158.964
0
LINE
8
BLACK
6
CONTINUOUS
10
112.602
20
-158.964
11
112.792
21
-159.059
0
LINE
8
BLACK
6
CONTINUOUS
10
112.792
20
-159.059
11
112.887
21
-159.25
0
LINE
8
BLACK
6
CONTINUOUS
10
112.887
20
-159.25
11
112.887
21
-160.297
0
LINE
8
BLACK
6
CONTINUOUS
10
113.84
20
-160.297
11
113.84
21
-158.964
0
LINE
8
BLACK
6
CONTINUOUS
10
113.84
20
-159.154
11
113.935
21
-159.059
0
LINE
8
BLACK
6
CONTINUOUS
10
113.935
20
-159.059
11
114.126
21
-158.964
0
LINE
8
BLACK
6
CONTINUOUS
10
114.126
20
-158.964
11
114.411
21
-158.964
0
LINE
8
BLACK
6
CONTINUOUS
10
114.411
20
-158.964
11
114.602
21
-159.059
0
LINE
8
BLACK
6
CONTINUOUS
10
114.602
20
-159.059
11
114.697
21
-159.25
0
LINE
8
BLACK
6
CONTINUOUS
10
114.697
20
-159.25
11
114.697
21
-160.297
0
LINE
8
BLACK
6
CONTINUOUS
10
114.697
20
-159.25
11
114.792
21
-159.059
0
LINE
8
BLACK
6
CONTINUOUS
10
114.792
20
-159.059
11
114.983
21
-158.964
0
LINE
8
BLACK
6
CONTINUOUS
10
114.983
20
-158.964
11
115.268
21
-158.964
0
LINE
8
BLACK
6
CONTINUOUS
10
115.268
20
-158.964
11
115.459
21
-159.059
0
LINE
8
BLACK
6
CONTINUOUS
10
115.459
20
-159.059
11
115.554
21
-159.25
0
LINE
8
BLACK
6
CONTINUOUS
10
115.554
20
-159.25
11
115.554
21
-160.297
0
LINE
8
BLACK
6
CONTINUOUS
10
119.459
20
-158.202
11
117.745
21
-160.774
0
LINE
8
BLACK
6
CONTINUOUS
10
122.03
20
-158.297
11
122.221
21
-158.297
0
LINE
8
BLACK
6
CONTINUOUS
10
122.221
20
-158.297
11
122.411
21
-158.393
0
LINE
8
BLACK
6
CONTINUOUS
10
122.411
20
-158.393
11
122.506
21
-158.488
0
LINE
8
BLACK
6
CONTINUOUS
10
122.506
20
-158.488
11
122.602
21
-158.678
0
LINE
8
BLACK
6
CONTINUOUS
10
122.602
20
-158.678
11
122.697
21
-159.059
0
LINE
8
BLACK
6
CONTINUOUS
10
122.697
20
-159.059
11
122.697
21
-159.535
0
LINE
8
BLACK
6
CONTINUOUS
10
122.697
20
-159.535
11
122.602
21
-159.916
0
LINE
8
BLACK
6
CONTINUOUS
10
122.602
20
-159.916
11
122.506
21
-160.107
0
LINE
8
BLACK
6
CONTINUOUS
10
122.506
20
-160.107
11
122.411
21
-160.202
0
LINE
8
BLACK
6
CONTINUOUS
10
122.411
20
-160.202
11
122.221
21
-160.297
0
LINE
8
BLACK
6
CONTINUOUS
10
122.221
20
-160.297
11
122.03
21
-160.297
0
LINE
8
BLACK
6
CONTINUOUS
10
122.03
20
-160.297
11
121.84
21
-160.202
0
LINE
8
BLACK
6
CONTINUOUS
10
121.84
20
-160.202
11
121.745
21
-160.107
0
LINE
8
BLACK
6
CONTINUOUS
10
121.745
20
-160.107
11
121.649
21
-159.916
0
LINE
8
BLACK
6
CONTINUOUS
10
121.649
20
-159.916
11
121.554
21
-159.535
0
LINE
8
BLACK
6
CONTINUOUS
10
121.554
20
-159.535
11
121.554
21
-159.059
0
LINE
8
BLACK
6
CONTINUOUS
10
121.554
20
-159.059
11
121.649
21
-158.678
0
LINE
8
BLACK
6
CONTINUOUS
10
121.649
20
-158.678
11
121.745
21
-158.488
0
LINE
8
BLACK
6
CONTINUOUS
10
121.745
20
-158.488
11
121.84
21
-158.393
0
LINE
8
BLACK
6
CONTINUOUS
10
121.84
20
-158.393
11
122.03
21
-158.297
0
LINE
8
BLACK
6
CONTINUOUS
10
123.554
20
-160.107
11
123.649
21
-160.202
0
LINE
8
BLACK
6
CONTINUOUS
10
123.649
20
-160.202
11
123.554
21
-160.297
0
LINE
8
BLACK
6
CONTINUOUS
10
123.554
20
-160.297
11
123.459
21
-160.202
0
LINE
8
BLACK
6
CONTINUOUS
10
123.459
20
-160.202
11
123.554
21
-160.107
0
LINE
8
BLACK
6
CONTINUOUS
10
123.554
20
-160.107
11
123.554
21
-160.297
0
LINE
8
BLACK
6
CONTINUOUS
10
125.554
20
-160.297
11
124.411
21
-160.297
0
LINE
8
BLACK
6
CONTINUOUS
10
124.983
20
-160.297
11
124.983
21
-158.297
0
LINE
8
BLACK
6
CONTINUOUS
10
124.983
20
-158.297
11
124.792
21
-158.583
0
LINE
8
BLACK
6
CONTINUOUS
10
124.792
20
-158.583
11
124.602
21
-158.774
0
LINE
8
BLACK
6
CONTINUOUS
10
124.602
20
-158.774
11
124.411
21
-158.869
0
LINE
8
BLACK
6
CONTINUOUS
10
127.364
20
-158.297
11
126.411
21
-158.297
0
LINE
8
BLACK
6
CONTINUOUS
10
126.411
20
-158.297
11
126.316
21
-159.25
0
LINE
8
BLACK
6
CONTINUOUS
10
126.316
20
-159.25
11
126.411
21
-159.154
0
LINE
8
BLACK
6
CONTINUOUS
10
126.411
20
-159.154
11
126.602
21
-159.059
0
LINE
8
BLACK
6
CONTINUOUS
10
126.602
20
-159.059
11
127.078
21
-159.059
0
LINE
8
BLACK
6
CONTINUOUS
10
127.078
20
-159.059
11
127.268
21
-159.154
0
LINE
8
BLACK
6
CONTINUOUS
10
127.268
20
-159.154
11
127.364
21
-159.25
0
LINE
8
BLACK
6
CONTINUOUS
10
127.364
20
-159.25
11
127.459
21
-159.44
0
LINE
8
BLACK
6
CONTINUOUS
10
127.459
20
-159.44
11
127.459
21
-159.916
0
LINE
8
BLACK
6
CONTINUOUS
10
127.459
20
-159.916
11
127.364
21
-160.107
0
LINE
8
BLACK
6
CONTINUOUS
10
127.364
20
-160.107
11
127.268
21
-160.202
0
LINE
8
BLACK
6
CONTINUOUS
10
127.268
20
-160.202
11
127.078
21
-160.297
0
LINE
8
BLACK
6
CONTINUOUS
10
127.078
20
-160.297
11
126.602
21
-160.297
0
LINE
8
BLACK
6
CONTINUOUS
10
126.602
20
-160.297
11
126.411
21
-160.202
0
LINE
8
BLACK
6
CONTINUOUS
10
126.411
20
-160.202
11
126.316
21
-160.107
0
LINE
8
BLACK
6
CONTINUOUS
10
128.126
20
-158.297
11
129.459
21
-158.297
0
LINE
8
BLACK
6
CONTINUOUS
10
129.459
20
-158.297
11
128.602
21
-160.297
0
LINE
8
BLACK
6
CONTINUOUS
10
131.173
20
-158.297
11
130.221
21
-158.297
0
LINE
8
BLACK
6
CONTINUOUS
10
130.221
20
-158.297
11
130.126
21
-159.25
0
LINE
8
BLACK
6
CONTINUOUS
10
130.126
20
-159.25
11
130.221
21
-159.154
0
LINE
8
BLACK
6
CONTINUOUS
10
130.221
20
-159.154
11
130.411
21
-159.059
0
LINE
8
BLACK
6
CONTINUOUS
10
130.411
20
-159.059
11
130.887
21
-159.059
0
LINE
8
BLACK
6
CONTINUOUS
10
130.887
20
-159.059
11
131.078
21
-159.154
0
LINE
8
BLACK
6
CONTINUOUS
10
131.078
20
-159.154
11
131.173
21
-159.25
0
LINE
8
BLACK
6
CONTINUOUS
10
131.173
20
-159.25
11
131.268
21
-159.44
0
LINE
8
BLACK
6
CONTINUOUS
10
131.268
20
-159.44
11
131.268
21
-159.916
0
LINE
8
BLACK
6
CONTINUOUS
10
131.268
20
-159.916
11
131.173
21
-160.107
0
LINE
8
BLACK
6
CONTINUOUS
10
131.173
20
-160.107
11
131.078
21
-160.202
0
LINE
8
BLACK
6
CONTINUOUS
10
131.078
20
-160.202
11
130.887
21
-160.297
0
LINE
8
BLACK
6
CONTINUOUS
10
130.887
20
-160.297
11
130.411
21
-160.297
0
LINE
8
BLACK
6
CONTINUOUS
10
130.411
20
-160.297
11
130.221
21
-160.202
0
LINE
8
BLACK
6
CONTINUOUS
10
130.221
20
-160.202
11
130.126
21
-160.107
0
LINE
8
BLACK
6
CONTINUOUS
10
132.03
20
-158.297
11
132.03
21
-158.678
0
LINE
8
BLACK
6
CONTINUOUS
10
132.792
20
-158.297
11
132.792
21
-158.678
0
LINE
8
BLACK
6
CONTINUOUS
10
135.745
20
-161.059
11
135.649
21
-160.964
0
LINE
8
BLACK
6
CONTINUOUS
10
135.649
20
-160.964
11
135.459
21
-160.678
0
LINE
8
BLACK
6
CONTINUOUS
10
135.459
20
-160.678
11
135.364
21
-160.488
0
LINE
8
BLACK
6
CONTINUOUS
10
135.364
20
-160.488
11
135.268
21
-160.202
0
LINE
8
BLACK
6
CONTINUOUS
10
135.268
20
-160.202
11
135.173
21
-159.726
0
LINE
8
BLACK
6
CONTINUOUS
10
135.173
20
-159.726
11
135.173
21
-159.345
0
LINE
8
BLACK
6
CONTINUOUS
10
135.173
20
-159.345
11
135.268
21
-158.869
0
LINE
8
BLACK
6
CONTINUOUS
10
135.268
20
-158.869
11
135.364
21
-158.583
0
LINE
8
BLACK
6
CONTINUOUS
10
135.364
20
-158.583
11
135.459
21
-158.393
0
LINE
8
BLACK
6
CONTINUOUS
10
135.459
20
-158.393
11
135.649
21
-158.107
0
LINE
8
BLACK
6
CONTINUOUS
10
135.649
20
-158.107
11
135.745
21
-158.012
0
LINE
8
BLACK
6
CONTINUOUS
10
137.554
20
-160.297
11
136.411
21
-160.297
0
LINE
8
BLACK
6
CONTINUOUS
10
136.983
20
-160.297
11
136.983
21
-158.297
0
LINE
8
BLACK
6
CONTINUOUS
10
136.983
20
-158.297
11
136.792
21
-158.583
0
LINE
8
BLACK
6
CONTINUOUS
10
136.792
20
-158.583
11
136.602
21
-158.774
0
LINE
8
BLACK
6
CONTINUOUS
10
136.602
20
-158.774
11
136.411
21
-158.869
0
LINE
8
BLACK
6
CONTINUOUS
10
139.935
20
-160.297
11
139.935
21
-158.297
0
LINE
8
BLACK
6
CONTINUOUS
10
140.792
20
-160.297
11
140.792
21
-159.25
0
LINE
8
BLACK
6
CONTINUOUS
10
140.792
20
-159.25
11
140.697
21
-159.059
0
LINE
8
BLACK
6
CONTINUOUS
10
140.697
20
-159.059
11
140.506
21
-158.964
0
LINE
8
BLACK
6
CONTINUOUS
10
140.506
20
-158.964
11
140.221
21
-158.964
0
LINE
8
BLACK
6
CONTINUOUS
10
140.221
20
-158.964
11
140.03
21
-159.059
0
LINE
8
BLACK
6
CONTINUOUS
10
140.03
20
-159.059
11
139.935
21
-159.154
0
LINE
8
BLACK
6
CONTINUOUS
10
142.03
20
-160.297
11
141.84
21
-160.202
0
LINE
8
BLACK
6
CONTINUOUS
10
141.84
20
-160.202
11
141.745
21
-160.107
0
LINE
8
BLACK
6
CONTINUOUS
10
141.745
20
-160.107
11
141.649
21
-159.916
0
LINE
8
BLACK
6
CONTINUOUS
10
141.649
20
-159.916
11
141.649
21
-159.345
0
LINE
8
BLACK
6
CONTINUOUS
10
141.649
20
-159.345
11
141.745
21
-159.154
0
LINE
8
BLACK
6
CONTINUOUS
10
141.745
20
-159.154
11
141.84
21
-159.059
0
LINE
8
BLACK
6
CONTINUOUS
10
141.84
20
-159.059
11
142.03
21
-158.964
0
LINE
8
BLACK
6
CONTINUOUS
10
142.03
20
-158.964
11
142.316
21
-158.964
0
LINE
8
BLACK
6
CONTINUOUS
10
142.316
20
-158.964
11
142.506
21
-159.059
0
LINE
8
BLACK
6
CONTINUOUS
10
142.506
20
-159.059
11
142.602
21
-159.154
0
LINE
8
BLACK
6
CONTINUOUS
10
142.602
20
-159.154
11
142.697
21
-159.345
0
LINE
8
BLACK
6
CONTINUOUS
10
142.697
20
-159.345
11
142.697
21
-159.916
0
LINE
8
BLACK
6
CONTINUOUS
10
142.697
20
-159.916
11
142.602
21
-160.107
0
LINE
8
BLACK
6
CONTINUOUS
10
142.602
20
-160.107
11
142.506
21
-160.202
0
LINE
8
BLACK
6
CONTINUOUS
10
142.506
20
-160.202
11
142.316
21
-160.297
0
LINE
8
BLACK
6
CONTINUOUS
10
142.316
20
-160.297
11
142.03
21
-160.297
0
LINE
8
BLACK
6
CONTINUOUS
10
143.84
20
-160.297
11
143.649
21
-160.202
0
LINE
8
BLACK
6
CONTINUOUS
10
143.649
20
-160.202
11
143.554
21
-160.012
0
LINE
8
BLACK
6
CONTINUOUS
10
143.554
20
-160.012
11
143.554
21
-158.297
0
LINE
8
BLACK
6
CONTINUOUS
10
145.364
20
-160.202
11
145.173
21
-160.297
0
LINE
8
BLACK
6
CONTINUOUS
10
145.173
20
-160.297
11
144.792
21
-160.297
0
LINE
8
BLACK
6
CONTINUOUS
10
144.792
20
-160.297
11
144.602
21
-160.202
0
LINE
8
BLACK
6
CONTINUOUS
10
144.602
20
-160.202
11
144.506
21
-160.012
0
LINE
8
BLACK
6
CONTINUOUS
10
144.506
20
-160.012
11
144.506
21
-159.25
0
LINE
8
BLACK
6
CONTINUOUS
10
144.506
20
-159.25
11
144.602
21
-159.059
0
LINE
8
BLACK
6
CONTINUOUS
10
144.602
20
-159.059
11
144.792
21
-158.964
0
LINE
8
BLACK
6
CONTINUOUS
10
144.792
20
-158.964
11
145.173
21
-158.964
0
LINE
8
BLACK
6
CONTINUOUS
10
145.173
20
-158.964
11
145.364
21
-159.059
0
LINE
8
BLACK
6
CONTINUOUS
10
145.364
20
-159.059
11
145.459
21
-159.25
0
LINE
8
BLACK
6
CONTINUOUS
10
145.459
20
-159.25
11
145.459
21
-159.44
0
LINE
8
BLACK
6
CONTINUOUS
10
145.459
20
-159.44
11
144.506
21
-159.631
0
LINE
8
BLACK
6
CONTINUOUS
10
146.126
20
-161.059
11
146.221
21
-160.964
0
LINE
8
BLACK
6
CONTINUOUS
10
146.221
20
-160.964
11
146.411
21
-160.678
0
LINE
8
BLACK
6
CONTINUOUS
10
146.411
20
-160.678
11
146.506
21
-160.488
0
LINE
8
BLACK
6
CONTINUOUS
10
146.506
20
-160.488
11
146.602
21
-160.202
0
LINE
8
BLACK
6
CONTINUOUS
10
146.602
20
-160.202
11
146.697
21
-159.726
0
LINE
8
BLACK
6
CONTINUOUS
10
146.697
20
-159.726
11
146.697
21
-159.345
0
LINE
8
BLACK
6
CONTINUOUS
10
146.697
20
-159.345
11
146.602
21
-158.869
0
LINE
8
BLACK
6
CONTINUOUS
10
146.602
20
-158.869
11
146.506
21
-158.583
0
LINE
8
BLACK
6
CONTINUOUS
10
146.506
20
-158.583
11
146.411
21
-158.393
0
LINE
8
BLACK
6
CONTINUOUS
10
146.411
20
-158.393
11
146.221
21
-158.107
0
LINE
8
BLACK
6
CONTINUOUS
10
146.221
20
-158.107
11
146.126
21
-158.012
  0
ENDSEC
  0
EOF
