%TF.GenerationSoftware,KiCad,Pcbnew,(6.0.7)*%
%TF.CreationDate,2022-10-09T20:43:52-07:00*%
%TF.ProjectId,IEEE_PCB_SMD,49454545-5f50-4434-925f-534d442e6b69,rev?*%
%TF.SameCoordinates,Original*%
%TF.FileFunction,Copper,L2,Bot*%
%TF.FilePolarity,Positive*%
%FSLAX46Y46*%
G04 Gerber Fmt 4.6, Leading zero omitted, Abs format (unit mm)*
G04 Created by KiCad (PCBNEW (6.0.7)) date 2022-10-09 20:43:52*
%MOMM*%
%LPD*%
G01*
G04 APERTURE LIST*
%TA.AperFunction,ComponentPad*%
%ADD10C,1.600000*%
%TD*%
%TA.AperFunction,ComponentPad*%
%ADD11C,1.500000*%
%TD*%
%TA.AperFunction,ComponentPad*%
%ADD12C,2.000000*%
%TD*%
%TA.AperFunction,ComponentPad*%
%ADD13C,6.000000*%
%TD*%
%TA.AperFunction,ComponentPad*%
%ADD14O,1.600000X1.600000*%
%TD*%
%TA.AperFunction,SMDPad,CuDef*%
%ADD15R,6.000000X3.000000*%
%TD*%
%TA.AperFunction,SMDPad,CuDef*%
%ADD16C,17.800000*%
%TD*%
%TA.AperFunction,ComponentPad*%
%ADD17R,1.600000X1.600000*%
%TD*%
%TA.AperFunction,ViaPad*%
%ADD18C,0.800000*%
%TD*%
%TA.AperFunction,Conductor*%
%ADD19C,0.250000*%
%TD*%
G04 APERTURE END LIST*
D10*
%TO.P,RV1,1,1*%
%TO.N,Net-(R1-Pad2)*%
X151565000Y-80175000D03*
%TO.P,RV1,2,2*%
%TO.N,Net-(C2-Pad1)*%
X149065000Y-77675000D03*
%TO.P,RV1,3,3*%
%TO.N,GND*%
X146565000Y-80175000D03*
%TD*%
D11*
%TO.P,U2,1,Q5*%
%TO.N,unconnected-(U2-Pad1)*%
X161567846Y-79600154D03*
%TO.P,U2,2,Q1*%
%TO.N,Net-(U2-Pad2)*%
X161567846Y-82140154D03*
%TO.P,U2,3,Q0*%
%TO.N,Net-(U2-Pad3)*%
X161567846Y-84680154D03*
%TO.P,U2,4,Q2*%
%TO.N,Net-(U2-Pad4)*%
X161567846Y-87220154D03*
%TO.P,U2,5,Q6*%
%TO.N,unconnected-(U2-Pad5)*%
X161567846Y-89760154D03*
%TO.P,U2,6,Q7*%
%TO.N,unconnected-(U2-Pad6)*%
X161567846Y-92300154D03*
%TO.P,U2,7,Q3*%
%TO.N,Net-(U2-Pad15)*%
X161567846Y-94840154D03*
%TO.P,U2,8,GND*%
%TO.N,GND*%
X161567846Y-97380154D03*
%TO.P,U2,9,Q8*%
%TO.N,unconnected-(U2-Pad9)*%
X169187846Y-97380154D03*
%TO.P,U2,10,Q4*%
%TO.N,unconnected-(U2-Pad10)*%
X169187846Y-94840154D03*
%TO.P,U2,11,Q9*%
%TO.N,unconnected-(U2-Pad11)*%
X169187846Y-92300154D03*
%TO.P,U2,12,COUT*%
%TO.N,unconnected-(U2-Pad12)*%
X169187846Y-89760154D03*
%TO.P,U2,13,CKE*%
%TO.N,GND*%
X169187846Y-87220154D03*
%TO.P,U2,14,CLK*%
%TO.N,Signal*%
X169187846Y-84680154D03*
%TO.P,U2,15,Rst*%
%TO.N,Net-(U2-Pad15)*%
X169187846Y-82140154D03*
%TO.P,U2,16,Vdd*%
%TO.N,+3V3*%
X169187846Y-79600154D03*
%TD*%
D12*
%TO.P,SW1,1*%
%TO.N,unconnected-(SW1-Pad1)*%
X152037846Y-111514154D03*
%TO.P,SW1,2*%
%TO.N,Net-(BT1-Pad1)*%
X149537846Y-111514154D03*
%TO.P,SW1,3*%
%TO.N,+3V3*%
X147037846Y-111514154D03*
%TD*%
D13*
%TO.P,REF\u002A\u002A,1*%
%TO.N,N/C*%
X149461000Y-45277000D03*
%TD*%
D10*
%TO.P,R1,1*%
%TO.N,+3V3*%
X145866846Y-72753154D03*
D14*
%TO.P,R1,2*%
%TO.N,Net-(R1-Pad2)*%
X153486846Y-72753154D03*
%TD*%
D11*
%TO.P,U1,1,GND*%
%TO.N,GND*%
X131730846Y-79074961D03*
%TO.P,U1,2,Trig*%
%TO.N,Net-(C2-Pad1)*%
X131730846Y-81614961D03*
%TO.P,U1,3,Out*%
%TO.N,Signal*%
X131730846Y-84154961D03*
%TO.P,U1,4,Rest*%
%TO.N,+3V3*%
X131730846Y-86694961D03*
%TO.P,U1,5,Contrl*%
%TO.N,Net-(C1-Pad1)*%
X139350846Y-86694961D03*
%TO.P,U1,6,Thres*%
%TO.N,Net-(C2-Pad1)*%
X139350846Y-84154961D03*
%TO.P,U1,7,Dischrg*%
%TO.N,Net-(R1-Pad2)*%
X139350846Y-81614961D03*
%TO.P,U1,8,Vcc*%
%TO.N,+3V3*%
X139350846Y-79074961D03*
%TD*%
D15*
%TO.P,BT1,1,+*%
%TO.N,Net-(BT1-Pad1)*%
X149495846Y-106637154D03*
X149495846Y-83737154D03*
D16*
%TO.P,BT1,2,-*%
%TO.N,GND*%
X149495846Y-95187154D03*
%TD*%
D17*
%TO.P,C1,1*%
%TO.N,Net-(C1-Pad1)*%
X129178888Y-93507000D03*
D10*
%TO.P,C1,2*%
%TO.N,GND*%
X131178888Y-93507000D03*
%TD*%
D17*
%TO.P,C2,1*%
%TO.N,Net-(C2-Pad1)*%
X136261888Y-93324000D03*
D10*
%TO.P,C2,2*%
%TO.N,GND*%
X138261888Y-93324000D03*
%TD*%
D18*
%TO.N,GND*%
X155776846Y-95523154D03*
X146745846Y-91746154D03*
X149679849Y-97754833D03*
X154626846Y-88654154D03*
X148277846Y-103049154D03*
X143734846Y-95249154D03*
X142202846Y-98123154D03*
X143871846Y-100504154D03*
X157664846Y-93361154D03*
X156542846Y-99573154D03*
X156159846Y-90487154D03*
X143844846Y-89420154D03*
X157719846Y-96289154D03*
X152081846Y-87504154D03*
X153614846Y-91719154D03*
X149977849Y-99899833D03*
X141408846Y-95003154D03*
X149700846Y-95578154D03*
X146498846Y-87641154D03*
X142147846Y-92075154D03*
X152081846Y-102857154D03*
%TO.N,Net-(U2-Pad15)*%
X164780846Y-79303154D03*
X164563846Y-88568154D03*
%TO.N,Net-(U2-Pad2)*%
X149520846Y-64388154D03*
X163508846Y-101821154D03*
%TO.N,Net-(U2-Pad3)*%
X174254846Y-78635154D03*
X162220846Y-111551154D03*
X167041846Y-86215154D03*
X128411846Y-77374154D03*
%TO.N,Net-(BT1-Pad1)*%
X151638846Y-106024154D03*
X150274846Y-106008154D03*
X150129846Y-84350154D03*
X151686846Y-107335154D03*
X147694846Y-83011154D03*
X148899846Y-82999154D03*
X147694846Y-84362154D03*
X150272846Y-107330154D03*
X151456846Y-83038154D03*
X151435846Y-84340154D03*
X150161846Y-83005154D03*
X148845846Y-107339154D03*
X148852846Y-106003154D03*
X147549846Y-105991154D03*
X148912846Y-84338154D03*
X147540846Y-107312154D03*
%TD*%
D19*
%TO.N,Net-(C2-Pad1)*%
X136261888Y-87243919D02*
X139350846Y-84154961D01*
X136261888Y-93324000D02*
X136261888Y-87243919D01*
%TO.N,+3V3*%
X131730846Y-86694961D02*
X133694846Y-88658961D01*
X131730846Y-86694961D02*
X139350846Y-79074961D01*
X147539846Y-113835154D02*
X147037846Y-113333154D01*
X167444846Y-79600154D02*
X169187846Y-79600154D01*
X147037846Y-113333154D02*
X147037846Y-111514154D01*
X165502846Y-81542154D02*
X167444846Y-79600154D01*
X133694846Y-88658961D02*
X133694846Y-98171154D01*
X147539846Y-113835154D02*
X157583846Y-113835154D01*
X133694846Y-98171154D02*
X147037846Y-111514154D01*
X165502846Y-105916154D02*
X165502846Y-81542154D01*
X157583846Y-113835154D02*
X165502846Y-105916154D01*
%TO.N,Net-(R1-Pad2)*%
X151565000Y-80175000D02*
X149312692Y-80175000D01*
X148187692Y-79050000D02*
X148186692Y-79050000D01*
X147382846Y-78246154D02*
X142719653Y-78246154D01*
X142719653Y-78246154D02*
X139350846Y-81614961D01*
X148186692Y-79050000D02*
X147382846Y-78246154D01*
X149312692Y-80175000D02*
X148187692Y-79050000D01*
%TO.N,Net-(U2-Pad15)*%
X164563846Y-88568154D02*
X164563846Y-79520154D01*
X164563846Y-79520154D02*
X164780846Y-79303154D01*
%TO.N,Net-(U2-Pad2)*%
X149520846Y-72497154D02*
X149520846Y-64388154D01*
X154160846Y-74733154D02*
X151756846Y-74733154D01*
X161567846Y-82140154D02*
X163508846Y-84081154D01*
X151756846Y-74733154D02*
X149520846Y-72497154D01*
X163508846Y-84081154D02*
X163508846Y-101821154D01*
X161567846Y-82140154D02*
X154160846Y-74733154D01*
%TO.N,Net-(U2-Pad3)*%
X166693846Y-107078154D02*
X162220846Y-111551154D01*
X136212846Y-76048154D02*
X134886846Y-77374154D01*
X167041846Y-86215154D02*
X166693846Y-86563154D01*
X161567846Y-84680154D02*
X152935846Y-76048154D01*
X167041846Y-86215154D02*
X167378846Y-85878154D01*
X172176846Y-79655154D02*
X173196846Y-78635154D01*
X166693846Y-86563154D02*
X166693846Y-101944154D01*
X166693846Y-101944154D02*
X166693846Y-107078154D01*
X134886846Y-77374154D02*
X128411846Y-77374154D01*
X173196846Y-78635154D02*
X174254846Y-78635154D01*
X152935846Y-76048154D02*
X136212846Y-76048154D01*
X162220846Y-111551154D02*
X162173846Y-111598154D01*
X170187846Y-85878154D02*
X172176846Y-83889154D01*
X167378846Y-85878154D02*
X170187846Y-85878154D01*
X172176846Y-83889154D02*
X172176846Y-79655154D01*
%TO.N,Net-(BT1-Pad1)*%
X159488846Y-90756154D02*
X152469846Y-83737154D01*
X159488846Y-104311154D02*
X157175846Y-106624154D01*
X159488846Y-90756154D02*
X159488846Y-104311154D01*
X157175846Y-106624154D02*
X149656846Y-106624154D01*
X149495846Y-111472154D02*
X149537846Y-111514154D01*
X149656846Y-111004154D02*
X149529000Y-111132000D01*
X149495846Y-106637154D02*
X149495846Y-111472154D01*
X152469846Y-83737154D02*
X149495846Y-83737154D01*
%TD*%
M02*
