%TF.GenerationSoftware,KiCad,Pcbnew,(6.0.7)*%
%TF.CreationDate,2022-10-09T20:43:52-07:00*%
%TF.ProjectId,IEEE_PCB_SMD,49454545-5f50-4434-925f-534d442e6b69,rev?*%
%TF.SameCoordinates,Original*%
%TF.FileFunction,Profile,NP*%
%FSLAX46Y46*%
G04 Gerber Fmt 4.6, Leading zero omitted, Abs format (unit mm)*
G04 Created by KiCad (PCBNEW (6.0.7)) date 2022-10-09 20:43:52*
%MOMM*%
%LPD*%
G01*
G04 APERTURE LIST*
%TA.AperFunction,Profile*%
%ADD10C,0.024499*%
%TD*%
G04 APERTURE END LIST*
D10*
%TO.C,REF\u002A\u002A*%
X124129972Y-127760390D02*
X125412792Y-127317665D01*
X106874374Y-95637832D02*
X104824343Y-94845275D01*
X116089818Y-124484458D02*
X116124264Y-126328904D01*
X175875097Y-101623474D02*
X173055657Y-99763891D01*
X164085229Y-112549876D02*
X164640622Y-111655471D01*
X109951301Y-107631961D02*
X105983601Y-110333635D01*
X126055609Y-96470146D02*
X126304054Y-97093151D01*
X166256856Y-54358822D02*
X167953702Y-53019926D01*
X149707130Y-39710309D02*
X144151128Y-39710309D01*
X136288270Y-139152014D02*
X137746636Y-138308784D01*
X103012792Y-104549933D02*
X103990412Y-104978371D01*
X125728683Y-95729360D02*
X126055609Y-96470146D01*
X125762791Y-88517078D02*
X125159764Y-89543969D01*
X155357240Y-120978485D02*
X155337791Y-118622995D01*
X155784749Y-62036982D02*
X157495795Y-60753010D01*
X144566106Y-114703452D02*
X144439449Y-118594381D01*
X136770802Y-114206120D02*
X137904104Y-114328558D01*
X130650744Y-50086395D02*
X130245003Y-51047421D01*
X164196825Y-55914120D02*
X166256856Y-54358822D01*
X167530103Y-48930667D02*
X166479665Y-47029176D01*
X134538877Y-74400450D02*
X134172063Y-75046556D01*
X196715112Y-100237337D02*
X194849395Y-97419248D01*
X131426830Y-53030848D02*
X133197924Y-54428603D01*
X122672382Y-99480402D02*
X120323195Y-100806973D01*
X131908402Y-107413230D02*
X132501388Y-108243628D01*
X161859453Y-57598242D02*
X164196825Y-55914120D01*
X131825080Y-47760309D02*
X131189684Y-48955552D01*
X124675901Y-83727821D02*
X127103286Y-85282198D01*
X141378368Y-135954652D02*
X142824577Y-135041158D01*
X140764449Y-114527079D02*
X144566106Y-114703452D01*
X190952651Y-75080218D02*
X192072656Y-74400612D01*
X155014384Y-64952643D02*
X155099357Y-63722700D01*
X111993821Y-97800968D02*
X109247903Y-96606634D01*
X174295034Y-95025763D02*
X174814559Y-93938716D01*
X118844407Y-54310363D02*
X117875257Y-54348397D01*
X143944729Y-41926549D02*
X143936268Y-43116163D01*
X104358555Y-119503244D02*
X105301453Y-121007796D01*
X117192478Y-100032253D02*
X114758489Y-99011638D01*
X126872864Y-86643568D02*
X126365729Y-87526868D01*
X155235730Y-143095769D02*
X155314348Y-141476341D01*
X173703632Y-88921033D02*
X173104955Y-87856928D01*
X132338936Y-136660309D02*
X133117060Y-138162212D01*
X129704832Y-108400049D02*
X130656345Y-107870218D01*
X167125354Y-137360310D02*
X168181953Y-135343868D01*
X173124928Y-72473802D02*
X172447369Y-72939733D01*
X135208540Y-139673152D02*
X136288270Y-139152014D01*
X125899196Y-115310310D02*
X125946377Y-110585309D01*
X116124264Y-126328904D02*
X116188116Y-127882352D01*
X115697233Y-65698674D02*
X114580245Y-64998689D01*
X195108593Y-120218479D02*
X197097915Y-117009970D01*
X174308375Y-90041012D02*
X173703632Y-88921033D01*
X126574887Y-69415397D02*
X126431081Y-66865771D01*
X124650448Y-90539748D02*
X124276461Y-91396212D01*
X191809208Y-108274057D02*
X193583841Y-107469392D01*
X173685197Y-65855777D02*
X173204702Y-72332371D01*
X136519086Y-71338390D02*
X135988633Y-72043196D01*
X173203376Y-121598811D02*
X173385488Y-125159343D01*
X135474497Y-128453681D02*
X133335088Y-129987789D01*
X104028467Y-78892666D02*
X102438534Y-79734866D01*
X111795302Y-63197866D02*
X108701523Y-61303631D01*
X106406592Y-73208313D02*
X110675393Y-75705868D01*
X174147021Y-84975392D02*
X176502662Y-83723537D01*
X187136448Y-121796499D02*
X189746315Y-123484632D01*
X198501880Y-81058586D02*
X197186346Y-80331586D01*
X137904104Y-114328558D02*
X139264815Y-114441160D01*
X196698784Y-86161049D02*
X197389105Y-84903138D01*
X144137792Y-66196319D02*
X144137792Y-69810309D01*
X155314348Y-141476341D02*
X155337792Y-139172619D01*
X133708491Y-75705231D02*
X130467962Y-73906408D01*
X135399573Y-112951635D02*
X136045823Y-113849309D01*
X125412792Y-127317665D02*
X125632404Y-123676487D01*
X143902062Y-44513427D02*
X143830457Y-46117414D01*
X168635991Y-75236757D02*
X167797044Y-75739000D01*
X125632404Y-123676487D02*
X125720075Y-121946281D01*
X193831284Y-78569878D02*
X191604159Y-77410287D01*
X116131749Y-119518554D02*
X116102547Y-122383574D01*
X102438534Y-79734866D02*
X101124433Y-80479381D01*
X154987792Y-70160309D02*
X154987792Y-66552205D01*
X127282210Y-85890211D02*
X126872864Y-86643568D01*
X122351693Y-82311087D02*
X124675901Y-83727821D01*
X103942101Y-65658916D02*
X102332411Y-68615660D01*
X107532046Y-106549004D02*
X109951301Y-107631961D01*
X158685801Y-114610309D02*
X160014640Y-114585294D01*
X116899401Y-83454101D02*
X119073025Y-82510553D01*
X161238126Y-114509806D02*
X162252341Y-114402271D01*
X141950292Y-69865093D02*
X139512410Y-69950824D01*
X134668821Y-111829303D02*
X135399573Y-112951635D01*
X165178083Y-110774705D02*
X165694331Y-110007509D01*
X186003842Y-65161880D02*
X184689434Y-65905731D01*
X119073025Y-82510553D02*
X120669960Y-81899449D01*
X144293709Y-141031054D02*
X144293903Y-142650445D01*
X172218735Y-86098816D02*
X174147021Y-84975392D01*
X168400895Y-50647136D02*
X167530103Y-48930667D01*
X120013121Y-54315257D02*
X118844407Y-54310363D01*
X190018497Y-75657813D02*
X190952651Y-75080218D01*
X182812792Y-130169767D02*
X182987792Y-124676228D01*
X159530015Y-59261637D02*
X161859453Y-57598242D01*
X183855482Y-57801022D02*
X183884538Y-56349725D01*
X163514773Y-113359556D02*
X164085229Y-112549876D01*
X158085563Y-70160309D02*
X154987792Y-70160309D01*
X165992912Y-75449784D02*
X164913927Y-73686543D01*
X149680106Y-145060309D02*
X151868428Y-145036601D01*
X183162792Y-119182688D02*
X187136448Y-121796499D01*
X169623338Y-74652917D02*
X168635991Y-75236757D01*
X134172063Y-75046556D02*
X133852649Y-75606233D01*
X102611252Y-116574331D02*
X104358555Y-119503244D01*
X178692514Y-55105099D02*
X175693978Y-55337130D01*
X103103976Y-112461778D02*
X102033281Y-113368464D01*
X174616418Y-56290099D02*
X174159780Y-60624007D01*
X167950708Y-131296906D02*
X162632320Y-127520693D01*
X155099357Y-63722700D02*
X155231204Y-62816912D01*
X197843614Y-69291522D02*
X196161176Y-66361672D01*
X109247903Y-96606634D02*
X106874374Y-95637832D01*
X161227828Y-46445172D02*
X159537792Y-47585309D01*
X144434300Y-137135340D02*
X144368475Y-138960978D01*
X183486207Y-65015430D02*
X183569632Y-63384326D01*
X181934255Y-83439646D02*
X184363729Y-84571597D01*
X157495795Y-60753010D02*
X159530015Y-59261637D01*
X124254817Y-92300810D02*
X124517433Y-93075339D01*
X109363989Y-87009264D02*
X113886435Y-84876696D01*
X110034880Y-120860648D02*
X111553785Y-119924375D01*
X139719888Y-137038729D02*
X141378368Y-135954652D01*
X131189684Y-48955552D02*
X130650744Y-50086395D01*
X125159764Y-89543969D02*
X124650448Y-90539748D01*
X124910338Y-98150670D02*
X122672382Y-99480402D01*
X174926084Y-130052234D02*
X177708636Y-130451885D01*
X126431081Y-66865771D02*
X126273910Y-63847485D01*
X154987792Y-66552205D02*
X155014384Y-64952643D01*
X192072656Y-74400612D02*
X193312791Y-73662669D01*
X126273910Y-63847485D02*
X125888519Y-57445444D01*
X116987319Y-55747206D02*
X116831229Y-57329612D01*
X173569329Y-127488533D02*
X173763511Y-129094342D01*
X103119421Y-71160268D02*
X106406592Y-73208313D01*
X124517433Y-93075339D02*
X124880378Y-93968335D01*
X155018237Y-47215535D02*
X155078069Y-45135309D01*
X173385488Y-125159343D02*
X173569329Y-127488533D01*
X182987792Y-124676228D02*
X183162792Y-119182688D01*
X126710622Y-71704805D02*
X126574887Y-69415397D01*
X116082366Y-118089241D02*
X116131749Y-119518554D01*
X126365729Y-87526868D02*
X125762791Y-88517078D01*
X144293903Y-142650445D02*
X144352791Y-143871852D01*
X108650514Y-121627089D02*
X110034880Y-120860648D01*
X172616125Y-86951743D02*
X172201865Y-86159886D01*
X197186346Y-80331586D02*
X195618080Y-79492281D01*
X176502662Y-83723537D02*
X178835450Y-82545011D01*
X174159780Y-60624007D02*
X173685197Y-65855777D01*
X114758489Y-99011638D02*
X111993821Y-97800968D01*
X174814559Y-93938716D02*
X175197302Y-93008015D01*
X155337791Y-118622995D02*
X155337792Y-114610309D01*
X144439449Y-118594381D02*
X144312792Y-122485309D01*
X119276655Y-100873017D02*
X117192478Y-100032253D01*
X151868428Y-145036601D02*
X153421863Y-144957553D01*
X121290798Y-54374942D02*
X120013121Y-54315257D01*
X133197924Y-54428603D02*
X136350291Y-56722817D01*
X183684461Y-61463138D02*
X183792445Y-59515907D01*
X186285374Y-100287895D02*
X178737402Y-103465481D01*
X143830457Y-46117414D02*
X143612792Y-50249519D01*
X125946377Y-110585309D02*
X128644868Y-109010309D01*
X105879590Y-77984680D02*
X104028467Y-78892666D01*
X197389105Y-84903138D02*
X198225476Y-83349666D01*
X155078069Y-45135309D02*
X155263132Y-39710309D01*
X181843673Y-130509930D02*
X182812792Y-130169767D01*
X190008041Y-110493670D02*
X189012738Y-109816559D01*
X116673006Y-60372352D02*
X116528195Y-63127863D01*
X155263132Y-39710309D02*
X149707130Y-39710309D01*
X104444584Y-111423089D02*
X103103976Y-112461778D01*
X133335088Y-129987789D02*
X131555904Y-131317504D01*
X155337792Y-134124929D02*
X156125291Y-134702111D01*
X116102547Y-122383574D02*
X116089818Y-124484458D01*
X133915601Y-110546779D02*
X134668821Y-111829303D01*
X190315026Y-108979853D02*
X191809208Y-108274057D01*
X173104955Y-87856928D02*
X172616125Y-86951743D01*
X113008372Y-118990293D02*
X114309337Y-118158348D01*
X166427540Y-138521327D02*
X167125354Y-137360310D01*
X183569632Y-63384326D02*
X183684461Y-61463138D01*
X116918461Y-128575083D02*
X119581747Y-128469815D01*
X102008000Y-98437000D02*
X100275376Y-101340332D01*
X179849337Y-82503703D02*
X181934255Y-83439646D01*
X144368475Y-138960978D02*
X144293709Y-141031054D01*
X164640622Y-111655471D02*
X165178083Y-110774705D01*
X153421863Y-144957553D02*
X154524901Y-144836115D01*
X130656345Y-107870218D02*
X131463548Y-107434679D01*
X165694331Y-110007509D02*
X166148785Y-109393227D01*
X113268963Y-64160552D02*
X111795302Y-63197866D01*
X157864753Y-48725815D02*
X156430706Y-49686403D01*
X161715912Y-138468071D02*
X164201237Y-139950582D01*
X172531075Y-98275916D02*
X173679391Y-96155016D01*
X191163493Y-111257664D02*
X190008041Y-110493670D01*
X125720075Y-121946281D02*
X125801364Y-119716937D01*
X144137792Y-69810309D02*
X141950292Y-69865093D01*
X137746636Y-138308784D02*
X139719888Y-137038729D01*
X100928182Y-81289681D02*
X102337374Y-84016191D01*
X189210156Y-99070105D02*
X186285374Y-100287895D01*
X193949191Y-97172738D02*
X191745298Y-98044216D01*
X190941330Y-87772930D02*
X192994188Y-88678993D01*
X144312792Y-122485309D02*
X137942127Y-126764361D01*
X144410115Y-134323713D02*
X144440645Y-135602732D01*
X198464559Y-103026154D02*
X196715112Y-100237337D01*
X196116927Y-87265592D02*
X196698784Y-86161049D01*
X172904139Y-116084167D02*
X173059242Y-118668526D01*
X144151128Y-39710309D02*
X143936510Y-40565417D01*
X133179405Y-109288448D02*
X133915601Y-110546779D01*
X172447369Y-72939733D02*
X171624073Y-73470388D01*
X114580245Y-64998689D02*
X113268963Y-64160552D01*
X125309974Y-94873506D02*
X125728683Y-95729360D01*
X162632320Y-127520693D02*
X157539247Y-123934916D01*
X169651857Y-110918934D02*
X172104635Y-112601182D01*
X177708636Y-130451885D02*
X180485376Y-130699875D01*
X114309337Y-118158348D02*
X115407410Y-117458875D01*
X174819532Y-91120232D02*
X174308375Y-90041012D01*
X192535140Y-112131324D02*
X191163493Y-111257664D01*
X187126741Y-85914435D02*
X190941330Y-87772930D01*
X125865156Y-117385218D02*
X125899196Y-115310310D01*
X107495502Y-122191007D02*
X108650514Y-121627089D01*
X170650291Y-74053049D02*
X169623338Y-74652917D01*
X171624073Y-73470388D02*
X170650291Y-74053049D01*
X139492061Y-47407461D02*
X135966734Y-45089772D01*
X173679391Y-96155016D02*
X174295034Y-95025763D01*
X156430706Y-49686403D02*
X155160241Y-50526580D01*
X178737402Y-103465481D02*
X175875097Y-101623474D01*
X184363729Y-84571597D02*
X187126741Y-85914435D01*
X162997312Y-114006457D02*
X163514773Y-113359556D01*
X137942127Y-126764361D02*
X135474497Y-128453681D01*
X154992870Y-48966716D02*
X155018237Y-47215535D01*
X173059242Y-118668526D02*
X173203376Y-121598811D01*
X135441896Y-72851579D02*
X134960691Y-73652547D01*
X155114977Y-144241673D02*
X155235730Y-143095769D01*
X131359948Y-134591211D02*
X132338936Y-136660309D01*
X181640588Y-54992386D02*
X178692514Y-55105099D01*
X116831229Y-57329612D02*
X116673006Y-60372352D01*
X189017304Y-109611552D02*
X190315026Y-108979853D01*
X195618080Y-79492281D02*
X193831284Y-78569878D01*
X183421058Y-66461770D02*
X183486207Y-65015430D01*
X193312791Y-73662669D02*
X195491414Y-72331867D01*
X155337792Y-114610309D02*
X158685801Y-114610309D01*
X158941232Y-136683182D02*
X161715912Y-138468071D01*
X119581747Y-128469815D02*
X122257924Y-128206422D01*
X163998117Y-44686990D02*
X162715846Y-45484216D01*
X142824577Y-135041158D02*
X144080387Y-134270021D01*
X105206573Y-105515058D02*
X106452943Y-106067685D01*
X160014640Y-114585294D02*
X161238126Y-114509806D01*
X196161176Y-66361672D02*
X194496215Y-63589980D01*
X110675393Y-75705868D02*
X105879590Y-77984680D01*
X162715846Y-45484216D02*
X161227828Y-46445172D01*
X187549214Y-64262613D02*
X186003842Y-65161880D01*
X175196571Y-92044655D02*
X174819532Y-91120232D01*
X134960691Y-73652547D02*
X134538877Y-74400450D01*
X146804296Y-145042198D02*
X149680106Y-145060309D01*
X136350291Y-56722817D02*
X142158713Y-60925688D01*
X130467962Y-73906408D02*
X127504125Y-72251316D01*
X160945519Y-70264663D02*
X158085563Y-70160309D01*
X105983601Y-110333635D02*
X104444584Y-111423089D01*
X124880378Y-93968335D02*
X125309974Y-94873506D01*
X103787796Y-95598402D02*
X102008000Y-98437000D01*
X184689434Y-65905731D02*
X183525152Y-66551380D01*
X128644868Y-109010309D02*
X129704832Y-108400049D01*
X191019256Y-62246645D02*
X187549214Y-64262613D01*
X132501388Y-108243628D02*
X133179405Y-109288448D01*
X101292237Y-103768239D02*
X103012792Y-104549933D01*
X125801364Y-119716937D02*
X125865156Y-117385218D01*
X172751524Y-113894339D02*
X172904139Y-116084167D01*
X106452943Y-106067685D02*
X107532046Y-106549004D01*
X193583841Y-107469392D02*
X196684880Y-106055303D01*
X191745298Y-98044216D02*
X189210156Y-99070105D01*
X102337374Y-84016191D02*
X103737167Y-86564303D01*
X156125291Y-134702111D02*
X158941232Y-136683182D01*
X111553785Y-119924375D02*
X113008372Y-118990293D01*
X155337792Y-139172619D02*
X155337792Y-134124929D01*
X106219354Y-62025338D02*
X103942101Y-65658916D01*
X167797044Y-75739000D02*
X167356397Y-76013360D01*
X135988633Y-72043196D02*
X135441896Y-72851579D01*
X183792445Y-59515907D02*
X183855482Y-57801022D01*
X116528195Y-63127863D02*
X116379635Y-64737190D01*
X143612792Y-50249519D02*
X139492061Y-47407461D01*
X154986806Y-50499065D02*
X154992870Y-48966716D01*
X195399259Y-113956377D02*
X192535140Y-112131324D01*
X139264815Y-114441160D02*
X140764449Y-114527079D01*
X144440645Y-135602732D02*
X144434300Y-137135340D01*
X193097747Y-123333084D02*
X195108593Y-120218479D01*
X103990412Y-104978371D02*
X105206573Y-105515058D01*
X113886435Y-84876696D02*
X116899401Y-83454101D01*
X159537792Y-47585309D02*
X157864753Y-48725815D01*
X195633695Y-88216117D02*
X196116927Y-87265592D01*
X167107985Y-109302477D02*
X169651857Y-110918934D01*
X116379635Y-64737190D02*
X116214592Y-65721039D01*
X115407410Y-117458875D02*
X115725995Y-117262833D01*
X143936268Y-43116163D02*
X143902062Y-44513427D01*
X195386657Y-88712193D02*
G75*
G03*
X195543188Y-88540028I-1005457J1071393D01*
G01*
X131555910Y-131317512D02*
G75*
G03*
X131204627Y-131728852I766190J-1009988D01*
G01*
X168755305Y-133822449D02*
G75*
G03*
X168910384Y-132694439I-4076105J1135049D01*
G01*
X119276653Y-100873021D02*
G75*
G03*
X119731495Y-100960310I454847J1141421D01*
G01*
X145564990Y-144954012D02*
G75*
G03*
X146804295Y-145042197I1373510J10550212D01*
G01*
X126710637Y-71704804D02*
G75*
G03*
X126741634Y-71761580I75563J4404D01*
G01*
X195543188Y-88540029D02*
G75*
G03*
X195587792Y-88409510I-168688J130529D01*
G01*
X101936323Y-115277877D02*
G75*
G03*
X102611252Y-116574332I12704077J5789777D01*
G01*
X162417484Y-70679698D02*
G75*
G03*
X160945519Y-70264663I-1750284J-3389802D01*
G01*
X121274882Y-81869643D02*
G75*
G03*
X120669959Y-81899449I-253482J-1008957D01*
G01*
X131908392Y-107413237D02*
G75*
G03*
X131703076Y-107340850I-156092J-115363D01*
G01*
X163526742Y-71619140D02*
G75*
G03*
X162417490Y-70679687I-2597142J-1941960D01*
G01*
X189690863Y-76161448D02*
G75*
G03*
X190351077Y-76669977I3553837J3931048D01*
G01*
X164839546Y-44842360D02*
G75*
G03*
X164269275Y-44610309I-570246J-584640D01*
G01*
X101124433Y-80479381D02*
G75*
G03*
X100899887Y-80742730I260416J-449450D01*
G01*
X197097919Y-117009973D02*
G75*
G03*
X197337791Y-116154727I-1404819J855273D01*
G01*
X155425292Y-62389244D02*
G75*
G03*
X155231204Y-62816911I770508J-607556D01*
G01*
X155647745Y-122633207D02*
G75*
G03*
X156015518Y-122998389I794155J432007D01*
G01*
X144137789Y-66196319D02*
G75*
G03*
X144004327Y-63456126I-28194689J119D01*
G01*
X198037801Y-70029951D02*
G75*
G03*
X197843614Y-69291521I-1500901J51D01*
G01*
X116298177Y-128236625D02*
G75*
G03*
X116918460Y-128575083I607223J375225D01*
G01*
X101752283Y-113784537D02*
G75*
G03*
X101691035Y-114465679I1310744J-461186D01*
G01*
X164269275Y-44610314D02*
G75*
G03*
X163998118Y-44686990I25J-517886D01*
G01*
X117495601Y-54450504D02*
G75*
G03*
X117184088Y-54825468I274699J-545096D01*
G01*
X192994189Y-88678990D02*
G75*
G03*
X194275040Y-89119207I4832111J11975990D01*
G01*
X165992911Y-75449784D02*
G75*
G03*
X166468431Y-76033000I2547089J1591284D01*
G01*
X162252339Y-114402256D02*
G75*
G03*
X162673106Y-114268169I-152239J1204956D01*
G01*
X155447974Y-122042254D02*
G75*
G03*
X155647768Y-122633195I1797426J278454D01*
G01*
X189017287Y-109611517D02*
G75*
G03*
X188956189Y-109710309I48013J-97983D01*
G01*
X134631403Y-139751215D02*
G75*
G03*
X135208541Y-139673152I150297J1061315D01*
G01*
X134153660Y-139541468D02*
G75*
G03*
X134631400Y-139751228I613240J747768D01*
G01*
X133676493Y-139040585D02*
G75*
G03*
X134153646Y-139541485I2265507J1680385D01*
G01*
X164920441Y-140089460D02*
G75*
G03*
X165320289Y-139898457I-107641J739360D01*
G01*
X155047906Y-50560310D02*
G75*
G03*
X155160241Y-50526579I94J203610D01*
G01*
X175285206Y-92525917D02*
G75*
G03*
X175196572Y-92044655I-1372506J-3983D01*
G01*
X189746315Y-123484632D02*
G75*
G03*
X190937669Y-124130262I5209585J8191032D01*
G01*
X198225471Y-83349663D02*
G75*
G03*
X198692680Y-82321097I-9512671J4941363D01*
G01*
X175693980Y-55337148D02*
G75*
G03*
X174891466Y-55715381I122620J-1300652D01*
G01*
X197337770Y-116154727D02*
G75*
G03*
X197145538Y-115478090I-1286870J27D01*
G01*
X127282221Y-85890217D02*
G75*
G03*
X127330059Y-85687702I-360721J192117D01*
G01*
X117875257Y-54348389D02*
G75*
G03*
X117495603Y-54450507I56543J-967011D01*
G01*
X143944709Y-41926549D02*
G75*
G03*
X143885007Y-41702917I-445509J849D01*
G01*
X130245012Y-51047425D02*
G75*
G03*
X130153266Y-51501238I1207888J-480375D01*
G01*
X197938560Y-105346607D02*
G75*
G03*
X198519567Y-104740394I-1108360J1643807D01*
G01*
X127330051Y-85687702D02*
G75*
G03*
X127103286Y-85282199I-498651J-12698D01*
G01*
X101691036Y-114465679D02*
G75*
G03*
X101936323Y-115277876I3127654J501429D01*
G01*
X119731495Y-100960318D02*
G75*
G03*
X120323194Y-100806973I5J1218218D01*
G01*
X166479664Y-47029177D02*
G75*
G03*
X165590225Y-45694316I-11786564J-6889823D01*
G01*
X100166204Y-102831385D02*
G75*
G03*
X100526720Y-103295750I1104153J485096D01*
G01*
X198519572Y-104740397D02*
G75*
G03*
X198732432Y-103998843I-1227572J753697D01*
G01*
X133708485Y-75705241D02*
G75*
G03*
X133802750Y-75684017I35215J63541D01*
G01*
X172218727Y-86098803D02*
G75*
G03*
X172201865Y-86159887I24373J-39597D01*
G01*
X131204627Y-131728852D02*
G75*
G03*
X130930496Y-132562897I2236473J-1197148D01*
G01*
X179408683Y-82410307D02*
G75*
G03*
X178835450Y-82545011I-83J-1286693D01*
G01*
X194849390Y-97419252D02*
G75*
G03*
X194273070Y-97111981I-578990J-391848D01*
G01*
X139512410Y-69950818D02*
G75*
G03*
X138379531Y-70091103I331890J-7324682D01*
G01*
X166362554Y-109233828D02*
G75*
G03*
X166148786Y-109393226I176446J-459672D01*
G01*
X168669200Y-51940047D02*
G75*
G03*
X168676186Y-51402942I-1034000J282047D01*
G01*
X124187780Y-91854232D02*
G75*
G03*
X124254818Y-92300810I1518520J-368D01*
G01*
X154986791Y-50499065D02*
G75*
G03*
X155047906Y-50560309I61109J-135D01*
G01*
X138379532Y-70091106D02*
G75*
G03*
X137636384Y-70369726I505468J-2478594D01*
G01*
X104525801Y-94873622D02*
G75*
G03*
X103787797Y-95598402I1230639J-1991218D01*
G01*
X102332411Y-68615660D02*
G75*
G03*
X102233177Y-69996078I1642453J-811847D01*
G01*
X196920035Y-71334358D02*
G75*
G03*
X197815742Y-70557302I-6112635J7950758D01*
G01*
X166468422Y-76033009D02*
G75*
G03*
X166868014Y-76176323I361678J379709D01*
G01*
X157539247Y-123934916D02*
G75*
G03*
X156015518Y-122998389I-8595147J-12276484D01*
G01*
X192111726Y-61771488D02*
G75*
G03*
X191019256Y-62246645I1589674J-5148412D01*
G01*
X183421088Y-66461771D02*
G75*
G03*
X183451857Y-66541041I105312J-4729D01*
G01*
X195491414Y-72331867D02*
G75*
G03*
X196920035Y-71334358I-10144814J16051067D01*
G01*
X143866352Y-40913496D02*
G75*
G03*
X143832851Y-41252290I3159848J-483504D01*
G01*
X165320286Y-139898454D02*
G75*
G03*
X165829820Y-139353502I-3508386J3791054D01*
G01*
X135966729Y-45089780D02*
G75*
G03*
X134503930Y-44705794I-1346129J-2149820D01*
G01*
X124276475Y-91396218D02*
G75*
G03*
X124187792Y-91854232I1138225J-457982D01*
G01*
X172751522Y-113894339D02*
G75*
G03*
X172657113Y-113376430I-2446222J-178361D01*
G01*
X100526720Y-103295750D02*
G75*
G03*
X101292238Y-103768239I2493790J3184010D01*
G01*
X183824345Y-56011369D02*
G75*
G03*
X183703364Y-55813479I-597945J-229631D01*
G01*
X172657114Y-113376430D02*
G75*
G03*
X172104635Y-112601182I-1403014J-415370D01*
G01*
X168676186Y-51402942D02*
G75*
G03*
X168400895Y-50647136I-3583386J-877158D01*
G01*
X104695183Y-87957040D02*
G75*
G03*
X105478776Y-88282735I695497J567830D01*
G01*
X164913925Y-73686544D02*
G75*
G03*
X163526743Y-71619138I-20908525J-12530056D01*
G01*
X125372269Y-55630077D02*
G75*
G03*
X124222361Y-54767218I-1484669J-780923D01*
G01*
X130378854Y-52064896D02*
G75*
G03*
X131426829Y-53030848I11370246J11284296D01*
G01*
X190351077Y-76669976D02*
G75*
G03*
X191604159Y-77410287I9032523J13858176D01*
G01*
X194275031Y-89119239D02*
G75*
G03*
X194903093Y-89052120I231169J808939D01*
G01*
X167953697Y-53019919D02*
G75*
G03*
X168408492Y-52519059I-1352497J1685019D01*
G01*
X194273069Y-97111975D02*
G75*
G03*
X193949191Y-97172738I-3269J-876125D01*
G01*
X183884557Y-56349725D02*
G75*
G03*
X183824360Y-56011364I-908957J12825D01*
G01*
X190018495Y-75657810D02*
G75*
G03*
X189701673Y-75878292I2012605J-3229890D01*
G01*
X144004338Y-63456125D02*
G75*
G03*
X143468387Y-62162197I-2395038J-234075D01*
G01*
X143835533Y-41539406D02*
G75*
G03*
X143885006Y-41702917I372967J23606D01*
G01*
X130153248Y-51501238D02*
G75*
G03*
X130378854Y-52064897I777552J-15762D01*
G01*
X197815737Y-70557297D02*
G75*
G03*
X198037792Y-70029951I-515037J527297D01*
G01*
X136933314Y-70887993D02*
G75*
G03*
X136519086Y-71338390I2872286J-3057307D01*
G01*
X126272470Y-97206723D02*
G75*
G03*
X126304055Y-97093152I-60570J78023D01*
G01*
X165590224Y-45694317D02*
G75*
G03*
X164839567Y-44842339I-5990024J-4520983D01*
G01*
X122351697Y-82311080D02*
G75*
G03*
X121274888Y-81869622I-2069697J-3514420D01*
G01*
X115988954Y-65843758D02*
G75*
G03*
X116214593Y-65721040I60446J157658D01*
G01*
X189701676Y-75878296D02*
G75*
G03*
X189690862Y-76161450I113124J-146104D01*
G01*
X196586639Y-114832525D02*
G75*
G03*
X195399259Y-113956377I-7690539J-9179775D01*
G01*
X194903093Y-89052121D02*
G75*
G03*
X195165203Y-88891561I-1246693J2329421D01*
G01*
X192823851Y-61830750D02*
G75*
G03*
X192111727Y-61771488I-429751J-855850D01*
G01*
X133802751Y-75684018D02*
G75*
G03*
X133852648Y-75606233I-732251J524618D01*
G01*
X180485376Y-130699875D02*
G75*
G03*
X181843674Y-130509930I207424J3468275D01*
G01*
X166868014Y-76176320D02*
G75*
G03*
X167356397Y-76013360I-75314J1039020D01*
G01*
X168910410Y-132694439D02*
G75*
G03*
X168636597Y-131933871I-1188110J1839D01*
G01*
X144352775Y-143871853D02*
G75*
G03*
X144501529Y-144385977I1282025J92353D01*
G01*
X104824343Y-94845274D02*
G75*
G03*
X104525801Y-94873622I-120583J-316296D01*
G01*
X183475040Y-55594279D02*
G75*
G03*
X183187939Y-55389432I-1590640J-1925721D01*
G01*
X198806206Y-81288744D02*
G75*
G03*
X198501880Y-81058586I-981006J-980856D01*
G01*
X143468395Y-62162191D02*
G75*
G03*
X142158712Y-60925688I-5533095J-4548709D01*
G01*
X136045810Y-113849318D02*
G75*
G03*
X136365602Y-114098937I622090J467318D01*
G01*
X115961341Y-117359412D02*
G75*
G03*
X115725994Y-117262833I-153941J-40088D01*
G01*
X102233178Y-69996078D02*
G75*
G03*
X103119422Y-71160267I2114552J690288D01*
G01*
X197145540Y-115478089D02*
G75*
G03*
X196586641Y-114832524I-2280940J-1410011D01*
G01*
X154524901Y-144836113D02*
G75*
G03*
X154917791Y-144640310I-96001J684713D01*
G01*
X144501511Y-144385987D02*
G75*
G03*
X144892999Y-144757570I756389J404887D01*
G01*
X173124929Y-72473803D02*
G75*
G03*
X173204703Y-72332371I-108129J154203D01*
G01*
X144893003Y-144757559D02*
G75*
G03*
X145564991Y-144954008I964697J2052359D01*
G01*
X198692675Y-82321095D02*
G75*
G03*
X198904534Y-81625918I-4355375J1707195D01*
G01*
X172531070Y-98275913D02*
G75*
G03*
X172496280Y-99070959I859330J-435887D01*
G01*
X174004432Y-129576932D02*
G75*
G03*
X174926084Y-130052235I1204468J1204332D01*
G01*
X195165203Y-88891561D02*
G75*
G03*
X195386662Y-88712198I-1117003J1605561D01*
G01*
X155357234Y-120978485D02*
G75*
G03*
X155447979Y-122042253I7790166J128785D01*
G01*
X134503929Y-44705780D02*
G75*
G03*
X133371084Y-45321006I68171J-1476120D01*
G01*
X183451866Y-66541033D02*
G75*
G03*
X183525152Y-66551380I43534J43633D01*
G01*
X107364655Y-61161139D02*
G75*
G03*
X106219354Y-62025337I638375J-2037041D01*
G01*
X124222361Y-54767223D02*
G75*
G03*
X121290798Y-54374942I-4348061J-21343477D01*
G01*
X122257923Y-128206414D02*
G75*
G03*
X124129972Y-127760390I-1322823J9703814D01*
G01*
X167107989Y-109302471D02*
G75*
G03*
X166362554Y-109233831I-442289J-721229D01*
G01*
X106941747Y-87969651D02*
G75*
G03*
X109363989Y-87009263I-7656165J22844814D01*
G01*
X188956195Y-109710309D02*
G75*
G03*
X189012738Y-109816558I129805J909D01*
G01*
X130965883Y-133421667D02*
G75*
G03*
X131359949Y-134591211I6088117J1400167D01*
G01*
X155784752Y-62036985D02*
G75*
G03*
X155425292Y-62389245I1190548J-1574415D01*
G01*
X165829818Y-139353501D02*
G75*
G03*
X166427540Y-138521326I-7038418J5686201D01*
G01*
X168408489Y-52519057D02*
G75*
G03*
X168669197Y-51940046I-1698689J1113057D01*
G01*
X173763535Y-129094339D02*
G75*
G03*
X174004423Y-129576942I843765J119739D01*
G01*
X137636384Y-70369724D02*
G75*
G03*
X136933319Y-70887998I1816716J-3200476D01*
G01*
X198904540Y-81625919D02*
G75*
G03*
X198806216Y-81288734I-356340J79019D01*
G01*
X103737164Y-86564305D02*
G75*
G03*
X104695182Y-87957040I8938436J5122605D01*
G01*
X144293041Y-134210302D02*
G75*
G03*
X144080387Y-134270020I59J-408698D01*
G01*
X105903853Y-121782702D02*
G75*
G03*
X106409324Y-122174369I1420547J1311302D01*
G01*
X194496209Y-63589984D02*
G75*
G03*
X193584749Y-62399214I-6408009J-3960716D01*
G01*
X133117058Y-138162213D02*
G75*
G03*
X133676492Y-139040586I6451342J3491513D01*
G01*
X144410122Y-134323713D02*
G75*
G03*
X144293042Y-134210310I-117322J-3987D01*
G01*
X168636596Y-131933871D02*
G75*
G03*
X167950708Y-131296906I-2784896J-2311029D01*
G01*
X105478777Y-88282744D02*
G75*
G03*
X106941747Y-87969652I-653677J6628944D01*
G01*
X168181953Y-135343868D02*
G75*
G03*
X168755292Y-133822445I-8260253J3981568D01*
G01*
X108701521Y-61303634D02*
G75*
G03*
X107364654Y-61161140I-832421J-1467266D01*
G01*
X131703077Y-107340856D02*
G75*
G03*
X131463548Y-107434679I280723J-1069344D01*
G01*
X143936507Y-40565416D02*
G75*
G03*
X143866352Y-40913496I3662993J-919384D01*
G01*
X100037792Y-102219846D02*
G75*
G03*
X100166205Y-102831384I1520387J5D01*
G01*
X195633693Y-88216116D02*
G75*
G03*
X195587791Y-88409510I384407J-193384D01*
G01*
X172496275Y-99070961D02*
G75*
G03*
X173055657Y-99763891I1410325J566261D01*
G01*
X192295227Y-124142460D02*
G75*
G03*
X193097747Y-123333083I-1619227J2408060D01*
G01*
X191684312Y-124311960D02*
G75*
G03*
X192295220Y-124142450I50788J1002560D01*
G01*
X193584755Y-62399211D02*
G75*
G03*
X192823853Y-61830746I-1977455J-1853389D01*
G01*
X183187942Y-55389428D02*
G75*
G03*
X182881037Y-55232181I-1191242J-1946872D01*
G01*
X143832856Y-41252289D02*
G75*
G03*
X143835528Y-41539405I2628444J-119111D01*
G01*
X126741636Y-71761575D02*
G75*
G03*
X127504124Y-72251316I4497664J6164075D01*
G01*
X154917791Y-144640309D02*
G75*
G03*
X155114977Y-144241674I-490891J490909D01*
G01*
X116082363Y-118089241D02*
G75*
G03*
X115961345Y-117359412I-4065963J-299259D01*
G01*
X175197292Y-93008011D02*
G75*
G03*
X175285189Y-92525917I-1255192J477911D01*
G01*
X116188113Y-127882352D02*
G75*
G03*
X116298160Y-128236636I742987J36552D01*
G01*
X100899887Y-80742730D02*
G75*
G03*
X100928182Y-81289681I629687J-241632D01*
G01*
X125888509Y-57445445D02*
G75*
G03*
X125372267Y-55630080I-4575109J-319955D01*
G01*
X174891464Y-55715379D02*
G75*
G03*
X174616419Y-56290099I680036J-678621D01*
G01*
X115697233Y-65698674D02*
G75*
G03*
X115988947Y-65843777I906267J1456174D01*
G01*
X133371085Y-45321005D02*
G75*
G03*
X131825080Y-47760309I20646315J-14794995D01*
G01*
X183703365Y-55813478D02*
G75*
G03*
X183475039Y-55594280I-1576965J-1414122D01*
G01*
X182881043Y-55232167D02*
G75*
G03*
X181640588Y-54992386I-1191243J-2834133D01*
G01*
X106949549Y-122310311D02*
G75*
G03*
X107495501Y-122191007I-149J1309511D01*
G01*
X117184086Y-54825468D02*
G75*
G03*
X116987319Y-55747206I6263814J-1819032D01*
G01*
X105301450Y-121007798D02*
G75*
G03*
X105903853Y-121782702I4870650J3164798D01*
G01*
X198732435Y-103998843D02*
G75*
G03*
X198464559Y-103026154I-1843835J15443D01*
G01*
X179849334Y-82503709D02*
G75*
G03*
X179408683Y-82410309I-440634J-992691D01*
G01*
X196684880Y-106055304D02*
G75*
G03*
X197938561Y-105346610I-3871380J8311704D01*
G01*
X130930484Y-132562895D02*
G75*
G03*
X130965885Y-133421667I2314516J-334705D01*
G01*
X164201234Y-139950587D02*
G75*
G03*
X164920442Y-140089465I558866J962487D01*
G01*
X124910339Y-98150671D02*
G75*
G03*
X126272474Y-97206729I-7933239J12902671D01*
G01*
X136365601Y-114098937D02*
G75*
G03*
X136770802Y-114206120I582299J1381837D01*
G01*
X102033281Y-113368464D02*
G75*
G03*
X101752283Y-113784537I655419J-745566D01*
G01*
X190937664Y-124130272D02*
G75*
G03*
X191684312Y-124311961I850736J1871072D01*
G01*
X162673106Y-114268169D02*
G75*
G03*
X162997312Y-114006458I-526806J984269D01*
G01*
X106409334Y-122174348D02*
G75*
G03*
X106949549Y-122310309I539966J1004248D01*
G01*
X100275376Y-101340332D02*
G75*
G03*
X100037792Y-102219846I1509157J-879516D01*
G01*
%TD*%
M02*
