M48
; DRILL file {KiCad (6.0.7)} date Sun Oct  9 20:44:31 2022
; FORMAT={-:-/ absolute / metric / decimal}
; #@! TF.CreationDate,2022-10-09T20:44:31-07:00
; #@! TF.GenerationSoftware,Kicad,Pcbnew,(6.0.7)
; #@! TF.FileFunction,Plated,1,2,PTH
FMAT,2
METRIC
; #@! TA.AperFunction,Plated,PTH,ViaDrill
T1C0.400
; #@! TA.AperFunction,Plated,PTH,ComponentDrill
T2C0.800
; #@! TA.AperFunction,Plated,PTH,ComponentDrill
T3C0.900
; #@! TA.AperFunction,Plated,PTH,ComponentDrill
T4C4.000
%
G90
G05
T1
X128.412Y-77.374
X141.409Y-95.003
X142.148Y-92.075
X142.203Y-98.123
X143.735Y-95.249
X143.845Y-89.42
X143.872Y-100.504
X146.499Y-87.641
X146.746Y-91.746
X147.541Y-107.312
X147.55Y-105.991
X147.695Y-83.011
X147.695Y-84.362
X148.278Y-103.049
X148.846Y-107.339
X148.853Y-106.003
X148.9Y-82.999
X148.913Y-84.338
X149.521Y-64.388
X149.68Y-97.755
X149.701Y-95.578
X149.978Y-99.9
X150.13Y-84.35
X150.162Y-83.005
X150.273Y-107.33
X150.275Y-106.008
X151.436Y-84.34
X151.457Y-83.038
X151.639Y-106.024
X151.687Y-107.335
X152.082Y-87.504
X152.082Y-102.857
X153.615Y-91.719
X154.627Y-88.654
X155.777Y-95.523
X156.16Y-90.487
X156.543Y-99.573
X157.665Y-93.361
X157.72Y-96.289
X162.221Y-111.551
X163.509Y-101.821
X164.564Y-88.568
X164.781Y-79.303
X167.042Y-86.215
X174.255Y-78.635
T2
X129.179Y-93.507
X131.179Y-93.507
X131.731Y-79.075
X131.731Y-81.615
X131.731Y-84.155
X131.731Y-86.695
X136.262Y-93.324
X138.262Y-93.324
X139.351Y-79.075
X139.351Y-81.615
X139.351Y-84.155
X139.351Y-86.695
X145.867Y-72.753
X146.565Y-80.175
X149.065Y-77.675
X151.565Y-80.175
X153.487Y-72.753
X161.568Y-79.6
X161.568Y-82.14
X161.568Y-84.68
X161.568Y-87.22
X161.568Y-89.76
X161.568Y-92.3
X161.568Y-94.84
X161.568Y-97.38
X169.188Y-79.6
X169.188Y-82.14
X169.188Y-84.68
X169.188Y-87.22
X169.188Y-89.76
X169.188Y-92.3
X169.188Y-94.84
X169.188Y-97.38
T3
X147.038Y-111.514
X149.538Y-111.514
X152.038Y-111.514
T4
X149.461Y-45.277
T0
M30
