%TF.GenerationSoftware,KiCad,Pcbnew,(6.0.7)*%
%TF.CreationDate,2022-10-09T20:43:52-07:00*%
%TF.ProjectId,IEEE_PCB_SMD,49454545-5f50-4434-925f-534d442e6b69,rev?*%
%TF.SameCoordinates,Original*%
%TF.FileFunction,Soldermask,Bot*%
%TF.FilePolarity,Negative*%
%FSLAX46Y46*%
G04 Gerber Fmt 4.6, Leading zero omitted, Abs format (unit mm)*
G04 Created by KiCad (PCBNEW (6.0.7)) date 2022-10-09 20:43:52*
%MOMM*%
%LPD*%
G01*
G04 APERTURE LIST*
%ADD10C,1.600000*%
%ADD11C,1.500000*%
%ADD12C,2.000000*%
%ADD13C,6.000000*%
%ADD14O,1.600000X1.600000*%
%ADD15R,6.000000X3.000000*%
%ADD16C,17.800000*%
%ADD17R,1.600000X1.600000*%
G04 APERTURE END LIST*
D10*
%TO.C,RV1*%
X151565000Y-80175000D03*
X149065000Y-77675000D03*
X146565000Y-80175000D03*
%TD*%
D11*
%TO.C,U2*%
X161567846Y-79600154D03*
X161567846Y-82140154D03*
X161567846Y-84680154D03*
X161567846Y-87220154D03*
X161567846Y-89760154D03*
X161567846Y-92300154D03*
X161567846Y-94840154D03*
X161567846Y-97380154D03*
X169187846Y-97380154D03*
X169187846Y-94840154D03*
X169187846Y-92300154D03*
X169187846Y-89760154D03*
X169187846Y-87220154D03*
X169187846Y-84680154D03*
X169187846Y-82140154D03*
X169187846Y-79600154D03*
%TD*%
D12*
%TO.C,SW1*%
X152037846Y-111514154D03*
X149537846Y-111514154D03*
X147037846Y-111514154D03*
%TD*%
D13*
%TO.C,REF\u002A\u002A*%
X149461000Y-45277000D03*
%TD*%
D10*
%TO.C,R1*%
X145866846Y-72753154D03*
D14*
X153486846Y-72753154D03*
%TD*%
D11*
%TO.C,U1*%
X131730846Y-79074961D03*
X131730846Y-81614961D03*
X131730846Y-84154961D03*
X131730846Y-86694961D03*
X139350846Y-86694961D03*
X139350846Y-84154961D03*
X139350846Y-81614961D03*
X139350846Y-79074961D03*
%TD*%
D15*
%TO.C,BT1*%
X149495846Y-106637154D03*
X149495846Y-83737154D03*
D16*
X149495846Y-95187154D03*
%TD*%
D17*
%TO.C,C1*%
X129178888Y-93507000D03*
D10*
X131178888Y-93507000D03*
%TD*%
D17*
%TO.C,C2*%
X136261888Y-93324000D03*
D10*
X138261888Y-93324000D03*
%TD*%
M02*
