  0
SECTION
  2
HEADER
  9
$ANGBASE
  50
0.0
  9
$ANGDIR
  70
1
  9
$MEASUREMENT
  70
1
  0
ENDSEC
  0
SECTION
  2
TABLES
  0
TABLE
  2
LTYPE
  70
4
  0
LTYPE
  5
40F
  2
CONTINUOUS
  70
0
  3
Solid line
  72
65
  73
0
  40
0.0
  0
LTYPE
  5
410
  2
DASHDOT
 70
0
  3
Dash Dot ____ _ ____ _
 72
65
 73
4
 40
2.0
 49
1.25
 49
-0.25
 49
0.25
 49
-0.25
  0
LTYPE
  5
411
  2
DASHED
 70
0
  3
Dashed __ __ __ __ __
 72
65
 73
2
 40
0.75
 49
0.5
 49
-0.25
  0
LTYPE
  5
43B
  2
DOTTED
 70
0
  3
Dotted .  .  .  .
 72
65
 73
2
 40
0.2
 49
0.0
 49
-0.2
  0
ENDTAB
  0
TABLE
  2
STYLE
  70
4
  0
STYLE
  2
KICAD
  70
0
  40
0
  41
1
  42
1
  50
0
  71
0
  3
isocp.shx
  0
STYLE
  2
KICADB
  70
0
  40
0
  41
1
  42
1
  50
0
  71
0
  3
isocp.shx
  0
STYLE
  2
KICADI
  70
0
  40
0
  41
1
  42
1
  50
15
  71
0
  3
isocp.shx
  0
STYLE
  2
KICADBI
  70
0
  40
0
  41
1
  42
1
  50
15
  71
0
  3
isocp.shx
  0
ENDTAB
  0
TABLE
  2
LAYER
  70
1
  0
LAYER
  2
BLACK
  70
0
  62
7
  6
CONTINUOUS
  0
ENDTAB
  0
ENDSEC
  0
SECTION
  2
ENTITIES
0
LINE
8
BLACK
6
CONTINUOUS
10
102.602
20
-148.177
11
102.602
21
-146.177
0
LINE
8
BLACK
6
CONTINUOUS
10
102.602
20
-146.177
11
103.078
21
-146.177
0
LINE
8
BLACK
6
CONTINUOUS
10
103.078
20
-146.177
11
103.364
21
-146.273
0
LINE
8
BLACK
6
CONTINUOUS
10
103.364
20
-146.273
11
103.554
21
-146.463
0
LINE
8
BLACK
6
CONTINUOUS
10
103.554
20
-146.463
11
103.649
21
-146.654
0
LINE
8
BLACK
6
CONTINUOUS
10
103.649
20
-146.654
11
103.745
21
-147.034
0
LINE
8
BLACK
6
CONTINUOUS
10
103.745
20
-147.034
11
103.745
21
-147.32
0
LINE
8
BLACK
6
CONTINUOUS
10
103.745
20
-147.32
11
103.649
21
-147.701
0
LINE
8
BLACK
6
CONTINUOUS
10
103.649
20
-147.701
11
103.554
21
-147.892
0
LINE
8
BLACK
6
CONTINUOUS
10
103.554
20
-147.892
11
103.364
21
-148.082
0
LINE
8
BLACK
6
CONTINUOUS
10
103.364
20
-148.082
11
103.078
21
-148.177
0
LINE
8
BLACK
6
CONTINUOUS
10
103.078
20
-148.177
11
102.602
21
-148.177
0
LINE
8
BLACK
6
CONTINUOUS
10
104.602
20
-148.177
11
104.602
21
-146.844
0
LINE
8
BLACK
6
CONTINUOUS
10
104.602
20
-147.225
11
104.697
21
-147.034
0
LINE
8
BLACK
6
CONTINUOUS
10
104.697
20
-147.034
11
104.792
21
-146.939
0
LINE
8
BLACK
6
CONTINUOUS
10
104.792
20
-146.939
11
104.983
21
-146.844
0
LINE
8
BLACK
6
CONTINUOUS
10
104.983
20
-146.844
11
105.173
21
-146.844
0
LINE
8
BLACK
6
CONTINUOUS
10
105.84
20
-148.177
11
105.84
21
-146.844
0
LINE
8
BLACK
6
CONTINUOUS
10
105.84
20
-146.177
11
105.745
21
-146.273
0
LINE
8
BLACK
6
CONTINUOUS
10
105.745
20
-146.273
11
105.84
21
-146.368
0
LINE
8
BLACK
6
CONTINUOUS
10
105.84
20
-146.368
11
105.935
21
-146.273
0
LINE
8
BLACK
6
CONTINUOUS
10
105.935
20
-146.273
11
105.84
21
-146.177
0
LINE
8
BLACK
6
CONTINUOUS
10
105.84
20
-146.177
11
105.84
21
-146.368
0
LINE
8
BLACK
6
CONTINUOUS
10
107.078
20
-148.177
11
106.887
21
-148.082
0
LINE
8
BLACK
6
CONTINUOUS
10
106.887
20
-148.082
11
106.792
21
-147.892
0
LINE
8
BLACK
6
CONTINUOUS
10
106.792
20
-147.892
11
106.792
21
-146.177
0
LINE
8
BLACK
6
CONTINUOUS
10
108.126
20
-148.177
11
107.935
21
-148.082
0
LINE
8
BLACK
6
CONTINUOUS
10
107.935
20
-148.082
11
107.84
21
-147.892
0
LINE
8
BLACK
6
CONTINUOUS
10
107.84
20
-147.892
11
107.84
21
-146.177
0
LINE
8
BLACK
6
CONTINUOUS
10
110.411
20
-148.177
11
110.411
21
-146.177
0
LINE
8
BLACK
6
CONTINUOUS
10
110.411
20
-146.177
11
111.078
21
-147.606
0
LINE
8
BLACK
6
CONTINUOUS
10
111.078
20
-147.606
11
111.745
21
-146.177
0
LINE
8
BLACK
6
CONTINUOUS
10
111.745
20
-146.177
11
111.745
21
-148.177
0
LINE
8
BLACK
6
CONTINUOUS
10
113.554
20
-148.177
11
113.554
21
-147.13
0
LINE
8
BLACK
6
CONTINUOUS
10
113.554
20
-147.13
11
113.459
21
-146.939
0
LINE
8
BLACK
6
CONTINUOUS
10
113.459
20
-146.939
11
113.268
21
-146.844
0
LINE
8
BLACK
6
CONTINUOUS
10
113.268
20
-146.844
11
112.887
21
-146.844
0
LINE
8
BLACK
6
CONTINUOUS
10
112.887
20
-146.844
11
112.697
21
-146.939
0
LINE
8
BLACK
6
CONTINUOUS
10
113.554
20
-148.082
11
113.364
21
-148.177
0
LINE
8
BLACK
6
CONTINUOUS
10
113.364
20
-148.177
11
112.887
21
-148.177
0
LINE
8
BLACK
6
CONTINUOUS
10
112.887
20
-148.177
11
112.697
21
-148.082
0
LINE
8
BLACK
6
CONTINUOUS
10
112.697
20
-148.082
11
112.602
21
-147.892
0
LINE
8
BLACK
6
CONTINUOUS
10
112.602
20
-147.892
11
112.602
21
-147.701
0
LINE
8
BLACK
6
CONTINUOUS
10
112.602
20
-147.701
11
112.697
21
-147.511
0
LINE
8
BLACK
6
CONTINUOUS
10
112.697
20
-147.511
11
112.887
21
-147.415
0
LINE
8
BLACK
6
CONTINUOUS
10
112.887
20
-147.415
11
113.364
21
-147.415
0
LINE
8
BLACK
6
CONTINUOUS
10
113.364
20
-147.415
11
113.554
21
-147.32
0
LINE
8
BLACK
6
CONTINUOUS
10
114.506
20
-146.844
11
114.506
21
-148.844
0
LINE
8
BLACK
6
CONTINUOUS
10
114.506
20
-146.939
11
114.697
21
-146.844
0
LINE
8
BLACK
6
CONTINUOUS
10
114.697
20
-146.844
11
115.078
21
-146.844
0
LINE
8
BLACK
6
CONTINUOUS
10
115.078
20
-146.844
11
115.268
21
-146.939
0
LINE
8
BLACK
6
CONTINUOUS
10
115.268
20
-146.939
11
115.364
21
-147.034
0
LINE
8
BLACK
6
CONTINUOUS
10
115.364
20
-147.034
11
115.459
21
-147.225
0
LINE
8
BLACK
6
CONTINUOUS
10
115.459
20
-147.225
11
115.459
21
-147.796
0
LINE
8
BLACK
6
CONTINUOUS
10
115.459
20
-147.796
11
115.364
21
-147.987
0
LINE
8
BLACK
6
CONTINUOUS
10
115.364
20
-147.987
11
115.268
21
-148.082
0
LINE
8
BLACK
6
CONTINUOUS
10
115.268
20
-148.082
11
115.078
21
-148.177
0
LINE
8
BLACK
6
CONTINUOUS
10
115.078
20
-148.177
11
114.697
21
-148.177
0
LINE
8
BLACK
6
CONTINUOUS
10
114.697
20
-148.177
11
114.506
21
-148.082
0
LINE
8
BLACK
6
CONTINUOUS
10
116.316
20
-147.987
11
116.411
21
-148.082
0
LINE
8
BLACK
6
CONTINUOUS
10
116.411
20
-148.082
11
116.316
21
-148.177
0
LINE
8
BLACK
6
CONTINUOUS
10
116.316
20
-148.177
11
116.221
21
-148.082
0
LINE
8
BLACK
6
CONTINUOUS
10
116.221
20
-148.082
11
116.316
21
-147.987
0
LINE
8
BLACK
6
CONTINUOUS
10
116.316
20
-147.987
11
116.316
21
-148.177
0
LINE
8
BLACK
6
CONTINUOUS
10
116.316
20
-146.939
11
116.411
21
-147.034
0
LINE
8
BLACK
6
CONTINUOUS
10
116.411
20
-147.034
11
116.316
21
-147.13
0
LINE
8
BLACK
6
CONTINUOUS
10
116.316
20
-147.13
11
116.221
21
-147.034
0
LINE
8
BLACK
6
CONTINUOUS
10
116.221
20
-147.034
11
116.316
21
-146.939
0
LINE
8
BLACK
6
CONTINUOUS
10
116.316
20
-146.939
11
116.316
21
-147.13
  0
ENDSEC
  0
EOF
