  0
SECTION
  2
HEADER
  9
$ANGBASE
  50
0.0
  9
$ANGDIR
  70
1
  9
$MEASUREMENT
  70
1
  0
ENDSEC
  0
SECTION
  2
TABLES
  0
TABLE
  2
LTYPE
  70
4
  0
LTYPE
  5
40F
  2
CONTINUOUS
  70
0
  3
Solid line
  72
65
  73
0
  40
0.0
  0
LTYPE
  5
410
  2
DASHDOT
 70
0
  3
Dash Dot ____ _ ____ _
 72
65
 73
4
 40
2.0
 49
1.25
 49
-0.25
 49
0.25
 49
-0.25
  0
LTYPE
  5
411
  2
DASHED
 70
0
  3
Dashed __ __ __ __ __
 72
65
 73
2
 40
0.75
 49
0.5
 49
-0.25
  0
LTYPE
  5
43B
  2
DOTTED
 70
0
  3
Dotted .  .  .  .
 72
65
 73
2
 40
0.2
 49
0.0
 49
-0.2
  0
ENDTAB
  0
TABLE
  2
STYLE
  70
4
  0
STYLE
  2
KICAD
  70
0
  40
0
  41
1
  42
1
  50
0
  71
0
  3
isocp.shx
  0
STYLE
  2
KICADB
  70
0
  40
0
  41
1
  42
1
  50
0
  71
0
  3
isocp.shx
  0
STYLE
  2
KICADI
  70
0
  40
0
  41
1
  42
1
  50
15
  71
0
  3
isocp.shx
  0
STYLE
  2
KICADBI
  70
0
  40
0
  41
1
  42
1
  50
15
  71
0
  3
isocp.shx
  0
ENDTAB
  0
TABLE
  2
LAYER
  70
1
  0
LAYER
  2
BLACK
  70
0
  62
7
  6
CONTINUOUS
  0
ENDTAB
  0
ENDSEC
  0
SECTION
  2
ENTITIES
0
LINE
8
BLACK
6
CONTINUOUS
10
122.519
20
-122.155
11
122.919
21
-122.555
0
LINE
8
BLACK
6
CONTINUOUS
10
122.919
20
-122.155
11
122.519
21
-122.555
0
LINE
8
BLACK
6
CONTINUOUS
10
122.547
20
-120.782
11
122.947
21
-121.182
0
LINE
8
BLACK
6
CONTINUOUS
10
122.947
20
-120.782
11
122.547
21
-121.182
0
LINE
8
BLACK
6
CONTINUOUS
10
122.555
20
-117.912
11
122.955
21
-118.312
0
LINE
8
BLACK
6
CONTINUOUS
10
122.955
20
-117.912
11
122.555
21
-118.312
0
LINE
8
BLACK
6
CONTINUOUS
10
122.555
20
-119.286
11
122.955
21
-119.686
0
LINE
8
BLACK
6
CONTINUOUS
10
122.955
20
-119.286
11
122.555
21
-119.686
0
LINE
8
BLACK
6
CONTINUOUS
10
123.97
20
-117.933
11
124.37
21
-118.333
0
LINE
8
BLACK
6
CONTINUOUS
10
124.37
20
-117.933
11
123.97
21
-118.333
0
LINE
8
BLACK
6
CONTINUOUS
10
123.99
20
-119.369
11
124.39
21
-119.769
0
LINE
8
BLACK
6
CONTINUOUS
10
124.39
20
-119.369
11
123.99
21
-119.769
0
LINE
8
BLACK
6
CONTINUOUS
10
123.99
20
-120.824
11
124.39
21
-121.224
0
LINE
8
BLACK
6
CONTINUOUS
10
124.39
20
-120.824
11
123.99
21
-121.224
0
LINE
8
BLACK
6
CONTINUOUS
10
124.017
20
-122.197
11
124.417
21
-122.597
0
LINE
8
BLACK
6
CONTINUOUS
10
124.417
20
-122.197
11
124.017
21
-122.597
0
LINE
8
BLACK
6
CONTINUOUS
10
127.434
20
-120.75
11
127.834
21
-121.15
0
LINE
8
BLACK
6
CONTINUOUS
10
127.834
20
-120.75
11
127.434
21
-121.15
0
LINE
8
BLACK
6
CONTINUOUS
10
128.152
20
-117.224
11
128.552
21
-117.624
0
LINE
8
BLACK
6
CONTINUOUS
10
128.552
20
-117.224
11
128.152
21
-117.624
0
LINE
8
BLACK
6
CONTINUOUS
10
128.963
20
-124.433
11
129.363
21
-124.833
0
LINE
8
BLACK
6
CONTINUOUS
10
129.363
20
-124.433
11
128.963
21
-124.833
0
LINE
8
BLACK
6
CONTINUOUS
10
129.338
20
-114.508
11
129.738
21
-114.908
0
LINE
8
BLACK
6
CONTINUOUS
10
129.738
20
-114.508
11
129.338
21
-114.908
0
LINE
8
BLACK
6
CONTINUOUS
10
131.304
20
-122.841
11
131.704
21
-123.241
0
LINE
8
BLACK
6
CONTINUOUS
10
131.704
20
-122.841
11
131.304
21
-123.241
0
LINE
8
BLACK
6
CONTINUOUS
10
131.429
20
-126.711
11
131.829
21
-127.111
0
LINE
8
BLACK
6
CONTINUOUS
10
131.829
20
-126.711
11
131.429
21
-127.111
0
LINE
8
BLACK
6
CONTINUOUS
10
131.554
20
-116.755
11
131.954
21
-117.155
0
LINE
8
BLACK
6
CONTINUOUS
10
131.954
20
-116.755
11
131.554
21
-117.155
0
LINE
8
BLACK
6
CONTINUOUS
10
132.552
20
-112.761
11
132.952
21
-113.161
0
LINE
8
BLACK
6
CONTINUOUS
10
132.952
20
-112.761
11
132.552
21
-113.161
0
LINE
8
BLACK
6
CONTINUOUS
10
134.768
20
-120.095
11
135.168
21
-120.495
0
LINE
8
BLACK
6
CONTINUOUS
10
135.168
20
-120.095
11
134.768
21
-120.495
0
LINE
8
BLACK
6
CONTINUOUS
10
134.8
20
-127.928
11
135.2
21
-128.328
0
LINE
8
BLACK
6
CONTINUOUS
10
135.2
20
-127.928
11
134.8
21
-128.328
0
LINE
8
BLACK
6
CONTINUOUS
10
134.862
20
-112.012
11
135.262
21
-112.412
0
LINE
8
BLACK
6
CONTINUOUS
10
135.262
20
-112.012
11
134.862
21
-112.412
0
LINE
8
BLACK
6
CONTINUOUS
10
135.797
20
-91.457
11
136.197
21
-91.857
0
LINE
8
BLACK
6
CONTINUOUS
10
136.197
20
-91.457
11
135.797
21
-91.857
0
LINE
8
BLACK
6
CONTINUOUS
10
136.282
20
-134.133
11
136.682
21
-134.533
0
LINE
8
BLACK
6
CONTINUOUS
10
136.682
20
-134.133
11
136.282
21
-134.533
0
LINE
8
BLACK
6
CONTINUOUS
10
137.546
20
-116.787
11
137.946
21
-117.187
0
LINE
8
BLACK
6
CONTINUOUS
10
137.946
20
-116.787
11
137.546
21
-117.187
0
LINE
8
BLACK
6
CONTINUOUS
10
137.796
20
-122.872
11
138.196
21
-123.272
0
LINE
8
BLACK
6
CONTINUOUS
10
138.196
20
-122.872
11
137.796
21
-123.272
0
LINE
8
BLACK
6
CONTINUOUS
10
138.545
20
-113.291
11
138.945
21
-113.691
0
LINE
8
BLACK
6
CONTINUOUS
10
138.945
20
-113.291
11
138.545
21
-113.691
0
LINE
8
BLACK
6
CONTINUOUS
10
138.826
20
-126.368
11
139.226
21
-126.768
0
LINE
8
BLACK
6
CONTINUOUS
10
139.226
20
-126.368
11
138.826
21
-126.768
0
LINE
8
BLACK
6
CONTINUOUS
10
140.948
20
-123.59
11
141.348
21
-123.99
0
LINE
8
BLACK
6
CONTINUOUS
10
141.348
20
-123.59
11
140.948
21
-123.99
0
LINE
8
BLACK
6
CONTINUOUS
10
140.979
20
-115.164
11
141.379
21
-115.564
0
LINE
8
BLACK
6
CONTINUOUS
10
141.379
20
-115.164
11
140.979
21
-115.564
0
LINE
8
BLACK
6
CONTINUOUS
10
141.353
20
-120.095
11
141.753
21
-120.495
0
LINE
8
BLACK
6
CONTINUOUS
10
141.753
20
-120.095
11
141.353
21
-120.495
0
LINE
8
BLACK
6
CONTINUOUS
10
142.63
20
-101.102
11
143.03
21
-101.502
0
LINE
8
BLACK
6
CONTINUOUS
10
143.03
20
-101.102
11
142.63
21
-101.502
0
LINE
8
BLACK
6
CONTINUOUS
10
145.408
20
-117.724
11
145.808
21
-118.124
0
LINE
8
BLACK
6
CONTINUOUS
10
145.808
20
-117.724
11
145.408
21
-118.124
0
LINE
8
BLACK
6
CONTINUOUS
10
145.436
20
-120.276
11
145.836
21
-120.676
0
LINE
8
BLACK
6
CONTINUOUS
10
145.836
20
-120.276
11
145.436
21
-120.676
0
LINE
8
BLACK
6
CONTINUOUS
10
145.436
20
-121.705
11
145.836
21
-122.105
0
LINE
8
BLACK
6
CONTINUOUS
10
145.836
20
-121.705
11
145.436
21
-122.105
0
LINE
8
BLACK
6
CONTINUOUS
10
145.463
20
-118.903
11
145.863
21
-119.303
0
LINE
8
BLACK
6
CONTINUOUS
10
145.863
20
-118.903
11
145.463
21
-119.303
0
LINE
8
BLACK
6
CONTINUOUS
10
146.156
20
-69.427
11
146.556
21
-69.827
0
LINE
8
BLACK
6
CONTINUOUS
10
146.556
20
-69.427
11
146.156
21
-69.827
0
LINE
8
BLACK
6
CONTINUOUS
10
146.809
20
-117.71
11
147.209
21
-118.11
0
LINE
8
BLACK
6
CONTINUOUS
10
147.209
20
-117.71
11
146.809
21
-118.11
0
LINE
8
BLACK
6
CONTINUOUS
10
146.823
20
-120.29
11
147.223
21
-120.69
0
LINE
8
BLACK
6
CONTINUOUS
10
147.223
20
-120.29
11
146.823
21
-120.69
0
LINE
8
BLACK
6
CONTINUOUS
10
146.823
20
-121.705
11
147.223
21
-122.105
0
LINE
8
BLACK
6
CONTINUOUS
10
147.223
20
-121.705
11
146.823
21
-122.105
0
LINE
8
BLACK
6
CONTINUOUS
10
146.836
20
-118.917
11
147.236
21
-119.317
0
LINE
8
BLACK
6
CONTINUOUS
10
147.236
20
-118.917
11
146.836
21
-119.317
0
LINE
8
BLACK
6
CONTINUOUS
10
148.797
20
-74.761
11
149.197
21
-75.161
0
LINE
8
BLACK
6
CONTINUOUS
10
149.197
20
-74.761
11
148.797
21
-75.161
0
LINE
8
BLACK
6
CONTINUOUS
10
148.797
20
-83.144
11
149.197
21
-83.544
0
LINE
8
BLACK
6
CONTINUOUS
10
149.197
20
-83.144
11
148.797
21
-83.544
0
LINE
8
BLACK
6
CONTINUOUS
10
155.414
20
-81.087
11
155.814
21
-81.487
0
LINE
8
BLACK
6
CONTINUOUS
10
155.814
20
-81.087
11
155.414
21
-81.487
0
LINE
8
BLACK
6
CONTINUOUS
10
155.572
20
-100.711
11
155.972
21
-101.111
0
LINE
8
BLACK
6
CONTINUOUS
10
155.972
20
-100.711
11
155.572
21
-101.111
0
LINE
8
BLACK
6
CONTINUOUS
10
157.123
20
-111.739
11
157.523
21
-112.139
0
LINE
8
BLACK
6
CONTINUOUS
10
157.523
20
-111.739
11
157.123
21
-112.139
0
LINE
8
BLACK
6
CONTINUOUS
10
162.811
20
-81.087
11
163.211
21
-81.487
0
LINE
8
BLACK
6
CONTINUOUS
10
163.211
20
-81.087
11
162.811
21
-81.487
0
CIRCLE
8
BLACK
10
113.998
20
-81.354
40
0.4
0
CIRCLE
8
BLACK
10
113.998
20
-83.894
40
0.4
0
CIRCLE
8
BLACK
10
113.998
20
-86.434
40
0.4
0
CIRCLE
8
BLACK
10
113.998
20
-88.974
40
0.4
0
CIRCLE
8
BLACK
10
114.407
20
-96.142
40
0.4
0
CIRCLE
8
BLACK
10
116.407
20
-96.142
40
0.4
0
CIRCLE
8
BLACK
10
121.033
20
-96.022
40
0.4
0
CIRCLE
8
BLACK
10
121.618
20
-81.354
40
0.4
0
CIRCLE
8
BLACK
10
121.618
20
-83.894
40
0.4
0
CIRCLE
8
BLACK
10
121.618
20
-86.434
40
0.4
0
CIRCLE
8
BLACK
10
121.618
20
-88.974
40
0.4
0
CIRCLE
8
BLACK
10
123.033
20
-96.022
40
0.4
0
CIRCLE
8
BLACK
10
128.912
20
-97.796
40
0.4
0
CIRCLE
8
BLACK
10
129.232
20
-80.495
40
0.4
0
CIRCLE
8
BLACK
10
129.232
20
-88.115
40
0.4
0
CIRCLE
8
BLACK
10
131.412
20
-95.296
40
0.4
0
CIRCLE
8
BLACK
10
133.912
20
-97.796
40
0.4
0
CIRCLE
8
BLACK
10
145.288
20
-79.826
40
0.4
0
CIRCLE
8
BLACK
10
145.288
20
-82.366
40
0.4
0
CIRCLE
8
BLACK
10
145.288
20
-84.906
40
0.4
0
CIRCLE
8
BLACK
10
145.288
20
-87.446
40
0.4
0
CIRCLE
8
BLACK
10
145.288
20
-89.986
40
0.4
0
CIRCLE
8
BLACK
10
145.288
20
-92.526
40
0.4
0
CIRCLE
8
BLACK
10
145.288
20
-95.066
40
0.4
0
CIRCLE
8
BLACK
10
145.288
20
-97.606
40
0.4
0
CIRCLE
8
BLACK
10
152.908
20
-79.826
40
0.4
0
CIRCLE
8
BLACK
10
152.908
20
-82.366
40
0.4
0
CIRCLE
8
BLACK
10
152.908
20
-84.906
40
0.4
0
CIRCLE
8
BLACK
10
152.908
20
-87.446
40
0.4
0
CIRCLE
8
BLACK
10
152.908
20
-89.986
40
0.4
0
CIRCLE
8
BLACK
10
152.908
20
-92.526
40
0.4
0
CIRCLE
8
BLACK
10
152.908
20
-95.066
40
0.4
0
CIRCLE
8
BLACK
10
152.908
20
-97.606
40
0.4
0
LINE
8
BLACK
6
CONTINUOUS
10
95.414
20
-96.816
11
95.414
21
-97.716
0
LINE
8
BLACK
6
CONTINUOUS
10
94.964
20
-97.266
11
95.864
21
-97.266
0
LINE
8
BLACK
6
CONTINUOUS
10
97.954
20
-96.816
11
97.954
21
-97.716
0
LINE
8
BLACK
6
CONTINUOUS
10
97.504
20
-97.266
11
98.404
21
-97.266
0
LINE
8
BLACK
6
CONTINUOUS
10
100.16
20
-119.826
11
100.16
21
-120.726
0
LINE
8
BLACK
6
CONTINUOUS
10
99.71
20
-120.276
11
100.61
21
-120.276
0
LINE
8
BLACK
6
CONTINUOUS
10
102.7
20
-119.826
11
102.7
21
-120.726
0
LINE
8
BLACK
6
CONTINUOUS
10
102.25
20
-120.276
11
103.15
21
-120.276
0
LINE
8
BLACK
6
CONTINUOUS
10
106.713
20
-73.499
11
106.713
21
-74.399
0
LINE
8
BLACK
6
CONTINUOUS
10
106.263
20
-73.949
11
107.163
21
-73.949
0
LINE
8
BLACK
6
CONTINUOUS
10
109.253
20
-73.499
11
109.253
21
-74.399
0
LINE
8
BLACK
6
CONTINUOUS
10
108.803
20
-73.949
11
109.703
21
-73.949
0
LINE
8
BLACK
6
CONTINUOUS
10
120.252
20
-136.713
11
120.252
21
-137.613
0
LINE
8
BLACK
6
CONTINUOUS
10
119.802
20
-137.163
11
120.702
21
-137.163
0
LINE
8
BLACK
6
CONTINUOUS
10
122.792
20
-136.713
11
122.792
21
-137.613
0
LINE
8
BLACK
6
CONTINUOUS
10
122.342
20
-137.163
11
123.242
21
-137.163
0
LINE
8
BLACK
6
CONTINUOUS
10
132.24
20
-104.479
11
132.24
21
-105.379
0
LINE
8
BLACK
6
CONTINUOUS
10
131.79
20
-104.929
11
132.69
21
-104.929
0
LINE
8
BLACK
6
CONTINUOUS
10
133.816
20
-63.219
11
133.816
21
-64.119
0
LINE
8
BLACK
6
CONTINUOUS
10
133.366
20
-63.669
11
134.266
21
-63.669
0
LINE
8
BLACK
6
CONTINUOUS
10
134.74
20
-104.479
11
134.74
21
-105.379
0
LINE
8
BLACK
6
CONTINUOUS
10
134.29
20
-104.929
11
135.19
21
-104.929
0
LINE
8
BLACK
6
CONTINUOUS
10
136.356
20
-63.219
11
136.356
21
-64.119
0
LINE
8
BLACK
6
CONTINUOUS
10
135.906
20
-63.669
11
136.806
21
-63.669
0
LINE
8
BLACK
6
CONTINUOUS
10
137.24
20
-104.479
11
137.24
21
-105.379
0
LINE
8
BLACK
6
CONTINUOUS
10
136.79
20
-104.929
11
137.69
21
-104.929
0
LINE
8
BLACK
6
CONTINUOUS
10
150.411
20
-136.903
11
150.411
21
-137.803
0
LINE
8
BLACK
6
CONTINUOUS
10
149.961
20
-137.353
11
150.861
21
-137.353
0
LINE
8
BLACK
6
CONTINUOUS
10
152.951
20
-136.903
11
152.951
21
-137.803
0
LINE
8
BLACK
6
CONTINUOUS
10
152.501
20
-137.353
11
153.401
21
-137.353
0
LINE
8
BLACK
6
CONTINUOUS
10
162.634
20
-74.495
11
162.634
21
-75.395
0
LINE
8
BLACK
6
CONTINUOUS
10
162.184
20
-74.945
11
163.084
21
-74.945
0
LINE
8
BLACK
6
CONTINUOUS
10
165.174
20
-74.495
11
165.174
21
-75.395
0
LINE
8
BLACK
6
CONTINUOUS
10
164.724
20
-74.945
11
165.624
21
-74.945
0
LINE
8
BLACK
6
CONTINUOUS
10
168.621
20
-119.333
11
168.621
21
-120.233
0
LINE
8
BLACK
6
CONTINUOUS
10
168.171
20
-119.783
11
169.071
21
-119.783
0
LINE
8
BLACK
6
CONTINUOUS
10
171.161
20
-119.333
11
171.161
21
-120.233
0
LINE
8
BLACK
6
CONTINUOUS
10
170.711
20
-119.783
11
171.611
21
-119.783
0
LINE
8
BLACK
6
CONTINUOUS
10
173.247
20
-96.718
11
173.247
21
-97.618
0
LINE
8
BLACK
6
CONTINUOUS
10
172.797
20
-97.168
11
173.697
21
-97.168
0
LINE
8
BLACK
6
CONTINUOUS
10
175.787
20
-96.718
11
175.787
21
-97.618
0
LINE
8
BLACK
6
CONTINUOUS
10
175.337
20
-97.168
11
176.237
21
-97.168
0
LINE
8
BLACK
6
CONTINUOUS
10
92.7689
20
-150.16
11
92.7689
21
-148.16
0
LINE
8
BLACK
6
CONTINUOUS
10
92.7689
20
-148.16
11
93.2451
21
-148.16
0
LINE
8
BLACK
6
CONTINUOUS
10
93.2451
20
-148.16
11
93.5308
21
-148.256
0
LINE
8
BLACK
6
CONTINUOUS
10
93.5308
20
-148.256
11
93.7213
21
-148.446
0
LINE
8
BLACK
6
CONTINUOUS
10
93.7213
20
-148.446
11
93.8165
21
-148.637
0
LINE
8
BLACK
6
CONTINUOUS
10
93.8165
20
-148.637
11
93.9118
21
-149.018
0
LINE
8
BLACK
6
CONTINUOUS
10
93.9118
20
-149.018
11
93.9118
21
-149.303
0
LINE
8
BLACK
6
CONTINUOUS
10
93.9118
20
-149.303
11
93.8165
21
-149.684
0
LINE
8
BLACK
6
CONTINUOUS
10
93.8165
20
-149.684
11
93.7213
21
-149.875
0
LINE
8
BLACK
6
CONTINUOUS
10
93.7213
20
-149.875
11
93.5308
21
-150.065
0
LINE
8
BLACK
6
CONTINUOUS
10
93.5308
20
-150.065
11
93.2451
21
-150.16
0
LINE
8
BLACK
6
CONTINUOUS
10
93.2451
20
-150.16
11
92.7689
21
-150.16
0
LINE
8
BLACK
6
CONTINUOUS
10
94.7689
20
-150.16
11
94.7689
21
-148.827
0
LINE
8
BLACK
6
CONTINUOUS
10
94.7689
20
-149.208
11
94.8642
21
-149.018
0
LINE
8
BLACK
6
CONTINUOUS
10
94.8642
20
-149.018
11
94.9594
21
-148.922
0
LINE
8
BLACK
6
CONTINUOUS
10
94.9594
20
-148.922
11
95.1499
21
-148.827
0
LINE
8
BLACK
6
CONTINUOUS
10
95.1499
20
-148.827
11
95.3404
21
-148.827
0
LINE
8
BLACK
6
CONTINUOUS
10
96.007
20
-150.16
11
96.007
21
-148.827
0
LINE
8
BLACK
6
CONTINUOUS
10
96.007
20
-148.16
11
95.9118
21
-148.256
0
LINE
8
BLACK
6
CONTINUOUS
10
95.9118
20
-148.256
11
96.007
21
-148.351
0
LINE
8
BLACK
6
CONTINUOUS
10
96.007
20
-148.351
11
96.1023
21
-148.256
0
LINE
8
BLACK
6
CONTINUOUS
10
96.1023
20
-148.256
11
96.007
21
-148.16
0
LINE
8
BLACK
6
CONTINUOUS
10
96.007
20
-148.16
11
96.007
21
-148.351
0
LINE
8
BLACK
6
CONTINUOUS
10
97.2451
20
-150.16
11
97.0546
21
-150.065
0
LINE
8
BLACK
6
CONTINUOUS
10
97.0546
20
-150.065
11
96.9594
21
-149.875
0
LINE
8
BLACK
6
CONTINUOUS
10
96.9594
20
-149.875
11
96.9594
21
-148.16
0
LINE
8
BLACK
6
CONTINUOUS
10
98.2927
20
-150.16
11
98.1023
21
-150.065
0
LINE
8
BLACK
6
CONTINUOUS
10
98.1023
20
-150.065
11
98.007
21
-149.875
0
LINE
8
BLACK
6
CONTINUOUS
10
98.007
20
-149.875
11
98.007
21
-148.16
0
LINE
8
BLACK
6
CONTINUOUS
10
100.578
20
-150.16
11
100.578
21
-148.16
0
LINE
8
BLACK
6
CONTINUOUS
10
100.578
20
-148.16
11
101.245
21
-149.589
0
LINE
8
BLACK
6
CONTINUOUS
10
101.245
20
-149.589
11
101.912
21
-148.16
0
LINE
8
BLACK
6
CONTINUOUS
10
101.912
20
-148.16
11
101.912
21
-150.16
0
LINE
8
BLACK
6
CONTINUOUS
10
103.721
20
-150.16
11
103.721
21
-149.113
0
LINE
8
BLACK
6
CONTINUOUS
10
103.721
20
-149.113
11
103.626
21
-148.922
0
LINE
8
BLACK
6
CONTINUOUS
10
103.626
20
-148.922
11
103.436
21
-148.827
0
LINE
8
BLACK
6
CONTINUOUS
10
103.436
20
-148.827
11
103.055
21
-148.827
0
LINE
8
BLACK
6
CONTINUOUS
10
103.055
20
-148.827
11
102.864
21
-148.922
0
LINE
8
BLACK
6
CONTINUOUS
10
103.721
20
-150.065
11
103.531
21
-150.16
0
LINE
8
BLACK
6
CONTINUOUS
10
103.531
20
-150.16
11
103.055
21
-150.16
0
LINE
8
BLACK
6
CONTINUOUS
10
103.055
20
-150.16
11
102.864
21
-150.065
0
LINE
8
BLACK
6
CONTINUOUS
10
102.864
20
-150.065
11
102.769
21
-149.875
0
LINE
8
BLACK
6
CONTINUOUS
10
102.769
20
-149.875
11
102.769
21
-149.684
0
LINE
8
BLACK
6
CONTINUOUS
10
102.769
20
-149.684
11
102.864
21
-149.494
0
LINE
8
BLACK
6
CONTINUOUS
10
102.864
20
-149.494
11
103.055
21
-149.398
0
LINE
8
BLACK
6
CONTINUOUS
10
103.055
20
-149.398
11
103.531
21
-149.398
0
LINE
8
BLACK
6
CONTINUOUS
10
103.531
20
-149.398
11
103.721
21
-149.303
0
LINE
8
BLACK
6
CONTINUOUS
10
104.674
20
-148.827
11
104.674
21
-150.827
0
LINE
8
BLACK
6
CONTINUOUS
10
104.674
20
-148.922
11
104.864
21
-148.827
0
LINE
8
BLACK
6
CONTINUOUS
10
104.864
20
-148.827
11
105.245
21
-148.827
0
LINE
8
BLACK
6
CONTINUOUS
10
105.245
20
-148.827
11
105.436
21
-148.922
0
LINE
8
BLACK
6
CONTINUOUS
10
105.436
20
-148.922
11
105.531
21
-149.018
0
LINE
8
BLACK
6
CONTINUOUS
10
105.531
20
-149.018
11
105.626
21
-149.208
0
LINE
8
BLACK
6
CONTINUOUS
10
105.626
20
-149.208
11
105.626
21
-149.779
0
LINE
8
BLACK
6
CONTINUOUS
10
105.626
20
-149.779
11
105.531
21
-149.97
0
LINE
8
BLACK
6
CONTINUOUS
10
105.531
20
-149.97
11
105.436
21
-150.065
0
LINE
8
BLACK
6
CONTINUOUS
10
105.436
20
-150.065
11
105.245
21
-150.16
0
LINE
8
BLACK
6
CONTINUOUS
10
105.245
20
-150.16
11
104.864
21
-150.16
0
LINE
8
BLACK
6
CONTINUOUS
10
104.864
20
-150.16
11
104.674
21
-150.065
0
LINE
8
BLACK
6
CONTINUOUS
10
106.483
20
-149.97
11
106.578
21
-150.065
0
LINE
8
BLACK
6
CONTINUOUS
10
106.578
20
-150.065
11
106.483
21
-150.16
0
LINE
8
BLACK
6
CONTINUOUS
10
106.483
20
-150.16
11
106.388
21
-150.065
0
LINE
8
BLACK
6
CONTINUOUS
10
106.388
20
-150.065
11
106.483
21
-149.97
0
LINE
8
BLACK
6
CONTINUOUS
10
106.483
20
-149.97
11
106.483
21
-150.16
0
LINE
8
BLACK
6
CONTINUOUS
10
106.483
20
-148.922
11
106.578
21
-149.018
0
LINE
8
BLACK
6
CONTINUOUS
10
106.578
20
-149.018
11
106.483
21
-149.113
0
LINE
8
BLACK
6
CONTINUOUS
10
106.483
20
-149.113
11
106.388
21
-149.018
0
LINE
8
BLACK
6
CONTINUOUS
10
106.388
20
-149.018
11
106.483
21
-148.922
0
LINE
8
BLACK
6
CONTINUOUS
10
106.483
20
-148.922
11
106.483
21
-149.113
0
LINE
8
BLACK
6
CONTINUOUS
10
89.7927
20
-153.256
11
90.1927
21
-153.656
0
LINE
8
BLACK
6
CONTINUOUS
10
90.1927
20
-153.256
11
89.7927
21
-153.656
0
LINE
8
BLACK
6
CONTINUOUS
10
93.1499
20
-152.36
11
93.3404
21
-152.36
0
LINE
8
BLACK
6
CONTINUOUS
10
93.3404
20
-152.36
11
93.5308
21
-152.456
0
LINE
8
BLACK
6
CONTINUOUS
10
93.5308
20
-152.456
11
93.6261
21
-152.551
0
LINE
8
BLACK
6
CONTINUOUS
10
93.6261
20
-152.551
11
93.7213
21
-152.741
0
LINE
8
BLACK
6
CONTINUOUS
10
93.7213
20
-152.741
11
93.8165
21
-153.122
0
LINE
8
BLACK
6
CONTINUOUS
10
93.8165
20
-153.122
11
93.8165
21
-153.598
0
LINE
8
BLACK
6
CONTINUOUS
10
93.8165
20
-153.598
11
93.7213
21
-153.979
0
LINE
8
BLACK
6
CONTINUOUS
10
93.7213
20
-153.979
11
93.6261
21
-154.17
0
LINE
8
BLACK
6
CONTINUOUS
10
93.6261
20
-154.17
11
93.5308
21
-154.265
0
LINE
8
BLACK
6
CONTINUOUS
10
93.5308
20
-154.265
11
93.3404
21
-154.36
0
LINE
8
BLACK
6
CONTINUOUS
10
93.3404
20
-154.36
11
93.1499
21
-154.36
0
LINE
8
BLACK
6
CONTINUOUS
10
93.1499
20
-154.36
11
92.9594
21
-154.265
0
LINE
8
BLACK
6
CONTINUOUS
10
92.9594
20
-154.265
11
92.8642
21
-154.17
0
LINE
8
BLACK
6
CONTINUOUS
10
92.8642
20
-154.17
11
92.7689
21
-153.979
0
LINE
8
BLACK
6
CONTINUOUS
10
92.7689
20
-153.979
11
92.6737
21
-153.598
0
LINE
8
BLACK
6
CONTINUOUS
10
92.6737
20
-153.598
11
92.6737
21
-153.122
0
LINE
8
BLACK
6
CONTINUOUS
10
92.6737
20
-153.122
11
92.7689
21
-152.741
0
LINE
8
BLACK
6
CONTINUOUS
10
92.7689
20
-152.741
11
92.8642
21
-152.551
0
LINE
8
BLACK
6
CONTINUOUS
10
92.8642
20
-152.551
11
92.9594
21
-152.456
0
LINE
8
BLACK
6
CONTINUOUS
10
92.9594
20
-152.456
11
93.1499
21
-152.36
0
LINE
8
BLACK
6
CONTINUOUS
10
94.6737
20
-154.17
11
94.7689
21
-154.265
0
LINE
8
BLACK
6
CONTINUOUS
10
94.7689
20
-154.265
11
94.6737
21
-154.36
0
LINE
8
BLACK
6
CONTINUOUS
10
94.6737
20
-154.36
11
94.5785
21
-154.265
0
LINE
8
BLACK
6
CONTINUOUS
10
94.5785
20
-154.265
11
94.6737
21
-154.17
0
LINE
8
BLACK
6
CONTINUOUS
10
94.6737
20
-154.17
11
94.6737
21
-154.36
0
LINE
8
BLACK
6
CONTINUOUS
10
96.4832
20
-153.027
11
96.4832
21
-154.36
0
LINE
8
BLACK
6
CONTINUOUS
10
96.007
20
-152.265
11
95.5308
21
-153.694
0
LINE
8
BLACK
6
CONTINUOUS
10
95.5308
20
-153.694
11
96.7689
21
-153.694
0
LINE
8
BLACK
6
CONTINUOUS
10
97.9118
20
-152.36
11
98.1023
21
-152.36
0
LINE
8
BLACK
6
CONTINUOUS
10
98.1023
20
-152.36
11
98.2927
21
-152.456
0
LINE
8
BLACK
6
CONTINUOUS
10
98.2927
20
-152.456
11
98.388
21
-152.551
0
LINE
8
BLACK
6
CONTINUOUS
10
98.388
20
-152.551
11
98.4832
21
-152.741
0
LINE
8
BLACK
6
CONTINUOUS
10
98.4832
20
-152.741
11
98.5785
21
-153.122
0
LINE
8
BLACK
6
CONTINUOUS
10
98.5785
20
-153.122
11
98.5785
21
-153.598
0
LINE
8
BLACK
6
CONTINUOUS
10
98.5785
20
-153.598
11
98.4832
21
-153.979
0
LINE
8
BLACK
6
CONTINUOUS
10
98.4832
20
-153.979
11
98.388
21
-154.17
0
LINE
8
BLACK
6
CONTINUOUS
10
98.388
20
-154.17
11
98.2927
21
-154.265
0
LINE
8
BLACK
6
CONTINUOUS
10
98.2927
20
-154.265
11
98.1023
21
-154.36
0
LINE
8
BLACK
6
CONTINUOUS
10
98.1023
20
-154.36
11
97.9118
21
-154.36
0
LINE
8
BLACK
6
CONTINUOUS
10
97.9118
20
-154.36
11
97.7213
21
-154.265
0
LINE
8
BLACK
6
CONTINUOUS
10
97.7213
20
-154.265
11
97.6261
21
-154.17
0
LINE
8
BLACK
6
CONTINUOUS
10
97.6261
20
-154.17
11
97.5308
21
-153.979
0
LINE
8
BLACK
6
CONTINUOUS
10
97.5308
20
-153.979
11
97.4356
21
-153.598
0
LINE
8
BLACK
6
CONTINUOUS
10
97.4356
20
-153.598
11
97.4356
21
-153.122
0
LINE
8
BLACK
6
CONTINUOUS
10
97.4356
20
-153.122
11
97.5308
21
-152.741
0
LINE
8
BLACK
6
CONTINUOUS
10
97.5308
20
-152.741
11
97.6261
21
-152.551
0
LINE
8
BLACK
6
CONTINUOUS
10
97.6261
20
-152.551
11
97.7213
21
-152.456
0
LINE
8
BLACK
6
CONTINUOUS
10
97.7213
20
-152.456
11
97.9118
21
-152.36
0
LINE
8
BLACK
6
CONTINUOUS
10
99.8165
20
-152.36
11
100.007
21
-152.36
0
LINE
8
BLACK
6
CONTINUOUS
10
100.007
20
-152.36
11
100.197
21
-152.456
0
LINE
8
BLACK
6
CONTINUOUS
10
100.197
20
-152.456
11
100.293
21
-152.551
0
LINE
8
BLACK
6
CONTINUOUS
10
100.293
20
-152.551
11
100.388
21
-152.741
0
LINE
8
BLACK
6
CONTINUOUS
10
100.388
20
-152.741
11
100.483
21
-153.122
0
LINE
8
BLACK
6
CONTINUOUS
10
100.483
20
-153.122
11
100.483
21
-153.598
0
LINE
8
BLACK
6
CONTINUOUS
10
100.483
20
-153.598
11
100.388
21
-153.979
0
LINE
8
BLACK
6
CONTINUOUS
10
100.388
20
-153.979
11
100.293
21
-154.17
0
LINE
8
BLACK
6
CONTINUOUS
10
100.293
20
-154.17
11
100.197
21
-154.265
0
LINE
8
BLACK
6
CONTINUOUS
10
100.197
20
-154.265
11
100.007
21
-154.36
0
LINE
8
BLACK
6
CONTINUOUS
10
100.007
20
-154.36
11
99.8165
21
-154.36
0
LINE
8
BLACK
6
CONTINUOUS
10
99.8165
20
-154.36
11
99.6261
21
-154.265
0
LINE
8
BLACK
6
CONTINUOUS
10
99.6261
20
-154.265
11
99.5308
21
-154.17
0
LINE
8
BLACK
6
CONTINUOUS
10
99.5308
20
-154.17
11
99.4356
21
-153.979
0
LINE
8
BLACK
6
CONTINUOUS
10
99.4356
20
-153.979
11
99.3404
21
-153.598
0
LINE
8
BLACK
6
CONTINUOUS
10
99.3404
20
-153.598
11
99.3404
21
-153.122
0
LINE
8
BLACK
6
CONTINUOUS
10
99.3404
20
-153.122
11
99.4356
21
-152.741
0
LINE
8
BLACK
6
CONTINUOUS
10
99.4356
20
-152.741
11
99.5308
21
-152.551
0
LINE
8
BLACK
6
CONTINUOUS
10
99.5308
20
-152.551
11
99.6261
21
-152.456
0
LINE
8
BLACK
6
CONTINUOUS
10
99.6261
20
-152.456
11
99.8165
21
-152.36
0
LINE
8
BLACK
6
CONTINUOUS
10
101.34
20
-154.36
11
101.34
21
-153.027
0
LINE
8
BLACK
6
CONTINUOUS
10
101.34
20
-153.218
11
101.436
21
-153.122
0
LINE
8
BLACK
6
CONTINUOUS
10
101.436
20
-153.122
11
101.626
21
-153.027
0
LINE
8
BLACK
6
CONTINUOUS
10
101.626
20
-153.027
11
101.912
21
-153.027
0
LINE
8
BLACK
6
CONTINUOUS
10
101.912
20
-153.027
11
102.102
21
-153.122
0
LINE
8
BLACK
6
CONTINUOUS
10
102.102
20
-153.122
11
102.197
21
-153.313
0
LINE
8
BLACK
6
CONTINUOUS
10
102.197
20
-153.313
11
102.197
21
-154.36
0
LINE
8
BLACK
6
CONTINUOUS
10
102.197
20
-153.313
11
102.293
21
-153.122
0
LINE
8
BLACK
6
CONTINUOUS
10
102.293
20
-153.122
11
102.483
21
-153.027
0
LINE
8
BLACK
6
CONTINUOUS
10
102.483
20
-153.027
11
102.769
21
-153.027
0
LINE
8
BLACK
6
CONTINUOUS
10
102.769
20
-153.027
11
102.959
21
-153.122
0
LINE
8
BLACK
6
CONTINUOUS
10
102.959
20
-153.122
11
103.055
21
-153.313
0
LINE
8
BLACK
6
CONTINUOUS
10
103.055
20
-153.313
11
103.055
21
-154.36
0
LINE
8
BLACK
6
CONTINUOUS
10
104.007
20
-154.36
11
104.007
21
-153.027
0
LINE
8
BLACK
6
CONTINUOUS
10
104.007
20
-153.218
11
104.102
21
-153.122
0
LINE
8
BLACK
6
CONTINUOUS
10
104.102
20
-153.122
11
104.293
21
-153.027
0
LINE
8
BLACK
6
CONTINUOUS
10
104.293
20
-153.027
11
104.578
21
-153.027
0
LINE
8
BLACK
6
CONTINUOUS
10
104.578
20
-153.027
11
104.769
21
-153.122
0
LINE
8
BLACK
6
CONTINUOUS
10
104.769
20
-153.122
11
104.864
21
-153.313
0
LINE
8
BLACK
6
CONTINUOUS
10
104.864
20
-153.313
11
104.864
21
-154.36
0
LINE
8
BLACK
6
CONTINUOUS
10
104.864
20
-153.313
11
104.959
21
-153.122
0
LINE
8
BLACK
6
CONTINUOUS
10
104.959
20
-153.122
11
105.15
21
-153.027
0
LINE
8
BLACK
6
CONTINUOUS
10
105.15
20
-153.027
11
105.436
21
-153.027
0
LINE
8
BLACK
6
CONTINUOUS
10
105.436
20
-153.027
11
105.626
21
-153.122
0
LINE
8
BLACK
6
CONTINUOUS
10
105.626
20
-153.122
11
105.721
21
-153.313
0
LINE
8
BLACK
6
CONTINUOUS
10
105.721
20
-153.313
11
105.721
21
-154.36
0
LINE
8
BLACK
6
CONTINUOUS
10
109.626
20
-152.265
11
107.912
21
-154.837
0
LINE
8
BLACK
6
CONTINUOUS
10
112.197
20
-152.36
11
112.388
21
-152.36
0
LINE
8
BLACK
6
CONTINUOUS
10
112.388
20
-152.36
11
112.578
21
-152.456
0
LINE
8
BLACK
6
CONTINUOUS
10
112.578
20
-152.456
11
112.674
21
-152.551
0
LINE
8
BLACK
6
CONTINUOUS
10
112.674
20
-152.551
11
112.769
21
-152.741
0
LINE
8
BLACK
6
CONTINUOUS
10
112.769
20
-152.741
11
112.864
21
-153.122
0
LINE
8
BLACK
6
CONTINUOUS
10
112.864
20
-153.122
11
112.864
21
-153.598
0
LINE
8
BLACK
6
CONTINUOUS
10
112.864
20
-153.598
11
112.769
21
-153.979
0
LINE
8
BLACK
6
CONTINUOUS
10
112.769
20
-153.979
11
112.674
21
-154.17
0
LINE
8
BLACK
6
CONTINUOUS
10
112.674
20
-154.17
11
112.578
21
-154.265
0
LINE
8
BLACK
6
CONTINUOUS
10
112.578
20
-154.265
11
112.388
21
-154.36
0
LINE
8
BLACK
6
CONTINUOUS
10
112.388
20
-154.36
11
112.197
21
-154.36
0
LINE
8
BLACK
6
CONTINUOUS
10
112.197
20
-154.36
11
112.007
21
-154.265
0
LINE
8
BLACK
6
CONTINUOUS
10
112.007
20
-154.265
11
111.912
21
-154.17
0
LINE
8
BLACK
6
CONTINUOUS
10
111.912
20
-154.17
11
111.817
21
-153.979
0
LINE
8
BLACK
6
CONTINUOUS
10
111.817
20
-153.979
11
111.721
21
-153.598
0
LINE
8
BLACK
6
CONTINUOUS
10
111.721
20
-153.598
11
111.721
21
-153.122
0
LINE
8
BLACK
6
CONTINUOUS
10
111.721
20
-153.122
11
111.817
21
-152.741
0
LINE
8
BLACK
6
CONTINUOUS
10
111.817
20
-152.741
11
111.912
21
-152.551
0
LINE
8
BLACK
6
CONTINUOUS
10
111.912
20
-152.551
11
112.007
21
-152.456
0
LINE
8
BLACK
6
CONTINUOUS
10
112.007
20
-152.456
11
112.197
21
-152.36
0
LINE
8
BLACK
6
CONTINUOUS
10
113.721
20
-154.17
11
113.817
21
-154.265
0
LINE
8
BLACK
6
CONTINUOUS
10
113.817
20
-154.265
11
113.721
21
-154.36
0
LINE
8
BLACK
6
CONTINUOUS
10
113.721
20
-154.36
11
113.626
21
-154.265
0
LINE
8
BLACK
6
CONTINUOUS
10
113.626
20
-154.265
11
113.721
21
-154.17
0
LINE
8
BLACK
6
CONTINUOUS
10
113.721
20
-154.17
11
113.721
21
-154.36
0
LINE
8
BLACK
6
CONTINUOUS
10
115.055
20
-152.36
11
115.245
21
-152.36
0
LINE
8
BLACK
6
CONTINUOUS
10
115.245
20
-152.36
11
115.436
21
-152.456
0
LINE
8
BLACK
6
CONTINUOUS
10
115.436
20
-152.456
11
115.531
21
-152.551
0
LINE
8
BLACK
6
CONTINUOUS
10
115.531
20
-152.551
11
115.626
21
-152.741
0
LINE
8
BLACK
6
CONTINUOUS
10
115.626
20
-152.741
11
115.721
21
-153.122
0
LINE
8
BLACK
6
CONTINUOUS
10
115.721
20
-153.122
11
115.721
21
-153.598
0
LINE
8
BLACK
6
CONTINUOUS
10
115.721
20
-153.598
11
115.626
21
-153.979
0
LINE
8
BLACK
6
CONTINUOUS
10
115.626
20
-153.979
11
115.531
21
-154.17
0
LINE
8
BLACK
6
CONTINUOUS
10
115.531
20
-154.17
11
115.436
21
-154.265
0
LINE
8
BLACK
6
CONTINUOUS
10
115.436
20
-154.265
11
115.245
21
-154.36
0
LINE
8
BLACK
6
CONTINUOUS
10
115.245
20
-154.36
11
115.055
21
-154.36
0
LINE
8
BLACK
6
CONTINUOUS
10
115.055
20
-154.36
11
114.864
21
-154.265
0
LINE
8
BLACK
6
CONTINUOUS
10
114.864
20
-154.265
11
114.769
21
-154.17
0
LINE
8
BLACK
6
CONTINUOUS
10
114.769
20
-154.17
11
114.674
21
-153.979
0
LINE
8
BLACK
6
CONTINUOUS
10
114.674
20
-153.979
11
114.578
21
-153.598
0
LINE
8
BLACK
6
CONTINUOUS
10
114.578
20
-153.598
11
114.578
21
-153.122
0
LINE
8
BLACK
6
CONTINUOUS
10
114.578
20
-153.122
11
114.674
21
-152.741
0
LINE
8
BLACK
6
CONTINUOUS
10
114.674
20
-152.741
11
114.769
21
-152.551
0
LINE
8
BLACK
6
CONTINUOUS
10
114.769
20
-152.551
11
114.864
21
-152.456
0
LINE
8
BLACK
6
CONTINUOUS
10
114.864
20
-152.456
11
115.055
21
-152.36
0
LINE
8
BLACK
6
CONTINUOUS
10
117.626
20
-154.36
11
116.483
21
-154.36
0
LINE
8
BLACK
6
CONTINUOUS
10
117.055
20
-154.36
11
117.055
21
-152.36
0
LINE
8
BLACK
6
CONTINUOUS
10
117.055
20
-152.36
11
116.864
21
-152.646
0
LINE
8
BLACK
6
CONTINUOUS
10
116.864
20
-152.646
11
116.674
21
-152.837
0
LINE
8
BLACK
6
CONTINUOUS
10
116.674
20
-152.837
11
116.483
21
-152.932
0
LINE
8
BLACK
6
CONTINUOUS
10
119.436
20
-152.36
11
118.483
21
-152.36
0
LINE
8
BLACK
6
CONTINUOUS
10
118.483
20
-152.36
11
118.388
21
-153.313
0
LINE
8
BLACK
6
CONTINUOUS
10
118.388
20
-153.313
11
118.483
21
-153.218
0
LINE
8
BLACK
6
CONTINUOUS
10
118.483
20
-153.218
11
118.674
21
-153.122
0
LINE
8
BLACK
6
CONTINUOUS
10
118.674
20
-153.122
11
119.15
21
-153.122
0
LINE
8
BLACK
6
CONTINUOUS
10
119.15
20
-153.122
11
119.34
21
-153.218
0
LINE
8
BLACK
6
CONTINUOUS
10
119.34
20
-153.218
11
119.436
21
-153.313
0
LINE
8
BLACK
6
CONTINUOUS
10
119.436
20
-153.313
11
119.531
21
-153.503
0
LINE
8
BLACK
6
CONTINUOUS
10
119.531
20
-153.503
11
119.531
21
-153.979
0
LINE
8
BLACK
6
CONTINUOUS
10
119.531
20
-153.979
11
119.436
21
-154.17
0
LINE
8
BLACK
6
CONTINUOUS
10
119.436
20
-154.17
11
119.34
21
-154.265
0
LINE
8
BLACK
6
CONTINUOUS
10
119.34
20
-154.265
11
119.15
21
-154.36
0
LINE
8
BLACK
6
CONTINUOUS
10
119.15
20
-154.36
11
118.674
21
-154.36
0
LINE
8
BLACK
6
CONTINUOUS
10
118.674
20
-154.36
11
118.483
21
-154.265
0
LINE
8
BLACK
6
CONTINUOUS
10
118.483
20
-154.265
11
118.388
21
-154.17
0
LINE
8
BLACK
6
CONTINUOUS
10
120.197
20
-152.36
11
121.531
21
-152.36
0
LINE
8
BLACK
6
CONTINUOUS
10
121.531
20
-152.36
11
120.674
21
-154.36
0
LINE
8
BLACK
6
CONTINUOUS
10
122.197
20
-152.36
11
122.197
21
-152.741
0
LINE
8
BLACK
6
CONTINUOUS
10
122.959
20
-152.36
11
122.959
21
-152.741
0
LINE
8
BLACK
6
CONTINUOUS
10
125.912
20
-155.122
11
125.817
21
-155.027
0
LINE
8
BLACK
6
CONTINUOUS
10
125.817
20
-155.027
11
125.626
21
-154.741
0
LINE
8
BLACK
6
CONTINUOUS
10
125.626
20
-154.741
11
125.531
21
-154.551
0
LINE
8
BLACK
6
CONTINUOUS
10
125.531
20
-154.551
11
125.436
21
-154.265
0
LINE
8
BLACK
6
CONTINUOUS
10
125.436
20
-154.265
11
125.34
21
-153.789
0
LINE
8
BLACK
6
CONTINUOUS
10
125.34
20
-153.789
11
125.34
21
-153.408
0
LINE
8
BLACK
6
CONTINUOUS
10
125.34
20
-153.408
11
125.436
21
-152.932
0
LINE
8
BLACK
6
CONTINUOUS
10
125.436
20
-152.932
11
125.531
21
-152.646
0
LINE
8
BLACK
6
CONTINUOUS
10
125.531
20
-152.646
11
125.626
21
-152.456
0
LINE
8
BLACK
6
CONTINUOUS
10
125.626
20
-152.456
11
125.817
21
-152.17
0
LINE
8
BLACK
6
CONTINUOUS
10
125.817
20
-152.17
11
125.912
21
-152.075
0
LINE
8
BLACK
6
CONTINUOUS
10
127.531
20
-153.027
11
127.531
21
-154.36
0
LINE
8
BLACK
6
CONTINUOUS
10
127.055
20
-152.265
11
126.578
21
-153.694
0
LINE
8
BLACK
6
CONTINUOUS
10
126.578
20
-153.694
11
127.817
21
-153.694
0
LINE
8
BLACK
6
CONTINUOUS
10
129.436
20
-153.027
11
129.436
21
-154.36
0
LINE
8
BLACK
6
CONTINUOUS
10
128.959
20
-152.265
11
128.483
21
-153.694
0
LINE
8
BLACK
6
CONTINUOUS
10
128.483
20
-153.694
11
129.721
21
-153.694
0
LINE
8
BLACK
6
CONTINUOUS
10
132.007
20
-154.36
11
132.007
21
-152.36
0
LINE
8
BLACK
6
CONTINUOUS
10
132.864
20
-154.36
11
132.864
21
-153.313
0
LINE
8
BLACK
6
CONTINUOUS
10
132.864
20
-153.313
11
132.769
21
-153.122
0
LINE
8
BLACK
6
CONTINUOUS
10
132.769
20
-153.122
11
132.578
21
-153.027
0
LINE
8
BLACK
6
CONTINUOUS
10
132.578
20
-153.027
11
132.293
21
-153.027
0
LINE
8
BLACK
6
CONTINUOUS
10
132.293
20
-153.027
11
132.102
21
-153.122
0
LINE
8
BLACK
6
CONTINUOUS
10
132.102
20
-153.122
11
132.007
21
-153.218
0
LINE
8
BLACK
6
CONTINUOUS
10
134.102
20
-154.36
11
133.912
21
-154.265
0
LINE
8
BLACK
6
CONTINUOUS
10
133.912
20
-154.265
11
133.817
21
-154.17
0
LINE
8
BLACK
6
CONTINUOUS
10
133.817
20
-154.17
11
133.721
21
-153.979
0
LINE
8
BLACK
6
CONTINUOUS
10
133.721
20
-153.979
11
133.721
21
-153.408
0
LINE
8
BLACK
6
CONTINUOUS
10
133.721
20
-153.408
11
133.817
21
-153.218
0
LINE
8
BLACK
6
CONTINUOUS
10
133.817
20
-153.218
11
133.912
21
-153.122
0
LINE
8
BLACK
6
CONTINUOUS
10
133.912
20
-153.122
11
134.102
21
-153.027
0
LINE
8
BLACK
6
CONTINUOUS
10
134.102
20
-153.027
11
134.388
21
-153.027
0
LINE
8
BLACK
6
CONTINUOUS
10
134.388
20
-153.027
11
134.578
21
-153.122
0
LINE
8
BLACK
6
CONTINUOUS
10
134.578
20
-153.122
11
134.674
21
-153.218
0
LINE
8
BLACK
6
CONTINUOUS
10
134.674
20
-153.218
11
134.769
21
-153.408
0
LINE
8
BLACK
6
CONTINUOUS
10
134.769
20
-153.408
11
134.769
21
-153.979
0
LINE
8
BLACK
6
CONTINUOUS
10
134.769
20
-153.979
11
134.674
21
-154.17
0
LINE
8
BLACK
6
CONTINUOUS
10
134.674
20
-154.17
11
134.578
21
-154.265
0
LINE
8
BLACK
6
CONTINUOUS
10
134.578
20
-154.265
11
134.388
21
-154.36
0
LINE
8
BLACK
6
CONTINUOUS
10
134.388
20
-154.36
11
134.102
21
-154.36
0
LINE
8
BLACK
6
CONTINUOUS
10
135.912
20
-154.36
11
135.721
21
-154.265
0
LINE
8
BLACK
6
CONTINUOUS
10
135.721
20
-154.265
11
135.626
21
-154.075
0
LINE
8
BLACK
6
CONTINUOUS
10
135.626
20
-154.075
11
135.626
21
-152.36
0
LINE
8
BLACK
6
CONTINUOUS
10
137.436
20
-154.265
11
137.245
21
-154.36
0
LINE
8
BLACK
6
CONTINUOUS
10
137.245
20
-154.36
11
136.864
21
-154.36
0
LINE
8
BLACK
6
CONTINUOUS
10
136.864
20
-154.36
11
136.674
21
-154.265
0
LINE
8
BLACK
6
CONTINUOUS
10
136.674
20
-154.265
11
136.578
21
-154.075
0
LINE
8
BLACK
6
CONTINUOUS
10
136.578
20
-154.075
11
136.578
21
-153.313
0
LINE
8
BLACK
6
CONTINUOUS
10
136.578
20
-153.313
11
136.674
21
-153.122
0
LINE
8
BLACK
6
CONTINUOUS
10
136.674
20
-153.122
11
136.864
21
-153.027
0
LINE
8
BLACK
6
CONTINUOUS
10
136.864
20
-153.027
11
137.245
21
-153.027
0
LINE
8
BLACK
6
CONTINUOUS
10
137.245
20
-153.027
11
137.436
21
-153.122
0
LINE
8
BLACK
6
CONTINUOUS
10
137.436
20
-153.122
11
137.531
21
-153.313
0
LINE
8
BLACK
6
CONTINUOUS
10
137.531
20
-153.313
11
137.531
21
-153.503
0
LINE
8
BLACK
6
CONTINUOUS
10
137.531
20
-153.503
11
136.578
21
-153.694
0
LINE
8
BLACK
6
CONTINUOUS
10
138.293
20
-154.265
11
138.483
21
-154.36
0
LINE
8
BLACK
6
CONTINUOUS
10
138.483
20
-154.36
11
138.864
21
-154.36
0
LINE
8
BLACK
6
CONTINUOUS
10
138.864
20
-154.36
11
139.055
21
-154.265
0
LINE
8
BLACK
6
CONTINUOUS
10
139.055
20
-154.265
11
139.15
21
-154.075
0
LINE
8
BLACK
6
CONTINUOUS
10
139.15
20
-154.075
11
139.15
21
-153.979
0
LINE
8
BLACK
6
CONTINUOUS
10
139.15
20
-153.979
11
139.055
21
-153.789
0
LINE
8
BLACK
6
CONTINUOUS
10
139.055
20
-153.789
11
138.864
21
-153.694
0
LINE
8
BLACK
6
CONTINUOUS
10
138.864
20
-153.694
11
138.578
21
-153.694
0
LINE
8
BLACK
6
CONTINUOUS
10
138.578
20
-153.694
11
138.388
21
-153.598
0
LINE
8
BLACK
6
CONTINUOUS
10
138.388
20
-153.598
11
138.293
21
-153.408
0
LINE
8
BLACK
6
CONTINUOUS
10
138.293
20
-153.408
11
138.293
21
-153.313
0
LINE
8
BLACK
6
CONTINUOUS
10
138.293
20
-153.313
11
138.388
21
-153.122
0
LINE
8
BLACK
6
CONTINUOUS
10
138.388
20
-153.122
11
138.578
21
-153.027
0
LINE
8
BLACK
6
CONTINUOUS
10
138.578
20
-153.027
11
138.864
21
-153.027
0
LINE
8
BLACK
6
CONTINUOUS
10
138.864
20
-153.027
11
139.055
21
-153.122
0
LINE
8
BLACK
6
CONTINUOUS
10
139.817
20
-155.122
11
139.912
21
-155.027
0
LINE
8
BLACK
6
CONTINUOUS
10
139.912
20
-155.027
11
140.102
21
-154.741
0
LINE
8
BLACK
6
CONTINUOUS
10
140.102
20
-154.741
11
140.197
21
-154.551
0
LINE
8
BLACK
6
CONTINUOUS
10
140.197
20
-154.551
11
140.293
21
-154.265
0
LINE
8
BLACK
6
CONTINUOUS
10
140.293
20
-154.265
11
140.388
21
-153.789
0
LINE
8
BLACK
6
CONTINUOUS
10
140.388
20
-153.789
11
140.388
21
-153.408
0
LINE
8
BLACK
6
CONTINUOUS
10
140.388
20
-153.408
11
140.293
21
-152.932
0
LINE
8
BLACK
6
CONTINUOUS
10
140.293
20
-152.932
11
140.197
21
-152.646
0
LINE
8
BLACK
6
CONTINUOUS
10
140.197
20
-152.646
11
140.102
21
-152.456
0
LINE
8
BLACK
6
CONTINUOUS
10
140.102
20
-152.456
11
139.912
21
-152.17
0
LINE
8
BLACK
6
CONTINUOUS
10
139.912
20
-152.17
11
139.817
21
-152.075
0
CIRCLE
8
BLACK
10
89.7927
20
-156.096
40
0.4
0
LINE
8
BLACK
6
CONTINUOUS
10
93.1499
20
-155
11
93.3404
21
-155
0
LINE
8
BLACK
6
CONTINUOUS
10
93.3404
20
-155
11
93.5308
21
-155.096
0
LINE
8
BLACK
6
CONTINUOUS
10
93.5308
20
-155.096
11
93.6261
21
-155.191
0
LINE
8
BLACK
6
CONTINUOUS
10
93.6261
20
-155.191
11
93.7213
21
-155.381
0
LINE
8
BLACK
6
CONTINUOUS
10
93.7213
20
-155.381
11
93.8165
21
-155.762
0
LINE
8
BLACK
6
CONTINUOUS
10
93.8165
20
-155.762
11
93.8165
21
-156.238
0
LINE
8
BLACK
6
CONTINUOUS
10
93.8165
20
-156.238
11
93.7213
21
-156.619
0
LINE
8
BLACK
6
CONTINUOUS
10
93.7213
20
-156.619
11
93.6261
21
-156.81
0
LINE
8
BLACK
6
CONTINUOUS
10
93.6261
20
-156.81
11
93.5308
21
-156.905
0
LINE
8
BLACK
6
CONTINUOUS
10
93.5308
20
-156.905
11
93.3404
21
-157
0
LINE
8
BLACK
6
CONTINUOUS
10
93.3404
20
-157
11
93.1499
21
-157
0
LINE
8
BLACK
6
CONTINUOUS
10
93.1499
20
-157
11
92.9594
21
-156.905
0
LINE
8
BLACK
6
CONTINUOUS
10
92.9594
20
-156.905
11
92.8642
21
-156.81
0
LINE
8
BLACK
6
CONTINUOUS
10
92.8642
20
-156.81
11
92.7689
21
-156.619
0
LINE
8
BLACK
6
CONTINUOUS
10
92.7689
20
-156.619
11
92.6737
21
-156.238
0
LINE
8
BLACK
6
CONTINUOUS
10
92.6737
20
-156.238
11
92.6737
21
-155.762
0
LINE
8
BLACK
6
CONTINUOUS
10
92.6737
20
-155.762
11
92.7689
21
-155.381
0
LINE
8
BLACK
6
CONTINUOUS
10
92.7689
20
-155.381
11
92.8642
21
-155.191
0
LINE
8
BLACK
6
CONTINUOUS
10
92.8642
20
-155.191
11
92.9594
21
-155.096
0
LINE
8
BLACK
6
CONTINUOUS
10
92.9594
20
-155.096
11
93.1499
21
-155
0
LINE
8
BLACK
6
CONTINUOUS
10
94.6737
20
-156.81
11
94.7689
21
-156.905
0
LINE
8
BLACK
6
CONTINUOUS
10
94.7689
20
-156.905
11
94.6737
21
-157
0
LINE
8
BLACK
6
CONTINUOUS
10
94.6737
20
-157
11
94.5785
21
-156.905
0
LINE
8
BLACK
6
CONTINUOUS
10
94.5785
20
-156.905
11
94.6737
21
-156.81
0
LINE
8
BLACK
6
CONTINUOUS
10
94.6737
20
-156.81
11
94.6737
21
-157
0
LINE
8
BLACK
6
CONTINUOUS
10
95.9118
20
-155.858
11
95.7213
21
-155.762
0
LINE
8
BLACK
6
CONTINUOUS
10
95.7213
20
-155.762
11
95.6261
21
-155.667
0
LINE
8
BLACK
6
CONTINUOUS
10
95.6261
20
-155.667
11
95.5308
21
-155.477
0
LINE
8
BLACK
6
CONTINUOUS
10
95.5308
20
-155.477
11
95.5308
21
-155.381
0
LINE
8
BLACK
6
CONTINUOUS
10
95.5308
20
-155.381
11
95.6261
21
-155.191
0
LINE
8
BLACK
6
CONTINUOUS
10
95.6261
20
-155.191
11
95.7213
21
-155.096
0
LINE
8
BLACK
6
CONTINUOUS
10
95.7213
20
-155.096
11
95.9118
21
-155
0
LINE
8
BLACK
6
CONTINUOUS
10
95.9118
20
-155
11
96.2927
21
-155
0
LINE
8
BLACK
6
CONTINUOUS
10
96.2927
20
-155
11
96.4832
21
-155.096
0
LINE
8
BLACK
6
CONTINUOUS
10
96.4832
20
-155.096
11
96.5785
21
-155.191
0
LINE
8
BLACK
6
CONTINUOUS
10
96.5785
20
-155.191
11
96.6737
21
-155.381
0
LINE
8
BLACK
6
CONTINUOUS
10
96.6737
20
-155.381
11
96.6737
21
-155.477
0
LINE
8
BLACK
6
CONTINUOUS
10
96.6737
20
-155.477
11
96.5785
21
-155.667
0
LINE
8
BLACK
6
CONTINUOUS
10
96.5785
20
-155.667
11
96.4832
21
-155.762
0
LINE
8
BLACK
6
CONTINUOUS
10
96.4832
20
-155.762
11
96.2927
21
-155.858
0
LINE
8
BLACK
6
CONTINUOUS
10
96.2927
20
-155.858
11
95.9118
21
-155.858
0
LINE
8
BLACK
6
CONTINUOUS
10
95.9118
20
-155.858
11
95.7213
21
-155.953
0
LINE
8
BLACK
6
CONTINUOUS
10
95.7213
20
-155.953
11
95.6261
21
-156.048
0
LINE
8
BLACK
6
CONTINUOUS
10
95.6261
20
-156.048
11
95.5308
21
-156.238
0
LINE
8
BLACK
6
CONTINUOUS
10
95.5308
20
-156.238
11
95.5308
21
-156.619
0
LINE
8
BLACK
6
CONTINUOUS
10
95.5308
20
-156.619
11
95.6261
21
-156.81
0
LINE
8
BLACK
6
CONTINUOUS
10
95.6261
20
-156.81
11
95.7213
21
-156.905
0
LINE
8
BLACK
6
CONTINUOUS
10
95.7213
20
-156.905
11
95.9118
21
-157
0
LINE
8
BLACK
6
CONTINUOUS
10
95.9118
20
-157
11
96.2927
21
-157
0
LINE
8
BLACK
6
CONTINUOUS
10
96.2927
20
-157
11
96.4832
21
-156.905
0
LINE
8
BLACK
6
CONTINUOUS
10
96.4832
20
-156.905
11
96.5785
21
-156.81
0
LINE
8
BLACK
6
CONTINUOUS
10
96.5785
20
-156.81
11
96.6737
21
-156.619
0
LINE
8
BLACK
6
CONTINUOUS
10
96.6737
20
-156.619
11
96.6737
21
-156.238
0
LINE
8
BLACK
6
CONTINUOUS
10
96.6737
20
-156.238
11
96.5785
21
-156.048
0
LINE
8
BLACK
6
CONTINUOUS
10
96.5785
20
-156.048
11
96.4832
21
-155.953
0
LINE
8
BLACK
6
CONTINUOUS
10
96.4832
20
-155.953
11
96.2927
21
-155.858
0
LINE
8
BLACK
6
CONTINUOUS
10
97.9118
20
-155
11
98.1023
21
-155
0
LINE
8
BLACK
6
CONTINUOUS
10
98.1023
20
-155
11
98.2927
21
-155.096
0
LINE
8
BLACK
6
CONTINUOUS
10
98.2927
20
-155.096
11
98.388
21
-155.191
0
LINE
8
BLACK
6
CONTINUOUS
10
98.388
20
-155.191
11
98.4832
21
-155.381
0
LINE
8
BLACK
6
CONTINUOUS
10
98.4832
20
-155.381
11
98.5785
21
-155.762
0
LINE
8
BLACK
6
CONTINUOUS
10
98.5785
20
-155.762
11
98.5785
21
-156.238
0
LINE
8
BLACK
6
CONTINUOUS
10
98.5785
20
-156.238
11
98.4832
21
-156.619
0
LINE
8
BLACK
6
CONTINUOUS
10
98.4832
20
-156.619
11
98.388
21
-156.81
0
LINE
8
BLACK
6
CONTINUOUS
10
98.388
20
-156.81
11
98.2927
21
-156.905
0
LINE
8
BLACK
6
CONTINUOUS
10
98.2927
20
-156.905
11
98.1023
21
-157
0
LINE
8
BLACK
6
CONTINUOUS
10
98.1023
20
-157
11
97.9118
21
-157
0
LINE
8
BLACK
6
CONTINUOUS
10
97.9118
20
-157
11
97.7213
21
-156.905
0
LINE
8
BLACK
6
CONTINUOUS
10
97.7213
20
-156.905
11
97.6261
21
-156.81
0
LINE
8
BLACK
6
CONTINUOUS
10
97.6261
20
-156.81
11
97.5308
21
-156.619
0
LINE
8
BLACK
6
CONTINUOUS
10
97.5308
20
-156.619
11
97.4356
21
-156.238
0
LINE
8
BLACK
6
CONTINUOUS
10
97.4356
20
-156.238
11
97.4356
21
-155.762
0
LINE
8
BLACK
6
CONTINUOUS
10
97.4356
20
-155.762
11
97.5308
21
-155.381
0
LINE
8
BLACK
6
CONTINUOUS
10
97.5308
20
-155.381
11
97.6261
21
-155.191
0
LINE
8
BLACK
6
CONTINUOUS
10
97.6261
20
-155.191
11
97.7213
21
-155.096
0
LINE
8
BLACK
6
CONTINUOUS
10
97.7213
20
-155.096
11
97.9118
21
-155
0
LINE
8
BLACK
6
CONTINUOUS
10
99.8165
20
-155
11
100.007
21
-155
0
LINE
8
BLACK
6
CONTINUOUS
10
100.007
20
-155
11
100.197
21
-155.096
0
LINE
8
BLACK
6
CONTINUOUS
10
100.197
20
-155.096
11
100.293
21
-155.191
0
LINE
8
BLACK
6
CONTINUOUS
10
100.293
20
-155.191
11
100.388
21
-155.381
0
LINE
8
BLACK
6
CONTINUOUS
10
100.388
20
-155.381
11
100.483
21
-155.762
0
LINE
8
BLACK
6
CONTINUOUS
10
100.483
20
-155.762
11
100.483
21
-156.238
0
LINE
8
BLACK
6
CONTINUOUS
10
100.483
20
-156.238
11
100.388
21
-156.619
0
LINE
8
BLACK
6
CONTINUOUS
10
100.388
20
-156.619
11
100.293
21
-156.81
0
LINE
8
BLACK
6
CONTINUOUS
10
100.293
20
-156.81
11
100.197
21
-156.905
0
LINE
8
BLACK
6
CONTINUOUS
10
100.197
20
-156.905
11
100.007
21
-157
0
LINE
8
BLACK
6
CONTINUOUS
10
100.007
20
-157
11
99.8165
21
-157
0
LINE
8
BLACK
6
CONTINUOUS
10
99.8165
20
-157
11
99.6261
21
-156.905
0
LINE
8
BLACK
6
CONTINUOUS
10
99.6261
20
-156.905
11
99.5308
21
-156.81
0
LINE
8
BLACK
6
CONTINUOUS
10
99.5308
20
-156.81
11
99.4356
21
-156.619
0
LINE
8
BLACK
6
CONTINUOUS
10
99.4356
20
-156.619
11
99.3404
21
-156.238
0
LINE
8
BLACK
6
CONTINUOUS
10
99.3404
20
-156.238
11
99.3404
21
-155.762
0
LINE
8
BLACK
6
CONTINUOUS
10
99.3404
20
-155.762
11
99.4356
21
-155.381
0
LINE
8
BLACK
6
CONTINUOUS
10
99.4356
20
-155.381
11
99.5308
21
-155.191
0
LINE
8
BLACK
6
CONTINUOUS
10
99.5308
20
-155.191
11
99.6261
21
-155.096
0
LINE
8
BLACK
6
CONTINUOUS
10
99.6261
20
-155.096
11
99.8165
21
-155
0
LINE
8
BLACK
6
CONTINUOUS
10
101.34
20
-157
11
101.34
21
-155.667
0
LINE
8
BLACK
6
CONTINUOUS
10
101.34
20
-155.858
11
101.436
21
-155.762
0
LINE
8
BLACK
6
CONTINUOUS
10
101.436
20
-155.762
11
101.626
21
-155.667
0
LINE
8
BLACK
6
CONTINUOUS
10
101.626
20
-155.667
11
101.912
21
-155.667
0
LINE
8
BLACK
6
CONTINUOUS
10
101.912
20
-155.667
11
102.102
21
-155.762
0
LINE
8
BLACK
6
CONTINUOUS
10
102.102
20
-155.762
11
102.197
21
-155.953
0
LINE
8
BLACK
6
CONTINUOUS
10
102.197
20
-155.953
11
102.197
21
-157
0
LINE
8
BLACK
6
CONTINUOUS
10
102.197
20
-155.953
11
102.293
21
-155.762
0
LINE
8
BLACK
6
CONTINUOUS
10
102.293
20
-155.762
11
102.483
21
-155.667
0
LINE
8
BLACK
6
CONTINUOUS
10
102.483
20
-155.667
11
102.769
21
-155.667
0
LINE
8
BLACK
6
CONTINUOUS
10
102.769
20
-155.667
11
102.959
21
-155.762
0
LINE
8
BLACK
6
CONTINUOUS
10
102.959
20
-155.762
11
103.055
21
-155.953
0
LINE
8
BLACK
6
CONTINUOUS
10
103.055
20
-155.953
11
103.055
21
-157
0
LINE
8
BLACK
6
CONTINUOUS
10
104.007
20
-157
11
104.007
21
-155.667
0
LINE
8
BLACK
6
CONTINUOUS
10
104.007
20
-155.858
11
104.102
21
-155.762
0
LINE
8
BLACK
6
CONTINUOUS
10
104.102
20
-155.762
11
104.293
21
-155.667
0
LINE
8
BLACK
6
CONTINUOUS
10
104.293
20
-155.667
11
104.578
21
-155.667
0
LINE
8
BLACK
6
CONTINUOUS
10
104.578
20
-155.667
11
104.769
21
-155.762
0
LINE
8
BLACK
6
CONTINUOUS
10
104.769
20
-155.762
11
104.864
21
-155.953
0
LINE
8
BLACK
6
CONTINUOUS
10
104.864
20
-155.953
11
104.864
21
-157
0
LINE
8
BLACK
6
CONTINUOUS
10
104.864
20
-155.953
11
104.959
21
-155.762
0
LINE
8
BLACK
6
CONTINUOUS
10
104.959
20
-155.762
11
105.15
21
-155.667
0
LINE
8
BLACK
6
CONTINUOUS
10
105.15
20
-155.667
11
105.436
21
-155.667
0
LINE
8
BLACK
6
CONTINUOUS
10
105.436
20
-155.667
11
105.626
21
-155.762
0
LINE
8
BLACK
6
CONTINUOUS
10
105.626
20
-155.762
11
105.721
21
-155.953
0
LINE
8
BLACK
6
CONTINUOUS
10
105.721
20
-155.953
11
105.721
21
-157
0
LINE
8
BLACK
6
CONTINUOUS
10
109.626
20
-154.905
11
107.912
21
-157.477
0
LINE
8
BLACK
6
CONTINUOUS
10
112.197
20
-155
11
112.388
21
-155
0
LINE
8
BLACK
6
CONTINUOUS
10
112.388
20
-155
11
112.578
21
-155.096
0
LINE
8
BLACK
6
CONTINUOUS
10
112.578
20
-155.096
11
112.674
21
-155.191
0
LINE
8
BLACK
6
CONTINUOUS
10
112.674
20
-155.191
11
112.769
21
-155.381
0
LINE
8
BLACK
6
CONTINUOUS
10
112.769
20
-155.381
11
112.864
21
-155.762
0
LINE
8
BLACK
6
CONTINUOUS
10
112.864
20
-155.762
11
112.864
21
-156.238
0
LINE
8
BLACK
6
CONTINUOUS
10
112.864
20
-156.238
11
112.769
21
-156.619
0
LINE
8
BLACK
6
CONTINUOUS
10
112.769
20
-156.619
11
112.674
21
-156.81
0
LINE
8
BLACK
6
CONTINUOUS
10
112.674
20
-156.81
11
112.578
21
-156.905
0
LINE
8
BLACK
6
CONTINUOUS
10
112.578
20
-156.905
11
112.388
21
-157
0
LINE
8
BLACK
6
CONTINUOUS
10
112.388
20
-157
11
112.197
21
-157
0
LINE
8
BLACK
6
CONTINUOUS
10
112.197
20
-157
11
112.007
21
-156.905
0
LINE
8
BLACK
6
CONTINUOUS
10
112.007
20
-156.905
11
111.912
21
-156.81
0
LINE
8
BLACK
6
CONTINUOUS
10
111.912
20
-156.81
11
111.817
21
-156.619
0
LINE
8
BLACK
6
CONTINUOUS
10
111.817
20
-156.619
11
111.721
21
-156.238
0
LINE
8
BLACK
6
CONTINUOUS
10
111.721
20
-156.238
11
111.721
21
-155.762
0
LINE
8
BLACK
6
CONTINUOUS
10
111.721
20
-155.762
11
111.817
21
-155.381
0
LINE
8
BLACK
6
CONTINUOUS
10
111.817
20
-155.381
11
111.912
21
-155.191
0
LINE
8
BLACK
6
CONTINUOUS
10
111.912
20
-155.191
11
112.007
21
-155.096
0
LINE
8
BLACK
6
CONTINUOUS
10
112.007
20
-155.096
11
112.197
21
-155
0
LINE
8
BLACK
6
CONTINUOUS
10
113.721
20
-156.81
11
113.817
21
-156.905
0
LINE
8
BLACK
6
CONTINUOUS
10
113.817
20
-156.905
11
113.721
21
-157
0
LINE
8
BLACK
6
CONTINUOUS
10
113.721
20
-157
11
113.626
21
-156.905
0
LINE
8
BLACK
6
CONTINUOUS
10
113.626
20
-156.905
11
113.721
21
-156.81
0
LINE
8
BLACK
6
CONTINUOUS
10
113.721
20
-156.81
11
113.721
21
-157
0
LINE
8
BLACK
6
CONTINUOUS
10
115.055
20
-155
11
115.245
21
-155
0
LINE
8
BLACK
6
CONTINUOUS
10
115.245
20
-155
11
115.436
21
-155.096
0
LINE
8
BLACK
6
CONTINUOUS
10
115.436
20
-155.096
11
115.531
21
-155.191
0
LINE
8
BLACK
6
CONTINUOUS
10
115.531
20
-155.191
11
115.626
21
-155.381
0
LINE
8
BLACK
6
CONTINUOUS
10
115.626
20
-155.381
11
115.721
21
-155.762
0
LINE
8
BLACK
6
CONTINUOUS
10
115.721
20
-155.762
11
115.721
21
-156.238
0
LINE
8
BLACK
6
CONTINUOUS
10
115.721
20
-156.238
11
115.626
21
-156.619
0
LINE
8
BLACK
6
CONTINUOUS
10
115.626
20
-156.619
11
115.531
21
-156.81
0
LINE
8
BLACK
6
CONTINUOUS
10
115.531
20
-156.81
11
115.436
21
-156.905
0
LINE
8
BLACK
6
CONTINUOUS
10
115.436
20
-156.905
11
115.245
21
-157
0
LINE
8
BLACK
6
CONTINUOUS
10
115.245
20
-157
11
115.055
21
-157
0
LINE
8
BLACK
6
CONTINUOUS
10
115.055
20
-157
11
114.864
21
-156.905
0
LINE
8
BLACK
6
CONTINUOUS
10
114.864
20
-156.905
11
114.769
21
-156.81
0
LINE
8
BLACK
6
CONTINUOUS
10
114.769
20
-156.81
11
114.674
21
-156.619
0
LINE
8
BLACK
6
CONTINUOUS
10
114.674
20
-156.619
11
114.578
21
-156.238
0
LINE
8
BLACK
6
CONTINUOUS
10
114.578
20
-156.238
11
114.578
21
-155.762
0
LINE
8
BLACK
6
CONTINUOUS
10
114.578
20
-155.762
11
114.674
21
-155.381
0
LINE
8
BLACK
6
CONTINUOUS
10
114.674
20
-155.381
11
114.769
21
-155.191
0
LINE
8
BLACK
6
CONTINUOUS
10
114.769
20
-155.191
11
114.864
21
-155.096
0
LINE
8
BLACK
6
CONTINUOUS
10
114.864
20
-155.096
11
115.055
21
-155
0
LINE
8
BLACK
6
CONTINUOUS
10
116.388
20
-155
11
117.626
21
-155
0
LINE
8
BLACK
6
CONTINUOUS
10
117.626
20
-155
11
116.959
21
-155.762
0
LINE
8
BLACK
6
CONTINUOUS
10
116.959
20
-155.762
11
117.245
21
-155.762
0
LINE
8
BLACK
6
CONTINUOUS
10
117.245
20
-155.762
11
117.436
21
-155.858
0
LINE
8
BLACK
6
CONTINUOUS
10
117.436
20
-155.858
11
117.531
21
-155.953
0
LINE
8
BLACK
6
CONTINUOUS
10
117.531
20
-155.953
11
117.626
21
-156.143
0
LINE
8
BLACK
6
CONTINUOUS
10
117.626
20
-156.143
11
117.626
21
-156.619
0
LINE
8
BLACK
6
CONTINUOUS
10
117.626
20
-156.619
11
117.531
21
-156.81
0
LINE
8
BLACK
6
CONTINUOUS
10
117.531
20
-156.81
11
117.436
21
-156.905
0
LINE
8
BLACK
6
CONTINUOUS
10
117.436
20
-156.905
11
117.245
21
-157
0
LINE
8
BLACK
6
CONTINUOUS
10
117.245
20
-157
11
116.674
21
-157
0
LINE
8
BLACK
6
CONTINUOUS
10
116.674
20
-157
11
116.483
21
-156.905
0
LINE
8
BLACK
6
CONTINUOUS
10
116.483
20
-156.905
11
116.388
21
-156.81
0
LINE
8
BLACK
6
CONTINUOUS
10
119.531
20
-157
11
118.388
21
-157
0
LINE
8
BLACK
6
CONTINUOUS
10
118.959
20
-157
11
118.959
21
-155
0
LINE
8
BLACK
6
CONTINUOUS
10
118.959
20
-155
11
118.769
21
-155.286
0
LINE
8
BLACK
6
CONTINUOUS
10
118.769
20
-155.286
11
118.578
21
-155.477
0
LINE
8
BLACK
6
CONTINUOUS
10
118.578
20
-155.477
11
118.388
21
-155.572
0
LINE
8
BLACK
6
CONTINUOUS
10
121.34
20
-155
11
120.388
21
-155
0
LINE
8
BLACK
6
CONTINUOUS
10
120.388
20
-155
11
120.293
21
-155.953
0
LINE
8
BLACK
6
CONTINUOUS
10
120.293
20
-155.953
11
120.388
21
-155.858
0
LINE
8
BLACK
6
CONTINUOUS
10
120.388
20
-155.858
11
120.578
21
-155.762
0
LINE
8
BLACK
6
CONTINUOUS
10
120.578
20
-155.762
11
121.055
21
-155.762
0
LINE
8
BLACK
6
CONTINUOUS
10
121.055
20
-155.762
11
121.245
21
-155.858
0
LINE
8
BLACK
6
CONTINUOUS
10
121.245
20
-155.858
11
121.34
21
-155.953
0
LINE
8
BLACK
6
CONTINUOUS
10
121.34
20
-155.953
11
121.436
21
-156.143
0
LINE
8
BLACK
6
CONTINUOUS
10
121.436
20
-156.143
11
121.436
21
-156.619
0
LINE
8
BLACK
6
CONTINUOUS
10
121.436
20
-156.619
11
121.34
21
-156.81
0
LINE
8
BLACK
6
CONTINUOUS
10
121.34
20
-156.81
11
121.245
21
-156.905
0
LINE
8
BLACK
6
CONTINUOUS
10
121.245
20
-156.905
11
121.055
21
-157
0
LINE
8
BLACK
6
CONTINUOUS
10
121.055
20
-157
11
120.578
21
-157
0
LINE
8
BLACK
6
CONTINUOUS
10
120.578
20
-157
11
120.388
21
-156.905
0
LINE
8
BLACK
6
CONTINUOUS
10
120.388
20
-156.905
11
120.293
21
-156.81
0
LINE
8
BLACK
6
CONTINUOUS
10
122.197
20
-155
11
122.197
21
-155.381
0
LINE
8
BLACK
6
CONTINUOUS
10
122.959
20
-155
11
122.959
21
-155.381
0
LINE
8
BLACK
6
CONTINUOUS
10
125.912
20
-157.762
11
125.817
21
-157.667
0
LINE
8
BLACK
6
CONTINUOUS
10
125.817
20
-157.667
11
125.626
21
-157.381
0
LINE
8
BLACK
6
CONTINUOUS
10
125.626
20
-157.381
11
125.531
21
-157.191
0
LINE
8
BLACK
6
CONTINUOUS
10
125.531
20
-157.191
11
125.436
21
-156.905
0
LINE
8
BLACK
6
CONTINUOUS
10
125.436
20
-156.905
11
125.34
21
-156.429
0
LINE
8
BLACK
6
CONTINUOUS
10
125.34
20
-156.429
11
125.34
21
-156.048
0
LINE
8
BLACK
6
CONTINUOUS
10
125.34
20
-156.048
11
125.436
21
-155.572
0
LINE
8
BLACK
6
CONTINUOUS
10
125.436
20
-155.572
11
125.531
21
-155.286
0
LINE
8
BLACK
6
CONTINUOUS
10
125.531
20
-155.286
11
125.626
21
-155.096
0
LINE
8
BLACK
6
CONTINUOUS
10
125.626
20
-155.096
11
125.817
21
-154.81
0
LINE
8
BLACK
6
CONTINUOUS
10
125.817
20
-154.81
11
125.912
21
-154.715
0
LINE
8
BLACK
6
CONTINUOUS
10
126.483
20
-155
11
127.721
21
-155
0
LINE
8
BLACK
6
CONTINUOUS
10
127.721
20
-155
11
127.055
21
-155.762
0
LINE
8
BLACK
6
CONTINUOUS
10
127.055
20
-155.762
11
127.34
21
-155.762
0
LINE
8
BLACK
6
CONTINUOUS
10
127.34
20
-155.762
11
127.531
21
-155.858
0
LINE
8
BLACK
6
CONTINUOUS
10
127.531
20
-155.858
11
127.626
21
-155.953
0
LINE
8
BLACK
6
CONTINUOUS
10
127.626
20
-155.953
11
127.721
21
-156.143
0
LINE
8
BLACK
6
CONTINUOUS
10
127.721
20
-156.143
11
127.721
21
-156.619
0
LINE
8
BLACK
6
CONTINUOUS
10
127.721
20
-156.619
11
127.626
21
-156.81
0
LINE
8
BLACK
6
CONTINUOUS
10
127.626
20
-156.81
11
127.531
21
-156.905
0
LINE
8
BLACK
6
CONTINUOUS
10
127.531
20
-156.905
11
127.34
21
-157
0
LINE
8
BLACK
6
CONTINUOUS
10
127.34
20
-157
11
126.769
21
-157
0
LINE
8
BLACK
6
CONTINUOUS
10
126.769
20
-157
11
126.578
21
-156.905
0
LINE
8
BLACK
6
CONTINUOUS
10
126.578
20
-156.905
11
126.483
21
-156.81
0
LINE
8
BLACK
6
CONTINUOUS
10
128.388
20
-155
11
129.626
21
-155
0
LINE
8
BLACK
6
CONTINUOUS
10
129.626
20
-155
11
128.959
21
-155.762
0
LINE
8
BLACK
6
CONTINUOUS
10
128.959
20
-155.762
11
129.245
21
-155.762
0
LINE
8
BLACK
6
CONTINUOUS
10
129.245
20
-155.762
11
129.436
21
-155.858
0
LINE
8
BLACK
6
CONTINUOUS
10
129.436
20
-155.858
11
129.531
21
-155.953
0
LINE
8
BLACK
6
CONTINUOUS
10
129.531
20
-155.953
11
129.626
21
-156.143
0
LINE
8
BLACK
6
CONTINUOUS
10
129.626
20
-156.143
11
129.626
21
-156.619
0
LINE
8
BLACK
6
CONTINUOUS
10
129.626
20
-156.619
11
129.531
21
-156.81
0
LINE
8
BLACK
6
CONTINUOUS
10
129.531
20
-156.81
11
129.436
21
-156.905
0
LINE
8
BLACK
6
CONTINUOUS
10
129.436
20
-156.905
11
129.245
21
-157
0
LINE
8
BLACK
6
CONTINUOUS
10
129.245
20
-157
11
128.674
21
-157
0
LINE
8
BLACK
6
CONTINUOUS
10
128.674
20
-157
11
128.483
21
-156.905
0
LINE
8
BLACK
6
CONTINUOUS
10
128.483
20
-156.905
11
128.388
21
-156.81
0
LINE
8
BLACK
6
CONTINUOUS
10
132.007
20
-157
11
132.007
21
-155
0
LINE
8
BLACK
6
CONTINUOUS
10
132.864
20
-157
11
132.864
21
-155.953
0
LINE
8
BLACK
6
CONTINUOUS
10
132.864
20
-155.953
11
132.769
21
-155.762
0
LINE
8
BLACK
6
CONTINUOUS
10
132.769
20
-155.762
11
132.578
21
-155.667
0
LINE
8
BLACK
6
CONTINUOUS
10
132.578
20
-155.667
11
132.293
21
-155.667
0
LINE
8
BLACK
6
CONTINUOUS
10
132.293
20
-155.667
11
132.102
21
-155.762
0
LINE
8
BLACK
6
CONTINUOUS
10
132.102
20
-155.762
11
132.007
21
-155.858
0
LINE
8
BLACK
6
CONTINUOUS
10
134.102
20
-157
11
133.912
21
-156.905
0
LINE
8
BLACK
6
CONTINUOUS
10
133.912
20
-156.905
11
133.817
21
-156.81
0
LINE
8
BLACK
6
CONTINUOUS
10
133.817
20
-156.81
11
133.721
21
-156.619
0
LINE
8
BLACK
6
CONTINUOUS
10
133.721
20
-156.619
11
133.721
21
-156.048
0
LINE
8
BLACK
6
CONTINUOUS
10
133.721
20
-156.048
11
133.817
21
-155.858
0
LINE
8
BLACK
6
CONTINUOUS
10
133.817
20
-155.858
11
133.912
21
-155.762
0
LINE
8
BLACK
6
CONTINUOUS
10
133.912
20
-155.762
11
134.102
21
-155.667
0
LINE
8
BLACK
6
CONTINUOUS
10
134.102
20
-155.667
11
134.388
21
-155.667
0
LINE
8
BLACK
6
CONTINUOUS
10
134.388
20
-155.667
11
134.578
21
-155.762
0
LINE
8
BLACK
6
CONTINUOUS
10
134.578
20
-155.762
11
134.674
21
-155.858
0
LINE
8
BLACK
6
CONTINUOUS
10
134.674
20
-155.858
11
134.769
21
-156.048
0
LINE
8
BLACK
6
CONTINUOUS
10
134.769
20
-156.048
11
134.769
21
-156.619
0
LINE
8
BLACK
6
CONTINUOUS
10
134.769
20
-156.619
11
134.674
21
-156.81
0
LINE
8
BLACK
6
CONTINUOUS
10
134.674
20
-156.81
11
134.578
21
-156.905
0
LINE
8
BLACK
6
CONTINUOUS
10
134.578
20
-156.905
11
134.388
21
-157
0
LINE
8
BLACK
6
CONTINUOUS
10
134.388
20
-157
11
134.102
21
-157
0
LINE
8
BLACK
6
CONTINUOUS
10
135.912
20
-157
11
135.721
21
-156.905
0
LINE
8
BLACK
6
CONTINUOUS
10
135.721
20
-156.905
11
135.626
21
-156.715
0
LINE
8
BLACK
6
CONTINUOUS
10
135.626
20
-156.715
11
135.626
21
-155
0
LINE
8
BLACK
6
CONTINUOUS
10
137.436
20
-156.905
11
137.245
21
-157
0
LINE
8
BLACK
6
CONTINUOUS
10
137.245
20
-157
11
136.864
21
-157
0
LINE
8
BLACK
6
CONTINUOUS
10
136.864
20
-157
11
136.674
21
-156.905
0
LINE
8
BLACK
6
CONTINUOUS
10
136.674
20
-156.905
11
136.578
21
-156.715
0
LINE
8
BLACK
6
CONTINUOUS
10
136.578
20
-156.715
11
136.578
21
-155.953
0
LINE
8
BLACK
6
CONTINUOUS
10
136.578
20
-155.953
11
136.674
21
-155.762
0
LINE
8
BLACK
6
CONTINUOUS
10
136.674
20
-155.762
11
136.864
21
-155.667
0
LINE
8
BLACK
6
CONTINUOUS
10
136.864
20
-155.667
11
137.245
21
-155.667
0
LINE
8
BLACK
6
CONTINUOUS
10
137.245
20
-155.667
11
137.436
21
-155.762
0
LINE
8
BLACK
6
CONTINUOUS
10
137.436
20
-155.762
11
137.531
21
-155.953
0
LINE
8
BLACK
6
CONTINUOUS
10
137.531
20
-155.953
11
137.531
21
-156.143
0
LINE
8
BLACK
6
CONTINUOUS
10
137.531
20
-156.143
11
136.578
21
-156.334
0
LINE
8
BLACK
6
CONTINUOUS
10
138.293
20
-156.905
11
138.483
21
-157
0
LINE
8
BLACK
6
CONTINUOUS
10
138.483
20
-157
11
138.864
21
-157
0
LINE
8
BLACK
6
CONTINUOUS
10
138.864
20
-157
11
139.055
21
-156.905
0
LINE
8
BLACK
6
CONTINUOUS
10
139.055
20
-156.905
11
139.15
21
-156.715
0
LINE
8
BLACK
6
CONTINUOUS
10
139.15
20
-156.715
11
139.15
21
-156.619
0
LINE
8
BLACK
6
CONTINUOUS
10
139.15
20
-156.619
11
139.055
21
-156.429
0
LINE
8
BLACK
6
CONTINUOUS
10
139.055
20
-156.429
11
138.864
21
-156.334
0
LINE
8
BLACK
6
CONTINUOUS
10
138.864
20
-156.334
11
138.578
21
-156.334
0
LINE
8
BLACK
6
CONTINUOUS
10
138.578
20
-156.334
11
138.388
21
-156.238
0
LINE
8
BLACK
6
CONTINUOUS
10
138.388
20
-156.238
11
138.293
21
-156.048
0
LINE
8
BLACK
6
CONTINUOUS
10
138.293
20
-156.048
11
138.293
21
-155.953
0
LINE
8
BLACK
6
CONTINUOUS
10
138.293
20
-155.953
11
138.388
21
-155.762
0
LINE
8
BLACK
6
CONTINUOUS
10
138.388
20
-155.762
11
138.578
21
-155.667
0
LINE
8
BLACK
6
CONTINUOUS
10
138.578
20
-155.667
11
138.864
21
-155.667
0
LINE
8
BLACK
6
CONTINUOUS
10
138.864
20
-155.667
11
139.055
21
-155.762
0
LINE
8
BLACK
6
CONTINUOUS
10
139.817
20
-157.762
11
139.912
21
-157.667
0
LINE
8
BLACK
6
CONTINUOUS
10
139.912
20
-157.667
11
140.102
21
-157.381
0
LINE
8
BLACK
6
CONTINUOUS
10
140.102
20
-157.381
11
140.197
21
-157.191
0
LINE
8
BLACK
6
CONTINUOUS
10
140.197
20
-157.191
11
140.293
21
-156.905
0
LINE
8
BLACK
6
CONTINUOUS
10
140.293
20
-156.905
11
140.388
21
-156.429
0
LINE
8
BLACK
6
CONTINUOUS
10
140.388
20
-156.429
11
140.388
21
-156.048
0
LINE
8
BLACK
6
CONTINUOUS
10
140.388
20
-156.048
11
140.293
21
-155.572
0
LINE
8
BLACK
6
CONTINUOUS
10
140.293
20
-155.572
11
140.197
21
-155.286
0
LINE
8
BLACK
6
CONTINUOUS
10
140.197
20
-155.286
11
140.102
21
-155.096
0
LINE
8
BLACK
6
CONTINUOUS
10
140.102
20
-155.096
11
139.912
21
-154.81
0
LINE
8
BLACK
6
CONTINUOUS
10
139.912
20
-154.81
11
139.817
21
-154.715
0
LINE
8
BLACK
6
CONTINUOUS
10
89.7427
20
-158.286
11
89.7427
21
-159.186
0
LINE
8
BLACK
6
CONTINUOUS
10
89.2927
20
-158.736
11
90.1927
21
-158.736
0
LINE
8
BLACK
6
CONTINUOUS
10
93.1499
20
-157.64
11
93.3404
21
-157.64
0
LINE
8
BLACK
6
CONTINUOUS
10
93.3404
20
-157.64
11
93.5308
21
-157.736
0
LINE
8
BLACK
6
CONTINUOUS
10
93.5308
20
-157.736
11
93.6261
21
-157.831
0
LINE
8
BLACK
6
CONTINUOUS
10
93.6261
20
-157.831
11
93.7213
21
-158.021
0
LINE
8
BLACK
6
CONTINUOUS
10
93.7213
20
-158.021
11
93.8165
21
-158.402
0
LINE
8
BLACK
6
CONTINUOUS
10
93.8165
20
-158.402
11
93.8165
21
-158.878
0
LINE
8
BLACK
6
CONTINUOUS
10
93.8165
20
-158.878
11
93.7213
21
-159.259
0
LINE
8
BLACK
6
CONTINUOUS
10
93.7213
20
-159.259
11
93.6261
21
-159.45
0
LINE
8
BLACK
6
CONTINUOUS
10
93.6261
20
-159.45
11
93.5308
21
-159.545
0
LINE
8
BLACK
6
CONTINUOUS
10
93.5308
20
-159.545
11
93.3404
21
-159.64
0
LINE
8
BLACK
6
CONTINUOUS
10
93.3404
20
-159.64
11
93.1499
21
-159.64
0
LINE
8
BLACK
6
CONTINUOUS
10
93.1499
20
-159.64
11
92.9594
21
-159.545
0
LINE
8
BLACK
6
CONTINUOUS
10
92.9594
20
-159.545
11
92.8642
21
-159.45
0
LINE
8
BLACK
6
CONTINUOUS
10
92.8642
20
-159.45
11
92.7689
21
-159.259
0
LINE
8
BLACK
6
CONTINUOUS
10
92.7689
20
-159.259
11
92.6737
21
-158.878
0
LINE
8
BLACK
6
CONTINUOUS
10
92.6737
20
-158.878
11
92.6737
21
-158.402
0
LINE
8
BLACK
6
CONTINUOUS
10
92.6737
20
-158.402
11
92.7689
21
-158.021
0
LINE
8
BLACK
6
CONTINUOUS
10
92.7689
20
-158.021
11
92.8642
21
-157.831
0
LINE
8
BLACK
6
CONTINUOUS
10
92.8642
20
-157.831
11
92.9594
21
-157.736
0
LINE
8
BLACK
6
CONTINUOUS
10
92.9594
20
-157.736
11
93.1499
21
-157.64
0
LINE
8
BLACK
6
CONTINUOUS
10
94.6737
20
-159.45
11
94.7689
21
-159.545
0
LINE
8
BLACK
6
CONTINUOUS
10
94.7689
20
-159.545
11
94.6737
21
-159.64
0
LINE
8
BLACK
6
CONTINUOUS
10
94.6737
20
-159.64
11
94.5785
21
-159.545
0
LINE
8
BLACK
6
CONTINUOUS
10
94.5785
20
-159.545
11
94.6737
21
-159.45
0
LINE
8
BLACK
6
CONTINUOUS
10
94.6737
20
-159.45
11
94.6737
21
-159.64
0
LINE
8
BLACK
6
CONTINUOUS
10
95.7213
20
-159.64
11
96.1023
21
-159.64
0
LINE
8
BLACK
6
CONTINUOUS
10
96.1023
20
-159.64
11
96.2927
21
-159.545
0
LINE
8
BLACK
6
CONTINUOUS
10
96.2927
20
-159.545
11
96.388
21
-159.45
0
LINE
8
BLACK
6
CONTINUOUS
10
96.388
20
-159.45
11
96.5785
21
-159.164
0
LINE
8
BLACK
6
CONTINUOUS
10
96.5785
20
-159.164
11
96.6737
21
-158.783
0
LINE
8
BLACK
6
CONTINUOUS
10
96.6737
20
-158.783
11
96.6737
21
-158.021
0
LINE
8
BLACK
6
CONTINUOUS
10
96.6737
20
-158.021
11
96.5785
21
-157.831
0
LINE
8
BLACK
6
CONTINUOUS
10
96.5785
20
-157.831
11
96.4832
21
-157.736
0
LINE
8
BLACK
6
CONTINUOUS
10
96.4832
20
-157.736
11
96.2927
21
-157.64
0
LINE
8
BLACK
6
CONTINUOUS
10
96.2927
20
-157.64
11
95.9118
21
-157.64
0
LINE
8
BLACK
6
CONTINUOUS
10
95.9118
20
-157.64
11
95.7213
21
-157.736
0
LINE
8
BLACK
6
CONTINUOUS
10
95.7213
20
-157.736
11
95.6261
21
-157.831
0
LINE
8
BLACK
6
CONTINUOUS
10
95.6261
20
-157.831
11
95.5308
21
-158.021
0
LINE
8
BLACK
6
CONTINUOUS
10
95.5308
20
-158.021
11
95.5308
21
-158.498
0
LINE
8
BLACK
6
CONTINUOUS
10
95.5308
20
-158.498
11
95.6261
21
-158.688
0
LINE
8
BLACK
6
CONTINUOUS
10
95.6261
20
-158.688
11
95.7213
21
-158.783
0
LINE
8
BLACK
6
CONTINUOUS
10
95.7213
20
-158.783
11
95.9118
21
-158.878
0
LINE
8
BLACK
6
CONTINUOUS
10
95.9118
20
-158.878
11
96.2927
21
-158.878
0
LINE
8
BLACK
6
CONTINUOUS
10
96.2927
20
-158.878
11
96.4832
21
-158.783
0
LINE
8
BLACK
6
CONTINUOUS
10
96.4832
20
-158.783
11
96.5785
21
-158.688
0
LINE
8
BLACK
6
CONTINUOUS
10
96.5785
20
-158.688
11
96.6737
21
-158.498
0
LINE
8
BLACK
6
CONTINUOUS
10
97.9118
20
-157.64
11
98.1023
21
-157.64
0
LINE
8
BLACK
6
CONTINUOUS
10
98.1023
20
-157.64
11
98.2927
21
-157.736
0
LINE
8
BLACK
6
CONTINUOUS
10
98.2927
20
-157.736
11
98.388
21
-157.831
0
LINE
8
BLACK
6
CONTINUOUS
10
98.388
20
-157.831
11
98.4832
21
-158.021
0
LINE
8
BLACK
6
CONTINUOUS
10
98.4832
20
-158.021
11
98.5785
21
-158.402
0
LINE
8
BLACK
6
CONTINUOUS
10
98.5785
20
-158.402
11
98.5785
21
-158.878
0
LINE
8
BLACK
6
CONTINUOUS
10
98.5785
20
-158.878
11
98.4832
21
-159.259
0
LINE
8
BLACK
6
CONTINUOUS
10
98.4832
20
-159.259
11
98.388
21
-159.45
0
LINE
8
BLACK
6
CONTINUOUS
10
98.388
20
-159.45
11
98.2927
21
-159.545
0
LINE
8
BLACK
6
CONTINUOUS
10
98.2927
20
-159.545
11
98.1023
21
-159.64
0
LINE
8
BLACK
6
CONTINUOUS
10
98.1023
20
-159.64
11
97.9118
21
-159.64
0
LINE
8
BLACK
6
CONTINUOUS
10
97.9118
20
-159.64
11
97.7213
21
-159.545
0
LINE
8
BLACK
6
CONTINUOUS
10
97.7213
20
-159.545
11
97.6261
21
-159.45
0
LINE
8
BLACK
6
CONTINUOUS
10
97.6261
20
-159.45
11
97.5308
21
-159.259
0
LINE
8
BLACK
6
CONTINUOUS
10
97.5308
20
-159.259
11
97.4356
21
-158.878
0
LINE
8
BLACK
6
CONTINUOUS
10
97.4356
20
-158.878
11
97.4356
21
-158.402
0
LINE
8
BLACK
6
CONTINUOUS
10
97.4356
20
-158.402
11
97.5308
21
-158.021
0
LINE
8
BLACK
6
CONTINUOUS
10
97.5308
20
-158.021
11
97.6261
21
-157.831
0
LINE
8
BLACK
6
CONTINUOUS
10
97.6261
20
-157.831
11
97.7213
21
-157.736
0
LINE
8
BLACK
6
CONTINUOUS
10
97.7213
20
-157.736
11
97.9118
21
-157.64
0
LINE
8
BLACK
6
CONTINUOUS
10
99.8165
20
-157.64
11
100.007
21
-157.64
0
LINE
8
BLACK
6
CONTINUOUS
10
100.007
20
-157.64
11
100.197
21
-157.736
0
LINE
8
BLACK
6
CONTINUOUS
10
100.197
20
-157.736
11
100.293
21
-157.831
0
LINE
8
BLACK
6
CONTINUOUS
10
100.293
20
-157.831
11
100.388
21
-158.021
0
LINE
8
BLACK
6
CONTINUOUS
10
100.388
20
-158.021
11
100.483
21
-158.402
0
LINE
8
BLACK
6
CONTINUOUS
10
100.483
20
-158.402
11
100.483
21
-158.878
0
LINE
8
BLACK
6
CONTINUOUS
10
100.483
20
-158.878
11
100.388
21
-159.259
0
LINE
8
BLACK
6
CONTINUOUS
10
100.388
20
-159.259
11
100.293
21
-159.45
0
LINE
8
BLACK
6
CONTINUOUS
10
100.293
20
-159.45
11
100.197
21
-159.545
0
LINE
8
BLACK
6
CONTINUOUS
10
100.197
20
-159.545
11
100.007
21
-159.64
0
LINE
8
BLACK
6
CONTINUOUS
10
100.007
20
-159.64
11
99.8165
21
-159.64
0
LINE
8
BLACK
6
CONTINUOUS
10
99.8165
20
-159.64
11
99.6261
21
-159.545
0
LINE
8
BLACK
6
CONTINUOUS
10
99.6261
20
-159.545
11
99.5308
21
-159.45
0
LINE
8
BLACK
6
CONTINUOUS
10
99.5308
20
-159.45
11
99.4356
21
-159.259
0
LINE
8
BLACK
6
CONTINUOUS
10
99.4356
20
-159.259
11
99.3404
21
-158.878
0
LINE
8
BLACK
6
CONTINUOUS
10
99.3404
20
-158.878
11
99.3404
21
-158.402
0
LINE
8
BLACK
6
CONTINUOUS
10
99.3404
20
-158.402
11
99.4356
21
-158.021
0
LINE
8
BLACK
6
CONTINUOUS
10
99.4356
20
-158.021
11
99.5308
21
-157.831
0
LINE
8
BLACK
6
CONTINUOUS
10
99.5308
20
-157.831
11
99.6261
21
-157.736
0
LINE
8
BLACK
6
CONTINUOUS
10
99.6261
20
-157.736
11
99.8165
21
-157.64
0
LINE
8
BLACK
6
CONTINUOUS
10
101.34
20
-159.64
11
101.34
21
-158.307
0
LINE
8
BLACK
6
CONTINUOUS
10
101.34
20
-158.498
11
101.436
21
-158.402
0
LINE
8
BLACK
6
CONTINUOUS
10
101.436
20
-158.402
11
101.626
21
-158.307
0
LINE
8
BLACK
6
CONTINUOUS
10
101.626
20
-158.307
11
101.912
21
-158.307
0
LINE
8
BLACK
6
CONTINUOUS
10
101.912
20
-158.307
11
102.102
21
-158.402
0
LINE
8
BLACK
6
CONTINUOUS
10
102.102
20
-158.402
11
102.197
21
-158.593
0
LINE
8
BLACK
6
CONTINUOUS
10
102.197
20
-158.593
11
102.197
21
-159.64
0
LINE
8
BLACK
6
CONTINUOUS
10
102.197
20
-158.593
11
102.293
21
-158.402
0
LINE
8
BLACK
6
CONTINUOUS
10
102.293
20
-158.402
11
102.483
21
-158.307
0
LINE
8
BLACK
6
CONTINUOUS
10
102.483
20
-158.307
11
102.769
21
-158.307
0
LINE
8
BLACK
6
CONTINUOUS
10
102.769
20
-158.307
11
102.959
21
-158.402
0
LINE
8
BLACK
6
CONTINUOUS
10
102.959
20
-158.402
11
103.055
21
-158.593
0
LINE
8
BLACK
6
CONTINUOUS
10
103.055
20
-158.593
11
103.055
21
-159.64
0
LINE
8
BLACK
6
CONTINUOUS
10
104.007
20
-159.64
11
104.007
21
-158.307
0
LINE
8
BLACK
6
CONTINUOUS
10
104.007
20
-158.498
11
104.102
21
-158.402
0
LINE
8
BLACK
6
CONTINUOUS
10
104.102
20
-158.402
11
104.293
21
-158.307
0
LINE
8
BLACK
6
CONTINUOUS
10
104.293
20
-158.307
11
104.578
21
-158.307
0
LINE
8
BLACK
6
CONTINUOUS
10
104.578
20
-158.307
11
104.769
21
-158.402
0
LINE
8
BLACK
6
CONTINUOUS
10
104.769
20
-158.402
11
104.864
21
-158.593
0
LINE
8
BLACK
6
CONTINUOUS
10
104.864
20
-158.593
11
104.864
21
-159.64
0
LINE
8
BLACK
6
CONTINUOUS
10
104.864
20
-158.593
11
104.959
21
-158.402
0
LINE
8
BLACK
6
CONTINUOUS
10
104.959
20
-158.402
11
105.15
21
-158.307
0
LINE
8
BLACK
6
CONTINUOUS
10
105.15
20
-158.307
11
105.436
21
-158.307
0
LINE
8
BLACK
6
CONTINUOUS
10
105.436
20
-158.307
11
105.626
21
-158.402
0
LINE
8
BLACK
6
CONTINUOUS
10
105.626
20
-158.402
11
105.721
21
-158.593
0
LINE
8
BLACK
6
CONTINUOUS
10
105.721
20
-158.593
11
105.721
21
-159.64
0
LINE
8
BLACK
6
CONTINUOUS
10
109.626
20
-157.545
11
107.912
21
-160.117
0
LINE
8
BLACK
6
CONTINUOUS
10
112.197
20
-157.64
11
112.388
21
-157.64
0
LINE
8
BLACK
6
CONTINUOUS
10
112.388
20
-157.64
11
112.578
21
-157.736
0
LINE
8
BLACK
6
CONTINUOUS
10
112.578
20
-157.736
11
112.674
21
-157.831
0
LINE
8
BLACK
6
CONTINUOUS
10
112.674
20
-157.831
11
112.769
21
-158.021
0
LINE
8
BLACK
6
CONTINUOUS
10
112.769
20
-158.021
11
112.864
21
-158.402
0
LINE
8
BLACK
6
CONTINUOUS
10
112.864
20
-158.402
11
112.864
21
-158.878
0
LINE
8
BLACK
6
CONTINUOUS
10
112.864
20
-158.878
11
112.769
21
-159.259
0
LINE
8
BLACK
6
CONTINUOUS
10
112.769
20
-159.259
11
112.674
21
-159.45
0
LINE
8
BLACK
6
CONTINUOUS
10
112.674
20
-159.45
11
112.578
21
-159.545
0
LINE
8
BLACK
6
CONTINUOUS
10
112.578
20
-159.545
11
112.388
21
-159.64
0
LINE
8
BLACK
6
CONTINUOUS
10
112.388
20
-159.64
11
112.197
21
-159.64
0
LINE
8
BLACK
6
CONTINUOUS
10
112.197
20
-159.64
11
112.007
21
-159.545
0
LINE
8
BLACK
6
CONTINUOUS
10
112.007
20
-159.545
11
111.912
21
-159.45
0
LINE
8
BLACK
6
CONTINUOUS
10
111.912
20
-159.45
11
111.817
21
-159.259
0
LINE
8
BLACK
6
CONTINUOUS
10
111.817
20
-159.259
11
111.721
21
-158.878
0
LINE
8
BLACK
6
CONTINUOUS
10
111.721
20
-158.878
11
111.721
21
-158.402
0
LINE
8
BLACK
6
CONTINUOUS
10
111.721
20
-158.402
11
111.817
21
-158.021
0
LINE
8
BLACK
6
CONTINUOUS
10
111.817
20
-158.021
11
111.912
21
-157.831
0
LINE
8
BLACK
6
CONTINUOUS
10
111.912
20
-157.831
11
112.007
21
-157.736
0
LINE
8
BLACK
6
CONTINUOUS
10
112.007
20
-157.736
11
112.197
21
-157.64
0
LINE
8
BLACK
6
CONTINUOUS
10
113.721
20
-159.45
11
113.817
21
-159.545
0
LINE
8
BLACK
6
CONTINUOUS
10
113.817
20
-159.545
11
113.721
21
-159.64
0
LINE
8
BLACK
6
CONTINUOUS
10
113.721
20
-159.64
11
113.626
21
-159.545
0
LINE
8
BLACK
6
CONTINUOUS
10
113.626
20
-159.545
11
113.721
21
-159.45
0
LINE
8
BLACK
6
CONTINUOUS
10
113.721
20
-159.45
11
113.721
21
-159.64
0
LINE
8
BLACK
6
CONTINUOUS
10
115.055
20
-157.64
11
115.245
21
-157.64
0
LINE
8
BLACK
6
CONTINUOUS
10
115.245
20
-157.64
11
115.436
21
-157.736
0
LINE
8
BLACK
6
CONTINUOUS
10
115.436
20
-157.736
11
115.531
21
-157.831
0
LINE
8
BLACK
6
CONTINUOUS
10
115.531
20
-157.831
11
115.626
21
-158.021
0
LINE
8
BLACK
6
CONTINUOUS
10
115.626
20
-158.021
11
115.721
21
-158.402
0
LINE
8
BLACK
6
CONTINUOUS
10
115.721
20
-158.402
11
115.721
21
-158.878
0
LINE
8
BLACK
6
CONTINUOUS
10
115.721
20
-158.878
11
115.626
21
-159.259
0
LINE
8
BLACK
6
CONTINUOUS
10
115.626
20
-159.259
11
115.531
21
-159.45
0
LINE
8
BLACK
6
CONTINUOUS
10
115.531
20
-159.45
11
115.436
21
-159.545
0
LINE
8
BLACK
6
CONTINUOUS
10
115.436
20
-159.545
11
115.245
21
-159.64
0
LINE
8
BLACK
6
CONTINUOUS
10
115.245
20
-159.64
11
115.055
21
-159.64
0
LINE
8
BLACK
6
CONTINUOUS
10
115.055
20
-159.64
11
114.864
21
-159.545
0
LINE
8
BLACK
6
CONTINUOUS
10
114.864
20
-159.545
11
114.769
21
-159.45
0
LINE
8
BLACK
6
CONTINUOUS
10
114.769
20
-159.45
11
114.674
21
-159.259
0
LINE
8
BLACK
6
CONTINUOUS
10
114.674
20
-159.259
11
114.578
21
-158.878
0
LINE
8
BLACK
6
CONTINUOUS
10
114.578
20
-158.878
11
114.578
21
-158.402
0
LINE
8
BLACK
6
CONTINUOUS
10
114.578
20
-158.402
11
114.674
21
-158.021
0
LINE
8
BLACK
6
CONTINUOUS
10
114.674
20
-158.021
11
114.769
21
-157.831
0
LINE
8
BLACK
6
CONTINUOUS
10
114.769
20
-157.831
11
114.864
21
-157.736
0
LINE
8
BLACK
6
CONTINUOUS
10
114.864
20
-157.736
11
115.055
21
-157.64
0
LINE
8
BLACK
6
CONTINUOUS
10
116.388
20
-157.64
11
117.626
21
-157.64
0
LINE
8
BLACK
6
CONTINUOUS
10
117.626
20
-157.64
11
116.959
21
-158.402
0
LINE
8
BLACK
6
CONTINUOUS
10
116.959
20
-158.402
11
117.245
21
-158.402
0
LINE
8
BLACK
6
CONTINUOUS
10
117.245
20
-158.402
11
117.436
21
-158.498
0
LINE
8
BLACK
6
CONTINUOUS
10
117.436
20
-158.498
11
117.531
21
-158.593
0
LINE
8
BLACK
6
CONTINUOUS
10
117.531
20
-158.593
11
117.626
21
-158.783
0
LINE
8
BLACK
6
CONTINUOUS
10
117.626
20
-158.783
11
117.626
21
-159.259
0
LINE
8
BLACK
6
CONTINUOUS
10
117.626
20
-159.259
11
117.531
21
-159.45
0
LINE
8
BLACK
6
CONTINUOUS
10
117.531
20
-159.45
11
117.436
21
-159.545
0
LINE
8
BLACK
6
CONTINUOUS
10
117.436
20
-159.545
11
117.245
21
-159.64
0
LINE
8
BLACK
6
CONTINUOUS
10
117.245
20
-159.64
11
116.674
21
-159.64
0
LINE
8
BLACK
6
CONTINUOUS
10
116.674
20
-159.64
11
116.483
21
-159.545
0
LINE
8
BLACK
6
CONTINUOUS
10
116.483
20
-159.545
11
116.388
21
-159.45
0
LINE
8
BLACK
6
CONTINUOUS
10
119.436
20
-157.64
11
118.483
21
-157.64
0
LINE
8
BLACK
6
CONTINUOUS
10
118.483
20
-157.64
11
118.388
21
-158.593
0
LINE
8
BLACK
6
CONTINUOUS
10
118.388
20
-158.593
11
118.483
21
-158.498
0
LINE
8
BLACK
6
CONTINUOUS
10
118.483
20
-158.498
11
118.674
21
-158.402
0
LINE
8
BLACK
6
CONTINUOUS
10
118.674
20
-158.402
11
119.15
21
-158.402
0
LINE
8
BLACK
6
CONTINUOUS
10
119.15
20
-158.402
11
119.34
21
-158.498
0
LINE
8
BLACK
6
CONTINUOUS
10
119.34
20
-158.498
11
119.436
21
-158.593
0
LINE
8
BLACK
6
CONTINUOUS
10
119.436
20
-158.593
11
119.531
21
-158.783
0
LINE
8
BLACK
6
CONTINUOUS
10
119.531
20
-158.783
11
119.531
21
-159.259
0
LINE
8
BLACK
6
CONTINUOUS
10
119.531
20
-159.259
11
119.436
21
-159.45
0
LINE
8
BLACK
6
CONTINUOUS
10
119.436
20
-159.45
11
119.34
21
-159.545
0
LINE
8
BLACK
6
CONTINUOUS
10
119.34
20
-159.545
11
119.15
21
-159.64
0
LINE
8
BLACK
6
CONTINUOUS
10
119.15
20
-159.64
11
118.674
21
-159.64
0
LINE
8
BLACK
6
CONTINUOUS
10
118.674
20
-159.64
11
118.483
21
-159.545
0
LINE
8
BLACK
6
CONTINUOUS
10
118.483
20
-159.545
11
118.388
21
-159.45
0
LINE
8
BLACK
6
CONTINUOUS
10
121.245
20
-158.307
11
121.245
21
-159.64
0
LINE
8
BLACK
6
CONTINUOUS
10
120.769
20
-157.545
11
120.293
21
-158.974
0
LINE
8
BLACK
6
CONTINUOUS
10
120.293
20
-158.974
11
121.531
21
-158.974
0
LINE
8
BLACK
6
CONTINUOUS
10
122.197
20
-157.64
11
122.197
21
-158.021
0
LINE
8
BLACK
6
CONTINUOUS
10
122.959
20
-157.64
11
122.959
21
-158.021
0
LINE
8
BLACK
6
CONTINUOUS
10
125.912
20
-160.402
11
125.817
21
-160.307
0
LINE
8
BLACK
6
CONTINUOUS
10
125.817
20
-160.307
11
125.626
21
-160.021
0
LINE
8
BLACK
6
CONTINUOUS
10
125.626
20
-160.021
11
125.531
21
-159.831
0
LINE
8
BLACK
6
CONTINUOUS
10
125.531
20
-159.831
11
125.436
21
-159.545
0
LINE
8
BLACK
6
CONTINUOUS
10
125.436
20
-159.545
11
125.34
21
-159.069
0
LINE
8
BLACK
6
CONTINUOUS
10
125.34
20
-159.069
11
125.34
21
-158.688
0
LINE
8
BLACK
6
CONTINUOUS
10
125.34
20
-158.688
11
125.436
21
-158.212
0
LINE
8
BLACK
6
CONTINUOUS
10
125.436
20
-158.212
11
125.531
21
-157.926
0
LINE
8
BLACK
6
CONTINUOUS
10
125.531
20
-157.926
11
125.626
21
-157.736
0
LINE
8
BLACK
6
CONTINUOUS
10
125.626
20
-157.736
11
125.817
21
-157.45
0
LINE
8
BLACK
6
CONTINUOUS
10
125.817
20
-157.45
11
125.912
21
-157.355
0
LINE
8
BLACK
6
CONTINUOUS
10
126.578
20
-157.831
11
126.674
21
-157.736
0
LINE
8
BLACK
6
CONTINUOUS
10
126.674
20
-157.736
11
126.864
21
-157.64
0
LINE
8
BLACK
6
CONTINUOUS
10
126.864
20
-157.64
11
127.34
21
-157.64
0
LINE
8
BLACK
6
CONTINUOUS
10
127.34
20
-157.64
11
127.531
21
-157.736
0
LINE
8
BLACK
6
CONTINUOUS
10
127.531
20
-157.736
11
127.626
21
-157.831
0
LINE
8
BLACK
6
CONTINUOUS
10
127.626
20
-157.831
11
127.721
21
-158.021
0
LINE
8
BLACK
6
CONTINUOUS
10
127.721
20
-158.021
11
127.721
21
-158.212
0
LINE
8
BLACK
6
CONTINUOUS
10
127.721
20
-158.212
11
127.626
21
-158.498
0
LINE
8
BLACK
6
CONTINUOUS
10
127.626
20
-158.498
11
126.483
21
-159.64
0
LINE
8
BLACK
6
CONTINUOUS
10
126.483
20
-159.64
11
127.721
21
-159.64
0
LINE
8
BLACK
6
CONTINUOUS
10
129.626
20
-159.64
11
128.483
21
-159.64
0
LINE
8
BLACK
6
CONTINUOUS
10
129.055
20
-159.64
11
129.055
21
-157.64
0
LINE
8
BLACK
6
CONTINUOUS
10
129.055
20
-157.64
11
128.864
21
-157.926
0
LINE
8
BLACK
6
CONTINUOUS
10
128.864
20
-157.926
11
128.674
21
-158.117
0
LINE
8
BLACK
6
CONTINUOUS
10
128.674
20
-158.117
11
128.483
21
-158.212
0
LINE
8
BLACK
6
CONTINUOUS
10
132.007
20
-159.64
11
132.007
21
-157.64
0
LINE
8
BLACK
6
CONTINUOUS
10
132.864
20
-159.64
11
132.864
21
-158.593
0
LINE
8
BLACK
6
CONTINUOUS
10
132.864
20
-158.593
11
132.769
21
-158.402
0
LINE
8
BLACK
6
CONTINUOUS
10
132.769
20
-158.402
11
132.578
21
-158.307
0
LINE
8
BLACK
6
CONTINUOUS
10
132.578
20
-158.307
11
132.293
21
-158.307
0
LINE
8
BLACK
6
CONTINUOUS
10
132.293
20
-158.307
11
132.102
21
-158.402
0
LINE
8
BLACK
6
CONTINUOUS
10
132.102
20
-158.402
11
132.007
21
-158.498
0
LINE
8
BLACK
6
CONTINUOUS
10
134.102
20
-159.64
11
133.912
21
-159.545
0
LINE
8
BLACK
6
CONTINUOUS
10
133.912
20
-159.545
11
133.817
21
-159.45
0
LINE
8
BLACK
6
CONTINUOUS
10
133.817
20
-159.45
11
133.721
21
-159.259
0
LINE
8
BLACK
6
CONTINUOUS
10
133.721
20
-159.259
11
133.721
21
-158.688
0
LINE
8
BLACK
6
CONTINUOUS
10
133.721
20
-158.688
11
133.817
21
-158.498
0
LINE
8
BLACK
6
CONTINUOUS
10
133.817
20
-158.498
11
133.912
21
-158.402
0
LINE
8
BLACK
6
CONTINUOUS
10
133.912
20
-158.402
11
134.102
21
-158.307
0
LINE
8
BLACK
6
CONTINUOUS
10
134.102
20
-158.307
11
134.388
21
-158.307
0
LINE
8
BLACK
6
CONTINUOUS
10
134.388
20
-158.307
11
134.578
21
-158.402
0
LINE
8
BLACK
6
CONTINUOUS
10
134.578
20
-158.402
11
134.674
21
-158.498
0
LINE
8
BLACK
6
CONTINUOUS
10
134.674
20
-158.498
11
134.769
21
-158.688
0
LINE
8
BLACK
6
CONTINUOUS
10
134.769
20
-158.688
11
134.769
21
-159.259
0
LINE
8
BLACK
6
CONTINUOUS
10
134.769
20
-159.259
11
134.674
21
-159.45
0
LINE
8
BLACK
6
CONTINUOUS
10
134.674
20
-159.45
11
134.578
21
-159.545
0
LINE
8
BLACK
6
CONTINUOUS
10
134.578
20
-159.545
11
134.388
21
-159.64
0
LINE
8
BLACK
6
CONTINUOUS
10
134.388
20
-159.64
11
134.102
21
-159.64
0
LINE
8
BLACK
6
CONTINUOUS
10
135.912
20
-159.64
11
135.721
21
-159.545
0
LINE
8
BLACK
6
CONTINUOUS
10
135.721
20
-159.545
11
135.626
21
-159.355
0
LINE
8
BLACK
6
CONTINUOUS
10
135.626
20
-159.355
11
135.626
21
-157.64
0
LINE
8
BLACK
6
CONTINUOUS
10
137.436
20
-159.545
11
137.245
21
-159.64
0
LINE
8
BLACK
6
CONTINUOUS
10
137.245
20
-159.64
11
136.864
21
-159.64
0
LINE
8
BLACK
6
CONTINUOUS
10
136.864
20
-159.64
11
136.674
21
-159.545
0
LINE
8
BLACK
6
CONTINUOUS
10
136.674
20
-159.545
11
136.578
21
-159.355
0
LINE
8
BLACK
6
CONTINUOUS
10
136.578
20
-159.355
11
136.578
21
-158.593
0
LINE
8
BLACK
6
CONTINUOUS
10
136.578
20
-158.593
11
136.674
21
-158.402
0
LINE
8
BLACK
6
CONTINUOUS
10
136.674
20
-158.402
11
136.864
21
-158.307
0
LINE
8
BLACK
6
CONTINUOUS
10
136.864
20
-158.307
11
137.245
21
-158.307
0
LINE
8
BLACK
6
CONTINUOUS
10
137.245
20
-158.307
11
137.436
21
-158.402
0
LINE
8
BLACK
6
CONTINUOUS
10
137.436
20
-158.402
11
137.531
21
-158.593
0
LINE
8
BLACK
6
CONTINUOUS
10
137.531
20
-158.593
11
137.531
21
-158.783
0
LINE
8
BLACK
6
CONTINUOUS
10
137.531
20
-158.783
11
136.578
21
-158.974
0
LINE
8
BLACK
6
CONTINUOUS
10
138.293
20
-159.545
11
138.483
21
-159.64
0
LINE
8
BLACK
6
CONTINUOUS
10
138.483
20
-159.64
11
138.864
21
-159.64
0
LINE
8
BLACK
6
CONTINUOUS
10
138.864
20
-159.64
11
139.055
21
-159.545
0
LINE
8
BLACK
6
CONTINUOUS
10
139.055
20
-159.545
11
139.15
21
-159.355
0
LINE
8
BLACK
6
CONTINUOUS
10
139.15
20
-159.355
11
139.15
21
-159.259
0
LINE
8
BLACK
6
CONTINUOUS
10
139.15
20
-159.259
11
139.055
21
-159.069
0
LINE
8
BLACK
6
CONTINUOUS
10
139.055
20
-159.069
11
138.864
21
-158.974
0
LINE
8
BLACK
6
CONTINUOUS
10
138.864
20
-158.974
11
138.578
21
-158.974
0
LINE
8
BLACK
6
CONTINUOUS
10
138.578
20
-158.974
11
138.388
21
-158.878
0
LINE
8
BLACK
6
CONTINUOUS
10
138.388
20
-158.878
11
138.293
21
-158.688
0
LINE
8
BLACK
6
CONTINUOUS
10
138.293
20
-158.688
11
138.293
21
-158.593
0
LINE
8
BLACK
6
CONTINUOUS
10
138.293
20
-158.593
11
138.388
21
-158.402
0
LINE
8
BLACK
6
CONTINUOUS
10
138.388
20
-158.402
11
138.578
21
-158.307
0
LINE
8
BLACK
6
CONTINUOUS
10
138.578
20
-158.307
11
138.864
21
-158.307
0
LINE
8
BLACK
6
CONTINUOUS
10
138.864
20
-158.307
11
139.055
21
-158.402
0
LINE
8
BLACK
6
CONTINUOUS
10
139.817
20
-160.402
11
139.912
21
-160.307
0
LINE
8
BLACK
6
CONTINUOUS
10
139.912
20
-160.307
11
140.102
21
-160.021
0
LINE
8
BLACK
6
CONTINUOUS
10
140.102
20
-160.021
11
140.197
21
-159.831
0
LINE
8
BLACK
6
CONTINUOUS
10
140.197
20
-159.831
11
140.293
21
-159.545
0
LINE
8
BLACK
6
CONTINUOUS
10
140.293
20
-159.545
11
140.388
21
-159.069
0
LINE
8
BLACK
6
CONTINUOUS
10
140.388
20
-159.069
11
140.388
21
-158.688
0
LINE
8
BLACK
6
CONTINUOUS
10
140.388
20
-158.688
11
140.293
21
-158.212
0
LINE
8
BLACK
6
CONTINUOUS
10
140.293
20
-158.212
11
140.197
21
-157.926
0
LINE
8
BLACK
6
CONTINUOUS
10
140.197
20
-157.926
11
140.102
21
-157.736
0
LINE
8
BLACK
6
CONTINUOUS
10
140.102
20
-157.736
11
139.912
21
-157.45
0
LINE
8
BLACK
6
CONTINUOUS
10
139.912
20
-157.45
11
139.817
21
-157.355
  0
ENDSEC
  0
EOF
