%TF.GenerationSoftware,KiCad,Pcbnew,(6.0.7)*%
%TF.CreationDate,2022-10-09T20:49:51-07:00*%
%TF.ProjectId,IEEE_PCB_1,49454545-5f50-4434-925f-312e6b696361,1*%
%TF.SameCoordinates,Original*%
%TF.FileFunction,Legend,Bot*%
%TF.FilePolarity,Positive*%
%FSLAX46Y46*%
G04 Gerber Fmt 4.6, Leading zero omitted, Abs format (unit mm)*
G04 Created by KiCad (PCBNEW (6.0.7)) date 2022-10-09 20:49:51*
%MOMM*%
%LPD*%
G01*
G04 APERTURE LIST*
%ADD10C,0.150000*%
%ADD11R,1.600000X1.600000*%
%ADD12C,1.600000*%
%ADD13R,1.800000X1.800000*%
%ADD14C,1.800000*%
%ADD15O,1.600000X1.600000*%
%ADD16C,1.500000*%
%ADD17R,3.000000X6.000000*%
%ADD18C,17.800000*%
%ADD19C,2.000000*%
G04 APERTURE END LIST*
D10*
%TO.C,BT1*%
X127639714Y-110216571D02*
X127496857Y-110264190D01*
X127449238Y-110311809D01*
X127401619Y-110407047D01*
X127401619Y-110549904D01*
X127449238Y-110645142D01*
X127496857Y-110692761D01*
X127592095Y-110740380D01*
X127973047Y-110740380D01*
X127973047Y-109740380D01*
X127639714Y-109740380D01*
X127544476Y-109788000D01*
X127496857Y-109835619D01*
X127449238Y-109930857D01*
X127449238Y-110026095D01*
X127496857Y-110121333D01*
X127544476Y-110168952D01*
X127639714Y-110216571D01*
X127973047Y-110216571D01*
X127115904Y-109740380D02*
X126544476Y-109740380D01*
X126830190Y-110740380D02*
X126830190Y-109740380D01*
X125687333Y-110740380D02*
X126258761Y-110740380D01*
X125973047Y-110740380D02*
X125973047Y-109740380D01*
X126068285Y-109883238D01*
X126163523Y-109978476D01*
X126258761Y-110026095D01*
%TD*%
%LPC*%
D11*
%TO.C,C1*%
X114407000Y-96142000D03*
D12*
X116407000Y-96142000D03*
%TD*%
D11*
%TO.C,C2*%
X121033000Y-96022000D03*
D12*
X123033000Y-96022000D03*
%TD*%
D13*
%TO.C,D1*%
X95414000Y-97266000D03*
D14*
X97954000Y-97266000D03*
%TD*%
D13*
%TO.C,D2*%
X175787000Y-97168000D03*
D14*
X173247000Y-97168000D03*
%TD*%
D13*
%TO.C,D3*%
X152951000Y-137353000D03*
D14*
X150411000Y-137353000D03*
%TD*%
D13*
%TO.C,D4*%
X133816000Y-63669000D03*
D14*
X136356000Y-63669000D03*
%TD*%
D13*
%TO.C,D5*%
X100160000Y-120276000D03*
D14*
X102700000Y-120276000D03*
%TD*%
D13*
%TO.C,D6*%
X171161000Y-119783000D03*
D14*
X168621000Y-119783000D03*
%TD*%
D13*
%TO.C,D7*%
X165174000Y-74945000D03*
D14*
X162634000Y-74945000D03*
%TD*%
D13*
%TO.C,D8*%
X106713000Y-73949000D03*
D14*
X109253000Y-73949000D03*
%TD*%
D13*
%TO.C,D9*%
X120252000Y-137163000D03*
D14*
X122792000Y-137163000D03*
%TD*%
D12*
%TO.C,R1*%
X129232000Y-80495000D03*
D15*
X129232000Y-88115000D03*
%TD*%
D12*
%TO.C,RV1*%
X133912000Y-97796000D03*
X131412000Y-95296000D03*
X128912000Y-97796000D03*
%TD*%
D16*
%TO.C,U1*%
X113998000Y-81354000D03*
X113998000Y-83894000D03*
X113998000Y-86434000D03*
X113998000Y-88974000D03*
X121618000Y-88974000D03*
X121618000Y-86434000D03*
X121618000Y-83894000D03*
X121618000Y-81354000D03*
%TD*%
%TO.C,U2*%
X145288000Y-79826000D03*
X145288000Y-82366000D03*
X145288000Y-84906000D03*
X145288000Y-87446000D03*
X145288000Y-89986000D03*
X145288000Y-92526000D03*
X145288000Y-95066000D03*
X145288000Y-97606000D03*
X152908000Y-97606000D03*
X152908000Y-95066000D03*
X152908000Y-92526000D03*
X152908000Y-89986000D03*
X152908000Y-87446000D03*
X152908000Y-84906000D03*
X152908000Y-82366000D03*
X152908000Y-79826000D03*
%TD*%
D17*
%TO.C,BT1*%
X123547000Y-120030000D03*
X146447000Y-120030000D03*
D18*
X134997000Y-120030000D03*
%TD*%
D19*
%TO.C,SW1*%
X132240000Y-104929000D03*
X134740000Y-104929000D03*
X137240000Y-104929000D03*
%TD*%
M02*
