%TF.GenerationSoftware,KiCad,Pcbnew,(6.0.7)*%
%TF.CreationDate,2022-10-09T20:49:51-07:00*%
%TF.ProjectId,IEEE_PCB_1,49454545-5f50-4434-925f-312e6b696361,1*%
%TF.SameCoordinates,Original*%
%TF.FileFunction,Profile,NP*%
%FSLAX46Y46*%
G04 Gerber Fmt 4.6, Leading zero omitted, Abs format (unit mm)*
G04 Created by KiCad (PCBNEW (6.0.7)) date 2022-10-09 20:49:51*
%MOMM*%
%LPD*%
G01*
G04 APERTURE LIST*
%TA.AperFunction,Profile*%
%ADD10C,0.004500*%
%TD*%
G04 APERTURE END LIST*
D10*
%TO.C,REF\u002A\u002A*%
X179524624Y-101472034D02*
X179514313Y-104551885D01*
X123392324Y-59070239D02*
X123745379Y-58967399D01*
X128525327Y-45616351D02*
X128457236Y-44872542D01*
X145420101Y-58770706D02*
X145826836Y-58906389D01*
X164365431Y-135939950D02*
X162767324Y-137311632D01*
X93412978Y-119154980D02*
X92049248Y-115329103D01*
X124061519Y-58863860D02*
X124321645Y-58769099D01*
X129152266Y-47367432D02*
X128814590Y-46656938D01*
X127188846Y-49414506D02*
X127923290Y-49404980D01*
X129586650Y-48272306D02*
X129387906Y-47844082D01*
X164165130Y-68548519D02*
X165961730Y-70247883D01*
X140802911Y-41931446D02*
X141045224Y-42518914D01*
X167717009Y-72006774D02*
X168987789Y-73404980D01*
X123745379Y-58967399D02*
X124061519Y-58863860D01*
X162767324Y-67349164D02*
X164165130Y-68548519D01*
X145826836Y-58906389D02*
X146312911Y-59057619D01*
X166408878Y-133976465D02*
X164365431Y-135939950D01*
X143951762Y-52609843D02*
X144308276Y-54286273D01*
X90484065Y-107664324D02*
X90210909Y-103470507D01*
X141106505Y-49393749D02*
X141772760Y-49404980D01*
X124750964Y-57375727D02*
X125066105Y-55960134D01*
X125418410Y-54299637D02*
X125773653Y-52626184D01*
X140998532Y-46504863D02*
X140604824Y-47323170D01*
X179514313Y-104551885D02*
X179366342Y-106854981D01*
X141225281Y-43533519D02*
X141240848Y-44472935D01*
X125066105Y-55960134D02*
X125418410Y-54299637D01*
X127923290Y-49404980D02*
X128577864Y-49393320D01*
X144308276Y-54286273D02*
X144662424Y-55950681D01*
X94744709Y-82629980D02*
X96791408Y-78895682D01*
X141772760Y-49404980D02*
X142519671Y-49414457D01*
X140604824Y-47323170D02*
X140148908Y-48247814D01*
X144979398Y-57369861D02*
X145266860Y-58612807D01*
X165961730Y-70247883D02*
X167717009Y-72006774D01*
X124465139Y-58616076D02*
X124750964Y-57375727D01*
X143338972Y-49903644D02*
X143627246Y-51151902D01*
X143627246Y-51151902D02*
X143951762Y-52609843D01*
X141240848Y-44472935D02*
X141225947Y-45498635D01*
X128457236Y-44872542D02*
X128431167Y-44167698D01*
X125773653Y-52626184D02*
X126098102Y-51168833D01*
X144662424Y-55950681D02*
X144979398Y-57369861D01*
X129745015Y-48635218D02*
X129586650Y-48272306D01*
X128538868Y-43131986D02*
X128698668Y-42532513D01*
X169720318Y-130404981D02*
X168377082Y-131955613D01*
X101638367Y-72400061D02*
X104642324Y-69365848D01*
X168377082Y-131955613D02*
X166408878Y-133976465D01*
X146312911Y-59057619D02*
X146867324Y-59216676D01*
X129387906Y-47844082D02*
X129152266Y-47367432D01*
X179423995Y-98426818D02*
X179524624Y-101472034D01*
X126098102Y-51168833D02*
X126386342Y-49923308D01*
X129597994Y-49049639D02*
G75*
G03*
X129686744Y-48933227I-860167J747809D01*
G01*
X137511844Y-42921542D02*
G75*
G03*
X137130105Y-42428297I-3685844J-2458258D01*
G01*
X137849562Y-44009267D02*
G75*
G03*
X137730828Y-43370901I-2411662J-118333D01*
G01*
X133379591Y-47099837D02*
G75*
G03*
X133920080Y-47344461I1150159J1821837D01*
G01*
X124406605Y-58716592D02*
G75*
G03*
X124465138Y-58616076I-133479J145029D01*
G01*
X143256549Y-49684779D02*
G75*
G03*
X143116774Y-49538095I-335249J-179521D01*
G01*
X136864569Y-38307316D02*
G75*
G03*
X134313461Y-38032407I-1981769J-6416084D01*
G01*
X141225282Y-43533519D02*
G75*
G03*
X141169329Y-42983748I-3992282J-128581D01*
G01*
X141160212Y-46022755D02*
G75*
G03*
X141225947Y-45498635I-2723842J607805D01*
G01*
X139164429Y-39634133D02*
G75*
G03*
X138084396Y-38840110I-4137329J-4496067D01*
G01*
X128525327Y-45616351D02*
G75*
G03*
X128629784Y-46142502I3520330J425448D01*
G01*
X154079131Y-142736031D02*
G75*
G03*
X158575759Y-140265810I-19880931J41517731D01*
G01*
X143338988Y-49903640D02*
G75*
G03*
X143256520Y-49684795I-872588J-203860D01*
G01*
X136471821Y-47013709D02*
G75*
G03*
X136997210Y-46600544I-1776221J2799309D01*
G01*
X132049493Y-45609490D02*
G75*
G03*
X132362712Y-46159441I2325227J960140D01*
G01*
X140348840Y-146728505D02*
G75*
G03*
X144578622Y-146021373I-5060140J43271705D01*
G01*
X129292186Y-49277585D02*
G75*
G03*
X129493013Y-49156732I-207416J571962D01*
G01*
X145326293Y-58714882D02*
G75*
G03*
X145420101Y-58770706I179307J194582D01*
G01*
X113259977Y-63162550D02*
G75*
G03*
X108734800Y-66016518I21282623J-38759650D01*
G01*
X176241279Y-119341169D02*
G75*
G03*
X178230910Y-113263707I-40920679J16760969D01*
G01*
X99055301Y-75531149D02*
G75*
G03*
X96791408Y-78895682I33331899J-24871951D01*
G01*
X127367324Y-146449358D02*
G75*
G03*
X131586000Y-146946447I7043156J41623638D01*
G01*
X135331656Y-47419703D02*
G75*
G03*
X135911435Y-47288988I-226056J2353803D01*
G01*
X142896952Y-49454549D02*
G75*
G03*
X142519671Y-49414458I-436652J-2313851D01*
G01*
X90379023Y-97925442D02*
G75*
G03*
X90210908Y-103470507I49769917J-4283998D01*
G01*
X101638367Y-72400061D02*
G75*
G03*
X99055304Y-75531150I30814733J-28052339D01*
G01*
X140077466Y-40673321D02*
G75*
G03*
X139164425Y-39634137I-5338266J-3769579D01*
G01*
X137702156Y-45574142D02*
G75*
G03*
X137830839Y-44812478I-5232266J1275692D01*
G01*
X93412978Y-119154980D02*
G75*
G03*
X98976157Y-129028052I41255722J16742480D01*
G01*
X140203037Y-49169267D02*
G75*
G03*
X140386031Y-49283496I338363J338367D01*
G01*
X132021026Y-43327925D02*
G75*
G03*
X131834664Y-44257271I2525734J-989845D01*
G01*
X91169179Y-92698619D02*
G75*
G03*
X90379023Y-97925442I40274470J-8761561D01*
G01*
X155202666Y-62525309D02*
G75*
G03*
X150987820Y-60608103I-22981766J-44932191D01*
G01*
X126825130Y-49455432D02*
G75*
G03*
X126612837Y-49542444I119080J-593017D01*
G01*
X132362711Y-46159441D02*
G75*
G03*
X132836515Y-46683612I3105689J2331041D01*
G01*
X150987822Y-60608099D02*
G75*
G03*
X146867323Y-59216676I-14618722J-36494401D01*
G01*
X129493012Y-49156732D02*
G75*
G03*
X129597994Y-49049639I-842141J930544D01*
G01*
X132518735Y-42484974D02*
G75*
G03*
X132021025Y-43327926I2365525J-1965106D01*
G01*
X136226439Y-41686898D02*
G75*
G03*
X135777615Y-41517264I-982139J-1920002D01*
G01*
X131866197Y-38739267D02*
G75*
G03*
X129895249Y-40319685I2945353J-5692363D01*
G01*
X140675228Y-49354230D02*
G75*
G03*
X141106504Y-49393749I557672J3712930D01*
G01*
X159224899Y-64821191D02*
G75*
G03*
X155202665Y-62525310I-27012295J-42652495D01*
G01*
X177829864Y-89926629D02*
G75*
G03*
X175656717Y-83971821I-43301664J-12428571D01*
G01*
X123392324Y-59070240D02*
G75*
G03*
X118165144Y-60838136I12941876J-46877160D01*
G01*
X135777615Y-41517264D02*
G75*
G03*
X135215318Y-41412853I-1066515J-4177336D01*
G01*
X128577864Y-49393320D02*
G75*
G03*
X129002234Y-49352353I-125343J3516875D01*
G01*
X136674486Y-41985039D02*
G75*
G03*
X136226442Y-41686893I-1520986J-1799961D01*
G01*
X92615170Y-87647949D02*
G75*
G03*
X91169178Y-92698619I38296554J-13696518D01*
G01*
X94744706Y-82629978D02*
G75*
G03*
X92615171Y-87647949I42236894J-20885422D01*
G01*
X134313461Y-38032407D02*
G75*
G03*
X131866197Y-38739267I553609J-6506533D01*
G01*
X131879432Y-44990098D02*
G75*
G03*
X132049493Y-45609489I2576918J374478D01*
G01*
X145266846Y-58612810D02*
G75*
G03*
X145326302Y-58714873I195454J45510D01*
G01*
X124321645Y-58769099D02*
G75*
G03*
X124406605Y-58716592I-93771J246717D01*
G01*
X172700595Y-78452073D02*
G75*
G03*
X168987789Y-73404980I-37234895J-23502027D01*
G01*
X158575760Y-140265809D02*
G75*
G03*
X162767324Y-137311633I-24330160J38971809D01*
G01*
X173398591Y-125061325D02*
G75*
G03*
X176241275Y-119341167I-37980391J22441125D01*
G01*
X98976157Y-129028053D02*
G75*
G03*
X106866130Y-137210175I36116033J26931293D01*
G01*
X178230910Y-113263707D02*
G75*
G03*
X179366341Y-106854980I-46027021J11459530D01*
G01*
X143116772Y-49538097D02*
G75*
G03*
X142896950Y-49454556I-343472J-572803D01*
G01*
X175656721Y-83971819D02*
G75*
G03*
X172700596Y-78452073I-40094221J-17921181D01*
G01*
X141169331Y-42983748D02*
G75*
G03*
X141045225Y-42518914I-2629831J-453152D01*
G01*
X129002234Y-49352353D02*
G75*
G03*
X129292186Y-49277585I-245221J1550577D01*
G01*
X149378793Y-144669829D02*
G75*
G03*
X154079132Y-142736031I-14811893J42681429D01*
G01*
X91084919Y-111557906D02*
G75*
G03*
X92049248Y-115329104I38967083J7955338D01*
G01*
X108734801Y-66016519D02*
G75*
G03*
X104642324Y-69365848I24644299J-34287281D01*
G01*
X140386033Y-49283490D02*
G75*
G03*
X140675229Y-49354228I532967J1552390D01*
G01*
X144578623Y-146021376D02*
G75*
G03*
X149378792Y-144669827I-8930223J40916576D01*
G01*
X128538867Y-43131986D02*
G75*
G03*
X128455502Y-43634277I4026333J-926314D01*
G01*
X90484065Y-107664324D02*
G75*
G03*
X91084919Y-111557906I40595186J4271459D01*
G01*
X129767324Y-48744467D02*
G75*
G03*
X129745015Y-48635218I-278643J3D01*
G01*
X135215318Y-41412851D02*
G75*
G03*
X134644820Y-41383835I-503418J-4274949D01*
G01*
X131834664Y-44257272D02*
G75*
G03*
X131879433Y-44990099I4409036J-98428D01*
G01*
X140998532Y-46504863D02*
G75*
G03*
X141160213Y-46022754I-2228032J1015363D01*
G01*
X140011658Y-48647782D02*
G75*
G03*
X140034009Y-48913426I442642J-96518D01*
G01*
X116546896Y-143152245D02*
G75*
G03*
X127367324Y-146449359I18203984J40337875D01*
G01*
X129895249Y-40319685D02*
G75*
G03*
X128698668Y-42532513I4836691J-4045365D01*
G01*
X138084393Y-38840114D02*
G75*
G03*
X136864569Y-38307315I-2973693J-5145386D01*
G01*
X126471906Y-49696419D02*
G75*
G03*
X126386343Y-49923308I819735J-438712D01*
G01*
X137130105Y-42428296D02*
G75*
G03*
X136674481Y-41985044I-3389305J-3028104D01*
G01*
X129749007Y-48824273D02*
G75*
G03*
X129767324Y-48744467I-164692J79805D01*
G01*
X137830840Y-44812478D02*
G75*
G03*
X137849557Y-44009268I-5535990J530828D01*
G01*
X179208214Y-96270768D02*
G75*
G03*
X177829861Y-89926630I-48997870J-7323680D01*
G01*
X135965575Y-147038638D02*
G75*
G03*
X140348840Y-146728504I-1193575J47999738D01*
G01*
X140802910Y-41931447D02*
G75*
G03*
X140077467Y-40673320I-7196710J-3311453D01*
G01*
X133920083Y-47344454D02*
G75*
G03*
X134540216Y-47444527I702317J2380654D01*
G01*
X126612837Y-49542444D02*
G75*
G03*
X126471906Y-49696419I231281J-353172D01*
G01*
X169720319Y-130404982D02*
G75*
G03*
X173398587Y-125061324I-36717319J29211882D01*
G01*
X134644819Y-41383837D02*
G75*
G03*
X134171052Y-41444844I33181J-2127763D01*
G01*
X136997211Y-46600544D02*
G75*
G03*
X137472901Y-46060814I-3084211J3197744D01*
G01*
X132836518Y-46683609D02*
G75*
G03*
X133379592Y-47099838I2556982J2773809D01*
G01*
X137730844Y-43370896D02*
G75*
G03*
X137511840Y-42921544I-1768344J-583804D01*
G01*
X128629787Y-46142500D02*
G75*
G03*
X128814589Y-46656938I3603013J1003900D01*
G01*
X128455501Y-43634278D02*
G75*
G03*
X128431167Y-44167699I4643999J-479122D01*
G01*
X129686745Y-48933227D02*
G75*
G03*
X129749007Y-48824273I-769558J512032D01*
G01*
X131586000Y-146946447D02*
G75*
G03*
X135965576Y-147038637I3193160J47620097D01*
G01*
X179423995Y-98426818D02*
G75*
G03*
X179208215Y-96270768I-22261995J-1139182D01*
G01*
X134540215Y-47444530D02*
G75*
G03*
X135331656Y-47419707I203385J6144630D01*
G01*
X133265086Y-41829873D02*
G75*
G03*
X132518736Y-42484974I1692914J-2681427D01*
G01*
X106866130Y-137210175D02*
G75*
G03*
X116546896Y-143152245I28186150J35063675D01*
G01*
X135911436Y-47288991D02*
G75*
G03*
X136471822Y-47013709I-978036J2698991D01*
G01*
X162767324Y-67349164D02*
G75*
G03*
X159224900Y-64821191I-24621524J-30755936D01*
G01*
X118165144Y-60838136D02*
G75*
G03*
X113259975Y-63162547I17015856J-42246164D01*
G01*
X140148905Y-48247813D02*
G75*
G03*
X140011640Y-48647778I1641795J-786987D01*
G01*
X127188846Y-49414506D02*
G75*
G03*
X126825130Y-49455432I55183J-2127085D01*
G01*
X134171053Y-41444843D02*
G75*
G03*
X133265086Y-41829873I730047J-2976157D01*
G01*
X137472902Y-46060814D02*
G75*
G03*
X137702156Y-45574142I-1079002J805614D01*
G01*
X140034007Y-48913427D02*
G75*
G03*
X140203038Y-49169266I710593J285727D01*
G01*
%TD*%
M02*
