M48
; DRILL file {KiCad (6.0.7)} date Sun Oct  9 20:50:04 2022
; FORMAT={-:-/ absolute / metric / decimal}
; #@! TF.CreationDate,2022-10-09T20:50:04-07:00
; #@! TF.GenerationSoftware,Kicad,Pcbnew,(6.0.7)
; #@! TF.FileFunction,Plated,1,2,PTH
FMAT,2
METRIC
; #@! TA.AperFunction,Plated,PTH,ViaDrill
T1C0.400
; #@! TA.AperFunction,Plated,PTH,ComponentDrill
T2C0.800
; #@! TA.AperFunction,Plated,PTH,ComponentDrill
T3C0.900
%
G90
G05
T1
X122.719Y-122.355
X122.747Y-120.982
X122.755Y-118.112
X122.755Y-119.486
X124.17Y-118.133
X124.19Y-119.569
X124.19Y-121.024
X124.217Y-122.397
X127.634Y-120.95
X128.352Y-117.424
X129.163Y-124.633
X129.538Y-114.708
X131.504Y-123.041
X131.629Y-126.911
X131.754Y-116.955
X132.752Y-112.961
X134.968Y-120.295
X135.0Y-128.128
X135.062Y-112.212
X135.997Y-91.657
X136.482Y-134.333
X137.746Y-116.987
X137.996Y-123.072
X138.745Y-113.491
X139.026Y-126.568
X141.148Y-123.79
X141.179Y-115.364
X141.553Y-120.295
X142.83Y-101.302
X145.608Y-117.924
X145.636Y-120.476
X145.636Y-121.905
X145.663Y-119.103
X146.356Y-69.627
X147.009Y-117.91
X147.023Y-120.49
X147.023Y-121.905
X147.036Y-119.117
X148.997Y-74.961
X148.997Y-83.344
X155.614Y-81.287
X155.772Y-100.911
X157.323Y-111.939
X163.011Y-81.287
T2
X113.998Y-81.354
X113.998Y-83.894
X113.998Y-86.434
X113.998Y-88.974
X114.407Y-96.142
X116.407Y-96.142
X121.033Y-96.022
X121.618Y-81.354
X121.618Y-83.894
X121.618Y-86.434
X121.618Y-88.974
X123.033Y-96.022
X128.912Y-97.796
X129.232Y-80.495
X129.232Y-88.115
X131.412Y-95.296
X133.912Y-97.796
X145.288Y-79.826
X145.288Y-82.366
X145.288Y-84.906
X145.288Y-87.446
X145.288Y-89.986
X145.288Y-92.526
X145.288Y-95.066
X145.288Y-97.606
X152.908Y-79.826
X152.908Y-82.366
X152.908Y-84.906
X152.908Y-87.446
X152.908Y-89.986
X152.908Y-92.526
X152.908Y-95.066
X152.908Y-97.606
T3
X95.414Y-97.266
X97.954Y-97.266
X100.16Y-120.276
X102.7Y-120.276
X106.713Y-73.949
X109.253Y-73.949
X120.252Y-137.163
X122.792Y-137.163
X132.24Y-104.929
X133.816Y-63.669
X134.74Y-104.929
X136.356Y-63.669
X137.24Y-104.929
X150.411Y-137.353
X152.951Y-137.353
X162.634Y-74.945
X165.174Y-74.945
X168.621Y-119.783
X171.161Y-119.783
X173.247Y-97.168
X175.787Y-97.168
T0
M30
