  0
SECTION
  2
HEADER
  9
$ANGBASE
  50
0.0
  9
$ANGDIR
  70
1
  9
$MEASUREMENT
  70
1
  0
ENDSEC
  0
SECTION
  2
TABLES
  0
TABLE
  2
LTYPE
  70
4
  0
LTYPE
  5
40F
  2
CONTINUOUS
  70
0
  3
Solid line
  72
65
  73
0
  40
0.0
  0
LTYPE
  5
410
  2
DASHDOT
 70
0
  3
Dash Dot ____ _ ____ _
 72
65
 73
4
 40
2.0
 49
1.25
 49
-0.25
 49
0.25
 49
-0.25
  0
LTYPE
  5
411
  2
DASHED
 70
0
  3
Dashed __ __ __ __ __
 72
65
 73
2
 40
0.75
 49
0.5
 49
-0.25
  0
LTYPE
  5
43B
  2
DOTTED
 70
0
  3
Dotted .  .  .  .
 72
65
 73
2
 40
0.2
 49
0.0
 49
-0.2
  0
ENDTAB
  0
TABLE
  2
STYLE
  70
4
  0
STYLE
  2
KICAD
  70
0
  40
0
  41
1
  42
1
  50
0
  71
0
  3
isocp.shx
  0
STYLE
  2
KICADB
  70
0
  40
0
  41
1
  42
1
  50
0
  71
0
  3
isocp.shx
  0
STYLE
  2
KICADI
  70
0
  40
0
  41
1
  42
1
  50
15
  71
0
  3
isocp.shx
  0
STYLE
  2
KICADBI
  70
0
  40
0
  41
1
  42
1
  50
15
  71
0
  3
isocp.shx
  0
ENDTAB
  0
TABLE
  2
LAYER
  70
1
  0
LAYER
  2
BLACK
  70
0
  62
7
  6
CONTINUOUS
  0
ENDTAB
  0
ENDSEC
  0
SECTION
  2
ENTITIES
0
LINE
8
BLACK
6
CONTINUOUS
10
92.7689
20
-150.16
11
92.7689
21
-148.16
0
LINE
8
BLACK
6
CONTINUOUS
10
92.7689
20
-148.16
11
93.2451
21
-148.16
0
LINE
8
BLACK
6
CONTINUOUS
10
93.2451
20
-148.16
11
93.5308
21
-148.256
0
LINE
8
BLACK
6
CONTINUOUS
10
93.5308
20
-148.256
11
93.7213
21
-148.446
0
LINE
8
BLACK
6
CONTINUOUS
10
93.7213
20
-148.446
11
93.8165
21
-148.637
0
LINE
8
BLACK
6
CONTINUOUS
10
93.8165
20
-148.637
11
93.9118
21
-149.018
0
LINE
8
BLACK
6
CONTINUOUS
10
93.9118
20
-149.018
11
93.9118
21
-149.303
0
LINE
8
BLACK
6
CONTINUOUS
10
93.9118
20
-149.303
11
93.8165
21
-149.684
0
LINE
8
BLACK
6
CONTINUOUS
10
93.8165
20
-149.684
11
93.7213
21
-149.875
0
LINE
8
BLACK
6
CONTINUOUS
10
93.7213
20
-149.875
11
93.5308
21
-150.065
0
LINE
8
BLACK
6
CONTINUOUS
10
93.5308
20
-150.065
11
93.2451
21
-150.16
0
LINE
8
BLACK
6
CONTINUOUS
10
93.2451
20
-150.16
11
92.7689
21
-150.16
0
LINE
8
BLACK
6
CONTINUOUS
10
94.7689
20
-150.16
11
94.7689
21
-148.827
0
LINE
8
BLACK
6
CONTINUOUS
10
94.7689
20
-149.208
11
94.8642
21
-149.018
0
LINE
8
BLACK
6
CONTINUOUS
10
94.8642
20
-149.018
11
94.9594
21
-148.922
0
LINE
8
BLACK
6
CONTINUOUS
10
94.9594
20
-148.922
11
95.1499
21
-148.827
0
LINE
8
BLACK
6
CONTINUOUS
10
95.1499
20
-148.827
11
95.3404
21
-148.827
0
LINE
8
BLACK
6
CONTINUOUS
10
96.007
20
-150.16
11
96.007
21
-148.827
0
LINE
8
BLACK
6
CONTINUOUS
10
96.007
20
-148.16
11
95.9118
21
-148.256
0
LINE
8
BLACK
6
CONTINUOUS
10
95.9118
20
-148.256
11
96.007
21
-148.351
0
LINE
8
BLACK
6
CONTINUOUS
10
96.007
20
-148.351
11
96.1023
21
-148.256
0
LINE
8
BLACK
6
CONTINUOUS
10
96.1023
20
-148.256
11
96.007
21
-148.16
0
LINE
8
BLACK
6
CONTINUOUS
10
96.007
20
-148.16
11
96.007
21
-148.351
0
LINE
8
BLACK
6
CONTINUOUS
10
97.2451
20
-150.16
11
97.0546
21
-150.065
0
LINE
8
BLACK
6
CONTINUOUS
10
97.0546
20
-150.065
11
96.9594
21
-149.875
0
LINE
8
BLACK
6
CONTINUOUS
10
96.9594
20
-149.875
11
96.9594
21
-148.16
0
LINE
8
BLACK
6
CONTINUOUS
10
98.2927
20
-150.16
11
98.1023
21
-150.065
0
LINE
8
BLACK
6
CONTINUOUS
10
98.1023
20
-150.065
11
98.007
21
-149.875
0
LINE
8
BLACK
6
CONTINUOUS
10
98.007
20
-149.875
11
98.007
21
-148.16
0
LINE
8
BLACK
6
CONTINUOUS
10
100.578
20
-150.16
11
100.578
21
-148.16
0
LINE
8
BLACK
6
CONTINUOUS
10
100.578
20
-148.16
11
101.245
21
-149.589
0
LINE
8
BLACK
6
CONTINUOUS
10
101.245
20
-149.589
11
101.912
21
-148.16
0
LINE
8
BLACK
6
CONTINUOUS
10
101.912
20
-148.16
11
101.912
21
-150.16
0
LINE
8
BLACK
6
CONTINUOUS
10
103.721
20
-150.16
11
103.721
21
-149.113
0
LINE
8
BLACK
6
CONTINUOUS
10
103.721
20
-149.113
11
103.626
21
-148.922
0
LINE
8
BLACK
6
CONTINUOUS
10
103.626
20
-148.922
11
103.436
21
-148.827
0
LINE
8
BLACK
6
CONTINUOUS
10
103.436
20
-148.827
11
103.055
21
-148.827
0
LINE
8
BLACK
6
CONTINUOUS
10
103.055
20
-148.827
11
102.864
21
-148.922
0
LINE
8
BLACK
6
CONTINUOUS
10
103.721
20
-150.065
11
103.531
21
-150.16
0
LINE
8
BLACK
6
CONTINUOUS
10
103.531
20
-150.16
11
103.055
21
-150.16
0
LINE
8
BLACK
6
CONTINUOUS
10
103.055
20
-150.16
11
102.864
21
-150.065
0
LINE
8
BLACK
6
CONTINUOUS
10
102.864
20
-150.065
11
102.769
21
-149.875
0
LINE
8
BLACK
6
CONTINUOUS
10
102.769
20
-149.875
11
102.769
21
-149.684
0
LINE
8
BLACK
6
CONTINUOUS
10
102.769
20
-149.684
11
102.864
21
-149.494
0
LINE
8
BLACK
6
CONTINUOUS
10
102.864
20
-149.494
11
103.055
21
-149.398
0
LINE
8
BLACK
6
CONTINUOUS
10
103.055
20
-149.398
11
103.531
21
-149.398
0
LINE
8
BLACK
6
CONTINUOUS
10
103.531
20
-149.398
11
103.721
21
-149.303
0
LINE
8
BLACK
6
CONTINUOUS
10
104.674
20
-148.827
11
104.674
21
-150.827
0
LINE
8
BLACK
6
CONTINUOUS
10
104.674
20
-148.922
11
104.864
21
-148.827
0
LINE
8
BLACK
6
CONTINUOUS
10
104.864
20
-148.827
11
105.245
21
-148.827
0
LINE
8
BLACK
6
CONTINUOUS
10
105.245
20
-148.827
11
105.436
21
-148.922
0
LINE
8
BLACK
6
CONTINUOUS
10
105.436
20
-148.922
11
105.531
21
-149.018
0
LINE
8
BLACK
6
CONTINUOUS
10
105.531
20
-149.018
11
105.626
21
-149.208
0
LINE
8
BLACK
6
CONTINUOUS
10
105.626
20
-149.208
11
105.626
21
-149.779
0
LINE
8
BLACK
6
CONTINUOUS
10
105.626
20
-149.779
11
105.531
21
-149.97
0
LINE
8
BLACK
6
CONTINUOUS
10
105.531
20
-149.97
11
105.436
21
-150.065
0
LINE
8
BLACK
6
CONTINUOUS
10
105.436
20
-150.065
11
105.245
21
-150.16
0
LINE
8
BLACK
6
CONTINUOUS
10
105.245
20
-150.16
11
104.864
21
-150.16
0
LINE
8
BLACK
6
CONTINUOUS
10
104.864
20
-150.16
11
104.674
21
-150.065
0
LINE
8
BLACK
6
CONTINUOUS
10
106.483
20
-149.97
11
106.578
21
-150.065
0
LINE
8
BLACK
6
CONTINUOUS
10
106.578
20
-150.065
11
106.483
21
-150.16
0
LINE
8
BLACK
6
CONTINUOUS
10
106.483
20
-150.16
11
106.388
21
-150.065
0
LINE
8
BLACK
6
CONTINUOUS
10
106.388
20
-150.065
11
106.483
21
-149.97
0
LINE
8
BLACK
6
CONTINUOUS
10
106.483
20
-149.97
11
106.483
21
-150.16
0
LINE
8
BLACK
6
CONTINUOUS
10
106.483
20
-148.922
11
106.578
21
-149.018
0
LINE
8
BLACK
6
CONTINUOUS
10
106.578
20
-149.018
11
106.483
21
-149.113
0
LINE
8
BLACK
6
CONTINUOUS
10
106.483
20
-149.113
11
106.388
21
-149.018
0
LINE
8
BLACK
6
CONTINUOUS
10
106.388
20
-149.018
11
106.483
21
-148.922
0
LINE
8
BLACK
6
CONTINUOUS
10
106.483
20
-148.922
11
106.483
21
-149.113
  0
ENDSEC
  0
EOF
