%TF.GenerationSoftware,KiCad,Pcbnew,(6.0.7)*%
%TF.CreationDate,2022-10-09T20:49:50-07:00*%
%TF.ProjectId,IEEE_PCB_1,49454545-5f50-4434-925f-312e6b696361,1*%
%TF.SameCoordinates,Original*%
%TF.FileFunction,Legend,Top*%
%TF.FilePolarity,Positive*%
%FSLAX46Y46*%
G04 Gerber Fmt 4.6, Leading zero omitted, Abs format (unit mm)*
G04 Created by KiCad (PCBNEW (6.0.7)) date 2022-10-09 20:49:50*
%MOMM*%
%LPD*%
G01*
G04 APERTURE LIST*
G04 Aperture macros list*
%AMRoundRect*
0 Rectangle with rounded corners*
0 $1 Rounding radius*
0 $2 $3 $4 $5 $6 $7 $8 $9 X,Y pos of 4 corners*
0 Add a 4 corners polygon primitive as box body*
4,1,4,$2,$3,$4,$5,$6,$7,$8,$9,$2,$3,0*
0 Add four circle primitives for the rounded corners*
1,1,$1+$1,$2,$3*
1,1,$1+$1,$4,$5*
1,1,$1+$1,$6,$7*
1,1,$1+$1,$8,$9*
0 Add four rect primitives between the rounded corners*
20,1,$1+$1,$2,$3,$4,$5,0*
20,1,$1+$1,$4,$5,$6,$7,0*
20,1,$1+$1,$6,$7,$8,$9,0*
20,1,$1+$1,$8,$9,$2,$3,0*%
G04 Aperture macros list end*
%ADD10C,0.300000*%
%ADD11C,0.150000*%
%ADD12C,0.120000*%
%ADD13C,0.100000*%
%ADD14C,0.303741*%
%ADD15C,0.151870*%
%ADD16R,1.600000X1.600000*%
%ADD17C,1.600000*%
%ADD18R,1.800000X1.800000*%
%ADD19C,1.800000*%
%ADD20O,1.600000X1.600000*%
%ADD21C,1.500000*%
%ADD22RoundRect,0.237500X-0.250000X-0.237500X0.250000X-0.237500X0.250000X0.237500X-0.250000X0.237500X0*%
%ADD23RoundRect,0.237500X0.250000X0.237500X-0.250000X0.237500X-0.250000X-0.237500X0.250000X-0.237500X0*%
%ADD24C,2.000000*%
G04 APERTURE END LIST*
D10*
X132396285Y-128153571D02*
X131896285Y-127439285D01*
X131539142Y-128153571D02*
X131539142Y-126653571D01*
X132110571Y-126653571D01*
X132253428Y-126725000D01*
X132324857Y-126796428D01*
X132396285Y-126939285D01*
X132396285Y-127153571D01*
X132324857Y-127296428D01*
X132253428Y-127367857D01*
X132110571Y-127439285D01*
X131539142Y-127439285D01*
X133610571Y-128082142D02*
X133467714Y-128153571D01*
X133182000Y-128153571D01*
X133039142Y-128082142D01*
X132967714Y-127939285D01*
X132967714Y-127367857D01*
X133039142Y-127225000D01*
X133182000Y-127153571D01*
X133467714Y-127153571D01*
X133610571Y-127225000D01*
X133682000Y-127367857D01*
X133682000Y-127510714D01*
X132967714Y-127653571D01*
X134182000Y-127153571D02*
X134539142Y-128153571D01*
X134896285Y-127153571D01*
X136539142Y-126796428D02*
X136610571Y-126725000D01*
X136753428Y-126653571D01*
X137110571Y-126653571D01*
X137253428Y-126725000D01*
X137324857Y-126796428D01*
X137396285Y-126939285D01*
X137396285Y-127082142D01*
X137324857Y-127296428D01*
X136467714Y-128153571D01*
X137396285Y-128153571D01*
X128777857Y-124452571D02*
X128777857Y-125666857D01*
X128849285Y-125809714D01*
X128920714Y-125881142D01*
X129063571Y-125952571D01*
X129349285Y-125952571D01*
X129492142Y-125881142D01*
X129563571Y-125809714D01*
X129635000Y-125666857D01*
X129635000Y-124452571D01*
X131206428Y-125809714D02*
X131135000Y-125881142D01*
X130920714Y-125952571D01*
X130777857Y-125952571D01*
X130563571Y-125881142D01*
X130420714Y-125738285D01*
X130349285Y-125595428D01*
X130277857Y-125309714D01*
X130277857Y-125095428D01*
X130349285Y-124809714D01*
X130420714Y-124666857D01*
X130563571Y-124524000D01*
X130777857Y-124452571D01*
X130920714Y-124452571D01*
X131135000Y-124524000D01*
X131206428Y-124595428D01*
X131777857Y-125881142D02*
X131992142Y-125952571D01*
X132349285Y-125952571D01*
X132492142Y-125881142D01*
X132563571Y-125809714D01*
X132635000Y-125666857D01*
X132635000Y-125524000D01*
X132563571Y-125381142D01*
X132492142Y-125309714D01*
X132349285Y-125238285D01*
X132063571Y-125166857D01*
X131920714Y-125095428D01*
X131849285Y-125024000D01*
X131777857Y-124881142D01*
X131777857Y-124738285D01*
X131849285Y-124595428D01*
X131920714Y-124524000D01*
X132063571Y-124452571D01*
X132420714Y-124452571D01*
X132635000Y-124524000D01*
X133777857Y-125166857D02*
X133992142Y-125238285D01*
X134063571Y-125309714D01*
X134135000Y-125452571D01*
X134135000Y-125666857D01*
X134063571Y-125809714D01*
X133992142Y-125881142D01*
X133849285Y-125952571D01*
X133277857Y-125952571D01*
X133277857Y-124452571D01*
X133777857Y-124452571D01*
X133920714Y-124524000D01*
X133992142Y-124595428D01*
X134063571Y-124738285D01*
X134063571Y-124881142D01*
X133992142Y-125024000D01*
X133920714Y-125095428D01*
X133777857Y-125166857D01*
X133277857Y-125166857D01*
X135920714Y-125952571D02*
X135920714Y-124452571D01*
X136635000Y-125166857D02*
X137135000Y-125166857D01*
X137349285Y-125952571D02*
X136635000Y-125952571D01*
X136635000Y-124452571D01*
X137349285Y-124452571D01*
X137992142Y-125166857D02*
X138492142Y-125166857D01*
X138706428Y-125952571D02*
X137992142Y-125952571D01*
X137992142Y-124452571D01*
X138706428Y-124452571D01*
X139349285Y-125166857D02*
X139849285Y-125166857D01*
X140063571Y-125952571D02*
X139349285Y-125952571D01*
X139349285Y-124452571D01*
X140063571Y-124452571D01*
D11*
%TO.C,C1*%
X115240333Y-92749142D02*
X115192714Y-92796761D01*
X115049857Y-92844380D01*
X114954619Y-92844380D01*
X114811761Y-92796761D01*
X114716523Y-92701523D01*
X114668904Y-92606285D01*
X114621285Y-92415809D01*
X114621285Y-92272952D01*
X114668904Y-92082476D01*
X114716523Y-91987238D01*
X114811761Y-91892000D01*
X114954619Y-91844380D01*
X115049857Y-91844380D01*
X115192714Y-91892000D01*
X115240333Y-91939619D01*
X116192714Y-92844380D02*
X115621285Y-92844380D01*
X115907000Y-92844380D02*
X115907000Y-91844380D01*
X115811761Y-91987238D01*
X115716523Y-92082476D01*
X115621285Y-92130095D01*
%TO.C,C2*%
X121866333Y-92629142D02*
X121818714Y-92676761D01*
X121675857Y-92724380D01*
X121580619Y-92724380D01*
X121437761Y-92676761D01*
X121342523Y-92581523D01*
X121294904Y-92486285D01*
X121247285Y-92295809D01*
X121247285Y-92152952D01*
X121294904Y-91962476D01*
X121342523Y-91867238D01*
X121437761Y-91772000D01*
X121580619Y-91724380D01*
X121675857Y-91724380D01*
X121818714Y-91772000D01*
X121866333Y-91819619D01*
X122247285Y-91819619D02*
X122294904Y-91772000D01*
X122390142Y-91724380D01*
X122628238Y-91724380D01*
X122723476Y-91772000D01*
X122771095Y-91819619D01*
X122818714Y-91914857D01*
X122818714Y-92010095D01*
X122771095Y-92152952D01*
X122199666Y-92724380D01*
X122818714Y-92724380D01*
%TO.C,D1*%
X95945904Y-93758380D02*
X95945904Y-92758380D01*
X96184000Y-92758380D01*
X96326857Y-92806000D01*
X96422095Y-92901238D01*
X96469714Y-92996476D01*
X96517333Y-93186952D01*
X96517333Y-93329809D01*
X96469714Y-93520285D01*
X96422095Y-93615523D01*
X96326857Y-93710761D01*
X96184000Y-93758380D01*
X95945904Y-93758380D01*
X97469714Y-93758380D02*
X96898285Y-93758380D01*
X97184000Y-93758380D02*
X97184000Y-92758380D01*
X97088761Y-92901238D01*
X96993523Y-92996476D01*
X96898285Y-93044095D01*
%TO.C,D2*%
X173679904Y-93657380D02*
X173679904Y-92657380D01*
X173918000Y-92657380D01*
X174060857Y-92705000D01*
X174156095Y-92800238D01*
X174203714Y-92895476D01*
X174251333Y-93085952D01*
X174251333Y-93228809D01*
X174203714Y-93419285D01*
X174156095Y-93514523D01*
X174060857Y-93609761D01*
X173918000Y-93657380D01*
X173679904Y-93657380D01*
X174632285Y-92752619D02*
X174679904Y-92705000D01*
X174775142Y-92657380D01*
X175013238Y-92657380D01*
X175108476Y-92705000D01*
X175156095Y-92752619D01*
X175203714Y-92847857D01*
X175203714Y-92943095D01*
X175156095Y-93085952D01*
X174584666Y-93657380D01*
X175203714Y-93657380D01*
%TO.C,D3*%
X150891904Y-133845380D02*
X150891904Y-132845380D01*
X151130000Y-132845380D01*
X151272857Y-132893000D01*
X151368095Y-132988238D01*
X151415714Y-133083476D01*
X151463333Y-133273952D01*
X151463333Y-133416809D01*
X151415714Y-133607285D01*
X151368095Y-133702523D01*
X151272857Y-133797761D01*
X151130000Y-133845380D01*
X150891904Y-133845380D01*
X151796666Y-132845380D02*
X152415714Y-132845380D01*
X152082380Y-133226333D01*
X152225238Y-133226333D01*
X152320476Y-133273952D01*
X152368095Y-133321571D01*
X152415714Y-133416809D01*
X152415714Y-133654904D01*
X152368095Y-133750142D01*
X152320476Y-133797761D01*
X152225238Y-133845380D01*
X151939523Y-133845380D01*
X151844285Y-133797761D01*
X151796666Y-133750142D01*
%TO.C,D4*%
X134347904Y-60161380D02*
X134347904Y-59161380D01*
X134586000Y-59161380D01*
X134728857Y-59209000D01*
X134824095Y-59304238D01*
X134871714Y-59399476D01*
X134919333Y-59589952D01*
X134919333Y-59732809D01*
X134871714Y-59923285D01*
X134824095Y-60018523D01*
X134728857Y-60113761D01*
X134586000Y-60161380D01*
X134347904Y-60161380D01*
X135776476Y-59494714D02*
X135776476Y-60161380D01*
X135538380Y-59113761D02*
X135300285Y-59828047D01*
X135919333Y-59828047D01*
%TO.C,D5*%
X100691904Y-116768380D02*
X100691904Y-115768380D01*
X100930000Y-115768380D01*
X101072857Y-115816000D01*
X101168095Y-115911238D01*
X101215714Y-116006476D01*
X101263333Y-116196952D01*
X101263333Y-116339809D01*
X101215714Y-116530285D01*
X101168095Y-116625523D01*
X101072857Y-116720761D01*
X100930000Y-116768380D01*
X100691904Y-116768380D01*
X102168095Y-115768380D02*
X101691904Y-115768380D01*
X101644285Y-116244571D01*
X101691904Y-116196952D01*
X101787142Y-116149333D01*
X102025238Y-116149333D01*
X102120476Y-116196952D01*
X102168095Y-116244571D01*
X102215714Y-116339809D01*
X102215714Y-116577904D01*
X102168095Y-116673142D01*
X102120476Y-116720761D01*
X102025238Y-116768380D01*
X101787142Y-116768380D01*
X101691904Y-116720761D01*
X101644285Y-116673142D01*
%TO.C,D6*%
X169137904Y-116291380D02*
X169137904Y-115291380D01*
X169376000Y-115291380D01*
X169518857Y-115339000D01*
X169614095Y-115434238D01*
X169661714Y-115529476D01*
X169709333Y-115719952D01*
X169709333Y-115862809D01*
X169661714Y-116053285D01*
X169614095Y-116148523D01*
X169518857Y-116243761D01*
X169376000Y-116291380D01*
X169137904Y-116291380D01*
X170566476Y-115291380D02*
X170376000Y-115291380D01*
X170280761Y-115339000D01*
X170233142Y-115386619D01*
X170137904Y-115529476D01*
X170090285Y-115719952D01*
X170090285Y-116100904D01*
X170137904Y-116196142D01*
X170185523Y-116243761D01*
X170280761Y-116291380D01*
X170471238Y-116291380D01*
X170566476Y-116243761D01*
X170614095Y-116196142D01*
X170661714Y-116100904D01*
X170661714Y-115862809D01*
X170614095Y-115767571D01*
X170566476Y-115719952D01*
X170471238Y-115672333D01*
X170280761Y-115672333D01*
X170185523Y-115719952D01*
X170137904Y-115767571D01*
X170090285Y-115862809D01*
%TO.C,D7*%
X161059904Y-71784380D02*
X161059904Y-70784380D01*
X161298000Y-70784380D01*
X161440857Y-70832000D01*
X161536095Y-70927238D01*
X161583714Y-71022476D01*
X161631333Y-71212952D01*
X161631333Y-71355809D01*
X161583714Y-71546285D01*
X161536095Y-71641523D01*
X161440857Y-71736761D01*
X161298000Y-71784380D01*
X161059904Y-71784380D01*
X161964666Y-70784380D02*
X162631333Y-70784380D01*
X162202761Y-71784380D01*
%TO.C,D8*%
X107244904Y-70441380D02*
X107244904Y-69441380D01*
X107483000Y-69441380D01*
X107625857Y-69489000D01*
X107721095Y-69584238D01*
X107768714Y-69679476D01*
X107816333Y-69869952D01*
X107816333Y-70012809D01*
X107768714Y-70203285D01*
X107721095Y-70298523D01*
X107625857Y-70393761D01*
X107483000Y-70441380D01*
X107244904Y-70441380D01*
X108387761Y-69869952D02*
X108292523Y-69822333D01*
X108244904Y-69774714D01*
X108197285Y-69679476D01*
X108197285Y-69631857D01*
X108244904Y-69536619D01*
X108292523Y-69489000D01*
X108387761Y-69441380D01*
X108578238Y-69441380D01*
X108673476Y-69489000D01*
X108721095Y-69536619D01*
X108768714Y-69631857D01*
X108768714Y-69679476D01*
X108721095Y-69774714D01*
X108673476Y-69822333D01*
X108578238Y-69869952D01*
X108387761Y-69869952D01*
X108292523Y-69917571D01*
X108244904Y-69965190D01*
X108197285Y-70060428D01*
X108197285Y-70250904D01*
X108244904Y-70346142D01*
X108292523Y-70393761D01*
X108387761Y-70441380D01*
X108578238Y-70441380D01*
X108673476Y-70393761D01*
X108721095Y-70346142D01*
X108768714Y-70250904D01*
X108768714Y-70060428D01*
X108721095Y-69965190D01*
X108673476Y-69917571D01*
X108578238Y-69869952D01*
%TO.C,D9*%
X120783904Y-133655380D02*
X120783904Y-132655380D01*
X121022000Y-132655380D01*
X121164857Y-132703000D01*
X121260095Y-132798238D01*
X121307714Y-132893476D01*
X121355333Y-133083952D01*
X121355333Y-133226809D01*
X121307714Y-133417285D01*
X121260095Y-133512523D01*
X121164857Y-133607761D01*
X121022000Y-133655380D01*
X120783904Y-133655380D01*
X121831523Y-133655380D02*
X122022000Y-133655380D01*
X122117238Y-133607761D01*
X122164857Y-133560142D01*
X122260095Y-133417285D01*
X122307714Y-133226809D01*
X122307714Y-132845857D01*
X122260095Y-132750619D01*
X122212476Y-132703000D01*
X122117238Y-132655380D01*
X121926761Y-132655380D01*
X121831523Y-132703000D01*
X121783904Y-132750619D01*
X121736285Y-132845857D01*
X121736285Y-133083952D01*
X121783904Y-133179190D01*
X121831523Y-133226809D01*
X121926761Y-133274428D01*
X122117238Y-133274428D01*
X122212476Y-133226809D01*
X122260095Y-133179190D01*
X122307714Y-133083952D01*
%TO.C,R1*%
X132054380Y-84471666D02*
X131578190Y-84805000D01*
X132054380Y-85043095D02*
X131054380Y-85043095D01*
X131054380Y-84662142D01*
X131102000Y-84566904D01*
X131149619Y-84519285D01*
X131244857Y-84471666D01*
X131387714Y-84471666D01*
X131482952Y-84519285D01*
X131530571Y-84566904D01*
X131578190Y-84662142D01*
X131578190Y-85043095D01*
X132054380Y-83519285D02*
X132054380Y-84090714D01*
X132054380Y-83805000D02*
X131054380Y-83805000D01*
X131197238Y-83900238D01*
X131292476Y-83995476D01*
X131340095Y-84090714D01*
%TO.C,RV1*%
X131134261Y-94016380D02*
X130800928Y-93540190D01*
X130562833Y-94016380D02*
X130562833Y-93016380D01*
X130943785Y-93016380D01*
X131039023Y-93064000D01*
X131086642Y-93111619D01*
X131134261Y-93206857D01*
X131134261Y-93349714D01*
X131086642Y-93444952D01*
X131039023Y-93492571D01*
X130943785Y-93540190D01*
X130562833Y-93540190D01*
X131419976Y-93016380D02*
X131753309Y-94016380D01*
X132086642Y-93016380D01*
X132943785Y-94016380D02*
X132372357Y-94016380D01*
X132658071Y-94016380D02*
X132658071Y-93016380D01*
X132562833Y-93159238D01*
X132467595Y-93254476D01*
X132372357Y-93302095D01*
%TO.C,U1*%
X117146095Y-78396380D02*
X117146095Y-79205904D01*
X117193714Y-79301142D01*
X117241333Y-79348761D01*
X117336571Y-79396380D01*
X117527047Y-79396380D01*
X117622285Y-79348761D01*
X117669904Y-79301142D01*
X117717523Y-79205904D01*
X117717523Y-78396380D01*
X118717523Y-79396380D02*
X118146095Y-79396380D01*
X118431809Y-79396380D02*
X118431809Y-78396380D01*
X118336571Y-78539238D01*
X118241333Y-78634476D01*
X118146095Y-78682095D01*
%TO.C,U2*%
X148346095Y-76888380D02*
X148346095Y-77697904D01*
X148393714Y-77793142D01*
X148441333Y-77840761D01*
X148536571Y-77888380D01*
X148727047Y-77888380D01*
X148822285Y-77840761D01*
X148869904Y-77793142D01*
X148917523Y-77697904D01*
X148917523Y-76888380D01*
X149346095Y-76983619D02*
X149393714Y-76936000D01*
X149488952Y-76888380D01*
X149727047Y-76888380D01*
X149822285Y-76936000D01*
X149869904Y-76983619D01*
X149917523Y-77078857D01*
X149917523Y-77174095D01*
X149869904Y-77316952D01*
X149298476Y-77888380D01*
X149917523Y-77888380D01*
%TO.C,R9*%
X115925333Y-72989380D02*
X115592000Y-72513190D01*
X115353904Y-72989380D02*
X115353904Y-71989380D01*
X115734857Y-71989380D01*
X115830095Y-72037000D01*
X115877714Y-72084619D01*
X115925333Y-72179857D01*
X115925333Y-72322714D01*
X115877714Y-72417952D01*
X115830095Y-72465571D01*
X115734857Y-72513190D01*
X115353904Y-72513190D01*
X116401523Y-72989380D02*
X116592000Y-72989380D01*
X116687238Y-72941761D01*
X116734857Y-72894142D01*
X116830095Y-72751285D01*
X116877714Y-72560809D01*
X116877714Y-72179857D01*
X116830095Y-72084619D01*
X116782476Y-72037000D01*
X116687238Y-71989380D01*
X116496761Y-71989380D01*
X116401523Y-72037000D01*
X116353904Y-72084619D01*
X116306285Y-72179857D01*
X116306285Y-72417952D01*
X116353904Y-72513190D01*
X116401523Y-72560809D01*
X116496761Y-72608428D01*
X116687238Y-72608428D01*
X116782476Y-72560809D01*
X116830095Y-72513190D01*
X116877714Y-72417952D01*
%TO.C,R7*%
X162892333Y-118826380D02*
X162559000Y-118350190D01*
X162320904Y-118826380D02*
X162320904Y-117826380D01*
X162701857Y-117826380D01*
X162797095Y-117874000D01*
X162844714Y-117921619D01*
X162892333Y-118016857D01*
X162892333Y-118159714D01*
X162844714Y-118254952D01*
X162797095Y-118302571D01*
X162701857Y-118350190D01*
X162320904Y-118350190D01*
X163225666Y-117826380D02*
X163892333Y-117826380D01*
X163463761Y-118826380D01*
%TO.C,R3*%
X167851333Y-96243380D02*
X167518000Y-95767190D01*
X167279904Y-96243380D02*
X167279904Y-95243380D01*
X167660857Y-95243380D01*
X167756095Y-95291000D01*
X167803714Y-95338619D01*
X167851333Y-95433857D01*
X167851333Y-95576714D01*
X167803714Y-95671952D01*
X167756095Y-95719571D01*
X167660857Y-95767190D01*
X167279904Y-95767190D01*
X168184666Y-95243380D02*
X168803714Y-95243380D01*
X168470380Y-95624333D01*
X168613238Y-95624333D01*
X168708476Y-95671952D01*
X168756095Y-95719571D01*
X168803714Y-95814809D01*
X168803714Y-96052904D01*
X168756095Y-96148142D01*
X168708476Y-96195761D01*
X168613238Y-96243380D01*
X168327523Y-96243380D01*
X168232285Y-96195761D01*
X168184666Y-96148142D01*
%TO.C,R8*%
X155804333Y-73962380D02*
X155471000Y-73486190D01*
X155232904Y-73962380D02*
X155232904Y-72962380D01*
X155613857Y-72962380D01*
X155709095Y-73010000D01*
X155756714Y-73057619D01*
X155804333Y-73152857D01*
X155804333Y-73295714D01*
X155756714Y-73390952D01*
X155709095Y-73438571D01*
X155613857Y-73486190D01*
X155232904Y-73486190D01*
X156375761Y-73390952D02*
X156280523Y-73343333D01*
X156232904Y-73295714D01*
X156185285Y-73200476D01*
X156185285Y-73152857D01*
X156232904Y-73057619D01*
X156280523Y-73010000D01*
X156375761Y-72962380D01*
X156566238Y-72962380D01*
X156661476Y-73010000D01*
X156709095Y-73057619D01*
X156756714Y-73152857D01*
X156756714Y-73200476D01*
X156709095Y-73295714D01*
X156661476Y-73343333D01*
X156566238Y-73390952D01*
X156375761Y-73390952D01*
X156280523Y-73438571D01*
X156232904Y-73486190D01*
X156185285Y-73581428D01*
X156185285Y-73771904D01*
X156232904Y-73867142D01*
X156280523Y-73914761D01*
X156375761Y-73962380D01*
X156566238Y-73962380D01*
X156661476Y-73914761D01*
X156709095Y-73867142D01*
X156756714Y-73771904D01*
X156756714Y-73581428D01*
X156709095Y-73486190D01*
X156661476Y-73438571D01*
X156566238Y-73390952D01*
%TO.C,R5*%
X142475333Y-62691380D02*
X142142000Y-62215190D01*
X141903904Y-62691380D02*
X141903904Y-61691380D01*
X142284857Y-61691380D01*
X142380095Y-61739000D01*
X142427714Y-61786619D01*
X142475333Y-61881857D01*
X142475333Y-62024714D01*
X142427714Y-62119952D01*
X142380095Y-62167571D01*
X142284857Y-62215190D01*
X141903904Y-62215190D01*
X143380095Y-61691380D02*
X142903904Y-61691380D01*
X142856285Y-62167571D01*
X142903904Y-62119952D01*
X142999142Y-62072333D01*
X143237238Y-62072333D01*
X143332476Y-62119952D01*
X143380095Y-62167571D01*
X143427714Y-62262809D01*
X143427714Y-62500904D01*
X143380095Y-62596142D01*
X143332476Y-62643761D01*
X143237238Y-62691380D01*
X142999142Y-62691380D01*
X142903904Y-62643761D01*
X142856285Y-62596142D01*
%TO.C,R2*%
X106770333Y-90681380D02*
X106437000Y-90205190D01*
X106198904Y-90681380D02*
X106198904Y-89681380D01*
X106579857Y-89681380D01*
X106675095Y-89729000D01*
X106722714Y-89776619D01*
X106770333Y-89871857D01*
X106770333Y-90014714D01*
X106722714Y-90109952D01*
X106675095Y-90157571D01*
X106579857Y-90205190D01*
X106198904Y-90205190D01*
X107151285Y-89776619D02*
X107198904Y-89729000D01*
X107294142Y-89681380D01*
X107532238Y-89681380D01*
X107627476Y-89729000D01*
X107675095Y-89776619D01*
X107722714Y-89871857D01*
X107722714Y-89967095D01*
X107675095Y-90109952D01*
X107103666Y-90681380D01*
X107722714Y-90681380D01*
%TO.C,R6*%
X108315333Y-119294380D02*
X107982000Y-118818190D01*
X107743904Y-119294380D02*
X107743904Y-118294380D01*
X108124857Y-118294380D01*
X108220095Y-118342000D01*
X108267714Y-118389619D01*
X108315333Y-118484857D01*
X108315333Y-118627714D01*
X108267714Y-118722952D01*
X108220095Y-118770571D01*
X108124857Y-118818190D01*
X107743904Y-118818190D01*
X109172476Y-118294380D02*
X108982000Y-118294380D01*
X108886761Y-118342000D01*
X108839142Y-118389619D01*
X108743904Y-118532476D01*
X108696285Y-118722952D01*
X108696285Y-119103904D01*
X108743904Y-119199142D01*
X108791523Y-119246761D01*
X108886761Y-119294380D01*
X109077238Y-119294380D01*
X109172476Y-119246761D01*
X109220095Y-119199142D01*
X109267714Y-119103904D01*
X109267714Y-118865809D01*
X109220095Y-118770571D01*
X109172476Y-118722952D01*
X109077238Y-118675333D01*
X108886761Y-118675333D01*
X108791523Y-118722952D01*
X108743904Y-118770571D01*
X108696285Y-118865809D01*
%TO.C,R10*%
X129694142Y-136188380D02*
X129360809Y-135712190D01*
X129122714Y-136188380D02*
X129122714Y-135188380D01*
X129503666Y-135188380D01*
X129598904Y-135236000D01*
X129646523Y-135283619D01*
X129694142Y-135378857D01*
X129694142Y-135521714D01*
X129646523Y-135616952D01*
X129598904Y-135664571D01*
X129503666Y-135712190D01*
X129122714Y-135712190D01*
X130646523Y-136188380D02*
X130075095Y-136188380D01*
X130360809Y-136188380D02*
X130360809Y-135188380D01*
X130265571Y-135331238D01*
X130170333Y-135426476D01*
X130075095Y-135474095D01*
X131265571Y-135188380D02*
X131360809Y-135188380D01*
X131456047Y-135236000D01*
X131503666Y-135283619D01*
X131551285Y-135378857D01*
X131598904Y-135569333D01*
X131598904Y-135807428D01*
X131551285Y-135997904D01*
X131503666Y-136093142D01*
X131456047Y-136140761D01*
X131360809Y-136188380D01*
X131265571Y-136188380D01*
X131170333Y-136140761D01*
X131122714Y-136093142D01*
X131075095Y-135997904D01*
X131027476Y-135807428D01*
X131027476Y-135569333D01*
X131075095Y-135378857D01*
X131122714Y-135283619D01*
X131170333Y-135236000D01*
X131265571Y-135188380D01*
%TO.C,R4*%
X144392333Y-136360380D02*
X144059000Y-135884190D01*
X143820904Y-136360380D02*
X143820904Y-135360380D01*
X144201857Y-135360380D01*
X144297095Y-135408000D01*
X144344714Y-135455619D01*
X144392333Y-135550857D01*
X144392333Y-135693714D01*
X144344714Y-135788952D01*
X144297095Y-135836571D01*
X144201857Y-135884190D01*
X143820904Y-135884190D01*
X145249476Y-135693714D02*
X145249476Y-136360380D01*
X145011380Y-135312761D02*
X144773285Y-136027047D01*
X145392333Y-136027047D01*
%TO.C,SW1*%
X133406666Y-102333761D02*
X133549523Y-102381380D01*
X133787619Y-102381380D01*
X133882857Y-102333761D01*
X133930476Y-102286142D01*
X133978095Y-102190904D01*
X133978095Y-102095666D01*
X133930476Y-102000428D01*
X133882857Y-101952809D01*
X133787619Y-101905190D01*
X133597142Y-101857571D01*
X133501904Y-101809952D01*
X133454285Y-101762333D01*
X133406666Y-101667095D01*
X133406666Y-101571857D01*
X133454285Y-101476619D01*
X133501904Y-101429000D01*
X133597142Y-101381380D01*
X133835238Y-101381380D01*
X133978095Y-101429000D01*
X134311428Y-101381380D02*
X134549523Y-102381380D01*
X134740000Y-101667095D01*
X134930476Y-102381380D01*
X135168571Y-101381380D01*
X136073333Y-102381380D02*
X135501904Y-102381380D01*
X135787619Y-102381380D02*
X135787619Y-101381380D01*
X135692380Y-101524238D01*
X135597142Y-101619476D01*
X135501904Y-101667095D01*
D12*
%TO.C,C1*%
X117728000Y-94964000D02*
X117728000Y-97320000D01*
X117088000Y-97182000D02*
X117088000Y-98113000D01*
X115487000Y-97182000D02*
X115487000Y-98721000D01*
X116007000Y-97182000D02*
X116007000Y-98653000D01*
X116568000Y-97182000D02*
X116568000Y-98452000D01*
X117808000Y-95131000D02*
X117808000Y-97153000D01*
X115527000Y-93564000D02*
X115527000Y-95102000D01*
X117128000Y-97182000D02*
X117128000Y-98079000D01*
X116768000Y-93942000D02*
X116768000Y-95102000D01*
X116608000Y-97182000D02*
X116608000Y-98432000D01*
X115527000Y-97182000D02*
X115527000Y-98720000D01*
X116328000Y-97182000D02*
X116328000Y-98556000D01*
X116888000Y-97182000D02*
X116888000Y-98264000D01*
X117408000Y-94489000D02*
X117408000Y-95102000D01*
X117128000Y-94205000D02*
X117128000Y-95102000D01*
X116488000Y-93794000D02*
X116488000Y-95102000D01*
X115767000Y-97182000D02*
X115767000Y-98698000D01*
X116128000Y-97182000D02*
X116128000Y-98622000D01*
X115447000Y-93562000D02*
X115447000Y-95102000D01*
X117088000Y-94171000D02*
X117088000Y-95102000D01*
X117848000Y-95227000D02*
X117848000Y-97057000D01*
X116448000Y-93777000D02*
X116448000Y-95102000D01*
X115567000Y-93566000D02*
X115567000Y-95102000D01*
X115727000Y-97182000D02*
X115727000Y-98703000D01*
X117048000Y-97182000D02*
X117048000Y-98146000D01*
X115967000Y-97182000D02*
X115967000Y-98662000D01*
X117208000Y-94278000D02*
X117208000Y-95102000D01*
X117008000Y-94107000D02*
X117008000Y-95102000D01*
X116728000Y-97182000D02*
X116728000Y-98366000D01*
X115647000Y-93573000D02*
X115647000Y-95102000D01*
X116648000Y-93874000D02*
X116648000Y-95102000D01*
X117008000Y-97182000D02*
X117008000Y-98177000D01*
X116648000Y-97182000D02*
X116648000Y-98410000D01*
X117328000Y-94399000D02*
X117328000Y-95102000D01*
X117688000Y-94891000D02*
X117688000Y-97393000D01*
X116408000Y-93760000D02*
X116408000Y-95102000D01*
X117048000Y-94138000D02*
X117048000Y-95102000D01*
X117768000Y-95044000D02*
X117768000Y-97240000D01*
X117288000Y-97182000D02*
X117288000Y-97927000D01*
X117368000Y-97182000D02*
X117368000Y-97841000D01*
X112602225Y-94667000D02*
X113102225Y-94667000D01*
X116608000Y-93852000D02*
X116608000Y-95102000D01*
X116848000Y-93993000D02*
X116848000Y-95102000D01*
X116128000Y-93662000D02*
X116128000Y-95102000D01*
X115807000Y-93592000D02*
X115807000Y-95102000D01*
X116328000Y-93728000D02*
X116328000Y-95102000D01*
X117248000Y-97182000D02*
X117248000Y-97968000D01*
X116928000Y-94047000D02*
X116928000Y-95102000D01*
X116007000Y-93631000D02*
X116007000Y-95102000D01*
X116168000Y-93674000D02*
X116168000Y-95102000D01*
X115487000Y-93563000D02*
X115487000Y-95102000D01*
X116208000Y-93687000D02*
X116208000Y-95102000D01*
X117168000Y-97182000D02*
X117168000Y-98043000D01*
X112852225Y-94417000D02*
X112852225Y-94917000D01*
X116168000Y-97182000D02*
X116168000Y-98610000D01*
X117648000Y-94823000D02*
X117648000Y-97461000D01*
X115647000Y-97182000D02*
X115647000Y-98711000D01*
X115727000Y-93581000D02*
X115727000Y-95102000D01*
X116688000Y-93895000D02*
X116688000Y-95102000D01*
X116728000Y-93918000D02*
X116728000Y-95102000D01*
X117608000Y-94759000D02*
X117608000Y-97525000D01*
X115927000Y-93614000D02*
X115927000Y-95102000D01*
X115687000Y-93577000D02*
X115687000Y-95102000D01*
X115807000Y-97182000D02*
X115807000Y-98692000D01*
X116808000Y-97182000D02*
X116808000Y-98317000D01*
X116848000Y-97182000D02*
X116848000Y-98291000D01*
X117488000Y-94588000D02*
X117488000Y-97696000D01*
X115687000Y-97182000D02*
X115687000Y-98707000D01*
X116248000Y-93700000D02*
X116248000Y-95102000D01*
X116968000Y-97182000D02*
X116968000Y-98207000D01*
X116808000Y-93967000D02*
X116808000Y-95102000D01*
X115767000Y-93586000D02*
X115767000Y-95102000D01*
X117368000Y-94443000D02*
X117368000Y-95102000D01*
X116768000Y-97182000D02*
X116768000Y-98342000D01*
X117528000Y-94642000D02*
X117528000Y-97642000D01*
X115887000Y-97182000D02*
X115887000Y-98678000D01*
X115847000Y-97182000D02*
X115847000Y-98685000D01*
X115927000Y-97182000D02*
X115927000Y-98670000D01*
X115967000Y-93622000D02*
X115967000Y-95102000D01*
X116568000Y-93832000D02*
X116568000Y-95102000D01*
X116047000Y-97182000D02*
X116047000Y-98643000D01*
X116928000Y-97182000D02*
X116928000Y-98237000D01*
X117288000Y-94357000D02*
X117288000Y-95102000D01*
X116087000Y-93651000D02*
X116087000Y-95102000D01*
X116448000Y-97182000D02*
X116448000Y-98507000D01*
X116248000Y-97182000D02*
X116248000Y-98584000D01*
X116288000Y-93714000D02*
X116288000Y-95102000D01*
X116968000Y-94077000D02*
X116968000Y-95102000D01*
X117448000Y-94537000D02*
X117448000Y-97747000D01*
X117568000Y-94699000D02*
X117568000Y-97585000D01*
X116288000Y-97182000D02*
X116288000Y-98570000D01*
X116688000Y-97182000D02*
X116688000Y-98389000D01*
X115407000Y-97182000D02*
X115407000Y-98722000D01*
X117208000Y-97182000D02*
X117208000Y-98006000D01*
X115447000Y-97182000D02*
X115447000Y-98722000D01*
X115887000Y-93606000D02*
X115887000Y-95102000D01*
X117968000Y-95624000D02*
X117968000Y-96660000D01*
X115567000Y-97182000D02*
X115567000Y-98718000D01*
X116528000Y-93813000D02*
X116528000Y-95102000D01*
X116528000Y-97182000D02*
X116528000Y-98471000D01*
X118008000Y-95858000D02*
X118008000Y-96426000D01*
X116408000Y-97182000D02*
X116408000Y-98524000D01*
X115607000Y-97182000D02*
X115607000Y-98715000D01*
X117408000Y-97182000D02*
X117408000Y-97795000D01*
X115607000Y-93569000D02*
X115607000Y-95102000D01*
X116087000Y-97182000D02*
X116087000Y-98633000D01*
X117248000Y-94316000D02*
X117248000Y-95102000D01*
X117928000Y-95465000D02*
X117928000Y-96819000D01*
X116368000Y-93744000D02*
X116368000Y-95102000D01*
X116047000Y-93641000D02*
X116047000Y-95102000D01*
X116368000Y-97182000D02*
X116368000Y-98540000D01*
X117328000Y-97182000D02*
X117328000Y-97885000D01*
X115407000Y-93562000D02*
X115407000Y-95102000D01*
X117168000Y-94241000D02*
X117168000Y-95102000D01*
X116208000Y-97182000D02*
X116208000Y-98597000D01*
X116488000Y-97182000D02*
X116488000Y-98490000D01*
X115847000Y-93599000D02*
X115847000Y-95102000D01*
X117888000Y-95337000D02*
X117888000Y-96947000D01*
X116888000Y-94020000D02*
X116888000Y-95102000D01*
X118027000Y-96142000D02*
G75*
G03*
X118027000Y-96142000I-2620000J0D01*
G01*
%TO.C,C2*%
X124514000Y-95217000D02*
X124514000Y-96827000D01*
X124034000Y-94369000D02*
X124034000Y-94982000D01*
X122233000Y-97062000D02*
X122233000Y-98595000D01*
X124634000Y-95738000D02*
X124634000Y-96306000D01*
X122313000Y-93457000D02*
X122313000Y-94982000D01*
X123914000Y-97062000D02*
X123914000Y-97807000D01*
X122994000Y-97062000D02*
X122994000Y-98420000D01*
X122073000Y-93442000D02*
X122073000Y-94982000D01*
X122153000Y-93444000D02*
X122153000Y-94982000D01*
X123994000Y-97062000D02*
X123994000Y-97721000D01*
X122473000Y-97062000D02*
X122473000Y-98565000D01*
X123434000Y-93847000D02*
X123434000Y-94982000D01*
X124314000Y-94771000D02*
X124314000Y-97273000D01*
X122113000Y-97062000D02*
X122113000Y-98601000D01*
X123514000Y-97062000D02*
X123514000Y-98144000D01*
X122553000Y-97062000D02*
X122553000Y-98550000D01*
X122433000Y-93472000D02*
X122433000Y-94982000D01*
X123034000Y-93640000D02*
X123034000Y-94982000D01*
X122754000Y-97062000D02*
X122754000Y-98502000D01*
X123674000Y-97062000D02*
X123674000Y-98026000D01*
X123154000Y-93693000D02*
X123154000Y-94982000D01*
X122954000Y-93608000D02*
X122954000Y-94982000D01*
X123994000Y-94323000D02*
X123994000Y-94982000D01*
X122273000Y-97062000D02*
X122273000Y-98591000D01*
X122754000Y-93542000D02*
X122754000Y-94982000D01*
X122193000Y-93446000D02*
X122193000Y-94982000D01*
X122954000Y-97062000D02*
X122954000Y-98436000D01*
X122393000Y-93466000D02*
X122393000Y-94982000D01*
X122593000Y-93502000D02*
X122593000Y-94982000D01*
X122513000Y-97062000D02*
X122513000Y-98558000D01*
X122914000Y-97062000D02*
X122914000Y-98450000D01*
X123074000Y-93657000D02*
X123074000Y-94982000D01*
X123354000Y-93798000D02*
X123354000Y-94982000D01*
X122513000Y-93486000D02*
X122513000Y-94982000D01*
X122713000Y-97062000D02*
X122713000Y-98513000D01*
X122033000Y-97062000D02*
X122033000Y-98602000D01*
X122994000Y-93624000D02*
X122994000Y-94982000D01*
X123234000Y-93732000D02*
X123234000Y-94982000D01*
X122193000Y-97062000D02*
X122193000Y-98598000D01*
X124594000Y-95504000D02*
X124594000Y-96540000D01*
X122033000Y-93442000D02*
X122033000Y-94982000D01*
X123794000Y-94121000D02*
X123794000Y-94982000D01*
X122153000Y-97062000D02*
X122153000Y-98600000D01*
X122353000Y-93461000D02*
X122353000Y-94982000D01*
X123634000Y-93987000D02*
X123634000Y-94982000D01*
X123034000Y-97062000D02*
X123034000Y-98404000D01*
X122794000Y-97062000D02*
X122794000Y-98490000D01*
X122633000Y-97062000D02*
X122633000Y-98533000D01*
X123834000Y-97062000D02*
X123834000Y-97886000D01*
X122273000Y-93453000D02*
X122273000Y-94982000D01*
X123634000Y-97062000D02*
X123634000Y-98057000D01*
X119228225Y-94547000D02*
X119728225Y-94547000D01*
X122353000Y-97062000D02*
X122353000Y-98583000D01*
X123194000Y-93712000D02*
X123194000Y-94982000D01*
X123834000Y-94158000D02*
X123834000Y-94982000D01*
X123194000Y-97062000D02*
X123194000Y-98332000D01*
X124394000Y-94924000D02*
X124394000Y-97120000D01*
X123114000Y-93674000D02*
X123114000Y-94982000D01*
X123434000Y-97062000D02*
X123434000Y-98197000D01*
X123754000Y-97062000D02*
X123754000Y-97959000D01*
X123554000Y-93927000D02*
X123554000Y-94982000D01*
X122473000Y-93479000D02*
X122473000Y-94982000D01*
X124074000Y-94417000D02*
X124074000Y-97627000D01*
X123714000Y-94051000D02*
X123714000Y-94982000D01*
X122874000Y-97062000D02*
X122874000Y-98464000D01*
X123794000Y-97062000D02*
X123794000Y-97923000D01*
X122874000Y-93580000D02*
X122874000Y-94982000D01*
X124554000Y-95345000D02*
X124554000Y-96699000D01*
X122914000Y-93594000D02*
X122914000Y-94982000D01*
X123314000Y-97062000D02*
X123314000Y-98269000D01*
X123954000Y-94279000D02*
X123954000Y-94982000D01*
X122713000Y-93531000D02*
X122713000Y-94982000D01*
X122633000Y-93511000D02*
X122633000Y-94982000D01*
X123554000Y-97062000D02*
X123554000Y-98117000D01*
X123274000Y-93754000D02*
X123274000Y-94982000D01*
X124034000Y-97062000D02*
X124034000Y-97675000D01*
X123874000Y-97062000D02*
X123874000Y-97848000D01*
X122593000Y-97062000D02*
X122593000Y-98542000D01*
X122834000Y-93567000D02*
X122834000Y-94982000D01*
X123514000Y-93900000D02*
X123514000Y-94982000D01*
X122794000Y-93554000D02*
X122794000Y-94982000D01*
X123394000Y-97062000D02*
X123394000Y-98222000D01*
X124154000Y-94522000D02*
X124154000Y-97522000D01*
X122673000Y-93521000D02*
X122673000Y-94982000D01*
X122113000Y-93443000D02*
X122113000Y-94982000D01*
X124194000Y-94579000D02*
X124194000Y-97465000D01*
X123714000Y-97062000D02*
X123714000Y-97993000D01*
X123154000Y-97062000D02*
X123154000Y-98351000D01*
X123874000Y-94196000D02*
X123874000Y-94982000D01*
X123594000Y-93957000D02*
X123594000Y-94982000D01*
X122673000Y-97062000D02*
X122673000Y-98523000D01*
X124354000Y-94844000D02*
X124354000Y-97200000D01*
X122834000Y-97062000D02*
X122834000Y-98477000D01*
X123394000Y-93822000D02*
X123394000Y-94982000D01*
X124474000Y-95107000D02*
X124474000Y-96937000D01*
X123674000Y-94018000D02*
X123674000Y-94982000D01*
X123314000Y-93775000D02*
X123314000Y-94982000D01*
X123074000Y-97062000D02*
X123074000Y-98387000D01*
X123114000Y-97062000D02*
X123114000Y-98370000D01*
X123594000Y-97062000D02*
X123594000Y-98087000D01*
X122433000Y-97062000D02*
X122433000Y-98572000D01*
X124234000Y-94639000D02*
X124234000Y-97405000D01*
X124274000Y-94703000D02*
X124274000Y-97341000D01*
X122553000Y-93494000D02*
X122553000Y-94982000D01*
X123354000Y-97062000D02*
X123354000Y-98246000D01*
X122233000Y-93449000D02*
X122233000Y-94982000D01*
X124114000Y-94468000D02*
X124114000Y-97576000D01*
X122393000Y-97062000D02*
X122393000Y-98578000D01*
X119478225Y-94297000D02*
X119478225Y-94797000D01*
X122313000Y-97062000D02*
X122313000Y-98587000D01*
X123914000Y-94237000D02*
X123914000Y-94982000D01*
X123234000Y-97062000D02*
X123234000Y-98312000D01*
X123474000Y-97062000D02*
X123474000Y-98171000D01*
X124434000Y-95011000D02*
X124434000Y-97033000D01*
X123954000Y-97062000D02*
X123954000Y-97765000D01*
X123754000Y-94085000D02*
X123754000Y-94982000D01*
X123274000Y-97062000D02*
X123274000Y-98290000D01*
X122073000Y-97062000D02*
X122073000Y-98602000D01*
X123474000Y-93873000D02*
X123474000Y-94982000D01*
X124653000Y-96022000D02*
G75*
G03*
X124653000Y-96022000I-2620000J0D01*
G01*
%TO.C,D1*%
X94124000Y-95721000D02*
X94124000Y-98811000D01*
X94124000Y-98810830D02*
G75*
G03*
X99674000Y-97265538I2560000J1544830D01*
G01*
X99674000Y-97266462D02*
G75*
G03*
X94124000Y-95721170I-2990000J462D01*
G01*
X99184000Y-97266000D02*
G75*
G03*
X99184000Y-97266000I-2500000J0D01*
G01*
%TO.C,D2*%
X177077000Y-98713000D02*
X177077000Y-95623000D01*
X171527000Y-97167538D02*
G75*
G03*
X177077000Y-98712830I2990000J-462D01*
G01*
X177077000Y-95623170D02*
G75*
G03*
X171527000Y-97168462I-2560000J-1544830D01*
G01*
X177017000Y-97168000D02*
G75*
G03*
X177017000Y-97168000I-2500000J0D01*
G01*
%TO.C,D3*%
X154241000Y-138898000D02*
X154241000Y-135808000D01*
X154241000Y-135808170D02*
G75*
G03*
X148691000Y-137353462I-2560000J-1544830D01*
G01*
X148691000Y-137352538D02*
G75*
G03*
X154241000Y-138897830I2990000J-462D01*
G01*
X154181000Y-137353000D02*
G75*
G03*
X154181000Y-137353000I-2500000J0D01*
G01*
%TO.C,D4*%
X132526000Y-62124000D02*
X132526000Y-65214000D01*
X132526000Y-65213830D02*
G75*
G03*
X138076000Y-63668538I2560000J1544830D01*
G01*
X138076000Y-63669462D02*
G75*
G03*
X132526000Y-62124170I-2990000J462D01*
G01*
X137586000Y-63669000D02*
G75*
G03*
X137586000Y-63669000I-2500000J0D01*
G01*
%TO.C,D5*%
X98870000Y-118731000D02*
X98870000Y-121821000D01*
X104420000Y-120276462D02*
G75*
G03*
X98870000Y-118731170I-2990000J462D01*
G01*
X98870000Y-121820830D02*
G75*
G03*
X104420000Y-120275538I2560000J1544830D01*
G01*
X103930000Y-120276000D02*
G75*
G03*
X103930000Y-120276000I-2500000J0D01*
G01*
%TO.C,D6*%
X172451000Y-121328000D02*
X172451000Y-118238000D01*
X172451000Y-118238170D02*
G75*
G03*
X166901000Y-119783462I-2560000J-1544830D01*
G01*
X166901000Y-119782538D02*
G75*
G03*
X172451000Y-121327830I2990000J-462D01*
G01*
X172391000Y-119783000D02*
G75*
G03*
X172391000Y-119783000I-2500000J0D01*
G01*
%TO.C,D7*%
X166464000Y-76490000D02*
X166464000Y-73400000D01*
X160914000Y-74944538D02*
G75*
G03*
X166464000Y-76489830I2990000J-462D01*
G01*
X166464000Y-73400170D02*
G75*
G03*
X160914000Y-74945462I-2560000J-1544830D01*
G01*
X166404000Y-74945000D02*
G75*
G03*
X166404000Y-74945000I-2500000J0D01*
G01*
%TO.C,D8*%
X105423000Y-72404000D02*
X105423000Y-75494000D01*
X105423000Y-75493830D02*
G75*
G03*
X110973000Y-73948538I2560000J1544830D01*
G01*
X110973000Y-73949462D02*
G75*
G03*
X105423000Y-72404170I-2990000J462D01*
G01*
X110483000Y-73949000D02*
G75*
G03*
X110483000Y-73949000I-2500000J0D01*
G01*
%TO.C,D9*%
X118962000Y-135618000D02*
X118962000Y-138708000D01*
X124512000Y-137163462D02*
G75*
G03*
X118962000Y-135618170I-2990000J462D01*
G01*
X118962000Y-138707830D02*
G75*
G03*
X124512000Y-137162538I2560000J1544830D01*
G01*
X124022000Y-137163000D02*
G75*
G03*
X124022000Y-137163000I-2500000J0D01*
G01*
%TO.C,R1*%
X127862000Y-81035000D02*
X127862000Y-87575000D01*
X130272000Y-81035000D02*
X130602000Y-81035000D01*
X127862000Y-87575000D02*
X128192000Y-87575000D01*
X128192000Y-81035000D02*
X127862000Y-81035000D01*
X130602000Y-81035000D02*
X130602000Y-87575000D01*
X130602000Y-87575000D02*
X130272000Y-87575000D01*
%TO.C,U1*%
X122888000Y-80084000D02*
X122888000Y-90244000D01*
X112728000Y-80084000D02*
X122888000Y-80084000D01*
X122888000Y-90244000D02*
X112728000Y-90244000D01*
X112728000Y-90244000D02*
X112728000Y-80084000D01*
X113660000Y-79246387D02*
G75*
G03*
X113660000Y-79246387I-500000J0D01*
G01*
G36*
X113278000Y-78840000D02*
G01*
X113364000Y-78868000D01*
X113461000Y-78939000D01*
X113479000Y-78970000D01*
X113548000Y-79065000D01*
X113574000Y-79137000D01*
X113574000Y-79160000D01*
X113579000Y-79185000D01*
X113583000Y-79200000D01*
X113581000Y-79276000D01*
X113567000Y-79378000D01*
X113555000Y-79430000D01*
X113514000Y-79494000D01*
X113476000Y-79548000D01*
X113342000Y-79652000D01*
X113307000Y-79660000D01*
X113250000Y-79672000D01*
X113077000Y-79677000D01*
X113010000Y-79652000D01*
X112841000Y-79544000D01*
X112749000Y-79366000D01*
X112735000Y-79209000D01*
X112738000Y-79083000D01*
X112730000Y-79046000D01*
X112728000Y-79047000D01*
X112807000Y-78959000D01*
X112889000Y-78896000D01*
X112989000Y-78840000D01*
X113145000Y-78807000D01*
X113278000Y-78840000D01*
G37*
D13*
X113278000Y-78840000D02*
X113364000Y-78868000D01*
X113461000Y-78939000D01*
X113479000Y-78970000D01*
X113548000Y-79065000D01*
X113574000Y-79137000D01*
X113574000Y-79160000D01*
X113579000Y-79185000D01*
X113583000Y-79200000D01*
X113581000Y-79276000D01*
X113567000Y-79378000D01*
X113555000Y-79430000D01*
X113514000Y-79494000D01*
X113476000Y-79548000D01*
X113342000Y-79652000D01*
X113307000Y-79660000D01*
X113250000Y-79672000D01*
X113077000Y-79677000D01*
X113010000Y-79652000D01*
X112841000Y-79544000D01*
X112749000Y-79366000D01*
X112735000Y-79209000D01*
X112738000Y-79083000D01*
X112730000Y-79046000D01*
X112728000Y-79047000D01*
X112807000Y-78959000D01*
X112889000Y-78896000D01*
X112989000Y-78840000D01*
X113145000Y-78807000D01*
X113278000Y-78840000D01*
D12*
%TO.C,U2*%
X144018000Y-78556000D02*
X144018000Y-98876000D01*
X154178000Y-78556000D02*
X144018000Y-78556000D01*
X144018000Y-98876000D02*
X154188000Y-98886000D01*
X154188000Y-98886000D02*
X154178000Y-78556000D01*
X145032000Y-77746000D02*
G75*
G03*
X145032000Y-77746000I-500000J0D01*
G01*
G36*
X144725000Y-77334000D02*
G01*
X144887000Y-77460000D01*
X144965000Y-77629000D01*
X144977000Y-77759000D01*
X144968000Y-77844000D01*
X144931000Y-77940000D01*
X144890000Y-78007000D01*
X144824000Y-78086000D01*
X144737000Y-78140000D01*
X144660000Y-78172000D01*
X144554000Y-78192000D01*
X144461000Y-78184000D01*
X144364000Y-78158000D01*
X144276000Y-78110000D01*
X144185000Y-78031000D01*
X144121000Y-77924000D01*
X144095000Y-77830000D01*
X144090000Y-77764000D01*
X144090000Y-77698000D01*
X144103000Y-77631000D01*
X144122000Y-77578000D01*
X144175000Y-77470000D01*
X144257000Y-77385000D01*
X144378000Y-77324000D01*
X144532000Y-77299000D01*
X144725000Y-77334000D01*
G37*
D13*
X144725000Y-77334000D02*
X144887000Y-77460000D01*
X144965000Y-77629000D01*
X144977000Y-77759000D01*
X144968000Y-77844000D01*
X144931000Y-77940000D01*
X144890000Y-78007000D01*
X144824000Y-78086000D01*
X144737000Y-78140000D01*
X144660000Y-78172000D01*
X144554000Y-78192000D01*
X144461000Y-78184000D01*
X144364000Y-78158000D01*
X144276000Y-78110000D01*
X144185000Y-78031000D01*
X144121000Y-77924000D01*
X144095000Y-77830000D01*
X144090000Y-77764000D01*
X144090000Y-77698000D01*
X144103000Y-77631000D01*
X144122000Y-77578000D01*
X144175000Y-77470000D01*
X144257000Y-77385000D01*
X144378000Y-77324000D01*
X144532000Y-77299000D01*
X144725000Y-77334000D01*
D12*
%TO.C,R9*%
X115837276Y-73444500D02*
X116346724Y-73444500D01*
X115837276Y-74489500D02*
X116346724Y-74489500D01*
%TO.C,R7*%
X163229724Y-120282500D02*
X162720276Y-120282500D01*
X163229724Y-119237500D02*
X162720276Y-119237500D01*
%TO.C,R3*%
X168317724Y-97690500D02*
X167808276Y-97690500D01*
X168317724Y-96645500D02*
X167808276Y-96645500D01*
%TO.C,R8*%
X156198724Y-74419500D02*
X155689276Y-74419500D01*
X156198724Y-75464500D02*
X155689276Y-75464500D01*
%TO.C,R5*%
X142387276Y-63146500D02*
X142896724Y-63146500D01*
X142387276Y-64191500D02*
X142896724Y-64191500D01*
%TO.C,R2*%
X106682276Y-92181500D02*
X107191724Y-92181500D01*
X106682276Y-91136500D02*
X107191724Y-91136500D01*
%TO.C,R6*%
X108227276Y-119749500D02*
X108736724Y-119749500D01*
X108227276Y-120794500D02*
X108736724Y-120794500D01*
%TO.C,R10*%
X130082276Y-137688500D02*
X130591724Y-137688500D01*
X130082276Y-136643500D02*
X130591724Y-136643500D01*
%TO.C,R4*%
X144914224Y-137863500D02*
X144404776Y-137863500D01*
X144914224Y-136818500D02*
X144404776Y-136818500D01*
D14*
%TO.C,REF\u002A\u002A*%
X139519533Y-118119722D02*
X139520893Y-118159001D01*
X130418489Y-118399712D02*
X130408713Y-118370905D01*
X133703311Y-121976160D02*
X133384072Y-121710246D01*
D15*
X136678973Y-113781287D02*
X136942334Y-114081532D01*
X141089519Y-117756370D02*
X141137427Y-117794270D01*
D14*
X130374466Y-118198280D02*
X130373106Y-118159001D01*
D15*
X133436050Y-122796995D02*
X133215103Y-122536716D01*
D14*
X139493670Y-117974915D02*
X139500748Y-118001720D01*
X135379984Y-122591503D02*
X135379984Y-122591503D01*
X137558115Y-115569300D02*
X137898535Y-115920951D01*
D15*
X128573820Y-118004027D02*
X128581372Y-117990254D01*
X131937527Y-115147099D02*
X131937527Y-115147099D01*
X133436050Y-113521007D02*
X133611604Y-113308190D01*
D14*
X135379984Y-113726499D02*
X135489067Y-113799939D01*
D15*
X137584172Y-121546068D02*
X137245071Y-121903756D01*
X135585517Y-112405444D02*
X135780353Y-112667827D01*
D14*
X130511157Y-117726017D02*
X130583826Y-117617848D01*
X135034344Y-122723659D02*
X135011329Y-122726366D01*
D15*
X135022809Y-111815875D02*
X135034035Y-111819007D01*
X140100736Y-117035916D02*
X140100736Y-117035916D01*
X134113665Y-123650175D02*
X133941878Y-123425580D01*
X128581657Y-118327919D02*
X128567364Y-118300761D01*
D14*
X132865896Y-121254023D02*
X132688602Y-121089942D01*
X133041892Y-114905354D02*
X133384072Y-114607756D01*
X139506605Y-118027488D02*
X139511327Y-118052197D01*
D15*
X130882620Y-116140661D02*
X131063012Y-115977621D01*
X130428007Y-116535445D02*
X130565443Y-116418780D01*
D14*
X137730413Y-120573488D02*
X137558115Y-120748702D01*
D15*
X130193816Y-116727948D02*
X130304240Y-116638237D01*
X135367848Y-112099897D02*
X135388944Y-112129578D01*
X134891766Y-111811318D02*
X134909742Y-111808628D01*
X134526388Y-124218212D02*
X134505208Y-124188424D01*
X135326668Y-112046107D02*
X135347085Y-112072094D01*
D14*
X134514168Y-113726499D02*
X134514168Y-113726499D01*
D15*
X138831051Y-115977621D02*
X139177164Y-116287450D01*
X134733277Y-111883840D02*
X134765168Y-111862587D01*
D14*
X139500748Y-118316282D02*
X139493670Y-118343087D01*
X139493670Y-118343087D02*
X139485286Y-118370905D01*
D15*
X131937527Y-121170903D02*
X131937527Y-121170903D01*
D14*
X130376294Y-118219665D02*
X130374466Y-118198280D01*
X136509972Y-121710246D02*
X136190727Y-121976160D01*
X135379984Y-113726499D02*
X135379984Y-113726499D01*
D15*
X132951769Y-122236471D02*
X132805147Y-122073704D01*
X141197895Y-118469781D02*
X141179095Y-118487445D01*
X129628120Y-119157782D02*
X129400544Y-118989070D01*
D14*
X130442559Y-117857806D02*
X130457023Y-117826175D01*
D15*
X141355821Y-118209061D02*
X141351941Y-118229379D01*
X139466011Y-116535445D02*
X139700191Y-116727948D01*
X134812049Y-124479771D02*
X134797806Y-124472802D01*
D14*
X139451441Y-117857806D02*
X139464257Y-117888519D01*
X130376294Y-118098337D02*
X130379001Y-118075821D01*
X130442559Y-118460197D02*
X130429743Y-118429484D01*
D15*
X134607872Y-124319070D02*
X134588020Y-124296475D01*
D14*
X132336036Y-115569300D02*
X132336036Y-115569300D01*
D15*
X140265945Y-117160220D02*
X140493531Y-117328932D01*
D14*
X139436977Y-117826175D02*
X139451441Y-117857806D01*
X134924846Y-113588774D02*
X134946999Y-113588449D01*
X130491236Y-118557745D02*
X130473220Y-118524351D01*
X134514168Y-122591503D02*
X134514168Y-122591503D01*
X135345951Y-113706579D02*
X135379984Y-113726499D01*
X137898535Y-115920951D02*
X138219173Y-116271831D01*
X135134788Y-122702331D02*
X135108380Y-122709409D01*
X130393251Y-118316282D02*
X130387394Y-118290514D01*
D15*
X135684485Y-123778162D02*
X135585517Y-123912558D01*
X128542083Y-118229379D02*
X128538193Y-118209061D01*
X141114109Y-118542609D02*
X141089419Y-118561707D01*
X135286927Y-111999338D02*
X135306610Y-112021876D01*
X141326893Y-118017388D02*
X141337938Y-118042860D01*
D14*
X134581347Y-122629440D02*
X134548273Y-122611424D01*
D15*
X130011696Y-119446702D02*
X129793263Y-119282086D01*
X128858954Y-117717057D02*
X128858954Y-117717057D01*
X141346182Y-118066637D02*
X141352026Y-118088687D01*
X138425071Y-120718384D02*
X138198819Y-120934933D01*
D14*
X134811157Y-122715266D02*
X134785631Y-122709409D01*
D15*
X141284132Y-118371697D02*
X141272672Y-118387083D01*
D14*
X130379001Y-118075821D02*
X130382672Y-118052197D01*
D15*
X135367736Y-124218239D02*
X135346840Y-124246158D01*
X132649057Y-114414246D02*
X132951769Y-114081532D01*
X133215103Y-122536716D02*
X132951769Y-122236471D01*
D14*
X133987773Y-122203817D02*
X133703311Y-121976160D01*
D15*
X135002236Y-111811318D02*
X135022809Y-111815875D01*
X129628120Y-117160220D02*
X129793263Y-117035916D01*
X135096213Y-124472916D02*
X135068311Y-124485939D01*
D14*
X135062149Y-113598015D02*
X135086788Y-113602736D01*
D15*
X131937527Y-121170903D02*
X131469030Y-120718384D01*
D14*
X132336036Y-120748702D02*
X131995566Y-120397051D01*
X135906272Y-114114185D02*
X136190727Y-114341842D01*
X134405035Y-122518063D02*
X134225625Y-122386643D01*
X135058178Y-122719988D02*
X135034344Y-122723659D01*
D15*
X132649057Y-121903756D02*
X132483873Y-121727565D01*
D14*
X130429743Y-117888519D02*
X130442559Y-117857806D01*
D15*
X141179095Y-118487445D02*
X141158898Y-118505473D01*
X134968986Y-111807314D02*
X134984258Y-111808628D01*
X135952124Y-112892422D02*
X136079501Y-113054926D01*
D14*
X137558115Y-120748702D02*
X137205500Y-121089942D01*
D15*
X134984258Y-111808628D02*
X135002236Y-111811318D01*
X133611604Y-113308190D02*
X133814499Y-113054926D01*
D14*
X134902314Y-113589808D02*
X134924846Y-113588774D01*
X135379984Y-122591503D02*
X135345852Y-122611424D01*
D15*
X141215347Y-118452487D02*
X141197895Y-118469781D01*
X134765168Y-111862587D02*
X134795015Y-111845655D01*
X128534558Y-118159001D02*
X128534558Y-118159001D01*
D14*
X131995566Y-120397051D02*
X131674891Y-120046172D01*
X130491236Y-117760257D02*
X130511157Y-117726017D01*
X134674578Y-122672917D02*
X134644480Y-122660101D01*
X130387394Y-118027488D02*
X130393251Y-118001720D01*
X130893172Y-119111538D02*
X130713216Y-118877118D01*
D15*
X134783002Y-124464872D02*
X134767656Y-124455919D01*
X133215103Y-113781287D02*
X133436050Y-113521007D01*
D14*
X138219173Y-120046172D02*
X138061711Y-120220806D01*
D15*
X129793263Y-117035916D02*
X129793263Y-117035916D01*
X131063012Y-115977621D02*
X131258374Y-115797538D01*
X135388944Y-112129578D02*
X135388944Y-112129578D01*
X134894649Y-124506854D02*
X134874272Y-124502371D01*
X134925014Y-111807314D02*
X134946999Y-111806852D01*
X132127733Y-121360202D02*
X131937527Y-121170903D01*
D14*
X135086788Y-113602736D02*
X135112102Y-113608593D01*
D15*
X141355873Y-118108980D02*
X141358123Y-118127485D01*
D14*
X130379001Y-118242181D02*
X130376294Y-118219665D01*
D15*
X134863083Y-124499277D02*
X134851249Y-124495532D01*
X135128859Y-111862587D02*
X135144560Y-111872643D01*
X134663808Y-111941272D02*
X134699454Y-111909905D01*
D14*
X135668441Y-113931359D02*
X135906272Y-114114185D01*
X134904886Y-122728194D02*
X134882671Y-122726366D01*
D15*
X138635707Y-120520464D02*
X138425071Y-120718384D01*
X134407987Y-112267677D02*
X134505208Y-112129578D01*
X135034035Y-111819007D02*
X135045869Y-111822790D01*
D14*
X134225625Y-122386643D02*
X133987773Y-122203817D01*
D15*
X141332612Y-118287802D02*
X141326697Y-118300761D01*
X134946999Y-111806852D02*
X134968986Y-111807314D01*
D14*
X135249583Y-122660101D02*
X135219470Y-122672917D01*
X139180786Y-117440885D02*
X139310174Y-117617848D01*
D15*
X141035197Y-117717057D02*
X141089519Y-117756370D01*
D14*
X134701361Y-113633832D02*
X134729040Y-113624056D01*
X138776480Y-116925924D02*
X139000836Y-117206464D01*
X135082850Y-122715266D02*
X135058178Y-122719988D01*
D15*
X135058296Y-111827284D02*
X135071303Y-111832553D01*
X135388944Y-124188424D02*
X135388944Y-124188424D01*
D14*
X138061711Y-120220806D02*
X137898535Y-120397051D01*
D15*
X134113665Y-112667827D02*
X134209551Y-112539840D01*
X134848139Y-111822790D02*
X134871195Y-111815875D01*
D14*
X134514168Y-113726499D02*
X134548174Y-113706579D01*
X134514168Y-122591503D02*
X134405035Y-122518063D01*
X139451441Y-118460197D02*
X139436977Y-118491827D01*
D15*
X136079501Y-123263076D02*
X135952124Y-123425580D01*
X134699454Y-111909905D02*
X134733277Y-111883840D01*
X129793263Y-119282086D02*
X129628120Y-119157782D01*
X130193816Y-119590054D02*
X130011696Y-119446702D01*
D14*
X130373106Y-118159001D02*
X130373432Y-118139951D01*
X133384072Y-121710246D02*
X133215110Y-121564996D01*
X134643220Y-113657901D02*
X134672774Y-113645085D01*
D15*
X134547262Y-124246108D02*
X134526388Y-124218212D01*
X140896831Y-117620135D02*
X141035197Y-117717057D01*
X141358098Y-118190536D02*
X141355821Y-118209061D01*
X141358123Y-118127485D02*
X141359442Y-118159001D01*
X135248736Y-111959097D02*
X135267631Y-111978432D01*
X137584172Y-114771934D02*
X137766417Y-114957800D01*
D14*
X139511327Y-118265805D02*
X139506605Y-118290514D01*
X130418489Y-117918290D02*
X130429743Y-117888519D01*
D15*
X141272672Y-118387083D02*
X141260113Y-118402859D01*
D14*
X135668441Y-122386643D02*
X135489067Y-122518063D01*
D15*
X128715042Y-118487445D02*
X128678781Y-118452487D01*
D14*
X131995566Y-115920951D02*
X132163712Y-115744514D01*
X139436977Y-118491827D02*
X139420780Y-118524351D01*
D15*
X139177164Y-116287450D02*
X139466011Y-116535445D01*
D14*
X136190727Y-114341842D02*
X136509972Y-114607756D01*
D15*
X134607164Y-111999338D02*
X134626450Y-111978432D01*
X134587491Y-112021876D02*
X134607164Y-111999338D01*
X134912246Y-124509478D02*
X134894649Y-124506854D01*
X135068311Y-124485939D02*
X135042785Y-124495612D01*
D14*
X139402763Y-118557745D02*
X139382843Y-118591985D01*
X130713216Y-117440885D02*
X130893172Y-117206464D01*
X134855877Y-113594343D02*
X134879344Y-113591636D01*
X130511157Y-118591985D02*
X130491236Y-118557745D01*
D15*
X138831051Y-120340381D02*
X138635707Y-120520464D01*
X139466011Y-119782557D02*
X139328583Y-119899222D01*
D14*
X135190313Y-122684170D02*
X135162092Y-122693947D01*
D15*
X128547975Y-118251457D02*
X128542083Y-118229379D01*
D14*
X131523899Y-116443438D02*
X131674891Y-116271831D01*
D15*
X135585517Y-123912558D02*
X135486114Y-124050325D01*
D14*
X139514998Y-118242181D02*
X139511327Y-118265805D01*
D15*
X135045869Y-111822790D02*
X135058296Y-111827284D01*
X134209551Y-112539840D02*
X134308547Y-112405444D01*
X137956624Y-115147099D02*
X138425071Y-115599618D01*
X140493531Y-117328932D02*
X140758334Y-117521421D01*
D14*
X134548174Y-113706579D02*
X134580979Y-113688562D01*
X135345852Y-122611424D02*
X135312755Y-122629440D01*
X136190727Y-121976160D02*
X135906272Y-122203817D01*
D15*
X134701173Y-124408635D02*
X134683363Y-124393637D01*
X128551621Y-118054962D02*
X128556070Y-118042860D01*
D14*
X131380163Y-119707402D02*
X131117539Y-119392079D01*
D15*
X134797806Y-124472802D02*
X134783002Y-124464872D01*
X134308547Y-112405444D02*
X134407987Y-112267677D01*
D14*
X130893172Y-117206464D02*
X131117539Y-116925924D01*
D15*
X131469030Y-115599618D02*
X131695306Y-115383069D01*
X141312419Y-118327919D02*
X141303955Y-118342111D01*
X135228910Y-124377371D02*
X135192839Y-124408770D01*
D14*
X139500748Y-118001720D02*
X139506605Y-118027488D01*
D15*
X141137252Y-118523863D02*
X141114109Y-118542609D01*
D14*
X130511157Y-118591985D02*
X130511157Y-118591985D01*
X134613410Y-122645637D02*
X134581347Y-122629440D01*
D15*
X141326697Y-118300761D02*
X141319983Y-118314135D01*
X141158898Y-118505473D02*
X141137252Y-118523863D01*
X141063132Y-118581154D02*
X141035197Y-118600945D01*
X136942334Y-122236471D02*
X136678973Y-122536716D01*
X132951769Y-114081532D02*
X133215103Y-113781287D01*
X136282419Y-123009812D02*
X136079501Y-123263076D01*
D14*
X130511157Y-117726017D02*
X130511157Y-117726017D01*
D15*
X137410264Y-114590437D02*
X137584172Y-114771934D01*
X133611604Y-123009812D02*
X133436050Y-122796995D01*
D14*
X130400329Y-118343087D02*
X130393251Y-118316282D01*
D15*
X134838788Y-124491074D02*
X134825715Y-124485841D01*
D14*
X136678943Y-114753006D02*
X136852174Y-114905354D01*
D15*
X133814499Y-113054926D02*
X133814499Y-113054926D01*
D14*
X134644480Y-122660101D02*
X134613410Y-122645637D01*
D15*
X134751782Y-124445881D02*
X134735400Y-124434695D01*
X141179321Y-117830726D02*
X141215603Y-117865708D01*
X135113669Y-111853612D02*
X135128859Y-111862587D01*
X128567119Y-118017388D02*
X128573820Y-118004027D01*
D14*
X139000836Y-119111538D02*
X138776480Y-119392079D01*
D15*
X134588020Y-124296475D02*
X134567811Y-124272175D01*
X134567445Y-112046107D02*
X134587491Y-112021876D01*
D14*
X130408713Y-118370905D02*
X130400329Y-118343087D01*
D15*
X128858954Y-118600945D02*
X128858954Y-118600945D01*
D14*
X133215110Y-121564996D02*
X133041892Y-121412648D01*
D15*
X135306610Y-112021876D02*
X135326668Y-112046107D01*
X128535908Y-118190536D02*
X128534558Y-118159001D01*
X134626450Y-111978432D02*
X134663808Y-111941272D01*
X141137427Y-117794270D02*
X141179321Y-117830726D01*
X130011696Y-116871300D02*
X130193816Y-116727948D01*
X141352026Y-118088687D02*
X141355873Y-118108980D01*
D14*
X139310174Y-117617848D02*
X139382843Y-117726017D01*
X134672774Y-113645085D02*
X134701361Y-113633832D01*
X135108380Y-122709409D02*
X135082850Y-122715266D01*
D15*
X140758334Y-118796581D02*
X140493531Y-118989070D01*
D14*
X136852174Y-114905354D02*
X137028186Y-115063979D01*
X134612642Y-113672365D02*
X134643220Y-113657901D01*
X137028186Y-115063979D02*
X137205500Y-115228060D01*
X134405035Y-113799939D02*
X134514168Y-113726499D01*
X134807219Y-113602736D02*
X134831855Y-113598015D01*
X132688602Y-115228060D02*
X133041892Y-114905354D01*
X134926323Y-122729228D02*
X134904886Y-122728194D01*
D15*
X132805147Y-122073704D02*
X132649057Y-121903756D01*
X139882305Y-119446702D02*
X139700191Y-119590054D01*
X140100736Y-117035916D02*
X140265945Y-117160220D01*
X141089419Y-118561707D02*
X141063132Y-118581154D01*
X141337938Y-118042860D02*
X141346182Y-118066637D01*
X130716872Y-120030552D02*
X130428007Y-119782557D01*
X129793263Y-119282086D02*
X129793263Y-119282086D01*
D14*
X130583826Y-118700155D02*
X130511157Y-118591985D01*
D15*
X136079501Y-113054926D02*
X136282419Y-113308190D01*
X137956624Y-121170903D02*
X137584172Y-121546068D01*
D14*
X134729040Y-113624056D02*
X134755870Y-113615671D01*
D15*
X128534558Y-118159001D02*
X128534821Y-118144169D01*
D14*
X136852174Y-121412648D02*
X136509972Y-121710246D01*
D15*
X135780353Y-112667827D02*
X135952124Y-112892422D01*
D14*
X130382672Y-118052197D02*
X130387394Y-118027488D01*
D15*
X136079501Y-123263076D02*
X136079501Y-123263076D01*
D14*
X139475510Y-118399712D02*
X139464257Y-118429484D01*
D15*
X138198819Y-120934933D02*
X137956624Y-121170903D01*
X128662290Y-117882635D02*
X128678460Y-117865708D01*
D14*
X139382843Y-118591985D02*
X139382843Y-118591985D01*
D15*
X135486114Y-112267677D02*
X135585517Y-112405444D01*
D14*
X139517705Y-118098337D02*
X139519533Y-118119722D01*
D15*
X128589826Y-117976072D02*
X128599231Y-117961487D01*
D14*
X135038125Y-113594343D02*
X135062149Y-113598015D01*
D15*
X128830952Y-117736888D02*
X128858954Y-117717057D01*
X135486114Y-124050325D02*
X135388944Y-124188424D01*
X135071303Y-111832553D02*
X135084877Y-111838656D01*
X131937527Y-115147099D02*
X132309973Y-114771934D01*
D14*
X134225625Y-113931359D02*
X134405035Y-113799939D01*
D15*
X128714760Y-117830726D02*
X128734990Y-117812680D01*
X133814499Y-123263076D02*
X133611604Y-123009812D01*
X134547040Y-112072094D02*
X134567445Y-112046107D01*
D14*
X131117539Y-116925924D02*
X131380163Y-116610600D01*
D15*
X128678781Y-118452487D02*
X128647710Y-118419022D01*
X133814499Y-123263076D02*
X133814499Y-123263076D01*
D14*
X135162092Y-122693947D02*
X135134788Y-122702331D01*
X130382672Y-118265805D02*
X130379001Y-118242181D01*
D15*
X128858954Y-117717057D02*
X129135750Y-117521421D01*
X128756674Y-117794270D02*
X128779863Y-117775498D01*
D14*
X138776480Y-119392079D02*
X138513873Y-119707402D01*
X135906272Y-122203817D02*
X135668441Y-122386643D01*
D15*
X130304240Y-116638237D02*
X130428007Y-116535445D01*
X141231501Y-118435565D02*
X141215347Y-118452487D01*
X128567364Y-118300761D02*
X128556270Y-118275262D01*
D14*
X135164987Y-113624056D02*
X135192676Y-113633832D01*
X139520893Y-118159001D02*
X139520893Y-118159001D01*
X139420780Y-118524351D02*
X139402763Y-118557745D01*
D15*
X132483873Y-121727565D02*
X132309973Y-121546068D01*
X128561219Y-118030334D02*
X128567119Y-118017388D01*
D14*
X135011329Y-122726366D02*
X134989113Y-122728194D01*
D15*
X129793263Y-117035916D02*
X130011696Y-116871300D01*
X137088969Y-114244299D02*
X137245071Y-114414246D01*
X137766417Y-114957800D02*
X137956624Y-115147099D01*
X135126357Y-124456045D02*
X135096213Y-124472916D01*
X141346059Y-118251457D02*
X141342244Y-118263146D01*
X128997277Y-118697867D02*
X128858954Y-118600945D01*
X139177164Y-120030552D02*
X139011429Y-120177341D01*
X135267631Y-111978432D02*
X135286927Y-111999338D01*
X130716872Y-116287450D02*
X130882620Y-116140661D01*
X141035197Y-117717057D02*
X141035197Y-117717057D01*
X141342244Y-118263146D02*
X141337778Y-118275262D01*
X128804730Y-118561707D02*
X128756892Y-118523863D01*
X128647373Y-117899182D02*
X128662290Y-117882635D01*
D14*
X139464257Y-118429484D02*
X139451441Y-118460197D01*
D15*
X135286178Y-124319171D02*
X135266689Y-124340134D01*
X134505208Y-124188424D02*
X134505208Y-124188424D01*
D14*
X132163712Y-115744514D02*
X132336036Y-115569300D01*
X130473220Y-117793651D02*
X130491236Y-117760257D01*
X134580979Y-113688562D02*
X134612642Y-113672365D01*
D15*
X135212204Y-111924895D02*
X135230255Y-111941272D01*
D14*
X134785631Y-122709409D02*
X134759230Y-122702331D01*
D15*
X135144560Y-111872643D02*
X135160759Y-111883840D01*
D14*
X130400329Y-117974915D02*
X130408713Y-117947097D01*
D15*
X141246675Y-117899182D02*
X141272939Y-117931119D01*
D14*
X131117539Y-119392079D02*
X130893172Y-119111538D01*
D15*
X129135750Y-118796581D02*
X128997277Y-118697867D01*
X135158610Y-124434829D02*
X135126357Y-124456045D01*
X134646434Y-124359392D02*
X134627348Y-124340021D01*
D14*
X139402763Y-117760257D02*
X139420780Y-117793651D01*
X136509972Y-114607756D02*
X136678943Y-114753006D01*
D15*
X128541976Y-118088687D02*
X128547822Y-118066637D01*
X135160759Y-111883840D02*
X135177442Y-111896241D01*
X141359172Y-118173838D02*
X141358098Y-118190536D01*
X128581372Y-117990254D02*
X128589826Y-117976072D01*
D14*
X135312755Y-122629440D02*
X135280671Y-122645637D01*
X137382636Y-115396774D02*
X137558115Y-115569300D01*
X139382843Y-117726017D02*
X139382843Y-117726017D01*
D15*
X136282419Y-113308190D02*
X136457997Y-113521007D01*
D14*
X139000836Y-117206464D02*
X139180786Y-117440885D01*
X137205500Y-115228060D02*
X137382636Y-115396774D01*
X130583826Y-117617848D02*
X130713216Y-117440885D01*
X135489067Y-122518063D02*
X135379984Y-122591503D01*
X134989113Y-122728194D02*
X134967676Y-122729228D01*
X139514998Y-118075821D02*
X139517705Y-118098337D01*
D15*
X128779863Y-117775498D02*
X128804605Y-117756370D01*
X141359442Y-118159001D02*
X141359442Y-118159001D01*
X134851249Y-124495532D02*
X134838788Y-124491074D01*
X141294795Y-117961487D02*
X141312646Y-117990254D01*
X141303955Y-118342111D02*
X141294543Y-118356705D01*
X141035197Y-118600945D02*
X141035197Y-118600945D01*
X128756892Y-118523863D02*
X128715042Y-118487445D01*
X135177442Y-111896241D02*
X135194595Y-111909905D01*
X131469030Y-120718384D02*
X131063012Y-120340381D01*
X134505208Y-112129578D02*
X134505208Y-112129578D01*
X141351941Y-118229379D02*
X141346059Y-118251457D01*
X135194595Y-111909905D02*
X135212204Y-111924895D01*
X134407987Y-124050325D02*
X134308547Y-123912558D01*
X135306044Y-124296562D02*
X135286178Y-124319171D01*
D14*
X134882671Y-122726366D02*
X134859657Y-122723659D01*
D15*
X134683363Y-124393637D02*
X134665111Y-124377243D01*
D14*
X135221275Y-113645085D02*
X135250843Y-113657901D01*
X135281439Y-113672365D02*
X135313122Y-113688562D01*
X135014656Y-113591636D02*
X135038125Y-113594343D01*
X132511489Y-120921228D02*
X132336036Y-120748702D01*
X135250843Y-113657901D02*
X135281439Y-113672365D01*
D15*
X128538193Y-118209061D02*
X128535908Y-118190536D01*
X134505208Y-112129578D02*
X134526289Y-112099897D01*
X140100736Y-119282086D02*
X139882305Y-119446702D01*
D14*
X139420780Y-117793651D02*
X139436977Y-117826175D01*
X139511327Y-118052197D02*
X139514998Y-118075821D01*
D15*
X141359442Y-118159001D02*
X141359172Y-118173838D01*
X134735400Y-124434695D02*
X134718524Y-124422301D01*
X129400544Y-117328932D02*
X129628120Y-117160220D01*
X134308547Y-123912558D02*
X134113665Y-123650175D01*
D14*
X132336036Y-115569300D02*
X132688602Y-115228060D01*
D15*
X128547822Y-118066637D02*
X128551621Y-118054962D01*
D14*
X134967676Y-122729228D02*
X134946999Y-122729554D01*
D15*
X136678973Y-122536716D02*
X136457997Y-122796995D01*
X128647710Y-118419022D02*
X128621431Y-118387083D01*
X133941878Y-123425580D02*
X133814499Y-123263076D01*
X128621098Y-117931119D02*
X128633659Y-117915345D01*
X134871195Y-111815875D02*
X134891766Y-111811318D01*
D14*
X130387394Y-118290514D02*
X130382672Y-118265805D01*
D15*
X128734990Y-117812680D02*
X128756674Y-117794270D01*
X141215603Y-117865708D02*
X141246675Y-117899182D01*
X135346840Y-124246158D02*
X135326270Y-124272245D01*
D14*
X139485286Y-117947097D02*
X139493670Y-117974915D01*
D15*
X134822709Y-111832553D02*
X134848139Y-111822790D01*
X137245071Y-121903756D02*
X136942334Y-122236471D01*
D14*
X134835826Y-122719988D02*
X134811157Y-122715266D01*
X133041892Y-121412648D02*
X132865896Y-121254023D01*
D15*
X137956624Y-121170903D02*
X137956624Y-121170903D01*
X139011429Y-120177341D02*
X138831051Y-120340381D01*
X141312646Y-117990254D02*
X141326893Y-118017388D01*
X134909742Y-111808628D02*
X134925014Y-111807314D01*
X141337778Y-118275262D02*
X141332612Y-118287802D01*
X128633659Y-117915345D02*
X128647373Y-117899182D01*
X140493531Y-118989070D02*
X140265945Y-119157782D01*
X141246406Y-118419022D02*
X141231501Y-118435565D01*
D14*
X134946999Y-122729554D02*
X134946999Y-122729554D01*
X134755870Y-113615671D02*
X134781911Y-113608593D01*
X137205500Y-121089942D02*
X136852174Y-121412648D01*
X134759230Y-122702331D02*
X134731934Y-122693947D01*
X139464257Y-117888519D02*
X139475510Y-117918290D01*
X139520893Y-118159001D02*
X139520567Y-118178051D01*
D15*
X128678460Y-117865708D02*
X128695933Y-117848403D01*
D14*
X135192676Y-113633832D02*
X135221275Y-113645085D01*
D15*
X134946999Y-111806852D02*
X134946999Y-111806852D01*
D14*
X137558115Y-115569300D02*
X137558115Y-115569300D01*
D15*
X135388944Y-124188424D02*
X135367736Y-124218239D01*
X128858954Y-118600945D02*
X128804730Y-118561707D01*
D14*
X134946999Y-122729554D02*
X134946999Y-122729554D01*
D15*
X131063012Y-120340381D02*
X130716872Y-120030552D01*
D14*
X134946999Y-113588449D02*
X134946999Y-113588449D01*
D15*
X135192839Y-124408770D02*
X135158610Y-124434829D01*
X136079501Y-113054926D02*
X136079501Y-113054926D01*
X135019769Y-124502432D02*
X134999395Y-124506897D01*
D14*
X138513873Y-119707402D02*
X138370150Y-119874565D01*
D15*
X128534821Y-118144169D02*
X128535877Y-118127485D01*
D14*
X138513873Y-116610600D02*
X138776480Y-116925924D01*
X135219470Y-122672917D02*
X135190313Y-122684170D01*
D15*
X134967111Y-124510750D02*
X134946999Y-124511149D01*
D14*
X139485286Y-118370905D02*
X139475510Y-118399712D01*
X135313122Y-113688562D02*
X135345951Y-113706579D01*
X135280671Y-122645637D02*
X135249583Y-122660101D01*
X130457023Y-117826175D02*
X130473220Y-117793651D01*
X134731934Y-122693947D02*
X134703723Y-122684170D01*
D15*
X132309973Y-121546068D02*
X132127733Y-121360202D01*
X135347085Y-112072094D02*
X135367848Y-112099897D01*
D14*
X130457023Y-118491827D02*
X130442559Y-118460197D01*
D15*
X139700191Y-116727948D02*
X139882305Y-116871300D01*
D14*
X135489067Y-113799939D02*
X135668441Y-113931359D01*
D15*
X135084877Y-111838656D02*
X135099004Y-111845655D01*
X135780353Y-123650175D02*
X135684485Y-123778162D01*
X128599546Y-118356705D02*
X128581657Y-118327919D01*
X137956624Y-115147099D02*
X137956624Y-115147099D01*
X133941878Y-112892422D02*
X134113665Y-112667827D01*
X140758334Y-117521421D02*
X140896831Y-117620135D01*
X136457997Y-113521007D02*
X136678973Y-113781287D01*
X130565443Y-116418780D02*
X130716872Y-116287450D01*
X129135750Y-117521421D02*
X129400544Y-117328932D01*
D14*
X134831855Y-113598015D02*
X134855877Y-113594343D01*
D15*
X134795015Y-111845655D02*
X134822709Y-111832553D01*
D14*
X138370150Y-119874565D02*
X138219173Y-120046172D01*
D15*
X128556270Y-118275262D02*
X128547975Y-118251457D01*
D14*
X139180786Y-118877118D02*
X139000836Y-119111538D01*
D15*
X128556070Y-118042860D02*
X128561219Y-118030334D01*
X134718524Y-124422301D02*
X134701173Y-124408635D01*
D14*
X135138148Y-113615671D02*
X135164987Y-113624056D01*
D15*
X133814499Y-113054926D02*
X133941878Y-112892422D01*
X134526289Y-112099897D02*
X134547040Y-112072094D01*
D14*
X139475510Y-117918290D02*
X139485286Y-117947097D01*
D15*
X132309973Y-114771934D02*
X132649057Y-114414246D01*
X131258374Y-115797538D02*
X131469030Y-115599618D01*
X134825715Y-124485841D02*
X134812049Y-124479771D01*
D14*
X131674891Y-116271831D02*
X131832370Y-116097196D01*
X139506605Y-118290514D02*
X139500748Y-118316282D01*
D15*
X139882305Y-116871300D02*
X140100736Y-117035916D01*
X136457997Y-122796995D02*
X136282419Y-123009812D01*
D14*
X135112102Y-113608593D02*
X135138148Y-113615671D01*
D15*
X134665111Y-124377243D02*
X134646434Y-124359392D01*
X134946999Y-124511149D02*
X134926926Y-124510737D01*
D14*
X131380163Y-116610600D02*
X131523899Y-116443438D01*
X134859657Y-122723659D02*
X134835826Y-122719988D01*
D15*
X128609638Y-117946501D02*
X128621098Y-117931119D01*
X135266689Y-124340134D02*
X135228910Y-124377371D01*
D14*
X139519533Y-118198280D02*
X139517705Y-118219665D01*
X130713216Y-118877118D02*
X130583826Y-118700155D01*
D15*
X134627348Y-124340021D02*
X134607872Y-124319070D01*
X128535877Y-118127485D02*
X128538128Y-118108980D01*
X129400544Y-118989070D02*
X129135750Y-118796581D01*
D14*
X130429743Y-118429484D02*
X130418489Y-118399712D01*
D15*
X135099004Y-111845655D02*
X135113669Y-111853612D01*
X134999395Y-124506897D02*
X134981798Y-124509504D01*
D14*
X138219173Y-116271831D02*
X138513873Y-116610600D01*
X130473220Y-118524351D02*
X130457023Y-118491827D01*
X134781911Y-113608593D02*
X134807219Y-113602736D01*
D15*
X135388944Y-112129578D02*
X135486114Y-112267677D01*
D14*
X130408713Y-117947097D02*
X130418489Y-117918290D01*
D15*
X141272939Y-117931119D02*
X141294795Y-117961487D01*
D14*
X133384072Y-114607756D02*
X133703311Y-114341842D01*
X134946999Y-122729554D02*
X134926323Y-122729228D01*
X132336036Y-120748702D02*
X132336036Y-120748702D01*
D15*
X128599231Y-117961487D02*
X128609638Y-117946501D01*
X139589772Y-119679765D02*
X139466011Y-119782557D01*
X141035197Y-118600945D02*
X140758334Y-118796581D01*
X134981798Y-124509504D02*
X134967111Y-124510750D01*
D14*
X139382843Y-118591985D02*
X139310174Y-118700155D01*
D15*
X128695933Y-117848403D02*
X128714760Y-117830726D01*
X135042785Y-124495612D02*
X135019769Y-124502432D01*
X141319983Y-118314135D02*
X141312419Y-118327919D01*
X139328583Y-119899222D02*
X139177164Y-120030552D01*
X137245071Y-114414246D02*
X137410264Y-114590437D01*
D14*
X134548273Y-122611424D02*
X134514168Y-122591503D01*
X131674891Y-120046172D02*
X131380163Y-119707402D01*
D15*
X128538128Y-118108980D02*
X128541976Y-118088687D01*
D14*
X134991685Y-113589808D02*
X135014656Y-113591636D01*
X134969153Y-113588774D02*
X134991685Y-113589808D01*
D15*
X128621431Y-118387083D02*
X128599546Y-118356705D01*
X139700191Y-119590054D02*
X139589772Y-119679765D01*
X141294543Y-118356705D02*
X141284132Y-118371697D01*
X134767656Y-124455919D02*
X134751782Y-124445881D01*
D14*
X134703723Y-122684170D02*
X134674578Y-122672917D01*
X130374466Y-118119722D02*
X130376294Y-118098337D01*
D15*
X135230255Y-111941272D02*
X135248736Y-111959097D01*
X136942334Y-114081532D02*
X137088969Y-114244299D01*
D14*
X139520567Y-118178051D02*
X139519533Y-118198280D01*
D15*
X134946999Y-124511149D02*
X134946999Y-124511149D01*
X138425071Y-115599618D02*
X138831051Y-115977621D01*
D14*
X132688602Y-121089942D02*
X132511489Y-120921228D01*
X139382843Y-117726017D02*
X139402763Y-117760257D01*
D15*
X141260113Y-118402859D02*
X141246406Y-118419022D01*
X131695306Y-115383069D02*
X131937527Y-115147099D01*
D14*
X130393251Y-118001720D02*
X130400329Y-117974915D01*
X130373106Y-118159001D02*
X130373106Y-118159001D01*
D15*
X134567811Y-124272175D02*
X134547262Y-124246108D01*
D14*
X137558115Y-120748702D02*
X137558115Y-120748702D01*
X130373432Y-118139951D02*
X130374466Y-118119722D01*
X134879344Y-113591636D02*
X134902314Y-113589808D01*
D15*
X128804605Y-117756370D02*
X128830952Y-117736888D01*
D14*
X137898535Y-120397051D02*
X137730413Y-120573488D01*
X139310174Y-118700155D02*
X139180786Y-118877118D01*
D15*
X140100736Y-119282086D02*
X140100736Y-119282086D01*
D14*
X133987773Y-114114185D02*
X134225625Y-113931359D01*
D15*
X140265945Y-119157782D02*
X140100736Y-119282086D01*
X134926926Y-124510737D02*
X134912246Y-124509478D01*
D14*
X131832370Y-116097196D02*
X131995566Y-115920951D01*
X133703311Y-114341842D02*
X133987773Y-114114185D01*
D15*
X134505208Y-124188424D02*
X134407987Y-124050325D01*
X134874272Y-124502371D02*
X134863083Y-124499277D01*
X130428007Y-119782557D02*
X130193816Y-119590054D01*
D14*
X139517705Y-118219665D02*
X139514998Y-118242181D01*
D15*
X135952124Y-123425580D02*
X135780353Y-123650175D01*
X135326270Y-124272245D02*
X135306044Y-124296562D01*
X134946999Y-124511149D02*
X134946999Y-124511149D01*
D14*
X134946999Y-113588449D02*
X134969153Y-113588774D01*
G36*
X134548657Y-119271253D02*
G01*
X134677847Y-119275650D01*
X134810283Y-119278709D01*
X134945936Y-119280415D01*
X135083802Y-119280228D01*
X135217254Y-119277663D01*
X135346377Y-119272791D01*
X135471258Y-119265684D01*
X135471258Y-122642227D01*
X134422741Y-122642227D01*
X134422741Y-119265532D01*
X134548657Y-119271253D01*
G37*
G36*
X134422928Y-115743261D02*
G01*
X134423482Y-115735788D01*
X134424401Y-115728378D01*
X134425679Y-115721045D01*
X134427311Y-115713799D01*
X134429293Y-115706654D01*
X134431618Y-115699622D01*
X134434284Y-115692714D01*
X134437284Y-115685943D01*
X134440613Y-115679322D01*
X134444267Y-115672862D01*
X134448242Y-115666576D01*
X134452531Y-115660475D01*
X134457130Y-115654573D01*
X134462035Y-115648882D01*
X134467240Y-115643413D01*
X134472684Y-115638208D01*
X134478357Y-115633303D01*
X134484246Y-115628704D01*
X134490338Y-115624415D01*
X134496621Y-115620441D01*
X134503082Y-115616786D01*
X134509707Y-115613457D01*
X134516484Y-115610457D01*
X134523400Y-115607792D01*
X134530441Y-115605466D01*
X134537596Y-115603484D01*
X134544851Y-115601852D01*
X134552192Y-115600574D01*
X134559609Y-115599656D01*
X134567086Y-115599101D01*
X134574612Y-115598915D01*
X135319387Y-115598915D01*
X135326938Y-115599101D01*
X135334434Y-115599656D01*
X135341863Y-115600574D01*
X135349213Y-115601852D01*
X135356471Y-115603484D01*
X135363625Y-115605466D01*
X135370663Y-115607792D01*
X135377572Y-115610457D01*
X135384341Y-115613457D01*
X135390957Y-115616786D01*
X135397409Y-115620441D01*
X135403682Y-115624415D01*
X135409767Y-115628704D01*
X135415649Y-115633303D01*
X135421317Y-115638208D01*
X135426760Y-115643413D01*
X135431965Y-115648882D01*
X135436869Y-115654573D01*
X135441469Y-115660475D01*
X135445758Y-115666576D01*
X135449732Y-115672862D01*
X135453386Y-115679322D01*
X135456716Y-115685943D01*
X135459716Y-115692714D01*
X135462381Y-115699622D01*
X135464706Y-115706654D01*
X135466688Y-115713799D01*
X135468320Y-115721045D01*
X135469598Y-115728378D01*
X135470517Y-115735788D01*
X135471071Y-115743261D01*
X135471258Y-115750785D01*
X135471258Y-118694346D01*
X135348828Y-118702390D01*
X135220690Y-118708242D01*
X135086771Y-118711816D01*
X134946999Y-118713026D01*
X134874995Y-118712659D01*
X134804879Y-118711574D01*
X134736632Y-118709790D01*
X134670234Y-118707331D01*
X134605666Y-118704216D01*
X134542907Y-118700468D01*
X134481939Y-118696108D01*
X134422741Y-118691157D01*
X134422741Y-116784267D01*
X134552895Y-116784267D01*
X134731343Y-116784267D01*
X134857852Y-116784267D01*
X135036148Y-116784267D01*
X135162657Y-116784267D01*
X135341104Y-116784267D01*
X135341104Y-116055742D01*
X135340990Y-116051200D01*
X135340649Y-116046719D01*
X135340088Y-116042304D01*
X135339313Y-116037960D01*
X135338328Y-116033694D01*
X135337140Y-116029510D01*
X135335754Y-116025414D01*
X135334175Y-116021412D01*
X135332410Y-116017509D01*
X135330463Y-116013710D01*
X135328341Y-116010021D01*
X135326048Y-116006448D01*
X135323591Y-116002995D01*
X135320974Y-115999669D01*
X135318204Y-115996475D01*
X135315286Y-115993418D01*
X135312226Y-115990504D01*
X135309029Y-115987738D01*
X135305701Y-115985126D01*
X135302247Y-115982673D01*
X135298673Y-115980385D01*
X135294984Y-115978268D01*
X135291186Y-115976325D01*
X135287285Y-115974565D01*
X135283286Y-115972990D01*
X135279195Y-115971608D01*
X135275017Y-115970424D01*
X135270757Y-115969442D01*
X135266422Y-115968669D01*
X135262017Y-115968110D01*
X135257548Y-115967771D01*
X135253019Y-115967657D01*
X135250741Y-115967657D01*
X135246213Y-115967771D01*
X135241743Y-115968110D01*
X135237338Y-115968669D01*
X135233003Y-115969442D01*
X135228744Y-115970424D01*
X135224566Y-115971608D01*
X135220475Y-115972990D01*
X135216476Y-115974565D01*
X135212574Y-115976325D01*
X135208777Y-115978268D01*
X135205088Y-115980385D01*
X135201514Y-115982673D01*
X135198060Y-115985126D01*
X135194732Y-115987738D01*
X135191535Y-115990504D01*
X135188474Y-115993418D01*
X135185557Y-115996475D01*
X135182787Y-115999669D01*
X135180170Y-116002995D01*
X135177713Y-116006448D01*
X135175420Y-116010021D01*
X135173298Y-116013710D01*
X135171351Y-116017509D01*
X135169586Y-116021412D01*
X135168007Y-116025414D01*
X135166621Y-116029510D01*
X135165433Y-116033694D01*
X135164448Y-116037960D01*
X135163673Y-116042304D01*
X135163112Y-116046719D01*
X135162772Y-116051200D01*
X135162657Y-116055742D01*
X135162657Y-116784267D01*
X135036148Y-116784267D01*
X135036148Y-116055742D01*
X135036034Y-116051200D01*
X135035695Y-116046719D01*
X135035136Y-116042304D01*
X135034363Y-116037960D01*
X135033381Y-116033694D01*
X135032197Y-116029510D01*
X135030815Y-116025414D01*
X135029240Y-116021412D01*
X135027480Y-116017509D01*
X135025537Y-116013710D01*
X135023420Y-116010021D01*
X135021132Y-116006448D01*
X135018679Y-116002995D01*
X135016067Y-115999669D01*
X135013301Y-115996475D01*
X135010387Y-115993418D01*
X135007330Y-115990504D01*
X135004136Y-115987738D01*
X135000810Y-115985126D01*
X134997357Y-115982673D01*
X134993784Y-115980385D01*
X134990095Y-115978268D01*
X134986296Y-115976325D01*
X134982393Y-115974565D01*
X134978390Y-115972990D01*
X134974295Y-115971608D01*
X134970111Y-115970424D01*
X134965844Y-115969442D01*
X134961501Y-115968669D01*
X134957086Y-115968110D01*
X134952604Y-115967771D01*
X134948063Y-115967657D01*
X134945936Y-115967657D01*
X134941408Y-115967771D01*
X134936938Y-115968110D01*
X134932533Y-115968669D01*
X134928198Y-115969442D01*
X134923939Y-115970424D01*
X134919761Y-115971608D01*
X134915670Y-115972990D01*
X134911671Y-115974565D01*
X134907770Y-115976325D01*
X134903972Y-115978268D01*
X134900283Y-115980385D01*
X134896709Y-115982673D01*
X134893255Y-115985126D01*
X134889927Y-115987738D01*
X134886730Y-115990504D01*
X134883670Y-115993418D01*
X134880752Y-115996475D01*
X134877982Y-115999669D01*
X134875366Y-116002995D01*
X134872908Y-116006448D01*
X134870616Y-116010021D01*
X134868493Y-116013710D01*
X134866546Y-116017509D01*
X134864781Y-116021412D01*
X134863202Y-116025414D01*
X134861816Y-116029510D01*
X134860628Y-116033694D01*
X134859643Y-116037960D01*
X134858868Y-116042304D01*
X134858307Y-116046719D01*
X134857966Y-116051200D01*
X134857852Y-116055742D01*
X134857852Y-116784267D01*
X134731343Y-116784267D01*
X134731343Y-116055742D01*
X134731229Y-116051200D01*
X134730888Y-116046719D01*
X134730327Y-116042304D01*
X134729552Y-116037960D01*
X134728567Y-116033694D01*
X134727379Y-116029510D01*
X134725993Y-116025414D01*
X134724414Y-116021412D01*
X134722649Y-116017509D01*
X134720702Y-116013710D01*
X134718579Y-116010021D01*
X134716287Y-116006448D01*
X134713829Y-116002995D01*
X134711213Y-115999669D01*
X134708443Y-115996475D01*
X134705525Y-115993418D01*
X134702465Y-115990504D01*
X134699268Y-115987738D01*
X134695940Y-115985126D01*
X134692486Y-115982673D01*
X134688911Y-115980385D01*
X134685223Y-115978268D01*
X134681425Y-115976325D01*
X134677524Y-115974565D01*
X134673525Y-115972990D01*
X134669433Y-115971608D01*
X134665255Y-115970424D01*
X134660996Y-115969442D01*
X134656661Y-115968669D01*
X134652256Y-115968110D01*
X134647787Y-115967771D01*
X134643258Y-115967657D01*
X134640980Y-115967657D01*
X134636452Y-115967771D01*
X134631982Y-115968110D01*
X134627577Y-115968669D01*
X134623242Y-115969442D01*
X134618983Y-115970424D01*
X134614805Y-115971608D01*
X134610713Y-115972990D01*
X134606714Y-115974565D01*
X134602813Y-115976325D01*
X134599015Y-115978268D01*
X134595327Y-115980385D01*
X134591752Y-115982673D01*
X134588298Y-115985126D01*
X134584970Y-115987738D01*
X134581773Y-115990504D01*
X134578713Y-115993418D01*
X134575795Y-115996475D01*
X134573025Y-115999669D01*
X134570409Y-116002995D01*
X134567951Y-116006448D01*
X134565658Y-116010021D01*
X134563536Y-116013710D01*
X134561589Y-116017509D01*
X134559824Y-116021412D01*
X134558245Y-116025414D01*
X134556859Y-116029510D01*
X134555671Y-116033694D01*
X134554686Y-116037960D01*
X134553911Y-116042304D01*
X134553350Y-116046719D01*
X134553009Y-116051200D01*
X134552895Y-116055742D01*
X134552895Y-116784267D01*
X134422741Y-116784267D01*
X134422741Y-115750785D01*
X134422928Y-115743261D01*
G37*
G36*
X134141628Y-117544076D02*
G01*
X134079743Y-117555559D01*
X134010356Y-117570561D01*
X133968375Y-117580567D01*
X133922422Y-117592314D01*
X133873160Y-117605857D01*
X133821254Y-117621250D01*
X133767367Y-117638547D01*
X133712164Y-117657801D01*
X133656309Y-117679068D01*
X133600465Y-117702400D01*
X133545298Y-117727853D01*
X133491470Y-117755480D01*
X133449261Y-117778885D01*
X133408258Y-117802751D01*
X133368671Y-117827096D01*
X133330708Y-117851937D01*
X133294579Y-117877291D01*
X133260493Y-117903174D01*
X133228660Y-117929603D01*
X133199290Y-117956595D01*
X133172590Y-117984168D01*
X133148771Y-118012338D01*
X133128043Y-118041122D01*
X133110614Y-118070537D01*
X133103202Y-118085486D01*
X133096693Y-118100599D01*
X133091114Y-118115879D01*
X133086491Y-118131326D01*
X133082849Y-118146944D01*
X133080216Y-118162735D01*
X133078617Y-118178700D01*
X133078078Y-118194843D01*
X133079042Y-118211997D01*
X133082046Y-118230899D01*
X133087257Y-118251397D01*
X133094840Y-118273342D01*
X133104963Y-118296583D01*
X133117792Y-118320969D01*
X133133494Y-118346352D01*
X133152236Y-118372579D01*
X133174183Y-118399501D01*
X133199503Y-118426968D01*
X133228362Y-118454830D01*
X133260927Y-118482936D01*
X133297364Y-118511135D01*
X133337840Y-118539278D01*
X133382522Y-118567215D01*
X133431576Y-118594794D01*
X133485169Y-118621867D01*
X133543467Y-118648281D01*
X133606637Y-118673888D01*
X133674845Y-118698537D01*
X133748259Y-118722078D01*
X133827045Y-118744360D01*
X133911369Y-118765233D01*
X134001397Y-118784547D01*
X134097298Y-118802152D01*
X134199236Y-118817897D01*
X134307380Y-118831632D01*
X134421895Y-118843206D01*
X134542947Y-118852470D01*
X134670705Y-118859274D01*
X134805333Y-118863466D01*
X134946999Y-118864896D01*
X135225805Y-118859942D01*
X135481658Y-118845665D01*
X135715248Y-118822944D01*
X135927259Y-118792658D01*
X136118381Y-118755686D01*
X136289298Y-118712905D01*
X136440699Y-118665196D01*
X136573270Y-118613436D01*
X136687699Y-118558505D01*
X136784672Y-118501282D01*
X136864877Y-118442644D01*
X136928999Y-118383471D01*
X136977727Y-118324641D01*
X137011748Y-118267034D01*
X137031747Y-118211528D01*
X137038413Y-118159001D01*
X137036936Y-118131399D01*
X137032413Y-118104336D01*
X137025047Y-118077833D01*
X137015041Y-118051912D01*
X137002597Y-118026596D01*
X136987918Y-118001908D01*
X136971207Y-117977868D01*
X136952668Y-117954500D01*
X136932502Y-117931825D01*
X136910912Y-117909866D01*
X136888102Y-117888644D01*
X136864275Y-117868182D01*
X136814377Y-117829627D01*
X136762843Y-117794378D01*
X136711295Y-117762612D01*
X136661355Y-117734506D01*
X136614646Y-117710237D01*
X136572791Y-117689984D01*
X136510133Y-117662230D01*
X136486362Y-117652664D01*
X136120809Y-117744090D01*
X135921403Y-117197052D01*
X137134699Y-117487732D01*
X136869836Y-117555162D01*
X136894243Y-117567317D01*
X136958588Y-117602228D01*
X137001578Y-117627488D01*
X137049562Y-117657563D01*
X137100875Y-117692161D01*
X137153854Y-117730991D01*
X137206834Y-117773761D01*
X137258152Y-117820180D01*
X137282668Y-117844667D01*
X137306145Y-117869956D01*
X137328374Y-117896013D01*
X137349148Y-117922799D01*
X137368258Y-117950279D01*
X137385497Y-117978416D01*
X137400657Y-118007174D01*
X137413529Y-118036516D01*
X137423906Y-118066407D01*
X137431579Y-118096809D01*
X137436342Y-118127685D01*
X137437985Y-118159001D01*
X137436112Y-118191939D01*
X137430392Y-118226452D01*
X137420722Y-118262365D01*
X137406995Y-118299504D01*
X137389105Y-118337695D01*
X137366948Y-118376762D01*
X137340417Y-118416532D01*
X137309407Y-118456829D01*
X137273813Y-118497480D01*
X137233528Y-118538310D01*
X137188448Y-118579143D01*
X137138466Y-118619807D01*
X137083477Y-118660126D01*
X137023377Y-118699925D01*
X136958058Y-118739030D01*
X136887415Y-118777267D01*
X136811344Y-118814461D01*
X136729738Y-118850438D01*
X136642491Y-118885023D01*
X136549499Y-118918041D01*
X136450656Y-118949318D01*
X136345855Y-118978680D01*
X136234993Y-119005951D01*
X136117962Y-119030958D01*
X135994657Y-119053526D01*
X135864974Y-119073480D01*
X135728806Y-119090646D01*
X135586047Y-119104849D01*
X135436593Y-119115915D01*
X135280337Y-119123669D01*
X135117175Y-119127937D01*
X134946999Y-119128545D01*
X134610247Y-119121644D01*
X134294833Y-119106181D01*
X134000812Y-119082324D01*
X133728236Y-119050243D01*
X133477160Y-119010106D01*
X133247636Y-118962081D01*
X133039719Y-118906338D01*
X132853460Y-118843046D01*
X132688915Y-118772374D01*
X132546136Y-118694489D01*
X132425176Y-118609562D01*
X132326089Y-118517760D01*
X132248929Y-118419254D01*
X132218587Y-118367539D01*
X132193748Y-118314211D01*
X132174416Y-118259291D01*
X132160600Y-118202801D01*
X132152305Y-118144761D01*
X132149539Y-118085192D01*
X132153617Y-118025796D01*
X132165495Y-117968261D01*
X132184642Y-117912593D01*
X132210524Y-117858795D01*
X132242611Y-117806874D01*
X132280369Y-117756833D01*
X132323267Y-117708678D01*
X132370772Y-117662412D01*
X132422353Y-117618041D01*
X132477476Y-117575569D01*
X132535610Y-117535001D01*
X132596223Y-117496341D01*
X132722755Y-117424767D01*
X132852815Y-117360882D01*
X132982145Y-117304725D01*
X133106489Y-117256333D01*
X133221587Y-117215743D01*
X133323183Y-117182994D01*
X133509391Y-117131139D01*
X134141628Y-117544076D01*
G37*
D12*
%TO.C,SW1*%
X128940000Y-102929000D02*
X140540000Y-102929000D01*
X128940000Y-106929000D02*
X128940000Y-102929000D01*
X140540000Y-102929000D02*
X140540000Y-106929000D01*
X140540000Y-106929000D02*
X128940000Y-106929000D01*
%TD*%
%LPC*%
D16*
%TO.C,C1*%
X114407000Y-96142000D03*
D17*
X116407000Y-96142000D03*
%TD*%
D16*
%TO.C,C2*%
X121033000Y-96022000D03*
D17*
X123033000Y-96022000D03*
%TD*%
D18*
%TO.C,D1*%
X95414000Y-97266000D03*
D19*
X97954000Y-97266000D03*
%TD*%
D18*
%TO.C,D2*%
X175787000Y-97168000D03*
D19*
X173247000Y-97168000D03*
%TD*%
D18*
%TO.C,D3*%
X152951000Y-137353000D03*
D19*
X150411000Y-137353000D03*
%TD*%
D18*
%TO.C,D4*%
X133816000Y-63669000D03*
D19*
X136356000Y-63669000D03*
%TD*%
D18*
%TO.C,D5*%
X100160000Y-120276000D03*
D19*
X102700000Y-120276000D03*
%TD*%
D18*
%TO.C,D6*%
X171161000Y-119783000D03*
D19*
X168621000Y-119783000D03*
%TD*%
D18*
%TO.C,D7*%
X165174000Y-74945000D03*
D19*
X162634000Y-74945000D03*
%TD*%
D18*
%TO.C,D8*%
X106713000Y-73949000D03*
D19*
X109253000Y-73949000D03*
%TD*%
D18*
%TO.C,D9*%
X120252000Y-137163000D03*
D19*
X122792000Y-137163000D03*
%TD*%
D17*
%TO.C,R1*%
X129232000Y-80495000D03*
D20*
X129232000Y-88115000D03*
%TD*%
D17*
%TO.C,RV1*%
X133912000Y-97796000D03*
X131412000Y-95296000D03*
X128912000Y-97796000D03*
%TD*%
D21*
%TO.C,U1*%
X113998000Y-81354000D03*
X113998000Y-83894000D03*
X113998000Y-86434000D03*
X113998000Y-88974000D03*
X121618000Y-88974000D03*
X121618000Y-86434000D03*
X121618000Y-83894000D03*
X121618000Y-81354000D03*
%TD*%
%TO.C,U2*%
X145288000Y-79826000D03*
X145288000Y-82366000D03*
X145288000Y-84906000D03*
X145288000Y-87446000D03*
X145288000Y-89986000D03*
X145288000Y-92526000D03*
X145288000Y-95066000D03*
X145288000Y-97606000D03*
X152908000Y-97606000D03*
X152908000Y-95066000D03*
X152908000Y-92526000D03*
X152908000Y-89986000D03*
X152908000Y-87446000D03*
X152908000Y-84906000D03*
X152908000Y-82366000D03*
X152908000Y-79826000D03*
%TD*%
D22*
%TO.C,R9*%
X115179500Y-73967000D03*
X117004500Y-73967000D03*
%TD*%
D23*
%TO.C,R7*%
X163887500Y-119760000D03*
X162062500Y-119760000D03*
%TD*%
%TO.C,R3*%
X168975500Y-97168000D03*
X167150500Y-97168000D03*
%TD*%
%TO.C,R8*%
X156856500Y-74942000D03*
X155031500Y-74942000D03*
%TD*%
D22*
%TO.C,R5*%
X141729500Y-63669000D03*
X143554500Y-63669000D03*
%TD*%
%TO.C,R2*%
X106024500Y-91659000D03*
X107849500Y-91659000D03*
%TD*%
%TO.C,R6*%
X107569500Y-120272000D03*
X109394500Y-120272000D03*
%TD*%
%TO.C,R10*%
X129424500Y-137166000D03*
X131249500Y-137166000D03*
%TD*%
D23*
%TO.C,R4*%
X145572000Y-137341000D03*
X143747000Y-137341000D03*
%TD*%
D24*
%TO.C,SW1*%
X132240000Y-104929000D03*
X134740000Y-104929000D03*
X137240000Y-104929000D03*
%TD*%
M02*
