%TF.GenerationSoftware,KiCad,Pcbnew,(6.0.7)*%
%TF.CreationDate,2022-10-09T20:49:50-07:00*%
%TF.ProjectId,IEEE_PCB_1,49454545-5f50-4434-925f-312e6b696361,1*%
%TF.SameCoordinates,Original*%
%TF.FileFunction,Copper,L1,Top*%
%TF.FilePolarity,Positive*%
%FSLAX46Y46*%
G04 Gerber Fmt 4.6, Leading zero omitted, Abs format (unit mm)*
G04 Created by KiCad (PCBNEW (6.0.7)) date 2022-10-09 20:49:50*
%MOMM*%
%LPD*%
G01*
G04 APERTURE LIST*
G04 Aperture macros list*
%AMRoundRect*
0 Rectangle with rounded corners*
0 $1 Rounding radius*
0 $2 $3 $4 $5 $6 $7 $8 $9 X,Y pos of 4 corners*
0 Add a 4 corners polygon primitive as box body*
4,1,4,$2,$3,$4,$5,$6,$7,$8,$9,$2,$3,0*
0 Add four circle primitives for the rounded corners*
1,1,$1+$1,$2,$3*
1,1,$1+$1,$4,$5*
1,1,$1+$1,$6,$7*
1,1,$1+$1,$8,$9*
0 Add four rect primitives between the rounded corners*
20,1,$1+$1,$2,$3,$4,$5,0*
20,1,$1+$1,$4,$5,$6,$7,0*
20,1,$1+$1,$6,$7,$8,$9,0*
20,1,$1+$1,$8,$9,$2,$3,0*%
G04 Aperture macros list end*
%TA.AperFunction,ComponentPad*%
%ADD10R,1.600000X1.600000*%
%TD*%
%TA.AperFunction,ComponentPad*%
%ADD11C,1.600000*%
%TD*%
%TA.AperFunction,ComponentPad*%
%ADD12R,1.800000X1.800000*%
%TD*%
%TA.AperFunction,ComponentPad*%
%ADD13C,1.800000*%
%TD*%
%TA.AperFunction,ComponentPad*%
%ADD14O,1.600000X1.600000*%
%TD*%
%TA.AperFunction,ComponentPad*%
%ADD15C,1.500000*%
%TD*%
%TA.AperFunction,SMDPad,CuDef*%
%ADD16RoundRect,0.237500X-0.250000X-0.237500X0.250000X-0.237500X0.250000X0.237500X-0.250000X0.237500X0*%
%TD*%
%TA.AperFunction,SMDPad,CuDef*%
%ADD17RoundRect,0.237500X0.250000X0.237500X-0.250000X0.237500X-0.250000X-0.237500X0.250000X-0.237500X0*%
%TD*%
%TA.AperFunction,ComponentPad*%
%ADD18C,2.000000*%
%TD*%
%TA.AperFunction,ViaPad*%
%ADD19C,0.800000*%
%TD*%
%TA.AperFunction,Conductor*%
%ADD20C,0.250000*%
%TD*%
G04 APERTURE END LIST*
D10*
%TO.P,C1,1*%
%TO.N,Net-(C1-Pad1)*%
X114407000Y-96142000D03*
D11*
%TO.P,C1,2*%
%TO.N,GND*%
X116407000Y-96142000D03*
%TD*%
D10*
%TO.P,C2,1*%
%TO.N,Net-(C2-Pad1)*%
X121033000Y-96022000D03*
D11*
%TO.P,C2,2*%
%TO.N,GND*%
X123033000Y-96022000D03*
%TD*%
D12*
%TO.P,D1,1,K*%
%TO.N,GND*%
X95414000Y-97266000D03*
D13*
%TO.P,D1,2,A*%
%TO.N,Net-(D1-Pad2)*%
X97954000Y-97266000D03*
%TD*%
D12*
%TO.P,D2,1,K*%
%TO.N,GND*%
X175787000Y-97168000D03*
D13*
%TO.P,D2,2,A*%
%TO.N,Net-(D2-Pad2)*%
X173247000Y-97168000D03*
%TD*%
D12*
%TO.P,D3,1,K*%
%TO.N,GND*%
X152951000Y-137353000D03*
D13*
%TO.P,D3,2,A*%
%TO.N,Net-(D3-Pad2)*%
X150411000Y-137353000D03*
%TD*%
D12*
%TO.P,D4,1,K*%
%TO.N,GND*%
X133816000Y-63669000D03*
D13*
%TO.P,D4,2,A*%
%TO.N,Net-(D4-Pad2)*%
X136356000Y-63669000D03*
%TD*%
D12*
%TO.P,D5,1,K*%
%TO.N,GND*%
X100160000Y-120276000D03*
D13*
%TO.P,D5,2,A*%
%TO.N,Net-(D5-Pad2)*%
X102700000Y-120276000D03*
%TD*%
D12*
%TO.P,D6,1,K*%
%TO.N,GND*%
X171161000Y-119783000D03*
D13*
%TO.P,D6,2,A*%
%TO.N,Net-(D6-Pad2)*%
X168621000Y-119783000D03*
%TD*%
D12*
%TO.P,D7,1,K*%
%TO.N,GND*%
X165174000Y-74945000D03*
D13*
%TO.P,D7,2,A*%
%TO.N,Net-(D7-Pad2)*%
X162634000Y-74945000D03*
%TD*%
D12*
%TO.P,D8,1,K*%
%TO.N,GND*%
X106713000Y-73949000D03*
D13*
%TO.P,D8,2,A*%
%TO.N,Net-(D8-Pad2)*%
X109253000Y-73949000D03*
%TD*%
D12*
%TO.P,D9,1,K*%
%TO.N,GND*%
X120252000Y-137163000D03*
D13*
%TO.P,D9,2,A*%
%TO.N,Net-(D9-Pad2)*%
X122792000Y-137163000D03*
%TD*%
D11*
%TO.P,R1,1*%
%TO.N,+3.3V*%
X129232000Y-80495000D03*
D14*
%TO.P,R1,2*%
%TO.N,Net-(R1-Pad2)*%
X129232000Y-88115000D03*
%TD*%
D11*
%TO.P,RV1,1,1*%
%TO.N,Net-(R1-Pad2)*%
X133912000Y-97796000D03*
%TO.P,RV1,2,2*%
%TO.N,Net-(C2-Pad1)*%
X131412000Y-95296000D03*
%TO.P,RV1,3,3*%
%TO.N,GND*%
X128912000Y-97796000D03*
%TD*%
D15*
%TO.P,U1,1,GND*%
%TO.N,GND*%
X113998000Y-81354000D03*
%TO.P,U1,2,Trig*%
%TO.N,Net-(C2-Pad1)*%
X113998000Y-83894000D03*
%TO.P,U1,3,Out*%
%TO.N,Signal*%
X113998000Y-86434000D03*
%TO.P,U1,4,Rest*%
%TO.N,+3.3V*%
X113998000Y-88974000D03*
%TO.P,U1,5,Contrl*%
%TO.N,Net-(C1-Pad1)*%
X121618000Y-88974000D03*
%TO.P,U1,6,Thres*%
%TO.N,Net-(C2-Pad1)*%
X121618000Y-86434000D03*
%TO.P,U1,7,Dischrg*%
%TO.N,Net-(R1-Pad2)*%
X121618000Y-83894000D03*
%TO.P,U1,8,Vcc*%
%TO.N,+3.3V*%
X121618000Y-81354000D03*
%TD*%
%TO.P,U2,1,Q5*%
%TO.N,unconnected-(U2-Pad1)*%
X145288000Y-79826000D03*
%TO.P,U2,2,Q1*%
%TO.N,Net-(R2-Pad2)*%
X145288000Y-82366000D03*
%TO.P,U2,3,Q0*%
%TO.N,Net-(R5-Pad2)*%
X145288000Y-84906000D03*
%TO.P,U2,4,Q2*%
%TO.N,Net-(R10-Pad2)*%
X145288000Y-87446000D03*
%TO.P,U2,5,Q6*%
%TO.N,unconnected-(U2-Pad5)*%
X145288000Y-89986000D03*
%TO.P,U2,6,Q7*%
%TO.N,unconnected-(U2-Pad6)*%
X145288000Y-92526000D03*
%TO.P,U2,7,Q3*%
%TO.N,Net-(U2-Pad15)*%
X145288000Y-95066000D03*
%TO.P,U2,8,GND*%
%TO.N,GND*%
X145288000Y-97606000D03*
%TO.P,U2,9,Q8*%
%TO.N,unconnected-(U2-Pad9)*%
X152908000Y-97606000D03*
%TO.P,U2,10,Q4*%
%TO.N,unconnected-(U2-Pad10)*%
X152908000Y-95066000D03*
%TO.P,U2,11,Q9*%
%TO.N,unconnected-(U2-Pad11)*%
X152908000Y-92526000D03*
%TO.P,U2,12,COUT*%
%TO.N,unconnected-(U2-Pad12)*%
X152908000Y-89986000D03*
%TO.P,U2,13,CKE*%
%TO.N,GND*%
X152908000Y-87446000D03*
%TO.P,U2,14,CLK*%
%TO.N,Signal*%
X152908000Y-84906000D03*
%TO.P,U2,15,Rst*%
%TO.N,Net-(U2-Pad15)*%
X152908000Y-82366000D03*
%TO.P,U2,16,Vdd*%
%TO.N,+3.3V*%
X152908000Y-79826000D03*
%TD*%
D16*
%TO.P,R9,1*%
%TO.N,Net-(D8-Pad2)*%
X115179500Y-73967000D03*
%TO.P,R9,2*%
%TO.N,Net-(R10-Pad2)*%
X117004500Y-73967000D03*
%TD*%
D17*
%TO.P,R7,1*%
%TO.N,Net-(D6-Pad2)*%
X163887500Y-119760000D03*
%TO.P,R7,2*%
%TO.N,Net-(R5-Pad2)*%
X162062500Y-119760000D03*
%TD*%
%TO.P,R3,1*%
%TO.N,Net-(D2-Pad2)*%
X168975500Y-97168000D03*
%TO.P,R3,2*%
%TO.N,Net-(R2-Pad2)*%
X167150500Y-97168000D03*
%TD*%
%TO.P,R8,1*%
%TO.N,Net-(D7-Pad2)*%
X156856500Y-74942000D03*
%TO.P,R8,2*%
%TO.N,Net-(R10-Pad2)*%
X155031500Y-74942000D03*
%TD*%
D16*
%TO.P,R5,1*%
%TO.N,Net-(D4-Pad2)*%
X141729500Y-63669000D03*
%TO.P,R5,2*%
%TO.N,Net-(R5-Pad2)*%
X143554500Y-63669000D03*
%TD*%
%TO.P,R2,1*%
%TO.N,Net-(D1-Pad2)*%
X106024500Y-91659000D03*
%TO.P,R2,2*%
%TO.N,Net-(R2-Pad2)*%
X107849500Y-91659000D03*
%TD*%
%TO.P,R6,1*%
%TO.N,Net-(D5-Pad2)*%
X107569500Y-120272000D03*
%TO.P,R6,2*%
%TO.N,Net-(R5-Pad2)*%
X109394500Y-120272000D03*
%TD*%
%TO.P,R10,1*%
%TO.N,Net-(D9-Pad2)*%
X129424500Y-137166000D03*
%TO.P,R10,2*%
%TO.N,Net-(R10-Pad2)*%
X131249500Y-137166000D03*
%TD*%
D17*
%TO.P,R4,1*%
%TO.N,Net-(D3-Pad2)*%
X145572000Y-137341000D03*
%TO.P,R4,2*%
%TO.N,Net-(R2-Pad2)*%
X143747000Y-137341000D03*
%TD*%
D18*
%TO.P,SW1,1*%
%TO.N,+3.3V*%
X132240000Y-104929000D03*
%TO.P,SW1,2*%
%TO.N,Net-(BT1-Pad1)*%
X134740000Y-104929000D03*
%TO.P,SW1,3*%
%TO.N,unconnected-(SW1-Pad3)*%
X137240000Y-104929000D03*
%TD*%
D19*
%TO.N,GND*%
X129538000Y-114708000D03*
X131629000Y-126911000D03*
X137746000Y-116987000D03*
X131504000Y-123041000D03*
X137996000Y-123072000D03*
X127634000Y-120950000D03*
X129163000Y-124633000D03*
X139026000Y-126568000D03*
X132752000Y-112961000D03*
X141553000Y-120295000D03*
X135062000Y-112212000D03*
X135000000Y-128128000D03*
X138745000Y-113491000D03*
X141148000Y-123790000D03*
X128352000Y-117424000D03*
X134968000Y-120295000D03*
X141179000Y-115364000D03*
X131754000Y-116955000D03*
%TO.N,+3.3V*%
X155772000Y-100911000D03*
%TO.N,Net-(BT1-Pad1)*%
X124217000Y-122397000D03*
X147009000Y-117910000D03*
X122755000Y-118112000D03*
X122747000Y-120982000D03*
X145663000Y-119103000D03*
X122719000Y-122355000D03*
X124170000Y-118133000D03*
X124190000Y-121024000D03*
X145636000Y-121905000D03*
X147023000Y-121905000D03*
X124190000Y-119569000D03*
X122755000Y-119486000D03*
X145608000Y-117924000D03*
X147023000Y-120490000D03*
X145636000Y-120476000D03*
X147036000Y-119117000D03*
%TO.N,Net-(R2-Pad2)*%
X163011000Y-81287000D03*
X142830000Y-101302000D03*
X135997000Y-91657000D03*
X155614000Y-81287000D03*
%TO.N,Net-(R5-Pad2)*%
X146356000Y-69627000D03*
%TO.N,Net-(R10-Pad2)*%
X157323000Y-111939000D03*
X148997000Y-83344000D03*
X136482000Y-134333000D03*
X148997000Y-74961000D03*
%TD*%
D20*
%TO.N,Net-(D1-Pad2)*%
X103564999Y-91655001D02*
X106020501Y-91655001D01*
X106020501Y-91655001D02*
X106024500Y-91659000D01*
X103564999Y-91655001D02*
X97954000Y-97266000D01*
%TO.N,Net-(D4-Pad2)*%
X141729500Y-63669000D02*
X136356000Y-63669000D01*
%TO.N,Net-(D7-Pad2)*%
X156856500Y-74942000D02*
X156859500Y-74945000D01*
X156859500Y-74945000D02*
X162634000Y-74945000D01*
%TO.N,Net-(R1-Pad2)*%
X125011000Y-83894000D02*
X129232000Y-88115000D01*
X121618000Y-83894000D02*
X125011000Y-83894000D01*
%TO.N,Net-(U2-Pad15)*%
X145288000Y-95066000D02*
X149264000Y-91090000D01*
X149264000Y-86010000D02*
X152908000Y-82366000D01*
X149264000Y-91090000D02*
X149264000Y-86010000D01*
%TO.N,+3.3V*%
X158068000Y-80827000D02*
X157067000Y-79826000D01*
X155772000Y-100911000D02*
X156908000Y-100911000D01*
X158068000Y-99751000D02*
X158068000Y-80827000D01*
X157067000Y-79826000D02*
X152908000Y-79826000D01*
X113998000Y-88974000D02*
X121618000Y-81354000D01*
X156908000Y-100911000D02*
X158068000Y-99751000D01*
%TO.N,Net-(D2-Pad2)*%
X168975500Y-97168000D02*
X173247000Y-97168000D01*
%TO.N,Net-(D3-Pad2)*%
X145584000Y-137353000D02*
X150411000Y-137353000D01*
X145572000Y-137341000D02*
X145584000Y-137353000D01*
%TO.N,Net-(D5-Pad2)*%
X107569500Y-120272000D02*
X107565500Y-120276000D01*
X107565500Y-120276000D02*
X102700000Y-120276000D01*
%TO.N,Net-(D6-Pad2)*%
X163910500Y-119783000D02*
X168621000Y-119783000D01*
X163887500Y-119760000D02*
X163910500Y-119783000D01*
%TO.N,Net-(D8-Pad2)*%
X115161500Y-73949000D02*
X109253000Y-73949000D01*
X115179500Y-73967000D02*
X115161500Y-73949000D01*
%TO.N,Net-(D9-Pad2)*%
X129421500Y-137163000D02*
X122792000Y-137163000D01*
X129424500Y-137166000D02*
X129421500Y-137163000D01*
%TO.N,Net-(R2-Pad2)*%
X155614000Y-81287000D02*
X155614000Y-81287000D01*
X135680001Y-91655001D02*
X135682000Y-91657000D01*
X142830000Y-101302000D02*
X142830000Y-136424000D01*
X166753000Y-97168000D02*
X167150500Y-97168000D01*
X142830000Y-136424000D02*
X143747000Y-137341000D01*
X154770999Y-81290999D02*
X154774998Y-81287000D01*
X146363001Y-81290999D02*
X154770999Y-81290999D01*
X164695000Y-95110000D02*
X166753000Y-97168000D01*
X107849500Y-91659000D02*
X107853499Y-91655001D01*
X163011000Y-81287000D02*
X164695000Y-82971000D01*
X135997000Y-91657000D02*
X145288000Y-82366000D01*
X145288000Y-82366000D02*
X146363001Y-81290999D01*
X154774998Y-81287000D02*
X155614000Y-81287000D01*
X107853499Y-91655001D02*
X135680001Y-91655001D01*
X164695000Y-82971000D02*
X164695000Y-95110000D01*
X135682000Y-91657000D02*
X135997000Y-91657000D01*
%TO.N,Net-(R5-Pad2)*%
X146356000Y-69627000D02*
X146356000Y-66470500D01*
X109398500Y-120276000D02*
X109394500Y-120272000D01*
X138790000Y-95858000D02*
X114372000Y-120276000D01*
X138790000Y-91404000D02*
X138790000Y-93083000D01*
X138790000Y-93083000D02*
X138790000Y-95851000D01*
X146356000Y-66470500D02*
X143554500Y-63669000D01*
X138790000Y-95851000D02*
X138790000Y-95858000D01*
X145288000Y-84906000D02*
X138790000Y-91404000D01*
X114372000Y-120276000D02*
X109398500Y-120276000D01*
X162062500Y-119123500D02*
X162062500Y-119760000D01*
X138790000Y-93083000D02*
X138790000Y-94583002D01*
X138790000Y-95851000D02*
X162062500Y-119123500D01*
%TO.N,Net-(R10-Pad2)*%
X157323000Y-111939000D02*
X157323000Y-111939000D01*
X148997000Y-83344000D02*
X148997000Y-83344000D01*
X145288000Y-87446000D02*
X148997000Y-83737000D01*
X142825000Y-89913000D02*
X142825000Y-97441000D01*
X148003000Y-73967000D02*
X117004500Y-73967000D01*
X133649000Y-137166000D02*
X131249500Y-137166000D01*
X148997000Y-74961000D02*
X155012500Y-74961000D01*
X142825000Y-97441000D02*
X157323000Y-111939000D01*
X145288000Y-87446000D02*
X144212999Y-88521001D01*
X148997000Y-74961000D02*
X148003000Y-73967000D01*
X148997000Y-83737000D02*
X148997000Y-83344000D01*
X144212999Y-88525001D02*
X142825000Y-89913000D01*
X144212999Y-88521001D02*
X144212999Y-88525001D01*
X155012500Y-74961000D02*
X155031500Y-74942000D01*
X136482000Y-134333000D02*
X133649000Y-137166000D01*
%TD*%
M02*
