M48
; DRILL file {KiCad (5.1.10)-1} date 08/20/22 19:06:39
; FORMAT={-:-/ absolute / metric / decimal}
; #@! TF.CreationDate,2022-08-20T19:06:39-07:00
; #@! TF.GenerationSoftware,Kicad,Pcbnew,(5.1.10)-1
; #@! TF.FileFunction,Plated,1,2,PTH
FMAT,2
METRIC
T1C0.800
T2C0.900
%
G90
G05
T1
X121.5Y-91.0
X121.5Y-93.54
X121.5Y-96.08
X121.5Y-98.62
X121.5Y-101.16
X121.5Y-103.7
X121.5Y-106.24
X121.5Y-108.78
X129.12Y-91.0
X129.12Y-93.54
X129.12Y-96.08
X129.12Y-98.62
X129.12Y-101.16
X129.12Y-103.7
X129.12Y-106.24
X129.12Y-108.78
X134.0Y-91.0
X134.0Y-93.54
X134.0Y-96.08
X134.0Y-98.62
X141.62Y-91.0
X141.62Y-93.54
X141.62Y-96.08
X141.62Y-98.62
X146.5Y-88.5
X148.5Y-108.0
X150.5Y-108.0
X152.5Y-98.0
X155.0Y-95.5
X155.0Y-100.5
X157.0Y-108.0
X159.0Y-108.0
X159.2Y-88.5
T2
X100.5Y-98.5
X102.5Y-118.0
X103.04Y-98.5
X105.04Y-118.0
X114.5Y-75.0
X116.5Y-137.0
X117.04Y-75.0
X119.04Y-137.0
X137.0Y-68.5
X138.0Y-144.5
X139.54Y-68.5
X140.54Y-144.5
X156.0Y-117.0
X158.5Y-117.0
X161.0Y-117.0
X162.46Y-77.0
X163.46Y-127.5
X165.0Y-77.0
X166.0Y-127.5
X174.46Y-104.0
X177.0Y-104.0
T0
M30
