%TF.GenerationSoftware,KiCad,Pcbnew,(5.1.10)-1*%
%TF.CreationDate,2022-08-20T19:05:30-07:00*%
%TF.ProjectId,IEEE_PCB_1,49454545-5f50-4434-925f-312e6b696361,1*%
%TF.SameCoordinates,Original*%
%TF.FileFunction,Profile,NP*%
%FSLAX46Y46*%
G04 Gerber Fmt 4.6, Leading zero omitted, Abs format (unit mm)*
G04 Created by KiCad (PCBNEW (5.1.10)-1) date 2022-08-20 19:05:30*
%MOMM*%
%LPD*%
G01*
G04 APERTURE LIST*
%TA.AperFunction,Profile*%
%ADD10C,0.004500*%
%TD*%
G04 APERTURE END LIST*
D10*
%TO.C,*%
X94020565Y-110182824D02*
X93747409Y-105989007D01*
X96949478Y-121673480D02*
X95585748Y-117847603D01*
X171913582Y-134474113D02*
X169945378Y-136494965D01*
X144761781Y-46052019D02*
X144777348Y-46991435D01*
X131459790Y-51923480D02*
X132114364Y-51911820D01*
X130725346Y-51933006D02*
X131459790Y-51923480D01*
X145309260Y-51923480D02*
X146056171Y-51932957D01*
X132688766Y-49885932D02*
X132351090Y-49175438D01*
X128287464Y-59894227D02*
X128602605Y-58478634D01*
X144339411Y-44449946D02*
X144581724Y-45037414D01*
X166303824Y-69867664D02*
X167701630Y-71067019D01*
X183050813Y-107070385D02*
X182902842Y-109373481D01*
X127281879Y-61485899D02*
X127598019Y-61382360D01*
X169498230Y-72766383D02*
X171253509Y-74525274D01*
X105174867Y-74918561D02*
X108178824Y-71884348D01*
X169945378Y-136494965D02*
X167901931Y-138458450D01*
X144141324Y-49841670D02*
X143685408Y-50766314D01*
X133281515Y-51153718D02*
X133123150Y-50790806D01*
X183061124Y-103990534D02*
X183050813Y-107070385D01*
X144777348Y-46991435D02*
X144762447Y-48017135D01*
X144643005Y-51912249D02*
X145309260Y-51923480D01*
X171253509Y-74525274D02*
X172524289Y-75923480D01*
X147163746Y-53670402D02*
X147488262Y-55128343D01*
X132061827Y-48134851D02*
X131993736Y-47391042D01*
X167701630Y-71067019D02*
X169498230Y-72766383D01*
X132924406Y-50362582D02*
X132688766Y-49885932D01*
X148956601Y-61289206D02*
X149363336Y-61424889D01*
X149363336Y-61424889D02*
X149849411Y-61576119D01*
X173256818Y-132923481D02*
X171913582Y-134474113D01*
X128001639Y-61134576D02*
X128287464Y-59894227D01*
X127598019Y-61382360D02*
X127858145Y-61287599D01*
X147488262Y-55128343D02*
X147844776Y-56804773D01*
X148515898Y-59888361D02*
X148803360Y-61131307D01*
X149849411Y-61576119D02*
X150403824Y-61735176D01*
X148198924Y-58469181D02*
X148515898Y-59888361D01*
X182960495Y-100945318D02*
X183061124Y-103990534D01*
X128602605Y-58478634D02*
X128954910Y-56818137D01*
X144535032Y-49023363D02*
X144141324Y-49841670D01*
X147844776Y-56804773D02*
X148198924Y-58469181D01*
X129634602Y-53687333D02*
X129922842Y-52441808D01*
X132075368Y-45650486D02*
X132235168Y-45051013D01*
X128954910Y-56818137D02*
X129310153Y-55144684D01*
X98281209Y-85148480D02*
X100327908Y-81414182D01*
X133123150Y-50790806D02*
X132924406Y-50362582D01*
X131993736Y-47391042D02*
X131967667Y-46686198D01*
X167901931Y-138458450D02*
X166303824Y-139830132D01*
X146875472Y-52422144D02*
X147163746Y-53670402D01*
X129310153Y-55144684D02*
X129634602Y-53687333D01*
X126928824Y-61588739D02*
X127281879Y-61485899D01*
X143613968Y-43191820D02*
G75*
G02*
X144339411Y-44449946I-6471640J-4569801D01*
G01*
X136055236Y-45003474D02*
G75*
G02*
X136801586Y-44348373I2439459J-2026547D01*
G01*
X143570509Y-51431926D02*
G75*
G02*
X143548141Y-51166278I420800J169197D01*
G01*
X144696712Y-48541254D02*
G75*
G02*
X144535032Y-49023363I-2389768J533272D01*
G01*
X144211729Y-51872728D02*
G75*
G02*
X143922531Y-51801996I243732J1623106D01*
G01*
X140533710Y-49119044D02*
G75*
G02*
X140008322Y-49532210I-2303137J2388077D01*
G01*
X143548140Y-51166278D02*
G75*
G02*
X143685408Y-50766314I1780342J-387476D01*
G01*
X133303824Y-51262967D02*
G75*
G02*
X133285507Y-51342773I-183015J0D01*
G01*
X143922531Y-51801996D02*
G75*
G02*
X143739538Y-51687766I155379J452602D01*
G01*
X144643004Y-51912248D02*
G75*
G02*
X144211728Y-51872728I126638J3754916D01*
G01*
X133281515Y-51153718D02*
G75*
G02*
X133303824Y-51262967I-256351J-109249D01*
G01*
X141367340Y-47330978D02*
G75*
G02*
X141238656Y-48092642I-5361132J514062D01*
G01*
X141048340Y-45440044D02*
G75*
G02*
X141267328Y-45889401I-1548522J-1032689D01*
G01*
X140401068Y-40825815D02*
G75*
G02*
X141620895Y-41358610I-1753742J-5677956D01*
G01*
X137456580Y-49862961D02*
G75*
G02*
X136916091Y-49618338I609560J2066220D01*
G01*
X141009401Y-48579313D02*
G75*
G02*
X140533711Y-49119044I-3558620J2656892D01*
G01*
X144762447Y-48017135D02*
G75*
G02*
X144696713Y-48541255I-2789366J83652D01*
G01*
X144581725Y-45037414D02*
G75*
G02*
X144705829Y-45502248I-2505846J-918012D01*
G01*
X146433450Y-51973056D02*
G75*
G02*
X146653274Y-52056594I-123909J-657050D01*
G01*
X140666605Y-44946797D02*
G75*
G02*
X141048341Y-45440044I-3302394J-2950148D01*
G01*
X129922843Y-52441808D02*
G75*
G02*
X130008406Y-52214919I905321J-211831D01*
G01*
X141238656Y-48092642D02*
G75*
G02*
X141009401Y-48579313I-1308346J318987D01*
G01*
X146056171Y-51932957D02*
G75*
G02*
X146433451Y-51973056I-59848J-2358032D01*
G01*
X135899212Y-48677941D02*
G75*
G02*
X135585993Y-48127990I2011765J1509950D01*
G01*
X131967667Y-46686199D02*
G75*
G02*
X131992002Y-46152778I4668022J54306D01*
G01*
X135557525Y-45846426D02*
G75*
G02*
X136055235Y-45003474I2863110J-1122075D01*
G01*
X144705828Y-45502248D02*
G75*
G02*
X144761781Y-46052019I-3937189J-678437D01*
G01*
X146653274Y-52056595D02*
G75*
G02*
X146793020Y-52203295I-195440J-326086D01*
G01*
X131992001Y-46152777D02*
G75*
G02*
X132075368Y-45650486I4109430J-423987D01*
G01*
X141267328Y-45889401D02*
G75*
G02*
X141386056Y-46527767I-2292530J-756606D01*
G01*
X141620896Y-41358609D02*
G75*
G02*
X142700925Y-42152637I-3057361J-5290135D01*
G01*
X141386056Y-46527768D02*
G75*
G02*
X141367340Y-47330978I-5554651J-272385D01*
G01*
X146793020Y-52203295D02*
G75*
G02*
X146875472Y-52422144I-788715J-422107D01*
G01*
X130361630Y-51973932D02*
G75*
G02*
X130725346Y-51933006I418902J-2086172D01*
G01*
X135371163Y-46775771D02*
G75*
G02*
X135557526Y-45846425I2712047J-60489D01*
G01*
X135415933Y-47508599D02*
G75*
G02*
X135371164Y-46775772I4365321J634464D01*
G01*
X133431749Y-42838185D02*
G75*
G02*
X135402697Y-41257767I4916255J-4111890D01*
G01*
X142700925Y-42152637D02*
G75*
G02*
X143613968Y-43191820I-4424664J-4808278D01*
G01*
X143739538Y-51687767D02*
G75*
G02*
X143570508Y-51431927I541557J541558D01*
G01*
X166303824Y-139830133D02*
G75*
G02*
X162112260Y-142784310I-28522584J36018841D01*
G01*
X182902842Y-109373481D02*
G75*
G02*
X181767410Y-115782207I-47162322J5050784D01*
G01*
X128001638Y-61134576D02*
G75*
G02*
X127943105Y-61235092I-191999J44506D01*
G01*
X127943105Y-61235091D02*
G75*
G02*
X127858145Y-61287599I-178727J194201D01*
G01*
X157615632Y-145254531D02*
G75*
G02*
X152915292Y-147188327I-19512428J40748168D01*
G01*
X93747408Y-105989007D02*
G75*
G02*
X93915522Y-100443942I49938151J1261072D01*
G01*
X148956601Y-61289206D02*
G75*
G02*
X148862802Y-61233373I85533J250402D01*
G01*
X162112259Y-142784310D02*
G75*
G02*
X157615631Y-145254531I-24377595J39047585D01*
G01*
X181366361Y-92445130D02*
G75*
G02*
X182744715Y-98789268I-47619412J-13667794D01*
G01*
X130903824Y-148967859D02*
G75*
G02*
X120083396Y-145670745I7383531J43634909D01*
G01*
X143885340Y-149247004D02*
G75*
G02*
X139502075Y-149557138I-5576928J47690897D01*
G01*
X121701644Y-63356637D02*
G75*
G02*
X126928824Y-61588739I18169000J-45109066D01*
G01*
X154524320Y-63126604D02*
G75*
G02*
X158739165Y-65043810I-18767091J-46849765D01*
G01*
X135122500Y-149464947D02*
G75*
G02*
X130903824Y-148967859I2824447J42120496D01*
G01*
X182744715Y-98789268D02*
G75*
G02*
X182960495Y-100945318I-22045997J-3295212D01*
G01*
X102512656Y-131546552D02*
G75*
G02*
X96949478Y-121673480I35692588J26615576D01*
G01*
X172524289Y-75923480D02*
G75*
G02*
X176237095Y-80970573I-33522816J-28549653D01*
G01*
X179777775Y-121859667D02*
G75*
G02*
X176935087Y-127579823I-40823219J16721070D01*
G01*
X94705679Y-95217119D02*
G75*
G02*
X96151670Y-90166449I39742607J-8645864D01*
G01*
X95585748Y-117847604D02*
G75*
G02*
X94621419Y-114076406I38003081J11726620D01*
G01*
X148862802Y-61233373D02*
G75*
G02*
X148803360Y-61131307I135983J147537D01*
G01*
X132828686Y-51796085D02*
G75*
G02*
X132538734Y-51870853I-535172J1475796D01*
G01*
X137707552Y-43963345D02*
G75*
G02*
X138181319Y-43902335I506918J-2066436D01*
G01*
X100327908Y-81414182D02*
G75*
G02*
X102591803Y-78049650I35593986J-21506228D01*
G01*
X120083396Y-145670745D02*
G75*
G02*
X110402630Y-139728675I18505590J41006082D01*
G01*
X140008322Y-49532209D02*
G75*
G02*
X139447935Y-49807487I-1539255J2425452D01*
G01*
X136916092Y-49618338D02*
G75*
G02*
X136373015Y-49202112I2014570J3190941D01*
G01*
X139447935Y-49807487D02*
G75*
G02*
X138868156Y-49938207I-806021J2223837D01*
G01*
X162761399Y-67339691D02*
G75*
G02*
X166303824Y-69867664I-21078974J-33283731D01*
G01*
X138868156Y-49938207D02*
G75*
G02*
X138076715Y-49963027I-588033J6119840D01*
G01*
X132351090Y-49175438D02*
G75*
G02*
X132166284Y-48661001I3415843J1517514D01*
G01*
X139762942Y-44205393D02*
G75*
G02*
X140210982Y-44503544I-1072975J-2098108D01*
G01*
X116796475Y-65681047D02*
G75*
G02*
X121701644Y-63356636I21920961J-39921614D01*
G01*
X138076716Y-49963027D02*
G75*
G02*
X137456581Y-49862961I82111J2480467D01*
G01*
X181767411Y-115782207D02*
G75*
G02*
X179777775Y-121859667I-42910065J10683460D01*
G01*
X108178824Y-71884348D02*
G75*
G02*
X112271300Y-68535018I28736836J-30938018D01*
G01*
X137849961Y-40550907D02*
G75*
G02*
X140401069Y-40825815I569327J-6691154D01*
G01*
X94621419Y-114076406D02*
G75*
G02*
X94020565Y-110182824I39993995J8164988D01*
G01*
X133285507Y-51342773D02*
G75*
G02*
X133223245Y-51451727I-831689J403005D01*
G01*
X133134494Y-51568139D02*
G75*
G02*
X133029512Y-51675232I-947000J823326D01*
G01*
X136801586Y-44348373D02*
G75*
G02*
X137707553Y-43963345I1636105J-2591358D01*
G01*
X135585993Y-48127989D02*
G75*
G02*
X135415933Y-47508598I2407290J993986D01*
G01*
X93915523Y-100443942D02*
G75*
G02*
X94705679Y-95217119I41064285J-3534690D01*
G01*
X138181320Y-43902334D02*
G75*
G02*
X138751818Y-43931353I67064J-4304012D01*
G01*
X110402630Y-139728675D02*
G75*
G02*
X102512657Y-131546553I28226046J35113400D01*
G01*
X133029513Y-51675233D02*
G75*
G02*
X132828686Y-51796085I-408235J451095D01*
G01*
X138751818Y-43931353D02*
G75*
G02*
X139314115Y-44035763I-504252J-4281958D01*
G01*
X132235168Y-45051013D02*
G75*
G02*
X133431749Y-42838185I6033333J-1832571D01*
G01*
X148115122Y-148539872D02*
G75*
G02*
X143885340Y-149247004I-9290121J42565830D01*
G01*
X132538734Y-51870854D02*
G75*
G02*
X132114364Y-51911820I-549715J3475971D01*
G01*
X176237096Y-80970573D02*
G75*
G02*
X179193217Y-86490321I-37137218J-23440429D01*
G01*
X132166284Y-48661002D02*
G75*
G02*
X132061827Y-48134851I3415916J951609D01*
G01*
X96151671Y-90166449D02*
G75*
G02*
X98281209Y-85148480I44364512J-15866670D01*
G01*
X130149337Y-52060944D02*
G75*
G02*
X130361630Y-51973932I331370J-506000D01*
G01*
X139314115Y-44035763D02*
G75*
G02*
X139762942Y-44205393I-533920J-2091309D01*
G01*
X133223244Y-51451727D02*
G75*
G02*
X133134494Y-51568139I-948747J631272D01*
G01*
X130008406Y-52214920D02*
G75*
G02*
X130149337Y-52060944I372224J-199207D01*
G01*
X152915292Y-147188327D02*
G75*
G02*
X148115122Y-148539872I-13730389J39565112D01*
G01*
X140210981Y-44503544D02*
G75*
G02*
X140666604Y-44946797I-2931418J-3469017D01*
G01*
X136373015Y-49202112D02*
G75*
G02*
X135899211Y-48677941I2631626J2854977D01*
G01*
X135402697Y-41257768D02*
G75*
G02*
X137849961Y-40550908I3000873J-5799674D01*
G01*
X102591804Y-78049650D02*
G75*
G02*
X105174867Y-74918561I33398055J-24921463D01*
G01*
X150403823Y-61735176D02*
G75*
G02*
X154524320Y-63126604I-10497661J-37884014D01*
G01*
X139502076Y-149557138D02*
G75*
G02*
X135122500Y-149464947I-1186414J47712132D01*
G01*
X112271300Y-68535018D02*
G75*
G02*
X116796475Y-65681047I25809603J-35908493D01*
G01*
X158739165Y-65043810D02*
G75*
G02*
X162761399Y-67339691I-22989665J-44947690D01*
G01*
X176935087Y-127579824D02*
G75*
G02*
X173256818Y-132923481I-40395332J23868060D01*
G01*
X179193216Y-86490321D02*
G75*
G02*
X181366361Y-92445130I-41128453J-18383332D01*
G01*
%TD*%
M02*
