%TF.GenerationSoftware,KiCad,Pcbnew,(5.1.10)-1*%
%TF.CreationDate,2022-08-20T19:00:17-07:00*%
%TF.ProjectId,IEEE_PCB_1,49454545-5f50-4434-925f-312e6b696361,1*%
%TF.SameCoordinates,Original*%
%TF.FileFunction,Copper,L1,Top*%
%TF.FilePolarity,Positive*%
%FSLAX46Y46*%
G04 Gerber Fmt 4.6, Leading zero omitted, Abs format (unit mm)*
G04 Created by KiCad (PCBNEW (5.1.10)-1) date 2022-08-20 19:00:17*
%MOMM*%
%LPD*%
G01*
G04 APERTURE LIST*
%TA.AperFunction,ComponentPad*%
%ADD10C,1.600000*%
%TD*%
%TA.AperFunction,ComponentPad*%
%ADD11R,1.600000X1.600000*%
%TD*%
%TA.AperFunction,ComponentPad*%
%ADD12C,1.800000*%
%TD*%
%TA.AperFunction,ComponentPad*%
%ADD13R,1.800000X1.800000*%
%TD*%
%TA.AperFunction,ComponentPad*%
%ADD14O,1.600000X1.600000*%
%TD*%
%TA.AperFunction,ComponentPad*%
%ADD15C,1.500000*%
%TD*%
%TA.AperFunction,ComponentPad*%
%ADD16C,2.000000*%
%TD*%
%TA.AperFunction,Conductor*%
%ADD17C,0.250000*%
%TD*%
G04 APERTURE END LIST*
D10*
%TO.P,C1,2*%
%TO.N,GND*%
X150500000Y-108000000D03*
D11*
%TO.P,C1,1*%
%TO.N,Net-(C1-Pad1)*%
X148500000Y-108000000D03*
%TD*%
%TO.P,C2,1*%
%TO.N,Net-(C2-Pad1)*%
X157000000Y-108000000D03*
D10*
%TO.P,C2,2*%
%TO.N,GND*%
X159000000Y-108000000D03*
%TD*%
D12*
%TO.P,D1,2*%
%TO.N,Net-(D1-Pad2)*%
X162460000Y-77000000D03*
D13*
%TO.P,D1,1*%
%TO.N,GND*%
X165000000Y-77000000D03*
%TD*%
%TO.P,D2,1*%
%TO.N,GND*%
X114500000Y-75000000D03*
D12*
%TO.P,D2,2*%
%TO.N,Net-(D2-Pad2)*%
X117040000Y-75000000D03*
%TD*%
%TO.P,D3,2*%
%TO.N,Net-(D3-Pad2)*%
X139540000Y-68500000D03*
D13*
%TO.P,D3,1*%
%TO.N,GND*%
X137000000Y-68500000D03*
%TD*%
%TO.P,D4,1*%
%TO.N,GND*%
X100500000Y-98500000D03*
D12*
%TO.P,D4,2*%
%TO.N,Net-(D4-Pad2)*%
X103040000Y-98500000D03*
%TD*%
%TO.P,D5,2*%
%TO.N,Net-(D5-Pad2)*%
X174460000Y-104000000D03*
D13*
%TO.P,D5,1*%
%TO.N,GND*%
X177000000Y-104000000D03*
%TD*%
%TO.P,D6,1*%
%TO.N,GND*%
X102500000Y-118000000D03*
D12*
%TO.P,D6,2*%
%TO.N,Net-(D6-Pad2)*%
X105040000Y-118000000D03*
%TD*%
%TO.P,D7,2*%
%TO.N,Net-(D7-Pad2)*%
X140540000Y-144500000D03*
D13*
%TO.P,D7,1*%
%TO.N,GND*%
X138000000Y-144500000D03*
%TD*%
%TO.P,D8,1*%
%TO.N,GND*%
X116500000Y-137000000D03*
D12*
%TO.P,D8,2*%
%TO.N,Net-(D8-Pad2)*%
X119040000Y-137000000D03*
%TD*%
D13*
%TO.P,D9,1*%
%TO.N,GND*%
X166000000Y-127500000D03*
D12*
%TO.P,D9,2*%
%TO.N,Net-(D9-Pad2)*%
X163460000Y-127500000D03*
%TD*%
D10*
%TO.P,R1,1*%
%TO.N,+3V3*%
X146500000Y-88500000D03*
D14*
%TO.P,R1,2*%
%TO.N,Net-(R1-Pad2)*%
X159200000Y-88500000D03*
%TD*%
D10*
%TO.P,RV1,3*%
%TO.N,GND*%
X155000000Y-100500000D03*
%TO.P,RV1,2*%
%TO.N,Net-(C2-Pad1)*%
X152500000Y-98000000D03*
%TO.P,RV1,1*%
%TO.N,Net-(R1-Pad2)*%
X155000000Y-95500000D03*
%TD*%
D15*
%TO.P,U1,1*%
%TO.N,GND*%
X134000000Y-91000000D03*
%TO.P,U1,2*%
%TO.N,Net-(C2-Pad1)*%
X134000000Y-93540000D03*
%TO.P,U1,3*%
%TO.N,Signal*%
X134000000Y-96080000D03*
%TO.P,U1,4*%
%TO.N,+3V3*%
X134000000Y-98620000D03*
%TO.P,U1,8*%
X141620000Y-91000000D03*
%TO.P,U1,5*%
%TO.N,Net-(C1-Pad1)*%
X141620000Y-98620000D03*
%TO.P,U1,6*%
%TO.N,Net-(C2-Pad1)*%
X141620000Y-96080000D03*
%TO.P,U1,7*%
%TO.N,Net-(R1-Pad2)*%
X141620000Y-93540000D03*
%TD*%
%TO.P,U2,1*%
%TO.N,Net-(D1-Pad2)*%
X121500000Y-91000000D03*
%TO.P,U2,2*%
%TO.N,Net-(D2-Pad2)*%
X121500000Y-93540000D03*
%TO.P,U2,3*%
%TO.N,Net-(D3-Pad2)*%
X121500000Y-96080000D03*
%TO.P,U2,4*%
%TO.N,Net-(D4-Pad2)*%
X121500000Y-98620000D03*
%TO.P,U2,5*%
%TO.N,Net-(D5-Pad2)*%
X121500000Y-101160000D03*
%TO.P,U2,6*%
%TO.N,Net-(D6-Pad2)*%
X121500000Y-103700000D03*
%TO.P,U2,7*%
%TO.N,Net-(D7-Pad2)*%
X121500000Y-106240000D03*
%TO.P,U2,8*%
%TO.N,GND*%
X121500000Y-108780000D03*
%TO.P,U2,10*%
%TO.N,Net-(D8-Pad2)*%
X129120000Y-106240000D03*
%TO.P,U2,9*%
%TO.N,Net-(D9-Pad2)*%
X129120000Y-108780000D03*
%TO.P,U2,11*%
%TO.N,Net-(U2-Pad11)*%
X129120000Y-103700000D03*
%TO.P,U2,14*%
%TO.N,Signal*%
X129120000Y-96080000D03*
%TO.P,U2,12*%
%TO.N,Net-(U2-Pad12)*%
X129120000Y-101160000D03*
%TO.P,U2,16*%
%TO.N,+3V3*%
X129120000Y-91000000D03*
%TO.P,U2,13*%
%TO.N,GND*%
X129120000Y-98620000D03*
%TO.P,U2,15*%
%TO.N,Net-(U2-Pad11)*%
X129120000Y-93540000D03*
%TD*%
D16*
%TO.P,U3,2*%
%TO.N,Net-(U3-Pad2)*%
X158500000Y-117000000D03*
%TO.P,U3,3*%
%TO.N,GND*%
X161000000Y-117000000D03*
%TO.P,U3,1*%
%TO.N,+3V3*%
X156000000Y-117000000D03*
%TD*%
D17*
%TO.N,Net-(C1-Pad1)*%
X141620000Y-98620000D02*
X141620000Y-103120000D01*
X146500000Y-108000000D02*
X148500000Y-108000000D01*
X141620000Y-103120000D02*
X146500000Y-108000000D01*
%TO.N,Net-(C2-Pad1)*%
X143540000Y-98000000D02*
X141620000Y-96080000D01*
X152500000Y-98000000D02*
X143540000Y-98000000D01*
X141620000Y-96080000D02*
X139580000Y-96080000D01*
X137040000Y-93540000D02*
X134000000Y-93540000D01*
X139580000Y-96080000D02*
X137040000Y-93540000D01*
X152500000Y-98000000D02*
X153500000Y-99000000D01*
X153500000Y-99000000D02*
X153500000Y-106000000D01*
X155500000Y-108000000D02*
X157000000Y-108000000D01*
X153500000Y-106000000D02*
X155500000Y-108000000D01*
%TO.N,Net-(D1-Pad2)*%
X162460000Y-77000000D02*
X160500000Y-77000000D01*
X160500000Y-77000000D02*
X153000000Y-84500000D01*
X128000000Y-84500000D02*
X121500000Y-91000000D01*
X153000000Y-84500000D02*
X128000000Y-84500000D01*
%TO.N,Net-(D2-Pad2)*%
X117040000Y-75000000D02*
X118500000Y-75000000D01*
X118500000Y-75000000D02*
X119500000Y-76000000D01*
X119500000Y-91540000D02*
X121500000Y-93540000D01*
X119500000Y-76000000D02*
X119500000Y-91540000D01*
%TO.N,Net-(D4-Pad2)*%
X121380000Y-98500000D02*
X121500000Y-98620000D01*
X103040000Y-98500000D02*
X121380000Y-98500000D01*
%TO.N,Net-(D6-Pad2)*%
X105040000Y-118000000D02*
X105040000Y-116460000D01*
X117800000Y-103700000D02*
X121500000Y-103700000D01*
X105040000Y-116460000D02*
X117800000Y-103700000D01*
%TO.N,Net-(D8-Pad2)*%
X119040000Y-137000000D02*
X119040000Y-115460000D01*
X128260000Y-106240000D02*
X129120000Y-106240000D01*
X119040000Y-115460000D02*
X128260000Y-106240000D01*
%TO.N,Net-(D9-Pad2)*%
X163460000Y-127500000D02*
X141000000Y-127500000D01*
X129120000Y-115620000D02*
X129120000Y-108780000D01*
X141000000Y-127500000D02*
X129120000Y-115620000D01*
%TO.N,+3V3*%
X133500000Y-99120000D02*
X134000000Y-98620000D01*
X144000000Y-91000000D02*
X146500000Y-88500000D01*
X141620000Y-91000000D02*
X144000000Y-91000000D01*
X135000000Y-117000000D02*
X133000000Y-115000000D01*
X133000000Y-99620000D02*
X134000000Y-98620000D01*
X133000000Y-115000000D02*
X133000000Y-99620000D01*
X135000000Y-117000000D02*
X156000000Y-117000000D01*
%TO.N,Net-(R1-Pad2)*%
X153040000Y-93540000D02*
X155000000Y-95500000D01*
X141620000Y-93540000D02*
X153040000Y-93540000D01*
X159200000Y-91300000D02*
X155000000Y-95500000D01*
X159200000Y-88500000D02*
X159200000Y-91300000D01*
%TO.N,Signal*%
X129120000Y-96080000D02*
X134000000Y-96080000D01*
%TO.N,Net-(U2-Pad11)*%
X128044999Y-94615001D02*
X129120000Y-93540000D01*
X128044999Y-102624999D02*
X128044999Y-94615001D01*
X129120000Y-103700000D02*
X128044999Y-102624999D01*
%TD*%
M02*
