%TF.GenerationSoftware,KiCad,Pcbnew,(5.1.10)-1*%
%TF.CreationDate,2022-08-20T19:05:30-07:00*%
%TF.ProjectId,IEEE_PCB_1,49454545-5f50-4434-925f-312e6b696361,1*%
%TF.SameCoordinates,Original*%
%TF.FileFunction,Legend,Bot*%
%TF.FilePolarity,Positive*%
%FSLAX46Y46*%
G04 Gerber Fmt 4.6, Leading zero omitted, Abs format (unit mm)*
G04 Created by KiCad (PCBNEW (5.1.10)-1) date 2022-08-20 19:05:30*
%MOMM*%
%LPD*%
G01*
G04 APERTURE LIST*
%ADD10C,0.150000*%
%ADD11C,1.600000*%
%ADD12R,1.600000X1.600000*%
%ADD13C,1.800000*%
%ADD14R,1.800000X1.800000*%
%ADD15O,1.600000X1.600000*%
%ADD16C,1.500000*%
%ADD17C,2.000000*%
%ADD18R,3.510000X2.540000*%
G04 APERTURE END LIST*
%TO.C,U4*%
D10*
X137207380Y-121441904D02*
X138016904Y-121441904D01*
X138112142Y-121394285D01*
X138159761Y-121346666D01*
X138207380Y-121251428D01*
X138207380Y-121060952D01*
X138159761Y-120965714D01*
X138112142Y-120918095D01*
X138016904Y-120870476D01*
X137207380Y-120870476D01*
X137540714Y-119965714D02*
X138207380Y-119965714D01*
X137159761Y-120203809D02*
X137874047Y-120441904D01*
X137874047Y-119822857D01*
%TD*%
%LPC*%
D11*
%TO.C,C1*%
X150500000Y-108000000D03*
D12*
X148500000Y-108000000D03*
%TD*%
%TO.C,C2*%
X157000000Y-108000000D03*
D11*
X159000000Y-108000000D03*
%TD*%
D13*
%TO.C,D1*%
X162460000Y-77000000D03*
D14*
X165000000Y-77000000D03*
%TD*%
%TO.C,D2*%
X114500000Y-75000000D03*
D13*
X117040000Y-75000000D03*
%TD*%
%TO.C,D3*%
X139540000Y-68500000D03*
D14*
X137000000Y-68500000D03*
%TD*%
%TO.C,D4*%
X100500000Y-98500000D03*
D13*
X103040000Y-98500000D03*
%TD*%
%TO.C,D5*%
X174460000Y-104000000D03*
D14*
X177000000Y-104000000D03*
%TD*%
%TO.C,D6*%
X102500000Y-118000000D03*
D13*
X105040000Y-118000000D03*
%TD*%
%TO.C,D7*%
X140540000Y-144500000D03*
D14*
X138000000Y-144500000D03*
%TD*%
%TO.C,D8*%
X116500000Y-137000000D03*
D13*
X119040000Y-137000000D03*
%TD*%
D14*
%TO.C,D9*%
X166000000Y-127500000D03*
D13*
X163460000Y-127500000D03*
%TD*%
D11*
%TO.C,R1*%
X146500000Y-88500000D03*
D15*
X159200000Y-88500000D03*
%TD*%
D11*
%TO.C,RV1*%
X155000000Y-100500000D03*
X152500000Y-98000000D03*
X155000000Y-95500000D03*
%TD*%
D16*
%TO.C,U1*%
X134000000Y-91000000D03*
X134000000Y-93540000D03*
X134000000Y-96080000D03*
X134000000Y-98620000D03*
X141620000Y-91000000D03*
X141620000Y-98620000D03*
X141620000Y-96080000D03*
X141620000Y-93540000D03*
%TD*%
%TO.C,U2*%
X121500000Y-91000000D03*
X121500000Y-93540000D03*
X121500000Y-96080000D03*
X121500000Y-98620000D03*
X121500000Y-101160000D03*
X121500000Y-103700000D03*
X121500000Y-106240000D03*
X121500000Y-108780000D03*
X129120000Y-106240000D03*
X129120000Y-108780000D03*
X129120000Y-103700000D03*
X129120000Y-96080000D03*
X129120000Y-101160000D03*
X129120000Y-91000000D03*
X129120000Y-98620000D03*
X129120000Y-93540000D03*
%TD*%
D17*
%TO.C,U3*%
X158500000Y-117000000D03*
X161000000Y-117000000D03*
X156000000Y-117000000D03*
%TD*%
D18*
%TO.C,U4*%
X137500000Y-106000000D03*
X137500000Y-135360000D03*
%TD*%
M02*
