%TF.GenerationSoftware,KiCad,Pcbnew,(5.1.10)-1*%
%TF.CreationDate,2022-08-20T19:05:30-07:00*%
%TF.ProjectId,IEEE_PCB_1,49454545-5f50-4434-925f-312e6b696361,1*%
%TF.SameCoordinates,Original*%
%TF.FileFunction,Copper,L2,Bot*%
%TF.FilePolarity,Positive*%
%FSLAX46Y46*%
G04 Gerber Fmt 4.6, Leading zero omitted, Abs format (unit mm)*
G04 Created by KiCad (PCBNEW (5.1.10)-1) date 2022-08-20 19:05:30*
%MOMM*%
%LPD*%
G01*
G04 APERTURE LIST*
%TA.AperFunction,ComponentPad*%
%ADD10C,1.600000*%
%TD*%
%TA.AperFunction,ComponentPad*%
%ADD11R,1.600000X1.600000*%
%TD*%
%TA.AperFunction,ComponentPad*%
%ADD12C,1.800000*%
%TD*%
%TA.AperFunction,ComponentPad*%
%ADD13R,1.800000X1.800000*%
%TD*%
%TA.AperFunction,ComponentPad*%
%ADD14O,1.600000X1.600000*%
%TD*%
%TA.AperFunction,ComponentPad*%
%ADD15C,1.500000*%
%TD*%
%TA.AperFunction,ComponentPad*%
%ADD16C,2.000000*%
%TD*%
%TA.AperFunction,SMDPad,CuDef*%
%ADD17R,3.510000X2.540000*%
%TD*%
%TA.AperFunction,Conductor*%
%ADD18C,0.250000*%
%TD*%
%TA.AperFunction,Conductor*%
%ADD19C,0.254000*%
%TD*%
%TA.AperFunction,Conductor*%
%ADD20C,0.100000*%
%TD*%
G04 APERTURE END LIST*
D10*
%TO.P,C1,2*%
%TO.N,GND*%
X150500000Y-108000000D03*
D11*
%TO.P,C1,1*%
%TO.N,Net-(C1-Pad1)*%
X148500000Y-108000000D03*
%TD*%
%TO.P,C2,1*%
%TO.N,Net-(C2-Pad1)*%
X157000000Y-108000000D03*
D10*
%TO.P,C2,2*%
%TO.N,GND*%
X159000000Y-108000000D03*
%TD*%
D12*
%TO.P,D1,2*%
%TO.N,Net-(D1-Pad2)*%
X162460000Y-77000000D03*
D13*
%TO.P,D1,1*%
%TO.N,GND*%
X165000000Y-77000000D03*
%TD*%
%TO.P,D2,1*%
%TO.N,GND*%
X114500000Y-75000000D03*
D12*
%TO.P,D2,2*%
%TO.N,Net-(D2-Pad2)*%
X117040000Y-75000000D03*
%TD*%
%TO.P,D3,2*%
%TO.N,Net-(D3-Pad2)*%
X139540000Y-68500000D03*
D13*
%TO.P,D3,1*%
%TO.N,GND*%
X137000000Y-68500000D03*
%TD*%
%TO.P,D4,1*%
%TO.N,GND*%
X100500000Y-98500000D03*
D12*
%TO.P,D4,2*%
%TO.N,Net-(D4-Pad2)*%
X103040000Y-98500000D03*
%TD*%
%TO.P,D5,2*%
%TO.N,Net-(D5-Pad2)*%
X174460000Y-104000000D03*
D13*
%TO.P,D5,1*%
%TO.N,GND*%
X177000000Y-104000000D03*
%TD*%
%TO.P,D6,1*%
%TO.N,GND*%
X102500000Y-118000000D03*
D12*
%TO.P,D6,2*%
%TO.N,Net-(D6-Pad2)*%
X105040000Y-118000000D03*
%TD*%
%TO.P,D7,2*%
%TO.N,Net-(D7-Pad2)*%
X140540000Y-144500000D03*
D13*
%TO.P,D7,1*%
%TO.N,GND*%
X138000000Y-144500000D03*
%TD*%
%TO.P,D8,1*%
%TO.N,GND*%
X116500000Y-137000000D03*
D12*
%TO.P,D8,2*%
%TO.N,Net-(D8-Pad2)*%
X119040000Y-137000000D03*
%TD*%
D13*
%TO.P,D9,1*%
%TO.N,GND*%
X166000000Y-127500000D03*
D12*
%TO.P,D9,2*%
%TO.N,Net-(D9-Pad2)*%
X163460000Y-127500000D03*
%TD*%
D10*
%TO.P,R1,1*%
%TO.N,+3V3*%
X146500000Y-88500000D03*
D14*
%TO.P,R1,2*%
%TO.N,Net-(R1-Pad2)*%
X159200000Y-88500000D03*
%TD*%
D10*
%TO.P,RV1,3*%
%TO.N,GND*%
X155000000Y-100500000D03*
%TO.P,RV1,2*%
%TO.N,Net-(C2-Pad1)*%
X152500000Y-98000000D03*
%TO.P,RV1,1*%
%TO.N,Net-(R1-Pad2)*%
X155000000Y-95500000D03*
%TD*%
D15*
%TO.P,U1,1*%
%TO.N,GND*%
X134000000Y-91000000D03*
%TO.P,U1,2*%
%TO.N,Net-(C2-Pad1)*%
X134000000Y-93540000D03*
%TO.P,U1,3*%
%TO.N,Signal*%
X134000000Y-96080000D03*
%TO.P,U1,4*%
%TO.N,+3V3*%
X134000000Y-98620000D03*
%TO.P,U1,8*%
X141620000Y-91000000D03*
%TO.P,U1,5*%
%TO.N,Net-(C1-Pad1)*%
X141620000Y-98620000D03*
%TO.P,U1,6*%
%TO.N,Net-(C2-Pad1)*%
X141620000Y-96080000D03*
%TO.P,U1,7*%
%TO.N,Net-(R1-Pad2)*%
X141620000Y-93540000D03*
%TD*%
%TO.P,U2,1*%
%TO.N,Net-(D1-Pad2)*%
X121500000Y-91000000D03*
%TO.P,U2,2*%
%TO.N,Net-(D2-Pad2)*%
X121500000Y-93540000D03*
%TO.P,U2,3*%
%TO.N,Net-(D3-Pad2)*%
X121500000Y-96080000D03*
%TO.P,U2,4*%
%TO.N,Net-(D4-Pad2)*%
X121500000Y-98620000D03*
%TO.P,U2,5*%
%TO.N,Net-(D5-Pad2)*%
X121500000Y-101160000D03*
%TO.P,U2,6*%
%TO.N,Net-(D6-Pad2)*%
X121500000Y-103700000D03*
%TO.P,U2,7*%
%TO.N,Net-(D7-Pad2)*%
X121500000Y-106240000D03*
%TO.P,U2,8*%
%TO.N,GND*%
X121500000Y-108780000D03*
%TO.P,U2,10*%
%TO.N,Net-(D8-Pad2)*%
X129120000Y-106240000D03*
%TO.P,U2,9*%
%TO.N,Net-(D9-Pad2)*%
X129120000Y-108780000D03*
%TO.P,U2,11*%
%TO.N,Net-(U2-Pad11)*%
X129120000Y-103700000D03*
%TO.P,U2,14*%
%TO.N,Signal*%
X129120000Y-96080000D03*
%TO.P,U2,12*%
%TO.N,Net-(U2-Pad12)*%
X129120000Y-101160000D03*
%TO.P,U2,16*%
%TO.N,+3V3*%
X129120000Y-91000000D03*
%TO.P,U2,13*%
%TO.N,GND*%
X129120000Y-98620000D03*
%TO.P,U2,15*%
%TO.N,Net-(U2-Pad11)*%
X129120000Y-93540000D03*
%TD*%
D16*
%TO.P,U3,2*%
%TO.N,Net-(U3-Pad2)*%
X158500000Y-117000000D03*
%TO.P,U3,3*%
%TO.N,GND*%
X161000000Y-117000000D03*
%TO.P,U3,1*%
%TO.N,+3V3*%
X156000000Y-117000000D03*
%TD*%
D17*
%TO.P,U4,1*%
%TO.N,Net-(U3-Pad2)*%
X137500000Y-106000000D03*
%TO.P,U4,2*%
%TO.N,GND*%
X137500000Y-135360000D03*
%TD*%
D18*
%TO.N,Net-(D3-Pad2)*%
X139540000Y-68500000D02*
X123500000Y-84540000D01*
X123500000Y-94080000D02*
X121500000Y-96080000D01*
X123500000Y-84540000D02*
X123500000Y-94080000D01*
%TO.N,Net-(D5-Pad2)*%
X129636001Y-100084999D02*
X122575001Y-100084999D01*
X122575001Y-100084999D02*
X121500000Y-101160000D01*
X133551002Y-104000000D02*
X129636001Y-100084999D01*
X174460000Y-104000000D02*
X133551002Y-104000000D01*
%TO.N,Net-(D7-Pad2)*%
X140540000Y-144500000D02*
X140540000Y-130540000D01*
X140540000Y-130540000D02*
X124500000Y-114500000D01*
X124500000Y-109240000D02*
X121500000Y-106240000D01*
X124500000Y-114500000D02*
X124500000Y-109240000D01*
%TO.N,+3V3*%
X134000000Y-98620000D02*
X131000000Y-95620000D01*
X131000000Y-92880000D02*
X129120000Y-91000000D01*
X131000000Y-95620000D02*
X131000000Y-92880000D01*
X134000000Y-98620000D02*
X135380000Y-98620000D01*
X135380000Y-98620000D02*
X139000000Y-95000000D01*
X139000000Y-93620000D02*
X141620000Y-91000000D01*
X139000000Y-95000000D02*
X139000000Y-93620000D01*
%TO.N,Net-(U3-Pad2)*%
X157000000Y-118500000D02*
X158500000Y-117000000D01*
X139000000Y-118500000D02*
X157000000Y-118500000D01*
X137500000Y-117000000D02*
X139000000Y-118500000D01*
X137500000Y-106000000D02*
X137500000Y-117000000D01*
%TD*%
D19*
%TO.N,GND*%
X139749479Y-41312313D02*
X140199989Y-41431768D01*
X141034340Y-41766570D01*
X141287802Y-41903016D01*
X142036425Y-42419942D01*
X142257426Y-42611535D01*
X142908649Y-43312845D01*
X143084959Y-43548496D01*
X143632932Y-44454130D01*
X143757739Y-44710953D01*
X143976767Y-45241966D01*
X144077010Y-45617428D01*
X144125067Y-46089627D01*
X144140022Y-46992061D01*
X144125776Y-47972713D01*
X144072073Y-48400902D01*
X143953242Y-48762766D01*
X143568419Y-49562606D01*
X143100017Y-50512575D01*
X143096680Y-50521442D01*
X143077632Y-50563157D01*
X143067039Y-50594022D01*
X143053620Y-50623771D01*
X143050830Y-50632219D01*
X142941663Y-50970644D01*
X142935620Y-50998408D01*
X142926665Y-51025368D01*
X142924759Y-51034058D01*
X142923802Y-51038570D01*
X142920663Y-51066667D01*
X142914544Y-51094276D01*
X142913538Y-51103116D01*
X142904138Y-51191132D01*
X142903638Y-51248856D01*
X142902331Y-51306632D01*
X142903060Y-51315488D01*
X142903060Y-51315496D01*
X142903061Y-51315499D01*
X142910936Y-51403664D01*
X142921664Y-51460416D01*
X142931599Y-51517316D01*
X142934037Y-51525872D01*
X142958887Y-51610828D01*
X142969576Y-51637411D01*
X142977410Y-51664998D01*
X142980722Y-51673256D01*
X142984243Y-51681861D01*
X142997630Y-51707195D01*
X143008270Y-51733796D01*
X143012419Y-51741666D01*
X143083053Y-51873397D01*
X143115191Y-51921405D01*
X143146639Y-51969830D01*
X143152232Y-51976737D01*
X143152239Y-51976747D01*
X143152247Y-51976755D01*
X143247113Y-52092247D01*
X143273176Y-52118310D01*
X143297081Y-52146372D01*
X143303527Y-52152505D01*
X143325771Y-52173374D01*
X143354979Y-52195845D01*
X143382307Y-52220579D01*
X143389492Y-52225827D01*
X143465288Y-52280388D01*
X143515255Y-52309408D01*
X143564768Y-52339097D01*
X143572826Y-52342845D01*
X143572835Y-52342850D01*
X143572844Y-52342853D01*
X143657787Y-52381649D01*
X143710331Y-52399688D01*
X143762507Y-52418827D01*
X143771135Y-52421001D01*
X144060333Y-52491733D01*
X144102751Y-52497803D01*
X144144722Y-52506445D01*
X144153576Y-52507319D01*
X144577397Y-52546157D01*
X144600967Y-52548880D01*
X145268558Y-52560134D01*
X145269876Y-52560281D01*
X145299729Y-52560660D01*
X145329817Y-52561167D01*
X145331149Y-52561058D01*
X146018353Y-52569778D01*
X146261513Y-52595621D01*
X146542256Y-53811270D01*
X146865577Y-55263841D01*
X147214961Y-56906744D01*
X147214965Y-56906779D01*
X147220969Y-56934994D01*
X147227976Y-56967944D01*
X147227987Y-56967977D01*
X147569785Y-58574343D01*
X147570175Y-58577539D01*
X147576292Y-58604928D01*
X147582142Y-58632420D01*
X147583119Y-58635493D01*
X147887673Y-59999068D01*
X147887983Y-60001453D01*
X147894494Y-60029604D01*
X147900795Y-60057817D01*
X147901547Y-60060103D01*
X148189552Y-61305393D01*
X148199218Y-61334036D01*
X148199674Y-61336023D01*
X148202560Y-61344438D01*
X148206960Y-61356979D01*
X148219631Y-61394528D01*
X148230084Y-61412708D01*
X148239883Y-61433787D01*
X148263493Y-61486483D01*
X148267948Y-61494158D01*
X148267953Y-61494168D01*
X148267959Y-61494176D01*
X148267960Y-61494178D01*
X148287855Y-61527907D01*
X148321904Y-61574542D01*
X148355315Y-61621671D01*
X148361188Y-61628347D01*
X148361192Y-61628353D01*
X148361197Y-61628358D01*
X148387259Y-61657574D01*
X148394839Y-61664560D01*
X148396605Y-61666926D01*
X148411954Y-61680775D01*
X148430136Y-61701227D01*
X148436710Y-61707222D01*
X148441542Y-61711567D01*
X148462908Y-61727298D01*
X148478710Y-61741862D01*
X148481649Y-61743660D01*
X148488943Y-61750242D01*
X148496135Y-61755479D01*
X148538094Y-61785585D01*
X148588116Y-61814535D01*
X148636880Y-61843672D01*
X148639360Y-61845429D01*
X148725252Y-61883802D01*
X149138163Y-62021546D01*
X149144134Y-62024069D01*
X149167780Y-62031426D01*
X149191372Y-62039296D01*
X149197719Y-62040741D01*
X149636991Y-62177410D01*
X149643590Y-62180027D01*
X149666865Y-62186704D01*
X149689986Y-62193898D01*
X149696939Y-62195333D01*
X150221233Y-62345749D01*
X152555645Y-63072303D01*
X154286122Y-63717892D01*
X156843465Y-64826147D01*
X158446081Y-65609852D01*
X160893630Y-66949217D01*
X162416733Y-67875919D01*
X164437441Y-69246437D01*
X165902874Y-70363312D01*
X167274953Y-71540593D01*
X169053674Y-73223046D01*
X170791939Y-74964890D01*
X172039431Y-76337473D01*
X173649436Y-78345699D01*
X175141252Y-80451160D01*
X175695094Y-81305978D01*
X177003545Y-83522024D01*
X178178248Y-85811730D01*
X178609041Y-86745275D01*
X179614634Y-89187036D01*
X180473745Y-91684430D01*
X180752266Y-92615801D01*
X181433448Y-95266023D01*
X181965714Y-97950572D01*
X182112820Y-98873332D01*
X182307845Y-100697905D01*
X182323855Y-100974292D01*
X182423839Y-103999996D01*
X182413632Y-107048879D01*
X182268363Y-109309910D01*
X181904963Y-111975699D01*
X181386793Y-114625961D01*
X181150370Y-115622464D01*
X180449861Y-118117807D01*
X179602803Y-120566603D01*
X179189970Y-121613176D01*
X178139663Y-123975103D01*
X176951137Y-126270564D01*
X176388887Y-127251294D01*
X174964879Y-129510199D01*
X173412911Y-131683795D01*
X172764014Y-132519103D01*
X171444098Y-134042815D01*
X169496266Y-136042752D01*
X167473329Y-137986531D01*
X165905300Y-139332398D01*
X163816347Y-140890873D01*
X161775150Y-142243236D01*
X159517663Y-143563817D01*
X157340825Y-144679305D01*
X154995474Y-145720464D01*
X152707205Y-146585725D01*
X150301975Y-147338946D01*
X147979355Y-147916972D01*
X145472422Y-148386671D01*
X143814226Y-148613547D01*
X141089571Y-148852873D01*
X139490024Y-148919835D01*
X136770755Y-148909129D01*
X135169400Y-148829244D01*
X132634376Y-148581294D01*
X131013290Y-148339883D01*
X128472450Y-147831983D01*
X125969258Y-147175089D01*
X123509444Y-146370902D01*
X121095630Y-145419875D01*
X121050454Y-145400000D01*
X136461928Y-145400000D01*
X136474188Y-145524482D01*
X136510498Y-145644180D01*
X136569463Y-145754494D01*
X136648815Y-145851185D01*
X136745506Y-145930537D01*
X136855820Y-145989502D01*
X136975518Y-146025812D01*
X137100000Y-146038072D01*
X137714250Y-146035000D01*
X137873000Y-145876250D01*
X137873000Y-144627000D01*
X136623750Y-144627000D01*
X136465000Y-144785750D01*
X136461928Y-145400000D01*
X121050454Y-145400000D01*
X120351443Y-145092477D01*
X117980281Y-143936541D01*
X117382752Y-143600000D01*
X136461928Y-143600000D01*
X136465000Y-144214250D01*
X136623750Y-144373000D01*
X137873000Y-144373000D01*
X137873000Y-143123750D01*
X137714250Y-142965000D01*
X137100000Y-142961928D01*
X136975518Y-142974188D01*
X136855820Y-143010498D01*
X136745506Y-143069463D01*
X136648815Y-143148815D01*
X136569463Y-143245506D01*
X136510498Y-143355820D01*
X136474188Y-143475518D01*
X136461928Y-143600000D01*
X117382752Y-143600000D01*
X115687504Y-142645201D01*
X113475304Y-141220129D01*
X111345938Y-139662289D01*
X110807351Y-139236301D01*
X109242423Y-137900000D01*
X114961928Y-137900000D01*
X114974188Y-138024482D01*
X115010498Y-138144180D01*
X115069463Y-138254494D01*
X115148815Y-138351185D01*
X115245506Y-138430537D01*
X115355820Y-138489502D01*
X115475518Y-138525812D01*
X115600000Y-138538072D01*
X116214250Y-138535000D01*
X116373000Y-138376250D01*
X116373000Y-137127000D01*
X115123750Y-137127000D01*
X114965000Y-137285750D01*
X114961928Y-137900000D01*
X109242423Y-137900000D01*
X108798055Y-137520552D01*
X107321585Y-136100000D01*
X114961928Y-136100000D01*
X114965000Y-136714250D01*
X115123750Y-136873000D01*
X116373000Y-136873000D01*
X116373000Y-135623750D01*
X116627000Y-135623750D01*
X116627000Y-136873000D01*
X116647000Y-136873000D01*
X116647000Y-137127000D01*
X116627000Y-137127000D01*
X116627000Y-138376250D01*
X116785750Y-138535000D01*
X117400000Y-138538072D01*
X117524482Y-138525812D01*
X117644180Y-138489502D01*
X117754494Y-138430537D01*
X117851185Y-138351185D01*
X117930537Y-138254494D01*
X117989502Y-138144180D01*
X117995056Y-138125873D01*
X118061495Y-138192312D01*
X118312905Y-138360299D01*
X118592257Y-138476011D01*
X118888816Y-138535000D01*
X119191184Y-138535000D01*
X119487743Y-138476011D01*
X119767095Y-138360299D01*
X120018505Y-138192312D01*
X120232312Y-137978505D01*
X120400299Y-137727095D01*
X120516011Y-137447743D01*
X120575000Y-137151184D01*
X120575000Y-136848816D01*
X120531475Y-136630000D01*
X135106928Y-136630000D01*
X135119188Y-136754482D01*
X135155498Y-136874180D01*
X135214463Y-136984494D01*
X135293815Y-137081185D01*
X135390506Y-137160537D01*
X135500820Y-137219502D01*
X135620518Y-137255812D01*
X135745000Y-137268072D01*
X137214250Y-137265000D01*
X137373000Y-137106250D01*
X137373000Y-135487000D01*
X135268750Y-135487000D01*
X135110000Y-135645750D01*
X135106928Y-136630000D01*
X120531475Y-136630000D01*
X120516011Y-136552257D01*
X120400299Y-136272905D01*
X120232312Y-136021495D01*
X120018505Y-135807688D01*
X119767095Y-135639701D01*
X119487743Y-135523989D01*
X119191184Y-135465000D01*
X118888816Y-135465000D01*
X118592257Y-135523989D01*
X118312905Y-135639701D01*
X118061495Y-135807688D01*
X117995056Y-135874127D01*
X117989502Y-135855820D01*
X117930537Y-135745506D01*
X117851185Y-135648815D01*
X117754494Y-135569463D01*
X117644180Y-135510498D01*
X117524482Y-135474188D01*
X117400000Y-135461928D01*
X116785750Y-135465000D01*
X116627000Y-135623750D01*
X116373000Y-135623750D01*
X116214250Y-135465000D01*
X115600000Y-135461928D01*
X115475518Y-135474188D01*
X115355820Y-135510498D01*
X115245506Y-135569463D01*
X115148815Y-135648815D01*
X115069463Y-135745506D01*
X115010498Y-135855820D01*
X114974188Y-135975518D01*
X114961928Y-136100000D01*
X107321585Y-136100000D01*
X106899070Y-135693487D01*
X105419115Y-134090000D01*
X135106928Y-134090000D01*
X135110000Y-135074250D01*
X135268750Y-135233000D01*
X137373000Y-135233000D01*
X137373000Y-133613750D01*
X137214250Y-133455000D01*
X135745000Y-133451928D01*
X135620518Y-133464188D01*
X135500820Y-133500498D01*
X135390506Y-133559463D01*
X135293815Y-133638815D01*
X135214463Y-133735506D01*
X135155498Y-133845820D01*
X135119188Y-133965518D01*
X135106928Y-134090000D01*
X105419115Y-134090000D01*
X105111783Y-133757016D01*
X103438069Y-131712560D01*
X103027729Y-131171144D01*
X101529796Y-129032787D01*
X100164951Y-126815261D01*
X98934039Y-124520725D01*
X97838586Y-122151195D01*
X97544160Y-121443883D01*
X96637396Y-118900000D01*
X100961928Y-118900000D01*
X100974188Y-119024482D01*
X101010498Y-119144180D01*
X101069463Y-119254494D01*
X101148815Y-119351185D01*
X101245506Y-119430537D01*
X101355820Y-119489502D01*
X101475518Y-119525812D01*
X101600000Y-119538072D01*
X102214250Y-119535000D01*
X102373000Y-119376250D01*
X102373000Y-118127000D01*
X101123750Y-118127000D01*
X100965000Y-118285750D01*
X100961928Y-118900000D01*
X96637396Y-118900000D01*
X96193983Y-117656029D01*
X96041364Y-117100000D01*
X100961928Y-117100000D01*
X100965000Y-117714250D01*
X101123750Y-117873000D01*
X102373000Y-117873000D01*
X102373000Y-116623750D01*
X102627000Y-116623750D01*
X102627000Y-117873000D01*
X102647000Y-117873000D01*
X102647000Y-118127000D01*
X102627000Y-118127000D01*
X102627000Y-119376250D01*
X102785750Y-119535000D01*
X103400000Y-119538072D01*
X103524482Y-119525812D01*
X103644180Y-119489502D01*
X103754494Y-119430537D01*
X103851185Y-119351185D01*
X103930537Y-119254494D01*
X103989502Y-119144180D01*
X103995056Y-119125873D01*
X104061495Y-119192312D01*
X104312905Y-119360299D01*
X104592257Y-119476011D01*
X104888816Y-119535000D01*
X105191184Y-119535000D01*
X105487743Y-119476011D01*
X105767095Y-119360299D01*
X106018505Y-119192312D01*
X106232312Y-118978505D01*
X106400299Y-118727095D01*
X106516011Y-118447743D01*
X106575000Y-118151184D01*
X106575000Y-117848816D01*
X106516011Y-117552257D01*
X106400299Y-117272905D01*
X106232312Y-117021495D01*
X106018505Y-116807688D01*
X105767095Y-116639701D01*
X105487743Y-116523989D01*
X105191184Y-116465000D01*
X104888816Y-116465000D01*
X104592257Y-116523989D01*
X104312905Y-116639701D01*
X104061495Y-116807688D01*
X103995056Y-116874127D01*
X103989502Y-116855820D01*
X103930537Y-116745506D01*
X103851185Y-116648815D01*
X103754494Y-116569463D01*
X103644180Y-116510498D01*
X103524482Y-116474188D01*
X103400000Y-116461928D01*
X102785750Y-116465000D01*
X102627000Y-116623750D01*
X102373000Y-116623750D01*
X102214250Y-116465000D01*
X101600000Y-116461928D01*
X101475518Y-116474188D01*
X101355820Y-116510498D01*
X101245506Y-116569463D01*
X101148815Y-116648815D01*
X101069463Y-116745506D01*
X101010498Y-116855820D01*
X100974188Y-116975518D01*
X100961928Y-117100000D01*
X96041364Y-117100000D01*
X95543068Y-115284598D01*
X95246848Y-113953241D01*
X94818323Y-111456417D01*
X94655294Y-110123388D01*
X94630128Y-109736993D01*
X120722612Y-109736993D01*
X120788137Y-109975860D01*
X121035116Y-110091760D01*
X121299960Y-110157250D01*
X121572492Y-110169812D01*
X121842238Y-110128965D01*
X122098832Y-110036277D01*
X122211863Y-109975860D01*
X122277388Y-109736993D01*
X121500000Y-108959605D01*
X120722612Y-109736993D01*
X94630128Y-109736993D01*
X94572517Y-108852492D01*
X120110188Y-108852492D01*
X120151035Y-109122238D01*
X120243723Y-109378832D01*
X120304140Y-109491863D01*
X120543007Y-109557388D01*
X121320395Y-108780000D01*
X120543007Y-108002612D01*
X120304140Y-108068137D01*
X120188240Y-108315116D01*
X120122750Y-108579960D01*
X120110188Y-108852492D01*
X94572517Y-108852492D01*
X94384714Y-105969119D01*
X94392079Y-103218830D01*
X94550612Y-100499551D01*
X94679190Y-99400000D01*
X98961928Y-99400000D01*
X98974188Y-99524482D01*
X99010498Y-99644180D01*
X99069463Y-99754494D01*
X99148815Y-99851185D01*
X99245506Y-99930537D01*
X99355820Y-99989502D01*
X99475518Y-100025812D01*
X99600000Y-100038072D01*
X100214250Y-100035000D01*
X100373000Y-99876250D01*
X100373000Y-98627000D01*
X99123750Y-98627000D01*
X98965000Y-98785750D01*
X98961928Y-99400000D01*
X94679190Y-99400000D01*
X94838580Y-98036972D01*
X94916965Y-97600000D01*
X98961928Y-97600000D01*
X98965000Y-98214250D01*
X99123750Y-98373000D01*
X100373000Y-98373000D01*
X100373000Y-97123750D01*
X100627000Y-97123750D01*
X100627000Y-98373000D01*
X100647000Y-98373000D01*
X100647000Y-98627000D01*
X100627000Y-98627000D01*
X100627000Y-99876250D01*
X100785750Y-100035000D01*
X101400000Y-100038072D01*
X101524482Y-100025812D01*
X101644180Y-99989502D01*
X101754494Y-99930537D01*
X101851185Y-99851185D01*
X101930537Y-99754494D01*
X101989502Y-99644180D01*
X101995056Y-99625873D01*
X102061495Y-99692312D01*
X102312905Y-99860299D01*
X102592257Y-99976011D01*
X102888816Y-100035000D01*
X103191184Y-100035000D01*
X103487743Y-99976011D01*
X103767095Y-99860299D01*
X104018505Y-99692312D01*
X104232312Y-99478505D01*
X104400299Y-99227095D01*
X104516011Y-98947743D01*
X104575000Y-98651184D01*
X104575000Y-98348816D01*
X104516011Y-98052257D01*
X104400299Y-97772905D01*
X104232312Y-97521495D01*
X104018505Y-97307688D01*
X103767095Y-97139701D01*
X103487743Y-97023989D01*
X103191184Y-96965000D01*
X102888816Y-96965000D01*
X102592257Y-97023989D01*
X102312905Y-97139701D01*
X102061495Y-97307688D01*
X101995056Y-97374127D01*
X101989502Y-97355820D01*
X101930537Y-97245506D01*
X101851185Y-97148815D01*
X101754494Y-97069463D01*
X101644180Y-97010498D01*
X101524482Y-96974188D01*
X101400000Y-96961928D01*
X100785750Y-96965000D01*
X100627000Y-97123750D01*
X100373000Y-97123750D01*
X100214250Y-96965000D01*
X99600000Y-96961928D01*
X99475518Y-96974188D01*
X99355820Y-97010498D01*
X99245506Y-97069463D01*
X99148815Y-97148815D01*
X99069463Y-97245506D01*
X99010498Y-97355820D01*
X98974188Y-97475518D01*
X98961928Y-97600000D01*
X94916965Y-97600000D01*
X95277723Y-95588891D01*
X95326487Y-95361361D01*
X95940231Y-92913106D01*
X96593261Y-90863589D01*
X120115000Y-90863589D01*
X120115000Y-91136411D01*
X120168225Y-91403989D01*
X120272629Y-91656043D01*
X120424201Y-91882886D01*
X120617114Y-92075799D01*
X120843957Y-92227371D01*
X120946873Y-92270000D01*
X120843957Y-92312629D01*
X120617114Y-92464201D01*
X120424201Y-92657114D01*
X120272629Y-92883957D01*
X120168225Y-93136011D01*
X120115000Y-93403589D01*
X120115000Y-93676411D01*
X120168225Y-93943989D01*
X120272629Y-94196043D01*
X120424201Y-94422886D01*
X120617114Y-94615799D01*
X120843957Y-94767371D01*
X120946873Y-94810000D01*
X120843957Y-94852629D01*
X120617114Y-95004201D01*
X120424201Y-95197114D01*
X120272629Y-95423957D01*
X120168225Y-95676011D01*
X120115000Y-95943589D01*
X120115000Y-96216411D01*
X120168225Y-96483989D01*
X120272629Y-96736043D01*
X120424201Y-96962886D01*
X120617114Y-97155799D01*
X120843957Y-97307371D01*
X120946873Y-97350000D01*
X120843957Y-97392629D01*
X120617114Y-97544201D01*
X120424201Y-97737114D01*
X120272629Y-97963957D01*
X120168225Y-98216011D01*
X120115000Y-98483589D01*
X120115000Y-98756411D01*
X120168225Y-99023989D01*
X120272629Y-99276043D01*
X120424201Y-99502886D01*
X120617114Y-99695799D01*
X120843957Y-99847371D01*
X120946873Y-99890000D01*
X120843957Y-99932629D01*
X120617114Y-100084201D01*
X120424201Y-100277114D01*
X120272629Y-100503957D01*
X120168225Y-100756011D01*
X120115000Y-101023589D01*
X120115000Y-101296411D01*
X120168225Y-101563989D01*
X120272629Y-101816043D01*
X120424201Y-102042886D01*
X120617114Y-102235799D01*
X120843957Y-102387371D01*
X120946873Y-102430000D01*
X120843957Y-102472629D01*
X120617114Y-102624201D01*
X120424201Y-102817114D01*
X120272629Y-103043957D01*
X120168225Y-103296011D01*
X120115000Y-103563589D01*
X120115000Y-103836411D01*
X120168225Y-104103989D01*
X120272629Y-104356043D01*
X120424201Y-104582886D01*
X120617114Y-104775799D01*
X120843957Y-104927371D01*
X120946873Y-104970000D01*
X120843957Y-105012629D01*
X120617114Y-105164201D01*
X120424201Y-105357114D01*
X120272629Y-105583957D01*
X120168225Y-105836011D01*
X120115000Y-106103589D01*
X120115000Y-106376411D01*
X120168225Y-106643989D01*
X120272629Y-106896043D01*
X120424201Y-107122886D01*
X120617114Y-107315799D01*
X120843957Y-107467371D01*
X120943279Y-107508511D01*
X120901168Y-107523723D01*
X120788137Y-107584140D01*
X120722612Y-107823007D01*
X121500000Y-108600395D01*
X121514143Y-108586253D01*
X121693748Y-108765858D01*
X121679605Y-108780000D01*
X122456993Y-109557388D01*
X122695860Y-109491863D01*
X122811760Y-109244884D01*
X122877250Y-108980040D01*
X122889812Y-108707508D01*
X122889296Y-108704097D01*
X123740001Y-109554803D01*
X123740000Y-114462677D01*
X123736324Y-114500000D01*
X123740000Y-114537322D01*
X123740000Y-114537332D01*
X123750997Y-114648985D01*
X123785383Y-114762342D01*
X123794454Y-114792246D01*
X123865026Y-114924276D01*
X123899709Y-114966537D01*
X123959999Y-115040001D01*
X123989003Y-115063804D01*
X139780001Y-130854803D01*
X139780001Y-133728760D01*
X139706185Y-133638815D01*
X139609494Y-133559463D01*
X139499180Y-133500498D01*
X139379482Y-133464188D01*
X139255000Y-133451928D01*
X137785750Y-133455000D01*
X137627000Y-133613750D01*
X137627000Y-135233000D01*
X137647000Y-135233000D01*
X137647000Y-135487000D01*
X137627000Y-135487000D01*
X137627000Y-137106250D01*
X137785750Y-137265000D01*
X139255000Y-137268072D01*
X139379482Y-137255812D01*
X139499180Y-137219502D01*
X139609494Y-137160537D01*
X139706185Y-137081185D01*
X139780001Y-136991240D01*
X139780000Y-143161687D01*
X139561495Y-143307688D01*
X139495056Y-143374127D01*
X139489502Y-143355820D01*
X139430537Y-143245506D01*
X139351185Y-143148815D01*
X139254494Y-143069463D01*
X139144180Y-143010498D01*
X139024482Y-142974188D01*
X138900000Y-142961928D01*
X138285750Y-142965000D01*
X138127000Y-143123750D01*
X138127000Y-144373000D01*
X138147000Y-144373000D01*
X138147000Y-144627000D01*
X138127000Y-144627000D01*
X138127000Y-145876250D01*
X138285750Y-146035000D01*
X138900000Y-146038072D01*
X139024482Y-146025812D01*
X139144180Y-145989502D01*
X139254494Y-145930537D01*
X139351185Y-145851185D01*
X139430537Y-145754494D01*
X139489502Y-145644180D01*
X139495056Y-145625873D01*
X139561495Y-145692312D01*
X139812905Y-145860299D01*
X140092257Y-145976011D01*
X140388816Y-146035000D01*
X140691184Y-146035000D01*
X140987743Y-145976011D01*
X141267095Y-145860299D01*
X141518505Y-145692312D01*
X141732312Y-145478505D01*
X141900299Y-145227095D01*
X142016011Y-144947743D01*
X142075000Y-144651184D01*
X142075000Y-144348816D01*
X142016011Y-144052257D01*
X141900299Y-143772905D01*
X141732312Y-143521495D01*
X141518505Y-143307688D01*
X141300000Y-143161687D01*
X141300000Y-130577333D01*
X141303677Y-130540000D01*
X141289003Y-130391014D01*
X141245546Y-130247753D01*
X141174974Y-130115724D01*
X141103799Y-130028997D01*
X141080001Y-129999999D01*
X141051003Y-129976201D01*
X138423618Y-127348816D01*
X161925000Y-127348816D01*
X161925000Y-127651184D01*
X161983989Y-127947743D01*
X162099701Y-128227095D01*
X162267688Y-128478505D01*
X162481495Y-128692312D01*
X162732905Y-128860299D01*
X163012257Y-128976011D01*
X163308816Y-129035000D01*
X163611184Y-129035000D01*
X163907743Y-128976011D01*
X164187095Y-128860299D01*
X164438505Y-128692312D01*
X164504944Y-128625873D01*
X164510498Y-128644180D01*
X164569463Y-128754494D01*
X164648815Y-128851185D01*
X164745506Y-128930537D01*
X164855820Y-128989502D01*
X164975518Y-129025812D01*
X165100000Y-129038072D01*
X165714250Y-129035000D01*
X165873000Y-128876250D01*
X165873000Y-127627000D01*
X166127000Y-127627000D01*
X166127000Y-128876250D01*
X166285750Y-129035000D01*
X166900000Y-129038072D01*
X167024482Y-129025812D01*
X167144180Y-128989502D01*
X167254494Y-128930537D01*
X167351185Y-128851185D01*
X167430537Y-128754494D01*
X167489502Y-128644180D01*
X167525812Y-128524482D01*
X167538072Y-128400000D01*
X167535000Y-127785750D01*
X167376250Y-127627000D01*
X166127000Y-127627000D01*
X165873000Y-127627000D01*
X165853000Y-127627000D01*
X165853000Y-127373000D01*
X165873000Y-127373000D01*
X165873000Y-126123750D01*
X166127000Y-126123750D01*
X166127000Y-127373000D01*
X167376250Y-127373000D01*
X167535000Y-127214250D01*
X167538072Y-126600000D01*
X167525812Y-126475518D01*
X167489502Y-126355820D01*
X167430537Y-126245506D01*
X167351185Y-126148815D01*
X167254494Y-126069463D01*
X167144180Y-126010498D01*
X167024482Y-125974188D01*
X166900000Y-125961928D01*
X166285750Y-125965000D01*
X166127000Y-126123750D01*
X165873000Y-126123750D01*
X165714250Y-125965000D01*
X165100000Y-125961928D01*
X164975518Y-125974188D01*
X164855820Y-126010498D01*
X164745506Y-126069463D01*
X164648815Y-126148815D01*
X164569463Y-126245506D01*
X164510498Y-126355820D01*
X164504944Y-126374127D01*
X164438505Y-126307688D01*
X164187095Y-126139701D01*
X163907743Y-126023989D01*
X163611184Y-125965000D01*
X163308816Y-125965000D01*
X163012257Y-126023989D01*
X162732905Y-126139701D01*
X162481495Y-126307688D01*
X162267688Y-126521495D01*
X162099701Y-126772905D01*
X161983989Y-127052257D01*
X161925000Y-127348816D01*
X138423618Y-127348816D01*
X125260000Y-114185199D01*
X125260000Y-109277325D01*
X125263676Y-109240000D01*
X125260000Y-109202675D01*
X125260000Y-109202667D01*
X125249003Y-109091014D01*
X125205546Y-108947753D01*
X125134974Y-108815724D01*
X125040001Y-108699999D01*
X125011003Y-108676201D01*
X122856167Y-106521365D01*
X122885000Y-106376411D01*
X122885000Y-106103589D01*
X122831775Y-105836011D01*
X122727371Y-105583957D01*
X122575799Y-105357114D01*
X122382886Y-105164201D01*
X122156043Y-105012629D01*
X122053127Y-104970000D01*
X122156043Y-104927371D01*
X122382886Y-104775799D01*
X122575799Y-104582886D01*
X122727371Y-104356043D01*
X122831775Y-104103989D01*
X122885000Y-103836411D01*
X122885000Y-103563589D01*
X122831775Y-103296011D01*
X122727371Y-103043957D01*
X122575799Y-102817114D01*
X122382886Y-102624201D01*
X122156043Y-102472629D01*
X122053127Y-102430000D01*
X122156043Y-102387371D01*
X122382886Y-102235799D01*
X122575799Y-102042886D01*
X122727371Y-101816043D01*
X122831775Y-101563989D01*
X122885000Y-101296411D01*
X122885000Y-101023589D01*
X122856167Y-100878635D01*
X122889803Y-100844999D01*
X127770524Y-100844999D01*
X127735000Y-101023589D01*
X127735000Y-101296411D01*
X127788225Y-101563989D01*
X127892629Y-101816043D01*
X128044201Y-102042886D01*
X128237114Y-102235799D01*
X128463957Y-102387371D01*
X128566873Y-102430000D01*
X128463957Y-102472629D01*
X128237114Y-102624201D01*
X128044201Y-102817114D01*
X127892629Y-103043957D01*
X127788225Y-103296011D01*
X127735000Y-103563589D01*
X127735000Y-103836411D01*
X127788225Y-104103989D01*
X127892629Y-104356043D01*
X128044201Y-104582886D01*
X128237114Y-104775799D01*
X128463957Y-104927371D01*
X128566873Y-104970000D01*
X128463957Y-105012629D01*
X128237114Y-105164201D01*
X128044201Y-105357114D01*
X127892629Y-105583957D01*
X127788225Y-105836011D01*
X127735000Y-106103589D01*
X127735000Y-106376411D01*
X127788225Y-106643989D01*
X127892629Y-106896043D01*
X128044201Y-107122886D01*
X128237114Y-107315799D01*
X128463957Y-107467371D01*
X128566873Y-107510000D01*
X128463957Y-107552629D01*
X128237114Y-107704201D01*
X128044201Y-107897114D01*
X127892629Y-108123957D01*
X127788225Y-108376011D01*
X127735000Y-108643589D01*
X127735000Y-108916411D01*
X127788225Y-109183989D01*
X127892629Y-109436043D01*
X128044201Y-109662886D01*
X128237114Y-109855799D01*
X128463957Y-110007371D01*
X128716011Y-110111775D01*
X128983589Y-110165000D01*
X129256411Y-110165000D01*
X129523989Y-110111775D01*
X129776043Y-110007371D01*
X130002886Y-109855799D01*
X130195799Y-109662886D01*
X130347371Y-109436043D01*
X130451775Y-109183989D01*
X130505000Y-108916411D01*
X130505000Y-108643589D01*
X130451775Y-108376011D01*
X130347371Y-108123957D01*
X130195799Y-107897114D01*
X130002886Y-107704201D01*
X129776043Y-107552629D01*
X129673127Y-107510000D01*
X129776043Y-107467371D01*
X130002886Y-107315799D01*
X130195799Y-107122886D01*
X130347371Y-106896043D01*
X130451775Y-106643989D01*
X130505000Y-106376411D01*
X130505000Y-106103589D01*
X130451775Y-105836011D01*
X130347371Y-105583957D01*
X130195799Y-105357114D01*
X130002886Y-105164201D01*
X129776043Y-105012629D01*
X129673127Y-104970000D01*
X129776043Y-104927371D01*
X130002886Y-104775799D01*
X130195799Y-104582886D01*
X130347371Y-104356043D01*
X130451775Y-104103989D01*
X130505000Y-103836411D01*
X130505000Y-103563589D01*
X130451775Y-103296011D01*
X130347371Y-103043957D01*
X130195799Y-102817114D01*
X130002886Y-102624201D01*
X129776043Y-102472629D01*
X129673127Y-102430000D01*
X129776043Y-102387371D01*
X130002886Y-102235799D01*
X130195799Y-102042886D01*
X130325290Y-101849089D01*
X132987203Y-104511003D01*
X133011001Y-104540001D01*
X133039999Y-104563799D01*
X133126726Y-104634974D01*
X133258755Y-104705546D01*
X133402016Y-104749003D01*
X133551002Y-104763677D01*
X133588335Y-104760000D01*
X135106928Y-104760000D01*
X135106928Y-107270000D01*
X135119188Y-107394482D01*
X135155498Y-107514180D01*
X135214463Y-107624494D01*
X135293815Y-107721185D01*
X135390506Y-107800537D01*
X135500820Y-107859502D01*
X135620518Y-107895812D01*
X135745000Y-107908072D01*
X136740000Y-107908072D01*
X136740001Y-116962668D01*
X136736324Y-117000000D01*
X136740001Y-117037333D01*
X136750998Y-117148986D01*
X136760286Y-117179605D01*
X136794454Y-117292246D01*
X136865026Y-117424276D01*
X136908224Y-117476912D01*
X136960000Y-117540001D01*
X136988998Y-117563799D01*
X138436201Y-119011003D01*
X138459999Y-119040001D01*
X138575724Y-119134974D01*
X138707753Y-119205546D01*
X138851014Y-119249003D01*
X138962667Y-119260000D01*
X138962676Y-119260000D01*
X138999999Y-119263676D01*
X139037322Y-119260000D01*
X156962678Y-119260000D01*
X157000000Y-119263676D01*
X157037322Y-119260000D01*
X157037333Y-119260000D01*
X157148986Y-119249003D01*
X157292247Y-119205546D01*
X157424276Y-119134974D01*
X157540001Y-119040001D01*
X157563804Y-119010997D01*
X158008624Y-118566177D01*
X158023088Y-118572168D01*
X158338967Y-118635000D01*
X158661033Y-118635000D01*
X158976912Y-118572168D01*
X159274463Y-118448918D01*
X159542252Y-118269987D01*
X159676826Y-118135413D01*
X160044192Y-118135413D01*
X160139956Y-118399814D01*
X160429571Y-118540704D01*
X160741108Y-118622384D01*
X161062595Y-118641718D01*
X161381675Y-118597961D01*
X161686088Y-118492795D01*
X161860044Y-118399814D01*
X161955808Y-118135413D01*
X161000000Y-117179605D01*
X160044192Y-118135413D01*
X159676826Y-118135413D01*
X159769987Y-118042252D01*
X159834925Y-117945065D01*
X159864587Y-117955808D01*
X160820395Y-117000000D01*
X161179605Y-117000000D01*
X162135413Y-117955808D01*
X162399814Y-117860044D01*
X162540704Y-117570429D01*
X162622384Y-117258892D01*
X162641718Y-116937405D01*
X162597961Y-116618325D01*
X162492795Y-116313912D01*
X162399814Y-116139956D01*
X162135413Y-116044192D01*
X161179605Y-117000000D01*
X160820395Y-117000000D01*
X159864587Y-116044192D01*
X159834925Y-116054935D01*
X159769987Y-115957748D01*
X159676826Y-115864587D01*
X160044192Y-115864587D01*
X161000000Y-116820395D01*
X161955808Y-115864587D01*
X161860044Y-115600186D01*
X161570429Y-115459296D01*
X161258892Y-115377616D01*
X160937405Y-115358282D01*
X160618325Y-115402039D01*
X160313912Y-115507205D01*
X160139956Y-115600186D01*
X160044192Y-115864587D01*
X159676826Y-115864587D01*
X159542252Y-115730013D01*
X159274463Y-115551082D01*
X158976912Y-115427832D01*
X158661033Y-115365000D01*
X158338967Y-115365000D01*
X158023088Y-115427832D01*
X157725537Y-115551082D01*
X157457748Y-115730013D01*
X157250000Y-115937761D01*
X157042252Y-115730013D01*
X156774463Y-115551082D01*
X156476912Y-115427832D01*
X156161033Y-115365000D01*
X155838967Y-115365000D01*
X155523088Y-115427832D01*
X155225537Y-115551082D01*
X154957748Y-115730013D01*
X154730013Y-115957748D01*
X154551082Y-116225537D01*
X154427832Y-116523088D01*
X154365000Y-116838967D01*
X154365000Y-117161033D01*
X154427832Y-117476912D01*
X154536807Y-117740000D01*
X139314802Y-117740000D01*
X138260000Y-116685199D01*
X138260000Y-107908072D01*
X139255000Y-107908072D01*
X139379482Y-107895812D01*
X139499180Y-107859502D01*
X139609494Y-107800537D01*
X139706185Y-107721185D01*
X139785537Y-107624494D01*
X139844502Y-107514180D01*
X139880812Y-107394482D01*
X139893072Y-107270000D01*
X139893072Y-107200000D01*
X147061928Y-107200000D01*
X147061928Y-108800000D01*
X147074188Y-108924482D01*
X147110498Y-109044180D01*
X147169463Y-109154494D01*
X147248815Y-109251185D01*
X147345506Y-109330537D01*
X147455820Y-109389502D01*
X147575518Y-109425812D01*
X147700000Y-109438072D01*
X149300000Y-109438072D01*
X149424482Y-109425812D01*
X149544180Y-109389502D01*
X149654494Y-109330537D01*
X149751185Y-109251185D01*
X149761807Y-109238242D01*
X150013996Y-109357571D01*
X150288184Y-109426300D01*
X150570512Y-109440217D01*
X150850130Y-109398787D01*
X151116292Y-109303603D01*
X151241514Y-109236671D01*
X151313097Y-108992702D01*
X150500000Y-108179605D01*
X150485858Y-108193748D01*
X150306253Y-108014143D01*
X150320395Y-108000000D01*
X150679605Y-108000000D01*
X151492702Y-108813097D01*
X151736671Y-108741514D01*
X151857571Y-108486004D01*
X151926300Y-108211816D01*
X151940217Y-107929488D01*
X151898787Y-107649870D01*
X151803603Y-107383708D01*
X151736671Y-107258486D01*
X151537340Y-107200000D01*
X155561928Y-107200000D01*
X155561928Y-108800000D01*
X155574188Y-108924482D01*
X155610498Y-109044180D01*
X155669463Y-109154494D01*
X155748815Y-109251185D01*
X155845506Y-109330537D01*
X155955820Y-109389502D01*
X156075518Y-109425812D01*
X156200000Y-109438072D01*
X157800000Y-109438072D01*
X157924482Y-109425812D01*
X158044180Y-109389502D01*
X158154494Y-109330537D01*
X158251185Y-109251185D01*
X158261807Y-109238242D01*
X158513996Y-109357571D01*
X158788184Y-109426300D01*
X159070512Y-109440217D01*
X159350130Y-109398787D01*
X159616292Y-109303603D01*
X159741514Y-109236671D01*
X159813097Y-108992702D01*
X159000000Y-108179605D01*
X158985858Y-108193748D01*
X158806253Y-108014143D01*
X158820395Y-108000000D01*
X159179605Y-108000000D01*
X159992702Y-108813097D01*
X160236671Y-108741514D01*
X160357571Y-108486004D01*
X160426300Y-108211816D01*
X160440217Y-107929488D01*
X160398787Y-107649870D01*
X160303603Y-107383708D01*
X160236671Y-107258486D01*
X159992702Y-107186903D01*
X159179605Y-108000000D01*
X158820395Y-108000000D01*
X158806253Y-107985858D01*
X158985858Y-107806253D01*
X159000000Y-107820395D01*
X159813097Y-107007298D01*
X159741514Y-106763329D01*
X159486004Y-106642429D01*
X159211816Y-106573700D01*
X158929488Y-106559783D01*
X158649870Y-106601213D01*
X158383708Y-106696397D01*
X158261691Y-106761616D01*
X158251185Y-106748815D01*
X158154494Y-106669463D01*
X158044180Y-106610498D01*
X157924482Y-106574188D01*
X157800000Y-106561928D01*
X156200000Y-106561928D01*
X156075518Y-106574188D01*
X155955820Y-106610498D01*
X155845506Y-106669463D01*
X155748815Y-106748815D01*
X155669463Y-106845506D01*
X155610498Y-106955820D01*
X155574188Y-107075518D01*
X155561928Y-107200000D01*
X151537340Y-107200000D01*
X151492702Y-107186903D01*
X150679605Y-108000000D01*
X150320395Y-108000000D01*
X150306253Y-107985858D01*
X150485858Y-107806253D01*
X150500000Y-107820395D01*
X151313097Y-107007298D01*
X151241514Y-106763329D01*
X150986004Y-106642429D01*
X150711816Y-106573700D01*
X150429488Y-106559783D01*
X150149870Y-106601213D01*
X149883708Y-106696397D01*
X149761691Y-106761616D01*
X149751185Y-106748815D01*
X149654494Y-106669463D01*
X149544180Y-106610498D01*
X149424482Y-106574188D01*
X149300000Y-106561928D01*
X147700000Y-106561928D01*
X147575518Y-106574188D01*
X147455820Y-106610498D01*
X147345506Y-106669463D01*
X147248815Y-106748815D01*
X147169463Y-106845506D01*
X147110498Y-106955820D01*
X147074188Y-107075518D01*
X147061928Y-107200000D01*
X139893072Y-107200000D01*
X139893072Y-104760000D01*
X173121687Y-104760000D01*
X173267688Y-104978505D01*
X173481495Y-105192312D01*
X173732905Y-105360299D01*
X174012257Y-105476011D01*
X174308816Y-105535000D01*
X174611184Y-105535000D01*
X174907743Y-105476011D01*
X175187095Y-105360299D01*
X175438505Y-105192312D01*
X175504944Y-105125873D01*
X175510498Y-105144180D01*
X175569463Y-105254494D01*
X175648815Y-105351185D01*
X175745506Y-105430537D01*
X175855820Y-105489502D01*
X175975518Y-105525812D01*
X176100000Y-105538072D01*
X176714250Y-105535000D01*
X176873000Y-105376250D01*
X176873000Y-104127000D01*
X177127000Y-104127000D01*
X177127000Y-105376250D01*
X177285750Y-105535000D01*
X177900000Y-105538072D01*
X178024482Y-105525812D01*
X178144180Y-105489502D01*
X178254494Y-105430537D01*
X178351185Y-105351185D01*
X178430537Y-105254494D01*
X178489502Y-105144180D01*
X178525812Y-105024482D01*
X178538072Y-104900000D01*
X178535000Y-104285750D01*
X178376250Y-104127000D01*
X177127000Y-104127000D01*
X176873000Y-104127000D01*
X176853000Y-104127000D01*
X176853000Y-103873000D01*
X176873000Y-103873000D01*
X176873000Y-102623750D01*
X177127000Y-102623750D01*
X177127000Y-103873000D01*
X178376250Y-103873000D01*
X178535000Y-103714250D01*
X178538072Y-103100000D01*
X178525812Y-102975518D01*
X178489502Y-102855820D01*
X178430537Y-102745506D01*
X178351185Y-102648815D01*
X178254494Y-102569463D01*
X178144180Y-102510498D01*
X178024482Y-102474188D01*
X177900000Y-102461928D01*
X177285750Y-102465000D01*
X177127000Y-102623750D01*
X176873000Y-102623750D01*
X176714250Y-102465000D01*
X176100000Y-102461928D01*
X175975518Y-102474188D01*
X175855820Y-102510498D01*
X175745506Y-102569463D01*
X175648815Y-102648815D01*
X175569463Y-102745506D01*
X175510498Y-102855820D01*
X175504944Y-102874127D01*
X175438505Y-102807688D01*
X175187095Y-102639701D01*
X174907743Y-102523989D01*
X174611184Y-102465000D01*
X174308816Y-102465000D01*
X174012257Y-102523989D01*
X173732905Y-102639701D01*
X173481495Y-102807688D01*
X173267688Y-103021495D01*
X173121687Y-103240000D01*
X133865804Y-103240000D01*
X132118506Y-101492702D01*
X154186903Y-101492702D01*
X154258486Y-101736671D01*
X154513996Y-101857571D01*
X154788184Y-101926300D01*
X155070512Y-101940217D01*
X155350130Y-101898787D01*
X155616292Y-101803603D01*
X155741514Y-101736671D01*
X155813097Y-101492702D01*
X155000000Y-100679605D01*
X154186903Y-101492702D01*
X132118506Y-101492702D01*
X131196316Y-100570512D01*
X153559783Y-100570512D01*
X153601213Y-100850130D01*
X153696397Y-101116292D01*
X153763329Y-101241514D01*
X154007298Y-101313097D01*
X154820395Y-100500000D01*
X155179605Y-100500000D01*
X155992702Y-101313097D01*
X156236671Y-101241514D01*
X156357571Y-100986004D01*
X156426300Y-100711816D01*
X156440217Y-100429488D01*
X156398787Y-100149870D01*
X156303603Y-99883708D01*
X156236671Y-99758486D01*
X155992702Y-99686903D01*
X155179605Y-100500000D01*
X154820395Y-100500000D01*
X154007298Y-99686903D01*
X153763329Y-99758486D01*
X153642429Y-100013996D01*
X153573700Y-100288184D01*
X153559783Y-100570512D01*
X131196316Y-100570512D01*
X130199805Y-99574002D01*
X130176002Y-99544998D01*
X130168474Y-99538820D01*
X130193451Y-99513843D01*
X130076995Y-99397387D01*
X130315860Y-99331863D01*
X130431760Y-99084884D01*
X130497250Y-98820040D01*
X130509812Y-98547508D01*
X130468965Y-98277762D01*
X130376277Y-98021168D01*
X130315860Y-97908137D01*
X130076993Y-97842612D01*
X129299605Y-98620000D01*
X129313748Y-98634143D01*
X129134143Y-98813748D01*
X129120000Y-98799605D01*
X129105858Y-98813748D01*
X128926253Y-98634143D01*
X128940395Y-98620000D01*
X128163007Y-97842612D01*
X127924140Y-97908137D01*
X127808240Y-98155116D01*
X127742750Y-98419960D01*
X127730188Y-98692492D01*
X127771035Y-98962238D01*
X127863723Y-99218832D01*
X127920471Y-99324999D01*
X122694660Y-99324999D01*
X122727371Y-99276043D01*
X122831775Y-99023989D01*
X122885000Y-98756411D01*
X122885000Y-98483589D01*
X122831775Y-98216011D01*
X122727371Y-97963957D01*
X122575799Y-97737114D01*
X122382886Y-97544201D01*
X122156043Y-97392629D01*
X122053127Y-97350000D01*
X122156043Y-97307371D01*
X122382886Y-97155799D01*
X122575799Y-96962886D01*
X122727371Y-96736043D01*
X122831775Y-96483989D01*
X122885000Y-96216411D01*
X122885000Y-95943589D01*
X122856167Y-95798635D01*
X124011003Y-94643799D01*
X124040001Y-94620001D01*
X124078708Y-94572836D01*
X124134974Y-94504277D01*
X124205546Y-94372247D01*
X124219712Y-94325546D01*
X124249003Y-94228986D01*
X124260000Y-94117333D01*
X124260000Y-94117324D01*
X124263676Y-94080001D01*
X124260000Y-94042678D01*
X124260000Y-90863589D01*
X127735000Y-90863589D01*
X127735000Y-91136411D01*
X127788225Y-91403989D01*
X127892629Y-91656043D01*
X128044201Y-91882886D01*
X128237114Y-92075799D01*
X128463957Y-92227371D01*
X128566873Y-92270000D01*
X128463957Y-92312629D01*
X128237114Y-92464201D01*
X128044201Y-92657114D01*
X127892629Y-92883957D01*
X127788225Y-93136011D01*
X127735000Y-93403589D01*
X127735000Y-93676411D01*
X127788225Y-93943989D01*
X127892629Y-94196043D01*
X128044201Y-94422886D01*
X128237114Y-94615799D01*
X128463957Y-94767371D01*
X128566873Y-94810000D01*
X128463957Y-94852629D01*
X128237114Y-95004201D01*
X128044201Y-95197114D01*
X127892629Y-95423957D01*
X127788225Y-95676011D01*
X127735000Y-95943589D01*
X127735000Y-96216411D01*
X127788225Y-96483989D01*
X127892629Y-96736043D01*
X128044201Y-96962886D01*
X128237114Y-97155799D01*
X128463957Y-97307371D01*
X128563279Y-97348511D01*
X128521168Y-97363723D01*
X128408137Y-97424140D01*
X128342612Y-97663007D01*
X129120000Y-98440395D01*
X129897388Y-97663007D01*
X129831863Y-97424140D01*
X129673523Y-97349836D01*
X129776043Y-97307371D01*
X130002886Y-97155799D01*
X130195799Y-96962886D01*
X130347371Y-96736043D01*
X130451775Y-96483989D01*
X130505000Y-96216411D01*
X130505000Y-96199801D01*
X132643833Y-98338635D01*
X132615000Y-98483589D01*
X132615000Y-98756411D01*
X132668225Y-99023989D01*
X132772629Y-99276043D01*
X132924201Y-99502886D01*
X133117114Y-99695799D01*
X133343957Y-99847371D01*
X133596011Y-99951775D01*
X133863589Y-100005000D01*
X134136411Y-100005000D01*
X134403989Y-99951775D01*
X134656043Y-99847371D01*
X134882886Y-99695799D01*
X135075799Y-99502886D01*
X135157909Y-99380000D01*
X135342678Y-99380000D01*
X135380000Y-99383676D01*
X135417322Y-99380000D01*
X135417333Y-99380000D01*
X135528986Y-99369003D01*
X135672247Y-99325546D01*
X135804276Y-99254974D01*
X135920001Y-99160001D01*
X135943804Y-99130997D01*
X139511004Y-95563798D01*
X139540001Y-95540001D01*
X139591366Y-95477413D01*
X139634974Y-95424277D01*
X139705546Y-95292247D01*
X139708271Y-95283264D01*
X139749003Y-95148986D01*
X139760000Y-95037333D01*
X139760000Y-95037324D01*
X139763676Y-95000001D01*
X139760000Y-94962678D01*
X139760000Y-93934801D01*
X140235000Y-93459801D01*
X140235000Y-93676411D01*
X140288225Y-93943989D01*
X140392629Y-94196043D01*
X140544201Y-94422886D01*
X140737114Y-94615799D01*
X140963957Y-94767371D01*
X141066873Y-94810000D01*
X140963957Y-94852629D01*
X140737114Y-95004201D01*
X140544201Y-95197114D01*
X140392629Y-95423957D01*
X140288225Y-95676011D01*
X140235000Y-95943589D01*
X140235000Y-96216411D01*
X140288225Y-96483989D01*
X140392629Y-96736043D01*
X140544201Y-96962886D01*
X140737114Y-97155799D01*
X140963957Y-97307371D01*
X141066873Y-97350000D01*
X140963957Y-97392629D01*
X140737114Y-97544201D01*
X140544201Y-97737114D01*
X140392629Y-97963957D01*
X140288225Y-98216011D01*
X140235000Y-98483589D01*
X140235000Y-98756411D01*
X140288225Y-99023989D01*
X140392629Y-99276043D01*
X140544201Y-99502886D01*
X140737114Y-99695799D01*
X140963957Y-99847371D01*
X141216011Y-99951775D01*
X141483589Y-100005000D01*
X141756411Y-100005000D01*
X142023989Y-99951775D01*
X142276043Y-99847371D01*
X142502886Y-99695799D01*
X142691387Y-99507298D01*
X154186903Y-99507298D01*
X155000000Y-100320395D01*
X155813097Y-99507298D01*
X155741514Y-99263329D01*
X155486004Y-99142429D01*
X155211816Y-99073700D01*
X154929488Y-99059783D01*
X154649870Y-99101213D01*
X154383708Y-99196397D01*
X154258486Y-99263329D01*
X154186903Y-99507298D01*
X142691387Y-99507298D01*
X142695799Y-99502886D01*
X142847371Y-99276043D01*
X142951775Y-99023989D01*
X143005000Y-98756411D01*
X143005000Y-98483589D01*
X142951775Y-98216011D01*
X142847371Y-97963957D01*
X142777017Y-97858665D01*
X151065000Y-97858665D01*
X151065000Y-98141335D01*
X151120147Y-98418574D01*
X151228320Y-98679727D01*
X151385363Y-98914759D01*
X151585241Y-99114637D01*
X151820273Y-99271680D01*
X152081426Y-99379853D01*
X152358665Y-99435000D01*
X152641335Y-99435000D01*
X152918574Y-99379853D01*
X153179727Y-99271680D01*
X153414759Y-99114637D01*
X153614637Y-98914759D01*
X153771680Y-98679727D01*
X153879853Y-98418574D01*
X153935000Y-98141335D01*
X153935000Y-97858665D01*
X153879853Y-97581426D01*
X153771680Y-97320273D01*
X153614637Y-97085241D01*
X153414759Y-96885363D01*
X153179727Y-96728320D01*
X152918574Y-96620147D01*
X152641335Y-96565000D01*
X152358665Y-96565000D01*
X152081426Y-96620147D01*
X151820273Y-96728320D01*
X151585241Y-96885363D01*
X151385363Y-97085241D01*
X151228320Y-97320273D01*
X151120147Y-97581426D01*
X151065000Y-97858665D01*
X142777017Y-97858665D01*
X142695799Y-97737114D01*
X142502886Y-97544201D01*
X142276043Y-97392629D01*
X142173127Y-97350000D01*
X142276043Y-97307371D01*
X142502886Y-97155799D01*
X142695799Y-96962886D01*
X142847371Y-96736043D01*
X142951775Y-96483989D01*
X143005000Y-96216411D01*
X143005000Y-95943589D01*
X142951775Y-95676011D01*
X142847371Y-95423957D01*
X142803745Y-95358665D01*
X153565000Y-95358665D01*
X153565000Y-95641335D01*
X153620147Y-95918574D01*
X153728320Y-96179727D01*
X153885363Y-96414759D01*
X154085241Y-96614637D01*
X154320273Y-96771680D01*
X154581426Y-96879853D01*
X154858665Y-96935000D01*
X155141335Y-96935000D01*
X155418574Y-96879853D01*
X155679727Y-96771680D01*
X155914759Y-96614637D01*
X156114637Y-96414759D01*
X156271680Y-96179727D01*
X156379853Y-95918574D01*
X156435000Y-95641335D01*
X156435000Y-95358665D01*
X156379853Y-95081426D01*
X156271680Y-94820273D01*
X156114637Y-94585241D01*
X155914759Y-94385363D01*
X155679727Y-94228320D01*
X155418574Y-94120147D01*
X155141335Y-94065000D01*
X154858665Y-94065000D01*
X154581426Y-94120147D01*
X154320273Y-94228320D01*
X154085241Y-94385363D01*
X153885363Y-94585241D01*
X153728320Y-94820273D01*
X153620147Y-95081426D01*
X153565000Y-95358665D01*
X142803745Y-95358665D01*
X142695799Y-95197114D01*
X142502886Y-95004201D01*
X142276043Y-94852629D01*
X142173127Y-94810000D01*
X142276043Y-94767371D01*
X142502886Y-94615799D01*
X142695799Y-94422886D01*
X142847371Y-94196043D01*
X142951775Y-93943989D01*
X143005000Y-93676411D01*
X143005000Y-93403589D01*
X142951775Y-93136011D01*
X142847371Y-92883957D01*
X142695799Y-92657114D01*
X142502886Y-92464201D01*
X142276043Y-92312629D01*
X142173127Y-92270000D01*
X142276043Y-92227371D01*
X142502886Y-92075799D01*
X142695799Y-91882886D01*
X142847371Y-91656043D01*
X142951775Y-91403989D01*
X143005000Y-91136411D01*
X143005000Y-90863589D01*
X142951775Y-90596011D01*
X142847371Y-90343957D01*
X142695799Y-90117114D01*
X142502886Y-89924201D01*
X142276043Y-89772629D01*
X142023989Y-89668225D01*
X141756411Y-89615000D01*
X141483589Y-89615000D01*
X141216011Y-89668225D01*
X140963957Y-89772629D01*
X140737114Y-89924201D01*
X140544201Y-90117114D01*
X140392629Y-90343957D01*
X140288225Y-90596011D01*
X140235000Y-90863589D01*
X140235000Y-91136411D01*
X140263833Y-91281365D01*
X138488998Y-93056201D01*
X138460000Y-93079999D01*
X138436202Y-93108997D01*
X138436201Y-93108998D01*
X138365026Y-93195724D01*
X138294454Y-93327754D01*
X138271451Y-93403589D01*
X138250998Y-93471014D01*
X138240001Y-93582667D01*
X138236324Y-93620000D01*
X138240001Y-93657332D01*
X138240000Y-94685198D01*
X135120774Y-97804424D01*
X135075799Y-97737114D01*
X134882886Y-97544201D01*
X134656043Y-97392629D01*
X134553127Y-97350000D01*
X134656043Y-97307371D01*
X134882886Y-97155799D01*
X135075799Y-96962886D01*
X135227371Y-96736043D01*
X135331775Y-96483989D01*
X135385000Y-96216411D01*
X135385000Y-95943589D01*
X135331775Y-95676011D01*
X135227371Y-95423957D01*
X135075799Y-95197114D01*
X134882886Y-95004201D01*
X134656043Y-94852629D01*
X134553127Y-94810000D01*
X134656043Y-94767371D01*
X134882886Y-94615799D01*
X135075799Y-94422886D01*
X135227371Y-94196043D01*
X135331775Y-93943989D01*
X135385000Y-93676411D01*
X135385000Y-93403589D01*
X135331775Y-93136011D01*
X135227371Y-92883957D01*
X135075799Y-92657114D01*
X134882886Y-92464201D01*
X134656043Y-92312629D01*
X134556721Y-92271489D01*
X134598832Y-92256277D01*
X134711863Y-92195860D01*
X134777388Y-91956993D01*
X134000000Y-91179605D01*
X133222612Y-91956993D01*
X133288137Y-92195860D01*
X133446477Y-92270164D01*
X133343957Y-92312629D01*
X133117114Y-92464201D01*
X132924201Y-92657114D01*
X132772629Y-92883957D01*
X132668225Y-93136011D01*
X132615000Y-93403589D01*
X132615000Y-93676411D01*
X132668225Y-93943989D01*
X132772629Y-94196043D01*
X132924201Y-94422886D01*
X133117114Y-94615799D01*
X133343957Y-94767371D01*
X133446873Y-94810000D01*
X133343957Y-94852629D01*
X133117114Y-95004201D01*
X132924201Y-95197114D01*
X132772629Y-95423957D01*
X132668225Y-95676011D01*
X132615000Y-95943589D01*
X132615000Y-96160199D01*
X131760000Y-95305199D01*
X131760000Y-92917322D01*
X131763676Y-92879999D01*
X131760000Y-92842676D01*
X131760000Y-92842667D01*
X131749003Y-92731014D01*
X131705546Y-92587753D01*
X131634974Y-92455724D01*
X131589522Y-92400340D01*
X131563799Y-92368996D01*
X131563795Y-92368992D01*
X131540001Y-92339999D01*
X131511008Y-92316205D01*
X130476167Y-91281365D01*
X130505000Y-91136411D01*
X130505000Y-91072492D01*
X132610188Y-91072492D01*
X132651035Y-91342238D01*
X132743723Y-91598832D01*
X132804140Y-91711863D01*
X133043007Y-91777388D01*
X133820395Y-91000000D01*
X134179605Y-91000000D01*
X134956993Y-91777388D01*
X135195860Y-91711863D01*
X135311760Y-91464884D01*
X135377250Y-91200040D01*
X135389812Y-90927508D01*
X135348965Y-90657762D01*
X135256277Y-90401168D01*
X135195860Y-90288137D01*
X134956993Y-90222612D01*
X134179605Y-91000000D01*
X133820395Y-91000000D01*
X133043007Y-90222612D01*
X132804140Y-90288137D01*
X132688240Y-90535116D01*
X132622750Y-90799960D01*
X132610188Y-91072492D01*
X130505000Y-91072492D01*
X130505000Y-90863589D01*
X130451775Y-90596011D01*
X130347371Y-90343957D01*
X130195799Y-90117114D01*
X130121692Y-90043007D01*
X133222612Y-90043007D01*
X134000000Y-90820395D01*
X134777388Y-90043007D01*
X134711863Y-89804140D01*
X134464884Y-89688240D01*
X134200040Y-89622750D01*
X133927508Y-89610188D01*
X133657762Y-89651035D01*
X133401168Y-89743723D01*
X133288137Y-89804140D01*
X133222612Y-90043007D01*
X130121692Y-90043007D01*
X130002886Y-89924201D01*
X129776043Y-89772629D01*
X129523989Y-89668225D01*
X129256411Y-89615000D01*
X128983589Y-89615000D01*
X128716011Y-89668225D01*
X128463957Y-89772629D01*
X128237114Y-89924201D01*
X128044201Y-90117114D01*
X127892629Y-90343957D01*
X127788225Y-90596011D01*
X127735000Y-90863589D01*
X124260000Y-90863589D01*
X124260000Y-88358665D01*
X145065000Y-88358665D01*
X145065000Y-88641335D01*
X145120147Y-88918574D01*
X145228320Y-89179727D01*
X145385363Y-89414759D01*
X145585241Y-89614637D01*
X145820273Y-89771680D01*
X146081426Y-89879853D01*
X146358665Y-89935000D01*
X146641335Y-89935000D01*
X146918574Y-89879853D01*
X147179727Y-89771680D01*
X147414759Y-89614637D01*
X147614637Y-89414759D01*
X147771680Y-89179727D01*
X147879853Y-88918574D01*
X147935000Y-88641335D01*
X147935000Y-88358665D01*
X157765000Y-88358665D01*
X157765000Y-88641335D01*
X157820147Y-88918574D01*
X157928320Y-89179727D01*
X158085363Y-89414759D01*
X158285241Y-89614637D01*
X158520273Y-89771680D01*
X158781426Y-89879853D01*
X159058665Y-89935000D01*
X159341335Y-89935000D01*
X159618574Y-89879853D01*
X159879727Y-89771680D01*
X160114759Y-89614637D01*
X160314637Y-89414759D01*
X160471680Y-89179727D01*
X160579853Y-88918574D01*
X160635000Y-88641335D01*
X160635000Y-88358665D01*
X160579853Y-88081426D01*
X160471680Y-87820273D01*
X160314637Y-87585241D01*
X160114759Y-87385363D01*
X159879727Y-87228320D01*
X159618574Y-87120147D01*
X159341335Y-87065000D01*
X159058665Y-87065000D01*
X158781426Y-87120147D01*
X158520273Y-87228320D01*
X158285241Y-87385363D01*
X158085363Y-87585241D01*
X157928320Y-87820273D01*
X157820147Y-88081426D01*
X157765000Y-88358665D01*
X147935000Y-88358665D01*
X147879853Y-88081426D01*
X147771680Y-87820273D01*
X147614637Y-87585241D01*
X147414759Y-87385363D01*
X147179727Y-87228320D01*
X146918574Y-87120147D01*
X146641335Y-87065000D01*
X146358665Y-87065000D01*
X146081426Y-87120147D01*
X145820273Y-87228320D01*
X145585241Y-87385363D01*
X145385363Y-87585241D01*
X145228320Y-87820273D01*
X145120147Y-88081426D01*
X145065000Y-88358665D01*
X124260000Y-88358665D01*
X124260000Y-84854801D01*
X132265985Y-76848816D01*
X160925000Y-76848816D01*
X160925000Y-77151184D01*
X160983989Y-77447743D01*
X161099701Y-77727095D01*
X161267688Y-77978505D01*
X161481495Y-78192312D01*
X161732905Y-78360299D01*
X162012257Y-78476011D01*
X162308816Y-78535000D01*
X162611184Y-78535000D01*
X162907743Y-78476011D01*
X163187095Y-78360299D01*
X163438505Y-78192312D01*
X163504944Y-78125873D01*
X163510498Y-78144180D01*
X163569463Y-78254494D01*
X163648815Y-78351185D01*
X163745506Y-78430537D01*
X163855820Y-78489502D01*
X163975518Y-78525812D01*
X164100000Y-78538072D01*
X164714250Y-78535000D01*
X164873000Y-78376250D01*
X164873000Y-77127000D01*
X165127000Y-77127000D01*
X165127000Y-78376250D01*
X165285750Y-78535000D01*
X165900000Y-78538072D01*
X166024482Y-78525812D01*
X166144180Y-78489502D01*
X166254494Y-78430537D01*
X166351185Y-78351185D01*
X166430537Y-78254494D01*
X166489502Y-78144180D01*
X166525812Y-78024482D01*
X166538072Y-77900000D01*
X166535000Y-77285750D01*
X166376250Y-77127000D01*
X165127000Y-77127000D01*
X164873000Y-77127000D01*
X164853000Y-77127000D01*
X164853000Y-76873000D01*
X164873000Y-76873000D01*
X164873000Y-75623750D01*
X165127000Y-75623750D01*
X165127000Y-76873000D01*
X166376250Y-76873000D01*
X166535000Y-76714250D01*
X166538072Y-76100000D01*
X166525812Y-75975518D01*
X166489502Y-75855820D01*
X166430537Y-75745506D01*
X166351185Y-75648815D01*
X166254494Y-75569463D01*
X166144180Y-75510498D01*
X166024482Y-75474188D01*
X165900000Y-75461928D01*
X165285750Y-75465000D01*
X165127000Y-75623750D01*
X164873000Y-75623750D01*
X164714250Y-75465000D01*
X164100000Y-75461928D01*
X163975518Y-75474188D01*
X163855820Y-75510498D01*
X163745506Y-75569463D01*
X163648815Y-75648815D01*
X163569463Y-75745506D01*
X163510498Y-75855820D01*
X163504944Y-75874127D01*
X163438505Y-75807688D01*
X163187095Y-75639701D01*
X162907743Y-75523989D01*
X162611184Y-75465000D01*
X162308816Y-75465000D01*
X162012257Y-75523989D01*
X161732905Y-75639701D01*
X161481495Y-75807688D01*
X161267688Y-76021495D01*
X161099701Y-76272905D01*
X160983989Y-76552257D01*
X160925000Y-76848816D01*
X132265985Y-76848816D01*
X139131070Y-69983731D01*
X139388816Y-70035000D01*
X139691184Y-70035000D01*
X139987743Y-69976011D01*
X140267095Y-69860299D01*
X140518505Y-69692312D01*
X140732312Y-69478505D01*
X140900299Y-69227095D01*
X141016011Y-68947743D01*
X141075000Y-68651184D01*
X141075000Y-68348816D01*
X141016011Y-68052257D01*
X140900299Y-67772905D01*
X140732312Y-67521495D01*
X140518505Y-67307688D01*
X140267095Y-67139701D01*
X139987743Y-67023989D01*
X139691184Y-66965000D01*
X139388816Y-66965000D01*
X139092257Y-67023989D01*
X138812905Y-67139701D01*
X138561495Y-67307688D01*
X138495056Y-67374127D01*
X138489502Y-67355820D01*
X138430537Y-67245506D01*
X138351185Y-67148815D01*
X138254494Y-67069463D01*
X138144180Y-67010498D01*
X138024482Y-66974188D01*
X137900000Y-66961928D01*
X137285750Y-66965000D01*
X137127000Y-67123750D01*
X137127000Y-68373000D01*
X137147000Y-68373000D01*
X137147000Y-68627000D01*
X137127000Y-68627000D01*
X137127000Y-68647000D01*
X136873000Y-68647000D01*
X136873000Y-68627000D01*
X135623750Y-68627000D01*
X135465000Y-68785750D01*
X135461928Y-69400000D01*
X135474188Y-69524482D01*
X135510498Y-69644180D01*
X135569463Y-69754494D01*
X135648815Y-69851185D01*
X135745506Y-69930537D01*
X135855820Y-69989502D01*
X135975518Y-70025812D01*
X136100000Y-70038072D01*
X136714250Y-70035000D01*
X136872998Y-69876252D01*
X136872998Y-70035000D01*
X136930198Y-70035000D01*
X122989003Y-83976196D01*
X122959999Y-83999999D01*
X122904871Y-84067174D01*
X122865026Y-84115724D01*
X122794455Y-84247753D01*
X122794454Y-84247754D01*
X122750997Y-84391015D01*
X122740000Y-84502668D01*
X122740000Y-84502678D01*
X122736324Y-84540000D01*
X122740000Y-84577322D01*
X122740001Y-90374448D01*
X122727371Y-90343957D01*
X122575799Y-90117114D01*
X122382886Y-89924201D01*
X122156043Y-89772629D01*
X121903989Y-89668225D01*
X121636411Y-89615000D01*
X121363589Y-89615000D01*
X121096011Y-89668225D01*
X120843957Y-89772629D01*
X120617114Y-89924201D01*
X120424201Y-90117114D01*
X120272629Y-90343957D01*
X120168225Y-90596011D01*
X120115000Y-90863589D01*
X96593261Y-90863589D01*
X96706632Y-90507779D01*
X96748805Y-90389188D01*
X97725511Y-87887841D01*
X98844773Y-85446455D01*
X98846535Y-85442889D01*
X100875594Y-81740777D01*
X102233889Y-79640433D01*
X103100323Y-78434017D01*
X104664704Y-76465918D01*
X105161379Y-75900000D01*
X112961928Y-75900000D01*
X112974188Y-76024482D01*
X113010498Y-76144180D01*
X113069463Y-76254494D01*
X113148815Y-76351185D01*
X113245506Y-76430537D01*
X113355820Y-76489502D01*
X113475518Y-76525812D01*
X113600000Y-76538072D01*
X114214250Y-76535000D01*
X114373000Y-76376250D01*
X114373000Y-75127000D01*
X113123750Y-75127000D01*
X112965000Y-75285750D01*
X112961928Y-75900000D01*
X105161379Y-75900000D01*
X105641197Y-75353290D01*
X106881989Y-74100000D01*
X112961928Y-74100000D01*
X112965000Y-74714250D01*
X113123750Y-74873000D01*
X114373000Y-74873000D01*
X114373000Y-73623750D01*
X114627000Y-73623750D01*
X114627000Y-74873000D01*
X114647000Y-74873000D01*
X114647000Y-75127000D01*
X114627000Y-75127000D01*
X114627000Y-76376250D01*
X114785750Y-76535000D01*
X115400000Y-76538072D01*
X115524482Y-76525812D01*
X115644180Y-76489502D01*
X115754494Y-76430537D01*
X115851185Y-76351185D01*
X115930537Y-76254494D01*
X115989502Y-76144180D01*
X115995056Y-76125873D01*
X116061495Y-76192312D01*
X116312905Y-76360299D01*
X116592257Y-76476011D01*
X116888816Y-76535000D01*
X117191184Y-76535000D01*
X117487743Y-76476011D01*
X117767095Y-76360299D01*
X118018505Y-76192312D01*
X118232312Y-75978505D01*
X118400299Y-75727095D01*
X118516011Y-75447743D01*
X118575000Y-75151184D01*
X118575000Y-74848816D01*
X118516011Y-74552257D01*
X118400299Y-74272905D01*
X118232312Y-74021495D01*
X118018505Y-73807688D01*
X117767095Y-73639701D01*
X117487743Y-73523989D01*
X117191184Y-73465000D01*
X116888816Y-73465000D01*
X116592257Y-73523989D01*
X116312905Y-73639701D01*
X116061495Y-73807688D01*
X115995056Y-73874127D01*
X115989502Y-73855820D01*
X115930537Y-73745506D01*
X115851185Y-73648815D01*
X115754494Y-73569463D01*
X115644180Y-73510498D01*
X115524482Y-73474188D01*
X115400000Y-73461928D01*
X114785750Y-73465000D01*
X114627000Y-73623750D01*
X114373000Y-73623750D01*
X114214250Y-73465000D01*
X113600000Y-73461928D01*
X113475518Y-73474188D01*
X113355820Y-73510498D01*
X113245506Y-73569463D01*
X113148815Y-73648815D01*
X113069463Y-73745506D01*
X113010498Y-73855820D01*
X112974188Y-73975518D01*
X112961928Y-74100000D01*
X106881989Y-74100000D01*
X108615431Y-72349100D01*
X110525707Y-70680456D01*
X112544474Y-69123688D01*
X112635983Y-69057697D01*
X114787063Y-67606388D01*
X114797861Y-67600000D01*
X135461928Y-67600000D01*
X135465000Y-68214250D01*
X135623750Y-68373000D01*
X136873000Y-68373000D01*
X136873000Y-67123750D01*
X136714250Y-66965000D01*
X136100000Y-66961928D01*
X135975518Y-66974188D01*
X135855820Y-67010498D01*
X135745506Y-67069463D01*
X135648815Y-67148815D01*
X135569463Y-67245506D01*
X135510498Y-67355820D01*
X135474188Y-67475518D01*
X135461928Y-67600000D01*
X114797861Y-67600000D01*
X117020543Y-66285140D01*
X117095493Y-66243868D01*
X119405037Y-65060937D01*
X121778618Y-64013013D01*
X121932076Y-63950841D01*
X124452828Y-63016458D01*
X127022136Y-62224142D01*
X127072865Y-62210087D01*
X127076986Y-62209315D01*
X127440173Y-62103524D01*
X127450471Y-62101239D01*
X127470207Y-62094775D01*
X127490147Y-62088967D01*
X127499937Y-62085038D01*
X127776581Y-61994435D01*
X127786728Y-61991831D01*
X127806295Y-61984703D01*
X127826105Y-61978215D01*
X127835701Y-61973991D01*
X128105677Y-61875642D01*
X128190487Y-61834933D01*
X128202370Y-61826014D01*
X128230258Y-61808778D01*
X128278552Y-61780191D01*
X128285692Y-61774883D01*
X128326818Y-61743867D01*
X128347966Y-61724405D01*
X128371043Y-61707275D01*
X128377594Y-61701254D01*
X128379419Y-61699553D01*
X128398437Y-61677993D01*
X128419612Y-61658555D01*
X128425502Y-61651887D01*
X128450762Y-61622879D01*
X128484251Y-61575843D01*
X128518411Y-61529257D01*
X128522893Y-61521571D01*
X128522894Y-61521569D01*
X128522897Y-61521565D01*
X128522899Y-61521560D01*
X128542039Y-61488209D01*
X128565772Y-61435526D01*
X128575044Y-61415689D01*
X128585577Y-61397335D01*
X128615585Y-61308175D01*
X128901944Y-60065510D01*
X128902684Y-60063256D01*
X128908966Y-60035037D01*
X128915468Y-60006822D01*
X128915772Y-60004465D01*
X129218517Y-58644554D01*
X129219482Y-58641514D01*
X129225324Y-58613979D01*
X129231429Y-58586556D01*
X129231813Y-58583396D01*
X129578510Y-56949329D01*
X129932862Y-55280073D01*
X130256050Y-53828387D01*
X130536479Y-52616615D01*
X130543930Y-52594691D01*
X130765210Y-52569792D01*
X131438302Y-52561062D01*
X131439843Y-52561186D01*
X131469602Y-52560656D01*
X131499354Y-52560270D01*
X131500890Y-52560099D01*
X132157010Y-52548411D01*
X132181826Y-52545520D01*
X132599967Y-52505154D01*
X132644395Y-52496427D01*
X132689222Y-52490079D01*
X132697852Y-52487918D01*
X132987805Y-52413150D01*
X133040942Y-52393747D01*
X133094352Y-52375316D01*
X133102413Y-52371551D01*
X133207848Y-52321400D01*
X133256892Y-52291886D01*
X133306384Y-52263145D01*
X133313569Y-52257897D01*
X133408963Y-52187195D01*
X133442878Y-52156502D01*
X133478306Y-52127638D01*
X133484579Y-52121328D01*
X133589561Y-52014235D01*
X133611562Y-51986900D01*
X133635824Y-51961530D01*
X133641267Y-51954492D01*
X133730017Y-51838080D01*
X133749824Y-51806036D01*
X133772059Y-51775595D01*
X133776527Y-51767901D01*
X133838789Y-51658948D01*
X133845466Y-51644053D01*
X133848440Y-51639710D01*
X133853142Y-51628739D01*
X133863384Y-51611372D01*
X133867078Y-51603278D01*
X133871586Y-51593214D01*
X133881451Y-51563781D01*
X133889664Y-51545460D01*
X133890622Y-51541293D01*
X133897435Y-51525397D01*
X133900066Y-51516898D01*
X133910390Y-51482704D01*
X133921610Y-51426042D01*
X133933619Y-51369539D01*
X133934549Y-51360691D01*
X133938034Y-51325143D01*
X133938034Y-51296500D01*
X133941054Y-51268023D01*
X133941062Y-51259126D01*
X133941042Y-51255808D01*
X133938080Y-51227366D01*
X133938139Y-51198769D01*
X133937227Y-51189919D01*
X133931276Y-51135860D01*
X133919380Y-51079322D01*
X133908281Y-51022657D01*
X133907421Y-51019858D01*
X133907089Y-51017032D01*
X133878096Y-50927537D01*
X133716788Y-50557882D01*
X133714357Y-50550928D01*
X133704265Y-50529183D01*
X133694693Y-50507248D01*
X133691105Y-50500828D01*
X133512307Y-50115582D01*
X133509533Y-50108233D01*
X133499133Y-50087195D01*
X133489258Y-50065919D01*
X133485271Y-50059156D01*
X133262218Y-49607969D01*
X132940165Y-48930347D01*
X132782079Y-48490287D01*
X132693380Y-48043507D01*
X132629911Y-47350197D01*
X132607800Y-46752375D01*
X134734343Y-46752375D01*
X134735100Y-46814630D01*
X134779869Y-47547456D01*
X134784718Y-47578262D01*
X134786447Y-47607768D01*
X134787893Y-47616547D01*
X134810733Y-47749429D01*
X134819987Y-47783136D01*
X134826320Y-47817516D01*
X134828837Y-47826050D01*
X134976057Y-48312559D01*
X134989703Y-48345607D01*
X135000553Y-48379679D01*
X135004124Y-48387828D01*
X135062373Y-48518268D01*
X135080067Y-48549335D01*
X135095115Y-48581767D01*
X135099682Y-48589402D01*
X135354653Y-49008913D01*
X135388021Y-49053370D01*
X135420547Y-49098617D01*
X135426467Y-49105259D01*
X135900271Y-49629430D01*
X135939808Y-49665393D01*
X135978346Y-49702436D01*
X135985370Y-49707897D01*
X136528447Y-50124123D01*
X136560160Y-50143838D01*
X136590256Y-50165987D01*
X136597934Y-50170483D01*
X136748701Y-50257358D01*
X136784753Y-50273675D01*
X136819538Y-50292512D01*
X136827762Y-50295908D01*
X137217484Y-50453656D01*
X137252009Y-50463841D01*
X137285573Y-50476837D01*
X137294161Y-50479165D01*
X137434067Y-50516042D01*
X137469600Y-50521776D01*
X137504542Y-50530420D01*
X137513354Y-50531642D01*
X137993582Y-50594831D01*
X138012626Y-50595461D01*
X138038880Y-50599153D01*
X138096690Y-50599964D01*
X138888131Y-50575144D01*
X138917453Y-50571857D01*
X138938148Y-50571602D01*
X138946984Y-50570563D01*
X139079466Y-50554048D01*
X139114295Y-50546195D01*
X139149649Y-50541275D01*
X139158285Y-50539135D01*
X139605581Y-50424931D01*
X139634058Y-50414610D01*
X139663395Y-50407207D01*
X139671747Y-50404141D01*
X139731713Y-50381647D01*
X139758885Y-50368299D01*
X139787256Y-50357748D01*
X139795226Y-50353792D01*
X140295646Y-50101008D01*
X140319053Y-50086153D01*
X140343947Y-50073914D01*
X140351477Y-50069176D01*
X140369156Y-50057878D01*
X140390958Y-50040733D01*
X140414488Y-50026051D01*
X140421503Y-50020578D01*
X140929212Y-49618710D01*
X140947396Y-49601173D01*
X140968385Y-49585033D01*
X141011783Y-49540392D01*
X141487473Y-49000662D01*
X141501394Y-48981460D01*
X141516826Y-48964809D01*
X141522159Y-48957687D01*
X141531138Y-48945519D01*
X141545749Y-48921032D01*
X141562873Y-48898227D01*
X141567442Y-48890593D01*
X141700843Y-48664141D01*
X141725156Y-48611769D01*
X141750212Y-48559709D01*
X141753212Y-48551332D01*
X141840086Y-48303281D01*
X141844223Y-48286313D01*
X141867001Y-48198801D01*
X141995684Y-47437137D01*
X141996928Y-47421637D01*
X142000193Y-47405712D01*
X142004417Y-47345824D01*
X142023134Y-46542614D01*
X142020986Y-46507649D01*
X142021647Y-46481807D01*
X142020943Y-46472937D01*
X142005513Y-46294269D01*
X141998467Y-46256384D01*
X141994262Y-46218082D01*
X141992372Y-46209387D01*
X141889074Y-45749689D01*
X141877018Y-45713160D01*
X141867722Y-45675824D01*
X141864681Y-45667462D01*
X141816785Y-45538549D01*
X141799933Y-45503970D01*
X141785710Y-45468226D01*
X141781574Y-45460349D01*
X141610482Y-45139904D01*
X141598273Y-45121596D01*
X141587950Y-45101060D01*
X141552295Y-45050022D01*
X141170559Y-44556774D01*
X141161202Y-44546806D01*
X141153416Y-44535577D01*
X141110964Y-44490035D01*
X140655342Y-44046782D01*
X140636843Y-44031929D01*
X140620956Y-44015682D01*
X140614104Y-44010006D01*
X140553154Y-43960222D01*
X140526489Y-43942478D01*
X140501617Y-43922275D01*
X140494162Y-43917419D01*
X140107072Y-43669052D01*
X140079416Y-43654908D01*
X140053268Y-43638120D01*
X140045320Y-43634122D01*
X139992528Y-43608027D01*
X139963471Y-43597045D01*
X139935629Y-43583272D01*
X139927286Y-43580182D01*
X139531251Y-43436648D01*
X139511158Y-43431518D01*
X139491039Y-43423565D01*
X139430454Y-43409223D01*
X138868157Y-43304813D01*
X138857008Y-43303824D01*
X138846140Y-43301122D01*
X138784190Y-43294926D01*
X138213691Y-43265908D01*
X138191827Y-43266877D01*
X138170894Y-43265170D01*
X138161999Y-43265378D01*
X138099259Y-43267281D01*
X138068100Y-43271293D01*
X138036690Y-43272271D01*
X138027875Y-43273476D01*
X137616848Y-43332582D01*
X137571254Y-43343767D01*
X137525231Y-43352734D01*
X137516724Y-43355339D01*
X137145247Y-43471931D01*
X137102074Y-43490279D01*
X137058053Y-43506534D01*
X137050075Y-43510472D01*
X136515584Y-43778908D01*
X136477004Y-43803266D01*
X136437216Y-43825571D01*
X136429952Y-43830709D01*
X136123686Y-44050579D01*
X136089403Y-44080670D01*
X136053591Y-44108936D01*
X136047222Y-44115148D01*
X135607137Y-44550379D01*
X135577463Y-44586099D01*
X135546031Y-44620330D01*
X135540732Y-44627476D01*
X135315495Y-44935683D01*
X135291877Y-44975683D01*
X135266301Y-45014471D01*
X135262207Y-45022370D01*
X134989734Y-45557115D01*
X134970957Y-45605026D01*
X134950574Y-45652266D01*
X134947923Y-45660759D01*
X134824961Y-46064485D01*
X134814843Y-46114940D01*
X134803027Y-46165014D01*
X134801900Y-46173839D01*
X134738500Y-46699459D01*
X134737921Y-46725392D01*
X134734343Y-46752375D01*
X132607800Y-46752375D01*
X132605454Y-46688957D01*
X132626862Y-46219700D01*
X132699005Y-45785027D01*
X132841494Y-45250496D01*
X133179912Y-44391183D01*
X133650398Y-43598658D01*
X133913500Y-43257040D01*
X134555650Y-42601496D01*
X135292187Y-42054669D01*
X135685460Y-41830125D01*
X136548237Y-41466420D01*
X137457925Y-41242002D01*
X137892412Y-41187802D01*
X138825856Y-41179437D01*
X139749479Y-41312313D01*
%TA.AperFunction,Conductor*%
D20*
G36*
X139749479Y-41312313D02*
G01*
X140199989Y-41431768D01*
X141034340Y-41766570D01*
X141287802Y-41903016D01*
X142036425Y-42419942D01*
X142257426Y-42611535D01*
X142908649Y-43312845D01*
X143084959Y-43548496D01*
X143632932Y-44454130D01*
X143757739Y-44710953D01*
X143976767Y-45241966D01*
X144077010Y-45617428D01*
X144125067Y-46089627D01*
X144140022Y-46992061D01*
X144125776Y-47972713D01*
X144072073Y-48400902D01*
X143953242Y-48762766D01*
X143568419Y-49562606D01*
X143100017Y-50512575D01*
X143096680Y-50521442D01*
X143077632Y-50563157D01*
X143067039Y-50594022D01*
X143053620Y-50623771D01*
X143050830Y-50632219D01*
X142941663Y-50970644D01*
X142935620Y-50998408D01*
X142926665Y-51025368D01*
X142924759Y-51034058D01*
X142923802Y-51038570D01*
X142920663Y-51066667D01*
X142914544Y-51094276D01*
X142913538Y-51103116D01*
X142904138Y-51191132D01*
X142903638Y-51248856D01*
X142902331Y-51306632D01*
X142903060Y-51315488D01*
X142903060Y-51315496D01*
X142903061Y-51315499D01*
X142910936Y-51403664D01*
X142921664Y-51460416D01*
X142931599Y-51517316D01*
X142934037Y-51525872D01*
X142958887Y-51610828D01*
X142969576Y-51637411D01*
X142977410Y-51664998D01*
X142980722Y-51673256D01*
X142984243Y-51681861D01*
X142997630Y-51707195D01*
X143008270Y-51733796D01*
X143012419Y-51741666D01*
X143083053Y-51873397D01*
X143115191Y-51921405D01*
X143146639Y-51969830D01*
X143152232Y-51976737D01*
X143152239Y-51976747D01*
X143152247Y-51976755D01*
X143247113Y-52092247D01*
X143273176Y-52118310D01*
X143297081Y-52146372D01*
X143303527Y-52152505D01*
X143325771Y-52173374D01*
X143354979Y-52195845D01*
X143382307Y-52220579D01*
X143389492Y-52225827D01*
X143465288Y-52280388D01*
X143515255Y-52309408D01*
X143564768Y-52339097D01*
X143572826Y-52342845D01*
X143572835Y-52342850D01*
X143572844Y-52342853D01*
X143657787Y-52381649D01*
X143710331Y-52399688D01*
X143762507Y-52418827D01*
X143771135Y-52421001D01*
X144060333Y-52491733D01*
X144102751Y-52497803D01*
X144144722Y-52506445D01*
X144153576Y-52507319D01*
X144577397Y-52546157D01*
X144600967Y-52548880D01*
X145268558Y-52560134D01*
X145269876Y-52560281D01*
X145299729Y-52560660D01*
X145329817Y-52561167D01*
X145331149Y-52561058D01*
X146018353Y-52569778D01*
X146261513Y-52595621D01*
X146542256Y-53811270D01*
X146865577Y-55263841D01*
X147214961Y-56906744D01*
X147214965Y-56906779D01*
X147220969Y-56934994D01*
X147227976Y-56967944D01*
X147227987Y-56967977D01*
X147569785Y-58574343D01*
X147570175Y-58577539D01*
X147576292Y-58604928D01*
X147582142Y-58632420D01*
X147583119Y-58635493D01*
X147887673Y-59999068D01*
X147887983Y-60001453D01*
X147894494Y-60029604D01*
X147900795Y-60057817D01*
X147901547Y-60060103D01*
X148189552Y-61305393D01*
X148199218Y-61334036D01*
X148199674Y-61336023D01*
X148202560Y-61344438D01*
X148206960Y-61356979D01*
X148219631Y-61394528D01*
X148230084Y-61412708D01*
X148239883Y-61433787D01*
X148263493Y-61486483D01*
X148267948Y-61494158D01*
X148267953Y-61494168D01*
X148267959Y-61494176D01*
X148267960Y-61494178D01*
X148287855Y-61527907D01*
X148321904Y-61574542D01*
X148355315Y-61621671D01*
X148361188Y-61628347D01*
X148361192Y-61628353D01*
X148361197Y-61628358D01*
X148387259Y-61657574D01*
X148394839Y-61664560D01*
X148396605Y-61666926D01*
X148411954Y-61680775D01*
X148430136Y-61701227D01*
X148436710Y-61707222D01*
X148441542Y-61711567D01*
X148462908Y-61727298D01*
X148478710Y-61741862D01*
X148481649Y-61743660D01*
X148488943Y-61750242D01*
X148496135Y-61755479D01*
X148538094Y-61785585D01*
X148588116Y-61814535D01*
X148636880Y-61843672D01*
X148639360Y-61845429D01*
X148725252Y-61883802D01*
X149138163Y-62021546D01*
X149144134Y-62024069D01*
X149167780Y-62031426D01*
X149191372Y-62039296D01*
X149197719Y-62040741D01*
X149636991Y-62177410D01*
X149643590Y-62180027D01*
X149666865Y-62186704D01*
X149689986Y-62193898D01*
X149696939Y-62195333D01*
X150221233Y-62345749D01*
X152555645Y-63072303D01*
X154286122Y-63717892D01*
X156843465Y-64826147D01*
X158446081Y-65609852D01*
X160893630Y-66949217D01*
X162416733Y-67875919D01*
X164437441Y-69246437D01*
X165902874Y-70363312D01*
X167274953Y-71540593D01*
X169053674Y-73223046D01*
X170791939Y-74964890D01*
X172039431Y-76337473D01*
X173649436Y-78345699D01*
X175141252Y-80451160D01*
X175695094Y-81305978D01*
X177003545Y-83522024D01*
X178178248Y-85811730D01*
X178609041Y-86745275D01*
X179614634Y-89187036D01*
X180473745Y-91684430D01*
X180752266Y-92615801D01*
X181433448Y-95266023D01*
X181965714Y-97950572D01*
X182112820Y-98873332D01*
X182307845Y-100697905D01*
X182323855Y-100974292D01*
X182423839Y-103999996D01*
X182413632Y-107048879D01*
X182268363Y-109309910D01*
X181904963Y-111975699D01*
X181386793Y-114625961D01*
X181150370Y-115622464D01*
X180449861Y-118117807D01*
X179602803Y-120566603D01*
X179189970Y-121613176D01*
X178139663Y-123975103D01*
X176951137Y-126270564D01*
X176388887Y-127251294D01*
X174964879Y-129510199D01*
X173412911Y-131683795D01*
X172764014Y-132519103D01*
X171444098Y-134042815D01*
X169496266Y-136042752D01*
X167473329Y-137986531D01*
X165905300Y-139332398D01*
X163816347Y-140890873D01*
X161775150Y-142243236D01*
X159517663Y-143563817D01*
X157340825Y-144679305D01*
X154995474Y-145720464D01*
X152707205Y-146585725D01*
X150301975Y-147338946D01*
X147979355Y-147916972D01*
X145472422Y-148386671D01*
X143814226Y-148613547D01*
X141089571Y-148852873D01*
X139490024Y-148919835D01*
X136770755Y-148909129D01*
X135169400Y-148829244D01*
X132634376Y-148581294D01*
X131013290Y-148339883D01*
X128472450Y-147831983D01*
X125969258Y-147175089D01*
X123509444Y-146370902D01*
X121095630Y-145419875D01*
X121050454Y-145400000D01*
X136461928Y-145400000D01*
X136474188Y-145524482D01*
X136510498Y-145644180D01*
X136569463Y-145754494D01*
X136648815Y-145851185D01*
X136745506Y-145930537D01*
X136855820Y-145989502D01*
X136975518Y-146025812D01*
X137100000Y-146038072D01*
X137714250Y-146035000D01*
X137873000Y-145876250D01*
X137873000Y-144627000D01*
X136623750Y-144627000D01*
X136465000Y-144785750D01*
X136461928Y-145400000D01*
X121050454Y-145400000D01*
X120351443Y-145092477D01*
X117980281Y-143936541D01*
X117382752Y-143600000D01*
X136461928Y-143600000D01*
X136465000Y-144214250D01*
X136623750Y-144373000D01*
X137873000Y-144373000D01*
X137873000Y-143123750D01*
X137714250Y-142965000D01*
X137100000Y-142961928D01*
X136975518Y-142974188D01*
X136855820Y-143010498D01*
X136745506Y-143069463D01*
X136648815Y-143148815D01*
X136569463Y-143245506D01*
X136510498Y-143355820D01*
X136474188Y-143475518D01*
X136461928Y-143600000D01*
X117382752Y-143600000D01*
X115687504Y-142645201D01*
X113475304Y-141220129D01*
X111345938Y-139662289D01*
X110807351Y-139236301D01*
X109242423Y-137900000D01*
X114961928Y-137900000D01*
X114974188Y-138024482D01*
X115010498Y-138144180D01*
X115069463Y-138254494D01*
X115148815Y-138351185D01*
X115245506Y-138430537D01*
X115355820Y-138489502D01*
X115475518Y-138525812D01*
X115600000Y-138538072D01*
X116214250Y-138535000D01*
X116373000Y-138376250D01*
X116373000Y-137127000D01*
X115123750Y-137127000D01*
X114965000Y-137285750D01*
X114961928Y-137900000D01*
X109242423Y-137900000D01*
X108798055Y-137520552D01*
X107321585Y-136100000D01*
X114961928Y-136100000D01*
X114965000Y-136714250D01*
X115123750Y-136873000D01*
X116373000Y-136873000D01*
X116373000Y-135623750D01*
X116627000Y-135623750D01*
X116627000Y-136873000D01*
X116647000Y-136873000D01*
X116647000Y-137127000D01*
X116627000Y-137127000D01*
X116627000Y-138376250D01*
X116785750Y-138535000D01*
X117400000Y-138538072D01*
X117524482Y-138525812D01*
X117644180Y-138489502D01*
X117754494Y-138430537D01*
X117851185Y-138351185D01*
X117930537Y-138254494D01*
X117989502Y-138144180D01*
X117995056Y-138125873D01*
X118061495Y-138192312D01*
X118312905Y-138360299D01*
X118592257Y-138476011D01*
X118888816Y-138535000D01*
X119191184Y-138535000D01*
X119487743Y-138476011D01*
X119767095Y-138360299D01*
X120018505Y-138192312D01*
X120232312Y-137978505D01*
X120400299Y-137727095D01*
X120516011Y-137447743D01*
X120575000Y-137151184D01*
X120575000Y-136848816D01*
X120531475Y-136630000D01*
X135106928Y-136630000D01*
X135119188Y-136754482D01*
X135155498Y-136874180D01*
X135214463Y-136984494D01*
X135293815Y-137081185D01*
X135390506Y-137160537D01*
X135500820Y-137219502D01*
X135620518Y-137255812D01*
X135745000Y-137268072D01*
X137214250Y-137265000D01*
X137373000Y-137106250D01*
X137373000Y-135487000D01*
X135268750Y-135487000D01*
X135110000Y-135645750D01*
X135106928Y-136630000D01*
X120531475Y-136630000D01*
X120516011Y-136552257D01*
X120400299Y-136272905D01*
X120232312Y-136021495D01*
X120018505Y-135807688D01*
X119767095Y-135639701D01*
X119487743Y-135523989D01*
X119191184Y-135465000D01*
X118888816Y-135465000D01*
X118592257Y-135523989D01*
X118312905Y-135639701D01*
X118061495Y-135807688D01*
X117995056Y-135874127D01*
X117989502Y-135855820D01*
X117930537Y-135745506D01*
X117851185Y-135648815D01*
X117754494Y-135569463D01*
X117644180Y-135510498D01*
X117524482Y-135474188D01*
X117400000Y-135461928D01*
X116785750Y-135465000D01*
X116627000Y-135623750D01*
X116373000Y-135623750D01*
X116214250Y-135465000D01*
X115600000Y-135461928D01*
X115475518Y-135474188D01*
X115355820Y-135510498D01*
X115245506Y-135569463D01*
X115148815Y-135648815D01*
X115069463Y-135745506D01*
X115010498Y-135855820D01*
X114974188Y-135975518D01*
X114961928Y-136100000D01*
X107321585Y-136100000D01*
X106899070Y-135693487D01*
X105419115Y-134090000D01*
X135106928Y-134090000D01*
X135110000Y-135074250D01*
X135268750Y-135233000D01*
X137373000Y-135233000D01*
X137373000Y-133613750D01*
X137214250Y-133455000D01*
X135745000Y-133451928D01*
X135620518Y-133464188D01*
X135500820Y-133500498D01*
X135390506Y-133559463D01*
X135293815Y-133638815D01*
X135214463Y-133735506D01*
X135155498Y-133845820D01*
X135119188Y-133965518D01*
X135106928Y-134090000D01*
X105419115Y-134090000D01*
X105111783Y-133757016D01*
X103438069Y-131712560D01*
X103027729Y-131171144D01*
X101529796Y-129032787D01*
X100164951Y-126815261D01*
X98934039Y-124520725D01*
X97838586Y-122151195D01*
X97544160Y-121443883D01*
X96637396Y-118900000D01*
X100961928Y-118900000D01*
X100974188Y-119024482D01*
X101010498Y-119144180D01*
X101069463Y-119254494D01*
X101148815Y-119351185D01*
X101245506Y-119430537D01*
X101355820Y-119489502D01*
X101475518Y-119525812D01*
X101600000Y-119538072D01*
X102214250Y-119535000D01*
X102373000Y-119376250D01*
X102373000Y-118127000D01*
X101123750Y-118127000D01*
X100965000Y-118285750D01*
X100961928Y-118900000D01*
X96637396Y-118900000D01*
X96193983Y-117656029D01*
X96041364Y-117100000D01*
X100961928Y-117100000D01*
X100965000Y-117714250D01*
X101123750Y-117873000D01*
X102373000Y-117873000D01*
X102373000Y-116623750D01*
X102627000Y-116623750D01*
X102627000Y-117873000D01*
X102647000Y-117873000D01*
X102647000Y-118127000D01*
X102627000Y-118127000D01*
X102627000Y-119376250D01*
X102785750Y-119535000D01*
X103400000Y-119538072D01*
X103524482Y-119525812D01*
X103644180Y-119489502D01*
X103754494Y-119430537D01*
X103851185Y-119351185D01*
X103930537Y-119254494D01*
X103989502Y-119144180D01*
X103995056Y-119125873D01*
X104061495Y-119192312D01*
X104312905Y-119360299D01*
X104592257Y-119476011D01*
X104888816Y-119535000D01*
X105191184Y-119535000D01*
X105487743Y-119476011D01*
X105767095Y-119360299D01*
X106018505Y-119192312D01*
X106232312Y-118978505D01*
X106400299Y-118727095D01*
X106516011Y-118447743D01*
X106575000Y-118151184D01*
X106575000Y-117848816D01*
X106516011Y-117552257D01*
X106400299Y-117272905D01*
X106232312Y-117021495D01*
X106018505Y-116807688D01*
X105767095Y-116639701D01*
X105487743Y-116523989D01*
X105191184Y-116465000D01*
X104888816Y-116465000D01*
X104592257Y-116523989D01*
X104312905Y-116639701D01*
X104061495Y-116807688D01*
X103995056Y-116874127D01*
X103989502Y-116855820D01*
X103930537Y-116745506D01*
X103851185Y-116648815D01*
X103754494Y-116569463D01*
X103644180Y-116510498D01*
X103524482Y-116474188D01*
X103400000Y-116461928D01*
X102785750Y-116465000D01*
X102627000Y-116623750D01*
X102373000Y-116623750D01*
X102214250Y-116465000D01*
X101600000Y-116461928D01*
X101475518Y-116474188D01*
X101355820Y-116510498D01*
X101245506Y-116569463D01*
X101148815Y-116648815D01*
X101069463Y-116745506D01*
X101010498Y-116855820D01*
X100974188Y-116975518D01*
X100961928Y-117100000D01*
X96041364Y-117100000D01*
X95543068Y-115284598D01*
X95246848Y-113953241D01*
X94818323Y-111456417D01*
X94655294Y-110123388D01*
X94630128Y-109736993D01*
X120722612Y-109736993D01*
X120788137Y-109975860D01*
X121035116Y-110091760D01*
X121299960Y-110157250D01*
X121572492Y-110169812D01*
X121842238Y-110128965D01*
X122098832Y-110036277D01*
X122211863Y-109975860D01*
X122277388Y-109736993D01*
X121500000Y-108959605D01*
X120722612Y-109736993D01*
X94630128Y-109736993D01*
X94572517Y-108852492D01*
X120110188Y-108852492D01*
X120151035Y-109122238D01*
X120243723Y-109378832D01*
X120304140Y-109491863D01*
X120543007Y-109557388D01*
X121320395Y-108780000D01*
X120543007Y-108002612D01*
X120304140Y-108068137D01*
X120188240Y-108315116D01*
X120122750Y-108579960D01*
X120110188Y-108852492D01*
X94572517Y-108852492D01*
X94384714Y-105969119D01*
X94392079Y-103218830D01*
X94550612Y-100499551D01*
X94679190Y-99400000D01*
X98961928Y-99400000D01*
X98974188Y-99524482D01*
X99010498Y-99644180D01*
X99069463Y-99754494D01*
X99148815Y-99851185D01*
X99245506Y-99930537D01*
X99355820Y-99989502D01*
X99475518Y-100025812D01*
X99600000Y-100038072D01*
X100214250Y-100035000D01*
X100373000Y-99876250D01*
X100373000Y-98627000D01*
X99123750Y-98627000D01*
X98965000Y-98785750D01*
X98961928Y-99400000D01*
X94679190Y-99400000D01*
X94838580Y-98036972D01*
X94916965Y-97600000D01*
X98961928Y-97600000D01*
X98965000Y-98214250D01*
X99123750Y-98373000D01*
X100373000Y-98373000D01*
X100373000Y-97123750D01*
X100627000Y-97123750D01*
X100627000Y-98373000D01*
X100647000Y-98373000D01*
X100647000Y-98627000D01*
X100627000Y-98627000D01*
X100627000Y-99876250D01*
X100785750Y-100035000D01*
X101400000Y-100038072D01*
X101524482Y-100025812D01*
X101644180Y-99989502D01*
X101754494Y-99930537D01*
X101851185Y-99851185D01*
X101930537Y-99754494D01*
X101989502Y-99644180D01*
X101995056Y-99625873D01*
X102061495Y-99692312D01*
X102312905Y-99860299D01*
X102592257Y-99976011D01*
X102888816Y-100035000D01*
X103191184Y-100035000D01*
X103487743Y-99976011D01*
X103767095Y-99860299D01*
X104018505Y-99692312D01*
X104232312Y-99478505D01*
X104400299Y-99227095D01*
X104516011Y-98947743D01*
X104575000Y-98651184D01*
X104575000Y-98348816D01*
X104516011Y-98052257D01*
X104400299Y-97772905D01*
X104232312Y-97521495D01*
X104018505Y-97307688D01*
X103767095Y-97139701D01*
X103487743Y-97023989D01*
X103191184Y-96965000D01*
X102888816Y-96965000D01*
X102592257Y-97023989D01*
X102312905Y-97139701D01*
X102061495Y-97307688D01*
X101995056Y-97374127D01*
X101989502Y-97355820D01*
X101930537Y-97245506D01*
X101851185Y-97148815D01*
X101754494Y-97069463D01*
X101644180Y-97010498D01*
X101524482Y-96974188D01*
X101400000Y-96961928D01*
X100785750Y-96965000D01*
X100627000Y-97123750D01*
X100373000Y-97123750D01*
X100214250Y-96965000D01*
X99600000Y-96961928D01*
X99475518Y-96974188D01*
X99355820Y-97010498D01*
X99245506Y-97069463D01*
X99148815Y-97148815D01*
X99069463Y-97245506D01*
X99010498Y-97355820D01*
X98974188Y-97475518D01*
X98961928Y-97600000D01*
X94916965Y-97600000D01*
X95277723Y-95588891D01*
X95326487Y-95361361D01*
X95940231Y-92913106D01*
X96593261Y-90863589D01*
X120115000Y-90863589D01*
X120115000Y-91136411D01*
X120168225Y-91403989D01*
X120272629Y-91656043D01*
X120424201Y-91882886D01*
X120617114Y-92075799D01*
X120843957Y-92227371D01*
X120946873Y-92270000D01*
X120843957Y-92312629D01*
X120617114Y-92464201D01*
X120424201Y-92657114D01*
X120272629Y-92883957D01*
X120168225Y-93136011D01*
X120115000Y-93403589D01*
X120115000Y-93676411D01*
X120168225Y-93943989D01*
X120272629Y-94196043D01*
X120424201Y-94422886D01*
X120617114Y-94615799D01*
X120843957Y-94767371D01*
X120946873Y-94810000D01*
X120843957Y-94852629D01*
X120617114Y-95004201D01*
X120424201Y-95197114D01*
X120272629Y-95423957D01*
X120168225Y-95676011D01*
X120115000Y-95943589D01*
X120115000Y-96216411D01*
X120168225Y-96483989D01*
X120272629Y-96736043D01*
X120424201Y-96962886D01*
X120617114Y-97155799D01*
X120843957Y-97307371D01*
X120946873Y-97350000D01*
X120843957Y-97392629D01*
X120617114Y-97544201D01*
X120424201Y-97737114D01*
X120272629Y-97963957D01*
X120168225Y-98216011D01*
X120115000Y-98483589D01*
X120115000Y-98756411D01*
X120168225Y-99023989D01*
X120272629Y-99276043D01*
X120424201Y-99502886D01*
X120617114Y-99695799D01*
X120843957Y-99847371D01*
X120946873Y-99890000D01*
X120843957Y-99932629D01*
X120617114Y-100084201D01*
X120424201Y-100277114D01*
X120272629Y-100503957D01*
X120168225Y-100756011D01*
X120115000Y-101023589D01*
X120115000Y-101296411D01*
X120168225Y-101563989D01*
X120272629Y-101816043D01*
X120424201Y-102042886D01*
X120617114Y-102235799D01*
X120843957Y-102387371D01*
X120946873Y-102430000D01*
X120843957Y-102472629D01*
X120617114Y-102624201D01*
X120424201Y-102817114D01*
X120272629Y-103043957D01*
X120168225Y-103296011D01*
X120115000Y-103563589D01*
X120115000Y-103836411D01*
X120168225Y-104103989D01*
X120272629Y-104356043D01*
X120424201Y-104582886D01*
X120617114Y-104775799D01*
X120843957Y-104927371D01*
X120946873Y-104970000D01*
X120843957Y-105012629D01*
X120617114Y-105164201D01*
X120424201Y-105357114D01*
X120272629Y-105583957D01*
X120168225Y-105836011D01*
X120115000Y-106103589D01*
X120115000Y-106376411D01*
X120168225Y-106643989D01*
X120272629Y-106896043D01*
X120424201Y-107122886D01*
X120617114Y-107315799D01*
X120843957Y-107467371D01*
X120943279Y-107508511D01*
X120901168Y-107523723D01*
X120788137Y-107584140D01*
X120722612Y-107823007D01*
X121500000Y-108600395D01*
X121514143Y-108586253D01*
X121693748Y-108765858D01*
X121679605Y-108780000D01*
X122456993Y-109557388D01*
X122695860Y-109491863D01*
X122811760Y-109244884D01*
X122877250Y-108980040D01*
X122889812Y-108707508D01*
X122889296Y-108704097D01*
X123740001Y-109554803D01*
X123740000Y-114462677D01*
X123736324Y-114500000D01*
X123740000Y-114537322D01*
X123740000Y-114537332D01*
X123750997Y-114648985D01*
X123785383Y-114762342D01*
X123794454Y-114792246D01*
X123865026Y-114924276D01*
X123899709Y-114966537D01*
X123959999Y-115040001D01*
X123989003Y-115063804D01*
X139780001Y-130854803D01*
X139780001Y-133728760D01*
X139706185Y-133638815D01*
X139609494Y-133559463D01*
X139499180Y-133500498D01*
X139379482Y-133464188D01*
X139255000Y-133451928D01*
X137785750Y-133455000D01*
X137627000Y-133613750D01*
X137627000Y-135233000D01*
X137647000Y-135233000D01*
X137647000Y-135487000D01*
X137627000Y-135487000D01*
X137627000Y-137106250D01*
X137785750Y-137265000D01*
X139255000Y-137268072D01*
X139379482Y-137255812D01*
X139499180Y-137219502D01*
X139609494Y-137160537D01*
X139706185Y-137081185D01*
X139780001Y-136991240D01*
X139780000Y-143161687D01*
X139561495Y-143307688D01*
X139495056Y-143374127D01*
X139489502Y-143355820D01*
X139430537Y-143245506D01*
X139351185Y-143148815D01*
X139254494Y-143069463D01*
X139144180Y-143010498D01*
X139024482Y-142974188D01*
X138900000Y-142961928D01*
X138285750Y-142965000D01*
X138127000Y-143123750D01*
X138127000Y-144373000D01*
X138147000Y-144373000D01*
X138147000Y-144627000D01*
X138127000Y-144627000D01*
X138127000Y-145876250D01*
X138285750Y-146035000D01*
X138900000Y-146038072D01*
X139024482Y-146025812D01*
X139144180Y-145989502D01*
X139254494Y-145930537D01*
X139351185Y-145851185D01*
X139430537Y-145754494D01*
X139489502Y-145644180D01*
X139495056Y-145625873D01*
X139561495Y-145692312D01*
X139812905Y-145860299D01*
X140092257Y-145976011D01*
X140388816Y-146035000D01*
X140691184Y-146035000D01*
X140987743Y-145976011D01*
X141267095Y-145860299D01*
X141518505Y-145692312D01*
X141732312Y-145478505D01*
X141900299Y-145227095D01*
X142016011Y-144947743D01*
X142075000Y-144651184D01*
X142075000Y-144348816D01*
X142016011Y-144052257D01*
X141900299Y-143772905D01*
X141732312Y-143521495D01*
X141518505Y-143307688D01*
X141300000Y-143161687D01*
X141300000Y-130577333D01*
X141303677Y-130540000D01*
X141289003Y-130391014D01*
X141245546Y-130247753D01*
X141174974Y-130115724D01*
X141103799Y-130028997D01*
X141080001Y-129999999D01*
X141051003Y-129976201D01*
X138423618Y-127348816D01*
X161925000Y-127348816D01*
X161925000Y-127651184D01*
X161983989Y-127947743D01*
X162099701Y-128227095D01*
X162267688Y-128478505D01*
X162481495Y-128692312D01*
X162732905Y-128860299D01*
X163012257Y-128976011D01*
X163308816Y-129035000D01*
X163611184Y-129035000D01*
X163907743Y-128976011D01*
X164187095Y-128860299D01*
X164438505Y-128692312D01*
X164504944Y-128625873D01*
X164510498Y-128644180D01*
X164569463Y-128754494D01*
X164648815Y-128851185D01*
X164745506Y-128930537D01*
X164855820Y-128989502D01*
X164975518Y-129025812D01*
X165100000Y-129038072D01*
X165714250Y-129035000D01*
X165873000Y-128876250D01*
X165873000Y-127627000D01*
X166127000Y-127627000D01*
X166127000Y-128876250D01*
X166285750Y-129035000D01*
X166900000Y-129038072D01*
X167024482Y-129025812D01*
X167144180Y-128989502D01*
X167254494Y-128930537D01*
X167351185Y-128851185D01*
X167430537Y-128754494D01*
X167489502Y-128644180D01*
X167525812Y-128524482D01*
X167538072Y-128400000D01*
X167535000Y-127785750D01*
X167376250Y-127627000D01*
X166127000Y-127627000D01*
X165873000Y-127627000D01*
X165853000Y-127627000D01*
X165853000Y-127373000D01*
X165873000Y-127373000D01*
X165873000Y-126123750D01*
X166127000Y-126123750D01*
X166127000Y-127373000D01*
X167376250Y-127373000D01*
X167535000Y-127214250D01*
X167538072Y-126600000D01*
X167525812Y-126475518D01*
X167489502Y-126355820D01*
X167430537Y-126245506D01*
X167351185Y-126148815D01*
X167254494Y-126069463D01*
X167144180Y-126010498D01*
X167024482Y-125974188D01*
X166900000Y-125961928D01*
X166285750Y-125965000D01*
X166127000Y-126123750D01*
X165873000Y-126123750D01*
X165714250Y-125965000D01*
X165100000Y-125961928D01*
X164975518Y-125974188D01*
X164855820Y-126010498D01*
X164745506Y-126069463D01*
X164648815Y-126148815D01*
X164569463Y-126245506D01*
X164510498Y-126355820D01*
X164504944Y-126374127D01*
X164438505Y-126307688D01*
X164187095Y-126139701D01*
X163907743Y-126023989D01*
X163611184Y-125965000D01*
X163308816Y-125965000D01*
X163012257Y-126023989D01*
X162732905Y-126139701D01*
X162481495Y-126307688D01*
X162267688Y-126521495D01*
X162099701Y-126772905D01*
X161983989Y-127052257D01*
X161925000Y-127348816D01*
X138423618Y-127348816D01*
X125260000Y-114185199D01*
X125260000Y-109277325D01*
X125263676Y-109240000D01*
X125260000Y-109202675D01*
X125260000Y-109202667D01*
X125249003Y-109091014D01*
X125205546Y-108947753D01*
X125134974Y-108815724D01*
X125040001Y-108699999D01*
X125011003Y-108676201D01*
X122856167Y-106521365D01*
X122885000Y-106376411D01*
X122885000Y-106103589D01*
X122831775Y-105836011D01*
X122727371Y-105583957D01*
X122575799Y-105357114D01*
X122382886Y-105164201D01*
X122156043Y-105012629D01*
X122053127Y-104970000D01*
X122156043Y-104927371D01*
X122382886Y-104775799D01*
X122575799Y-104582886D01*
X122727371Y-104356043D01*
X122831775Y-104103989D01*
X122885000Y-103836411D01*
X122885000Y-103563589D01*
X122831775Y-103296011D01*
X122727371Y-103043957D01*
X122575799Y-102817114D01*
X122382886Y-102624201D01*
X122156043Y-102472629D01*
X122053127Y-102430000D01*
X122156043Y-102387371D01*
X122382886Y-102235799D01*
X122575799Y-102042886D01*
X122727371Y-101816043D01*
X122831775Y-101563989D01*
X122885000Y-101296411D01*
X122885000Y-101023589D01*
X122856167Y-100878635D01*
X122889803Y-100844999D01*
X127770524Y-100844999D01*
X127735000Y-101023589D01*
X127735000Y-101296411D01*
X127788225Y-101563989D01*
X127892629Y-101816043D01*
X128044201Y-102042886D01*
X128237114Y-102235799D01*
X128463957Y-102387371D01*
X128566873Y-102430000D01*
X128463957Y-102472629D01*
X128237114Y-102624201D01*
X128044201Y-102817114D01*
X127892629Y-103043957D01*
X127788225Y-103296011D01*
X127735000Y-103563589D01*
X127735000Y-103836411D01*
X127788225Y-104103989D01*
X127892629Y-104356043D01*
X128044201Y-104582886D01*
X128237114Y-104775799D01*
X128463957Y-104927371D01*
X128566873Y-104970000D01*
X128463957Y-105012629D01*
X128237114Y-105164201D01*
X128044201Y-105357114D01*
X127892629Y-105583957D01*
X127788225Y-105836011D01*
X127735000Y-106103589D01*
X127735000Y-106376411D01*
X127788225Y-106643989D01*
X127892629Y-106896043D01*
X128044201Y-107122886D01*
X128237114Y-107315799D01*
X128463957Y-107467371D01*
X128566873Y-107510000D01*
X128463957Y-107552629D01*
X128237114Y-107704201D01*
X128044201Y-107897114D01*
X127892629Y-108123957D01*
X127788225Y-108376011D01*
X127735000Y-108643589D01*
X127735000Y-108916411D01*
X127788225Y-109183989D01*
X127892629Y-109436043D01*
X128044201Y-109662886D01*
X128237114Y-109855799D01*
X128463957Y-110007371D01*
X128716011Y-110111775D01*
X128983589Y-110165000D01*
X129256411Y-110165000D01*
X129523989Y-110111775D01*
X129776043Y-110007371D01*
X130002886Y-109855799D01*
X130195799Y-109662886D01*
X130347371Y-109436043D01*
X130451775Y-109183989D01*
X130505000Y-108916411D01*
X130505000Y-108643589D01*
X130451775Y-108376011D01*
X130347371Y-108123957D01*
X130195799Y-107897114D01*
X130002886Y-107704201D01*
X129776043Y-107552629D01*
X129673127Y-107510000D01*
X129776043Y-107467371D01*
X130002886Y-107315799D01*
X130195799Y-107122886D01*
X130347371Y-106896043D01*
X130451775Y-106643989D01*
X130505000Y-106376411D01*
X130505000Y-106103589D01*
X130451775Y-105836011D01*
X130347371Y-105583957D01*
X130195799Y-105357114D01*
X130002886Y-105164201D01*
X129776043Y-105012629D01*
X129673127Y-104970000D01*
X129776043Y-104927371D01*
X130002886Y-104775799D01*
X130195799Y-104582886D01*
X130347371Y-104356043D01*
X130451775Y-104103989D01*
X130505000Y-103836411D01*
X130505000Y-103563589D01*
X130451775Y-103296011D01*
X130347371Y-103043957D01*
X130195799Y-102817114D01*
X130002886Y-102624201D01*
X129776043Y-102472629D01*
X129673127Y-102430000D01*
X129776043Y-102387371D01*
X130002886Y-102235799D01*
X130195799Y-102042886D01*
X130325290Y-101849089D01*
X132987203Y-104511003D01*
X133011001Y-104540001D01*
X133039999Y-104563799D01*
X133126726Y-104634974D01*
X133258755Y-104705546D01*
X133402016Y-104749003D01*
X133551002Y-104763677D01*
X133588335Y-104760000D01*
X135106928Y-104760000D01*
X135106928Y-107270000D01*
X135119188Y-107394482D01*
X135155498Y-107514180D01*
X135214463Y-107624494D01*
X135293815Y-107721185D01*
X135390506Y-107800537D01*
X135500820Y-107859502D01*
X135620518Y-107895812D01*
X135745000Y-107908072D01*
X136740000Y-107908072D01*
X136740001Y-116962668D01*
X136736324Y-117000000D01*
X136740001Y-117037333D01*
X136750998Y-117148986D01*
X136760286Y-117179605D01*
X136794454Y-117292246D01*
X136865026Y-117424276D01*
X136908224Y-117476912D01*
X136960000Y-117540001D01*
X136988998Y-117563799D01*
X138436201Y-119011003D01*
X138459999Y-119040001D01*
X138575724Y-119134974D01*
X138707753Y-119205546D01*
X138851014Y-119249003D01*
X138962667Y-119260000D01*
X138962676Y-119260000D01*
X138999999Y-119263676D01*
X139037322Y-119260000D01*
X156962678Y-119260000D01*
X157000000Y-119263676D01*
X157037322Y-119260000D01*
X157037333Y-119260000D01*
X157148986Y-119249003D01*
X157292247Y-119205546D01*
X157424276Y-119134974D01*
X157540001Y-119040001D01*
X157563804Y-119010997D01*
X158008624Y-118566177D01*
X158023088Y-118572168D01*
X158338967Y-118635000D01*
X158661033Y-118635000D01*
X158976912Y-118572168D01*
X159274463Y-118448918D01*
X159542252Y-118269987D01*
X159676826Y-118135413D01*
X160044192Y-118135413D01*
X160139956Y-118399814D01*
X160429571Y-118540704D01*
X160741108Y-118622384D01*
X161062595Y-118641718D01*
X161381675Y-118597961D01*
X161686088Y-118492795D01*
X161860044Y-118399814D01*
X161955808Y-118135413D01*
X161000000Y-117179605D01*
X160044192Y-118135413D01*
X159676826Y-118135413D01*
X159769987Y-118042252D01*
X159834925Y-117945065D01*
X159864587Y-117955808D01*
X160820395Y-117000000D01*
X161179605Y-117000000D01*
X162135413Y-117955808D01*
X162399814Y-117860044D01*
X162540704Y-117570429D01*
X162622384Y-117258892D01*
X162641718Y-116937405D01*
X162597961Y-116618325D01*
X162492795Y-116313912D01*
X162399814Y-116139956D01*
X162135413Y-116044192D01*
X161179605Y-117000000D01*
X160820395Y-117000000D01*
X159864587Y-116044192D01*
X159834925Y-116054935D01*
X159769987Y-115957748D01*
X159676826Y-115864587D01*
X160044192Y-115864587D01*
X161000000Y-116820395D01*
X161955808Y-115864587D01*
X161860044Y-115600186D01*
X161570429Y-115459296D01*
X161258892Y-115377616D01*
X160937405Y-115358282D01*
X160618325Y-115402039D01*
X160313912Y-115507205D01*
X160139956Y-115600186D01*
X160044192Y-115864587D01*
X159676826Y-115864587D01*
X159542252Y-115730013D01*
X159274463Y-115551082D01*
X158976912Y-115427832D01*
X158661033Y-115365000D01*
X158338967Y-115365000D01*
X158023088Y-115427832D01*
X157725537Y-115551082D01*
X157457748Y-115730013D01*
X157250000Y-115937761D01*
X157042252Y-115730013D01*
X156774463Y-115551082D01*
X156476912Y-115427832D01*
X156161033Y-115365000D01*
X155838967Y-115365000D01*
X155523088Y-115427832D01*
X155225537Y-115551082D01*
X154957748Y-115730013D01*
X154730013Y-115957748D01*
X154551082Y-116225537D01*
X154427832Y-116523088D01*
X154365000Y-116838967D01*
X154365000Y-117161033D01*
X154427832Y-117476912D01*
X154536807Y-117740000D01*
X139314802Y-117740000D01*
X138260000Y-116685199D01*
X138260000Y-107908072D01*
X139255000Y-107908072D01*
X139379482Y-107895812D01*
X139499180Y-107859502D01*
X139609494Y-107800537D01*
X139706185Y-107721185D01*
X139785537Y-107624494D01*
X139844502Y-107514180D01*
X139880812Y-107394482D01*
X139893072Y-107270000D01*
X139893072Y-107200000D01*
X147061928Y-107200000D01*
X147061928Y-108800000D01*
X147074188Y-108924482D01*
X147110498Y-109044180D01*
X147169463Y-109154494D01*
X147248815Y-109251185D01*
X147345506Y-109330537D01*
X147455820Y-109389502D01*
X147575518Y-109425812D01*
X147700000Y-109438072D01*
X149300000Y-109438072D01*
X149424482Y-109425812D01*
X149544180Y-109389502D01*
X149654494Y-109330537D01*
X149751185Y-109251185D01*
X149761807Y-109238242D01*
X150013996Y-109357571D01*
X150288184Y-109426300D01*
X150570512Y-109440217D01*
X150850130Y-109398787D01*
X151116292Y-109303603D01*
X151241514Y-109236671D01*
X151313097Y-108992702D01*
X150500000Y-108179605D01*
X150485858Y-108193748D01*
X150306253Y-108014143D01*
X150320395Y-108000000D01*
X150679605Y-108000000D01*
X151492702Y-108813097D01*
X151736671Y-108741514D01*
X151857571Y-108486004D01*
X151926300Y-108211816D01*
X151940217Y-107929488D01*
X151898787Y-107649870D01*
X151803603Y-107383708D01*
X151736671Y-107258486D01*
X151537340Y-107200000D01*
X155561928Y-107200000D01*
X155561928Y-108800000D01*
X155574188Y-108924482D01*
X155610498Y-109044180D01*
X155669463Y-109154494D01*
X155748815Y-109251185D01*
X155845506Y-109330537D01*
X155955820Y-109389502D01*
X156075518Y-109425812D01*
X156200000Y-109438072D01*
X157800000Y-109438072D01*
X157924482Y-109425812D01*
X158044180Y-109389502D01*
X158154494Y-109330537D01*
X158251185Y-109251185D01*
X158261807Y-109238242D01*
X158513996Y-109357571D01*
X158788184Y-109426300D01*
X159070512Y-109440217D01*
X159350130Y-109398787D01*
X159616292Y-109303603D01*
X159741514Y-109236671D01*
X159813097Y-108992702D01*
X159000000Y-108179605D01*
X158985858Y-108193748D01*
X158806253Y-108014143D01*
X158820395Y-108000000D01*
X159179605Y-108000000D01*
X159992702Y-108813097D01*
X160236671Y-108741514D01*
X160357571Y-108486004D01*
X160426300Y-108211816D01*
X160440217Y-107929488D01*
X160398787Y-107649870D01*
X160303603Y-107383708D01*
X160236671Y-107258486D01*
X159992702Y-107186903D01*
X159179605Y-108000000D01*
X158820395Y-108000000D01*
X158806253Y-107985858D01*
X158985858Y-107806253D01*
X159000000Y-107820395D01*
X159813097Y-107007298D01*
X159741514Y-106763329D01*
X159486004Y-106642429D01*
X159211816Y-106573700D01*
X158929488Y-106559783D01*
X158649870Y-106601213D01*
X158383708Y-106696397D01*
X158261691Y-106761616D01*
X158251185Y-106748815D01*
X158154494Y-106669463D01*
X158044180Y-106610498D01*
X157924482Y-106574188D01*
X157800000Y-106561928D01*
X156200000Y-106561928D01*
X156075518Y-106574188D01*
X155955820Y-106610498D01*
X155845506Y-106669463D01*
X155748815Y-106748815D01*
X155669463Y-106845506D01*
X155610498Y-106955820D01*
X155574188Y-107075518D01*
X155561928Y-107200000D01*
X151537340Y-107200000D01*
X151492702Y-107186903D01*
X150679605Y-108000000D01*
X150320395Y-108000000D01*
X150306253Y-107985858D01*
X150485858Y-107806253D01*
X150500000Y-107820395D01*
X151313097Y-107007298D01*
X151241514Y-106763329D01*
X150986004Y-106642429D01*
X150711816Y-106573700D01*
X150429488Y-106559783D01*
X150149870Y-106601213D01*
X149883708Y-106696397D01*
X149761691Y-106761616D01*
X149751185Y-106748815D01*
X149654494Y-106669463D01*
X149544180Y-106610498D01*
X149424482Y-106574188D01*
X149300000Y-106561928D01*
X147700000Y-106561928D01*
X147575518Y-106574188D01*
X147455820Y-106610498D01*
X147345506Y-106669463D01*
X147248815Y-106748815D01*
X147169463Y-106845506D01*
X147110498Y-106955820D01*
X147074188Y-107075518D01*
X147061928Y-107200000D01*
X139893072Y-107200000D01*
X139893072Y-104760000D01*
X173121687Y-104760000D01*
X173267688Y-104978505D01*
X173481495Y-105192312D01*
X173732905Y-105360299D01*
X174012257Y-105476011D01*
X174308816Y-105535000D01*
X174611184Y-105535000D01*
X174907743Y-105476011D01*
X175187095Y-105360299D01*
X175438505Y-105192312D01*
X175504944Y-105125873D01*
X175510498Y-105144180D01*
X175569463Y-105254494D01*
X175648815Y-105351185D01*
X175745506Y-105430537D01*
X175855820Y-105489502D01*
X175975518Y-105525812D01*
X176100000Y-105538072D01*
X176714250Y-105535000D01*
X176873000Y-105376250D01*
X176873000Y-104127000D01*
X177127000Y-104127000D01*
X177127000Y-105376250D01*
X177285750Y-105535000D01*
X177900000Y-105538072D01*
X178024482Y-105525812D01*
X178144180Y-105489502D01*
X178254494Y-105430537D01*
X178351185Y-105351185D01*
X178430537Y-105254494D01*
X178489502Y-105144180D01*
X178525812Y-105024482D01*
X178538072Y-104900000D01*
X178535000Y-104285750D01*
X178376250Y-104127000D01*
X177127000Y-104127000D01*
X176873000Y-104127000D01*
X176853000Y-104127000D01*
X176853000Y-103873000D01*
X176873000Y-103873000D01*
X176873000Y-102623750D01*
X177127000Y-102623750D01*
X177127000Y-103873000D01*
X178376250Y-103873000D01*
X178535000Y-103714250D01*
X178538072Y-103100000D01*
X178525812Y-102975518D01*
X178489502Y-102855820D01*
X178430537Y-102745506D01*
X178351185Y-102648815D01*
X178254494Y-102569463D01*
X178144180Y-102510498D01*
X178024482Y-102474188D01*
X177900000Y-102461928D01*
X177285750Y-102465000D01*
X177127000Y-102623750D01*
X176873000Y-102623750D01*
X176714250Y-102465000D01*
X176100000Y-102461928D01*
X175975518Y-102474188D01*
X175855820Y-102510498D01*
X175745506Y-102569463D01*
X175648815Y-102648815D01*
X175569463Y-102745506D01*
X175510498Y-102855820D01*
X175504944Y-102874127D01*
X175438505Y-102807688D01*
X175187095Y-102639701D01*
X174907743Y-102523989D01*
X174611184Y-102465000D01*
X174308816Y-102465000D01*
X174012257Y-102523989D01*
X173732905Y-102639701D01*
X173481495Y-102807688D01*
X173267688Y-103021495D01*
X173121687Y-103240000D01*
X133865804Y-103240000D01*
X132118506Y-101492702D01*
X154186903Y-101492702D01*
X154258486Y-101736671D01*
X154513996Y-101857571D01*
X154788184Y-101926300D01*
X155070512Y-101940217D01*
X155350130Y-101898787D01*
X155616292Y-101803603D01*
X155741514Y-101736671D01*
X155813097Y-101492702D01*
X155000000Y-100679605D01*
X154186903Y-101492702D01*
X132118506Y-101492702D01*
X131196316Y-100570512D01*
X153559783Y-100570512D01*
X153601213Y-100850130D01*
X153696397Y-101116292D01*
X153763329Y-101241514D01*
X154007298Y-101313097D01*
X154820395Y-100500000D01*
X155179605Y-100500000D01*
X155992702Y-101313097D01*
X156236671Y-101241514D01*
X156357571Y-100986004D01*
X156426300Y-100711816D01*
X156440217Y-100429488D01*
X156398787Y-100149870D01*
X156303603Y-99883708D01*
X156236671Y-99758486D01*
X155992702Y-99686903D01*
X155179605Y-100500000D01*
X154820395Y-100500000D01*
X154007298Y-99686903D01*
X153763329Y-99758486D01*
X153642429Y-100013996D01*
X153573700Y-100288184D01*
X153559783Y-100570512D01*
X131196316Y-100570512D01*
X130199805Y-99574002D01*
X130176002Y-99544998D01*
X130168474Y-99538820D01*
X130193451Y-99513843D01*
X130076995Y-99397387D01*
X130315860Y-99331863D01*
X130431760Y-99084884D01*
X130497250Y-98820040D01*
X130509812Y-98547508D01*
X130468965Y-98277762D01*
X130376277Y-98021168D01*
X130315860Y-97908137D01*
X130076993Y-97842612D01*
X129299605Y-98620000D01*
X129313748Y-98634143D01*
X129134143Y-98813748D01*
X129120000Y-98799605D01*
X129105858Y-98813748D01*
X128926253Y-98634143D01*
X128940395Y-98620000D01*
X128163007Y-97842612D01*
X127924140Y-97908137D01*
X127808240Y-98155116D01*
X127742750Y-98419960D01*
X127730188Y-98692492D01*
X127771035Y-98962238D01*
X127863723Y-99218832D01*
X127920471Y-99324999D01*
X122694660Y-99324999D01*
X122727371Y-99276043D01*
X122831775Y-99023989D01*
X122885000Y-98756411D01*
X122885000Y-98483589D01*
X122831775Y-98216011D01*
X122727371Y-97963957D01*
X122575799Y-97737114D01*
X122382886Y-97544201D01*
X122156043Y-97392629D01*
X122053127Y-97350000D01*
X122156043Y-97307371D01*
X122382886Y-97155799D01*
X122575799Y-96962886D01*
X122727371Y-96736043D01*
X122831775Y-96483989D01*
X122885000Y-96216411D01*
X122885000Y-95943589D01*
X122856167Y-95798635D01*
X124011003Y-94643799D01*
X124040001Y-94620001D01*
X124078708Y-94572836D01*
X124134974Y-94504277D01*
X124205546Y-94372247D01*
X124219712Y-94325546D01*
X124249003Y-94228986D01*
X124260000Y-94117333D01*
X124260000Y-94117324D01*
X124263676Y-94080001D01*
X124260000Y-94042678D01*
X124260000Y-90863589D01*
X127735000Y-90863589D01*
X127735000Y-91136411D01*
X127788225Y-91403989D01*
X127892629Y-91656043D01*
X128044201Y-91882886D01*
X128237114Y-92075799D01*
X128463957Y-92227371D01*
X128566873Y-92270000D01*
X128463957Y-92312629D01*
X128237114Y-92464201D01*
X128044201Y-92657114D01*
X127892629Y-92883957D01*
X127788225Y-93136011D01*
X127735000Y-93403589D01*
X127735000Y-93676411D01*
X127788225Y-93943989D01*
X127892629Y-94196043D01*
X128044201Y-94422886D01*
X128237114Y-94615799D01*
X128463957Y-94767371D01*
X128566873Y-94810000D01*
X128463957Y-94852629D01*
X128237114Y-95004201D01*
X128044201Y-95197114D01*
X127892629Y-95423957D01*
X127788225Y-95676011D01*
X127735000Y-95943589D01*
X127735000Y-96216411D01*
X127788225Y-96483989D01*
X127892629Y-96736043D01*
X128044201Y-96962886D01*
X128237114Y-97155799D01*
X128463957Y-97307371D01*
X128563279Y-97348511D01*
X128521168Y-97363723D01*
X128408137Y-97424140D01*
X128342612Y-97663007D01*
X129120000Y-98440395D01*
X129897388Y-97663007D01*
X129831863Y-97424140D01*
X129673523Y-97349836D01*
X129776043Y-97307371D01*
X130002886Y-97155799D01*
X130195799Y-96962886D01*
X130347371Y-96736043D01*
X130451775Y-96483989D01*
X130505000Y-96216411D01*
X130505000Y-96199801D01*
X132643833Y-98338635D01*
X132615000Y-98483589D01*
X132615000Y-98756411D01*
X132668225Y-99023989D01*
X132772629Y-99276043D01*
X132924201Y-99502886D01*
X133117114Y-99695799D01*
X133343957Y-99847371D01*
X133596011Y-99951775D01*
X133863589Y-100005000D01*
X134136411Y-100005000D01*
X134403989Y-99951775D01*
X134656043Y-99847371D01*
X134882886Y-99695799D01*
X135075799Y-99502886D01*
X135157909Y-99380000D01*
X135342678Y-99380000D01*
X135380000Y-99383676D01*
X135417322Y-99380000D01*
X135417333Y-99380000D01*
X135528986Y-99369003D01*
X135672247Y-99325546D01*
X135804276Y-99254974D01*
X135920001Y-99160001D01*
X135943804Y-99130997D01*
X139511004Y-95563798D01*
X139540001Y-95540001D01*
X139591366Y-95477413D01*
X139634974Y-95424277D01*
X139705546Y-95292247D01*
X139708271Y-95283264D01*
X139749003Y-95148986D01*
X139760000Y-95037333D01*
X139760000Y-95037324D01*
X139763676Y-95000001D01*
X139760000Y-94962678D01*
X139760000Y-93934801D01*
X140235000Y-93459801D01*
X140235000Y-93676411D01*
X140288225Y-93943989D01*
X140392629Y-94196043D01*
X140544201Y-94422886D01*
X140737114Y-94615799D01*
X140963957Y-94767371D01*
X141066873Y-94810000D01*
X140963957Y-94852629D01*
X140737114Y-95004201D01*
X140544201Y-95197114D01*
X140392629Y-95423957D01*
X140288225Y-95676011D01*
X140235000Y-95943589D01*
X140235000Y-96216411D01*
X140288225Y-96483989D01*
X140392629Y-96736043D01*
X140544201Y-96962886D01*
X140737114Y-97155799D01*
X140963957Y-97307371D01*
X141066873Y-97350000D01*
X140963957Y-97392629D01*
X140737114Y-97544201D01*
X140544201Y-97737114D01*
X140392629Y-97963957D01*
X140288225Y-98216011D01*
X140235000Y-98483589D01*
X140235000Y-98756411D01*
X140288225Y-99023989D01*
X140392629Y-99276043D01*
X140544201Y-99502886D01*
X140737114Y-99695799D01*
X140963957Y-99847371D01*
X141216011Y-99951775D01*
X141483589Y-100005000D01*
X141756411Y-100005000D01*
X142023989Y-99951775D01*
X142276043Y-99847371D01*
X142502886Y-99695799D01*
X142691387Y-99507298D01*
X154186903Y-99507298D01*
X155000000Y-100320395D01*
X155813097Y-99507298D01*
X155741514Y-99263329D01*
X155486004Y-99142429D01*
X155211816Y-99073700D01*
X154929488Y-99059783D01*
X154649870Y-99101213D01*
X154383708Y-99196397D01*
X154258486Y-99263329D01*
X154186903Y-99507298D01*
X142691387Y-99507298D01*
X142695799Y-99502886D01*
X142847371Y-99276043D01*
X142951775Y-99023989D01*
X143005000Y-98756411D01*
X143005000Y-98483589D01*
X142951775Y-98216011D01*
X142847371Y-97963957D01*
X142777017Y-97858665D01*
X151065000Y-97858665D01*
X151065000Y-98141335D01*
X151120147Y-98418574D01*
X151228320Y-98679727D01*
X151385363Y-98914759D01*
X151585241Y-99114637D01*
X151820273Y-99271680D01*
X152081426Y-99379853D01*
X152358665Y-99435000D01*
X152641335Y-99435000D01*
X152918574Y-99379853D01*
X153179727Y-99271680D01*
X153414759Y-99114637D01*
X153614637Y-98914759D01*
X153771680Y-98679727D01*
X153879853Y-98418574D01*
X153935000Y-98141335D01*
X153935000Y-97858665D01*
X153879853Y-97581426D01*
X153771680Y-97320273D01*
X153614637Y-97085241D01*
X153414759Y-96885363D01*
X153179727Y-96728320D01*
X152918574Y-96620147D01*
X152641335Y-96565000D01*
X152358665Y-96565000D01*
X152081426Y-96620147D01*
X151820273Y-96728320D01*
X151585241Y-96885363D01*
X151385363Y-97085241D01*
X151228320Y-97320273D01*
X151120147Y-97581426D01*
X151065000Y-97858665D01*
X142777017Y-97858665D01*
X142695799Y-97737114D01*
X142502886Y-97544201D01*
X142276043Y-97392629D01*
X142173127Y-97350000D01*
X142276043Y-97307371D01*
X142502886Y-97155799D01*
X142695799Y-96962886D01*
X142847371Y-96736043D01*
X142951775Y-96483989D01*
X143005000Y-96216411D01*
X143005000Y-95943589D01*
X142951775Y-95676011D01*
X142847371Y-95423957D01*
X142803745Y-95358665D01*
X153565000Y-95358665D01*
X153565000Y-95641335D01*
X153620147Y-95918574D01*
X153728320Y-96179727D01*
X153885363Y-96414759D01*
X154085241Y-96614637D01*
X154320273Y-96771680D01*
X154581426Y-96879853D01*
X154858665Y-96935000D01*
X155141335Y-96935000D01*
X155418574Y-96879853D01*
X155679727Y-96771680D01*
X155914759Y-96614637D01*
X156114637Y-96414759D01*
X156271680Y-96179727D01*
X156379853Y-95918574D01*
X156435000Y-95641335D01*
X156435000Y-95358665D01*
X156379853Y-95081426D01*
X156271680Y-94820273D01*
X156114637Y-94585241D01*
X155914759Y-94385363D01*
X155679727Y-94228320D01*
X155418574Y-94120147D01*
X155141335Y-94065000D01*
X154858665Y-94065000D01*
X154581426Y-94120147D01*
X154320273Y-94228320D01*
X154085241Y-94385363D01*
X153885363Y-94585241D01*
X153728320Y-94820273D01*
X153620147Y-95081426D01*
X153565000Y-95358665D01*
X142803745Y-95358665D01*
X142695799Y-95197114D01*
X142502886Y-95004201D01*
X142276043Y-94852629D01*
X142173127Y-94810000D01*
X142276043Y-94767371D01*
X142502886Y-94615799D01*
X142695799Y-94422886D01*
X142847371Y-94196043D01*
X142951775Y-93943989D01*
X143005000Y-93676411D01*
X143005000Y-93403589D01*
X142951775Y-93136011D01*
X142847371Y-92883957D01*
X142695799Y-92657114D01*
X142502886Y-92464201D01*
X142276043Y-92312629D01*
X142173127Y-92270000D01*
X142276043Y-92227371D01*
X142502886Y-92075799D01*
X142695799Y-91882886D01*
X142847371Y-91656043D01*
X142951775Y-91403989D01*
X143005000Y-91136411D01*
X143005000Y-90863589D01*
X142951775Y-90596011D01*
X142847371Y-90343957D01*
X142695799Y-90117114D01*
X142502886Y-89924201D01*
X142276043Y-89772629D01*
X142023989Y-89668225D01*
X141756411Y-89615000D01*
X141483589Y-89615000D01*
X141216011Y-89668225D01*
X140963957Y-89772629D01*
X140737114Y-89924201D01*
X140544201Y-90117114D01*
X140392629Y-90343957D01*
X140288225Y-90596011D01*
X140235000Y-90863589D01*
X140235000Y-91136411D01*
X140263833Y-91281365D01*
X138488998Y-93056201D01*
X138460000Y-93079999D01*
X138436202Y-93108997D01*
X138436201Y-93108998D01*
X138365026Y-93195724D01*
X138294454Y-93327754D01*
X138271451Y-93403589D01*
X138250998Y-93471014D01*
X138240001Y-93582667D01*
X138236324Y-93620000D01*
X138240001Y-93657332D01*
X138240000Y-94685198D01*
X135120774Y-97804424D01*
X135075799Y-97737114D01*
X134882886Y-97544201D01*
X134656043Y-97392629D01*
X134553127Y-97350000D01*
X134656043Y-97307371D01*
X134882886Y-97155799D01*
X135075799Y-96962886D01*
X135227371Y-96736043D01*
X135331775Y-96483989D01*
X135385000Y-96216411D01*
X135385000Y-95943589D01*
X135331775Y-95676011D01*
X135227371Y-95423957D01*
X135075799Y-95197114D01*
X134882886Y-95004201D01*
X134656043Y-94852629D01*
X134553127Y-94810000D01*
X134656043Y-94767371D01*
X134882886Y-94615799D01*
X135075799Y-94422886D01*
X135227371Y-94196043D01*
X135331775Y-93943989D01*
X135385000Y-93676411D01*
X135385000Y-93403589D01*
X135331775Y-93136011D01*
X135227371Y-92883957D01*
X135075799Y-92657114D01*
X134882886Y-92464201D01*
X134656043Y-92312629D01*
X134556721Y-92271489D01*
X134598832Y-92256277D01*
X134711863Y-92195860D01*
X134777388Y-91956993D01*
X134000000Y-91179605D01*
X133222612Y-91956993D01*
X133288137Y-92195860D01*
X133446477Y-92270164D01*
X133343957Y-92312629D01*
X133117114Y-92464201D01*
X132924201Y-92657114D01*
X132772629Y-92883957D01*
X132668225Y-93136011D01*
X132615000Y-93403589D01*
X132615000Y-93676411D01*
X132668225Y-93943989D01*
X132772629Y-94196043D01*
X132924201Y-94422886D01*
X133117114Y-94615799D01*
X133343957Y-94767371D01*
X133446873Y-94810000D01*
X133343957Y-94852629D01*
X133117114Y-95004201D01*
X132924201Y-95197114D01*
X132772629Y-95423957D01*
X132668225Y-95676011D01*
X132615000Y-95943589D01*
X132615000Y-96160199D01*
X131760000Y-95305199D01*
X131760000Y-92917322D01*
X131763676Y-92879999D01*
X131760000Y-92842676D01*
X131760000Y-92842667D01*
X131749003Y-92731014D01*
X131705546Y-92587753D01*
X131634974Y-92455724D01*
X131589522Y-92400340D01*
X131563799Y-92368996D01*
X131563795Y-92368992D01*
X131540001Y-92339999D01*
X131511008Y-92316205D01*
X130476167Y-91281365D01*
X130505000Y-91136411D01*
X130505000Y-91072492D01*
X132610188Y-91072492D01*
X132651035Y-91342238D01*
X132743723Y-91598832D01*
X132804140Y-91711863D01*
X133043007Y-91777388D01*
X133820395Y-91000000D01*
X134179605Y-91000000D01*
X134956993Y-91777388D01*
X135195860Y-91711863D01*
X135311760Y-91464884D01*
X135377250Y-91200040D01*
X135389812Y-90927508D01*
X135348965Y-90657762D01*
X135256277Y-90401168D01*
X135195860Y-90288137D01*
X134956993Y-90222612D01*
X134179605Y-91000000D01*
X133820395Y-91000000D01*
X133043007Y-90222612D01*
X132804140Y-90288137D01*
X132688240Y-90535116D01*
X132622750Y-90799960D01*
X132610188Y-91072492D01*
X130505000Y-91072492D01*
X130505000Y-90863589D01*
X130451775Y-90596011D01*
X130347371Y-90343957D01*
X130195799Y-90117114D01*
X130121692Y-90043007D01*
X133222612Y-90043007D01*
X134000000Y-90820395D01*
X134777388Y-90043007D01*
X134711863Y-89804140D01*
X134464884Y-89688240D01*
X134200040Y-89622750D01*
X133927508Y-89610188D01*
X133657762Y-89651035D01*
X133401168Y-89743723D01*
X133288137Y-89804140D01*
X133222612Y-90043007D01*
X130121692Y-90043007D01*
X130002886Y-89924201D01*
X129776043Y-89772629D01*
X129523989Y-89668225D01*
X129256411Y-89615000D01*
X128983589Y-89615000D01*
X128716011Y-89668225D01*
X128463957Y-89772629D01*
X128237114Y-89924201D01*
X128044201Y-90117114D01*
X127892629Y-90343957D01*
X127788225Y-90596011D01*
X127735000Y-90863589D01*
X124260000Y-90863589D01*
X124260000Y-88358665D01*
X145065000Y-88358665D01*
X145065000Y-88641335D01*
X145120147Y-88918574D01*
X145228320Y-89179727D01*
X145385363Y-89414759D01*
X145585241Y-89614637D01*
X145820273Y-89771680D01*
X146081426Y-89879853D01*
X146358665Y-89935000D01*
X146641335Y-89935000D01*
X146918574Y-89879853D01*
X147179727Y-89771680D01*
X147414759Y-89614637D01*
X147614637Y-89414759D01*
X147771680Y-89179727D01*
X147879853Y-88918574D01*
X147935000Y-88641335D01*
X147935000Y-88358665D01*
X157765000Y-88358665D01*
X157765000Y-88641335D01*
X157820147Y-88918574D01*
X157928320Y-89179727D01*
X158085363Y-89414759D01*
X158285241Y-89614637D01*
X158520273Y-89771680D01*
X158781426Y-89879853D01*
X159058665Y-89935000D01*
X159341335Y-89935000D01*
X159618574Y-89879853D01*
X159879727Y-89771680D01*
X160114759Y-89614637D01*
X160314637Y-89414759D01*
X160471680Y-89179727D01*
X160579853Y-88918574D01*
X160635000Y-88641335D01*
X160635000Y-88358665D01*
X160579853Y-88081426D01*
X160471680Y-87820273D01*
X160314637Y-87585241D01*
X160114759Y-87385363D01*
X159879727Y-87228320D01*
X159618574Y-87120147D01*
X159341335Y-87065000D01*
X159058665Y-87065000D01*
X158781426Y-87120147D01*
X158520273Y-87228320D01*
X158285241Y-87385363D01*
X158085363Y-87585241D01*
X157928320Y-87820273D01*
X157820147Y-88081426D01*
X157765000Y-88358665D01*
X147935000Y-88358665D01*
X147879853Y-88081426D01*
X147771680Y-87820273D01*
X147614637Y-87585241D01*
X147414759Y-87385363D01*
X147179727Y-87228320D01*
X146918574Y-87120147D01*
X146641335Y-87065000D01*
X146358665Y-87065000D01*
X146081426Y-87120147D01*
X145820273Y-87228320D01*
X145585241Y-87385363D01*
X145385363Y-87585241D01*
X145228320Y-87820273D01*
X145120147Y-88081426D01*
X145065000Y-88358665D01*
X124260000Y-88358665D01*
X124260000Y-84854801D01*
X132265985Y-76848816D01*
X160925000Y-76848816D01*
X160925000Y-77151184D01*
X160983989Y-77447743D01*
X161099701Y-77727095D01*
X161267688Y-77978505D01*
X161481495Y-78192312D01*
X161732905Y-78360299D01*
X162012257Y-78476011D01*
X162308816Y-78535000D01*
X162611184Y-78535000D01*
X162907743Y-78476011D01*
X163187095Y-78360299D01*
X163438505Y-78192312D01*
X163504944Y-78125873D01*
X163510498Y-78144180D01*
X163569463Y-78254494D01*
X163648815Y-78351185D01*
X163745506Y-78430537D01*
X163855820Y-78489502D01*
X163975518Y-78525812D01*
X164100000Y-78538072D01*
X164714250Y-78535000D01*
X164873000Y-78376250D01*
X164873000Y-77127000D01*
X165127000Y-77127000D01*
X165127000Y-78376250D01*
X165285750Y-78535000D01*
X165900000Y-78538072D01*
X166024482Y-78525812D01*
X166144180Y-78489502D01*
X166254494Y-78430537D01*
X166351185Y-78351185D01*
X166430537Y-78254494D01*
X166489502Y-78144180D01*
X166525812Y-78024482D01*
X166538072Y-77900000D01*
X166535000Y-77285750D01*
X166376250Y-77127000D01*
X165127000Y-77127000D01*
X164873000Y-77127000D01*
X164853000Y-77127000D01*
X164853000Y-76873000D01*
X164873000Y-76873000D01*
X164873000Y-75623750D01*
X165127000Y-75623750D01*
X165127000Y-76873000D01*
X166376250Y-76873000D01*
X166535000Y-76714250D01*
X166538072Y-76100000D01*
X166525812Y-75975518D01*
X166489502Y-75855820D01*
X166430537Y-75745506D01*
X166351185Y-75648815D01*
X166254494Y-75569463D01*
X166144180Y-75510498D01*
X166024482Y-75474188D01*
X165900000Y-75461928D01*
X165285750Y-75465000D01*
X165127000Y-75623750D01*
X164873000Y-75623750D01*
X164714250Y-75465000D01*
X164100000Y-75461928D01*
X163975518Y-75474188D01*
X163855820Y-75510498D01*
X163745506Y-75569463D01*
X163648815Y-75648815D01*
X163569463Y-75745506D01*
X163510498Y-75855820D01*
X163504944Y-75874127D01*
X163438505Y-75807688D01*
X163187095Y-75639701D01*
X162907743Y-75523989D01*
X162611184Y-75465000D01*
X162308816Y-75465000D01*
X162012257Y-75523989D01*
X161732905Y-75639701D01*
X161481495Y-75807688D01*
X161267688Y-76021495D01*
X161099701Y-76272905D01*
X160983989Y-76552257D01*
X160925000Y-76848816D01*
X132265985Y-76848816D01*
X139131070Y-69983731D01*
X139388816Y-70035000D01*
X139691184Y-70035000D01*
X139987743Y-69976011D01*
X140267095Y-69860299D01*
X140518505Y-69692312D01*
X140732312Y-69478505D01*
X140900299Y-69227095D01*
X141016011Y-68947743D01*
X141075000Y-68651184D01*
X141075000Y-68348816D01*
X141016011Y-68052257D01*
X140900299Y-67772905D01*
X140732312Y-67521495D01*
X140518505Y-67307688D01*
X140267095Y-67139701D01*
X139987743Y-67023989D01*
X139691184Y-66965000D01*
X139388816Y-66965000D01*
X139092257Y-67023989D01*
X138812905Y-67139701D01*
X138561495Y-67307688D01*
X138495056Y-67374127D01*
X138489502Y-67355820D01*
X138430537Y-67245506D01*
X138351185Y-67148815D01*
X138254494Y-67069463D01*
X138144180Y-67010498D01*
X138024482Y-66974188D01*
X137900000Y-66961928D01*
X137285750Y-66965000D01*
X137127000Y-67123750D01*
X137127000Y-68373000D01*
X137147000Y-68373000D01*
X137147000Y-68627000D01*
X137127000Y-68627000D01*
X137127000Y-68647000D01*
X136873000Y-68647000D01*
X136873000Y-68627000D01*
X135623750Y-68627000D01*
X135465000Y-68785750D01*
X135461928Y-69400000D01*
X135474188Y-69524482D01*
X135510498Y-69644180D01*
X135569463Y-69754494D01*
X135648815Y-69851185D01*
X135745506Y-69930537D01*
X135855820Y-69989502D01*
X135975518Y-70025812D01*
X136100000Y-70038072D01*
X136714250Y-70035000D01*
X136872998Y-69876252D01*
X136872998Y-70035000D01*
X136930198Y-70035000D01*
X122989003Y-83976196D01*
X122959999Y-83999999D01*
X122904871Y-84067174D01*
X122865026Y-84115724D01*
X122794455Y-84247753D01*
X122794454Y-84247754D01*
X122750997Y-84391015D01*
X122740000Y-84502668D01*
X122740000Y-84502678D01*
X122736324Y-84540000D01*
X122740000Y-84577322D01*
X122740001Y-90374448D01*
X122727371Y-90343957D01*
X122575799Y-90117114D01*
X122382886Y-89924201D01*
X122156043Y-89772629D01*
X121903989Y-89668225D01*
X121636411Y-89615000D01*
X121363589Y-89615000D01*
X121096011Y-89668225D01*
X120843957Y-89772629D01*
X120617114Y-89924201D01*
X120424201Y-90117114D01*
X120272629Y-90343957D01*
X120168225Y-90596011D01*
X120115000Y-90863589D01*
X96593261Y-90863589D01*
X96706632Y-90507779D01*
X96748805Y-90389188D01*
X97725511Y-87887841D01*
X98844773Y-85446455D01*
X98846535Y-85442889D01*
X100875594Y-81740777D01*
X102233889Y-79640433D01*
X103100323Y-78434017D01*
X104664704Y-76465918D01*
X105161379Y-75900000D01*
X112961928Y-75900000D01*
X112974188Y-76024482D01*
X113010498Y-76144180D01*
X113069463Y-76254494D01*
X113148815Y-76351185D01*
X113245506Y-76430537D01*
X113355820Y-76489502D01*
X113475518Y-76525812D01*
X113600000Y-76538072D01*
X114214250Y-76535000D01*
X114373000Y-76376250D01*
X114373000Y-75127000D01*
X113123750Y-75127000D01*
X112965000Y-75285750D01*
X112961928Y-75900000D01*
X105161379Y-75900000D01*
X105641197Y-75353290D01*
X106881989Y-74100000D01*
X112961928Y-74100000D01*
X112965000Y-74714250D01*
X113123750Y-74873000D01*
X114373000Y-74873000D01*
X114373000Y-73623750D01*
X114627000Y-73623750D01*
X114627000Y-74873000D01*
X114647000Y-74873000D01*
X114647000Y-75127000D01*
X114627000Y-75127000D01*
X114627000Y-76376250D01*
X114785750Y-76535000D01*
X115400000Y-76538072D01*
X115524482Y-76525812D01*
X115644180Y-76489502D01*
X115754494Y-76430537D01*
X115851185Y-76351185D01*
X115930537Y-76254494D01*
X115989502Y-76144180D01*
X115995056Y-76125873D01*
X116061495Y-76192312D01*
X116312905Y-76360299D01*
X116592257Y-76476011D01*
X116888816Y-76535000D01*
X117191184Y-76535000D01*
X117487743Y-76476011D01*
X117767095Y-76360299D01*
X118018505Y-76192312D01*
X118232312Y-75978505D01*
X118400299Y-75727095D01*
X118516011Y-75447743D01*
X118575000Y-75151184D01*
X118575000Y-74848816D01*
X118516011Y-74552257D01*
X118400299Y-74272905D01*
X118232312Y-74021495D01*
X118018505Y-73807688D01*
X117767095Y-73639701D01*
X117487743Y-73523989D01*
X117191184Y-73465000D01*
X116888816Y-73465000D01*
X116592257Y-73523989D01*
X116312905Y-73639701D01*
X116061495Y-73807688D01*
X115995056Y-73874127D01*
X115989502Y-73855820D01*
X115930537Y-73745506D01*
X115851185Y-73648815D01*
X115754494Y-73569463D01*
X115644180Y-73510498D01*
X115524482Y-73474188D01*
X115400000Y-73461928D01*
X114785750Y-73465000D01*
X114627000Y-73623750D01*
X114373000Y-73623750D01*
X114214250Y-73465000D01*
X113600000Y-73461928D01*
X113475518Y-73474188D01*
X113355820Y-73510498D01*
X113245506Y-73569463D01*
X113148815Y-73648815D01*
X113069463Y-73745506D01*
X113010498Y-73855820D01*
X112974188Y-73975518D01*
X112961928Y-74100000D01*
X106881989Y-74100000D01*
X108615431Y-72349100D01*
X110525707Y-70680456D01*
X112544474Y-69123688D01*
X112635983Y-69057697D01*
X114787063Y-67606388D01*
X114797861Y-67600000D01*
X135461928Y-67600000D01*
X135465000Y-68214250D01*
X135623750Y-68373000D01*
X136873000Y-68373000D01*
X136873000Y-67123750D01*
X136714250Y-66965000D01*
X136100000Y-66961928D01*
X135975518Y-66974188D01*
X135855820Y-67010498D01*
X135745506Y-67069463D01*
X135648815Y-67148815D01*
X135569463Y-67245506D01*
X135510498Y-67355820D01*
X135474188Y-67475518D01*
X135461928Y-67600000D01*
X114797861Y-67600000D01*
X117020543Y-66285140D01*
X117095493Y-66243868D01*
X119405037Y-65060937D01*
X121778618Y-64013013D01*
X121932076Y-63950841D01*
X124452828Y-63016458D01*
X127022136Y-62224142D01*
X127072865Y-62210087D01*
X127076986Y-62209315D01*
X127440173Y-62103524D01*
X127450471Y-62101239D01*
X127470207Y-62094775D01*
X127490147Y-62088967D01*
X127499937Y-62085038D01*
X127776581Y-61994435D01*
X127786728Y-61991831D01*
X127806295Y-61984703D01*
X127826105Y-61978215D01*
X127835701Y-61973991D01*
X128105677Y-61875642D01*
X128190487Y-61834933D01*
X128202370Y-61826014D01*
X128230258Y-61808778D01*
X128278552Y-61780191D01*
X128285692Y-61774883D01*
X128326818Y-61743867D01*
X128347966Y-61724405D01*
X128371043Y-61707275D01*
X128377594Y-61701254D01*
X128379419Y-61699553D01*
X128398437Y-61677993D01*
X128419612Y-61658555D01*
X128425502Y-61651887D01*
X128450762Y-61622879D01*
X128484251Y-61575843D01*
X128518411Y-61529257D01*
X128522893Y-61521571D01*
X128522894Y-61521569D01*
X128522897Y-61521565D01*
X128522899Y-61521560D01*
X128542039Y-61488209D01*
X128565772Y-61435526D01*
X128575044Y-61415689D01*
X128585577Y-61397335D01*
X128615585Y-61308175D01*
X128901944Y-60065510D01*
X128902684Y-60063256D01*
X128908966Y-60035037D01*
X128915468Y-60006822D01*
X128915772Y-60004465D01*
X129218517Y-58644554D01*
X129219482Y-58641514D01*
X129225324Y-58613979D01*
X129231429Y-58586556D01*
X129231813Y-58583396D01*
X129578510Y-56949329D01*
X129932862Y-55280073D01*
X130256050Y-53828387D01*
X130536479Y-52616615D01*
X130543930Y-52594691D01*
X130765210Y-52569792D01*
X131438302Y-52561062D01*
X131439843Y-52561186D01*
X131469602Y-52560656D01*
X131499354Y-52560270D01*
X131500890Y-52560099D01*
X132157010Y-52548411D01*
X132181826Y-52545520D01*
X132599967Y-52505154D01*
X132644395Y-52496427D01*
X132689222Y-52490079D01*
X132697852Y-52487918D01*
X132987805Y-52413150D01*
X133040942Y-52393747D01*
X133094352Y-52375316D01*
X133102413Y-52371551D01*
X133207848Y-52321400D01*
X133256892Y-52291886D01*
X133306384Y-52263145D01*
X133313569Y-52257897D01*
X133408963Y-52187195D01*
X133442878Y-52156502D01*
X133478306Y-52127638D01*
X133484579Y-52121328D01*
X133589561Y-52014235D01*
X133611562Y-51986900D01*
X133635824Y-51961530D01*
X133641267Y-51954492D01*
X133730017Y-51838080D01*
X133749824Y-51806036D01*
X133772059Y-51775595D01*
X133776527Y-51767901D01*
X133838789Y-51658948D01*
X133845466Y-51644053D01*
X133848440Y-51639710D01*
X133853142Y-51628739D01*
X133863384Y-51611372D01*
X133867078Y-51603278D01*
X133871586Y-51593214D01*
X133881451Y-51563781D01*
X133889664Y-51545460D01*
X133890622Y-51541293D01*
X133897435Y-51525397D01*
X133900066Y-51516898D01*
X133910390Y-51482704D01*
X133921610Y-51426042D01*
X133933619Y-51369539D01*
X133934549Y-51360691D01*
X133938034Y-51325143D01*
X133938034Y-51296500D01*
X133941054Y-51268023D01*
X133941062Y-51259126D01*
X133941042Y-51255808D01*
X133938080Y-51227366D01*
X133938139Y-51198769D01*
X133937227Y-51189919D01*
X133931276Y-51135860D01*
X133919380Y-51079322D01*
X133908281Y-51022657D01*
X133907421Y-51019858D01*
X133907089Y-51017032D01*
X133878096Y-50927537D01*
X133716788Y-50557882D01*
X133714357Y-50550928D01*
X133704265Y-50529183D01*
X133694693Y-50507248D01*
X133691105Y-50500828D01*
X133512307Y-50115582D01*
X133509533Y-50108233D01*
X133499133Y-50087195D01*
X133489258Y-50065919D01*
X133485271Y-50059156D01*
X133262218Y-49607969D01*
X132940165Y-48930347D01*
X132782079Y-48490287D01*
X132693380Y-48043507D01*
X132629911Y-47350197D01*
X132607800Y-46752375D01*
X134734343Y-46752375D01*
X134735100Y-46814630D01*
X134779869Y-47547456D01*
X134784718Y-47578262D01*
X134786447Y-47607768D01*
X134787893Y-47616547D01*
X134810733Y-47749429D01*
X134819987Y-47783136D01*
X134826320Y-47817516D01*
X134828837Y-47826050D01*
X134976057Y-48312559D01*
X134989703Y-48345607D01*
X135000553Y-48379679D01*
X135004124Y-48387828D01*
X135062373Y-48518268D01*
X135080067Y-48549335D01*
X135095115Y-48581767D01*
X135099682Y-48589402D01*
X135354653Y-49008913D01*
X135388021Y-49053370D01*
X135420547Y-49098617D01*
X135426467Y-49105259D01*
X135900271Y-49629430D01*
X135939808Y-49665393D01*
X135978346Y-49702436D01*
X135985370Y-49707897D01*
X136528447Y-50124123D01*
X136560160Y-50143838D01*
X136590256Y-50165987D01*
X136597934Y-50170483D01*
X136748701Y-50257358D01*
X136784753Y-50273675D01*
X136819538Y-50292512D01*
X136827762Y-50295908D01*
X137217484Y-50453656D01*
X137252009Y-50463841D01*
X137285573Y-50476837D01*
X137294161Y-50479165D01*
X137434067Y-50516042D01*
X137469600Y-50521776D01*
X137504542Y-50530420D01*
X137513354Y-50531642D01*
X137993582Y-50594831D01*
X138012626Y-50595461D01*
X138038880Y-50599153D01*
X138096690Y-50599964D01*
X138888131Y-50575144D01*
X138917453Y-50571857D01*
X138938148Y-50571602D01*
X138946984Y-50570563D01*
X139079466Y-50554048D01*
X139114295Y-50546195D01*
X139149649Y-50541275D01*
X139158285Y-50539135D01*
X139605581Y-50424931D01*
X139634058Y-50414610D01*
X139663395Y-50407207D01*
X139671747Y-50404141D01*
X139731713Y-50381647D01*
X139758885Y-50368299D01*
X139787256Y-50357748D01*
X139795226Y-50353792D01*
X140295646Y-50101008D01*
X140319053Y-50086153D01*
X140343947Y-50073914D01*
X140351477Y-50069176D01*
X140369156Y-50057878D01*
X140390958Y-50040733D01*
X140414488Y-50026051D01*
X140421503Y-50020578D01*
X140929212Y-49618710D01*
X140947396Y-49601173D01*
X140968385Y-49585033D01*
X141011783Y-49540392D01*
X141487473Y-49000662D01*
X141501394Y-48981460D01*
X141516826Y-48964809D01*
X141522159Y-48957687D01*
X141531138Y-48945519D01*
X141545749Y-48921032D01*
X141562873Y-48898227D01*
X141567442Y-48890593D01*
X141700843Y-48664141D01*
X141725156Y-48611769D01*
X141750212Y-48559709D01*
X141753212Y-48551332D01*
X141840086Y-48303281D01*
X141844223Y-48286313D01*
X141867001Y-48198801D01*
X141995684Y-47437137D01*
X141996928Y-47421637D01*
X142000193Y-47405712D01*
X142004417Y-47345824D01*
X142023134Y-46542614D01*
X142020986Y-46507649D01*
X142021647Y-46481807D01*
X142020943Y-46472937D01*
X142005513Y-46294269D01*
X141998467Y-46256384D01*
X141994262Y-46218082D01*
X141992372Y-46209387D01*
X141889074Y-45749689D01*
X141877018Y-45713160D01*
X141867722Y-45675824D01*
X141864681Y-45667462D01*
X141816785Y-45538549D01*
X141799933Y-45503970D01*
X141785710Y-45468226D01*
X141781574Y-45460349D01*
X141610482Y-45139904D01*
X141598273Y-45121596D01*
X141587950Y-45101060D01*
X141552295Y-45050022D01*
X141170559Y-44556774D01*
X141161202Y-44546806D01*
X141153416Y-44535577D01*
X141110964Y-44490035D01*
X140655342Y-44046782D01*
X140636843Y-44031929D01*
X140620956Y-44015682D01*
X140614104Y-44010006D01*
X140553154Y-43960222D01*
X140526489Y-43942478D01*
X140501617Y-43922275D01*
X140494162Y-43917419D01*
X140107072Y-43669052D01*
X140079416Y-43654908D01*
X140053268Y-43638120D01*
X140045320Y-43634122D01*
X139992528Y-43608027D01*
X139963471Y-43597045D01*
X139935629Y-43583272D01*
X139927286Y-43580182D01*
X139531251Y-43436648D01*
X139511158Y-43431518D01*
X139491039Y-43423565D01*
X139430454Y-43409223D01*
X138868157Y-43304813D01*
X138857008Y-43303824D01*
X138846140Y-43301122D01*
X138784190Y-43294926D01*
X138213691Y-43265908D01*
X138191827Y-43266877D01*
X138170894Y-43265170D01*
X138161999Y-43265378D01*
X138099259Y-43267281D01*
X138068100Y-43271293D01*
X138036690Y-43272271D01*
X138027875Y-43273476D01*
X137616848Y-43332582D01*
X137571254Y-43343767D01*
X137525231Y-43352734D01*
X137516724Y-43355339D01*
X137145247Y-43471931D01*
X137102074Y-43490279D01*
X137058053Y-43506534D01*
X137050075Y-43510472D01*
X136515584Y-43778908D01*
X136477004Y-43803266D01*
X136437216Y-43825571D01*
X136429952Y-43830709D01*
X136123686Y-44050579D01*
X136089403Y-44080670D01*
X136053591Y-44108936D01*
X136047222Y-44115148D01*
X135607137Y-44550379D01*
X135577463Y-44586099D01*
X135546031Y-44620330D01*
X135540732Y-44627476D01*
X135315495Y-44935683D01*
X135291877Y-44975683D01*
X135266301Y-45014471D01*
X135262207Y-45022370D01*
X134989734Y-45557115D01*
X134970957Y-45605026D01*
X134950574Y-45652266D01*
X134947923Y-45660759D01*
X134824961Y-46064485D01*
X134814843Y-46114940D01*
X134803027Y-46165014D01*
X134801900Y-46173839D01*
X134738500Y-46699459D01*
X134737921Y-46725392D01*
X134734343Y-46752375D01*
X132607800Y-46752375D01*
X132605454Y-46688957D01*
X132626862Y-46219700D01*
X132699005Y-45785027D01*
X132841494Y-45250496D01*
X133179912Y-44391183D01*
X133650398Y-43598658D01*
X133913500Y-43257040D01*
X134555650Y-42601496D01*
X135292187Y-42054669D01*
X135685460Y-41830125D01*
X136548237Y-41466420D01*
X137457925Y-41242002D01*
X137892412Y-41187802D01*
X138825856Y-41179437D01*
X139749479Y-41312313D01*
G37*
%TD.AperFunction*%
%TD*%
M02*
